<?xml version="1.0" encoding="UTF-8"?>
<svg id="Capa_2" data-name="Capa 2" xmlns="http://www.w3.org/2000/svg" viewBox="0 0 1025.12 465.6">
  <defs>
    <style>
      .cls-1 {
        fill: #212223;
      }
    </style>
  </defs>
  <g id="Capa_1-2" data-name="Capa 1">
    <g>
      <g>
        <path class="cls-1" d="M104.91,285.26h106.48l-36.8,180.34H36.8L0,285.26h100.22v120.05h4.7v-120.05Z"/>
        <path class="cls-1" d="M219.48,285.26h196.52v60.03h-96.83v4.7h79.86v50.63h-79.86v4.7h96.83v60.03h-196.78l.26-180.08Z"/>
        <path class="cls-1" d="M526.39,405.32h96.83v60.03h-196.78l.26-180.34h99.69v120.31Z"/>
        <path class="cls-1" d="M798.59,285c5.39,0,10.53,1.04,15.4,3.13s9.22,4.96,13.05,8.61c7.83,7.83,11.74,17.31,11.74,28.45v100.22c0,5.39-1,10.53-3,15.4-2,4.87-4.92,9.13-8.74,12.79-7.83,7.83-17.31,11.74-28.45,11.74h-125.01c-5.22,0-10.27-1-15.14-3-4.87-2-9.22-4.91-13.05-8.74-3.83-3.82-6.74-8.18-8.74-13.05-2-4.87-3-9.92-3-15.14v-24.14c0-8.61.04-17.31.13-26.1.09-8.78.13-17.49.13-26.1v-24.14c0-5.39,1.04-10.53,3.13-15.4,2.08-4.87,4.96-9.13,8.61-12.79,3.65-3.65,7.92-6.52,12.79-8.61,4.87-2.09,10.09-3.13,15.66-3.13h124.49ZM738.83,345.29h-5.22v60.03h5.22v-60.03Z"/>
        <path class="cls-1" d="M974.49,405.84l-10.71,12.79,3.92,3.39,13.83-16.7h43.58v60.03h-175.9v-60.03l57.68-73.6-4.18-3.39-13.05,16.96h-40.45v-60.03h175.9v60.03l-50.63,60.55Z"/>
      </g>
      <g>
        <path class="cls-1" d="M841.23,163.3c-14.11-8.11-40.36-18.34-56.09-19.5-23.75-1.74-47.69-1.69-71.49-2.96-20.81-1.1-31.75,2.73-45.71-16.48-7.09-9.77-8.04-24.14-11.5-35.69,1.21-.22,1.53-.03,2.4.77,2.39,2.19,3.84,13.31,4.88,17.1.25.89.85,5.1,2.07,4.47.76-.39,6.56-12.91,8.4-15.57,14.07-20.36,41.43-37.38,65.17-38.8,18.44-1.1,47,7.97,63.75-.84.83-.44,1.7-.96,2.51-1.54,1-.72,1.41-2.07,1.07-3.3-.14-.5-.33-1.03-.58-1.58-.64-1.38-1.48-2.36-2.16-3-.43-.4-.92-.69-1.47-.85-6.61-1.95-13.42-4.11-20.4-6.48-6.52-2.22-12.81-4.51-18.87-6.83-1.4-.54-2.67-1.4-3.73-2.53-8.14-8.75-22.27-12.03-33.31-13.26-3.25-.36-7.09.52-10.24-.18-1.93-.42-4.61-2.81-6.97-3.68-8.55-3.16-21.26-.88-30.32-.62-.73,5.19,5.87,5.62,9.01,7.09,4.01,1.88,9.36,5.32,13.47,6.5,3.46,1.06,8.93.66,8.75,2.42-.2,1.92-6.78,1.1-8.35.79-4.14-.83-11.94-6.33-14.8-6.32-9.67.04-27.3,10.34-36.73,14.24-20.87,8.64-42.21,12.28-64.69,11.06-19.66-1.06-34.98-9.93-53.74-14.56-56.93-14.05-105.65-5.7-138.05,5.11-36.89,12.31-46.35,22.79-63.08,30.56-13.84,6.42-70.59,21.86-109.21-6.26-10.75-7.83-17.39-17.9-17.97-18.79-11.3-17.45-11.71-35.53-11.36-43.76-.52,2.14-1.14,5.18-1.52,8.85-.79,7.74-1.1,22.11,6.27,36.87,12.23,24.49,37.02,32.85,48.16,36.6,0,0,29.41,9.92,75.85.26,4.66-.97,9.17-2.14,9.17-2.14,3.84-1.04,8.44-2.28,13.99-4.67,3.33-1.43,7.66-3.56,12.46-6.68.04,2.55-1.58,3.87-6.39,6.82-5.06,3-11.16,5.44-14.69,6.6-.5.71-1.37,1.77-2.36,3.11-3.33,4.51-3.54,4.9-4.4,6.19-5.33,7.95-9.62,14.65-11.96,17.37-2.23,2.59-6.03,6.67-11.09,10.26-10.37,7.38-22.44,10.83-35.12,11.72-4.79.34-9.66.32-14.56,0-2.67-.13-8.63-1.11-12.68-1.95-1.15-.24-2.37-.16-3.43.36-6.27,3.06-15.94,16.6-19.57,20.58-3.47,3.8-7.29,8.15-11.2,12.36-3.9,4.19-5.49,5.66-9.31,8.88-4.88,4.12-12.18,7.34-16.34,11.51-1.02,1.02-10.24,11.4-7.23,12.3,1.78.53,8.02.29,10.41,0,6.68-.81,20.76-18.17,26.01-23.48,11.31-11.44,25.72-25.84,42-27.17,10.28-.84,20.39,3.29,30.52,4.45,11.25,1.29,28.44,2.27,39.58,1.53,32.47-2.15,58.86-39.78,84.21-58.91,24.33-18.36,64.5-10.16,89.25,14.16,16.08,15.8,31.2,32.09,51.43,42.38,19.53,9.94,39.1,10.15,60.26,8.29,9.04-.8,18.01-3.05,27.08-3.78,3.14.28,4.86,5.87,7.59,7.55,2.21,1.37,18.39.81,22.27.74,7.95-.15,15.9-.4,23.86-.71,15.02-.59,30.06-1.39,45.08-2.06h.06c8.92-.4,17.82-.77,26.71-1.01,18.73-.52,35.87-2.82,53.48,5.22,8.83,4.03,18.32,13.78,27.74,14.02,1.83.05,4.23-.47,5.92-1.08.43-.15.6-.96.52-1.36-.86-4.43-5.06-8.62-8.65-10.68ZM747.35,30.28c1.77-1.14,8.75-3.03,8.68,1.96,0,0-.05.51-.24.93-.51,1.13-6.77,1.2-8.33.64-.33-.13-.85-.7-.95-1.47-.15-1.06.35-1.73.84-2.06ZM709.44,22.18c-.67-1.29-.5-1.77-.88-2.44-.76-1.36-2.41-1.07-5.06-1.86-2.07-.63-4.84-1.94-4.73-2.58.14-.82,5.05-1.38,9.17.96.71.4,4.36,2.47,4.27,5.2-.03,1.08-.67,2.34-1.31,2.38-.58.03-1.08-.92-1.46-1.65Z"/>
        <path class="cls-1" d="M331.18,83.17c-2.98,3.58-7.22,9.87-9.99,14.21-2.45,3.82-5.12,7.32-7.21,9.81-10.54,12.53-25.5,18.97-44.3,20.26-2.12.15-4.28.24-6.5.24-2.35,0-4.8-.08-7.28-.24-.65-.04-1.36-.13-2.1-.25-1.26-.2-2.62-.49-3.94-.77-2.74-.59-5.58-1.27-8.12-1.19-4.59.13-12.46,7.79-20.64,17.98-1.47,1.83-2.74,3.42-3.57,4.34-1.37,1.5-2.8,3.08-4.25,4.71-1.27,1.41-2.57,2.86-3.9,4.32-3.04,3.34-6.49,6.25-10.38,8.35-1.07.58-2.17,1.11-3.32,1.58-4.61,1.93-9.25,3.06-14.09,2.26-5.1-.84-1.74-4.45-.31-6.37,5.68-7.62,17.04-12.53,24.77-19.02,11.14-9.35,21.25-22.31,30.55-31.17.52-.49,1.1-.92,1.74-1.24,2.47-1.21,3.13-.25,7.15,1.15,24.55,8.63,43.88,7,63.68-11.5,2.92-2.73,11.54-13.45,14.25-15.67,2.47-.53,5.32-1.15,7.77-1.77Z"/>
        <path class="cls-1" d="M833.37,207.5c-.04.92-3.65,1.68-4.49,1.71-13.88.34-23.59-13.05-35.28-19.35-3.9-2.1-8.07-3.49-12.25-4.72-26.9-7.96-54.42-12.04-81.62-19.38-1.51-.41-3.8-1-6.73-1.89,8.76-.35,17.49-.77,26.06-1.18,5.42-.26,10.91-.52,16.44-.77,9.68,0,17.94,1.01,30.73,5.19,17.17,5.62,53.26,21.08,64.37,35.94,1.04,1.4,2.81,3.66,2.78,4.46Z"/>
      </g>
    </g>
  </g>
</svg>