<svg xmlns="http://www.w3.org/2000/svg" version="1.2" viewBox="0 0 267 79">
  <path d="M211.1 9.2c-.1.4-.3.9-.6.9-.2 0-.4-.4-.5-.6-.3-.5-.2-.7-.4-.9-.3-.5-.9-.4-1.9-.7-.9-.2-1.9-.7-1.9-.9.1-.3 2-.5 3.6.3.3.2 1.7.9 1.7 1.9zm17.4 3.7s0 .2-.1.4c-.2.4-1.5.4-3.3.2 0-.1-.2-.2-.3-.5 0-.4.2-.7.3-.7 1-.7 3.5-1.2 3.4.6z"/>
  <path fill-rule="evenodd" d="M266 66.3c-.3.2-.6.3-.9.3h-.6c-.3 0-.6 0-1 .1s-.8.2-1.2.2h-.1c-2.7-.1-5.3-1.7-7.7-3.2-1.3-.8-2.5-1.6-3.6-2-4.3-1.8-8.4-2.1-11.8-2.1-1.7 0-3.4.1-5.2.2q-1.6 0-3.3.1h-1.5q1.6.4 3.4.9c3.3 1 8.5 2.9 13.6 5.4 6 2.8 10.1 5.6 12.2 8.1.3.4.5.7.7 1.1l.4.6q.3.4.3.9c-.1 1.1-1.4 1.5-1.8 1.6-.5.2-1 .3-1.3.3h-.2c-4 0-7-2.3-10-4.4-1.4-1.1-2.8-2.1-4.2-2.8-1.5-.7-3.1-1.2-4.5-1.6-5.7-1.6-11.7-2.7-17.5-3.9-5-.9-10.1-1.9-15-3.1q-.2-.1-.4-.1c-.8-.2-2.1-.5-2.6-1.6q-.1-.1-.1-.3-4.5.2-8.8.2-.3 0-.7.1H189c-3.9 0-4.7-.2-5.1-.5-.7-.4-1.2-1.1-1.6-1.6-.3-.3-.6-.8-.8-1-1.7.2-3.4.5-5.1.7-1.7.3-3.5.6-5.3.7-2.8.2-5 .3-7.1.3-6.7 0-12.1-1.1-17.1-3.4-7.1-3.4-12.8-8.6-18.2-13.7q-1.1-1-2.1-2c-8.3-7.5-15.2-11-21.6-11-3.8 0-7.6 1.3-11.1 3.9-2.9 2.1-5.9 5-9.1 8.1-7.3 7.1-15.6 15.1-24.9 15.7h-3.5c-3.7 0-8.4-.2-12.2-.6-1.5-.2-3-.5-4.5-.8-2.1-.4-4.1-.9-6.1-.9q-.5 0-1 .1c-6 .4-11.5 5.7-15.6 9.5-.4.4-1 1.1-1.8 1.8-3.8 4-6.8 7.1-9.3 7.1h-1c-.6 0-1.3.1-1.9.1-.7 0-1.1-.1-1.5-.2-.6-.1-1.1-.6-1.2-1.2-.4-1.7 2-4.1 2.5-4.6 1-.9 2.4-1.7 3.7-2.5 1-.5 2-1.1 2.8-1.7q.1-.1.3-.2c-1.8.6-4.5 1.1-6.5 1.1h-.5c-.4 0-1.8-.1-2.3-1.2-.5-1.2.3-2.2 1-3q.1-.2.2-.3c1.6-2 4.5-3.6 7.3-5.2 1.6-.8 3-1.6 4.1-2.4 2.1-1.6 4.2-3.6 6.2-5.6 1.9-2 4-4.1 6.2-5.6.9-.6 1.5-1 2.3-1 .6 0 1 .2 1.4.4.2.1.5.3.9.4 3.5 1.2 6.6 1.7 9.3 1.7 4.9 0 9.2-1.8 13.8-5.8.4-.4 1.3-1.4 2.2-2.3q.7-.9 1.3-1.5c-4.5.8-9 1.2-13.3 1.2-5.5 0-10.4-.7-14.8-1.9-2.6-.8-6.4-2.1-10.1-4.2-4.5-2.6-7.7-5.8-9.6-9.6C5.4 11.8 6.1 4.8 6.2 4.5q.2-1.7.6-3.4c.2-.6.7-1 1.3-1h.2c.7.1 1.2.7 1.2 1.4-.4 3.9-.2 11.4 4.6 17.4 1.7 2.2 3.9 4 6.7 5.5 5.5 3 12.3 4.6 20.4 4.6 11.5 0 21.3-3.1 22.4-3.5 4.9-1.6 9.7-4 14.3-6.3 4.9-2.5 10-5.1 15.5-6.8 7.2-2.2 16.2-2.7 22.4-2.7 8.7 0 17.9.9 25.1 2.4 2.9.7 5.6 1.6 8.2 2.4 4.1 1.4 8 2.7 12.5 2.9q1.6.1 3.2.1c7.5 0 14.5-1.3 21.5-4 1-.4 2.2-1 3.5-1.6 2.8-1.2 5.9-2.6 8.5-3.3-1-.5-1.9-1.4-1.7-3.1.1-.6.7-1.1 1.3-1.1q1.3 0 2.9-.2c1.4-.1 2.9-.2 4.4-.2 2.1 0 3.7.2 5 .7.6.2 1.1.5 1.6.8.3.2.8.5 1 .5q.3.1.9.1.4 0 1-.1h1.9c6.7.7 11.5 2.6 14.2 5.6 2.6 1 5.3 1.9 7.9 2.7 2.7.9 5.5 1.7 8.2 2.4l.4.2c.7.5 1.2 1.1 1.6 1.8q.4.9.5 1.9c0 .4-.2.9-.5 1.1-.6.6-1.3 1-1.8 1.2-2.1 1-4.9 1.6-8.4 1.6-2.7 0-5.7-.4-8.5-.7-2.6-.2-5.1-.5-7.3-.5h-1.2c-8.5.5-19 6.3-24.4 13.6-.3.4-1 1.8-1.6 2.8-1.5 2.7-1.6 3-2.2 3.3h-.2c.4 1 .9 2 1.6 2.8 4.1 5.2 7.2 5.3 12.8 5.3 1.2 0 2.6.1 4 .1 3.9.2 7.9.3 11.7.4 5.3.2 10.8.3 16.2.7 6.1.4 16.5 4.1 22.4 7.2 1.7.9 4.2 3.3 4.4 5.7.1.4-.1.8-.4 1.1zM9.6 61.9c1.6-.6 2.9-1.4 4.2-2.4.9-1 1.8-1.9 2.7-2.8q.8-.9 1.6-1.7c.3-.3.8-.9 1.4-1.6 3.2-3.7 5.8-6.5 8.1-6.5.9 0 2.1.2 3.1.4q.8.2 1.6.3.4.1.8.1 1.4.1 2.8.1 1.3 0 2.6-.1c7.3-.5 13.1-3 17.2-7.5.8-.9 1.7-2.2 2.7-3.6 1-1.6 2.1-3.2 3.3-4.5q-1.4.3-2.9.6c-1 .8-3.8 4.3-4.9 5.3-7.8 6.7-14.8 7.4-24.4 4.3-1.8-.6-1.5-1.4-3.5 0-4.1 2.9-7.9 8-12.4 11.2-3.1 2.2-8.8 4.6-11 7.3-.9 1.1-2 2.2.1 2.3 1.9.2 5.1-.5 6.9-1.2zm210.5-1.7q-3.2.2-6.4.3-5 .2-10.1.4c.4.5 1.3.6 1.9.7 10.6 2.7 22 4.2 32.5 7.1 1.6.4 3.3.9 4.8 1.7 4.6 2.3 8.3 7.1 13.8 7 .3 0 1.7-.3 1.7-.6-.4-.5-.7-1.1-1.1-1.6-4.3-5.4-18.4-11-25.1-13.1-5-1.5-8.2-1.9-12-1.9zm45 5.1c-.2-1.7-2.2-3.8-3.7-4.6-5.5-2.9-15.8-6.6-21.9-7-9.3-.7-18.6-.7-27.9-1.1-8.1-.4-12.4 1-17.8-6-2.8-3.6-3.2-8.8-4.5-13 .5 0 .6 0 .9.3 1 .8 1.5 4.8 1.9 6.2.1.3.4 1.9.8 1.6.3-.1 2.6-4.6 3.3-5.6 5.5-7.4 16.2-13.6 25.4-14.1 7.2-.4 18.4 2.9 24.9-.3.5-.3 1.1-.6 1.5-1 0-.3-.1-.8-.3-1.3-.4-.8-.9-1.2-1.2-1.4q-4-1.1-8.2-2.4-4.3-1.4-8.3-2.8c-3-3.6-8.9-4.9-13.5-5.4-1.3-.2-2.8.2-4-.1-.8-.1-1.8-1-2.7-1.3-3.4-1.2-8.3-.3-11.8-.2-.3 1.8 2.2 2 3.5 2.5 1.5.7 3.5 1.8 5.1 2.2.9.3 3.7.3 3.5 1.1-.1.7-2.6.4-3.2.3-1.6-.3-4.7-2.3-5.8-2.3-3.8 0-10.6 3.7-14.3 5.1-8.2 3.2-16.5 4.5-25.3 4.1-7.6-.4-13.6-3.8-20.9-5.3-13-2.8-34.2-3.7-46.8.2-10.4 3.3-19.5 9.7-29.7 13.1-5.6 1.8-28.1 7.6-43.9-1.2-3.8-2.1-5.9-4.3-7.1-5.8-5.5-6.9-5.3-15.3-5-18.4-.2.8-.4 1.9-.6 3.2 0 0-.7 6.9 2.5 13.4 3.9 8.2 13.7 11.5 18.8 13.1 8.8 2.6 19.7 2.2 29.5.3q1.8-.3 3.6-.8 3.4-.8 6.6-1.8c1.6-.6 3.8-1.5 5.2-2.1 1.2-.6 1.1.6.3 1.1-.4.3-1.4.6-1.9.8-2 .9-5.9 1.7-7.4 2.6q-.8.5-1.5 1.3c-2.3 2.4-4.6 6.4-6.5 8.6-4.8 5.3-11.2 7.5-18 8q-2.8.1-5.7 0-.4-.1-.9-.1c-1.5-.3-3.2-.7-4.5-.7-2.4 0-6.9 6-8.5 7.7-1.4 1.3-2.9 2.9-4.4 4.5-1.5 1.5-3.1 2.9-4.6 4.1-1.9 1.5-4.7 2.7-6.3 4.2-.4.4-3.1 3.2-1.9 3.5.7.2 3.1 0 4 0 2.7 0 8.1-6.6 10.2-8.5 4.4-4.2 10-9.4 16.4-9.9 4-.3 7.9 1.2 11.9 1.6 4.4.5 11.1.9 15.4.6 12.7-.8 23.6-16.3 33.3-23.5 12.5-9.2 24.7-1.6 34.4 7.2 6.2 5.8 12.1 11.7 20 15.4 7.6 3.7 15.3 3.7 23.5 3.1 3.6-.3 7.1-1.2 10.6-1.4 1.2.1 1.9 2.1 2.9 2.7.9.5 7.2.3 8.7.3q4.7-.1 9.3-.3c5.9-.2 11.8-.5 17.6-.7q5.3-.2 10.5-.4c7.3-.2 13.9-1 20.8 1.9 3.5 1.5 7.2 5 10.8 5.1.8 0 1.9-.4 2.9-.2z" style="fill:#212223"/>
</svg>
