<?xml version="1.0" encoding="UTF-8"?>
<svg data-name="Capa 2" viewBox="0 0 511.2 90.06" xmlns="http://www.w3.org/2000/svg">
<defs>
<style>.cls-1 {
        fill: #212223;
      }</style>
</defs>
<g data-name="Capa 1">
<path class="cls-1" d="M52.32.13h53.1l-18.35,89.93H18.35L0,.13h49.98v59.87h2.34V.13Z"/>
<path class="cls-1" d="M109.45.13h98v29.93h-48.28v2.34h39.82v25.25h-39.82v2.34h48.28v29.93h-98.13l.13-89.8Z"/>
<path class="cls-1" d="M262.5,60h48.28v29.93h-98.13l.13-89.93h49.71v60Z"/>
<path class="cls-1" d="m398.24 0c2.69 0 5.25 0.52 7.68 1.56s4.6 2.47 6.51 4.29c3.9 3.9 5.86 8.63 5.86 14.19v49.98c0 2.69-0.5 5.25-1.5 7.68s-2.45 4.56-4.36 6.38c-3.91 3.9-8.63 5.86-14.19 5.86h-62.34c-2.6 0-5.12-0.5-7.55-1.5s-4.6-2.45-6.51-4.36-3.36-4.08-4.36-6.51-1.5-4.95-1.5-7.55v-12.04c0-4.29 0.02-8.63 0.06-13.01s0.07-8.72 0.07-13.01v-12.04c0-2.69 0.52-5.25 1.56-7.68s2.47-4.56 4.29-6.38 3.95-3.25 6.38-4.29 5.03-1.56 7.81-1.56h62.08zm-29.8 30.06h-2.6v29.93h2.6v-29.93z"/>
<path class="cls-1" d="M485.96,60.26l-5.34,6.38,1.95,1.69,6.9-8.33h21.73v29.93h-87.72v-29.93l28.76-36.7-2.08-1.69-6.51,8.46h-20.17V.13h87.72v29.93l-25.25,30.19Z"/>
</g>
</svg>
