<svg version="1.2" xmlns="http://www.w3.org/2000/svg" viewBox="0 0 98 22" width="98" height="22"><style></style><path fill-rule="evenodd" d="m88.5 7.5l-2.4 7.1h7l-2.3 6.9h-7.1l2.4-6.9h-6.9l-2.4 6.9h-7l2.3-6.9h-6.9l-2.4 6.9h-7l2.3-6.9h-6.9l-2.3 6.9h-7l2.2-6.9h-6.9l-2.3 6.9h-7l2.3-6.9h-7l-2.3 6.9h-7l2.3-6.9h-7l-2.2 6.9h-7l2.2-6.9h7l2.2-7.1h-7l2.2-7h7.1l-2.3 7h7l2.3-7h7l-2.2 7h6.9l2.3-7h7.1l-2.3 7h6.9l2.4-7h7l-2.3 7h7l2.3-7h7l-2.3 7h7l2.3-7h7.1l-2.4 7h7l2.4-7h7l-2.4 7zm-63.1 0h-6.9l-2.3 7.1h7zm14 0h-7l-2.3 7h7zm14 0h-7l-2.3 7h7zm14 0h-7l-2.3 7h7zm14 0h-7l-2.3 7h6.9z"/></svg>