<svg version="1.2" xmlns="http://www.w3.org/2000/svg" viewBox="0 0 66 65" width="66" height="65"><style></style><path fill-rule="evenodd" d="m65.1 32.2c0 10.6-9.1 19.6-21.7 22.9-2.8 6-6.5 9.3-10.6 9.3-4 0-7.7-3.3-10.5-9.3-12.6-3.3-21.7-12.3-21.7-22.9 0-10.6 9.1-19.6 21.7-22.9 2.8-6.1 6.5-9.4 10.5-9.4 4.1 0 7.8 3.3 10.6 9.4 12.6 3.3 21.7 12.3 21.7 22.9zm-23.6 23.3q-3.8 0.8-7.9 0.9v6.5c2.9-0.4 5.7-3 7.9-7.4zm-17.3 0c2.2 4.4 5 7 7.9 7.4v-6.5q-4.1-0.1-7.9-0.9zm-2.7-2.2c-2.3-5.6-3.5-12.8-3.6-20.4h-15.8c0.4 9.3 8.3 17.2 19.4 20.4zm-19.4-21.9h15.8c0.1-7.6 1.3-14.7 3.6-20.4-11.1 3.3-19 11.2-19.4 20.4zm22.1-22.6q3.8-0.8 7.9-0.9v-6.4c-2.9 0.4-5.7 2.9-7.9 7.3zm9.4-7.3v6.4q4.1 0.1 7.9 0.9c-2.2-4.4-5-6.9-7.9-7.3zm12.7 29.9c-0.1-7.9-1.5-15.2-4-20.9-2.7-0.6-5.7-1-8.7-1.1v17.8c0 2.3 1.9 4.2 4.2 4.2zm-23-20.9c-2.4 5.7-3.8 13-3.9 20.9h8.5c2.3 0 4.2-1.9 4.2-4.2v-17.8c-3.1 0.1-6 0.5-8.8 1.1zm8.8 44.4v-17.8c0-2.3-1.9-4.2-4.2-4.2h-8.5c0.1 7.9 1.5 15.3 3.9 20.9 2.8 0.7 5.7 1.1 8.8 1.1zm10.2-1.1c2.5-5.6 3.9-13 4-20.9h-8.5c-2.3 0-4.2 1.9-4.2 4.2v17.8c3 0 6-0.4 8.7-1.1zm1.9-42.8c2.2 5.7 3.5 12.8 3.6 20.4h15.8c-0.5-9.2-8.4-17.1-19.4-20.4zm19.4 21.9h-15.8c-0.1 7.6-1.4 14.8-3.6 20.4 11-3.2 18.9-11.1 19.4-20.4z"/></svg>