<svg version="1.2" xmlns="http://www.w3.org/2000/svg" viewBox="0 0 65 64" width="65" height="64"><style></style><path fill-rule="evenodd" d="m64.4 32.8h-15.9c-0.4 8.2-7 14.9-15.2 15.3v15.9h-1.6v-15.9c-8.2-0.4-14.9-7.1-15.3-15.3h-15.9v-1.6h15.9c0.4-8.2 7.1-14.8 15.3-15.2v-15.9h1.6v15.9c8.2 0.4 14.8 7 15.2 15.2h15.9zm-46.6 0c0.4 7.5 6.4 13.6 13.9 14v-11.3c-1.3-0.3-2.3-1.4-2.7-2.7h-11.2zm13.9-15.5c-7.5 0.4-13.5 6.4-14 13.9h11.3c0.3-1.3 1.4-2.3 2.7-2.6v-11.3zm15.5 13.9c-0.4-7.5-6.4-13.5-13.9-13.9v11.3c1.3 0.3 2.3 1.3 2.6 2.6zm-13.9 15.6c7.5-0.4 13.5-6.5 13.9-14h-11.3c-0.3 1.3-1.3 2.4-2.6 2.7v11.3z"/></svg>