<svg version="1.2" xmlns="http://www.w3.org/2000/svg" viewBox="0 0 65 64" width="65" height="64"><style></style><path fill-rule="evenodd" d="m63.6 24.2q-0.1-0.2-0.1-0.4c-0.8-2.9-1.9-5.6-3.5-8.1q-0.1-0.3-0.2-0.5-2-3.1-4.6-5.8-2.1-2-4.4-3.7-0.4-0.2-0.8-0.5c-5.1-3.3-11-5.1-17.1-5.1q-0.2 0-0.3 0 0 0 0 0 0 0 0 0-0.2 0-0.3 0c-6.2 0-12.1 1.8-17.1 5.1l-0.1 0.1q-0.3 0.2-0.7 0.4-2.3 1.7-4.4 3.7-2.7 2.7-4.6 5.8l-0.1 0.1-0.1 0.3-0.1 0.1c-1.5 2.5-2.6 5.2-3.4 8.1l-0.1 0.4q-1 3.8-1 7.8 0 4 1 7.8 0 0.2 0.1 0.4c0.8 2.9 1.9 5.6 3.4 8.2q0.2 0.2 0.3 0.4 1.9 3.1 4.6 5.8 2.1 2.1 4.4 3.7 0.4 0.3 0.8 0.5c5 3.3 10.9 5.1 17.1 5.2q0.1 0 0.3 0 0.1 0 0.3 0c6.1-0.1 12-1.9 17.1-5.2q0.4-0.2 0.8-0.5 2.3-1.6 4.4-3.7 2.6-2.7 4.6-5.8 0.1-0.2 0.2-0.4c1.6-2.6 2.7-5.3 3.5-8.2q0-0.2 0.1-0.4 0.9-3.8 0.9-7.8 0-4-0.9-7.8zm0.5 7.6h-7.5q0-4.2-0.8-8.1 3.7 0.2 7.3 0.5 1 3.7 1 7.6zm-16.1-8.9c-0.5-3.1-1.2-6-2.1-8.7q0 0 0 0 3.2 0.2 6.4 0.5c1.3 2.6 2.3 5.5 3 8.5q-3.6-0.2-7.3-0.3zm-15.2-9.2q3 0 6.1 0.1c0.5 2.7 0.8 5.7 1.1 8.8q-3.6 0-7.2 0zm0-0.4v-8.9q1.8 0 3.5 0.1 0.9 2.1 1.7 5.1 0.5 1.8 0.8 3.8-3-0.1-6-0.1zm3.3-9.3q-1.6 0-3.3 0v-3.6c1.2 0.2 2.3 1.4 3.3 3.6zm-3.7 0q-1.7 0-3.4 0c1.1-2.2 2.2-3.4 3.4-3.6zm-3.6 0.5q1.8 0 3.6 0v8.8q-3 0-6 0.1 0.3-2 0.8-3.8 0.7-3 1.6-5.1zm-2.5 9.3q3-0.1 6.1-0.1v8.9q-3.6 0-7.2 0c0.2-3.1 0.6-6.1 1.1-8.8zm-1.1 9.2q3.6 0 7.2 0v8.8h-7.5c0-3 0.1-6 0.3-8.8zm7.2 9.2v8.9q-3.6-0.1-7.2-0.1c-0.2-2.8-0.3-5.8-0.3-8.8zm0 9.3v8.8q-3.1 0-6.1-0.1c-0.5-2.7-0.9-5.7-1.1-8.8q3.6 0.1 7.2 0.1zm0 9.2v8.8q-1.8 0-3.6 0-0.9-2.1-1.7-5.1-0.4-1.8-0.8-3.8 3 0.1 6.1 0.1zm-3.4 9.2q1.7 0.1 3.4 0.1v3.5c-1.2-0.1-2.4-1.4-3.4-3.6q0 0 0 0zm3.8 0.1q1.6 0 3.3-0.1c-1 2.2-2.2 3.5-3.3 3.6zm3.5-0.4q-1.8 0-3.5 0v-8.8q3 0 6-0.1-0.4 2-0.8 3.8-0.8 3-1.7 5.1zm2.6-9.3q-3.1 0.1-6.1 0.1v-8.9q3.6 0 7.1 0c-0.2 3.1-0.6 6.1-1 8.8zm1.1-9.3q-3.6 0.1-7.2 0.1v-8.8h7.5c0 3-0.1 5.9-0.3 8.7zm-7.2-9.1v-8.9q3.6 0 7.2 0.1c0.2 2.8 0.3 5.8 0.3 8.8zm6.5-18q3.1 0.1 6.2 0.3c0.9 2.6 1.6 5.6 2.1 8.7q-3.6-0.1-7.2-0.2c-0.3-3.1-0.6-6.1-1.1-8.8zm-0.1-0.4q0 0 0 0-0.3-2.1-0.8-3.9-0.7-3-1.6-5 1.8 0 3.6 0.2c2 2.2 3.6 5.3 4.9 9q-3-0.2-6.1-0.3zm-2.6-9.3q0 0 0 0-1.2-2.6-2.5-3.5c2.1 0.4 4.1 1.7 5.9 3.6q-1.7-0.1-3.4-0.1zm-8 0q-1.7 0-3.5 0.1c1.8-1.9 3.8-3.2 5.9-3.6q-1.3 0.9-2.4 3.5zm-3.8 0.6q1.8-0.2 3.6-0.2-0.9 2-1.6 5-0.5 1.8-0.8 3.9 0 0 0 0-3.1 0.1-6.2 0.3c1.3-3.7 3-6.8 5-9q0 0 0 0zm-5.1 9.4q3.1-0.2 6.2-0.3c-0.5 2.7-0.9 5.7-1.1 8.8q-3.6 0.1-7.2 0.2c0.5-3.1 1.2-6.1 2.1-8.7zm-2.2 9.1q3.6-0.1 7.3-0.2c-0.2 2.8-0.3 5.8-0.3 8.8h-7.6q0-4.5 0.6-8.6zm7 9c0 3 0.1 5.9 0.3 8.7q-3.7 0-7.3-0.2-0.6-4.1-0.6-8.5zm0.4 9.1c0.2 3.2 0.6 6.1 1 8.9q-3.1-0.2-6.2-0.4c-0.9-2.6-1.6-5.5-2-8.7q3.5 0.2 7.2 0.2zm1.1 9.3q0 0 0 0 0.4 2 0.8 3.9 0.8 2.9 1.7 4.9 0 0 0 0-1.9 0-3.7-0.1c-1.9-2.3-3.6-5.4-4.9-9q3 0.2 6.1 0.3zm2.6 9.3q0 0 0 0 1.2 2.5 2.5 3.5c-2.1-0.5-4.1-1.7-5.9-3.7q1.7 0.1 3.4 0.2zm8.1 0q1.7-0.1 3.4-0.2c-1.8 2-3.8 3.2-5.9 3.7q1.3-1 2.5-3.5zm3.8-0.6q-1.8 0.1-3.7 0.1 0.9-2 1.7-4.9 0.4-1.9 0.8-3.9 0 0 0 0 3.1-0.1 6.1-0.3c-1.3 3.6-3 6.7-4.9 9zm5.1-9.5q-3.1 0.2-6.2 0.4c0.4-2.8 0.8-5.7 1-8.9q3.7 0 7.3-0.2c-0.5 3.2-1.2 6.1-2.1 8.7zm2.1-9.1q-3.6 0.2-7.2 0.2c0.2-2.8 0.3-5.7 0.3-8.7h7.5q0 4.4-0.6 8.5zm-6.9-8.9c0-3-0.1-6-0.3-8.8q3.6 0.1 7.2 0.2 0.6 4.1 0.6 8.6zm5.1-18.1q0 0 0 0-0.8-2.3-1.8-4.3-1.4-2.7-3-4.7 0 0 0 0 1.9 0.1 3.8 0.3 2.4 1.9 4.5 4.6 1.6 2.2 2.8 4.6-3.1-0.3-6.3-0.5zm-5.2-9.5q0 0 0 0-2.1-2.4-4.5-3.4c2.8 0.5 5.6 1.8 8.1 3.7q-1.8-0.1-3.6-0.3zm-11.5-3.4q-2.4 1-4.5 3.4 0 0 0 0-1.8 0.2-3.7 0.3c2.6-1.9 5.3-3.2 8.2-3.7zm-8.8 4.2q2-0.2 3.9-0.3 0 0 0 0-1.6 2-3 4.7-1 2-1.8 4.3 0 0 0 0-3.2 0.2-6.3 0.5 1.2-2.4 2.8-4.6 2-2.7 4.4-4.6zm-7.5 9.7q3.2-0.4 6.4-0.6c-0.9 2.7-1.6 5.6-2 8.7q-3.7 0.2-7.3 0.4c0.7-3 1.6-5.9 2.9-8.5zm-3 8.9q3.6-0.2 7.3-0.4-0.6 4.2-0.6 8.6h-7.5q0-4.3 0.8-8.2zm6.7 8.6q0 4.4 0.6 8.5-3.7-0.1-7.3-0.3-0.8-4-0.8-8.2zm0.6 8.9q0 0 0 0c0.5 3.1 1.2 6 2.1 8.7q-3.2-0.2-6.4-0.5c-1.3-2.7-2.3-5.5-2.9-8.5q3.6 0.2 7.2 0.3zm2.3 9.1q0.8 2.3 1.7 4.3 1.4 2.8 3.1 4.8 0 0 0 0-2-0.2-3.9-0.4-2.4-1.9-4.4-4.6-1.6-2.1-2.9-4.6 3.2 0.3 6.4 0.5zm5.1 9.5q0 0 0 0 2.2 2.4 4.6 3.5c-2.9-0.6-5.7-1.9-8.2-3.8q1.8 0.2 3.6 0.3zm16.1 0q0 0 0 0 1.8-0.1 3.6-0.3c-2.5 1.9-5.3 3.2-8.2 3.8q2.4-1.1 4.6-3.5zm4.2-0.8q-1.9 0.2-3.9 0.4 0 0 0 0 1.7-2 3.1-4.8 1-2 1.8-4.3 0 0 0 0 3.1-0.2 6.3-0.5-1.3 2.5-2.9 4.6-2 2.7-4.4 4.6zm7.5-9.6q-3.2 0.3-6.4 0.5 0 0 0 0c0.9-2.7 1.6-5.6 2.1-8.7q0 0 0 0 3.6-0.1 7.2-0.3c-0.6 3-1.6 5.8-2.9 8.5zm3-8.9q-3.6 0.2-7.3 0.3 0.6-4.1 0.6-8.5h7.6q-0.1 4.2-0.9 8.2zm-6.7-8.6q0-4.4-0.6-8.6 3.7 0.2 7.3 0.4 0.8 3.9 0.9 8.2zm14.3-8.1q-3.6-0.3-7.3-0.5 0 0 0 0c-0.7-3-1.6-5.9-2.9-8.5q0 0 0 0 3.4 0.4 6.7 0.8c1.5 2.5 2.7 5.3 3.5 8.2zm-3.8-8.6q-3.3-0.5-6.6-0.8-1.3-2.6-3-4.9-1.9-2.5-4.1-4.3 0 0 0 0 2.2 0.2 4.3 0.4c3.8 2.5 7 5.8 9.4 9.6zm-20.8-14.1c3.8 0.7 7.4 2.1 10.6 4q-2-0.2-4-0.4 0 0 0 0c-2.1-1.7-4.3-2.9-6.6-3.6q0 0 0 0zm-11.6 0c-2.4 0.7-4.6 1.9-6.6 3.6q-2 0.2-4 0.4c3.2-1.9 6.8-3.3 10.6-4zm-11.4 4.5q2.1-0.2 4.2-0.4 0 0 0 0-2.1 1.8-4 4.3-1.7 2.3-3 4.9-3.4 0.3-6.7 0.8c2.5-3.8 5.7-7.1 9.5-9.6zm-9.7 10q3.3-0.4 6.7-0.8 0 0 0 0c-1.3 2.6-2.3 5.5-2.9 8.5q0 0 0 0-3.7 0.2-7.4 0.5c0.8-2.9 2-5.7 3.6-8.2zm-3.7 8.6q3.7-0.3 7.4-0.5 0 0 0 0-0.8 4-0.8 8.2h-7.6q0.1-4 1-7.7zm-1 8.1h7.6q0 4.2 0.8 8.1-3.7-0.2-7.4-0.5-0.9-3.7-1-7.6zm1.1 8q3.7 0.3 7.4 0.5 0 0 0 0c0.6 3 1.6 5.9 2.9 8.5q0 0 0 0-3.4-0.3-6.7-0.8c-1.6-2.5-2.8-5.3-3.6-8.2zm3.8 8.6q3.3 0.5 6.7 0.9 1.3 2.6 3 4.8 1.9 2.5 4 4.4 0 0 0 0-2.1-0.2-4.2-0.5c-3.8-2.5-7-5.7-9.5-9.6zm10.3 10.1q2 0.3 4 0.5c2 1.6 4.2 2.8 6.6 3.6q0 0 0 0c-3.8-0.7-7.4-2.1-10.6-4.1zm22.2 4.1q0 0 0 0 0 0 0 0c2.3-0.8 4.5-2 6.6-3.6q0 0 0 0 2-0.2 4-0.5c-3.2 2-6.8 3.4-10.6 4.1zm11.4-4.6q-2.1 0.3-4.3 0.5 0 0 0 0 2.2-1.9 4.1-4.4 1.7-2.2 3-4.8 3.3-0.4 6.6-0.9c-2.4 3.9-5.6 7.1-9.4 9.6zm9.7-10q-3.3 0.5-6.7 0.8 0 0 0 0c1.3-2.6 2.2-5.5 2.9-8.5q0 0 0 0 3.7-0.2 7.3-0.5c-0.8 2.9-2 5.7-3.5 8.2zm3.6-8.6q-3.6 0.3-7.3 0.5 0.8-3.9 0.8-8.1h7.5q0 3.9-1 7.6z"/></svg>