<svg version="1.2" xmlns="http://www.w3.org/2000/svg" viewBox="0 0 65 52" width="65" height="52"><style></style><path fill-rule="evenodd" d="m32.7 0.3c-17.8 0-32.2 11.6-32.2 25.9 0 14.3 14.4 25.9 32.2 25.9 17.8 0 32.3-11.6 32.3-25.9 0-14.3-14.5-25.9-32.3-25.9zm30.3 19.5h-7.5c-1-4.6-3.2-8.7-6.2-12q1.3-0.6 2.6-1.3c5.3 3.3 9.3 7.9 11.1 13.3zm-35.3 11.8q-0.1-2.6-0.1-5.4 0-2.9 0.1-5.5h10q0.2 2.6 0.2 5.5 0 2.8-0.2 5.4zm10 1c-0.2 3.1-0.5 6-0.9 8.4-2.7-0.3-5.4-0.3-8.1 0-0.4-2.4-0.7-5.3-0.9-8.4zm-10.9-1h-7.6q-0.3-2.6-0.3-5.4 0-2.8 0.3-5.5h7.6q-0.2 2.7-0.2 5.5 0 2.7 0.2 5.4zm-7.5-11.8c0.6-3.6 1.5-6.9 2.8-9.7q2.7 0.8 5.6 1.1c-0.4 2.6-0.7 5.6-0.9 8.6zm-1 0h-7.4c1.1-4.5 3.2-8.4 6.1-11.5q2 0.9 4.2 1.5c-1.3 2.9-2.3 6.3-2.9 10zm-0.1 0.9q-0.3 2.7-0.3 5.5 0 2.8 0.3 5.4h-7.5q-0.6-2.6-0.6-5.4 0-2.8 0.6-5.5zm0.1 11.9c0.5 3.7 1.5 7 2.9 9.9q-2.2 0.7-4.2 1.6c-2.9-3.1-5.1-7.1-6.2-11.5zm1 0h7.5c0.2 3 0.5 5.9 0.9 8.5q-2.9 0.4-5.6 1.1c-1.3-2.7-2.3-6-2.8-9.6zm8.4-12.8c0.2-3.2 0.5-6 0.9-8.5q2.1 0.2 4.1 0.2 2 0 4.1-0.2c0.4 2.5 0.7 5.3 0.9 8.5zm10.9 0.9h7.5q0.4 2.7 0.4 5.5 0 2.8-0.4 5.4h-7.5q0.1-2.7 0.1-5.4 0-2.8-0.1-5.5zm5.5-10.9q2.2-0.6 4.2-1.5c2.9 3.1 5.1 7 6.1 11.5h-7.4c-0.6-3.7-1.6-7.1-2.9-10zm1.9 10h-7.5c-0.1-3-0.4-6-0.9-8.6q2.9-0.3 5.6-1.1c1.3 2.8 2.3 6.1 2.8 9.7zm-7.5 12.8h7.5c-0.5 3.6-1.5 6.9-2.8 9.6q-2.7-0.7-5.6-1.1c0.5-2.6 0.8-5.5 0.9-8.5zm8.5 0h7.4c-1 4.4-3.2 8.4-6.1 11.5q-2-0.9-4.2-1.6c1.3-2.9 2.3-6.2 2.9-9.9zm0.1-1q0.3-2.6 0.3-5.4 0-2.8-0.3-5.5h7.5q0.6 2.7 0.6 5.5 0 2.8-0.6 5.4zm3.8-25.7q-1.2 0.7-2.3 1.2c-2-2-4.3-3.6-6.7-4.8 3.2 0.8 6.3 2.1 9 3.6zm-3.3 1.6q-1.9 0.9-3.9 1.5c-1.6-3.2-3.6-5.6-5.9-7.1 3.7 1 7.1 2.9 9.8 5.6zm-4.8 1.7q-2.6 0.7-5.3 1.1c-0.7-4-1.6-7.2-2.9-8.8 3.2 0.8 6.1 3.6 8.2 7.7zm-10.1-8c1.4 0 2.9 3.5 3.9 9.2-2.6 0.2-5.3 0.2-7.9 0 1.1-5.7 2.5-9.2 4-9.2zm-4.9 9.1q-2.7-0.4-5.3-1.1c2.1-4.1 5-6.9 8.2-7.7-1.2 1.6-2.2 4.8-2.9 8.8zm-6.2-1.3q-2-0.6-3.9-1.5c2.7-2.7 6.1-4.6 9.8-5.6-2.3 1.5-4.3 3.9-5.9 7.1zm1.9-6.7c-2.5 1.2-4.8 2.8-6.8 4.8q-1.2-0.6-2.3-1.2c2.7-1.5 5.8-2.8 9.1-3.6zm-10 4.2q1.2 0.7 2.5 1.3c-2.9 3.3-5.1 7.4-6.1 12h-7.5c1.8-5.4 5.8-10 11.1-13.3zm-12.1 19.7q0-2.8 0.7-5.5h7.5q-0.5 2.7-0.5 5.5 0 2.8 0.5 5.4h-7.5q-0.7-2.6-0.7-5.4zm1 6.4h7.5c1 4.6 3.2 8.7 6.1 11.9q-1.3 0.6-2.5 1.4c-5.3-3.3-9.3-8-11.1-13.3zm12 13.8q1.1-0.6 2.3-1.2c2 2 4.3 3.6 6.8 4.8-3.3-0.8-6.4-2-9.1-3.6zm3.3-1.6q1.9-0.8 3.9-1.4c1.6 3.1 3.6 5.6 5.9 7-3.7-0.9-7.1-2.9-9.8-5.6zm4.8-1.7q2.6-0.7 5.3-1c0.7 3.9 1.7 7.1 2.9 8.8-3.2-0.9-6.1-3.7-8.2-7.8zm10.2 8c-1.5 0-2.9-3.4-4-9.1 2.6-0.3 5.3-0.3 7.9 0-1 5.7-2.5 9.1-3.9 9.1zm4.8-9q2.7 0.3 5.3 1c-2.1 4.1-5 6.9-8.2 7.8 1.3-1.7 2.2-4.9 2.9-8.8zm6.2 1.3q2 0.6 3.9 1.4c-2.7 2.7-6.1 4.7-9.8 5.6 2.3-1.4 4.3-3.9 5.9-7zm-1.8 6.6c2.4-1.2 4.7-2.8 6.7-4.8q1.1 0.6 2.3 1.2c-2.7 1.6-5.8 2.8-9 3.6zm9.9-4.1q-1.2-0.8-2.5-1.4c2.9-3.2 5.1-7.3 6.2-11.9h7.4c-1.8 5.3-5.7 10-11.1 13.3zm3.9-14.3q0.5-2.6 0.5-5.4 0-2.8-0.5-5.5h7.5q0.7 2.7 0.7 5.5 0 2.8-0.7 5.4z"/></svg>