<svg version="1.2" xmlns="http://www.w3.org/2000/svg" viewBox="0 0 65 52" width="65" height="52"><style></style><path fill-rule="evenodd" d="m64.1 26c0 14.4-14.3 26.1-32 26.1-17.6 0-31.9-11.7-31.9-26.1 0-14.3 14.3-26 31.9-26 17.7 0 32 11.7 32 26zm-2 0c0-13.3-13.4-24.1-30-24.1-16.5 0-30 10.8-30 24.1 0 13.3 13.5 24.1 30 24.1 16.6 0 30-10.8 30-24.1zm-9.7-5.9c-1-4.2-3-7.8-5.7-10.7q-1.8 0.8-3.9 1.4c1.3 2.7 2.2 5.8 2.7 9.3zm-20.3-7.7q-1.9 0-3.8-0.2c-0.4 2.3-0.6 4.9-0.8 7.9h9.2c-0.2-3-0.4-5.6-0.8-7.9q-1.9 0.2-3.8 0.2zm17-5.2c-2.6-1.5-5.4-2.6-8.4-3.4 2.3 1.1 4.4 2.6 6.2 4.5q1.1-0.5 2.2-1.1zm4 18.8q0-2.6-0.5-5h-7q0.3 2.4 0.3 5 0 2.6-0.3 5.1h7q0.5-2.5 0.5-5.1zm-0.7 6h-6.9c-0.5 3.4-1.5 6.5-2.7 9.2q2 0.6 3.9 1.5c2.7-2.9 4.7-6.6 5.7-10.7zm-10-22q1.9-0.6 3.6-1.3c-2.5-2.5-5.6-4.4-9.1-5.3 2.1 1.4 4 3.7 5.5 6.6zm2.2 22h-7c-0.2 2.8-0.4 5.5-0.8 7.9q2.6 0.4 5.1 1.1c1.3-2.6 2.2-5.7 2.7-9zm-8.7 7.8c0.4-2.3 0.6-4.9 0.8-7.8h-9.2c0.2 2.9 0.4 5.5 0.8 7.8 2.5-0.2 5.1-0.2 7.6 0zm1-13.8q0-2.6-0.1-5h-9.4q-0.1 2.4-0.1 5 0 2.7 0.1 5.1h9.4q0.1-2.4 0.1-5.1zm16.4-5.9h6.9c-1.6-5-5.3-9.3-10.3-12.4q-1.1 0.7-2.3 1.3c2.7 3 4.7 6.8 5.7 11.1zm-33.8 0.9q-0.3 2.4-0.3 5 0 2.6 0.3 5.1h7q-0.1-2.5-0.1-5.1 0-2.5 0.1-5zm-8.4 5q0 2.6 0.5 5.1h7q-0.3-2.5-0.3-5.1 0-2.6 0.3-5h-7q-0.5 2.4-0.5 5zm16.3-13.9q-2.6-0.3-5.1-1c-1.2 2.6-2.1 5.6-2.6 9h6.9c0.2-2.8 0.5-5.6 0.8-8zm-6 29.1c-1.2-2.7-2.1-5.8-2.6-9.2h-7c1 4.1 3 7.8 5.7 10.7q1.9-0.9 3.9-1.5zm6-1.3c-0.3-2.4-0.6-5.1-0.8-7.9h-6.9c0.5 3.3 1.4 6.4 2.6 9q2.5-0.7 5.1-1.1zm-15.6-19.8h7c0.5-3.5 1.4-6.6 2.6-9.3q-2-0.6-3.9-1.4c-2.7 2.9-4.7 6.5-5.7 10.7zm10 21.9q-1.8 0.6-3.6 1.4c2.6 2.5 5.7 4.3 9.1 5.2-2.1-1.4-4-3.7-5.5-6.6zm18.9 6.2c3-0.7 5.9-1.9 8.4-3.3q-1.1-0.6-2.2-1.1c-1.8 1.8-3.9 3.3-6.2 4.4zm-18-6.4c1.9 3.8 4.6 6.4 7.6 7.2-1.2-1.5-2.1-4.5-2.7-8.2q-2.5 0.3-4.9 1zm19.7 0.2c-1.5 2.9-3.3 5.2-5.5 6.6 3.5-0.9 6.6-2.7 9.2-5.2q-1.8-0.8-3.7-1.4zm-13.9-1.3c0.9 5.3 2.3 8.5 3.6 8.5 1.3 0 2.7-3.2 3.7-8.5-2.4-0.2-4.9-0.2-7.3 0zm13.1 1.1q-2.4-0.7-4.9-1c-0.7 3.7-1.6 6.7-2.8 8.2 3-0.8 5.7-3.4 7.7-7.2zm0-31.5c-2-3.9-4.7-6.5-7.7-7.3 1.2 1.6 2.1 4.5 2.8 8.2q2.5-0.3 4.9-0.9zm6 32.8q1.2 0.6 2.4 1.3c4.9-3.1 8.6-7.4 10.3-12.4h-7c-0.9 4.2-3 8.1-5.7 11.1zm12.9-22.1h-7q0.5 2.4 0.5 5 0 2.6-0.5 5.1h7q0.7-2.5 0.7-5.1 0-2.6-0.7-5zm-18.5-9.9c1.2 2.6 2.1 5.6 2.6 9h-7c-0.1-2.8-0.4-5.6-0.8-8q2.7-0.3 5.2-1zm2.7 20q0.3-2.5 0.3-5.1 0-2.6-0.3-5h-7q0.1 2.5 0.1 5 0 2.6-0.1 5.1zm-22-20.8q2.3 0.6 4.9 0.9c0.6-3.7 1.5-6.6 2.7-8.2-3 0.8-5.7 3.4-7.6 7.3zm0.8-6.5c-3 0.8-5.8 1.9-8.4 3.4q1.1 0.6 2.2 1.1c1.8-1.9 3.9-3.4 6.2-4.5zm-1.7 6.2c1.5-2.9 3.4-5.2 5.5-6.6-3.5 0.9-6.6 2.8-9.1 5.3q1.7 0.7 3.6 1.3zm13.9 1.3c-0.9-5.3-2.3-8.5-3.6-8.5-1.3 0-2.7 3.2-3.6 8.5 2.4 0.3 4.8 0.3 7.2 0zm-24.8 20.7h-6.9c1.6 5 5.3 9.3 10.3 12.4q1.1-0.7 2.3-1.3c-2.7-3-4.7-6.9-5.7-11.1zm5.7-23q-1.2-0.6-2.3-1.3c-5 3.1-8.7 7.4-10.3 12.4h6.9c1-4.3 3-8.1 5.7-11.1zm-1.5 35.9c2.6 1.4 5.4 2.6 8.4 3.3-2.3-1.1-4.4-2.6-6.2-4.4q-1.1 0.5-2.2 1.1zm-4.9-18.9q0-2.6 0.5-5h-7q-0.7 2.4-0.7 5 0 2.6 0.7 5.1h7q-0.5-2.5-0.5-5.1z"/></svg>