<svg xmlns="http://www.w3.org/2000/svg" xmlns:xlink="http://www.w3.org/1999/xlink" data-name="Capa 2" viewBox="0 0 477.42 148.06">
  <defs>
    <path id="a" d="M471.28 115.57c-9.99-5.74-28.56-12.98-39.69-13.8-16.81-1.23-33.75-1.2-50.6-2.09-14.73-.78-22.47 1.93-32.35-11.66-5.02-6.91-5.69-17.08-8.14-25.26.86-.15 1.08-.02 1.7.54 1.69 1.55 2.72 9.42 3.46 12.1.18.63.6 3.61 1.46 3.16.54-.27 4.64-9.14 5.94-11.02 9.96-14.41 29.32-26.46 46.12-27.46 13.05-.78 33.27 5.64 45.12-.6.59-.31 1.2-.68 1.78-1.09.71-.51 1-1.46.75-2.34-.1-.35-.23-.73-.41-1.12-.45-.98-1.05-1.67-1.53-2.12-.3-.28-.65-.49-1.04-.6-4.68-1.38-9.5-2.91-14.44-4.59-4.62-1.57-9.07-3.19-13.35-4.84-.99-.38-1.89-.99-2.64-1.79-5.76-6.19-15.76-8.51-23.57-9.38-2.3-.25-5.02.37-7.25-.13-1.37-.3-3.26-1.99-4.94-2.6-6.05-2.24-15.05-.62-21.46-.44-.52 3.67 4.15 3.98 6.38 5.02 2.84 1.33 6.62 3.76 9.54 4.6 2.45.75 6.32.47 6.19 1.71-.14 1.36-4.8.78-5.91.56-2.93-.59-8.45-4.48-10.47-4.47-6.84.03-19.32 7.32-26 10.08-14.77 6.12-29.87 8.69-45.78 7.83-13.92-.75-24.76-7.03-38.03-10.31-40.29-9.94-74.77-4.04-97.7 3.61-26.11 8.71-32.8 16.13-44.64 21.63-9.79 4.55-49.95 15.47-77.29-4.43-7.61-5.54-12.3-12.67-12.72-13.3C11.76 18.62 11.47 5.82 11.72 0c-.37 1.51-.81 3.66-1.08 6.26-.56 5.48-.78 15.65 4.44 26.09 8.66 17.33 26.2 23.25 34.08 25.91 0 0 20.82 7.02 53.68.18 3.3-.69 6.49-1.51 6.49-1.51 2.71-.73 5.97-1.62 9.9-3.31 2.36-1.01 5.42-2.52 8.82-4.73.03 1.8-1.12 2.74-4.52 4.83-3.58 2.12-7.89 3.85-10.4 4.67-.35.51-.97 1.25-1.67 2.2-2.36 3.19-2.51 3.47-3.12 4.38-3.77 5.63-6.81 10.37-8.46 12.3-1.58 1.84-4.27 4.72-7.85 7.26-7.34 5.22-15.88 7.66-24.86 8.3-3.39.24-6.84.23-10.3 0-1.89-.09-6.11-.79-8.98-1.38-.82-.17-1.68-.11-2.43.26-4.44 2.17-11.28 11.75-13.85 14.57-2.46 2.69-5.16 5.77-7.93 8.75-2.76 2.97-3.88 4-6.59 6.29-3.46 2.92-8.62 5.19-11.56 8.15-.72.72-7.25 8.07-5.12 8.7 1.26.37 5.68.2 7.37 0 4.73-.57 14.69-12.86 18.41-16.61 8-8.09 18.2-18.29 29.73-19.23 7.27-.6 14.43 2.33 21.6 3.15 7.96.91 20.12 1.61 28.01 1.09 22.98-1.52 41.65-28.15 59.6-41.69 17.22-12.99 45.65-7.19 63.16 10.02 11.38 11.18 22.08 22.71 36.4 29.99 13.82 7.03 27.67 7.19 42.64 5.87 6.4-.56 12.75-2.16 19.16-2.68 2.22.19 3.44 4.15 5.37 5.35 1.56.97 13.01.57 15.76.52 5.62-.11 11.25-.28 16.88-.51 10.63-.42 21.27-.98 31.9-1.46h.04c6.31-.28 12.61-.54 18.9-.72 13.25-.37 25.38-1.99 37.85 3.7 6.25 2.85 12.96 9.75 19.63 9.92 1.29.03 2.99-.33 4.19-.76.31-.11.42-.68.37-.96-.61-3.13-3.58-6.1-6.13-7.56Zm-66.44-94.14c1.25-.8 6.19-2.14 6.15 1.39 0 0-.03.36-.17.66-.36.8-4.79.85-5.89.45-.24-.09-.6-.49-.67-1.04-.1-.75.25-1.23.59-1.46Zm-26.83-5.73c-.48-.91-.35-1.25-.62-1.73-.54-.96-1.7-.75-3.58-1.32-1.46-.44-3.43-1.37-3.35-1.82.1-.58 3.58-.98 6.49.68.5.28 3.09 1.75 3.03 3.68-.02.76-.47 1.66-.93 1.68-.41.02-.76-.65-1.04-1.17Z" class="cls-1"/>
    <path id="b" d="M110.31 58.86c-2.11 2.53-5.11 6.99-7.07 10.05-1.73 2.7-3.62 5.18-5.1 6.94-7.46 8.87-18.05 13.43-31.35 14.33-1.5.11-3.03.17-4.6.17-1.66 0-3.4-.06-5.15-.17-.46-.03-.96-.1-1.48-.18-.89-.14-1.85-.35-2.79-.55-1.94-.42-3.95-.9-5.75-.84-3.25.09-8.81 5.51-14.61 12.73-1.04 1.3-1.94 2.42-2.53 3.07-.97 1.06-1.98 2.18-3.01 3.33-.9 1-1.82 2.03-2.76 3.06-2.15 2.36-4.6 4.42-7.34 5.91-.76.41-1.54.78-2.35 1.12-3.27 1.37-6.55 2.16-9.97 1.6-3.61-.6-1.23-3.15-.22-4.51 4.02-5.4 12.06-8.87 17.53-13.46 7.88-6.62 15.04-15.79 21.62-22.06.37-.35.78-.65 1.23-.87 1.75-.86 2.22-.18 5.06.81 17.37 6.11 31.05 4.96 45.06-8.14 2.07-1.93 8.17-9.52 10.08-11.09 1.75-.37 3.77-.81 5.5-1.25Zm355.4 87.99c-.03.65-2.58 1.19-3.18 1.21-9.82.24-16.69-9.24-24.97-13.69-2.76-1.49-5.71-2.47-8.67-3.34-19.04-5.63-38.51-8.52-57.76-13.71-1.07-.29-2.69-.71-4.76-1.34 6.2-.25 12.38-.55 18.44-.84 3.84-.18 7.72-.37 11.63-.54 6.85 0 12.69.71 21.74 3.67 12.15 3.98 37.69 14.92 45.55 25.43.74.99 1.99 2.59 1.96 3.16Z" class="cls-1"/>
  </defs>
  <g data-name="Capa 1">
    <use xlink:href="#a" class="cls-1"/>
    <use xlink:href="#b" class="cls-1"/>
    <use xlink:href="#a" class="cls-2"/>
    <use xlink:href="#b" class="cls-2"/>
  </g>
</svg>
