<svg width="192.523" xmlns="http://www.w3.org/2000/svg" height="169.254" id="screenshot-6245d1d9-49d6-8069-8006-88f917696dc6" viewBox="-6268 -716 192.523 169.254" style="-webkit-print-color-adjust::exact" xmlns:xlink="http://www.w3.org/1999/xlink" fill="none" version="1.1">
  <g id="shape-6245d1d9-49d6-8069-8006-88f917696dc6" rx="0" ry="0">
    <defs></defs>
    <g id="shape-6245d1d9-49d6-8069-8006-88f87631ecce">
      <defs></defs>
      <g class="frame-container-wrapper">
        <g class="frame-container-blur">
          <defs></defs>
          <g class="frame-container-shadows">
            <g fill="none">
              <g class="fills" id="fills-6245d1d9-49d6-8069-8006-88f87631ecce">
                <rect rx="0" ry="0" x="-6268" y="-716" width="192.5234375" height="169.25390625" transform="matrix(1.000000, 0.000000, 0.000000, 1.000000, 0.000000, 0.000000)" class="frame-background"></rect>
              </g>
              <g class="frame-children">
                <g id="shape-6245d1d9-49d6-8069-8006-88f71c71424a">
                  <defs></defs>
                  <g class="fills" id="fills-6245d1d9-49d6-8069-8006-88f71c71424a">
                    <path d="M-6086.5,-704.98046875C-6090.09375,-708.40625,-6094.17578125,-711.1015625,-6098.74609375,-713.0625C-6103.3203125,-715.0234375,-6108.140625,-716,-6113.19921875,-716L-6230.03515625,-716C-6235.26171875,-716,-6240.1640625,-715.0234375,-6244.73046875,-713.0625C-6249.3046875,-711.1015625,-6253.3046875,-708.40625,-6256.734375,-704.98046875C-6260.1640625,-701.55078125,-6262.85546875,-697.546875,-6264.81640625,-692.9765625C-6266.7734375,-688.40234375,-6267.75390625,-683.5859375,-6267.75390625,-678.52734375L-6267.75390625,-655.8671875C-6267.75390625,-647.78515625,-6267.796875,-639.6171875,-6267.87890625,-631.375C-6267.9609375,-623.125,-6268,-614.96484375,-6268,-606.87890625L-6268,-584.22265625C-6268,-579.32421875,-6267.0625,-574.5859375,-6265.18359375,-570.015625C-6263.30859375,-565.4453125,-6260.5703125,-561.359375,-6256.9765625,-557.76953125C-6253.38671875,-554.17578125,-6249.3046875,-551.44140625,-6244.73046875,-549.56640625C-6240.1640625,-547.6875,-6235.421875,-546.74609375,-6230.5234375,-546.74609375L-6113.19921875,-546.74609375C-6102.75,-546.74609375,-6093.84765625,-550.421875,-6086.5,-557.76953125C-6082.91015625,-561.19921875,-6080.171875,-565.19921875,-6078.296875,-569.7734375C-6076.41796875,-574.33984375,-6075.4765625,-579.16015625,-6075.4765625,-584.22265625L-6075.4765625,-678.28125C-6075.4765625,-688.73046875,-6079.15234375,-697.6328125,-6086.5,-704.98046875" style="stroke:rgb(12.89978%,13.299561%,13.699341%);word-spacing:0px;text-decoration-color:initial;text-decoration-thickness:initial;color:rgb(0, 0, 0);fill-rule:nonzero;-webkit-text-stroke-width:0px;text-transform:none;fill:rgb(83.099365%,83.099365%,83.099365%);font-variant-caps:normal;fill-opacity:1;text-indent:0px;orphans:2;widows:2;font-variant-ligatures:normal;letter-spacing:normal;font-style:normal;font-weight:400;white-space:normal;text-align:start;font-size:medium;text-decoration-style:initial"></path>
                  </g>
                </g>
                <g id="shape-6245d1d9-49d6-8069-8006-88f550a5fdf9">
                  <defs></defs>
                  <g class="fills" id="fills-6245d1d9-49d6-8069-8006-88f550a5fdf9">
                    <path d="M-6117.72021484375,-614.8372802734375C-6116.88330078125,-614.5862426757812,-6116.046875,-614.3078002929688,-6115.2685546875,-613.8881225585938C-6112.9267578125,-612.6251831054688,-6110.9873046875,-609.9345092773438,-6108.20703125,-610.001220703125C-6108.0390625,-610.009033203125,-6107.3193359375,-610.1620483398438,-6107.3076171875,-610.3463745117188C-6107.2998046875,-610.5072021484375,-6107.65576171875,-610.962158203125,-6107.86328125,-611.2406005859375C-6110.087890625,-614.2254028320312,-6117.3095703125,-617.327880859375,-6120.74658203125,-618.4574584960938C-6121.1884765625,-618.6026000976562,-6121.60302734375,-618.7280883789062,-6122.00146484375,-618.837890625L-6122.00927734375,-618.837890625C-6122.58837890625,-618.9987182617188,-6123.1240234375,-619.1242065429688,-6123.63232421875,-619.2183837890625L-6127.84326171875,-620.2028198242188C-6127.5302734375,-620.214599609375,-6127.2177734375,-620.2302856445312,-6126.90087890625,-620.2459716796875L-6126.88916015625,-620.2459716796875C-6125.1064453125,-620.3244018554688,-6123.3232421875,-620.39892578125,-6121.54443359375,-620.449951171875C-6117.79833984375,-620.5518798828125,-6114.369140625,-621.0147094726562,-6110.84228515625,-619.3988037109375C-6109.0751953125,-618.5908203125,-6107.1787109375,-616.6336059570312,-6105.2900390625,-616.5865478515625C-6104.9267578125,-616.5748291015625,-6104.44580078125,-616.6807250976562,-6104.10546875,-616.8023071289062C-6104.01953125,-616.8336791992188,-6103.98828125,-616.9945068359375,-6104.00390625,-617.0729370117188C-6104.17578125,-617.9632568359375,-6105.0166015625,-618.8065185546875,-6105.73583984375,-619.2183837890625C-6108.55908203125,-620.8460693359375,-6113.81005859375,-622.9013061523438,-6116.95751953125,-623.1326904296875C-6121.71240234375,-623.4817504882812,-6126.501953125,-623.4739379882812,-6131.2646484375,-623.7249755859375C-6135.4326171875,-623.948486328125,-6137.6181640625,-623.1797485351562,-6140.4140625,-627.0352783203125C-6140.78515625,-627.545166015625,-6141.07080078125,-628.1217041015625,-6141.30517578125,-628.7374877929688L-6140.5703125,-630.1573486328125C-6140.46484375,-630.3573608398438,-6140.3359375,-630.6083984375,-6140.19873046875,-630.8790283203125L-6139.3544921875,-632.5223999023438C-6139.27978515625,-632.65966796875,-6139.21337890625,-632.76953125,-6139.16259765625,-632.840087890625C-6136.34765625,-636.9309692382812,-6130.87353515625,-640.34716796875,-6126.123046875,-640.6295776367188C-6122.431640625,-640.8531494140625,-6116.71533203125,-639.029296875,-6113.3642578125,-640.7982177734375C-6113.1962890625,-640.888427734375,-6113.0244140625,-640.9943237304688,-6112.85986328125,-641.1119995117188C-6112.66064453125,-641.2532348632812,-6112.57861328125,-641.5238647460938,-6112.64892578125,-641.7709350585938C-6112.67626953125,-641.8729248046875,-6112.71533203125,-641.9788208007812,-6112.76611328125,-642.092529296875C-6112.89501953125,-642.3671264648438,-6113.0595703125,-642.563232421875,-6113.1962890625,-642.692626953125C-6113.2822265625,-642.7711181640625,-6113.3798828125,-642.8299560546875,-6113.49365234375,-642.861328125C-6114.81494140625,-643.2535400390625,-6116.17578125,-643.6889038085938,-6117.57568359375,-644.1634521484375C-6118.87744140625,-644.610595703125,-6120.13671875,-645.0695190429688,-6121.3486328125,-645.5362548828125C-6121.63037109375,-645.6460571289062,-6121.88427734375,-645.818603515625,-6122.095703125,-646.046142578125C-6123.72607421875,-647.8032836914062,-6126.552734375,-648.458251953125,-6128.76220703125,-648.7053833007812C-6129.4150390625,-648.7799072265625,-6130.181640625,-648.6033935546875,-6130.81103515625,-648.7445678710938C-6131.1982421875,-648.8269653320312,-6131.73388671875,-649.3054809570312,-6132.20703125,-649.48193359375C-6133.91943359375,-650.1173706054688,-6136.4609375,-649.658447265625,-6138.27490234375,-649.6074829101562C-6138.419921875,-648.5641479492188,-6137.09814453125,-648.4779052734375,-6136.47265625,-648.1837158203125C-6136.20654296875,-648.0582275390625,-6135.90966796875,-647.8973999023438,-6135.6044921875,-647.732666015625L-6136.93408203125,-647.4816284179688C-6137.21923828125,-647.4581298828125,-6137.5322265625,-647.3992919921875,-6137.86474609375,-647.30908203125L-6137.87646484375,-647.3051147460938L-6137.87255859375,-647.3051147460938C-6139.84326171875,-646.771728515625,-6142.470703125,-645.2813110351562,-6144.01123046875,-644.6419677734375C-6148.18701171875,-642.9083862304688,-6152.45654296875,-642.1788330078125,-6156.95703125,-642.4219970703125C-6160.890625,-642.6337890625,-6163.9560546875,-644.4144897460938,-6167.7099609375,-645.3440551757812C-6179.103515625,-648.1641235351562,-6188.85498046875,-646.4893188476562,-6195.337890625,-644.3203735351562C-6202.72021484375,-641.849365234375,-6204.6123046875,-639.7431640625,-6207.96337890625,-638.18603515625C-6210.7314453125,-636.8956298828125,-6222.08642578125,-633.797119140625,-6229.81640625,-639.441162109375C-6231.970703125,-641.0139770507812,-6233.29638671875,-643.0338745117188,-6233.41357421875,-643.2142944335938C-6235.673828125,-646.716796875,-6235.755859375,-650.3487548828125,-6235.685546875,-652C-6235.791015625,-651.572509765625,-6235.916015625,-650.9606323242188,-6235.990234375,-650.2232666015625C-6236.150390625,-648.6700439453125,-6236.20947265625,-645.7833251953125,-6234.7353515625,-642.8220825195312C-6232.28759765625,-637.9036865234375,-6227.32568359375,-636.2288818359375,-6225.09716796875,-635.471923828125C-6225.09716796875,-635.471923828125,-6219.21240234375,-633.4833374023438,-6209.91845703125,-635.4208984375C-6209.6015625,-635.4876098632812,-6209.28466796875,-635.5581665039062,-6209.00732421875,-635.6248779296875L-6209.38671875,-634.9306640625C-6209.95361328125,-634.4442749023438,-6211.638671875,-632.345947265625,-6212.21337890625,-631.8046264648438C-6216.17431640625,-628.09033203125,-6220.04541015625,-627.7648315429688,-6224.9560546875,-629.4945068359375C-6225.76171875,-629.77685546875,-6225.890625,-629.9690551757812,-6226.38720703125,-629.7258911132812C-6226.51611328125,-629.6631469726562,-6226.6337890625,-629.5768432617188,-6226.7353515625,-629.4788208007812C-6228.5966796875,-627.6981201171875,-6230.6220703125,-625.0977172851562,-6232.8505859375,-623.218994140625C-6234.39892578125,-621.9168090820312,-6236.67041015625,-620.932373046875,-6237.80859375,-619.4027099609375C-6238.09375,-619.014404296875,-6238.7666015625,-618.292724609375,-6237.74609375,-618.1240844726562C-6236.7763671875,-617.9632568359375,-6235.849609375,-618.1868286132812,-6234.9267578125,-618.5751342773438C-6234.8173828125,-618.6221923828125,-6234.7119140625,-618.6692504882812,-6234.60986328125,-618.71630859375L-6234.60595703125,-618.72021484375C-6234.48876953125,-618.775146484375,-6234.37548828125,-618.833984375,-6234.26220703125,-618.892822265625C-6234.08984375,-618.9869384765625,-6233.921875,-619.0889282226562,-6233.7578125,-619.19873046875L-6233.765625,-619.19482421875L-6233.75390625,-619.2026977539062C-6233.39013671875,-619.44189453125,-6233.0498046875,-619.7164916992188,-6232.7294921875,-620.0145874023438L-6230.39892578125,-621.8736572265625L-6233.65625,-618.0299072265625C-6233.80859375,-617.8966064453125,-6233.97265625,-617.75537109375,-6234.16455078125,-617.5945434570312C-6235.1416015625,-616.7669677734375,-6236.60009765625,-616.1198120117188,-6237.43310546875,-615.284423828125C-6237.63623046875,-615.0765380859375,-6239.48193359375,-612.9938354492188,-6238.8798828125,-612.8134155273438C-6238.52392578125,-612.70751953125,-6237.27294921875,-612.758544921875,-6236.7958984375,-612.8134155273438C-6235.45849609375,-612.9781494140625,-6232.6435546875,-616.4610595703125,-6231.59130859375,-617.5278930664062C-6229.32763671875,-619.8223876953125,-6226.44189453125,-622.7169189453125,-6223.18505859375,-622.979736328125C-6221.12841796875,-623.1522827148438,-6219.10302734375,-622.32080078125,-6217.07763671875,-622.0894165039062C-6214.8251953125,-621.8305053710938,-6211.388671875,-621.6343994140625,-6209.15576171875,-621.779541015625C-6202.6611328125,-622.2149047851562,-6197.37890625,-629.76513671875,-6192.3037109375,-633.60888671875C-6187.435546875,-637.2918090820312,-6179.39697265625,-635.6483764648438,-6174.44287109375,-630.7652587890625C-6171.224609375,-627.5961303710938,-6168.1982421875,-624.3250732421875,-6164.15185546875,-622.258056640625C-6160.24169921875,-620.2616577148438,-6156.32763671875,-620.218505859375,-6152.09326171875,-620.5911254882812C-6150.28271484375,-620.751953125,-6148.48828125,-621.2069091796875,-6146.673828125,-621.35205078125C-6146.04443359375,-621.297119140625,-6145.7001953125,-620.1753540039062,-6145.15283203125,-619.8380737304688C-6144.7109375,-619.5635375976562,-6141.4736328125,-619.67333984375,-6140.69921875,-619.6890258789062C-6139.7333984375,-619.7086181640625,-6138.767578125,-619.736083984375,-6137.80615234375,-619.7635498046875L-6135.3623046875,-619.1085205078125C-6135.3779296875,-619.1085205078125,-6135.3896484375,-619.1046142578125,-6135.4013671875,-619.1046142578125C-6134.81494140625,-618.9241943359375,-6134.357421875,-618.8065185546875,-6134.05224609375,-618.7241821289062ZM-6117.72021484375,-614.8372802734375" style="stroke:none;word-spacing:0px;text-decoration-color:initial;text-decoration-thickness:initial;color:rgb(0, 0, 0);fill-rule:nonzero;-webkit-text-stroke-width:0px;text-transform:none;fill:rgb(12.89978%,13.299561%,13.699341%);font-variant-caps:normal;fill-opacity:1;text-indent:0px;orphans:2;widows:2;font-variant-ligatures:normal;letter-spacing:normal;font-style:normal;font-weight:400;white-space:normal;text-align:start;font-size:medium;text-decoration-style:initial"></path>
                  </g>
                </g>
              </g>
            </g>
          </g>
          <g id="strokes-6245d1d9-49d6-8069-8006-88f91cc6c587-6245d1d9-49d6-8069-8006-88f87631ecce" class="strokes">
            <g class="stroke-shape">
              <defs></defs>
              <rect rx="0" ry="0" x="-6268" y="-716" width="192.5234375" height="169.25390625" transform="matrix(1.000000, 0.000000, 0.000000, 1.000000, 0.000000, 0.000000)" class="frame-background" style="fill:none;fill-opacity:none;stroke-width:0;stroke:#000000;stroke-opacity:1"></rect>
            </g>
          </g>
        </g>
      </g>
    </g>
    <g id="shape-6245d1d9-49d6-8069-8006-88f550a5bef0">
      <defs></defs>
      <g class="fills" id="fills-6245d1d9-49d6-8069-8006-88f550a5bef0">
        <path d="M-6086.5,-704.98046875C-6090.09375,-708.40625,-6094.17578125,-711.1015625,-6098.74609375,-713.0625C-6103.3203125,-715.0234375,-6108.140625,-716,-6113.19921875,-716L-6230.03515625,-716C-6235.26171875,-716,-6240.16015625,-715.0234375,-6244.73046875,-713.0625C-6249.3046875,-711.1015625,-6253.3046875,-708.40625,-6256.734375,-704.98046875C-6260.16015625,-701.55078125,-6262.85546875,-697.546875,-6264.81640625,-692.9765625C-6266.7734375,-688.40234375,-6267.75390625,-683.5859375,-6267.75390625,-678.52734375L-6267.75390625,-655.8671875C-6267.75390625,-647.78515625,-6267.796875,-639.6171875,-6267.87890625,-631.375C-6267.9609375,-623.125,-6268,-614.96484375,-6268,-606.87890625L-6268,-584.22265625C-6268,-579.32421875,-6267.0625,-574.5859375,-6265.18359375,-570.015625C-6263.30859375,-565.4453125,-6260.5703125,-561.359375,-6256.9765625,-557.76953125C-6253.38671875,-554.17578125,-6249.3046875,-551.44140625,-6244.73046875,-549.56640625C-6240.16015625,-547.6875,-6235.421875,-546.74609375,-6230.5234375,-546.74609375L-6113.19921875,-546.74609375C-6102.75,-546.74609375,-6093.84765625,-550.421875,-6086.5,-557.76953125C-6082.91015625,-561.19921875,-6080.171875,-565.19921875,-6078.29296875,-569.7734375C-6076.41796875,-574.33984375,-6075.4765625,-579.16015625,-6075.4765625,-584.22265625L-6075.4765625,-678.28125C-6075.4765625,-688.73046875,-6079.15234375,-697.6328125,-6086.5,-704.98046875ZM-6086.5,-704.98046875" style="stroke-opacity:1;stroke:rgb(12.89978%,13.299561%,13.699341%);word-spacing:0px;text-decoration-color:initial;text-decoration-thickness:initial;color:rgb(0, 0, 0);-webkit-text-stroke-width:0px;text-transform:none;font-variant-caps:normal;text-indent:0px;orphans:2;widows:2;font-variant-ligatures:normal;letter-spacing:normal;stroke-width:2.862;stroke-linejoin:miter;font-style:normal;font-weight:400;white-space:normal;stroke-miterlimit:10;text-align:start;font-size:medium;stroke-linecap:butt;text-decoration-style:initial"></path>
      </g>
    </g>
  </g>
</svg>