<svg width="962" xmlns="http://www.w3.org/2000/svg" height="299" id="screenshot-6245d1d9-49d6-8069-8006-885cb8154ca1" viewBox="-3960 -2532 962 299" style="-webkit-print-color-adjust::exact" xmlns:xlink="http://www.w3.org/1999/xlink" fill="none" version="1.1">
  <g id="shape-6245d1d9-49d6-8069-8006-885cb8154ca1" rx="0" ry="0">
    <defs></defs>
    <g id="shape-6245d1d9-49d6-8069-8006-85980fed5a7d">
      <defs></defs>
      <g class="fills" id="fills-6245d1d9-49d6-8069-8006-85980fed5a7d">
        <path d="M-3198.31103515625,-2500.302734375C-3199.26953125,-2502.147705078125,-3199.018310546875,-2502.8388671875,-3199.5673828125,-2503.79345703125C-3200.642822265625,-2505.73193359375,-3202.997802734375,-2505.322021484375,-3206.77880859375,-2506.45849609375C-3209.72998046875,-2507.3544921875,-3213.686279296875,-2509.228515625,-3213.528564453125,-2510.142333984375C-3213.329833984375,-2511.313720703125,-3206.322998046875,-2512.110107421875,-3200.444091796875,-2508.771728515625C-3199.43896484375,-2508.192138671875,-3194.220458984375,-2505.234130859375,-3194.348876953125,-2501.33935546875C-3194.401611328125,-2499.793212890625,-3195.301513671875,-2497.9951171875,-3196.218994140625,-2497.936767578125C-3197.04296875,-2497.895751953125,-3197.756103515625,-2499.26025390625,-3198.31103515625,-2500.302734375M-3144.24951171875,-2488.723876953125C-3141.71923828125,-2490.35205078125,-3131.76708984375,-2493.052001953125,-3131.866455078125,-2485.91845703125C-3131.866455078125,-2485.91845703125,-3131.9306640625,-2485.192138671875,-3132.211181640625,-2484.5888671875C-3132.941650390625,-2482.966796875,-3141.859375,-2482.8671875,-3144.0859375,-2483.67529296875C-3144.55908203125,-2483.85693359375,-3145.28955078125,-2484.6708984375,-3145.441650390625,-2485.77783203125C-3145.646240234375,-2487.294921875,-3144.945068359375,-2488.25537109375,-3144.24951171875,-2488.723876953125M-3010.366455078125,-2298.616943359375C-3030.49853515625,-2310.201904296875,-3067.916748046875,-2324.832275390625,-3090.3515625,-2326.48388671875C-3124.22265625,-2328.97314453125,-3158.362548828125,-2328.896728515625,-3192.3037109375,-2330.706787109375C-3221.978759765625,-2332.281982421875,-3237.58203125,-2326.81201171875,-3257.480224609375,-2354.2626953125C-3267.595947265625,-2368.2197265625,-3268.951904296875,-2388.759521484375,-3273.889892578125,-2405.27587890625C-3272.159912109375,-2405.580322265625,-3271.7099609375,-2405.31689453125,-3270.46533203125,-2404.1806640625C-3267.052490234375,-2401.047119140625,-3264.99560546875,-2385.15771484375,-3263.49951171875,-2379.739990234375C-3263.14306640625,-2378.463134765625,-3262.289794921875,-2372.4599609375,-3260.54833984375,-2373.350341796875C-3259.47314453125,-2373.90673828125,-3251.1982421875,-2391.80517578125,-3248.57421875,-2395.606201171875C-3228.50634765625,-2424.702880859375,-3189.50439453125,-2449.037841796875,-3155.63916015625,-2451.05859375C-3129.336181640625,-2452.63427734375,-3088.60986328125,-2439.667236328125,-3064.73193359375,-2452.25927734375C-3063.545654296875,-2452.891845703125,-3062.3125,-2453.6416015625,-3061.15576171875,-2454.46728515625C-3059.7353515625,-2455.4921875,-3059.145263671875,-2457.425048828125,-3059.63623046875,-2459.18798828125C-3059.8349609375,-2459.896484375,-3060.103515625,-2460.663818359375,-3060.4716796875,-2461.448486328125C-3061.383544921875,-2463.42236328125,-3062.57568359375,-2464.81640625,-3063.545654296875,-2465.73583984375C-3064.1591796875,-2466.309814453125,-3064.860595703125,-2466.7255859375,-3065.643798828125,-2466.9541015625C-3075.07568359375,-2469.741943359375,-3084.7822265625,-2472.822509765625,-3094.734619140625,-2476.219482421875C-3104.031982421875,-2479.399658203125,-3113.00830078125,-2482.66796875,-3121.6396484375,-2485.98291015625C-3123.64404296875,-2486.756103515625,-3125.45556640625,-2487.98583984375,-3126.95751953125,-2489.6025390625C-3138.5693359375,-2502.11279296875,-3158.713134765625,-2506.798095703125,-3174.462158203125,-2508.55517578125C-3179.102294921875,-2509.064697265625,-3184.572265625,-2507.811279296875,-3189.066162109375,-2508.812744140625C-3191.818603515625,-2509.416015625,-3195.634521484375,-2512.82470703125,-3199.012451171875,-2514.072265625C-3211.20263671875,-2518.587890625,-3229.33056640625,-2515.32568359375,-3242.245361328125,-2514.95654296875C-3243.27978515625,-2507.5419921875,-3233.87109375,-2506.9267578125,-3229.388671875,-2504.818359375C-3223.673583984375,-2502.135986328125,-3216.04150390625,-2497.22216796875,-3210.174072265625,-2495.529541015625C-3205.247802734375,-2494.006591796875,-3197.440185546875,-2494.580810546875,-3197.703369140625,-2492.073974609375C-3197.99560546875,-2489.3271484375,-3207.374755859375,-2490.49853515625,-3209.619140625,-2490.943603515625C-3215.515380859375,-2492.126708984375,-3226.64794921875,-2499.992431640625,-3230.72705078125,-2499.974853515625C-3244.507080078125,-2499.91064453125,-3269.653076171875,-2485.192138671875,-3283.111572265625,-2479.61669921875C-3312.868408203125,-2467.264404296875,-3343.30322265625,-2462.069580078125,-3375.36279296875,-2463.80322265625C-3403.407470703125,-2465.314208984375,-3425.251708984375,-2478,-3452.005126953125,-2484.6181640625C-3533.18798828125,-2504.701416015625,-3602.659912109375,-2492.770751953125,-3648.867431640625,-2477.32080078125C-3701.473876953125,-2459.732666015625,-3714.961669921875,-2444.744873046875,-3738.822021484375,-2433.640380859375C-3758.551025390625,-2424.45703125,-3839.482666015625,-2402.394287109375,-3894.56689453125,-2442.595458984375C-3909.895263671875,-2453.7822265625,-3919.356689453125,-2468.17236328125,-3920.1865234375,-2469.455078125C-3936.303955078125,-2494.393310546875,-3936.88818359375,-2520.239501953125,-3936.3857421875,-2532C-3937.127685546875,-2528.94873046875,-3938.00439453125,-2524.602783203125,-3938.548095703125,-2519.35498046875C-3939.67578125,-2508.291748046875,-3940.119873046875,-2487.751708984375,-3929.606689453125,-2466.655517578125C-3912.156982421875,-2431.649169921875,-3876.807373046875,-2419.70703125,-3860.929443359375,-2414.34228515625C-3860.929443359375,-2414.34228515625,-3818.982421875,-2400.168701171875,-3752.765380859375,-2413.97314453125C-3746.126708984375,-2415.361328125,-3739.69873046875,-2417.030517578125,-3739.69873046875,-2417.030517578125C-3734.22314453125,-2418.51220703125,-3727.666259765625,-2420.292724609375,-3719.741943359375,-2423.707275390625C-3714.99072265625,-2425.75732421875,-3708.81982421875,-2428.796875,-3701.9765625,-2433.259765625C-3701.91796875,-2429.62255859375,-3704.232177734375,-2427.730712890625,-3711.0869140625,-2423.51416015625C-3718.31005859375,-2419.232666015625,-3726.993896484375,-2415.736083984375,-3732.037353515625,-2414.08447265625C-3732.744384765625,-2413.0654296875,-3733.994873046875,-2411.554443359375,-3735.403564453125,-2409.64501953125C-3740.148681640625,-2403.196533203125,-3740.452392578125,-2402.64013671875,-3741.6796875,-2400.801025390625C-3749.288330078125,-2389.43310546875,-3755.401123046875,-2379.857177734375,-3758.73193359375,-2375.973876953125C-3761.911376953125,-2372.2666015625,-3767.334228515625,-2366.44482421875,-3774.545654296875,-2361.302734375C-3789.33056640625,-2350.760498046875,-3806.546630859375,-2345.8291015625,-3824.62744140625,-2344.552001953125C-3831.453125,-2344.06005859375,-3838.4013671875,-2344.09521484375,-3845.385009765625,-2344.552001953125C-3849.189453125,-2344.733642578125,-3857.697998046875,-2346.139404296875,-3863.4775390625,-2347.345703125C-3865.11962890625,-2347.685546875,-3866.861083984375,-2347.568603515625,-3868.368896484375,-2346.83056640625C-3877.31591796875,-2342.449462890625,-3891.095703125,-2323.1044921875,-3896.279052734375,-2317.41162109375C-3901.22314453125,-2311.982421875,-3906.675537109375,-2305.762451171875,-3912.25048828125,-2299.74755859375C-3917.80810546875,-2293.750244140625,-3920.075439453125,-2291.6591796875,-3925.52783203125,-2287.0498046875C-3932.49365234375,-2281.16357421875,-3942.895751953125,-2276.560302734375,-3948.8330078125,-2270.597900390625C-3950.288330078125,-2269.1396484375,-3963.43701171875,-2254.304443359375,-3959.1416015625,-2253.021728515625C-3956.599609375,-2252.26611328125,-3947.699462890625,-2252.61181640625,-3944.29833984375,-2253.021728515625C-3934.772705078125,-2254.175537109375,-3914.693359375,-2278.990966796875,-3907.201416015625,-2286.575439453125C-3891.072265625,-2302.915771484375,-3870.51953125,-2323.508544921875,-3847.3076171875,-2325.406005859375C-3832.651123046875,-2326.606689453125,-3818.22265625,-2320.708984375,-3803.776611328125,-2319.051513671875C-3787.735107421875,-2317.20654296875,-3763.225830078125,-2315.801025390625,-3747.336669921875,-2316.855224609375C-3701.03564453125,-2319.93017578125,-3663.401123046875,-2373.71337890625,-3627.2451171875,-2401.058837890625C-3592.550048828125,-2427.303466796875,-3535.2744140625,-2415.583984375,-3499.971435546875,-2380.829345703125C-3477.034423828125,-2358.245361328125,-3455.488037109375,-2334.970458984375,-3426.630859375,-2320.252197265625C-3398.779052734375,-2306.04931640625,-3370.868896484375,-2305.739013671875,-3340.70263671875,-2308.40380859375C-3327.805419921875,-2309.5400390625,-3315.01318359375,-2312.755615234375,-3302.09228515625,-2313.809814453125C-3297.615966796875,-2313.417236328125,-3295.149658203125,-2305.4228515625,-3291.263671875,-2303.015380859375C-3288.11962890625,-2301.053466796875,-3265.042236328125,-2301.85595703125,-3259.513916015625,-2301.961181640625C-3248.182861328125,-2302.17236328125,-3236.83984375,-2302.535400390625,-3225.49072265625,-2302.98046875C-3204.0791015625,-2303.823974609375,-3182.626220703125,-2304.966064453125,-3161.214111328125,-2305.920654296875L-3161.12060546875,-2305.920654296875C-3148.404541015625,-2306.494384765625,-3135.711669921875,-2307.015869140625,-3123.036376953125,-2307.3671875C-3096.329833984375,-2308.116943359375,-3071.884765625,-2311.390625,-3046.773681640625,-2299.905517578125C-3034.17431640625,-2294.142578125,-3020.651611328125,-2280.208984375,-3007.2109375,-2279.869384765625C-3004.6044921875,-2279.799072265625,-3001.179931640625,-2280.537109375,-2998.772216796875,-2281.40380859375C-2998.15283203125,-2281.62646484375,-2997.919189453125,-2282.7802734375,-2998.024169921875,-2283.342529296875C-2999.25732421875,-2289.673828125,-3005.241455078125,-2295.671142578125,-3010.366455078125,-2298.616943359375" style="stroke:none;fill-rule:nonzero;fill:rgb(0%,9.799194%,66.699219%);fill-opacity:1"></path>
      </g>
    </g>
    <g id="shape-6245d1d9-49d6-8069-8006-85980fed5a7e">
      <defs></defs>
      <g class="fills" id="fills-6245d1d9-49d6-8069-8006-85980fed5a7e">
        <path d="M-3737.729248046875,-2413.1357421875C-3741.971923828125,-2408.022705078125,-3748.026123046875,-2399.026611328125,-3751.9765625,-2392.829833984375C-3755.47119140625,-2387.37158203125,-3759.281494140625,-2382.369873046875,-3762.255859375,-2378.814453125C-3777.286376953125,-2360.904296875,-3798.622314453125,-2351.691650390625,-3825.439697265625,-2349.8642578125C-3828.467041015625,-2349.653564453125,-3831.546630859375,-2349.524658203125,-3834.708251953125,-2349.524658203125C-3838.062744140625,-2349.524658203125,-3841.55712890625,-2349.6416015625,-3845.0927734375,-2349.8642578125C-3846.02197265625,-2349.9287109375,-3847.027099609375,-2350.0576171875,-3848.0791015625,-2350.2275390625C-3849.87890625,-2350.514404296875,-3851.807373046875,-2350.93017578125,-3853.70068359375,-2351.334228515625C-3857.6103515625,-2352.171875,-3861.654296875,-2353.144287109375,-3865.27734375,-2353.03857421875C-3871.816650390625,-2352.845458984375,-3883.037109375,-2341.89892578125,-3894.712890625,-2327.3330078125C-3896.81103515625,-2324.71533203125,-3898.62255859375,-2322.448486328125,-3899.808837890625,-2321.13671875C-3901.7666015625,-2318.998779296875,-3903.80029296875,-2316.726318359375,-3905.875,-2314.4072265625C-3907.680419921875,-2312.392333984375,-3909.5390625,-2310.319091796875,-3911.432373046875,-2308.23388671875C-3915.7626953125,-2303.454833984375,-3920.69482421875,-2299.30224609375,-3926.22900390625,-2296.3037109375C-3927.75439453125,-2295.477783203125,-3929.326171875,-2294.71630859375,-3930.962646484375,-2294.036865234375C-3937.542724609375,-2291.278564453125,-3944.15234375,-2289.673828125,-3951.0478515625,-2290.81591796875C-3958.317626953125,-2292.016357421875,-3953.531494140625,-2297.17626953125,-3951.491943359375,-2299.917236328125C-3943.386474609375,-2310.81689453125,-3927.198974609375,-2317.821533203125,-3916.166015625,-2327.0986328125C-3900.2763671875,-2340.464111328125,-3885.871337890625,-2358.9892578125,-3872.599853515625,-2371.65185546875C-3871.863525390625,-2372.3603515625,-3871.03955078125,-2372.969482421875,-3870.1220703125,-2373.42041015625C-3866.59228515625,-2375.148193359375,-3865.651611328125,-2373.783447265625,-3859.930419921875,-2371.774658203125C-3824.919677734375,-2359.446044921875,-3797.354248046875,-2361.765380859375,-3769.12255859375,-2388.21484375C-3764.961669921875,-2392.127197265625,-3752.666259765625,-2407.442626953125,-3748.809326171875,-2410.611328125C-3745.285400390625,-2411.372802734375,-3741.21826171875,-2412.251220703125,-3737.729248046875,-2413.1357421875" style="stroke:none;fill-rule:nonzero;fill:rgb(0%,9.799194%,66.699219%);fill-opacity:1"></path>
      </g>
    </g>
    <g id="shape-6245d1d9-49d6-8069-8006-85980fed8917">
      <defs></defs>
      <g class="fills" id="fills-6245d1d9-49d6-8069-8006-85980fed8917">
        <path d="M-3021.592529296875,-2235.4453125C-3021.651123046875,-2234.13330078125,-3026.793701171875,-2233.0380859375,-3027.991455078125,-2233.009033203125C-3047.784912109375,-2232.528564453125,-3061.623046875,-2251.662841796875,-3078.30126953125,-2260.658935546875C-3083.85888671875,-2263.663330078125,-3089.80810546875,-2265.64306640625,-3095.774658203125,-2267.411865234375C-3134.1396484375,-2278.77978515625,-3173.37548828125,-2284.61328125,-3212.166748046875,-2295.10302734375C-3214.323486328125,-2295.688720703125,-3217.584228515625,-2296.526123046875,-3221.7626953125,-2297.808837890625C-3209.274169921875,-2298.306640625,-3196.82666015625,-2298.915771484375,-3184.595458984375,-2299.50146484375C-3176.864013671875,-2299.870361328125,-3169.027587890625,-2300.245361328125,-3161.150146484375,-2300.5966796875C-3147.3466796875,-2300.5966796875,-3135.5712890625,-2299.16162109375,-3117.338623046875,-2293.187744140625C-3092.852783203125,-2285.157958984375,-3041.3916015625,-2263.06591796875,-3025.548828125,-2241.8232421875C-3024.064453125,-2239.8203125,-3021.5400390625,-2236.59326171875,-3021.592529296875,-2235.4453125" style="stroke:none;fill-rule:nonzero;fill:rgb(0%,9.799194%,66.699219%);fill-opacity:1"></path>
      </g>
    </g>
  </g>
</svg>