<?xml version="1.0" encoding="UTF-8"?>
<svg id="Capa_2" data-name="Capa 2" xmlns="http://www.w3.org/2000/svg" viewBox="0 0 511.2 90.06">
  <defs>
    <style>
      .cls-1 {
        fill: #1a1a1a;
      }
    </style>
  </defs>
  <g id="Capa_1-2" data-name="Capa 1">
    <g>
      <path class="cls-1" d="M52.32.13h53.1l-18.35,89.93H18.35L0,.13h49.98v59.87h2.34V.13Z"/>
      <path class="cls-1" d="M109.45.13h98v29.93h-48.28v2.34h39.82v25.25h-39.82v2.34h48.28v29.93h-98.13l.13-89.8Z"/>
      <path class="cls-1" d="M262.5,60h48.28v29.93h-98.13l.13-89.93h49.71v60Z"/>
      <path class="cls-1" d="M398.24,0c2.69,0,5.25.52,7.68,1.56s4.6,2.47,6.51,4.29c3.9,3.9,5.86,8.63,5.86,14.19v49.98c0,2.69-.5,5.25-1.5,7.68-1,2.43-2.45,4.56-4.36,6.38-3.91,3.9-8.63,5.86-14.19,5.86h-62.34c-2.6,0-5.12-.5-7.55-1.5-2.43-1-4.6-2.45-6.51-4.36-1.91-1.91-3.36-4.08-4.36-6.51-1-2.43-1.5-4.95-1.5-7.55v-12.04c0-4.29.02-8.63.06-13.01.04-4.38.07-8.72.07-13.01v-12.04c0-2.69.52-5.25,1.56-7.68,1.04-2.43,2.47-4.56,4.29-6.38,1.82-1.82,3.95-3.25,6.38-4.29s5.03-1.56,7.81-1.56h62.08ZM368.44,30.06h-2.6v29.93h2.6v-29.93Z"/>
      <path class="cls-1" d="M485.96,60.26l-5.34,6.38,1.95,1.69,6.9-8.33h21.73v29.93h-87.72v-29.93l28.76-36.7-2.08-1.69-6.51,8.46h-20.17V.13h87.72v29.93l-25.25,30.19Z"/>
    </g>
  </g>
</svg> 