<svg width="40.746" xmlns="http://www.w3.org/2000/svg" height="13.732" id="screenshot-6245d1d9-49d6-8069-8006-88f97f2f6fbd" viewBox="-10108.813 -7299.148 40.746 13.732" style="-webkit-print-color-adjust::exact" xmlns:xlink="http://www.w3.org/1999/xlink" fill="none" version="1.1">
  <g id="shape-6245d1d9-49d6-8069-8006-88f97f2f6fbd">
    <defs></defs>
    <g class="fills" id="fills-6245d1d9-49d6-8069-8006-88f97f2f6fbd">
      <path d="M-10068.06640625,-7285.9140625C-10068.078125,-7285.6484375,-10069.125,-7285.421875,-10069.3671875,-7285.41796875C-10073.3984375,-7285.3203125,-10076.21484375,-7289.20703125,-10079.609375,-7291.03515625C-10080.7421875,-7291.64453125,-10081.953125,-7292.046875,-10083.16796875,-7292.40625C-10090.9765625,-7294.71484375,-10098.96484375,-7295.8984375,-10106.859375,-7298.03125C-10107.296875,-7298.1484375,-10107.9609375,-7298.3203125,-10108.8125,-7298.578125C-10106.26953125,-7298.68359375,-10103.73828125,-7298.8046875,-10101.24609375,-7298.921875C-10099.671875,-7299,-10098.078125,-7299.07421875,-10096.4765625,-7299.1484375C-10093.6640625,-7299.1484375,-10091.26953125,-7298.85546875,-10087.5546875,-7297.640625C-10082.5703125,-7296.01171875,-10072.09765625,-7291.5234375,-10068.87109375,-7287.20703125C-10068.5703125,-7286.80078125,-10068.0546875,-7286.14453125,-10068.06640625,-7285.9140625" style="stroke:none;word-spacing:0px;text-decoration-color:initial;text-decoration-thickness:initial;color:rgb(0, 0, 0);fill-rule:nonzero;-webkit-text-stroke-width:0px;text-transform:none;fill:rgb(83.099365%,83.099365%,83.099365%);font-variant-caps:normal;fill-opacity:1;text-indent:0px;orphans:2;widows:2;font-variant-ligatures:normal;letter-spacing:normal;font-style:normal;font-weight:400;white-space:normal;text-align:start;font-size:medium;text-decoration-style:initial"></path>
    </g>
  </g>
</svg>
<svg width="44.215" xmlns="http://www.w3.org/2000/svg" height="24.92" id="screenshot-6245d1d9-49d6-8069-8006-88f97f2f6fbc" viewBox="-10258.062 -7322.004 44.215 24.92" style="-webkit-print-color-adjust::exact" xmlns:xlink="http://www.w3.org/1999/xlink" fill="none" version="1.1">
  <g id="shape-6245d1d9-49d6-8069-8006-88f97f2f6fbc">
    <defs></defs>
    <g class="fills" id="fills-6245d1d9-49d6-8069-8006-88f97f2f6fbc">
      <path d="M-10213.84765625,-7322.00390625C-10214.7109375,-7320.96875,-10215.9453125,-7319.140625,-10216.74609375,-7317.8828125C-10217.45703125,-7316.76953125,-10218.234375,-7315.7578125,-10218.83984375,-7315.03125C-10221.90234375,-7311.39453125,-10226.2421875,-7309.5234375,-10231.703125,-7309.15234375C-10232.3203125,-7309.109375,-10232.9453125,-7309.08203125,-10233.58984375,-7309.08203125C-10234.2734375,-7309.08203125,-10234.984375,-7309.109375,-10235.703125,-7309.15234375C-10235.890625,-7309.1640625,-10236.09765625,-7309.19140625,-10236.3125,-7309.2265625C-10236.67578125,-7309.28515625,-10237.0703125,-7309.37109375,-10237.453125,-7309.453125C-10238.25,-7309.62109375,-10239.07421875,-7309.8203125,-10239.8125,-7309.796875C-10241.14453125,-7309.7578125,-10243.42578125,-7307.53515625,-10245.8046875,-7304.578125C-10246.23046875,-7304.04296875,-10246.6015625,-7303.58203125,-10246.83984375,-7303.31640625C-10247.2421875,-7302.8828125,-10247.65234375,-7302.421875,-10248.078125,-7301.94921875C-10248.4453125,-7301.54296875,-10248.82421875,-7301.12109375,-10249.20703125,-7300.6953125C-10250.08984375,-7299.7265625,-10251.09375,-7298.8828125,-10252.21875,-7298.2734375C-10252.53125,-7298.10546875,-10252.8515625,-7297.953125,-10253.18359375,-7297.8125C-10254.5234375,-7297.25390625,-10255.8671875,-7296.92578125,-10257.2734375,-7297.16015625C-10258.75,-7297.40234375,-10257.77734375,-7298.453125,-10257.36328125,-7299.0078125C-10255.7109375,-7301.22265625,-10252.41796875,-7302.64453125,-10250.171875,-7304.52734375C-10246.9375,-7307.2421875,-10244.00390625,-7311.0078125,-10241.30078125,-7313.578125C-10241.15234375,-7313.72265625,-10240.984375,-7313.84765625,-10240.796875,-7313.9375C-10240.078125,-7314.2890625,-10239.88671875,-7314.01171875,-10238.72265625,-7313.60546875C-10231.59765625,-7311.1015625,-10225.984375,-7311.5703125,-10220.23828125,-7316.94140625C-10219.390625,-7317.73828125,-10216.890625,-7320.84765625,-10216.1015625,-7321.4921875C-10215.38671875,-7321.64453125,-10214.55859375,-7321.82421875,-10213.84765625,-7322.00390625" style="stroke:none;word-spacing:0px;text-decoration-color:initial;text-decoration-thickness:initial;color:rgb(0, 0, 0);fill-rule:nonzero;-webkit-text-stroke-width:0px;text-transform:none;fill:rgb(83.099365%,83.099365%,83.099365%);font-variant-caps:normal;fill-opacity:1;text-indent:0px;orphans:2;widows:2;font-variant-ligatures:normal;letter-spacing:normal;font-style:normal;font-weight:400;white-space:normal;text-align:start;font-size:medium;text-decoration-style:initial"></path>
    </g>
  </g>
</svg>
<svg width="195.829" xmlns="http://www.w3.org/2000/svg" height="56.755" id="screenshot-6245d1d9-49d6-8069-8006-88f97f2f6fbb" viewBox="-10259.093 -7346.148 195.829 56.755" style="-webkit-print-color-adjust::exact" xmlns:xlink="http://www.w3.org/1999/xlink" fill="none" version="1.1">
  <g id="shape-6245d1d9-49d6-8069-8006-88f97f2f6fbb">
    <defs></defs>
    <g class="fills" id="fills-6245d1d9-49d6-8069-8006-88f97f2f6fbb">
      <path d="M-10104.0390625,-7339.7109375C-10104.234375,-7340.0859375,-10104.18359375,-7340.2265625,-10104.29296875,-7340.41796875C-10104.515625,-7340.8125,-10104.9921875,-7340.73046875,-10105.76171875,-7340.9609375C-10106.36328125,-7341.140625,-10107.16796875,-7341.5234375,-10107.13671875,-7341.70703125C-10107.09765625,-7341.9453125,-10105.671875,-7342.109375,-10104.47265625,-7341.4296875C-10104.26953125,-7341.3125,-10103.20703125,-7340.7109375,-10103.234375,-7339.921875C-10103.2421875,-7339.60546875,-10103.42578125,-7339.2421875,-10103.61328125,-7339.23046875C-10103.78125,-7339.22265625,-10103.92578125,-7339.5,-10104.0390625,-7339.7109375M-10093.03515625,-7337.359375C-10092.51953125,-7337.6875,-10090.4921875,-7338.23828125,-10090.51171875,-7336.7890625C-10090.51171875,-7336.7890625,-10090.52734375,-7336.640625,-10090.58203125,-7336.51953125C-10090.734375,-7336.1875,-10092.546875,-7336.16796875,-10093,-7336.33203125C-10093.09765625,-7336.3671875,-10093.24609375,-7336.53515625,-10093.27734375,-7336.76171875C-10093.3203125,-7337.06640625,-10093.17578125,-7337.26171875,-10093.03515625,-7337.359375M-10065.78125,-7298.7421875C-10069.87890625,-7301.09765625,-10077.49609375,-7304.0703125,-10082.0625,-7304.40234375C-10088.95703125,-7304.91015625,-10095.90625,-7304.89453125,-10102.81640625,-7305.26171875C-10108.85546875,-7305.58203125,-10112.03515625,-7304.47265625,-10116.0859375,-7310.046875C-10118.14453125,-7312.8828125,-10118.41796875,-7317.0546875,-10119.42578125,-7320.40625C-10119.0703125,-7320.46875,-10118.98046875,-7320.41796875,-10118.7265625,-7320.18359375C-10118.03125,-7319.55078125,-10117.61328125,-7316.3203125,-10117.30859375,-7315.22265625C-10117.23828125,-7314.9609375,-10117.0625,-7313.7421875,-10116.70703125,-7313.92578125C-10116.48828125,-7314.03515625,-10114.8046875,-7317.671875,-10114.2734375,-7318.4453125C-10110.1875,-7324.35546875,-10102.24609375,-7329.296875,-10095.3515625,-7329.70703125C-10090,-7330.02734375,-10081.70703125,-7327.39453125,-10076.84765625,-7329.953125C-10076.60546875,-7330.08203125,-10076.35546875,-7330.23046875,-10076.1171875,-7330.3984375C-10075.828125,-7330.609375,-10075.7109375,-7331,-10075.80859375,-7331.359375C-10075.8515625,-7331.50390625,-10075.90625,-7331.65625,-10075.98046875,-7331.81640625C-10076.1640625,-7332.21875,-10076.40625,-7332.50390625,-10076.60546875,-7332.6875C-10076.73046875,-7332.8046875,-10076.875,-7332.890625,-10077.03125,-7332.9375C-10078.953125,-7333.50390625,-10080.9296875,-7334.12890625,-10082.953125,-7334.81640625C-10084.84765625,-7335.46484375,-10086.67578125,-7336.12890625,-10088.43359375,-7336.80078125C-10088.83984375,-7336.95703125,-10089.20703125,-7337.20703125,-10089.515625,-7337.53515625C-10091.87890625,-7340.078125,-10095.9765625,-7341.02734375,-10099.18359375,-7341.38671875C-10100.12890625,-7341.48828125,-10101.2421875,-7341.234375,-10102.15625,-7341.4375C-10102.71875,-7341.5625,-10103.49609375,-7342.25390625,-10104.18359375,-7342.5078125C-10106.6640625,-7343.421875,-10110.35546875,-7342.76171875,-10112.984375,-7342.6875C-10113.1953125,-7341.1796875,-10111.27734375,-7341.0546875,-10110.3671875,-7340.62890625C-10109.203125,-7340.08203125,-10107.6484375,-7339.0859375,-10106.453125,-7338.73828125C-10105.44921875,-7338.4296875,-10103.86328125,-7338.546875,-10103.9140625,-7338.0390625C-10103.9765625,-7337.48046875,-10105.8828125,-7337.71875,-10106.33984375,-7337.80859375C-10107.54296875,-7338.05078125,-10109.80859375,-7339.6484375,-10110.63671875,-7339.64453125C-10113.4453125,-7339.62890625,-10118.5625,-7336.640625,-10121.30078125,-7335.5078125C-10127.359375,-7333,-10133.5546875,-7331.9453125,-10140.08203125,-7332.296875C-10145.7890625,-7332.6015625,-10150.23828125,-7335.1796875,-10155.68359375,-7336.5234375C-10172.2109375,-7340.6015625,-10186.3515625,-7338.1796875,-10195.7578125,-7335.04296875C-10206.46875,-7331.46875,-10209.2109375,-7328.42578125,-10214.0703125,-7326.171875C-10218.0859375,-7324.3046875,-10234.5625,-7319.82421875,-10245.7734375,-7327.98828125C-10248.89453125,-7330.26171875,-10250.8203125,-7333.18359375,-10250.98828125,-7333.4453125C-10254.26953125,-7338.5078125,-10254.390625,-7343.7578125,-10254.28515625,-7346.1484375C-10254.4375,-7345.52734375,-10254.6171875,-7344.64453125,-10254.7265625,-7343.578125C-10254.95703125,-7341.33203125,-10255.046875,-7337.16015625,-10252.90625,-7332.875C-10249.35546875,-7325.765625,-10242.16015625,-7323.33984375,-10238.92578125,-7322.25C-10238.92578125,-7322.25,-10230.38671875,-7319.37109375,-10216.91015625,-7322.17578125C-10215.5546875,-7322.45703125,-10214.24609375,-7322.796875,-10214.24609375,-7322.796875C-10213.1328125,-7323.09765625,-10211.80078125,-7323.45703125,-10210.18359375,-7324.15234375C-10209.21875,-7324.56640625,-10207.9609375,-7325.18359375,-10206.5703125,-7326.09375C-10206.55859375,-7325.3515625,-10207.02734375,-7324.96875,-10208.42578125,-7324.11328125C-10209.89453125,-7323.2421875,-10211.66015625,-7322.53125,-10212.6875,-7322.19921875C-10212.83203125,-7321.98828125,-10213.08984375,-7321.68359375,-10213.375,-7321.296875C-10214.33984375,-7319.984375,-10214.40234375,-7319.875,-10214.65234375,-7319.5C-10216.19921875,-7317.19140625,-10217.4453125,-7315.24609375,-10218.12109375,-7314.45703125C-10218.76953125,-7313.703125,-10219.875,-7312.51953125,-10221.33984375,-7311.4765625C-10224.3515625,-7309.3359375,-10227.85546875,-7308.3359375,-10231.53515625,-7308.07421875C-10232.92578125,-7307.97265625,-10234.33984375,-7307.98046875,-10235.76171875,-7308.07421875C-10236.53515625,-7308.109375,-10238.26953125,-7308.39453125,-10239.4453125,-7308.640625C-10239.78125,-7308.7109375,-10240.1328125,-7308.6875,-10240.44140625,-7308.53515625C-10242.26171875,-7307.6484375,-10245.06640625,-7303.71875,-10246.12109375,-7302.5625C-10247.12890625,-7301.45703125,-10248.23828125,-7300.1953125,-10249.375,-7298.97265625C-10250.5078125,-7297.7578125,-10250.96875,-7297.33203125,-10252.078125,-7296.39453125C-10253.49609375,-7295.19921875,-10255.61328125,-7294.265625,-10256.8203125,-7293.0546875C-10257.1171875,-7292.7578125,-10259.79296875,-7289.7421875,-10258.91796875,-7289.484375C-10258.40234375,-7289.33203125,-10256.58984375,-7289.3984375,-10255.8984375,-7289.484375C-10253.95703125,-7289.71875,-10249.87109375,-7294.7578125,-10248.34765625,-7296.296875C-10245.0625,-7299.6171875,-10240.87890625,-7303.80078125,-10236.15234375,-7304.18359375C-10233.171875,-7304.4296875,-10230.234375,-7303.23046875,-10227.29296875,-7302.89453125C-10224.02734375,-7302.51953125,-10219.0390625,-7302.234375,-10215.8046875,-7302.44921875C-10206.37890625,-7303.07421875,-10198.71875,-7313.99609375,-10191.35546875,-7319.55078125C-10184.29296875,-7324.8828125,-10172.6328125,-7322.5,-10165.44921875,-7315.44140625C-10160.77734375,-7310.85546875,-10156.390625,-7306.12890625,-10150.51953125,-7303.140625C-10144.84765625,-7300.25390625,-10139.16796875,-7300.19140625,-10133.0234375,-7300.73046875C-10130.40234375,-7300.96484375,-10127.796875,-7301.6171875,-10125.1640625,-7301.83203125C-10124.25390625,-7301.75,-10123.75390625,-7300.125,-10122.9609375,-7299.63671875C-10122.3203125,-7299.23828125,-10117.625,-7299.40234375,-10116.49609375,-7299.421875C-10114.19140625,-7299.46484375,-10111.8828125,-7299.5390625,-10109.5703125,-7299.6328125C-10105.21484375,-7299.80078125,-10100.84765625,-7300.03125,-10096.48828125,-7300.2265625L-10096.46875,-7300.2265625C-10093.8828125,-7300.34375,-10091.296875,-7300.44921875,-10088.71484375,-7300.5234375C-10083.27734375,-7300.671875,-10078.3046875,-7301.33984375,-10073.19140625,-7299.0078125C-10070.625,-7297.8359375,-10067.87109375,-7295.00390625,-10065.13671875,-7294.93359375C-10064.60546875,-7294.921875,-10063.91015625,-7295.0703125,-10063.41796875,-7295.25C-10063.29296875,-7295.29296875,-10063.24609375,-7295.52734375,-10063.26953125,-7295.640625C-10063.51953125,-7296.92578125,-10064.73828125,-7298.14453125,-10065.78125,-7298.7421875" style="stroke:none;word-spacing:0px;text-decoration-color:initial;text-decoration-thickness:initial;color:rgb(0, 0, 0);fill-rule:nonzero;-webkit-text-stroke-width:0px;text-transform:none;fill:rgb(83.099365%,83.099365%,83.099365%);font-variant-caps:normal;fill-opacity:1;text-indent:0px;orphans:2;widows:2;font-variant-ligatures:normal;letter-spacing:normal;font-style:normal;font-weight:400;white-space:normal;text-align:start;font-size:medium;text-decoration-style:initial"></path>
    </g>
  </g>
</svg>