<svg width="195.832" xmlns="http://www.w3.org/2000/svg" height="60.732" id="screenshot-6245d1d9-49d6-8069-8006-88f9cfd3b984" viewBox="-9367.933 -6930.027 195.832 60.732" style="-webkit-print-color-adjust::exact" xmlns:xlink="http://www.w3.org/1999/xlink" fill="none" version="1.1">
  <g id="shape-6245d1d9-49d6-8069-8006-88f9cfd3b984" rx="0" ry="0">
    <defs></defs>
    <g id="shape-6245d1d9-49d6-8069-8006-88f97f321136">
      <defs></defs>
      <g class="fills" id="fills-6245d1d9-49d6-8069-8006-88f97f321136">
        <path d="M-9212.87890625,-6923.58984375C-9213.07421875,-6923.96484375,-9213.0234375,-6924.10546875,-9213.1328125,-6924.30078125C-9213.3515625,-6924.6953125,-9213.83203125,-6924.609375,-9214.6015625,-6924.83984375C-9215.203125,-6925.0234375,-9216.0078125,-6925.40234375,-9215.9765625,-6925.58984375C-9215.9375,-6925.828125,-9214.51171875,-6925.98828125,-9213.3125,-6925.30859375C-9213.109375,-6925.1953125,-9212.046875,-6924.58984375,-9212.07421875,-6923.80078125C-9212.08203125,-6923.48828125,-9212.265625,-6923.12109375,-9212.453125,-6923.109375C-9212.62109375,-6923.1015625,-9212.765625,-6923.37890625,-9212.87890625,-6923.58984375M-9201.875,-6921.23828125C-9201.359375,-6921.5703125,-9199.33203125,-6922.1171875,-9199.3515625,-6920.66796875C-9199.3515625,-6920.66796875,-9199.3671875,-6920.5234375,-9199.421875,-6920.3984375C-9199.57421875,-6920.0703125,-9201.38671875,-6920.046875,-9201.83984375,-6920.21484375C-9201.9375,-6920.25,-9202.0859375,-6920.4140625,-9202.1171875,-6920.640625C-9202.16015625,-6920.94921875,-9202.015625,-6921.140625,-9201.875,-6921.23828125M-9174.62109375,-6882.625C-9178.71875,-6884.9765625,-9186.3359375,-6887.94921875,-9190.90234375,-6888.28515625C-9197.796875,-6888.7890625,-9204.74609375,-6888.77734375,-9211.65625,-6889.140625C-9217.6953125,-6889.4609375,-9220.875,-6888.3515625,-9224.92578125,-6893.92578125C-9226.98046875,-6896.76171875,-9227.2578125,-6900.93359375,-9228.26171875,-6904.2890625C-9227.91015625,-6904.3515625,-9227.8203125,-6904.296875,-9227.56640625,-6904.06640625C-9226.87109375,-6903.4296875,-9226.453125,-6900.203125,-9226.1484375,-6899.1015625C-9226.078125,-6898.84375,-9225.90234375,-6897.62109375,-9225.546875,-6897.8046875C-9225.328125,-6897.91796875,-9223.64453125,-6901.55078125,-9223.11328125,-6902.32421875C-9219.02734375,-6908.234375,-9211.0859375,-6913.17578125,-9204.19140625,-6913.58984375C-9198.83984375,-6913.91015625,-9190.546875,-6911.2734375,-9185.6875,-6913.83203125C-9185.4453125,-6913.9609375,-9185.1953125,-6914.11328125,-9184.95703125,-6914.28125C-9184.66796875,-6914.48828125,-9184.55078125,-6914.87890625,-9184.6484375,-6915.23828125C-9184.6875,-6915.3828125,-9184.74609375,-6915.5390625,-9184.8203125,-6915.69921875C-9185.00390625,-6916.09765625,-9185.24609375,-6916.3828125,-9185.4453125,-6916.5703125C-9185.5703125,-6916.6875,-9185.71484375,-6916.76953125,-9185.87109375,-6916.81640625C-9187.79296875,-6917.3828125,-9189.765625,-6918.0078125,-9191.79296875,-6918.69921875C-9193.6875,-6919.34375,-9195.51171875,-6920.0078125,-9197.26953125,-6920.68359375C-9197.6796875,-6920.83984375,-9198.046875,-6921.08984375,-9198.3515625,-6921.41796875C-9200.71875,-6923.95703125,-9204.81640625,-6924.91015625,-9208.0234375,-6925.265625C-9208.96875,-6925.37109375,-9210.08203125,-6925.1171875,-9210.99609375,-6925.3203125C-9211.55859375,-6925.44140625,-9212.3359375,-6926.1328125,-9213.01953125,-6926.38671875C-9215.50390625,-6927.3046875,-9219.1953125,-6926.640625,-9221.82421875,-6926.56640625C-9222.03515625,-6925.0625,-9220.1171875,-6924.93359375,-9219.20703125,-6924.5078125C-9218.04296875,-6923.9609375,-9216.48828125,-6922.96484375,-9215.29296875,-6922.62109375C-9214.2890625,-6922.3125,-9212.703125,-6922.42578125,-9212.75390625,-6921.91796875C-9212.8125,-6921.359375,-9214.72265625,-6921.59765625,-9215.1796875,-6921.69140625C-9216.3828125,-6921.9296875,-9218.6484375,-6923.52734375,-9219.4765625,-6923.5234375C-9222.28515625,-6923.51171875,-9227.40234375,-6920.5234375,-9230.140625,-6919.38671875C-9236.19921875,-6916.87890625,-9242.39453125,-6915.82421875,-9248.921875,-6916.17578125C-9254.62890625,-6916.484375,-9259.078125,-6919.05859375,-9264.5234375,-6920.40625C-9281.05078125,-6924.484375,-9295.19140625,-6922.05859375,-9304.59765625,-6918.921875C-9315.3046875,-6915.34765625,-9318.05078125,-6912.3046875,-9322.91015625,-6910.05078125C-9326.92578125,-6908.18359375,-9343.3984375,-6903.703125,-9354.61328125,-6911.8671875C-9357.734375,-6914.140625,-9359.66015625,-6917.0625,-9359.828125,-6917.32421875C-9363.109375,-6922.390625,-9363.2265625,-6927.640625,-9363.125,-6930.02734375C-9363.27734375,-6929.41015625,-9363.45703125,-6928.52734375,-9363.56640625,-6927.4609375C-9363.796875,-6925.2109375,-9363.88671875,-6921.04296875,-9361.74609375,-6916.7578125C-9358.1953125,-6909.64453125,-9351,-6907.21875,-9347.765625,-6906.12890625C-9347.765625,-6906.12890625,-9339.2265625,-6903.25,-9325.75,-6906.0546875C-9324.39453125,-6906.3359375,-9323.0859375,-6906.67578125,-9323.0859375,-6906.67578125C-9321.97265625,-6906.9765625,-9320.63671875,-6907.33984375,-9319.0234375,-6908.03515625C-9318.05859375,-6908.44921875,-9316.80078125,-6909.06640625,-9315.41015625,-6909.97265625C-9315.39453125,-6909.234375,-9315.8671875,-6908.84765625,-9317.26171875,-6907.9921875C-9318.734375,-6907.125,-9320.5,-6906.4140625,-9321.52734375,-6906.078125C-9321.671875,-6905.87109375,-9321.92578125,-6905.5625,-9322.2109375,-6905.17578125C-9323.1796875,-6903.8671875,-9323.2421875,-6903.75390625,-9323.4921875,-6903.37890625C-9325.0390625,-6901.0703125,-9326.28515625,-6899.125,-9326.9609375,-6898.3359375C-9327.609375,-6897.58203125,-9328.71484375,-6896.40234375,-9330.1796875,-6895.35546875C-9333.19140625,-6893.21484375,-9336.6953125,-6892.21484375,-9340.375,-6891.953125C-9341.765625,-6891.85546875,-9343.1796875,-6891.86328125,-9344.6015625,-6891.953125C-9345.375,-6891.9921875,-9347.109375,-6892.27734375,-9348.28515625,-6892.5234375C-9348.62109375,-6892.58984375,-9348.97265625,-6892.56640625,-9349.28125,-6892.41796875C-9351.1015625,-6891.52734375,-9353.90625,-6887.59765625,-9354.9609375,-6886.44140625C-9355.96875,-6885.33984375,-9357.078125,-6884.07421875,-9358.21484375,-6882.8515625C-9359.34375,-6881.63671875,-9359.8046875,-6881.2109375,-9360.91796875,-6880.27734375C-9362.3359375,-6879.078125,-9364.453125,-6878.14453125,-9365.66015625,-6876.93359375C-9365.95703125,-6876.63671875,-9368.6328125,-6873.625,-9367.7578125,-6873.36328125C-9367.2421875,-6873.2109375,-9365.4296875,-6873.28125,-9364.73828125,-6873.36328125C-9362.796875,-6873.59765625,-9358.7109375,-6878.63671875,-9357.1875,-6880.1796875C-9353.90234375,-6883.5,-9349.71875,-6887.6796875,-9344.9921875,-6888.06640625C-9342.0078125,-6888.30859375,-9339.07421875,-6887.11328125,-9336.1328125,-6886.7734375C-9332.8671875,-6886.40234375,-9327.87890625,-6886.1171875,-9324.640625,-6886.328125C-9315.21875,-6886.953125,-9307.5546875,-6897.87890625,-9300.1953125,-6903.43359375C-9293.1328125,-6908.76171875,-9281.47265625,-6906.3828125,-9274.2890625,-6899.32421875C-9269.6171875,-6894.734375,-9265.23046875,-6890.0078125,-9259.35546875,-6887.01953125C-9253.6875,-6884.1328125,-9248.0078125,-6884.0703125,-9241.86328125,-6884.61328125C-9239.2421875,-6884.84375,-9236.63671875,-6885.49609375,-9234.00390625,-6885.7109375C-9233.09375,-6885.62890625,-9232.59375,-6884.0078125,-9231.80078125,-6883.515625C-9231.16015625,-6883.12109375,-9226.46484375,-6883.28125,-9225.3359375,-6883.3046875C-9223.03125,-6883.34765625,-9220.72265625,-6883.421875,-9218.41015625,-6883.51171875C-9214.05078125,-6883.68359375,-9209.68359375,-6883.9140625,-9205.328125,-6884.109375L-9205.30859375,-6884.109375C-9202.71875,-6884.22265625,-9200.13671875,-6884.33203125,-9197.5546875,-6884.40234375C-9192.1171875,-6884.5546875,-9187.14453125,-6885.21875,-9182.03125,-6882.88671875C-9179.46484375,-6881.71484375,-9176.7109375,-6878.88671875,-9173.9765625,-6878.81640625C-9173.4453125,-6878.80078125,-9172.75,-6878.953125,-9172.2578125,-6879.12890625C-9172.1328125,-6879.171875,-9172.0859375,-6879.41015625,-9172.10546875,-6879.5234375C-9172.35546875,-6880.80859375,-9173.578125,-6882.02734375,-9174.62109375,-6882.625" style="stroke:none;word-spacing:0px;text-decoration-color:initial;text-decoration-thickness:initial;color:rgb(0, 0, 0);fill-rule:nonzero;-webkit-text-stroke-width:0px;text-transform:none;fill:rgb(100%,100%,100%);font-variant-caps:normal;fill-opacity:1;text-indent:0px;orphans:2;widows:2;font-variant-ligatures:normal;letter-spacing:normal;font-style:normal;font-weight:400;white-space:normal;text-align:start;font-size:medium;text-decoration-style:initial"></path>
      </g>
    </g>
    <g id="shape-6245d1d9-49d6-8069-8006-88f97f321137">
      <defs></defs>
      <g class="fills" id="fills-6245d1d9-49d6-8069-8006-88f97f321137">
        <path d="M-9322.6875,-6905.88671875C-9323.55078125,-6904.84765625,-9324.78125,-6903.01953125,-9325.5859375,-6901.76171875C-9326.296875,-6900.65234375,-9327.07421875,-6899.63671875,-9327.6796875,-6898.9140625C-9330.73828125,-6895.27734375,-9335.08203125,-6893.40625,-9340.54296875,-6893.03515625C-9341.15625,-6892.9921875,-9341.78515625,-6892.96484375,-9342.4296875,-6892.96484375C-9343.109375,-6892.96484375,-9343.82421875,-6892.98828125,-9344.54296875,-6893.03515625C-9344.73046875,-6893.046875,-9344.9375,-6893.07421875,-9345.1484375,-6893.10546875C-9345.515625,-6893.1640625,-9345.91015625,-6893.25,-9346.29296875,-6893.33203125C-9347.08984375,-6893.50390625,-9347.9140625,-6893.69921875,-9348.65234375,-6893.6796875C-9349.98046875,-6893.640625,-9352.265625,-6891.41796875,-9354.64453125,-6888.45703125C-9355.0703125,-6887.92578125,-9355.4375,-6887.46484375,-9355.6796875,-6887.19921875C-9356.08203125,-6886.765625,-9356.4921875,-6886.3046875,-9356.91796875,-6885.83203125C-9357.28125,-6885.421875,-9357.6640625,-6885,-9358.046875,-6884.578125C-9358.9296875,-6883.60546875,-9359.93359375,-6882.765625,-9361.05859375,-6882.15625C-9361.37109375,-6881.98828125,-9361.69140625,-6881.83203125,-9362.0234375,-6881.6953125C-9363.36328125,-6881.1328125,-9364.70703125,-6880.80859375,-9366.109375,-6881.0390625C-9367.58984375,-6881.28515625,-9366.6171875,-6882.33203125,-9366.203125,-6882.88671875C-9364.55078125,-6885.1015625,-9361.2578125,-6886.5234375,-9359.01171875,-6888.41015625C-9355.77734375,-6891.125,-9352.84375,-6894.88671875,-9350.140625,-6897.4609375C-9349.9921875,-6897.6015625,-9349.82421875,-6897.7265625,-9349.63671875,-6897.81640625C-9348.91796875,-6898.16796875,-9348.7265625,-6897.890625,-9347.5625,-6897.484375C-9340.4375,-6894.98046875,-9334.82421875,-6895.453125,-9329.078125,-6900.82421875C-9328.23046875,-6901.6171875,-9325.7265625,-6904.7265625,-9324.94140625,-6905.375C-9324.2265625,-6905.52734375,-9323.3984375,-6905.70703125,-9322.6875,-6905.88671875" style="stroke:none;word-spacing:0px;text-decoration-color:initial;text-decoration-thickness:initial;color:rgb(0, 0, 0);fill-rule:nonzero;-webkit-text-stroke-width:0px;text-transform:none;fill:rgb(100%,100%,100%);font-variant-caps:normal;fill-opacity:1;text-indent:0px;orphans:2;widows:2;font-variant-ligatures:normal;letter-spacing:normal;font-style:normal;font-weight:400;white-space:normal;text-align:start;font-size:medium;text-decoration-style:initial"></path>
      </g>
    </g>
    <g id="shape-6245d1d9-49d6-8069-8006-88f97f321138">
      <defs></defs>
      <g class="fills" id="fills-6245d1d9-49d6-8069-8006-88f97f321138">
        <path d="M-9176.90234375,-6869.79296875C-9176.91796875,-6869.52734375,-9177.96484375,-6869.3046875,-9178.20703125,-6869.296875C-9182.234375,-6869.19921875,-9185.0546875,-6873.0859375,-9188.44921875,-6874.9140625C-9189.58203125,-6875.5234375,-9190.79296875,-6875.92578125,-9192.0078125,-6876.28515625C-9199.81640625,-6878.59375,-9207.8046875,-6879.78125,-9215.69921875,-6881.91015625C-9216.13671875,-6882.02734375,-9216.80078125,-6882.19921875,-9217.65234375,-6882.4609375C-9215.109375,-6882.5625,-9212.578125,-6882.68359375,-9210.0859375,-6882.8046875C-9208.51171875,-6882.87890625,-9206.91796875,-6882.95703125,-9205.3125,-6883.02734375C-9202.50390625,-6883.02734375,-9200.10546875,-6882.734375,-9196.39453125,-6881.51953125C-9191.41015625,-6879.890625,-9180.93359375,-6875.40234375,-9177.7109375,-6871.08984375C-9177.40625,-6870.68359375,-9176.89453125,-6870.02734375,-9176.90234375,-6869.79296875" style="stroke:none;word-spacing:0px;text-decoration-color:initial;text-decoration-thickness:initial;color:rgb(0, 0, 0);fill-rule:nonzero;-webkit-text-stroke-width:0px;text-transform:none;fill:rgb(100%,100%,100%);font-variant-caps:normal;fill-opacity:1;text-indent:0px;orphans:2;widows:2;font-variant-ligatures:normal;letter-spacing:normal;font-style:normal;font-weight:400;white-space:normal;text-align:start;font-size:medium;text-decoration-style:initial"></path>
      </g>
    </g>
  </g>
</svg>