<svg width="944" xmlns="http://www.w3.org/2000/svg" height="293" id="screenshot-6245d1d9-49d6-8069-8006-88f3f704786d" viewBox="-5047 -2528 944 293" style="-webkit-print-color-adjust::exact" xmlns:xlink="http://www.w3.org/1999/xlink" fill="none" version="1.1">
  <g id="shape-6245d1d9-49d6-8069-8006-88f3f704786d" rx="0" ry="0">
    <defs></defs>
    <g id="shape-6245d1d9-49d6-8069-8006-88f3d83aabdb">
      <defs></defs>
      <g class="fills" id="fills-6245d1d9-49d6-8069-8006-88f3d83aabdb">
        <path d="M-4299.5556640625,-2496.93701171875C-4300.50146484375,-2498.742431640625,-4300.255859375,-2499.4208984375,-4300.791015625,-2500.36181640625C-4301.8515625,-2502.254638671875,-4304.158203125,-2501.849853515625,-4307.8701171875,-2502.9658203125C-4310.76171875,-2503.8466796875,-4314.6484375,-2505.679443359375,-4314.4951171875,-2506.57666015625C-4314.298828125,-2507.725341796875,-4307.421875,-2508.5078125,-4301.6552734375,-2505.230712890625C-4300.66552734375,-2504.667236328125,-4295.548828125,-2501.767822265625,-4295.6748046875,-2497.94921875C-4295.72412109375,-2496.433837890625,-4296.609375,-2494.672119140625,-4297.51171875,-2494.623046875C-4298.3154296875,-2494.5791015625,-4299.0146484375,-2495.9140625,-4299.5556640625,-2496.93701171875M-4246.5107421875,-2485.5908203125C-4244.029296875,-2487.182861328125,-4234.2607421875,-2489.83056640625,-4234.359375,-2482.8388671875C-4234.359375,-2482.8388671875,-4234.4248046875,-2482.13330078125,-4234.6982421875,-2481.536865234375C-4235.41455078125,-2479.950439453125,-4244.166015625,-2479.846435546875,-4246.34716796875,-2480.645263671875C-4246.8115234375,-2480.8203125,-4247.533203125,-2481.618896484375,-4247.6806640625,-2482.7021484375C-4247.8828125,-2484.184814453125,-4247.1943359375,-2485.13134765625,-4246.5107421875,-2485.5908203125M-4115.13427734375,-2299.301025390625C-4134.8837890625,-2310.652587890625,-4171.6064453125,-2324.986083984375,-4193.625,-2326.60546875C-4226.859375,-2329.04541015625,-4260.357421875,-2328.97412109375,-4293.6630859375,-2330.746826171875C-4322.78759765625,-2332.28955078125,-4338.0986328125,-2326.92822265625,-4357.6240234375,-2353.827880859375C-4367.55078125,-2367.504638671875,-4368.87939453125,-2387.631591796875,-4373.72265625,-2403.81396484375C-4372.0224609375,-2404.120361328125,-4371.5908203125,-2403.85791015625,-4370.3662109375,-2402.74169921875C-4367.015625,-2399.672607421875,-4364.9931640625,-2384.10302734375,-4363.52783203125,-2378.79638671875C-4363.177734375,-2377.54345703125,-4362.341796875,-2371.656982421875,-4360.63623046875,-2372.5322265625C-4359.57568359375,-2373.079345703125,-4351.4580078125,-2390.61865234375,-4348.8837890625,-2394.338623046875C-4329.1943359375,-2422.857666015625,-4290.9140625,-2446.69921875,-4257.689453125,-2448.6796875C-4231.8779296875,-2450.227783203125,-4191.9140625,-2437.513916015625,-4168.4794921875,-2449.861328125C-4167.3154296875,-2450.47412109375,-4166.107421875,-2451.20703125,-4164.970703125,-2452.022216796875C-4163.576171875,-2453.0234375,-4162.9970703125,-2454.916259765625,-4163.47802734375,-2456.64501953125C-4163.6748046875,-2457.34521484375,-4163.9375,-2458.08935546875,-4164.2978515625,-2458.8662109375C-4165.1943359375,-2460.79736328125,-4166.3642578125,-2462.1650390625,-4167.32080078125,-2463.067626953125C-4167.9169921875,-2463.625732421875,-4168.61083984375,-2464.030517578125,-4169.3759765625,-2464.2548828125C-4178.630859375,-2466.990234375,-4188.15283203125,-2470.010009765625,-4197.9208984375,-2473.336181640625C-4207.0498046875,-2476.44921875,-4215.8564453125,-2479.655029296875,-4224.3232421875,-2482.904541015625C-4226.291015625,-2483.65966796875,-4228.06787109375,-2484.86328125,-4229.5439453125,-2486.455078125C-4240.935546875,-2498.709716796875,-4260.701171875,-2503.299560546875,-4276.15478515625,-2505.02294921875C-4280.7138671875,-2505.520751953125,-4286.08154296875,-2504.295166015625,-4290.4873046875,-2505.2744140625C-4293.1875,-2505.865478515625,-4296.9375,-2509.2080078125,-4300.25,-2510.427978515625C-4312.21044921875,-2514.853759765625,-4329.998046875,-2511.658935546875,-4342.673828125,-2511.292236328125C-4343.6904296875,-2504.03271484375,-4334.4580078125,-2503.42529296875,-4330.0576171875,-2501.363037109375C-4324.44384765625,-2498.7314453125,-4316.9609375,-2493.917236328125,-4311.20458984375,-2492.254150390625C-4306.3671875,-2490.76611328125,-4298.708984375,-2491.32421875,-4298.9658203125,-2488.873291015625C-4299.25,-2486.176025390625,-4308.455078125,-2487.33056640625,-4310.658203125,-2487.7626953125C-4316.44677734375,-2488.92236328125,-4327.3681640625,-2496.63623046875,-4331.36962890625,-2496.6142578125C-4344.8935546875,-2496.548583984375,-4369.568359375,-2482.13330078125,-4382.7744140625,-2476.66259765625C-4411.97021484375,-2464.561279296875,-4441.84375,-2459.468017578125,-4473.3017578125,-2461.16943359375C-4500.8193359375,-2462.65185546875,-4522.2578125,-2475.08154296875,-4548.5068359375,-2481.56982421875C-4628.1728515625,-2501.24267578125,-4696.3427734375,-2489.55712890625,-4741.69140625,-2474.4140625C-4793.3095703125,-2457.18115234375,-4806.54345703125,-2442.497802734375,-4829.9609375,-2431.616455078125C-4849.322265625,-2422.616943359375,-4928.73681640625,-2400.99658203125,-4982.79296875,-2440.385986328125C-4997.8310546875,-2451.343994140625,-5007.1181640625,-2465.447509765625,-5007.9326171875,-2466.705810546875C-5023.74609375,-2491.1435546875,-5024.3203125,-2516.47314453125,-5023.8232421875,-2528C-5024.5556640625,-2525.001953125,-5025.4189453125,-2520.745849609375,-5025.955078125,-2515.603271484375C-5027.05908203125,-2504.76025390625,-5027.49072265625,-2484.638916015625,-5017.17578125,-2463.96484375C-5000.0556640625,-2429.663330078125,-4965.36083984375,-2417.955810546875,-4949.7822265625,-2412.7041015625C-4949.7822265625,-2412.7041015625,-4908.62109375,-2398.813720703125,-4843.64306640625,-2412.343017578125C-4837.126953125,-2413.6943359375,-4830.8193359375,-2415.33544921875,-4830.8193359375,-2415.33544921875C-4825.451171875,-2416.790771484375,-4819.01171875,-2418.5302734375,-4811.2333984375,-2421.87841796875C-4806.576171875,-2423.88623046875,-4800.51953125,-2426.8623046875,-4793.8017578125,-2431.239013671875C-4793.7412109375,-2427.671875,-4796.0205078125,-2425.82275390625,-4802.744140625,-2421.68701171875C-4809.82861328125,-2417.490966796875,-4818.35595703125,-2414.066162109375,-4823.302734375,-2412.452392578125C-4823.9970703125,-2411.451171875,-4825.22705078125,-2409.96875,-4826.6044921875,-2408.09765625C-4831.267578125,-2401.779052734375,-4831.55712890625,-2401.23193359375,-4832.76513671875,-2399.431884765625C-4840.2265625,-2388.29345703125,-4846.228515625,-2378.9111328125,-4849.49755859375,-2375.09814453125C-4852.61865234375,-2371.470947265625,-4857.9375,-2365.764892578125,-4865.0107421875,-2360.7265625C-4879.52392578125,-2350.39208984375,-4896.41455078125,-2345.5615234375,-4914.158203125,-2344.308837890625C-4920.85986328125,-2343.832763671875,-4927.67626953125,-2343.860107421875,-4934.53125,-2344.308837890625C-4938.2587890625,-2344.4892578125,-4946.611328125,-2345.862548828125,-4952.2802734375,-2347.049560546875C-4953.892578125,-2347.38330078125,-4955.603515625,-2347.268310546875,-4957.07958984375,-2346.540771484375C-4965.8583984375,-2342.25732421875,-4979.3876953125,-2323.301025390625,-4984.47119140625,-2317.71533203125C-4989.3251953125,-2312.392333984375,-4994.6767578125,-2306.298095703125,-5000.14306640625,-2300.406005859375C-5005.5986328125,-2294.530517578125,-5007.8232421875,-2292.484375,-5013.1748046875,-2287.965576171875C-5020.0126953125,-2282.19384765625,-5030.212890625,-2277.68603515625,-5036.0400390625,-2271.84326171875C-5037.466796875,-2270.415283203125,-5050.373046875,-2255.8740234375,-5046.158203125,-2254.621337890625C-5043.66015625,-2253.8828125,-5034.9248046875,-2254.216552734375,-5031.5908203125,-2254.621337890625C-5022.2431640625,-2255.753662109375,-5002.54296875,-2280.0712890625,-4995.1904296875,-2287.50048828125C-4979.365234375,-2303.513427734375,-4959.1953125,-2323.695068359375,-4936.4169921875,-2325.549560546875C-4922.03515625,-2326.731201171875,-4907.87744140625,-2320.94873046875,-4893.6982421875,-2319.32373046875C-4877.96044921875,-2317.5185546875,-4853.90869140625,-2316.139892578125,-4838.3134765625,-2317.173828125C-4792.8828125,-2320.188232421875,-4755.953125,-2372.887939453125,-4720.47119140625,-2399.68359375C-4686.421875,-2425.401611328125,-4630.21728515625,-2413.91845703125,-4595.5830078125,-2379.857666015625C-4573.07275390625,-2357.728515625,-4551.923828125,-2334.9208984375,-4523.6083984375,-2320.5C-4496.27685546875,-2306.58251953125,-4468.89599609375,-2306.281494140625,-4439.28515625,-2308.89111328125C-4426.63623046875,-2310.007080078125,-4414.080078125,-2313.158203125,-4401.3984375,-2314.186767578125C-4397.0087890625,-2313.803955078125,-4394.5927734375,-2305.9697265625,-4390.77734375,-2303.6064453125C-4387.68896484375,-2301.68603515625,-4365.0419921875,-2302.473876953125,-4359.6142578125,-2302.577880859375C-4348.49560546875,-2302.785888671875,-4337.3720703125,-2303.141357421875,-4326.2314453125,-2303.5791015625C-4305.21875,-2304.399658203125,-4284.16796875,-2305.515625,-4263.15625,-2306.45654296875L-4263.068359375,-2306.45654296875C-4250.5888671875,-2307.02001953125,-4238.130859375,-2307.534423828125,-4225.6953125,-2307.87353515625C-4199.484375,-2308.606689453125,-4175.50390625,-2311.81787109375,-4150.8564453125,-2300.564697265625C-4138.4970703125,-2294.9189453125,-4125.22509765625,-2281.25830078125,-4112.03515625,-2280.924560546875C-4109.482421875,-2280.859130859375,-4106.1201171875,-2281.586669921875,-4103.75341796875,-2282.42919921875C-4103.146484375,-2282.64794921875,-4102.9169921875,-2283.785888671875,-4103.0263671875,-2284.3330078125C-4104.22900390625,-2290.536865234375,-4110.10546875,-2296.412353515625,-4115.13427734375,-2299.301025390625" style="stroke:none;word-spacing:0px;text-decoration-color:initial;text-decoration-thickness:initial;color:rgb(0, 0, 0);fill-rule:nonzero;-webkit-text-stroke-width:0px;text-transform:none;fill:rgb(12.89978%,13.299561%,13.699341%);font-variant-caps:normal;fill-opacity:1;text-indent:0px;orphans:2;widows:2;font-variant-ligatures:normal;letter-spacing:normal;font-style:normal;font-weight:400;white-space:normal;text-align:start;font-size:medium;text-decoration-style:initial"></path>
      </g>
    </g>
    <g id="shape-6245d1d9-49d6-8069-8006-88f3d83aabdc">
      <defs></defs>
      <g class="fills" id="fills-6245d1d9-49d6-8069-8006-88f3d83aabdc">
        <path d="M-4828.8837890625,-2411.516845703125C-4833.04931640625,-2406.51123046875,-4838.9912109375,-2397.69775390625,-4842.8671875,-2391.619873046875C-4846.2998046875,-2386.269287109375,-4850.033203125,-2381.36767578125,-4852.95751953125,-2377.8828125C-4867.7060546875,-2360.33251953125,-4888.6416015625,-2351.311279296875,-4914.9560546875,-2349.516845703125C-4917.9248046875,-2349.30908203125,-4920.947265625,-2349.18310546875,-4924.05224609375,-2349.18310546875C-4927.3486328125,-2349.18310546875,-4930.7705078125,-2349.298095703125,-4934.2412109375,-2349.516845703125C-4935.154296875,-2349.58251953125,-4936.1435546875,-2349.702880859375,-4937.17138671875,-2349.87255859375C-4938.93701171875,-2350.156982421875,-4940.833984375,-2350.561767578125,-4942.6865234375,-2350.955810546875C-4946.5244140625,-2351.78173828125,-4950.498046875,-2352.728271484375,-4954.05126953125,-2352.624267578125C-4960.462890625,-2352.438232421875,-4971.4775390625,-2341.715576171875,-4982.93505859375,-2327.4423828125C-4984.99609375,-2324.87109375,-4986.7724609375,-2322.650146484375,-4987.9365234375,-2321.369873046875C-4989.86083984375,-2319.26904296875,-4991.8505859375,-2317.048095703125,-4993.8896484375,-2314.772216796875C-4995.66064453125,-2312.797119140625,-4997.486328125,-2310.767578125,-4999.33935546875,-2308.721435546875C-5003.5869140625,-2304.0439453125,-5008.4296875,-2299.973876953125,-5013.86328125,-2297.0361328125C-5015.35546875,-2296.226318359375,-5016.90234375,-2295.482421875,-5018.50390625,-2294.81494140625C-5024.9599609375,-2292.1123046875,-5031.4482421875,-2290.53125,-5038.2158203125,-2291.65283203125C-5045.34912109375,-2292.83447265625,-5040.6533203125,-2297.889404296875,-5038.6533203125,-2300.57568359375C-5030.69921875,-2311.25439453125,-5014.814453125,-2318.120361328125,-5003.98583984375,-2327.212646484375C-4988.39599609375,-2340.30419921875,-4974.2548828125,-2358.461669921875,-4961.2392578125,-2370.869140625C-4960.5126953125,-2371.56396484375,-4959.703125,-2372.160400390625,-4958.8017578125,-2372.597900390625C-4955.34130859375,-2374.2939453125,-4954.41748046875,-2372.95361328125,-4948.8037109375,-2370.989501953125C-4914.4482421875,-2358.91015625,-4887.3955078125,-2361.180419921875,-4859.6923828125,-2387.100830078125C-4855.60888671875,-2390.930419921875,-4843.544921875,-2405.936767578125,-4839.76171875,-2409.049560546875C-4836.3017578125,-2409.7880859375,-4832.3115234375,-2410.652587890625,-4828.8837890625,-2411.516845703125" style="stroke:none;word-spacing:0px;text-decoration-color:initial;text-decoration-thickness:initial;color:rgb(0, 0, 0);fill-rule:nonzero;-webkit-text-stroke-width:0px;text-transform:none;fill:rgb(12.89978%,13.299561%,13.699341%);font-variant-caps:normal;fill-opacity:1;text-indent:0px;orphans:2;widows:2;font-variant-ligatures:normal;letter-spacing:normal;font-style:normal;font-weight:400;white-space:normal;text-align:start;font-size:medium;text-decoration-style:initial"></path>
      </g>
    </g>
    <g id="shape-6245d1d9-49d6-8069-8006-88f3d83aabdd">
      <defs></defs>
      <g class="fills" id="fills-6245d1d9-49d6-8069-8006-88f3d83aabdd">
        <path d="M-4126.1435546875,-2237.39404296875C-4126.203125,-2236.11376953125,-4131.25439453125,-2235.0361328125,-4132.4296875,-2235.0087890625C-4151.845703125,-2234.538330078125,-4165.43505859375,-2253.286376953125,-4181.7958984375,-2262.105224609375C-4187.2509765625,-2265.043212890625,-4193.0888671875,-2266.985107421875,-4198.943359375,-2268.719482421875C-4236.58984375,-2279.86328125,-4275.09423828125,-2285.57470703125,-4313.15625,-2295.854248046875C-4315.271484375,-2296.4287109375,-4318.474609375,-2297.249267578125,-4322.5693359375,-2298.507568359375C-4310.3193359375,-2299,-4298.1015625,-2299.5908203125,-4286.103515625,-2300.165283203125C-4278.51611328125,-2300.53173828125,-4270.8251953125,-2300.8984375,-4263.095703125,-2301.237548828125C-4249.55029296875,-2301.237548828125,-4237.99462890625,-2299.83154296875,-4220.103515625,-2293.977783203125C-4196.0791015625,-2286.11083984375,-4145.576171875,-2264.463134765625,-4130.02978515625,-2243.64697265625C-4128.576171875,-2241.68310546875,-4126.099609375,-2238.52099609375,-4126.1435546875,-2237.39404296875" style="stroke:none;word-spacing:0px;text-decoration-color:initial;text-decoration-thickness:initial;color:rgb(0, 0, 0);fill-rule:nonzero;-webkit-text-stroke-width:0px;text-transform:none;fill:rgb(12.89978%,13.299561%,13.699341%);font-variant-caps:normal;fill-opacity:1;text-indent:0px;orphans:2;widows:2;font-variant-ligatures:normal;letter-spacing:normal;font-style:normal;font-weight:400;white-space:normal;text-align:start;font-size:medium;text-decoration-style:initial"></path>
      </g>
    </g>
  </g>
</svg>