<svg width="192.523" xmlns="http://www.w3.org/2000/svg" height="169.254" id="screenshot-6245d1d9-49d6-8069-8006-88f59e0ddaee" viewBox="-6024.957 -715.578 192.523 169.254" style="-webkit-print-color-adjust::exact" xmlns:xlink="http://www.w3.org/1999/xlink" fill="none" version="1.1">
  <g id="shape-6245d1d9-49d6-8069-8006-88f59e0ddaee" rx="0" ry="0">
    <defs></defs>
    <g id="shape-6245d1d9-49d6-8069-8006-88f550a5bef1">
      <defs></defs>
      <g class="fills" id="fills-6245d1d9-49d6-8069-8006-88f550a5bef1">
        <path d="M-5843.45703125,-704.55859375C-5847.05078125,-707.984375,-5851.1328125,-710.6796875,-5855.703125,-712.640625C-5860.27734375,-714.6015625,-5865.09765625,-715.578125,-5870.15625,-715.578125L-5986.9921875,-715.578125C-5992.21875,-715.578125,-5997.12109375,-714.6015625,-6001.6875,-712.640625C-6006.26171875,-710.6796875,-6010.26171875,-707.984375,-6013.69140625,-704.55859375C-6017.12109375,-701.12890625,-6019.8125,-697.125,-6021.7734375,-692.5546875C-6023.73046875,-687.98046875,-6024.7109375,-683.1640625,-6024.7109375,-678.10546875L-6024.7109375,-655.4453125C-6024.7109375,-647.36328125,-6024.75390625,-639.1953125,-6024.8359375,-630.953125C-6024.91796875,-622.703125,-6024.95703125,-614.54296875,-6024.95703125,-606.45703125L-6024.95703125,-583.80078125C-6024.95703125,-578.90234375,-6024.01953125,-574.1640625,-6022.140625,-569.59375C-6020.265625,-565.0234375,-6017.52734375,-560.9375,-6013.93359375,-557.34765625C-6010.34375,-553.75390625,-6006.26171875,-551.01953125,-6001.6875,-549.14453125C-5997.12109375,-547.265625,-5992.37890625,-546.32421875,-5987.48046875,-546.32421875L-5870.15625,-546.32421875C-5859.70703125,-546.32421875,-5850.8046875,-550,-5843.45703125,-557.34765625C-5839.8671875,-560.77734375,-5837.12890625,-564.77734375,-5835.25390625,-569.3515625C-5833.375,-573.91796875,-5832.43359375,-578.73828125,-5832.43359375,-583.80078125L-5832.43359375,-677.859375C-5832.43359375,-688.30859375,-5836.109375,-697.2109375,-5843.45703125,-704.55859375" style="stroke:none;word-spacing:0px;text-decoration-color:initial;text-decoration-thickness:initial;color:rgb(0, 0, 0);fill-rule:nonzero;-webkit-text-stroke-width:0px;text-transform:none;fill:rgb(12.89978%,13.299561%,13.699341%);font-variant-caps:normal;fill-opacity:1;text-indent:0px;orphans:2;widows:2;font-variant-ligatures:normal;letter-spacing:normal;font-style:normal;font-weight:400;white-space:normal;text-align:start;font-size:medium;text-decoration-style:initial"></path>
      </g>
    </g>
    <g id="shape-6245d1d9-49d6-8069-8006-88f550a614bb">
      <defs></defs>
      <g class="fills" id="fills-6245d1d9-49d6-8069-8006-88f550a614bb">
        <path d="M-5874.95703125,-613.125C-5874.12109375,-612.875,-5873.28515625,-612.59765625,-5872.5078125,-612.1796875C-5870.16796875,-610.921875,-5868.2265625,-608.2421875,-5865.453125,-608.30859375C-5865.28515625,-608.31640625,-5864.56640625,-608.46875,-5864.5546875,-608.65234375C-5864.55078125,-608.8125,-5864.90234375,-609.265625,-5865.109375,-609.54296875C-5867.33203125,-612.515625,-5874.546875,-615.60546875,-5877.98046875,-616.73046875C-5878.42578125,-616.875,-5878.83984375,-617,-5879.234375,-617.109375L-5879.2421875,-617.109375C-5879.8203125,-617.26953125,-5880.35546875,-617.39453125,-5880.86328125,-617.48828125L-5885.0703125,-618.46875C-5884.7578125,-618.48046875,-5884.4453125,-618.49609375,-5884.1328125,-618.51171875L-5884.1171875,-618.51171875C-5882.3359375,-618.58984375,-5880.5546875,-618.6640625,-5878.77734375,-618.71484375C-5875.03515625,-618.81640625,-5871.609375,-619.27734375,-5868.0859375,-617.66796875C-5866.3203125,-616.86328125,-5864.42578125,-614.9140625,-5862.5390625,-614.8671875C-5862.17578125,-614.85546875,-5861.6953125,-614.9609375,-5861.35546875,-615.08203125C-5861.26953125,-615.11328125,-5861.23828125,-615.2734375,-5861.25390625,-615.3515625C-5861.42578125,-616.23828125,-5862.265625,-617.078125,-5862.984375,-617.48828125C-5865.8046875,-619.109375,-5871.05078125,-621.15625,-5874.1953125,-621.38671875C-5878.9453125,-621.734375,-5883.73046875,-621.7265625,-5888.48828125,-621.9765625C-5892.65234375,-622.19921875,-5894.83984375,-621.43359375,-5897.62890625,-625.2734375C-5898,-625.78125,-5898.28515625,-626.35546875,-5898.51953125,-626.96875L-5897.78515625,-628.3828125C-5897.6796875,-628.58203125,-5897.55078125,-628.83203125,-5897.4140625,-629.1015625L-5896.5703125,-630.73828125C-5896.49609375,-630.875,-5896.4296875,-630.984375,-5896.37890625,-631.0546875C-5893.56640625,-635.12890625,-5888.09765625,-638.53125,-5883.3515625,-638.8125C-5879.6640625,-639.03515625,-5873.953125,-637.21875,-5870.60546875,-638.98046875C-5870.4375,-639.0703125,-5870.265625,-639.17578125,-5870.1015625,-639.29296875C-5869.90234375,-639.43359375,-5869.8203125,-639.703125,-5869.890625,-639.94921875C-5869.91796875,-640.05078125,-5869.95703125,-640.15625,-5870.0078125,-640.26953125C-5870.13671875,-640.54296875,-5870.30078125,-640.73828125,-5870.4375,-640.8671875C-5870.5234375,-640.9453125,-5870.62109375,-641.00390625,-5870.73046875,-641.03515625C-5872.0546875,-641.42578125,-5873.4140625,-641.859375,-5874.8125,-642.33203125C-5876.11328125,-642.77734375,-5877.37109375,-643.234375,-5878.58203125,-643.69921875C-5878.86328125,-643.80859375,-5879.1171875,-643.98046875,-5879.328125,-644.20703125C-5880.95703125,-645.95703125,-5883.78125,-646.609375,-5885.98828125,-646.85546875C-5886.640625,-646.9296875,-5887.40625,-646.75390625,-5888.03515625,-646.89453125C-5888.421875,-646.9765625,-5888.95703125,-647.453125,-5889.4296875,-647.62890625C-5891.140625,-648.26171875,-5893.6796875,-647.8046875,-5895.4921875,-647.75390625C-5895.63671875,-646.71484375,-5894.31640625,-646.62890625,-5893.69140625,-646.3359375C-5893.42578125,-646.2109375,-5893.12890625,-646.05078125,-5892.82421875,-645.88671875L-5894.15234375,-645.63671875C-5894.4375,-645.61328125,-5894.75,-645.5546875,-5895.0859375,-645.46484375L-5895.09375,-645.4609375L-5895.08984375,-645.4609375C-5897.05859375,-644.9296875,-5899.68359375,-643.4453125,-5901.22265625,-642.80859375C-5905.39453125,-641.08203125,-5909.66015625,-640.35546875,-5914.15625,-640.59765625C-5918.0859375,-640.80859375,-5921.1484375,-642.58203125,-5924.8984375,-643.5078125C-5936.28125,-646.31640625,-5946.0234375,-644.6484375,-5952.5,-642.48828125C-5959.875,-640.02734375,-5961.765625,-637.9296875,-5965.11328125,-636.37890625C-5967.87890625,-635.09375,-5979.22265625,-632.0078125,-5986.9453125,-637.62890625C-5989.09765625,-639.1953125,-5990.421875,-641.20703125,-5990.5390625,-641.38671875C-5992.80078125,-644.875,-5992.8828125,-648.4921875,-5992.80859375,-650.13671875C-5992.9140625,-649.7109375,-5993.0390625,-649.1015625,-5993.11328125,-648.3671875C-5993.2734375,-646.8203125,-5993.3359375,-643.9453125,-5991.859375,-640.99609375C-5989.4140625,-636.09765625,-5984.45703125,-634.4296875,-5982.23046875,-633.67578125C-5982.23046875,-633.67578125,-5976.3515625,-631.6953125,-5967.06640625,-633.625C-5966.75,-633.69140625,-5966.43359375,-633.76171875,-5966.15625,-633.828125L-5966.53515625,-633.13671875C-5967.1015625,-632.65234375,-5968.78515625,-630.5625,-5969.359375,-630.0234375C-5973.31640625,-626.32421875,-5977.18359375,-626,-5982.08984375,-627.72265625C-5982.89453125,-628.00390625,-5983.0234375,-628.1953125,-5983.51953125,-627.953125C-5983.6484375,-627.890625,-5983.765625,-627.8046875,-5983.8671875,-627.70703125C-5985.7265625,-625.93359375,-5987.74609375,-623.34375,-5989.9765625,-621.47265625C-5991.5234375,-620.17578125,-5993.79296875,-619.1953125,-5994.9296875,-617.671875C-5995.21484375,-617.28515625,-5995.88671875,-616.56640625,-5994.8671875,-616.3984375C-5993.8984375,-616.23828125,-5992.97265625,-616.4609375,-5992.05078125,-616.84765625C-5991.94140625,-616.89453125,-5991.8359375,-616.94140625,-5991.734375,-616.98828125L-5991.73046875,-616.9921875C-5991.61328125,-617.046875,-5991.5,-617.10546875,-5991.38671875,-617.1640625C-5991.21484375,-617.2578125,-5991.046875,-617.359375,-5990.8828125,-617.46875L-5990.890625,-617.46484375L-5990.87890625,-617.47265625C-5990.515625,-617.7109375,-5990.17578125,-617.984375,-5989.85546875,-618.28125L-5987.52734375,-620.1328125L-5990.78125,-616.3046875C-5990.93359375,-616.171875,-5991.09765625,-616.03125,-5991.2890625,-615.87109375C-5992.265625,-615.046875,-5993.72265625,-614.40234375,-5994.5546875,-613.5703125C-5994.7578125,-613.36328125,-5996.6015625,-611.2890625,-5996,-611.109375C-5995.64453125,-611.00390625,-5994.39453125,-611.0546875,-5993.921875,-611.109375C-5992.5859375,-611.2734375,-5989.76953125,-614.7421875,-5988.71875,-615.8046875C-5986.45703125,-618.08984375,-5983.57421875,-620.97265625,-5980.3203125,-621.234375C-5978.265625,-621.40625,-5976.2421875,-620.578125,-5974.21875,-620.34765625C-5971.96875,-620.08984375,-5968.53515625,-619.89453125,-5966.3046875,-620.0390625C-5959.81640625,-620.47265625,-5954.5390625,-627.9921875,-5949.46875,-631.8203125C-5944.60546875,-635.48828125,-5936.57421875,-633.8515625,-5931.625,-628.98828125C-5928.41015625,-625.83203125,-5925.38671875,-622.57421875,-5921.34375,-620.515625C-5917.4375,-618.52734375,-5913.5234375,-618.484375,-5909.296875,-618.85546875C-5907.48828125,-619.015625,-5905.6953125,-619.46875,-5903.8828125,-619.61328125C-5903.25390625,-619.55859375,-5902.91015625,-618.44140625,-5902.36328125,-618.10546875C-5901.921875,-617.83203125,-5898.6875,-617.94140625,-5897.9140625,-617.95703125C-5896.94921875,-617.9765625,-5895.984375,-618.00390625,-5895.0234375,-618.03125L-5892.5859375,-617.37890625C-5892.59765625,-617.37890625,-5892.609375,-617.375,-5892.62109375,-617.375C-5892.03515625,-617.1953125,-5891.578125,-617.078125,-5891.2734375,-616.99609375ZM-5874.95703125,-613.125" style="stroke:none;word-spacing:0px;text-decoration-color:initial;text-decoration-thickness:initial;color:rgb(0, 0, 0);fill-rule:nonzero;-webkit-text-stroke-width:0px;text-transform:none;fill:rgb(83.099365%,83.099365%,83.099365%);font-variant-caps:normal;fill-opacity:1;text-indent:0px;orphans:2;widows:2;font-variant-ligatures:normal;letter-spacing:normal;font-style:normal;font-weight:400;white-space:normal;text-align:start;font-size:medium;text-decoration-style:initial"></path>
      </g>
    </g>
  </g>
</svg>