<?xml version="1.0" encoding="UTF-8"?>
<svg xmlns="http://www.w3.org/2000/svg" xmlns:xlink="http://www.w3.org/1999/xlink" version="1.1" viewBox="0 0 1920 1080">
  <!-- Generator: Adobe Illustrator 29.3.1, SVG Export Plug-In . SVG Version: 2.1.0 Build 151)  -->
  <defs>
    <style>
      .st0, .st1, .st2, .st3, .st4 {
        fill: none;
      }

      .st1 {
        stroke-width: 2px;
      }

      .st1, .st5, .st2, .st3, .st4 {
        stroke-miterlimit: 10;
      }

      .st1, .st2, .st3, .st4 {
        stroke: #212223;
      }

      .st6 {
        filter: url(#drop-shadow-1);
      }

      .st7 {
        fill: #001436;
      }

      .st7, .st8 {
        font-size: 42px;
      }

      .st7, .st8, .st9 {
        letter-spacing: 0em;
      }

      .st7, .st8, .st9, .st10 {
        font-family: Roboto-Regular, Roboto;
      }

      .st8, .st11, .st10 {
        fill: #0019aa;
      }

      .st12 {
        fill: #212223;
      }

      .st5 {
        fill: #fff;
        stroke: #fff;
        stroke-width: 2.5px;
      }

      .st13 {
        fill: #a5a5a5;
      }

      .st2 {
        stroke-width: 2.9px;
      }

      .st3 {
        stroke-width: 2.7px;
      }

      .st14 {
        fill: #d4d4d4;
      }

      .st9 {
        font-size: 28px;
      }

      .st15 {
        fill: #132ea3;
      }

      .st16 {
        fill: #f9ff00;
      }

      .st10 {
        font-size: 10px;
        letter-spacing: 0em;
      }

      .st17 {
        clip-path: url(#clippath);
      }
    </style>
    <clipPath id="clippath">
      <path class="st0" d="M1380,673c-7.7-7.3-16.4-13.1-26.2-17.3-9.8-4.2-20.1-6.3-30.9-6.3h-250.1c-11.2,0-21.7,2.1-31.5,6.3-9.8,4.2-18.4,10-25.7,17.3-7.3,7.3-13.1,15.9-17.3,25.7-4.2,9.8-6.3,20.1-6.3,30.9v48.5c0,17.3,0,34.8-.3,52.4-.2,17.7-.3,35.1-.3,52.4v48.5c0,10.5,2,20.6,6,30.4,4,9.8,9.9,18.5,17.6,26.2,7.7,7.7,16.4,13.6,26.2,17.6,9.8,4,19.9,6,30.4,6h251.2c22.4,0,41.4-7.9,57.2-23.6,7.7-7.3,13.5-15.9,17.6-25.7,4-9.8,6-20.1,6-30.9v-201.4c0-22.4-7.9-41.4-23.6-57.2Z"/>
    </clipPath>
    <filter id="drop-shadow-1" x="567" y="723.8" width="381.8" height="219.4" filterUnits="userSpaceOnUse">
      <feOffset dx="0" dy="0"/>
      <feGaussianBlur result="blur" stdDeviation="14"/>
      <feFlood flood-color="#000" flood-opacity="1"/>
      <feComposite in2="blur" operator="in"/>
      <feComposite in="SourceGraphic"/>
    </filter>
  </defs>
  <g id="Capa_4">
    <rect class="st14" width="1920" height="1080"/>
    <g>
      <path class="st11" d="M917.6,76.5h4.7v1.1h-6v-10h1.3v8.9Z"/>
      <path class="st11" d="M928.5,77.6c0-.1-.1-.4-.2-.8-.6.6-1.3.9-2.1.9s-1.3-.2-1.8-.6c-.5-.4-.7-.9-.7-1.6s.3-1.4.9-1.8c.6-.4,1.4-.6,2.5-.6h1.2v-.6c0-.4-.1-.8-.4-1.1-.3-.3-.7-.4-1.2-.4s-.8.1-1.1.3c-.3.2-.5.5-.5.8h-1.3c0-.4.1-.7.4-1.1.3-.3.6-.6,1.1-.8.4-.2.9-.3,1.5-.3.9,0,1.5.2,2,.6.5.4.7,1,.8,1.8v3.4c0,.7,0,1.2.3,1.6h0c0,.1-1.3.1-1.3.1ZM926.4,76.6c.4,0,.8-.1,1.1-.3s.6-.5.8-.8v-1.5h-1c-1.5,0-2.3.5-2.3,1.4s.1.7.4.9c.3.2.6.3,1,.3Z"/>
      <path class="st11" d="M936.8,70.2v.8c.6-.6,1.3-1,2.2-1s1.7.4,2.1,1.2c.2-.4.6-.6,1-.9.4-.2.9-.3,1.4-.3,1.6,0,2.4.9,2.5,2.6v5h-1.3v-4.9c0-.5-.1-.9-.4-1.2-.2-.3-.6-.4-1.2-.4s-.9.1-1.2.4-.5.7-.5,1.1v4.9h-1.3v-4.8c0-1.1-.5-1.6-1.6-1.6s-1.4.4-1.7,1.1v5.4h-1.3v-7.4h1.2Z"/>
      <path class="st11" d="M952.6,77.6c0-.1-.1-.4-.2-.8-.6.6-1.3.9-2.1.9s-1.3-.2-1.8-.6c-.5-.4-.7-.9-.7-1.6s.3-1.4.9-1.8c.6-.4,1.4-.6,2.5-.6h1.2v-.6c0-.4-.1-.8-.4-1.1-.3-.3-.7-.4-1.2-.4s-.8.1-1.1.3c-.3.2-.5.5-.5.8h-1.3c0-.4.1-.7.4-1.1.3-.3.6-.6,1.1-.8.4-.2.9-.3,1.5-.3.9,0,1.5.2,2,.6.5.4.7,1,.8,1.8v3.4c0,.7,0,1.2.3,1.6h0c0,.1-1.3.1-1.3.1ZM950.5,76.6c.4,0,.8-.1,1.1-.3s.6-.5.8-.8v-1.5h-1c-1.5,0-2.3.5-2.3,1.4s.1.7.4.9c.3.2.6.3,1,.3Z"/>
      <path class="st11" d="M959.5,71.3c-.2,0-.4,0-.6,0-.8,0-1.4.4-1.7,1.1v5.2h-1.3v-7.4h1.2v.9c.4-.7,1-1,1.8-1s.4,0,.6,0v1.2Z"/>
      <path class="st11" d="M963.8,76.7c.5,0,.8-.1,1.2-.4s.5-.6.6-1h1.2c0,.4-.2.8-.4,1.2-.3.4-.6.7-1.1.9-.4.2-.9.3-1.4.3-1,0-1.8-.3-2.4-1-.6-.7-.9-1.6-.9-2.8v-.2c0-.7.1-1.4.4-1.9.3-.6.6-1,1.1-1.3.5-.3,1.1-.5,1.8-.5s1.5.2,2.1.7c.5.5.8,1.1.9,1.9h-1.2c0-.5-.2-.9-.5-1.2-.3-.3-.7-.5-1.2-.5s-1.1.2-1.5.7c-.4.5-.5,1.1-.5,2v.2c0,.9.2,1.5.5,2,.4.5.9.7,1.5.7Z"/>
      <path class="st11" d="M973,77.6c0-.1-.1-.4-.2-.8-.6.6-1.3.9-2.1.9s-1.3-.2-1.8-.6c-.5-.4-.7-.9-.7-1.6s.3-1.4.9-1.8c.6-.4,1.4-.6,2.5-.6h1.2v-.6c0-.4-.1-.8-.4-1.1-.3-.3-.7-.4-1.2-.4s-.8.1-1.1.3c-.3.2-.5.5-.5.8h-1.3c0-.4.1-.7.4-1.1.3-.3.6-.6,1.1-.8.4-.2.9-.3,1.5-.3.9,0,1.5.2,2,.6.5.4.7,1,.8,1.8v3.4c0,.7,0,1.2.3,1.6h0c0,.1-1.3.1-1.3.1ZM970.9,76.6c.4,0,.8-.1,1.1-.3s.6-.5.8-.8v-1.5h-1c-1.5,0-2.3.5-2.3,1.4s.1.7.4.9c.3.2.6.3,1,.3Z"/>
      <path class="st11" d="M981.3,70.2v.9c.6-.7,1.3-1.1,2.3-1.1,1.6,0,2.4.9,2.4,2.6v4.9h-1.3v-4.9c0-.5-.1-.9-.4-1.2-.2-.3-.6-.4-1.1-.4s-.8.1-1.1.3c-.3.2-.6.5-.7.9v5.3h-1.3v-7.4h1.2Z"/>
      <path class="st11" d="M987.8,73.8c0-.7.1-1.4.4-2,.3-.6.7-1,1.2-1.3s1.1-.5,1.7-.5c1,0,1.8.3,2.4,1s.9,1.6.9,2.8h0c0,.8-.1,1.5-.4,2-.3.6-.7,1-1.2,1.3-.5.3-1.1.5-1.8.5-1,0-1.8-.3-2.4-1s-.9-1.6-.9-2.8h0ZM989,73.9c0,.8.2,1.5.6,2,.4.5.9.7,1.5.7s1.2-.3,1.5-.8c.4-.5.6-1.2.6-2.1s-.2-1.5-.6-2c-.4-.5-.9-.8-1.5-.8s-1.1.2-1.5.7c-.4.5-.6,1.2-.6,2.1Z"/>
      <path class="st11" d="M1003.1,76.7c.5,0,.8-.1,1.2-.4s.5-.6.6-1h1.2c0,.4-.2.8-.4,1.2-.3.4-.6.7-1.1.9-.4.2-.9.3-1.4.3-1,0-1.8-.3-2.4-1-.6-.7-.9-1.6-.9-2.8v-.2c0-.7.1-1.4.4-1.9.3-.6.6-1,1.1-1.3.5-.3,1.1-.5,1.8-.5s1.5.2,2.1.7c.5.5.8,1.1.9,1.9h-1.2c0-.5-.2-.9-.5-1.2-.3-.3-.7-.5-1.2-.5s-1.1.2-1.5.7c-.4.5-.5,1.1-.5,2v.2c0,.9.2,1.5.5,2,.4.5.9.7,1.5.7Z"/>
      <path class="st11" d="M1012.3,76.8c-.5.6-1.2.9-2.2.9s-1.4-.2-1.8-.7c-.4-.5-.6-1.1-.6-2v-4.8h1.3v4.8c0,1.1.5,1.7,1.4,1.7s1.6-.4,1.9-1.1v-5.4h1.3v7.4h-1.2v-.7Z"/>
      <path class="st11" d="M1018.8,77.7c-1,0-1.8-.3-2.4-1-.6-.7-.9-1.5-.9-2.6v-.2c0-.7.1-1.4.4-2,.3-.6.7-1,1.2-1.4.5-.3,1-.5,1.6-.5,1,0,1.7.3,2.2,1,.5.6.8,1.5.8,2.7v.5h-5c0,.7.2,1.3.6,1.8.4.4.9.7,1.6.7s.8,0,1.1-.3c.3-.2.6-.4.8-.7l.8.6c-.6,1-1.5,1.4-2.8,1.4ZM1018.6,71.1c-.5,0-.9.2-1.3.6-.3.4-.6.9-.6,1.6h3.7c0-.7-.2-1.2-.5-1.6-.3-.4-.7-.5-1.3-.5Z"/>
      <path class="st11" d="M1024.7,70.2v.9c.6-.7,1.3-1.1,2.3-1.1,1.6,0,2.4.9,2.4,2.6v4.9h-1.3v-4.9c0-.5-.1-.9-.4-1.2-.2-.3-.6-.4-1.1-.4s-.8.1-1.1.3c-.3.2-.6.5-.7.9v5.3h-1.3v-7.4h1.2Z"/>
      <path class="st11" d="M1033.2,68.4v1.8h1.4v1h-1.4v4.6c0,.3,0,.5.2.7s.3.2.6.2.3,0,.6,0v1c-.3,0-.7.1-1,.1-.6,0-1-.2-1.3-.5s-.4-.8-.4-1.5v-4.6h-1.3v-1h1.3v-1.8h1.3Z"/>
      <path class="st11" d="M1040.9,77.6c0-.1-.1-.4-.2-.8-.6.6-1.3.9-2.1.9s-1.3-.2-1.8-.6c-.5-.4-.7-.9-.7-1.6s.3-1.4.9-1.8c.6-.4,1.4-.6,2.5-.6h1.2v-.6c0-.4-.1-.8-.4-1.1-.3-.3-.7-.4-1.2-.4s-.8.1-1.1.3c-.3.2-.5.5-.5.8h-1.3c0-.4.1-.7.4-1.1.3-.3.6-.6,1.1-.8.4-.2.9-.3,1.5-.3.9,0,1.5.2,2,.6.5.4.7,1,.8,1.8v3.4c0,.7,0,1.2.3,1.6h0c0,.1-1.3.1-1.3.1ZM1038.8,76.6c.4,0,.8-.1,1.1-.3s.6-.5.8-.8v-1.5h-1c-1.5,0-2.3.5-2.3,1.4s.1.7.4.9c.3.2.6.3,1,.3Z"/>
      <path class="st11" d="M1050.9,76.7c.5,0,.8-.1,1.2-.4.3-.3.5-.6.6-1h1.2c0,.4-.2.8-.4,1.2-.3.4-.6.7-1.1.9-.4.2-.9.3-1.4.3-1,0-1.8-.3-2.4-1-.6-.7-.9-1.6-.9-2.8v-.2c0-.7.1-1.4.4-1.9.3-.6.6-1,1.1-1.3.5-.3,1.1-.5,1.8-.5s1.5.2,2.1.7c.5.5.8,1.1.9,1.9h-1.2c0-.5-.2-.9-.5-1.2-.3-.3-.7-.5-1.2-.5s-1.1.2-1.5.7c-.4.5-.5,1.1-.5,2v.2c0,.9.2,1.5.5,2,.4.5.9.7,1.5.7Z"/>
      <path class="st11" d="M1055.2,73.8c0-.7.1-1.4.4-2,.3-.6.7-1,1.2-1.3.5-.3,1.1-.5,1.7-.5,1,0,1.8.3,2.4,1,.6.7.9,1.6.9,2.8h0c0,.8-.1,1.5-.4,2-.3.6-.7,1-1.2,1.3-.5.3-1.1.5-1.8.5-1,0-1.8-.3-2.4-1-.6-.7-.9-1.6-.9-2.8h0ZM1056.5,73.9c0,.8.2,1.5.6,2,.4.5.9.7,1.5.7s1.2-.3,1.5-.8c.4-.5.6-1.2.6-2.1s-.2-1.5-.6-2c-.4-.5-.9-.8-1.5-.8s-1.1.2-1.5.7c-.4.5-.6,1.2-.6,2.1Z"/>
      <path class="st11" d="M1065,70.2v.9c.6-.7,1.3-1.1,2.3-1.1,1.6,0,2.4.9,2.4,2.6v4.9h-1.3v-4.9c0-.5-.1-.9-.4-1.2-.2-.3-.6-.4-1.1-.4s-.8.1-1.1.3c-.3.2-.6.5-.7.9v5.3h-1.3v-7.4h1.2Z"/>
      <path class="st11" d="M1080.1,76.8c-.5.6-1.2.9-2.2.9s-1.4-.2-1.8-.7-.6-1.1-.6-2v-4.8h1.3v4.8c0,1.1.5,1.7,1.4,1.7s1.6-.4,1.9-1.1v-5.4h1.3v7.4h-1.2v-.7Z"/>
      <path class="st11" d="M1084.8,70.2v.9c.6-.7,1.3-1.1,2.3-1.1,1.6,0,2.4.9,2.4,2.6v4.9h-1.3v-4.9c0-.5-.1-.9-.4-1.2-.2-.3-.6-.4-1.1-.4s-.8.1-1.1.3-.6.5-.7.9v5.3h-1.3v-7.4h1.2Z"/>
      <path class="st11" d="M1096,77.6c0-.1-.1-.4-.2-.8-.6.6-1.3.9-2.1.9s-1.3-.2-1.8-.6c-.5-.4-.7-.9-.7-1.6s.3-1.4.9-1.8c.6-.4,1.4-.6,2.5-.6h1.2v-.6c0-.4-.1-.8-.4-1.1-.3-.3-.7-.4-1.2-.4s-.8.1-1.1.3c-.3.2-.5.5-.5.8h-1.3c0-.4.1-.7.4-1.1.3-.3.6-.6,1.1-.8.4-.2.9-.3,1.5-.3.9,0,1.5.2,2,.6.5.4.7,1,.8,1.8v3.4c0,.7,0,1.2.3,1.6h0c0,.1-1.3.1-1.3.1ZM1093.9,76.6c.4,0,.8-.1,1.1-.3s.6-.5.8-.8v-1.5h-1c-1.5,0-2.3.5-2.3,1.4s.1.7.4.9c.3.2.6.3,1,.3Z"/>
      <path class="st11" d="M1105.5,75.8l1.8-5.7h1.3l-2.7,7.4h-1l-2.7-7.4h1.3l1.9,5.7Z"/>
      <path class="st11" d="M1113,77.7c-1,0-1.8-.3-2.4-1-.6-.7-.9-1.5-.9-2.6v-.2c0-.7.1-1.4.4-2,.3-.6.7-1,1.2-1.4.5-.3,1-.5,1.6-.5,1,0,1.7.3,2.2,1,.5.6.8,1.5.8,2.7v.5h-5c0,.7.2,1.3.6,1.8.4.4.9.7,1.6.7s.8,0,1.1-.3c.3-.2.6-.4.8-.7l.8.6c-.6,1-1.5,1.4-2.8,1.4ZM1112.8,71.1c-.5,0-.9.2-1.3.6-.3.4-.6.9-.6,1.6h3.7c0-.7-.2-1.2-.5-1.6-.3-.4-.7-.5-1.3-.5Z"/>
      <path class="st11" d="M1121.2,71.3c-.2,0-.4,0-.6,0-.8,0-1.4.4-1.7,1.1v5.2h-1.3v-7.4h1.2v.9c.4-.7,1-1,1.8-1s.4,0,.6,0v1.2Z"/>
      <path class="st11" d="M1127,75.6c0-.3-.1-.6-.4-.8-.3-.2-.7-.4-1.3-.5-.6-.1-1.1-.3-1.5-.5-.4-.2-.7-.4-.8-.7-.2-.3-.3-.6-.3-.9,0-.6.3-1.1.8-1.5.5-.4,1.2-.6,2-.6s1.5.2,2,.6c.5.4.8,1,.8,1.7h-1.3c0-.3-.1-.6-.4-.9-.3-.3-.7-.4-1.1-.4s-.8.1-1.1.3c-.3.2-.4.5-.4.8s.1.5.4.7c.2.2.7.3,1.3.4.6.1,1.1.3,1.5.5.4.2.7.4.9.7.2.3.3.6.3,1,0,.7-.3,1.2-.8,1.6-.5.4-1.2.6-2.1.6s-1.1-.1-1.6-.3c-.5-.2-.8-.5-1.1-.9-.3-.4-.4-.8-.4-1.2h1.3c0,.4.2.8.5,1,.3.2.7.4,1.3.4s.9,0,1.2-.3c.3-.2.4-.5.4-.8Z"/>
      <path class="st11" d="M1130.1,68.2c0-.2,0-.4.2-.5.1-.1.3-.2.6-.2s.4,0,.6.2c.1.1.2.3.2.5s0,.4-.2.5c-.1.1-.3.2-.6.2s-.4,0-.6-.2-.2-.3-.2-.5ZM1131.4,77.6h-1.3v-7.4h1.3v7.4Z"/>
      <path class="st11" d="M1133.3,73.8c0-.7.1-1.4.4-2,.3-.6.7-1,1.2-1.3.5-.3,1.1-.5,1.7-.5,1,0,1.8.3,2.4,1,.6.7.9,1.6.9,2.8h0c0,.8-.1,1.5-.4,2-.3.6-.7,1-1.2,1.3-.5.3-1.1.5-1.8.5-1,0-1.8-.3-2.4-1-.6-.7-.9-1.6-.9-2.8h0ZM1134.6,73.9c0,.8.2,1.5.6,2,.4.5.9.7,1.5.7s1.2-.3,1.5-.8c.4-.5.6-1.2.6-2.1s-.2-1.5-.6-2c-.4-.5-.9-.8-1.5-.8s-1.1.2-1.5.7c-.4.5-.6,1.2-.6,2.1ZM1137.3,67.1h1.5l-1.8,2h-1s1.3-2,1.3-2Z"/>
      <path class="st11" d="M1143.1,70.2v.9c.6-.7,1.3-1.1,2.3-1.1,1.6,0,2.4.9,2.4,2.6v4.9h-1.3v-4.9c0-.5-.1-.9-.4-1.2-.2-.3-.6-.4-1.1-.4s-.8.1-1.1.3c-.3.2-.6.5-.7.9v5.3h-1.3v-7.4h1.2Z"/>
      <path class="st11" d="M1154.9,71.1c.6-.7,1.3-1,2.2-1,1.6,0,2.4.9,2.4,2.6v4.9h-1.3v-4.9c0-.5-.1-.9-.4-1.2-.2-.3-.6-.4-1.1-.4s-.8.1-1.1.3-.6.5-.7.9v5.3h-1.3v-10.5h1.3v4Z"/>
      <path class="st11" d="M1161.3,73.8c0-.7.1-1.4.4-2,.3-.6.7-1,1.2-1.3s1.1-.5,1.7-.5c1,0,1.8.3,2.4,1s.9,1.6.9,2.8h0c0,.8-.1,1.5-.4,2-.3.6-.7,1-1.2,1.3-.5.3-1.1.5-1.8.5-1,0-1.8-.3-2.4-1s-.9-1.6-.9-2.8h0ZM1162.5,73.9c0,.8.2,1.5.6,2,.4.5.9.7,1.5.7s1.2-.3,1.5-.8c.4-.5.6-1.2.6-2.1s-.2-1.5-.6-2c-.4-.5-.9-.8-1.5-.8s-1.1.2-1.5.7c-.4.5-.6,1.2-.6,2.1Z"/>
      <path class="st11" d="M1173.4,71.3c-.2,0-.4,0-.6,0-.8,0-1.4.4-1.7,1.1v5.2h-1.3v-7.4h1.2v.9c.4-.7,1-1,1.8-1s.4,0,.6,0v1.2Z"/>
      <path class="st11" d="M1174.9,68.2c0-.2,0-.4.2-.5.1-.1.3-.2.6-.2s.4,0,.6.2c.1.1.2.3.2.5s0,.4-.2.5-.3.2-.6.2-.4,0-.6-.2c-.1-.1-.2-.3-.2-.5ZM1176.2,77.6h-1.3v-7.4h1.3v7.4Z"/>
      <path class="st11" d="M1179.5,76.5h4.3v1h-5.9v-.9l4.1-5.4h-4v-1h5.6v.9l-4.1,5.5Z"/>
      <path class="st11" d="M1184.9,73.8c0-.7.1-1.4.4-2,.3-.6.7-1,1.2-1.3.5-.3,1.1-.5,1.7-.5,1,0,1.8.3,2.4,1,.6.7.9,1.6.9,2.8h0c0,.8-.1,1.5-.4,2-.3.6-.7,1-1.2,1.3-.5.3-1.1.5-1.8.5-1,0-1.8-.3-2.4-1-.6-.7-.9-1.6-.9-2.8h0ZM1186.2,73.9c0,.8.2,1.5.6,2,.4.5.9.7,1.5.7s1.2-.3,1.5-.8c.4-.5.6-1.2.6-2.1s-.2-1.5-.6-2c-.4-.5-.9-.8-1.5-.8s-1.1.2-1.5.7c-.4.5-.6,1.2-.6,2.1Z"/>
      <path class="st11" d="M1194.7,70.2v.9c.6-.7,1.3-1.1,2.3-1.1,1.6,0,2.4.9,2.4,2.6v4.9h-1.3v-4.9c0-.5-.1-.9-.4-1.2-.2-.3-.6-.4-1.1-.4s-.8.1-1.1.3c-.3.2-.6.5-.7.9v5.3h-1.3v-7.4h1.2Z"/>
      <path class="st11" d="M1203.2,68.4v1.8h1.4v1h-1.4v4.6c0,.3,0,.5.2.7s.3.2.6.2.3,0,.6,0v1c-.3,0-.7.1-1,.1-.6,0-1-.2-1.3-.5s-.4-.8-.4-1.5v-4.6h-1.3v-1h1.3v-1.8h1.3Z"/>
      <path class="st11" d="M1210.9,77.6c0-.1-.1-.4-.2-.8-.6.6-1.3.9-2.1.9s-1.3-.2-1.8-.6c-.5-.4-.7-.9-.7-1.6s.3-1.4.9-1.8c.6-.4,1.4-.6,2.5-.6h1.2v-.6c0-.4-.1-.8-.4-1.1-.3-.3-.7-.4-1.2-.4s-.8.1-1.1.3c-.3.2-.5.5-.5.8h-1.3c0-.4.1-.7.4-1.1.3-.3.6-.6,1.1-.8.4-.2.9-.3,1.5-.3.9,0,1.5.2,2,.6.5.4.7,1,.8,1.8v3.4c0,.7,0,1.2.3,1.6h0c0,.1-1.3.1-1.3.1ZM1208.8,76.6c.4,0,.8-.1,1.1-.3s.6-.5.8-.8v-1.5h-1c-1.5,0-2.3.5-2.3,1.4s.1.7.4.9c.3.2.6.3,1,.3Z"/>
      <path class="st11" d="M1215.5,77.6h-1.3v-10.5h1.3v10.5Z"/>
      <path class="st11" d="M1221.2,73.8c0-1.1.3-2,.8-2.7s1.2-1,2.1-1,1.6.3,2.1.9v-3.9h1.3v10.5h-1.2v-.8c-.6.6-1.3.9-2.2.9s-1.6-.4-2.1-1.1c-.5-.7-.8-1.6-.8-2.7h0ZM1222.5,73.9c0,.8.2,1.5.5,2,.3.5.8.7,1.4.7s1.4-.4,1.8-1.1v-3.4c-.4-.7-1-1-1.7-1s-1.1.2-1.4.7-.5,1.2-.5,2.1Z"/>
      <path class="st11" d="M1232.7,77.7c-1,0-1.8-.3-2.4-1-.6-.7-.9-1.5-.9-2.6v-.2c0-.7.1-1.4.4-2,.3-.6.7-1,1.2-1.4.5-.3,1-.5,1.6-.5,1,0,1.7.3,2.2,1,.5.6.8,1.5.8,2.7v.5h-5c0,.7.2,1.3.6,1.8.4.4.9.7,1.6.7s.8,0,1.1-.3c.3-.2.6-.4.8-.7l.8.6c-.6,1-1.5,1.4-2.8,1.4ZM1232.6,71.1c-.5,0-.9.2-1.3.6-.3.4-.6.9-.6,1.6h3.7c0-.7-.2-1.2-.5-1.6-.3-.4-.7-.5-1.3-.5Z"/>
      <path class="st11" d="M1238.8,77.6h-1.3v-10.5h1.3v10.5Z"/>
      <path class="st11" d="M1244.8,68.2c0-.2,0-.4.2-.5.1-.1.3-.2.6-.2s.4,0,.6.2c.1.1.2.3.2.5s0,.4-.2.5-.3.2-.6.2-.4,0-.6-.2c-.1-.1-.2-.3-.2-.5ZM1246.2,77.6h-1.3v-7.4h1.3v7.4Z"/>
      <path class="st11" d="M1249.6,70.2v.8c.6-.6,1.3-1,2.2-1s1.7.4,2.1,1.2c.2-.4.6-.6,1-.9s.9-.3,1.4-.3c1.6,0,2.4.9,2.5,2.6v5h-1.3v-4.9c0-.5-.1-.9-.4-1.2-.2-.3-.6-.4-1.2-.4s-.9.1-1.2.4c-.3.3-.5.7-.5,1.1v4.9h-1.3v-4.8c0-1.1-.5-1.6-1.6-1.6s-1.4.4-1.7,1.1v5.4h-1.3v-7.4h1.2Z"/>
      <path class="st11" d="M1265.5,77.6c0-.1-.1-.4-.2-.8-.6.6-1.3.9-2.1.9s-1.3-.2-1.8-.6c-.5-.4-.7-.9-.7-1.6s.3-1.4.9-1.8c.6-.4,1.4-.6,2.5-.6h1.2v-.6c0-.4-.1-.8-.4-1.1-.3-.3-.7-.4-1.2-.4s-.8.1-1.1.3c-.3.2-.5.5-.5.8h-1.3c0-.4.1-.7.4-1.1.3-.3.6-.6,1.1-.8.4-.2.9-.3,1.5-.3.9,0,1.5.2,2,.6.5.4.7,1,.8,1.8v3.4c0,.7,0,1.2.3,1.6h0c0,.1-1.3.1-1.3.1ZM1263.4,76.6c.4,0,.8-.1,1.1-.3s.6-.5.8-.8v-1.5h-1c-1.5,0-2.3.5-2.3,1.4s.1.7.4.9c.3.2.6.3,1,.3Z"/>
      <path class="st11" d="M1268.4,73.8c0-1.2.3-2.1.8-2.8.5-.7,1.2-1,2.1-1s1.6.3,2.1,1v-.8h1.2v7.2c0,1-.3,1.7-.9,2.3-.6.6-1.3.8-2.3.8s-1.1-.1-1.6-.3c-.5-.2-.9-.5-1.2-.9l.7-.8c.5.7,1.2,1,2,1s1.1-.2,1.4-.5c.3-.3.5-.8.5-1.5v-.6c-.5.6-1.2.9-2.1.9s-1.6-.3-2.1-1-.8-1.6-.8-2.9ZM1269.7,73.9c0,.8.2,1.5.5,2,.3.5.8.7,1.4.7s1.4-.4,1.8-1.1v-3.4c-.4-.7-1-1.1-1.7-1.1s-1.1.2-1.4.7c-.3.5-.5,1.2-.5,2.1Z"/>
      <path class="st11" d="M1276.5,73.8c0-.7.1-1.4.4-2,.3-.6.7-1,1.2-1.3.5-.3,1.1-.5,1.7-.5,1,0,1.8.3,2.4,1,.6.7.9,1.6.9,2.8h0c0,.8-.1,1.5-.4,2-.3.6-.7,1-1.2,1.3-.5.3-1.1.5-1.8.5-1,0-1.8-.3-2.4-1-.6-.7-.9-1.6-.9-2.8h0ZM1277.8,73.9c0,.8.2,1.5.6,2,.4.5.9.7,1.5.7s1.2-.3,1.5-.8c.4-.5.6-1.2.6-2.1s-.2-1.5-.6-2c-.4-.5-.9-.8-1.5-.8s-1.1.2-1.5.7c-.4.5-.6,1.2-.6,2.1Z"/>
      <path class="st11" d="M1286.7,68.4v1.8h1.4v1h-1.4v4.6c0,.3,0,.5.2.7s.3.2.6.2.3,0,.6,0v1c-.3,0-.7.1-1,.1-.6,0-1-.2-1.3-.5s-.4-.8-.4-1.5v-4.6h-1.3v-1h1.3v-1.8h1.3Z"/>
      <path class="st11" d="M1289.7,68.2c0-.2,0-.4.2-.5.1-.1.3-.2.6-.2s.4,0,.6.2c.1.1.2.3.2.5s0,.4-.2.5c-.1.1-.3.2-.6.2s-.4,0-.6-.2-.2-.3-.2-.5ZM1291.1,77.6h-1.3v-7.4h1.3v7.4Z"/>
      <path class="st11" d="M1299.6,73.9c0,1.1-.3,2-.8,2.7-.5.7-1.2,1-2.1,1s-1.6-.3-2.1-.9v3.6h-1.3v-10.2h1.2v.8c.6-.6,1.3-1,2.2-1s1.6.3,2.1,1,.8,1.6.8,2.8h0ZM1298.3,73.8c0-.8-.2-1.5-.5-2-.4-.5-.8-.7-1.5-.7s-1.3.3-1.7,1v3.5c.4.7,1,1,1.7,1s1.1-.2,1.4-.7c.4-.5.5-1.2.5-2.1Z"/>
      <path class="st11" d="M1301.1,73.8c0-.7.1-1.4.4-2,.3-.6.7-1,1.2-1.3.5-.3,1.1-.5,1.7-.5,1,0,1.8.3,2.4,1,.6.7.9,1.6.9,2.8h0c0,.8-.1,1.5-.4,2-.3.6-.7,1-1.2,1.3-.5.3-1.1.5-1.8.5-1,0-1.8-.3-2.4-1-.6-.7-.9-1.6-.9-2.8h0ZM1302.4,73.9c0,.8.2,1.5.6,2,.4.5.9.7,1.5.7s1.2-.3,1.5-.8c.4-.5.6-1.2.6-2.1s-.2-1.5-.6-2c-.4-.5-.9-.8-1.5-.8s-1.1.2-1.5.7c-.4.5-.6,1.2-.6,2.1Z"/>
      <path class="st11" d="M1309.5,76.9c0-.2,0-.4.2-.5.1-.1.3-.2.6-.2s.5,0,.6.2c.1.1.2.3.2.5s0,.4-.2.5c-.1.1-.3.2-.6.2s-.5,0-.6-.2c-.1-.1-.2-.3-.2-.5Z"/>
      <path class="st11" d="M1323,73h-4.3v3.5h5v1.1h-6.3v-10h6.3v1.1h-4.9v3.2h4.3v1.1Z"/>
      <path class="st11" d="M1326.6,70.2v.9c.6-.7,1.3-1.1,2.3-1.1,1.6,0,2.4.9,2.4,2.6v4.9h-1.3v-4.9c0-.5-.1-.9-.4-1.2-.2-.3-.6-.4-1.1-.4s-.8.1-1.1.3c-.3.2-.6.5-.7.9v5.3h-1.3v-7.4h1.2Z"/>
      <path class="st11" d="M1340.1,76.7c.5,0,.8-.1,1.2-.4s.5-.6.6-1h1.2c0,.4-.2.8-.4,1.2s-.6.7-1.1.9c-.4.2-.9.3-1.4.3-1,0-1.8-.3-2.4-1-.6-.7-.9-1.6-.9-2.8v-.2c0-.7.1-1.4.4-1.9s.6-1,1.1-1.3c.5-.3,1.1-.5,1.8-.5s1.5.2,2.1.7c.5.5.8,1.1.9,1.9h-1.2c0-.5-.2-.9-.5-1.2-.3-.3-.7-.5-1.2-.5s-1.1.2-1.5.7c-.4.5-.5,1.1-.5,2v.2c0,.9.2,1.5.5,2,.4.5.9.7,1.5.7Z"/>
      <path class="st11" d="M1349.3,77.6c0-.1-.1-.4-.2-.8-.6.6-1.3.9-2.1.9s-1.3-.2-1.8-.6c-.5-.4-.7-.9-.7-1.6s.3-1.4.9-1.8c.6-.4,1.4-.6,2.5-.6h1.2v-.6c0-.4-.1-.8-.4-1.1-.3-.3-.7-.4-1.2-.4s-.8.1-1.1.3c-.3.2-.5.5-.5.8h-1.3c0-.4.1-.7.4-1.1.3-.3.6-.6,1.1-.8.4-.2.9-.3,1.5-.3.9,0,1.5.2,2,.6.5.4.7,1,.8,1.8v3.4c0,.7,0,1.2.3,1.6h0c0,.1-1.3.1-1.3.1ZM1347.2,76.6c.4,0,.8-.1,1.1-.3s.6-.5.8-.8v-1.5h-1c-1.5,0-2.3.5-2.3,1.4s.1.7.4.9c.3.2.6.3,1,.3Z"/>
      <path class="st11" d="M1356.8,75.6c0-.3-.1-.6-.4-.8-.3-.2-.7-.4-1.3-.5s-1.1-.3-1.5-.5-.7-.4-.8-.7c-.2-.3-.3-.6-.3-.9,0-.6.3-1.1.8-1.5.5-.4,1.2-.6,2-.6s1.5.2,2,.6c.5.4.8,1,.8,1.7h-1.3c0-.3-.1-.6-.4-.9-.3-.3-.7-.4-1.1-.4s-.8.1-1.1.3c-.3.2-.4.5-.4.8s.1.5.4.7c.2.2.7.3,1.3.4.6.1,1.1.3,1.5.5s.7.4.9.7c.2.3.3.6.3,1,0,.7-.3,1.2-.8,1.6-.5.4-1.2.6-2.1.6s-1.1-.1-1.6-.3c-.5-.2-.8-.5-1.1-.9s-.4-.8-.4-1.2h1.3c0,.4.2.8.5,1,.3.2.7.4,1.3.4s.9,0,1.2-.3c.3-.2.4-.5.4-.8Z"/>
      <path class="st11" d="M1359.6,73.8c0-.7.1-1.4.4-2,.3-.6.7-1,1.2-1.3s1.1-.5,1.7-.5c1,0,1.8.3,2.4,1s.9,1.6.9,2.8h0c0,.8-.1,1.5-.4,2-.3.6-.7,1-1.2,1.3-.5.3-1.1.5-1.8.5-1,0-1.8-.3-2.4-1s-.9-1.6-.9-2.8h0ZM1360.8,73.9c0,.8.2,1.5.6,2,.4.5.9.7,1.5.7s1.2-.3,1.5-.8c.4-.5.6-1.2.6-2.1s-.2-1.5-.6-2c-.4-.5-.9-.8-1.5-.8s-1.1.2-1.5.7c-.4.5-.6,1.2-.6,2.1Z"/>
      <path class="st11" d="M1372.4,75.6c0-.3-.1-.6-.4-.8-.3-.2-.7-.4-1.3-.5-.6-.1-1.1-.3-1.5-.5-.4-.2-.7-.4-.8-.7-.2-.3-.3-.6-.3-.9,0-.6.3-1.1.8-1.5.5-.4,1.2-.6,2-.6s1.5.2,2,.6c.5.4.8,1,.8,1.7h-1.3c0-.3-.1-.6-.4-.9-.3-.3-.7-.4-1.1-.4s-.8.1-1.1.3c-.3.2-.4.5-.4.8s.1.5.4.7c.2.2.7.3,1.3.4.6.1,1.1.3,1.5.5.4.2.7.4.9.7.2.3.3.6.3,1,0,.7-.3,1.2-.8,1.6-.5.4-1.2.6-2.1.6s-1.1-.1-1.6-.3c-.5-.2-.8-.5-1.1-.9-.3-.4-.4-.8-.4-1.2h1.3c0,.4.2.8.5,1,.3.2.7.4,1.3.4s.9,0,1.2-.3c.3-.2.4-.5.4-.8Z"/>
      <path class="st11" d="M1379,73.8c0-1.2.3-2.1.8-2.8s1.2-1,2.1-1,1.6.3,2.1.9v-.7h1.2v10.2h-1.3v-3.5c-.5.5-1.2.8-2,.8s-1.6-.3-2.1-1c-.5-.7-.8-1.6-.8-2.8h0ZM1380.3,73.9c0,.8.2,1.5.5,2,.4.5.8.7,1.4.7s1.3-.3,1.7-1v-3.6c-.4-.7-1-1-1.7-1s-1.1.2-1.5.7c-.4.5-.5,1.2-.5,2.2Z"/>
      <path class="st11" d="M1392.1,76.8c-.5.6-1.2.9-2.2.9s-1.4-.2-1.8-.7c-.4-.5-.6-1.1-.6-2v-4.8h1.3v4.8c0,1.1.5,1.7,1.4,1.7s1.6-.4,1.9-1.1v-5.4h1.3v7.4h-1.2v-.7Z"/>
      <path class="st11" d="M1398.6,77.7c-1,0-1.8-.3-2.4-1-.6-.7-.9-1.5-.9-2.6v-.2c0-.7.1-1.4.4-2,.3-.6.7-1,1.2-1.4.5-.3,1-.5,1.6-.5,1,0,1.7.3,2.2,1,.5.6.8,1.5.8,2.7v.5h-5c0,.7.2,1.3.6,1.8.4.4.9.7,1.6.7s.8,0,1.1-.3c.3-.2.6-.4.8-.7l.8.6c-.6,1-1.5,1.4-2.8,1.4ZM1398.4,71.1c-.5,0-.9.2-1.3.6-.3.4-.6.9-.6,1.6h3.7c0-.7-.2-1.2-.5-1.6-.3-.4-.7-.5-1.3-.5Z"/>
      <path class="st11" d="M1410.5,71.3c-.2,0-.4,0-.6,0-.8,0-1.4.4-1.7,1.1v5.2h-1.3v-7.4h1.2v.9c.4-.7,1-1,1.8-1s.4,0,.6,0v1.2Z"/>
      <path class="st11" d="M1414.9,77.7c-1,0-1.8-.3-2.4-1-.6-.7-.9-1.5-.9-2.6v-.2c0-.7.1-1.4.4-2,.3-.6.7-1,1.2-1.4.5-.3,1-.5,1.6-.5,1,0,1.7.3,2.2,1,.5.6.8,1.5.8,2.7v.5h-5c0,.7.2,1.3.6,1.8.4.4.9.7,1.6.7s.8,0,1.1-.3c.3-.2.6-.4.8-.7l.8.6c-.6,1-1.5,1.4-2.8,1.4ZM1414.8,71.1c-.5,0-.9.2-1.3.6-.3.4-.6.9-.6,1.6h3.7c0-.7-.2-1.2-.5-1.6-.3-.4-.7-.5-1.3-.5Z"/>
      <path class="st11" d="M1419.3,73.8c0-1.2.3-2.1.8-2.8s1.2-1,2.1-1,1.6.3,2.1.9v-.7h1.2v10.2h-1.3v-3.5c-.5.5-1.2.8-2,.8s-1.6-.3-2.1-1c-.5-.7-.8-1.6-.8-2.8h0ZM1420.6,73.9c0,.8.2,1.5.5,2,.4.5.8.7,1.4.7s1.3-.3,1.7-1v-3.6c-.4-.7-1-1-1.7-1s-1.1.2-1.5.7-.5,1.2-.5,2.2Z"/>
      <path class="st11" d="M1432.3,76.8c-.5.6-1.2.9-2.2.9s-1.4-.2-1.8-.7c-.4-.5-.6-1.1-.6-2v-4.8h1.3v4.8c0,1.1.5,1.7,1.4,1.7s1.6-.4,1.9-1.1v-5.4h1.3v7.4h-1.2v-.7Z"/>
      <path class="st11" d="M1435.7,68.2c0-.2,0-.4.2-.5.1-.1.3-.2.6-.2s.4,0,.6.2c.1.1.2.3.2.5s0,.4-.2.5c-.1.1-.3.2-.6.2s-.4,0-.6-.2-.2-.3-.2-.5ZM1437.1,77.6h-1.3v-7.4h1.3v7.4Z"/>
      <path class="st11" d="M1442.4,77.7c-1,0-1.8-.3-2.4-1-.6-.7-.9-1.5-.9-2.6v-.2c0-.7.1-1.4.4-2,.3-.6.7-1,1.2-1.4.5-.3,1-.5,1.6-.5,1,0,1.7.3,2.2,1,.5.6.8,1.5.8,2.7v.5h-5c0,.7.2,1.3.6,1.8.4.4.9.7,1.6.7s.8,0,1.1-.3c.3-.2.6-.4.8-.7l.8.6c-.6,1-1.5,1.4-2.8,1.4ZM1442.2,71.1c-.5,0-.9.2-1.3.6-.3.4-.6.9-.6,1.6h3.7c0-.7-.2-1.2-.5-1.6-.3-.4-.7-.5-1.3-.5Z"/>
      <path class="st11" d="M1450.7,71.3c-.2,0-.4,0-.6,0-.8,0-1.4.4-1.7,1.1v5.2h-1.3v-7.4h1.2v.9c.4-.7,1-1,1.8-1s.4,0,.6,0v1.2Z"/>
      <path class="st11" d="M1456.7,77.6c0-.1-.1-.4-.2-.8-.6.6-1.3.9-2.1.9s-1.3-.2-1.8-.6c-.5-.4-.7-.9-.7-1.6s.3-1.4.9-1.8c.6-.4,1.4-.6,2.5-.6h1.2v-.6c0-.4-.1-.8-.4-1.1-.3-.3-.7-.4-1.2-.4s-.8.1-1.1.3c-.3.2-.5.5-.5.8h-1.3c0-.4.1-.7.4-1.1.3-.3.6-.6,1.1-.8.4-.2.9-.3,1.5-.3.9,0,1.5.2,2,.6.5.4.7,1,.8,1.8v3.4c0,.7,0,1.2.3,1.6h0c0,.1-1.3.1-1.3.1ZM1454.6,76.6c.4,0,.8-.1,1.1-.3s.6-.5.8-.8v-1.5h-1c-1.5,0-2.3.5-2.3,1.4s.1.7.4.9c.3.2.6.3,1,.3Z"/>
      <path class="st11" d="M1461.1,70.2v.9c.6-.7,1.3-1.1,2.3-1.1,1.6,0,2.4.9,2.4,2.6v4.9h-1.3v-4.9c0-.5-.1-.9-.4-1.2-.2-.3-.6-.4-1.1-.4s-.8.1-1.1.3c-.3.2-.6.5-.7.9v5.3h-1.3v-7.4h1.2Z"/>
      <path class="st11" d="M1476.2,76.8c-.5.6-1.2.9-2.2.9s-1.4-.2-1.8-.7c-.4-.5-.6-1.1-.6-2v-4.8h1.3v4.8c0,1.1.5,1.7,1.4,1.7s1.6-.4,1.9-1.1v-5.4h1.3v7.4h-1.2v-.7Z"/>
      <path class="st11" d="M1480.9,70.2v.9c.6-.7,1.3-1.1,2.3-1.1,1.6,0,2.4.9,2.4,2.6v4.9h-1.3v-4.9c0-.5-.1-.9-.4-1.2-.2-.3-.6-.4-1.1-.4s-.8.1-1.1.3c-.3.2-.6.5-.7.9v5.3h-1.3v-7.4h1.2Z"/>
      <path class="st11" d="M1492,77.6v-6.4h-1.2v-1h1.2v-.8c0-.8.2-1.4.6-1.8.4-.4,1-.6,1.8-.6s.6,0,.9.1v1c-.3,0-.5,0-.8,0-.4,0-.7.1-1,.4s-.3.6-.3,1v.8h1.6v1h-1.6v6.4h-1.3Z"/>
      <path class="st11" d="M1496,73.8c0-.7.1-1.4.4-2,.3-.6.7-1,1.2-1.3.5-.3,1.1-.5,1.7-.5,1,0,1.8.3,2.4,1,.6.7.9,1.6.9,2.8h0c0,.8-.1,1.5-.4,2-.3.6-.7,1-1.2,1.3-.5.3-1.1.5-1.8.5-1,0-1.8-.3-2.4-1-.6-.7-.9-1.6-.9-2.8h0ZM1497.2,73.9c0,.8.2,1.5.6,2,.4.5.9.7,1.5.7s1.2-.3,1.5-.8c.4-.5.6-1.2.6-2.1s-.2-1.5-.6-2c-.4-.5-.9-.8-1.5-.8s-1.1.2-1.5.7c-.4.5-.6,1.2-.6,2.1Z"/>
      <path class="st11" d="M1508.1,71.3c-.2,0-.4,0-.6,0-.8,0-1.4.4-1.7,1.1v5.2h-1.3v-7.4h1.2v.9c.4-.7,1-1,1.8-1s.4,0,.6,0v1.2Z"/>
      <path class="st11" d="M1510.8,70.2v.8c.6-.6,1.3-1,2.2-1s1.7.4,2.1,1.2c.2-.4.6-.6,1-.9.4-.2.9-.3,1.4-.3,1.6,0,2.4.9,2.5,2.6v5h-1.3v-4.9c0-.5-.1-.9-.4-1.2-.2-.3-.6-.4-1.2-.4s-.9.1-1.2.4-.5.7-.5,1.1v4.9h-1.3v-4.8c0-1.1-.5-1.6-1.6-1.6s-1.4.4-1.7,1.1v5.4h-1.3v-7.4h1.2Z"/>
      <path class="st11" d="M1526.6,77.6c0-.1-.1-.4-.2-.8-.6.6-1.3.9-2.1.9s-1.3-.2-1.8-.6c-.5-.4-.7-.9-.7-1.6s.3-1.4.9-1.8c.6-.4,1.4-.6,2.5-.6h1.2v-.6c0-.4-.1-.8-.4-1.1-.3-.3-.7-.4-1.2-.4s-.8.1-1.1.3c-.3.2-.5.5-.5.8h-1.3c0-.4.1-.7.4-1.1.3-.3.6-.6,1.1-.8.4-.2.9-.3,1.5-.3.9,0,1.5.2,2,.6.5.4.7,1,.8,1.8v3.4c0,.7,0,1.2.3,1.6h0c0,.1-1.3.1-1.3.1ZM1524.5,76.6c.4,0,.8-.1,1.1-.3s.6-.5.8-.8v-1.5h-1c-1.5,0-2.3.5-2.3,1.4s.1.7.4.9c.3.2.6.3,1,.3Z"/>
      <path class="st11" d="M1531.6,68.4v1.8h1.4v1h-1.4v4.6c0,.3,0,.5.2.7s.3.2.6.2.3,0,.6,0v1c-.3,0-.7.1-1,.1-.6,0-1-.2-1.3-.5s-.4-.8-.4-1.5v-4.6h-1.3v-1h1.3v-1.8h1.3Z"/>
      <path class="st11" d="M1534.2,73.8c0-.7.1-1.4.4-2,.3-.6.7-1,1.2-1.3s1.1-.5,1.7-.5c1,0,1.8.3,2.4,1s.9,1.6.9,2.8h0c0,.8-.1,1.5-.4,2-.3.6-.7,1-1.2,1.3-.5.3-1.1.5-1.8.5-1,0-1.8-.3-2.4-1s-.9-1.6-.9-2.8h0ZM1535.4,73.9c0,.8.2,1.5.6,2,.4.5.9.7,1.5.7s1.2-.3,1.5-.8c.4-.5.6-1.2.6-2.1s-.2-1.5-.6-2c-.4-.5-.9-.8-1.5-.8s-1.1.2-1.5.7c-.4.5-.6,1.2-.6,2.1Z"/>
      <path class="st11" d="M1547.8,71.1c.6-.7,1.3-1,2.2-1,1.6,0,2.4.9,2.4,2.6v4.9h-1.3v-4.9c0-.5-.1-.9-.4-1.2-.2-.3-.6-.4-1.1-.4s-.8.1-1.1.3-.6.5-.7.9v5.3h-1.3v-10.5h1.3v4Z"/>
      <path class="st11" d="M1554.1,73.8c0-.7.1-1.4.4-2,.3-.6.7-1,1.2-1.3.5-.3,1.1-.5,1.7-.5,1,0,1.8.3,2.4,1,.6.7.9,1.6.9,2.8h0c0,.8-.1,1.5-.4,2-.3.6-.7,1-1.2,1.3-.5.3-1.1.5-1.8.5-1,0-1.8-.3-2.4-1-.6-.7-.9-1.6-.9-2.8h0ZM1555.4,73.9c0,.8.2,1.5.6,2,.4.5.9.7,1.5.7s1.2-.3,1.5-.8c.4-.5.6-1.2.6-2.1s-.2-1.5-.6-2c-.4-.5-.9-.8-1.5-.8s-1.1.2-1.5.7c-.4.5-.6,1.2-.6,2.1Z"/>
      <path class="st11" d="M1566.3,71.3c-.2,0-.4,0-.6,0-.8,0-1.4.4-1.7,1.1v5.2h-1.3v-7.4h1.2v.9c.4-.7,1-1,1.8-1s.4,0,.6,0v1.2Z"/>
      <path class="st11" d="M1567.7,68.2c0-.2,0-.4.2-.5.1-.1.3-.2.6-.2s.4,0,.6.2c.1.1.2.3.2.5s0,.4-.2.5-.3.2-.6.2-.4,0-.6-.2c-.1-.1-.2-.3-.2-.5ZM1569.1,77.6h-1.3v-7.4h1.3v7.4Z"/>
      <path class="st11" d="M1572.4,76.5h4.3v1h-5.9v-.9l4.1-5.4h-4v-1h5.6v.9l-4.1,5.5Z"/>
      <path class="st11" d="M1577.8,73.8c0-.7.1-1.4.4-2,.3-.6.7-1,1.2-1.3.5-.3,1.1-.5,1.7-.5,1,0,1.8.3,2.4,1,.6.7.9,1.6.9,2.8h0c0,.8-.1,1.5-.4,2-.3.6-.7,1-1.2,1.3-.5.3-1.1.5-1.8.5-1,0-1.8-.3-2.4-1-.6-.7-.9-1.6-.9-2.8h0ZM1579.1,73.9c0,.8.2,1.5.6,2,.4.5.9.7,1.5.7s1.2-.3,1.5-.8c.4-.5.6-1.2.6-2.1s-.2-1.5-.6-2c-.4-.5-.9-.8-1.5-.8s-1.1.2-1.5.7c-.4.5-.6,1.2-.6,2.1Z"/>
      <path class="st11" d="M1587.6,70.2v.9c.6-.7,1.3-1.1,2.3-1.1,1.6,0,2.4.9,2.4,2.6v4.9h-1.3v-4.9c0-.5-.1-.9-.4-1.2-.2-.3-.6-.4-1.1-.4s-.8.1-1.1.3c-.3.2-.6.5-.7.9v5.3h-1.3v-7.4h1.2Z"/>
      <path class="st11" d="M1596.1,68.4v1.8h1.4v1h-1.4v4.6c0,.3,0,.5.2.7s.3.2.6.2.3,0,.6,0v1c-.3,0-.7.1-1,.1-.6,0-1-.2-1.3-.5s-.4-.8-.4-1.5v-4.6h-1.3v-1h1.3v-1.8h1.3Z"/>
      <path class="st11" d="M1603.7,77.6c0-.1-.1-.4-.2-.8-.6.6-1.3.9-2.1.9s-1.3-.2-1.8-.6c-.5-.4-.7-.9-.7-1.6s.3-1.4.9-1.8c.6-.4,1.4-.6,2.5-.6h1.2v-.6c0-.4-.1-.8-.4-1.1-.3-.3-.7-.4-1.2-.4s-.8.1-1.1.3c-.3.2-.5.5-.5.8h-1.3c0-.4.1-.7.4-1.1.3-.3.6-.6,1.1-.8.4-.2.9-.3,1.5-.3.9,0,1.5.2,2,.6.5.4.7,1,.8,1.8v3.4c0,.7,0,1.2.3,1.6h0c0,.1-1.3.1-1.3.1ZM1601.6,76.6c.4,0,.8-.1,1.1-.3s.6-.5.8-.8v-1.5h-1c-1.5,0-2.3.5-2.3,1.4s.1.7.4.9c.3.2.6.3,1,.3Z"/>
      <path class="st11" d="M1608.3,77.6h-1.3v-10.5h1.3v10.5Z"/>
      <path class="st11" d="M1610.7,79.5l-.7-.5c.4-.6.7-1.2.7-1.8v-1.1h1.2v1c0,.5-.1.9-.3,1.4-.2.5-.5.8-.9,1.1Z"/>
      <path class="st11" d="M1621.8,75.6c0-.3-.1-.6-.4-.8-.3-.2-.7-.4-1.3-.5-.6-.1-1.1-.3-1.5-.5-.4-.2-.7-.4-.8-.7-.2-.3-.3-.6-.3-.9,0-.6.3-1.1.8-1.5.5-.4,1.2-.6,2-.6s1.5.2,2,.6c.5.4.8,1,.8,1.7h-1.3c0-.3-.1-.6-.4-.9-.3-.3-.7-.4-1.1-.4s-.8.1-1.1.3c-.3.2-.4.5-.4.8s.1.5.4.7c.2.2.7.3,1.3.4.6.1,1.1.3,1.5.5.4.2.7.4.9.7.2.3.3.6.3,1,0,.7-.3,1.2-.8,1.6-.5.4-1.2.6-2.1.6s-1.1-.1-1.6-.3c-.5-.2-.8-.5-1.1-.9-.3-.4-.4-.8-.4-1.2h1.3c0,.4.2.8.5,1,.3.2.7.4,1.3.4s.9,0,1.2-.3c.3-.2.4-.5.4-.8Z"/>
      <path class="st11" d="M1627.9,77.7c-1,0-1.8-.3-2.4-1-.6-.7-.9-1.5-.9-2.6v-.2c0-.7.1-1.4.4-2,.3-.6.7-1,1.2-1.4.5-.3,1-.5,1.6-.5,1,0,1.7.3,2.2,1,.5.6.8,1.5.8,2.7v.5h-5c0,.7.2,1.3.6,1.8.4.4.9.7,1.6.7s.8,0,1.1-.3c.3-.2.6-.4.8-.7l.8.6c-.6,1-1.5,1.4-2.8,1.4ZM1627.8,71.1c-.5,0-.9.2-1.3.6-.3.4-.6.9-.6,1.6h3.7c0-.7-.2-1.2-.5-1.6-.3-.4-.7-.5-1.3-.5Z"/>
      <path class="st11" d="M1640.9,76.8c-.5.6-1.2.9-2.2.9s-1.4-.2-1.8-.7c-.4-.5-.6-1.1-.6-2v-4.8h1.3v4.8c0,1.1.5,1.7,1.4,1.7s1.6-.4,1.9-1.1v-5.4h1.3v7.4h-1.2v-.7Z"/>
      <path class="st11" d="M1646.1,68.4v1.8h1.4v1h-1.4v4.6c0,.3,0,.5.2.7s.3.2.6.2.3,0,.6,0v1c-.3,0-.7.1-1,.1-.6,0-1-.2-1.3-.5s-.4-.8-.4-1.5v-4.6h-1.3v-1h1.3v-1.8h1.3Z"/>
      <path class="st11" d="M1649.1,68.2c0-.2,0-.4.2-.5.1-.1.3-.2.6-.2s.4,0,.6.2c.1.1.2.3.2.5s0,.4-.2.5-.3.2-.6.2-.4,0-.6-.2c-.1-.1-.2-.3-.2-.5ZM1650.5,77.6h-1.3v-7.4h1.3v7.4Z"/>
      <path class="st11" d="M1654,77.6h-1.3v-10.5h1.3v10.5Z"/>
      <path class="st11" d="M1656.2,68.2c0-.2,0-.4.2-.5.1-.1.3-.2.6-.2s.4,0,.6.2c.1.1.2.3.2.5s0,.4-.2.5c-.1.1-.3.2-.6.2s-.4,0-.6-.2-.2-.3-.2-.5ZM1657.6,77.6h-1.3v-7.4h1.3v7.4Z"/>
      <path class="st11" d="M1662.8,73.8h-3.3v-1h3.3v1Z"/>
      <path class="st11" d="M917.3,97.5h4.3v1h-5.9v-.9l4.1-5.4h-4v-1h5.6v.9l-4.1,5.5Z"/>
      <path class="st11" d="M927.8,98.6c0-.1-.1-.4-.2-.8-.6.6-1.3.9-2.1.9s-1.3-.2-1.8-.6c-.5-.4-.7-.9-.7-1.6s.3-1.4.9-1.8c.6-.4,1.4-.6,2.5-.6h1.2v-.6c0-.4-.1-.8-.4-1.1-.3-.3-.7-.4-1.2-.4s-.8.1-1.1.3c-.3.2-.5.5-.5.8h-1.3c0-.4.1-.7.4-1.1.3-.3.6-.6,1.1-.8.4-.2.9-.3,1.5-.3.9,0,1.5.2,2,.6.5.4.7,1,.8,1.8v3.4c0,.7,0,1.2.3,1.6h0c0,.1-1.3.1-1.3.1ZM925.7,97.6c.4,0,.8-.1,1.1-.3s.6-.5.8-.8v-1.5h-1c-1.5,0-2.3.5-2.3,1.4s.1.7.4.9c.3.2.6.3,1,.3Z"/>
      <path class="st11" d="M934.6,92.3c-.2,0-.4,0-.6,0-.8,0-1.4.4-1.7,1.1v5.2h-1.3v-7.4h1.2v.9c.4-.7,1-1,1.8-1s.4,0,.6,0v1.2Z"/>
      <path class="st11" d="M940.6,98.6c0-.1-.1-.4-.2-.8-.6.6-1.3.9-2.1.9s-1.3-.2-1.8-.6c-.5-.4-.7-.9-.7-1.6s.3-1.4.9-1.8c.6-.4,1.4-.6,2.5-.6h1.2v-.6c0-.4-.1-.8-.4-1.1-.3-.3-.7-.4-1.2-.4s-.8.1-1.1.3c-.3.2-.5.5-.5.8h-1.3c0-.4.1-.7.4-1.1.3-.3.6-.6,1.1-.8.4-.2.9-.3,1.5-.3.9,0,1.5.2,2,.6.5.4.7,1,.8,1.8v3.4c0,.7,0,1.2.3,1.6h0c0,.1-1.3.1-1.3.1ZM938.5,97.6c.4,0,.8-.1,1.1-.3s.6-.5.8-.8v-1.5h-1c-1.5,0-2.3.5-2.3,1.4s.1.7.4.9c.3.2.6.3,1,.3ZM939.7,88.1h1.5l-1.8,2h-1s1.3-2,1.3-2Z"/>
      <path class="st11" d="M952.3,97.8c-.5.6-1.2.9-2.2.9s-1.4-.2-1.8-.7c-.4-.5-.6-1.1-.6-2v-4.8h1.3v4.8c0,1.1.5,1.7,1.4,1.7s1.6-.4,1.9-1.1v-5.4h1.3v7.4h-1.2v-.7ZM951.3,88.1h1.5l-1.8,2h-1s1.3-2,1.3-2Z"/>
      <path class="st11" d="M956.9,91.2v.9c.6-.7,1.3-1.1,2.3-1.1,1.6,0,2.4.9,2.4,2.6v4.9h-1.3v-4.9c0-.5-.1-.9-.4-1.2-.2-.3-.6-.4-1.1-.4s-.8.1-1.1.3c-.3.2-.6.5-.7.9v5.3h-1.3v-7.4h1.2Z"/>
      <path class="st11" d="M963.6,89.2c0-.2,0-.4.2-.5.1-.1.3-.2.6-.2s.4,0,.6.2c.1.1.2.3.2.5s0,.4-.2.5c-.1.1-.3.2-.6.2s-.4,0-.6-.2c-.1-.1-.2-.3-.2-.5ZM965,98.6h-1.3v-7.4h1.3v7.4Z"/>
      <path class="st11" d="M970.2,97.7c.5,0,.8-.1,1.2-.4.3-.3.5-.6.6-1h1.2c0,.4-.2.8-.4,1.2-.3.4-.6.7-1.1.9-.4.2-.9.3-1.4.3-1,0-1.8-.3-2.4-1-.6-.7-.9-1.6-.9-2.8v-.2c0-.7.1-1.4.4-1.9.3-.6.6-1,1.1-1.3.5-.3,1.1-.5,1.8-.5s1.5.2,2.1.7c.5.5.8,1.1.9,1.9h-1.2c0-.5-.2-.9-.5-1.2-.3-.3-.7-.5-1.2-.5s-1.1.2-1.5.7c-.4.5-.5,1.1-.5,2v.2c0,.9.2,1.5.5,2,.4.5.9.7,1.5.7Z"/>
      <path class="st11" d="M979.4,98.6c0-.1-.1-.4-.2-.8-.6.6-1.3.9-2.1.9s-1.3-.2-1.8-.6c-.5-.4-.7-.9-.7-1.6s.3-1.4.9-1.8c.6-.4,1.4-.6,2.5-.6h1.2v-.6c0-.4-.1-.8-.4-1.1-.3-.3-.7-.4-1.2-.4s-.8.1-1.1.3c-.3.2-.5.5-.5.8h-1.3c0-.4.1-.7.4-1.1.3-.3.6-.6,1.1-.8.4-.2.9-.3,1.5-.3.9,0,1.5.2,2,.6.5.4.7,1,.8,1.8v3.4c0,.7,0,1.2.3,1.6h0c0,.1-1.3.1-1.3.1ZM977.3,97.6c.4,0,.8-.1,1.1-.3s.6-.5.8-.8v-1.5h-1c-1.5,0-2.3.5-2.3,1.4s.1.7.4.9c.3.2.6.3,1,.3Z"/>
      <path class="st11" d="M983.9,91.2v.8c.6-.6,1.3-1,2.2-1s1.7.4,2.1,1.2c.2-.4.6-.6,1-.9.4-.2.9-.3,1.4-.3,1.6,0,2.4.9,2.5,2.6v5h-1.3v-4.9c0-.5-.1-.9-.4-1.2-.2-.3-.6-.4-1.2-.4s-.9.1-1.2.4c-.3.3-.5.7-.5,1.1v4.9h-1.3v-4.8c0-1.1-.5-1.6-1.6-1.6s-1.4.4-1.7,1.1v5.4h-1.3v-7.4h1.2Z"/>
      <path class="st11" d="M998.3,98.7c-1,0-1.8-.3-2.4-1-.6-.7-.9-1.5-.9-2.6v-.2c0-.7.1-1.4.4-2,.3-.6.7-1,1.2-1.4.5-.3,1-.5,1.6-.5,1,0,1.7.3,2.2,1,.5.6.8,1.5.8,2.7v.5h-5c0,.7.2,1.3.6,1.8.4.4.9.7,1.6.7s.8,0,1.1-.3c.3-.2.6-.4.8-.7l.8.6c-.6,1-1.5,1.4-2.8,1.4ZM998.1,92.1c-.5,0-.9.2-1.3.6-.3.4-.6.9-.6,1.6h3.7c0-.7-.2-1.2-.5-1.6-.3-.4-.7-.5-1.3-.5Z"/>
      <path class="st11" d="M1004.2,91.2v.9c.6-.7,1.3-1.1,2.3-1.1,1.6,0,2.4.9,2.4,2.6v4.9h-1.3v-4.9c0-.5-.1-.9-.4-1.2-.2-.3-.6-.4-1.1-.4s-.8.1-1.1.3c-.3.2-.6.5-.7.9v5.3h-1.3v-7.4h1.2Z"/>
      <path class="st11" d="M1012.7,89.4v1.8h1.4v1h-1.4v4.6c0,.3,0,.5.2.7s.3.2.6.2.3,0,.6,0v1c-.3,0-.7.1-1,.1-.6,0-1-.2-1.3-.5s-.4-.8-.4-1.5v-4.6h-1.3v-1h1.3v-1.8h1.3Z"/>
      <path class="st11" d="M1018.7,98.7c-1,0-1.8-.3-2.4-1-.6-.7-.9-1.5-.9-2.6v-.2c0-.7.1-1.4.4-2,.3-.6.7-1,1.2-1.4.5-.3,1-.5,1.6-.5,1,0,1.7.3,2.2,1,.5.6.8,1.5.8,2.7v.5h-5c0,.7.2,1.3.6,1.8.4.4.9.7,1.6.7s.8,0,1.1-.3c.3-.2.6-.4.8-.7l.8.6c-.6,1-1.5,1.4-2.8,1.4ZM1018.5,92.1c-.5,0-.9.2-1.3.6-.3.4-.6.9-.6,1.6h3.7c0-.7-.2-1.2-.5-1.6-.3-.4-.7-.5-1.3-.5Z"/>
      <path class="st11" d="M1030.1,98.7c-1,0-1.8-.3-2.4-1-.6-.7-.9-1.5-.9-2.6v-.2c0-.7.1-1.4.4-2,.3-.6.7-1,1.2-1.4.5-.3,1-.5,1.6-.5,1,0,1.7.3,2.2,1,.5.6.8,1.5.8,2.7v.5h-5c0,.7.2,1.3.6,1.8.4.4.9.7,1.6.7s.8,0,1.1-.3c.3-.2.6-.4.8-.7l.8.6c-.6,1-1.5,1.4-2.8,1.4ZM1030,92.1c-.5,0-.9.2-1.3.6-.3.4-.6.9-.6,1.6h3.7c0-.7-.2-1.2-.5-1.6-.3-.4-.7-.5-1.3-.5Z"/>
      <path class="st11" d="M1036.1,98.6h-1.3v-10.5h1.3v10.5Z"/>
      <path class="st11" d="M1043.6,98.6h-1.3v-10.5h1.3v10.5Z"/>
      <path class="st11" d="M1045.5,94.8c0-.7.1-1.4.4-2,.3-.6.7-1,1.2-1.3.5-.3,1.1-.5,1.7-.5,1,0,1.8.3,2.4,1s.9,1.6.9,2.8h0c0,.8-.1,1.5-.4,2-.3.6-.7,1-1.2,1.3-.5.3-1.1.5-1.8.5-1,0-1.8-.3-2.4-1s-.9-1.6-.9-2.8h0ZM1046.7,94.9c0,.8.2,1.5.6,2,.4.5.9.7,1.5.7s1.2-.3,1.5-.8c.4-.5.6-1.2.6-2.1s-.2-1.5-.6-2c-.4-.5-.9-.8-1.5-.8s-1.1.2-1.5.7c-.4.5-.6,1.2-.6,2.1Z"/>
      <path class="st11" d="M1053.7,94.8c0-1.2.3-2.1.8-2.8.5-.7,1.2-1,2.1-1s1.6.3,2.1,1v-.8h1.2v7.2c0,1-.3,1.7-.9,2.3-.6.6-1.3.8-2.3.8s-1.1-.1-1.6-.3c-.5-.2-.9-.5-1.2-.9l.7-.8c.5.7,1.2,1,2,1s1.1-.2,1.4-.5c.3-.3.5-.8.5-1.5v-.6c-.5.6-1.2.9-2.1.9s-1.6-.3-2.1-1c-.5-.7-.8-1.6-.8-2.9ZM1055,94.9c0,.8.2,1.5.5,2,.3.5.8.7,1.4.7s1.4-.4,1.8-1.1v-3.4c-.4-.7-1-1.1-1.7-1.1s-1.1.2-1.4.7-.5,1.2-.5,2.1Z"/>
      <path class="st11" d="M1061.8,94.8c0-.7.1-1.4.4-2,.3-.6.7-1,1.2-1.3s1.1-.5,1.7-.5c1,0,1.8.3,2.4,1s.9,1.6.9,2.8h0c0,.8-.1,1.5-.4,2-.3.6-.7,1-1.2,1.3-.5.3-1.1.5-1.8.5-1,0-1.8-.3-2.4-1s-.9-1.6-.9-2.8h0ZM1063.1,94.9c0,.8.2,1.5.6,2,.4.5.9.7,1.5.7s1.2-.3,1.5-.8c.4-.5.6-1.2.6-2.1s-.2-1.5-.6-2c-.4-.5-.9-.8-1.5-.8s-1.1.2-1.5.7c-.4.5-.6,1.2-.6,2.1Z"/>
      <path class="st11" d="M1072.1,89.4v1.8h1.4v1h-1.4v4.6c0,.3,0,.5.2.7s.3.2.6.2.3,0,.6,0v1c-.3,0-.7.1-1,.1-.6,0-1-.2-1.3-.5s-.4-.8-.4-1.5v-4.6h-1.3v-1h1.3v-1.8h1.3Z"/>
      <path class="st11" d="M1075.1,89.2c0-.2,0-.4.2-.5.1-.1.3-.2.6-.2s.4,0,.6.2c.1.1.2.3.2.5s0,.4-.2.5c-.1.1-.3.2-.6.2s-.4,0-.6-.2-.2-.3-.2-.5ZM1076.4,98.6h-1.3v-7.4h1.3v7.4Z"/>
      <path class="st11" d="M1084.9,94.9c0,1.1-.3,2-.8,2.7-.5.7-1.2,1-2.1,1s-1.6-.3-2.1-.9v3.6h-1.3v-10.2h1.2v.8c.6-.6,1.3-1,2.2-1s1.6.3,2.1,1,.8,1.6.8,2.8h0ZM1083.7,94.8c0-.8-.2-1.5-.5-2-.4-.5-.8-.7-1.5-.7s-1.3.3-1.7,1v3.5c.4.7,1,1,1.7,1s1.1-.2,1.4-.7c.4-.5.5-1.2.5-2.1Z"/>
      <path class="st11" d="M1086.5,94.8c0-.7.1-1.4.4-2,.3-.6.7-1,1.2-1.3.5-.3,1.1-.5,1.7-.5,1,0,1.8.3,2.4,1,.6.7.9,1.6.9,2.8h0c0,.8-.1,1.5-.4,2-.3.6-.7,1-1.2,1.3-.5.3-1.1.5-1.8.5-1,0-1.8-.3-2.4-1-.6-.7-.9-1.6-.9-2.8h0ZM1087.8,94.9c0,.8.2,1.5.6,2,.4.5.9.7,1.5.7s1.2-.3,1.5-.8c.4-.5.6-1.2.6-2.1s-.2-1.5-.6-2c-.4-.5-.9-.8-1.5-.8s-1.1.2-1.5.7c-.4.5-.6,1.2-.6,2.1Z"/>
      <path class="st11" d="M1098.5,94.8c0-.7.1-1.4.4-2,.3-.6.7-1,1.2-1.3s1.1-.5,1.7-.5c1,0,1.8.3,2.4,1s.9,1.6.9,2.8h0c0,.8-.1,1.5-.4,2-.3.6-.7,1-1.2,1.3-.5.3-1.1.5-1.8.5-1,0-1.8-.3-2.4-1s-.9-1.6-.9-2.8h0ZM1099.8,94.9c0,.8.2,1.5.6,2,.4.5.9.7,1.5.7s1.2-.3,1.5-.8c.4-.5.6-1.2.6-2.1s-.2-1.5-.6-2c-.4-.5-.9-.8-1.5-.8s-1.1.2-1.5.7c-.4.5-.6,1.2-.6,2.1Z"/>
      <path class="st11" d="M1113.9,98.7c-1,0-1.8-.3-2.4-1-.6-.7-.9-1.5-.9-2.6v-.2c0-.7.1-1.4.4-2,.3-.6.7-1,1.2-1.4.5-.3,1-.5,1.6-.5,1,0,1.7.3,2.2,1,.5.6.8,1.5.8,2.7v.5h-5c0,.7.2,1.3.6,1.8.4.4.9.7,1.6.7s.8,0,1.1-.3c.3-.2.6-.4.8-.7l.8.6c-.6,1-1.5,1.4-2.8,1.4ZM1113.7,92.1c-.5,0-.9.2-1.3.6-.3.4-.6.9-.6,1.6h3.7c0-.7-.2-1.2-.5-1.6-.3-.4-.7-.5-1.3-.5Z"/>
      <path class="st11" d="M1119.9,98.6h-1.3v-10.5h1.3v10.5Z"/>
      <path class="st11" d="M1126,89.2c0-.2,0-.4.2-.5.1-.1.3-.2.6-.2s.4,0,.6.2c.1.1.2.3.2.5s0,.4-.2.5-.3.2-.6.2-.4,0-.6-.2c-.1-.1-.2-.3-.2-.5ZM1127.3,98.6h-1.3v-7.4h1.3v7.4Z"/>
      <path class="st11" d="M1133.8,96.6c0-.3-.1-.6-.4-.8-.3-.2-.7-.4-1.3-.5s-1.1-.3-1.5-.5-.7-.4-.8-.7c-.2-.3-.3-.6-.3-.9,0-.6.3-1.1.8-1.5.5-.4,1.2-.6,2-.6s1.5.2,2,.6c.5.4.8,1,.8,1.7h-1.3c0-.3-.1-.6-.4-.9-.3-.3-.7-.4-1.1-.4s-.8.1-1.1.3c-.3.2-.4.5-.4.8s.1.5.4.7c.2.2.7.3,1.3.4.6.1,1.1.3,1.5.5.4.2.7.4.9.7.2.3.3.6.3,1,0,.7-.3,1.2-.8,1.6-.5.4-1.2.6-2.1.6s-1.1-.1-1.6-.3c-.5-.2-.8-.5-1.1-.9s-.4-.8-.4-1.2h1.3c0,.4.2.8.5,1,.3.2.7.4,1.3.4s.9,0,1.2-.3c.3-.2.4-.5.4-.8Z"/>
      <path class="st11" d="M1136.6,94.8c0-.7.1-1.4.4-2,.3-.6.7-1,1.2-1.3.5-.3,1.1-.5,1.7-.5,1,0,1.8.3,2.4,1,.6.7.9,1.6.9,2.8h0c0,.8-.1,1.5-.4,2-.3.6-.7,1-1.2,1.3-.5.3-1.1.5-1.8.5-1,0-1.8-.3-2.4-1-.6-.7-.9-1.6-.9-2.8h0ZM1137.9,94.9c0,.8.2,1.5.6,2,.4.5.9.7,1.5.7s1.2-.3,1.5-.8c.4-.5.6-1.2.6-2.1s-.2-1.5-.6-2c-.4-.5-.9-.8-1.5-.8s-1.1.2-1.5.7c-.4.5-.6,1.2-.6,2.1Z"/>
      <path class="st11" d="M1146.8,89.4v1.8h1.4v1h-1.4v4.6c0,.3,0,.5.2.7s.3.2.6.2.3,0,.6,0v1c-.3,0-.7.1-1,.1-.6,0-1-.2-1.3-.5s-.4-.8-.4-1.5v-4.6h-1.3v-1h1.3v-1.8h1.3Z"/>
      <path class="st11" d="M1149.8,89.2c0-.2,0-.4.2-.5.1-.1.3-.2.6-.2s.4,0,.6.2c.1.1.2.3.2.5s0,.4-.2.5c-.1.1-.3.2-.6.2s-.4,0-.6-.2-.2-.3-.2-.5ZM1151.2,98.6h-1.3v-7.4h1.3v7.4Z"/>
      <path class="st11" d="M1159.7,94.9c0,1.1-.3,2-.8,2.7-.5.7-1.2,1-2.1,1s-1.6-.3-2.1-.9v3.6h-1.3v-10.2h1.2v.8c.6-.6,1.3-1,2.2-1s1.6.3,2.1,1,.8,1.6.8,2.8h0ZM1158.4,94.8c0-.8-.2-1.5-.5-2-.4-.5-.8-.7-1.5-.7s-1.3.3-1.7,1v3.5c.4.7,1,1,1.7,1s1.1-.2,1.4-.7c.4-.5.5-1.2.5-2.1Z"/>
      <path class="st11" d="M1161.2,94.8c0-.7.1-1.4.4-2,.3-.6.7-1,1.2-1.3.5-.3,1.1-.5,1.7-.5,1,0,1.8.3,2.4,1,.6.7.9,1.6.9,2.8h0c0,.8-.1,1.5-.4,2-.3.6-.7,1-1.2,1.3-.5.3-1.1.5-1.8.5-1,0-1.8-.3-2.4-1-.6-.7-.9-1.6-.9-2.8h0ZM1162.5,94.9c0,.8.2,1.5.6,2,.4.5.9.7,1.5.7s1.2-.3,1.5-.8c.4-.5.6-1.2.6-2.1s-.2-1.5-.6-2c-.4-.5-.9-.8-1.5-.8s-1.1.2-1.5.7c-.4.5-.6,1.2-.6,2.1Z"/>
      <path class="st11" d="M1177.9,96.6c0-.3-.1-.6-.4-.8-.3-.2-.7-.4-1.3-.5s-1.1-.3-1.5-.5-.7-.4-.8-.7c-.2-.3-.3-.6-.3-.9,0-.6.3-1.1.8-1.5.5-.4,1.2-.6,2-.6s1.5.2,2,.6c.5.4.8,1,.8,1.7h-1.3c0-.3-.1-.6-.4-.9-.3-.3-.7-.4-1.1-.4s-.8.1-1.1.3c-.3.2-.4.5-.4.8s.1.5.4.7c.2.2.7.3,1.3.4.6.1,1.1.3,1.5.5s.7.4.9.7c.2.3.3.6.3,1,0,.7-.3,1.2-.8,1.6-.5.4-1.2.6-2.1.6s-1.1-.1-1.6-.3c-.5-.2-.8-.5-1.1-.9s-.4-.8-.4-1.2h1.3c0,.4.2.8.5,1,.3.2.7.4,1.3.4s.9,0,1.2-.3c.3-.2.4-.5.4-.8Z"/>
      <path class="st11" d="M1184.1,98.7c-1,0-1.8-.3-2.4-1-.6-.7-.9-1.5-.9-2.6v-.2c0-.7.1-1.4.4-2,.3-.6.7-1,1.2-1.4.5-.3,1-.5,1.6-.5,1,0,1.7.3,2.2,1,.5.6.8,1.5.8,2.7v.5h-5c0,.7.2,1.3.6,1.8.4.4.9.7,1.6.7s.8,0,1.1-.3c.3-.2.6-.4.8-.7l.8.6c-.6,1-1.5,1.4-2.8,1.4ZM1183.9,92.1c-.5,0-.9.2-1.3.6-.3.4-.6.9-.6,1.6h3.7c0-.7-.2-1.2-.5-1.6-.3-.4-.7-.5-1.3-.5Z"/>
      <path class="st11" d="M1188.4,94.8c0-1.2.3-2.1.8-2.8.5-.7,1.2-1,2.1-1s1.6.3,2.1,1v-.8h1.2v7.2c0,1-.3,1.7-.9,2.3-.6.6-1.3.8-2.3.8s-1.1-.1-1.6-.3c-.5-.2-.9-.5-1.2-.9l.7-.8c.5.7,1.2,1,2,1s1.1-.2,1.4-.5c.3-.3.5-.8.5-1.5v-.6c-.5.6-1.2.9-2.1.9s-1.6-.3-2.1-1-.8-1.6-.8-2.9ZM1189.7,94.9c0,.8.2,1.5.5,2,.3.5.8.7,1.4.7s1.4-.4,1.8-1.1v-3.4c-.4-.7-1-1.1-1.7-1.1s-1.1.2-1.4.7c-.3.5-.5,1.2-.5,2.1Z"/>
      <path class="st11" d="M1201.4,97.8c-.5.6-1.2.9-2.2.9s-1.4-.2-1.8-.7c-.4-.5-.6-1.1-.6-2v-4.8h1.3v4.8c0,1.1.5,1.7,1.4,1.7s1.6-.4,1.9-1.1v-5.4h1.3v7.4h-1.2v-.7ZM1200.4,88.1h1.5l-1.8,2h-1s1.3-2,1.3-2Z"/>
      <path class="st11" d="M1206,91.2v.9c.6-.7,1.3-1.1,2.3-1.1,1.6,0,2.4.9,2.4,2.6v4.9h-1.3v-4.9c0-.5-.1-.9-.4-1.2-.2-.3-.6-.4-1.1-.4s-.8.1-1.1.3c-.3.2-.6.5-.7.9v5.3h-1.3v-7.4h1.2Z"/>
      <path class="st11" d="M1218,98.6h-1.3v-10.5h1.3v10.5Z"/>
      <path class="st11" d="M1219.9,94.8c0-.7.1-1.4.4-2,.3-.6.7-1,1.2-1.3s1.1-.5,1.7-.5c1,0,1.8.3,2.4,1s.9,1.6.9,2.8h0c0,.8-.1,1.5-.4,2-.3.6-.7,1-1.2,1.3-.5.3-1.1.5-1.8.5-1,0-1.8-.3-2.4-1s-.9-1.6-.9-2.8h0ZM1221.2,94.9c0,.8.2,1.5.6,2,.4.5.9.7,1.5.7s1.2-.3,1.5-.8c.4-.5.6-1.2.6-2.1s-.2-1.5-.6-2c-.4-.5-.9-.8-1.5-.8s-1.1.2-1.5.7c-.4.5-.6,1.2-.6,2.1Z"/>
      <path class="st11" d="M1236.8,98.6c0-.1-.1-.4-.2-.8-.6.6-1.3.9-2.1.9s-1.3-.2-1.8-.6c-.5-.4-.7-.9-.7-1.6s.3-1.4.9-1.8c.6-.4,1.4-.6,2.5-.6h1.2v-.6c0-.4-.1-.8-.4-1.1-.3-.3-.7-.4-1.2-.4s-.8.1-1.1.3c-.3.2-.5.5-.5.8h-1.3c0-.4.1-.7.4-1.1.3-.3.6-.6,1.1-.8.4-.2.9-.3,1.5-.3.9,0,1.5.2,2,.6.5.4.7,1,.8,1.8v3.4c0,.7,0,1.2.3,1.6h0c0,.1-1.3.1-1.3.1ZM1234.7,97.6c.4,0,.8-.1,1.1-.3s.6-.5.8-.8v-1.5h-1c-1.5,0-2.3.5-2.3,1.4s.1.7.4.9c.3.2.6.3,1,.3Z"/>
      <path class="st11" d="M1241.3,91.2v.8c.6-.6,1.3-1,2.2-1s1.7.4,2.1,1.2c.2-.4.6-.6,1-.9.4-.2.9-.3,1.4-.3,1.6,0,2.4.9,2.5,2.6v5h-1.3v-4.9c0-.5-.1-.9-.4-1.2-.2-.3-.6-.4-1.2-.4s-.9.1-1.2.4-.5.7-.5,1.1v4.9h-1.3v-4.8c0-1.1-.5-1.6-1.6-1.6s-1.4.4-1.7,1.1v5.4h-1.3v-7.4h1.2Z"/>
      <path class="st11" d="M1255.7,98.7c-1,0-1.8-.3-2.4-1-.6-.7-.9-1.5-.9-2.6v-.2c0-.7.1-1.4.4-2,.3-.6.7-1,1.2-1.4.5-.3,1-.5,1.6-.5,1,0,1.7.3,2.2,1,.5.6.8,1.5.8,2.7v.5h-5c0,.7.2,1.3.6,1.8.4.4.9.7,1.6.7s.8,0,1.1-.3c.3-.2.6-.4.8-.7l.8.6c-.6,1-1.5,1.4-2.8,1.4ZM1255.5,92.1c-.5,0-.9.2-1.3.6-.3.4-.6.9-.6,1.6h3.7c0-.7-.2-1.2-.5-1.6-.3-.4-.7-.5-1.3-.5Z"/>
      <path class="st11" d="M1263.9,92.3c-.2,0-.4,0-.6,0-.8,0-1.4.4-1.7,1.1v5.2h-1.3v-7.4h1.2v.9c.4-.7,1-1,1.8-1s.4,0,.6,0v1.2Z"/>
      <path class="st11" d="M1265.4,89.2c0-.2,0-.4.2-.5.1-.1.3-.2.6-.2s.4,0,.6.2c.1.1.2.3.2.5s0,.4-.2.5c-.1.1-.3.2-.6.2s-.4,0-.6-.2-.2-.3-.2-.5ZM1266.7,98.6h-1.3v-7.4h1.3v7.4Z"/>
      <path class="st11" d="M1270.8,89.4v1.8h1.4v1h-1.4v4.6c0,.3,0,.5.2.7s.3.2.6.2.3,0,.6,0v1c-.3,0-.7.1-1,.1-.6,0-1-.2-1.3-.5s-.4-.8-.4-1.5v-4.6h-1.3v-1h1.3v-1.8h1.3Z"/>
      <path class="st11" d="M1276.8,98.7c-1,0-1.8-.3-2.4-1-.6-.7-.9-1.5-.9-2.6v-.2c0-.7.1-1.4.4-2,.3-.6.7-1,1.2-1.4.5-.3,1-.5,1.6-.5,1,0,1.7.3,2.2,1,.5.6.8,1.5.8,2.7v.5h-5c0,.7.2,1.3.6,1.8.4.4.9.7,1.6.7s.8,0,1.1-.3c.3-.2.6-.4.8-.7l.8.6c-.6,1-1.5,1.4-2.8,1.4ZM1276.6,92.1c-.5,0-.9.2-1.3.6-.3.4-.6.9-.6,1.6h3.7c0-.7-.2-1.2-.5-1.6-.3-.4-.7-.5-1.3-.5Z"/>
      <path class="st11" d="M1286.5,98.6h-1.3v-10.5h1.3v10.5Z"/>
      <path class="st11" d="M1293.3,98.6c0-.1-.1-.4-.2-.8-.6.6-1.3.9-2.1.9s-1.3-.2-1.8-.6c-.5-.4-.7-.9-.7-1.6s.3-1.4.9-1.8c.6-.4,1.4-.6,2.5-.6h1.2v-.6c0-.4-.1-.8-.4-1.1-.3-.3-.7-.4-1.2-.4s-.8.1-1.1.3c-.3.2-.5.5-.5.8h-1.3c0-.4.1-.7.4-1.1.3-.3.6-.6,1.1-.8.4-.2.9-.3,1.5-.3.9,0,1.5.2,2,.6.5.4.7,1,.8,1.8v3.4c0,.7,0,1.2.3,1.6h0c0,.1-1.3.1-1.3.1ZM1291.2,97.6c.4,0,.8-.1,1.1-.3s.6-.5.8-.8v-1.5h-1c-1.5,0-2.3.5-2.3,1.4s.1.7.4.9c.3.2.6.3,1,.3Z"/>
      <path class="st11" d="M1304.9,98.6c0-.1-.1-.4-.2-.8-.6.6-1.3.9-2.1.9s-1.3-.2-1.8-.6c-.5-.4-.7-.9-.7-1.6s.3-1.4.9-1.8c.6-.4,1.4-.6,2.5-.6h1.2v-.6c0-.4-.1-.8-.4-1.1-.3-.3-.7-.4-1.2-.4s-.8.1-1.1.3c-.3.2-.5.5-.5.8h-1.3c0-.4.1-.7.4-1.1.3-.3.6-.6,1.1-.8.4-.2.9-.3,1.5-.3.9,0,1.5.2,2,.6.5.4.7,1,.8,1.8v3.4c0,.7,0,1.2.3,1.6h0c0,.1-1.3.1-1.3.1ZM1302.8,97.6c.4,0,.8-.1,1.1-.3s.6-.5.8-.8v-1.5h-1c-1.5,0-2.3.5-2.3,1.4s.1.7.4.9c.3.2.6.3,1,.3Z"/>
      <path class="st11" d="M1314.4,94.9c0,1.1-.3,2-.8,2.7-.5.7-1.2,1-2.1,1s-1.6-.3-2.1-.9v3.6h-1.3v-10.2h1.2v.8c.6-.6,1.3-1,2.2-1s1.6.3,2.1,1,.8,1.6.8,2.8h0ZM1313.2,94.8c0-.8-.2-1.5-.5-2-.4-.5-.8-.7-1.5-.7s-1.3.3-1.7,1v3.5c.4.7,1,1,1.7,1s1.1-.2,1.4-.7c.4-.5.5-1.2.5-2.1Z"/>
      <path class="st11" d="M1317.7,98.6h-1.3v-10.5h1.3v10.5Z"/>
      <path class="st11" d="M1319.9,89.2c0-.2,0-.4.2-.5.1-.1.3-.2.6-.2s.4,0,.6.2c.1.1.2.3.2.5s0,.4-.2.5-.3.2-.6.2-.4,0-.6-.2c-.1-.1-.2-.3-.2-.5ZM1321.2,98.6h-1.3v-7.4h1.3v7.4Z"/>
      <path class="st11" d="M1326.4,97.7c.5,0,.8-.1,1.2-.4.3-.3.5-.6.6-1h1.2c0,.4-.2.8-.4,1.2-.3.4-.6.7-1.1.9-.4.2-.9.3-1.4.3-1,0-1.8-.3-2.4-1-.6-.7-.9-1.6-.9-2.8v-.2c0-.7.1-1.4.4-1.9.3-.6.6-1,1.1-1.3.5-.3,1.1-.5,1.8-.5s1.5.2,2.1.7c.5.5.8,1.1.9,1.9h-1.2c0-.5-.2-.9-.5-1.2s-.7-.5-1.2-.5-1.1.2-1.5.7c-.4.5-.5,1.1-.5,2v.2c0,.9.2,1.5.5,2,.4.5.9.7,1.5.7Z"/>
      <path class="st11" d="M1335.6,98.6c0-.1-.1-.4-.2-.8-.6.6-1.3.9-2.1.9s-1.3-.2-1.8-.6c-.5-.4-.7-.9-.7-1.6s.3-1.4.9-1.8c.6-.4,1.4-.6,2.5-.6h1.2v-.6c0-.4-.1-.8-.4-1.1-.3-.3-.7-.4-1.2-.4s-.8.1-1.1.3c-.3.2-.5.5-.5.8h-1.3c0-.4.1-.7.4-1.1.3-.3.6-.6,1.1-.8.4-.2.9-.3,1.5-.3.9,0,1.5.2,2,.6.5.4.7,1,.8,1.8v3.4c0,.7,0,1.2.3,1.6h0c0,.1-1.3.1-1.3.1ZM1333.5,97.6c.4,0,.8-.1,1.1-.3s.6-.5.8-.8v-1.5h-1c-1.5,0-2.3.5-2.3,1.4s.1.7.4.9c.3.2.6.3,1,.3Z"/>
      <path class="st11" d="M1341.8,97.7c.5,0,.8-.1,1.2-.4s.5-.6.6-1h1.2c0,.4-.2.8-.4,1.2s-.6.7-1.1.9c-.4.2-.9.3-1.4.3-1,0-1.8-.3-2.4-1-.6-.7-.9-1.6-.9-2.8v-.2c0-.7.1-1.4.4-1.9s.6-1,1.1-1.3c.5-.3,1.1-.5,1.8-.5s1.5.2,2.1.7c.5.5.8,1.1.9,1.9h-1.2c0-.5-.2-.9-.5-1.2-.3-.3-.7-.5-1.2-.5s-1.1.2-1.5.7c-.4.5-.5,1.1-.5,2v.2c0,.9.2,1.5.5,2,.4.5.9.7,1.5.7Z"/>
      <path class="st11" d="M1346.5,89.2c0-.2,0-.4.2-.5.1-.1.3-.2.6-.2s.4,0,.6.2c.1.1.2.3.2.5s0,.4-.2.5c-.1.1-.3.2-.6.2s-.4,0-.6-.2-.2-.3-.2-.5ZM1347.8,98.6h-1.3v-7.4h1.3v7.4Z"/>
      <path class="st11" d="M1349.7,94.8c0-.7.1-1.4.4-2,.3-.6.7-1,1.2-1.3.5-.3,1.1-.5,1.7-.5,1,0,1.8.3,2.4,1,.6.7.9,1.6.9,2.8h0c0,.8-.1,1.5-.4,2-.3.6-.7,1-1.2,1.3-.5.3-1.1.5-1.8.5-1,0-1.8-.3-2.4-1-.6-.7-.9-1.6-.9-2.8h0ZM1351,94.9c0,.8.2,1.5.6,2,.4.5.9.7,1.5.7s1.2-.3,1.5-.8c.4-.5.6-1.2.6-2.1s-.2-1.5-.6-2c-.4-.5-.9-.8-1.5-.8s-1.1.2-1.5.7c-.4.5-.6,1.2-.6,2.1ZM1353.7,88.1h1.5l-1.8,2h-1s1.3-2,1.3-2Z"/>
      <path class="st11" d="M1359.5,91.2v.9c.6-.7,1.3-1.1,2.3-1.1,1.6,0,2.4.9,2.4,2.6v4.9h-1.3v-4.9c0-.5-.1-.9-.4-1.2-.2-.3-.6-.4-1.1-.4s-.8.1-1.1.3c-.3.2-.6.5-.7.9v5.3h-1.3v-7.4h1.2Z"/>
    </g>
  </g>
  <g id="Capa_1">
    <path class="st3" d="M932.3,673c-7.7-7.3-16.4-13.1-26.2-17.3-9.8-4.2-20.1-6.3-30.9-6.3h-250.1c-11.2,0-21.7,2.1-31.5,6.3-9.8,4.2-18.4,10-25.7,17.3-7.3,7.3-13.1,15.9-17.3,25.7-4.2,9.8-6.3,20.1-6.3,30.9v48.5c0,17.3,0,34.8-.3,52.4-.2,17.7-.3,35.1-.3,52.4v48.5c0,10.5,2,20.6,6,30.4,4,9.8,9.9,18.5,17.6,26.2,7.7,7.7,16.4,13.6,26.2,17.6,9.8,4,19.9,6,30.4,6h251.2c22.4,0,41.4-7.9,57.2-23.6,7.7-7.3,13.5-15.9,17.6-25.7,4-9.8,6-20.1,6-30.9v-201.4c0-22.4-7.9-41.4-23.6-57.2Z"/>
    <path class="st3" d="M1827.7,673c-7.7-7.3-16.4-13.1-26.2-17.3-9.8-4.2-20.1-6.3-30.9-6.3h-250.1c-11.2,0-21.7,2.1-31.5,6.3-9.8,4.2-18.4,10-25.7,17.3-7.3,7.3-13.1,15.9-17.3,25.7-4.2,9.8-6.3,20.1-6.3,30.9v48.5c0,17.3,0,34.8-.3,52.4-.2,17.7-.3,35.1-.3,52.4v48.5c0,10.5,2,20.6,6,30.4,4,9.8,9.9,18.5,17.6,26.2,7.7,7.7,16.4,13.6,26.2,17.6,9.8,4,19.9,6,30.4,6h251.2c22.4,0,41.4-7.9,57.2-23.6,7.7-7.3,13.5-15.9,17.6-25.7,4-9.8,6-20.1,6-30.9v-201.4c0-22.4-7.9-41.4-23.6-57.2Z"/>
    <path class="st3" d="M932.3,270c-7.7-7.3-16.4-13.1-26.2-17.3-9.8-4.2-20.1-6.3-30.9-6.3h-250.1c-11.2,0-21.7,2.1-31.5,6.3-9.8,4.2-18.4,10-25.7,17.3-7.3,7.3-13.1,15.9-17.3,25.7-4.2,9.8-6.3,20.1-6.3,30.9v48.5c0,17.3,0,34.8-.3,52.4-.2,17.7-.3,35.1-.3,52.4v48.5c0,10.5,2,20.6,6,30.4,4,9.8,9.9,18.5,17.6,26.2,7.7,7.7,16.4,13.6,26.2,17.6,9.8,4,19.9,6,30.4,6h251.2c22.4,0,41.4-7.9,57.2-23.6,7.7-7.3,13.5-15.9,17.6-25.7,4-9.8,6-20.1,6-30.9v-201.4c0-22.4-7.9-41.4-23.6-57.2Z"/>
    <path class="st3" d="M1380,270c-7.7-7.3-16.4-13.1-26.2-17.3-9.8-4.2-20.1-6.3-30.9-6.3h-250.1c-11.2,0-21.7,2.1-31.5,6.3-9.8,4.2-18.4,10-25.7,17.3-7.3,7.3-13.1,15.9-17.3,25.7-4.2,9.8-6.3,20.1-6.3,30.9v48.5c0,17.3,0,34.8-.3,52.4-.2,17.7-.3,35.1-.3,52.4v48.5c0,10.5,2,20.6,6,30.4,4,9.8,9.9,18.5,17.6,26.2,7.7,7.7,16.4,13.6,26.2,17.6,9.8,4,19.9,6,30.4,6h251.2c22.4,0,41.4-7.9,57.2-23.6,7.7-7.3,13.5-15.9,17.6-25.7,4-9.8,6-20.1,6-30.9v-201.4c0-22.4-7.9-41.4-23.6-57.2Z"/>
    <path class="st3" d="M1827.7,270c-7.7-7.3-16.4-13.1-26.2-17.3-9.8-4.2-20.1-6.3-30.9-6.3h-250.1c-11.2,0-21.7,2.1-31.5,6.3-9.8,4.2-18.4,10-25.7,17.3-7.3,7.3-13.1,15.9-17.3,25.7-4.2,9.8-6.3,20.1-6.3,30.9v48.5c0,17.3,0,34.8-.3,52.4-.2,17.7-.3,35.1-.3,52.4v48.5c0,10.5,2,20.6,6,30.4,4,9.8,9.9,18.5,17.6,26.2,7.7,7.7,16.4,13.6,26.2,17.6,9.8,4,19.9,6,30.4,6h251.2c22.4,0,41.4-7.9,57.2-23.6,7.7-7.3,13.5-15.9,17.6-25.7,4-9.8,6-20.1,6-30.9v-201.4c0-22.4-7.9-41.4-23.6-57.2Z"/>
    <text class="st10" transform="translate(67.3 984.9)"><tspan x="0" y="0">2025</tspan><tspan x="0" y="14">Veloz</tspan><tspan x="0" y="28">Manual de Marca</tspan></text>
    <line class="st1" x1="67.3" y1="178.2" x2="1852.7" y2="178.2"/>
    <g>
      <line class="st2" x1="103.7" y1="57.1" x2="103.7" y2="129.8"/>
      <line class="st2" x1="67.3" y1="93.5" x2="140.1" y2="93.5"/>
    </g>
    <text class="st7" transform="translate(421.8 97.1)"><tspan x="0" y="0">Usos</tspan><tspan x="0" y="43.6">Incorrectos</tspan></text>
    <text class="st8" transform="translate(348.2 97.1)"><tspan x="0" y="0">2.5</tspan></text>
    <text class="st9" transform="translate(67.3 284.1)"><tspan class="st13"><tspan x="0" y="0">Colores</tspan></tspan><tspan class="st15"><tspan x="0" y="59.9">Imagotipo</tspan></tspan><tspan class="st13"><tspan x="0" y="119.8">Tipografía</tspan></tspan><tspan class="st13"><tspan x="0" y="179.7">Aplicaciones</tspan></tspan></text>
    <path class="st12" d="M104.6,110.2v-12.9c1.5-.3,2.7-1.5,3-3h12.9c-.5,8.5-7.3,15.4-15.9,15.9h0ZM86.9,94.4h12.9c.3,1.5,1.5,2.7,3,3v12.9c-8.5-.5-15.4-7.3-15.9-15.9h0ZM102.8,76.7v12.9c-1.5.3-2.7,1.5-3,3h-12.9c.5-8.5,7.3-15.4,15.9-15.9h0ZM120.5,92.6h-12.9c-.3-1.5-1.5-2.7-3-3v-12.9c8.5.5,15.4,7.3,15.9,15.9h0ZM140.1,92.6h-18.1c-.5-9.4-8-16.9-17.4-17.4v-18.1h-1.8v18.1c-9.4.5-16.9,8-17.4,17.4h-18.1v1.8h18.1c.5,9.4,8,16.9,17.4,17.4v18.1h1.8v-18.1c9.4-.5,16.9-8,17.4-17.4h18.1v-1.8Z"/>
    <g>
      <g>
        <path class="st12" d="M1189.9,412.5h20.3l-7,34.3h-26.2l-7-34.3h19.1v22.8h.9v-22.8Z"/>
        <path class="st12" d="M1211.7,412.5h37.4v11.4h-18.4v.9h15.2v9.6h-15.2v.9h18.4v11.4h-37.4v-34.3Z"/>
        <path class="st12" d="M1270,435.4h18.4v11.4h-37.4v-34.3h19v22.9Z"/>
        <path class="st12" d="M1321.8,412.5c1,0,2,.2,2.9.6s1.8.9,2.5,1.6c1.5,1.5,2.2,3.3,2.2,5.4v19.1c0,1-.2,2-.6,2.9-.4.9-.9,1.7-1.7,2.4-1.5,1.5-3.3,2.2-5.4,2.2h-23.8c-1,0-2-.2-2.9-.6-.9-.4-1.8-.9-2.5-1.7-.7-.7-1.3-1.6-1.7-2.5-.4-.9-.6-1.9-.6-2.9v-4.6c0-1.6,0-3.3,0-5,0-1.7,0-3.3,0-5v-4.6c0-1,.2-2,.6-2.9.4-.9.9-1.7,1.6-2.4.7-.7,1.5-1.2,2.4-1.6s1.9-.6,3-.6h23.7ZM1310.5,424h-1v11.4h1v-11.4Z"/>
        <path class="st12" d="M1355.3,435.5l-2,2.4.7.6,2.6-3.2h8.3v11.4h-33.5v-11.4l11-14-.8-.6-2.5,3.2h-7.7v-11.4h33.5v11.4l-9.6,11.5Z"/>
      </g>
      <g>
        <path class="st12" d="M1143,442.1c-2.7-1.5-7.7-3.5-10.7-3.7-4.5-.3-9.1-.3-13.6-.6-4-.2-6,.5-8.7-3.1-1.3-1.9-1.5-4.6-2.2-6.8.2,0,.3,0,.5.1.5.4.7,2.5.9,3.3,0,.2.2,1,.4.9.1,0,1.2-2.5,1.6-3,2.7-3.9,7.9-7.1,12.4-7.4,3.5-.2,8.9,1.5,12.1-.2.2,0,.3-.2.5-.3.2-.1.3-.4.2-.6,0,0,0-.2-.1-.3-.1-.3-.3-.4-.4-.6,0,0-.2-.1-.3-.2-1.3-.4-2.6-.8-3.9-1.2-1.2-.4-2.4-.9-3.6-1.3-.3-.1-.5-.3-.7-.5-1.5-1.7-4.2-2.3-6.3-2.5-.6,0-1.3,0-1.9,0-.4,0-.9-.5-1.3-.7-1.6-.6-4-.2-5.8-.1-.1,1,1.1,1.1,1.7,1.3.8.4,1.8,1,2.6,1.2.7.2,1.7.1,1.7.5,0,.4-1.3.2-1.6.2-.8-.2-2.3-1.2-2.8-1.2-1.8,0-5.2,2-7,2.7-4,1.6-8,2.3-12.3,2.1-3.7-.2-6.7-1.9-10.2-2.8-10.8-2.7-20.1-1.1-26.3,1-7,2.3-8.8,4.3-12,5.8-2.6,1.2-13.4,4.2-20.8-1.2-2-1.5-3.3-3.4-3.4-3.6-2.1-3.3-2.2-6.8-2.2-8.3,0,.4-.2,1-.3,1.7-.2,1.5-.2,4.2,1.2,7,2.3,4.7,7,6.2,9.2,7,0,0,5.6,1.9,14.4,0,.9-.2,1.7-.4,1.7-.4.7-.2,1.6-.4,2.7-.9.6-.3,1.5-.7,2.4-1.3,0,.5-.3.7-1.2,1.3-1,.6-2.1,1-2.8,1.3,0,.1-.3.3-.4.6-.6.9-.7.9-.8,1.2-1,1.5-1.8,2.8-2.3,3.3-.4.5-1.1,1.3-2.1,2-2,1.4-4.3,2.1-6.7,2.2-.9,0-1.8,0-2.8,0-.5,0-1.6-.2-2.4-.4-.2,0-.5,0-.7,0-1.2.6-3,3.2-3.7,3.9-.7.7-1.4,1.6-2.1,2.4-.7.8-1,1.1-1.8,1.7-.9.8-2.3,1.4-3.1,2.2-.2.2-1.9,2.2-1.4,2.3.3.1,1.5,0,2,0,1.3-.2,3.9-3.5,4.9-4.5,2.2-2.2,4.9-4.9,8-5.2,2-.2,3.9.6,5.8.8,2.1.2,5.4.4,7.5.3,6.2-.4,11.2-7.6,16-11.2,4.6-3.5,12.3-1.9,17,2.7,3.1,3,5.9,6.1,9.8,8.1,3.7,1.9,7.4,1.9,11.5,1.6,1.7-.2,3.4-.6,5.2-.7.6,0,.9,1.1,1.4,1.4.4.3,3.5.2,4.2.1,1.5,0,3,0,4.5-.1,2.9-.1,5.7-.3,8.6-.4h0c1.7,0,3.4-.1,5.1-.2,3.6,0,6.8-.5,10.2,1,1.7.8,3.5,2.6,5.3,2.7.3,0,.8,0,1.1-.2,0,0,.1-.2,0-.3-.2-.8-1-1.6-1.6-2ZM1125.1,416.8c.3-.2,1.7-.6,1.7.4,0,0,0,0,0,.2,0,.2-1.3.2-1.6.1,0,0-.2-.1-.2-.3,0-.2,0-.3.2-.4ZM1117.9,415.3c-.1-.2,0-.3-.2-.5-.1-.3-.5-.2-1-.4-.4-.1-.9-.4-.9-.5,0-.2,1-.3,1.7.2.1,0,.8.5.8,1,0,.2-.1.4-.2.5-.1,0-.2-.2-.3-.3Z"/>
        <path class="st12" d="M1045.9,426.9c-.6.7-1.4,1.9-1.9,2.7-.5.7-1,1.4-1.4,1.9-2,2.4-4.9,3.6-8.4,3.9-.4,0-.8,0-1.2,0s-.9,0-1.4,0c-.1,0-.3,0-.4,0-.2,0-.5,0-.7-.1-.5-.1-1.1-.2-1.5-.2-.9,0-2.4,1.5-3.9,3.4-.3.3-.5.7-.7.8-.3.3-.5.6-.8.9-.2.3-.5.5-.7.8-.6.6-1.2,1.2-2,1.6s-.4.2-.6.3c-.9.4-1.8.6-2.7.4-1-.2-.3-.8,0-1.2,1.1-1.5,3.2-2.4,4.7-3.6,2.1-1.8,4-4.2,5.8-5.9s.2-.2.3-.2c.5-.2.6,0,1.4.2,4.7,1.6,8.3,1.3,12.1-2.2.6-.5,2.2-2.6,2.7-3,.5-.1,1-.2,1.5-.3Z"/>
        <path class="st12" d="M1141.5,450.5c0,.2-.7.3-.9.3-2.6,0-4.5-2.5-6.7-3.7-.7-.4-1.5-.7-2.3-.9-5.1-1.5-10.4-2.3-15.5-3.7-.3,0-.7-.2-1.3-.4,1.7,0,3.3-.1,5-.2,1,0,2.1,0,3.1-.1,1.8,0,3.4.2,5.8,1,3.3,1.1,10.1,4,12.2,6.8.2.3.5.7.5.8Z"/>
      </g>
    </g>
    <g>
      <line class="st5" x1="1015.6" y1="404.3" x2="1385.8" y2="450.9"/>
      <line class="st5" x1="1015.6" y1="450.9" x2="1385.2" y2="411.1"/>
    </g>
    <g class="st17">
      <image width="4000" height="4000" transform="translate(985.5 617.8) scale(.1)" xlink:href="../../../../patron-vectorial-de-costuras-abstractas-modernas-geometricas-simples/3efc512c-2107-402a-802f-67c9aa319f1b.jpg"/>
    </g>
    <g>
      <g>
        <path class="st12" d="M1074.9,848.8h30.9l-10.7,52.4h-40l-10.7-52.4h29.1v34.9h1.4v-34.9Z"/>
        <path class="st12" d="M1108.2,848.8h57v17.4h-28.1v1.4h23.2v14.7h-23.2v1.4h28.1v17.4h-57.1v-52.3Z"/>
        <path class="st12" d="M1197.3,883.6h28.1v17.4h-57.1v-52.4h29v34.9Z"/>
        <path class="st12" d="M1276.3,848.7c1.6,0,3.1.3,4.5.9s2.7,1.4,3.8,2.5c2.3,2.3,3.4,5,3.4,8.3v29.1c0,1.6-.3,3.1-.9,4.5-.6,1.4-1.4,2.7-2.5,3.7-2.3,2.3-5,3.4-8.3,3.4h-36.3c-1.5,0-3-.3-4.4-.9-1.4-.6-2.7-1.4-3.8-2.5-1.1-1.1-2-2.4-2.5-3.8-.6-1.4-.9-2.9-.9-4.4v-7c0-2.5,0-5,0-7.6,0-2.5,0-5.1,0-7.6v-7c0-1.6.3-3.1.9-4.5.6-1.4,1.4-2.7,2.5-3.7,1.1-1.1,2.3-1.9,3.7-2.5s2.9-.9,4.5-.9h36.1ZM1259,866.2h-1.5v17.4h1.5v-17.4Z"/>
        <path class="st12" d="M1327.4,883.8l-3.1,3.7,1.1,1,4-4.8h12.7v17.4h-51.1v-17.4l16.7-21.4-1.2-1-3.8,4.9h-11.7v-17.4h51.1v17.4l-14.7,17.6Z"/>
      </g>
      <g>
        <path class="st12" d="M1288.7,813.4c-4.1-2.4-11.7-5.3-16.3-5.7-6.9-.5-13.8-.5-20.8-.9-6-.3-9.2.8-13.3-4.8-2.1-2.8-2.3-7-3.3-10.4.4,0,.4,0,.7.2.7.6,1.1,3.9,1.4,5,0,.3.2,1.5.6,1.3.2-.1,1.9-3.7,2.4-4.5,4.1-5.9,12-10.9,18.9-11.3,5.4-.3,13.6,2.3,18.5-.2.2-.1.5-.3.7-.4.3-.2.4-.6.3-1,0-.1,0-.3-.2-.5-.2-.4-.4-.7-.6-.9-.1-.1-.3-.2-.4-.2-1.9-.6-3.9-1.2-5.9-1.9-1.9-.6-3.7-1.3-5.5-2-.4-.2-.8-.4-1.1-.7-2.4-2.5-6.5-3.5-9.7-3.8-.9-.1-2.1.2-3,0-.6-.1-1.3-.8-2-1.1-2.5-.9-6.2-.3-8.8-.2-.2,1.5,1.7,1.6,2.6,2.1,1.2.5,2.7,1.5,3.9,1.9,1,.3,2.6.2,2.5.7,0,.6-2,.3-2.4.2-1.2-.2-3.5-1.8-4.3-1.8-2.8,0-7.9,3-10.7,4.1-6.1,2.5-12.3,3.6-18.8,3.2-5.7-.3-10.2-2.9-15.6-4.2-16.5-4.1-30.7-1.7-40.1,1.5-10.7,3.6-13.5,6.6-18.3,8.9-4,1.9-20.5,6.3-31.7-1.8-3.1-2.3-5-5.2-5.2-5.5-3.3-5.1-3.4-10.3-3.3-12.7-.2.6-.3,1.5-.4,2.6-.2,2.2-.3,6.4,1.8,10.7,3.6,7.1,10.7,9.5,14,10.6,0,0,8.5,2.9,22,0,1.4-.3,2.7-.6,2.7-.6,1.1-.3,2.4-.7,4.1-1.4,1-.4,2.2-1,3.6-1.9,0,.7-.5,1.1-1.9,2-1.5.9-3.2,1.6-4.3,1.9-.1.2-.4.5-.7.9-1,1.3-1,1.4-1.3,1.8-1.5,2.3-2.8,4.3-3.5,5-.6.8-1.8,1.9-3.2,3-3,2.1-6.5,3.1-10.2,3.4-1.4,0-2.8,0-4.2,0-.8,0-2.5-.3-3.7-.6-.3,0-.7,0-1,.1-1.8.9-4.6,4.8-5.7,6-1,1.1-2.1,2.4-3.3,3.6-1.1,1.2-1.6,1.6-2.7,2.6-1.4,1.2-3.5,2.1-4.7,3.3-.3.3-3,3.3-2.1,3.6.5.2,2.3,0,3,0,1.9-.2,6-5.3,7.6-6.8,3.3-3.3,7.5-7.5,12.2-7.9,3-.2,5.9,1,8.9,1.3,3.3.4,8.3.7,11.5.4,9.4-.6,17.1-11.5,24.4-17.1,7.1-5.3,18.7-2.9,25.9,4.1,4.7,4.6,9.1,9.3,14.9,12.3,5.7,2.9,11.4,2.9,17.5,2.4,2.6-.2,5.2-.9,7.9-1.1.9,0,1.4,1.7,2.2,2.2.6.4,5.3.2,6.5.2,2.3,0,4.6-.1,6.9-.2,4.4-.2,8.7-.4,13.1-.6h0c2.6-.1,5.2-.2,7.8-.3,5.4-.2,10.4-.8,15.5,1.5,2.6,1.2,5.3,4,8.1,4.1.5,0,1.2-.1,1.7-.3.1,0,.2-.3.2-.4-.3-1.3-1.5-2.5-2.5-3.1ZM1261.4,774.8c.5-.3,2.5-.9,2.5.6,0,0,0,.1,0,.3-.1.3-2,.3-2.4.2,0,0-.2-.2-.3-.4,0-.3.1-.5.2-.6ZM1250.4,772.4c-.2-.4-.1-.5-.3-.7-.2-.4-.7-.3-1.5-.5-.6-.2-1.4-.6-1.4-.7,0-.2,1.5-.4,2.7.3.2.1,1.3.7,1.2,1.5,0,.3-.2.7-.4.7-.2,0-.3-.3-.4-.5Z"/>
        <path class="st12" d="M1140.6,790.1c-.9,1-2.1,2.9-2.9,4.1-.7,1.1-1.5,2.1-2.1,2.8-3.1,3.6-7.4,5.5-12.9,5.9-.6,0-1.2,0-1.9,0s-1.4,0-2.1,0c-.2,0-.4,0-.6,0-.4,0-.8-.1-1.1-.2-.8-.2-1.6-.4-2.4-.3-1.3,0-3.6,2.3-6,5.2-.4.5-.8,1-1,1.3-.4.4-.8.9-1.2,1.4-.4.4-.7.8-1.1,1.3-.9,1-1.9,1.8-3,2.4s-.6.3-1,.5c-1.3.6-2.7.9-4.1.7-1.5-.2-.5-1.3,0-1.8,1.7-2.2,4.9-3.6,7.2-5.5,3.2-2.7,6.2-6.5,8.9-9s.3-.3.5-.4c.7-.4.9,0,2.1.3,7.1,2.5,12.7,2,18.5-3.3.8-.8,3.3-3.9,4.1-4.5.7-.2,1.5-.3,2.3-.5Z"/>
        <path class="st12" d="M1286.4,826.2c0,.3-1.1.5-1.3.5-4,0-6.8-3.8-10.2-5.6-1.1-.6-2.3-1-3.6-1.4-7.8-2.3-15.8-3.5-23.7-5.6-.4-.1-1.1-.3-2-.5,2.5-.1,5.1-.2,7.6-.3,1.6,0,3.2-.2,4.8-.2,2.8,0,5.2.3,8.9,1.5,5,1.6,15.5,6.1,18.7,10.4.3.4.8,1.1.8,1.3Z"/>
      </g>
    </g>
    <g>
      <g>
        <path class="st4" d="M1521.9,848.8h30.9l-10.7,52.4h-40l-10.7-52.4h29.1v34.9h1.4v-34.9Z"/>
        <path class="st4" d="M1555.2,848.8h57v17.4h-28.1v1.4h23.2v14.7h-23.2v1.4h28.1v17.4h-57.1v-52.3Z"/>
        <path class="st4" d="M1644.3,883.6h28.1v17.4h-57.1v-52.4h29v34.9Z"/>
        <path class="st4" d="M1723.3,848.7c1.6,0,3.1.3,4.5.9s2.7,1.4,3.8,2.5c2.3,2.3,3.4,5,3.4,8.3v29.1c0,1.6-.3,3.1-.9,4.5-.6,1.4-1.4,2.7-2.5,3.7-2.3,2.3-5,3.4-8.3,3.4h-36.3c-1.5,0-3-.3-4.4-.9-1.4-.6-2.7-1.4-3.8-2.5-1.1-1.1-2-2.4-2.5-3.8-.6-1.4-.9-2.9-.9-4.4v-7c0-2.5,0-5,0-7.6,0-2.5,0-5.1,0-7.6v-7c0-1.6.3-3.1.9-4.5.6-1.4,1.4-2.7,2.5-3.7,1.1-1.1,2.3-1.9,3.7-2.5s2.9-.9,4.5-.9h36.1ZM1706,866.2h-1.5v17.4h1.5v-17.4Z"/>
        <path class="st4" d="M1774.4,883.8l-3.1,3.7,1.1,1,4-4.8h12.7v17.4h-51.1v-17.4l16.7-21.4-1.2-1-3.8,4.9h-11.7v-17.4h51.1v17.4l-14.7,17.6Z"/>
      </g>
      <g>
        <path class="st4" d="M1735.7,813.4c-4.1-2.4-11.7-5.3-16.3-5.7-6.9-.5-13.8-.5-20.8-.9-6-.3-9.2.8-13.3-4.8-2.1-2.8-2.3-7-3.3-10.4.4,0,.4,0,.7.2.7.6,1.1,3.9,1.4,5,0,.3.2,1.5.6,1.3.2-.1,1.9-3.7,2.4-4.5,4.1-5.9,12-10.9,18.9-11.3,5.4-.3,13.6,2.3,18.5-.2.2-.1.5-.3.7-.4.3-.2.4-.6.3-1,0-.1,0-.3-.2-.5-.2-.4-.4-.7-.6-.9-.1-.1-.3-.2-.4-.2-1.9-.6-3.9-1.2-5.9-1.9-1.9-.6-3.7-1.3-5.5-2-.4-.2-.8-.4-1.1-.7-2.4-2.5-6.5-3.5-9.7-3.8-.9-.1-2.1.2-3,0-.6-.1-1.3-.8-2-1.1-2.5-.9-6.2-.3-8.8-.2-.2,1.5,1.7,1.6,2.6,2.1,1.2.5,2.7,1.5,3.9,1.9,1,.3,2.6.2,2.5.7,0,.6-2,.3-2.4.2-1.2-.2-3.5-1.8-4.3-1.8-2.8,0-7.9,3-10.7,4.1-6.1,2.5-12.3,3.6-18.8,3.2-5.7-.3-10.2-2.9-15.6-4.2-16.5-4.1-30.7-1.7-40.1,1.5-10.7,3.6-13.5,6.6-18.3,8.9-4,1.9-20.5,6.3-31.7-1.8-3.1-2.3-5-5.2-5.2-5.5-3.3-5.1-3.4-10.3-3.3-12.7-.2.6-.3,1.5-.4,2.6-.2,2.2-.3,6.4,1.8,10.7,3.6,7.1,10.7,9.5,14,10.6,0,0,8.5,2.9,22,0,1.4-.3,2.7-.6,2.7-.6,1.1-.3,2.4-.7,4.1-1.4,1-.4,2.2-1,3.6-1.9,0,.7-.5,1.1-1.9,2-1.5.9-3.2,1.6-4.3,1.9-.1.2-.4.5-.7.9-1,1.3-1,1.4-1.3,1.8-1.5,2.3-2.8,4.3-3.5,5-.6.8-1.8,1.9-3.2,3-3,2.1-6.5,3.1-10.2,3.4-1.4,0-2.8,0-4.2,0-.8,0-2.5-.3-3.7-.6-.3,0-.7,0-1,.1-1.8.9-4.6,4.8-5.7,6-1,1.1-2.1,2.4-3.3,3.6-1.1,1.2-1.6,1.6-2.7,2.6-1.4,1.2-3.5,2.1-4.7,3.3-.3.3-3,3.3-2.1,3.6.5.2,2.3,0,3,0,1.9-.2,6-5.3,7.6-6.8,3.3-3.3,7.5-7.5,12.2-7.9,3-.2,5.9,1,8.9,1.3,3.3.4,8.3.7,11.5.4,9.4-.6,17.1-11.5,24.4-17.1,7.1-5.3,18.7-2.9,25.9,4.1,4.7,4.6,9.1,9.3,14.9,12.3,5.7,2.9,11.4,2.9,17.5,2.4,2.6-.2,5.2-.9,7.9-1.1.9,0,1.4,1.7,2.2,2.2.6.4,5.3.2,6.5.2,2.3,0,4.6-.1,6.9-.2,4.4-.2,8.7-.4,13.1-.6h0c2.6-.1,5.2-.2,7.8-.3,5.4-.2,10.4-.8,15.5,1.5,2.6,1.2,5.3,4,8.1,4.1.5,0,1.2-.1,1.7-.3.1,0,.2-.3.2-.4-.3-1.3-1.5-2.5-2.5-3.1ZM1708.4,774.8c.5-.3,2.5-.9,2.5.6,0,0,0,.1,0,.3-.1.3-2,.3-2.4.2,0,0-.2-.2-.3-.4,0-.3.1-.5.2-.6ZM1697.4,772.4c-.2-.4-.1-.5-.3-.7-.2-.4-.7-.3-1.5-.5-.6-.2-1.4-.6-1.4-.7,0-.2,1.5-.4,2.7.3.2.1,1.3.7,1.2,1.5,0,.3-.2.7-.4.7-.2,0-.3-.3-.4-.5Z"/>
        <path class="st4" d="M1587.6,790.1c-.9,1-2.1,2.9-2.9,4.1-.7,1.1-1.5,2.1-2.1,2.8-3.1,3.6-7.4,5.5-12.9,5.9-.6,0-1.2,0-1.9,0s-1.4,0-2.1,0c-.2,0-.4,0-.6,0-.4,0-.8-.1-1.1-.2-.8-.2-1.6-.4-2.4-.3-1.3,0-3.6,2.3-6,5.2-.4.5-.8,1-1,1.3-.4.4-.8.9-1.2,1.4-.4.4-.7.8-1.1,1.3-.9,1-1.9,1.8-3,2.4s-.6.3-1,.5c-1.3.6-2.7.9-4.1.7-1.5-.2-.5-1.3,0-1.8,1.7-2.2,4.9-3.6,7.2-5.5,3.2-2.7,6.2-6.5,8.9-9s.3-.3.5-.4c.7-.4.9,0,2.1.3,7.1,2.5,12.7,2,18.5-3.3.8-.8,3.3-3.9,4.1-4.5.7-.2,1.5-.3,2.3-.5Z"/>
        <path class="st4" d="M1733.4,826.2c0,.3-1.1.5-1.3.5-4,0-6.8-3.8-10.2-5.6-1.1-.6-2.3-1-3.6-1.4-7.8-2.3-15.8-3.5-23.7-5.6-.4-.1-1.1-.3-2-.5,2.5-.1,5.1-.2,7.6-.3,1.6,0,3.2-.2,4.8-.2,2.8,0,5.2.3,8.9,1.5,5,1.6,15.5,6.1,18.7,10.4.3.4.8,1.1.8,1.3Z"/>
      </g>
    </g>
    <g class="st6">
      <g>
        <path class="st12" d="M639.5,848.8h30.9l-10.7,52.4h-40l-10.7-52.4h29.1v34.9h1.4v-34.9Z"/>
        <path class="st12" d="M672.7,848.8h57v17.4h-28.1v1.4h23.2v14.7h-23.2v1.4h28.1v17.4h-57.1v-52.3Z"/>
        <path class="st12" d="M761.8,883.6h28.1v17.4h-57.1v-52.4h29v34.9Z"/>
        <path class="st12" d="M840.8,848.7c1.6,0,3.1.3,4.5.9s2.7,1.4,3.8,2.5c2.3,2.3,3.4,5,3.4,8.3v29.1c0,1.6-.3,3.1-.9,4.5-.6,1.4-1.4,2.7-2.5,3.7-2.3,2.3-5,3.4-8.3,3.4h-36.3c-1.5,0-3-.3-4.4-.9-1.4-.6-2.7-1.4-3.8-2.5-1.1-1.1-2-2.4-2.5-3.8-.6-1.4-.9-2.9-.9-4.4v-7c0-2.5,0-5,0-7.6,0-2.5,0-5.1,0-7.6v-7c0-1.6.3-3.1.9-4.5.6-1.4,1.4-2.7,2.5-3.7,1.1-1.1,2.3-1.9,3.7-2.5s2.9-.9,4.5-.9h36.1ZM823.5,866.2h-1.5v17.4h1.5v-17.4Z"/>
        <path class="st12" d="M891.9,883.8l-3.1,3.7,1.1,1,4-4.8h12.7v17.4h-51.1v-17.4l16.7-21.4-1.2-1-3.8,4.9h-11.7v-17.4h51.1v17.4l-14.7,17.6Z"/>
      </g>
      <g>
        <path class="st12" d="M853.2,813.4c-4.1-2.4-11.7-5.3-16.3-5.7-6.9-.5-13.8-.5-20.8-.9-6-.3-9.2.8-13.3-4.8-2.1-2.8-2.3-7-3.3-10.4.4,0,.4,0,.7.2.7.6,1.1,3.9,1.4,5,0,.3.2,1.5.6,1.3.2-.1,1.9-3.7,2.4-4.5,4.1-5.9,12-10.9,18.9-11.3,5.4-.3,13.6,2.3,18.5-.2.2-.1.5-.3.7-.4.3-.2.4-.6.3-1,0-.1,0-.3-.2-.5-.2-.4-.4-.7-.6-.9-.1-.1-.3-.2-.4-.2-1.9-.6-3.9-1.2-5.9-1.9-1.9-.6-3.7-1.3-5.5-2-.4-.2-.8-.4-1.1-.7-2.4-2.5-6.5-3.5-9.7-3.8-.9-.1-2.1.2-3,0-.6-.1-1.3-.8-2-1.1-2.5-.9-6.2-.3-8.8-.2-.2,1.5,1.7,1.6,2.6,2.1,1.2.5,2.7,1.5,3.9,1.9,1,.3,2.6.2,2.5.7,0,.6-2,.3-2.4.2-1.2-.2-3.5-1.8-4.3-1.8-2.8,0-7.9,3-10.7,4.1-6.1,2.5-12.3,3.6-18.8,3.2-5.7-.3-10.2-2.9-15.6-4.2-16.5-4.1-30.7-1.7-40.1,1.5-10.7,3.6-13.5,6.6-18.3,8.9-4,1.9-20.5,6.3-31.7-1.8-3.1-2.3-5-5.2-5.2-5.5-3.3-5.1-3.4-10.3-3.3-12.7-.2.6-.3,1.5-.4,2.6-.2,2.2-.3,6.4,1.8,10.7,3.6,7.1,10.7,9.5,14,10.6,0,0,8.5,2.9,22,0,1.4-.3,2.7-.6,2.7-.6,1.1-.3,2.4-.7,4.1-1.4,1-.4,2.2-1,3.6-1.9,0,.7-.5,1.1-1.9,2-1.5.9-3.2,1.6-4.3,1.9-.1.2-.4.5-.7.9-1,1.3-1,1.4-1.3,1.8-1.5,2.3-2.8,4.3-3.5,5-.6.8-1.8,1.9-3.2,3-3,2.1-6.5,3.1-10.2,3.4-1.4,0-2.8,0-4.2,0-.8,0-2.5-.3-3.7-.6-.3,0-.7,0-1,.1-1.8.9-4.6,4.8-5.7,6-1,1.1-2.1,2.4-3.3,3.6-1.1,1.2-1.6,1.6-2.7,2.6-1.4,1.2-3.5,2.1-4.7,3.3-.3.3-3,3.3-2.1,3.6.5.2,2.3,0,3,0,1.9-.2,6-5.3,7.6-6.8,3.3-3.3,7.5-7.5,12.2-7.9,3-.2,5.9,1,8.9,1.3,3.3.4,8.3.7,11.5.4,9.4-.6,17.1-11.5,24.4-17.1,7.1-5.3,18.7-2.9,25.9,4.1,4.7,4.6,9.1,9.3,14.9,12.3,5.7,2.9,11.4,2.9,17.5,2.4,2.6-.2,5.2-.9,7.9-1.1.9,0,1.4,1.7,2.2,2.2.6.4,5.3.2,6.5.2,2.3,0,4.6-.1,6.9-.2,4.4-.2,8.7-.4,13.1-.6h0c2.6-.1,5.2-.2,7.8-.3,5.4-.2,10.4-.8,15.5,1.5,2.6,1.2,5.3,4,8.1,4.1.5,0,1.2-.1,1.7-.3.1,0,.2-.3.2-.4-.3-1.3-1.5-2.5-2.5-3.1ZM826,774.8c.5-.3,2.5-.9,2.5.6,0,0,0,.1,0,.3-.1.3-2,.3-2.4.2,0,0-.2-.2-.3-.4,0-.3.1-.5.2-.6ZM815,772.4c-.2-.4-.1-.5-.3-.7-.2-.4-.7-.3-1.5-.5-.6-.2-1.4-.6-1.4-.7,0-.2,1.5-.4,2.7.3.2.1,1.3.7,1.2,1.5,0,.3-.2.7-.4.7-.2,0-.3-.3-.4-.5Z"/>
        <path class="st12" d="M705.2,790.1c-.9,1-2.1,2.9-2.9,4.1-.7,1.1-1.5,2.1-2.1,2.8-3.1,3.6-7.4,5.5-12.9,5.9-.6,0-1.2,0-1.9,0s-1.4,0-2.1,0c-.2,0-.4,0-.6,0-.4,0-.8-.1-1.1-.2-.8-.2-1.6-.4-2.4-.3-1.3,0-3.6,2.3-6,5.2-.4.5-.8,1-1,1.3-.4.4-.8.9-1.2,1.4-.4.4-.7.8-1.1,1.3-.9,1-1.9,1.8-3,2.4s-.6.3-1,.5c-1.3.6-2.7.9-4.1.7-1.5-.2-.5-1.3,0-1.8,1.7-2.2,4.9-3.6,7.2-5.5,3.2-2.7,6.2-6.5,8.9-9s.3-.3.5-.4c.7-.4.9,0,2.1.3,7.1,2.5,12.7,2,18.5-3.3.8-.8,3.3-3.9,4.1-4.5.7-.2,1.5-.3,2.3-.5Z"/>
        <path class="st12" d="M850.9,826.2c0,.3-1.1.5-1.3.5-4,0-6.8-3.8-10.2-5.6-1.1-.6-2.3-1-3.6-1.4-7.8-2.3-15.8-3.5-23.7-5.6-.4-.1-1.1-.3-2-.5,2.5-.1,5.1-.2,7.6-.3,1.6,0,3.2-.2,4.8-.2,2.8,0,5.2.3,8.9,1.5,5,1.6,15.5,6.1,18.7,10.4.3.4.8,1.1.8,1.3Z"/>
      </g>
    </g>
    <g>
      <g>
        <path class="st16" d="M627.3,430.7h30.9l-10.7,52.4h-40l-10.7-52.4h29.1v34.9h1.4v-34.9Z"/>
        <path class="st16" d="M660.5,430.7h57v17.4h-28.1v1.4h23.2v14.7h-23.2v1.4h28.1v17.4h-57.1v-52.3Z"/>
        <path class="st16" d="M749.6,465.6h28.1v17.4h-57.1v-52.4h29v34.9Z"/>
        <path class="st16" d="M828.6,430.6c1.6,0,3.1.3,4.5.9s2.7,1.4,3.8,2.5c2.3,2.3,3.4,5,3.4,8.3v29.1c0,1.6-.3,3.1-.9,4.5-.6,1.4-1.4,2.7-2.5,3.7-2.3,2.3-5,3.4-8.3,3.4h-36.3c-1.5,0-3-.3-4.4-.9-1.4-.6-2.7-1.4-3.8-2.5-1.1-1.1-2-2.4-2.5-3.8-.6-1.4-.9-2.9-.9-4.4v-7c0-2.5,0-5,0-7.6,0-2.5,0-5.1,0-7.6v-7c0-1.6.3-3.1.9-4.5.6-1.4,1.4-2.7,2.5-3.7,1.1-1.1,2.3-1.9,3.7-2.5s2.9-.9,4.5-.9h36.1ZM811.3,448.1h-1.5v17.4h1.5v-17.4Z"/>
        <path class="st16" d="M879.7,465.7l-3.1,3.7,1.1,1,4-4.8h12.7v17.4h-51.1v-17.4l16.7-21.4-1.2-1-3.8,4.9h-11.7v-17.4h51.1v17.4l-14.7,17.6Z"/>
      </g>
      <g>
        <path class="st16" d="M841,395.3c-4.1-2.4-11.7-5.3-16.3-5.7-6.9-.5-13.8-.5-20.8-.9-6-.3-9.2.8-13.3-4.8-2.1-2.8-2.3-7-3.3-10.4.4,0,.4,0,.7.2.7.6,1.1,3.9,1.4,5,0,.3.2,1.5.6,1.3.2-.1,1.9-3.7,2.4-4.5,4.1-5.9,12-10.9,18.9-11.3,5.4-.3,13.6,2.3,18.5-.2.2-.1.5-.3.7-.4.3-.2.4-.6.3-1,0-.1,0-.3-.2-.5-.2-.4-.4-.7-.6-.9-.1-.1-.3-.2-.4-.2-1.9-.6-3.9-1.2-5.9-1.9-1.9-.6-3.7-1.3-5.5-2-.4-.2-.8-.4-1.1-.7-2.4-2.5-6.5-3.5-9.7-3.8-.9-.1-2.1.2-3,0-.6-.1-1.3-.8-2-1.1-2.5-.9-6.2-.3-8.8-.2-.2,1.5,1.7,1.6,2.6,2.1,1.2.5,2.7,1.5,3.9,1.9,1,.3,2.6.2,2.5.7,0,.6-2,.3-2.4.2-1.2-.2-3.5-1.8-4.3-1.8-2.8,0-7.9,3-10.7,4.1-6.1,2.5-12.3,3.6-18.8,3.2-5.7-.3-10.2-2.9-15.6-4.2-16.5-4.1-30.7-1.7-40.1,1.5-10.7,3.6-13.5,6.6-18.3,8.9-4,1.9-20.5,6.3-31.7-1.8-3.1-2.3-5-5.2-5.2-5.5-3.3-5.1-3.4-10.3-3.3-12.7-.2.6-.3,1.5-.4,2.6-.2,2.2-.3,6.4,1.8,10.7,3.6,7.1,10.7,9.5,14,10.6,0,0,8.5,2.9,22,0,1.4-.3,2.7-.6,2.7-.6,1.1-.3,2.4-.7,4.1-1.4,1-.4,2.2-1,3.6-1.9,0,.7-.5,1.1-1.9,2-1.5.9-3.2,1.6-4.3,1.9-.1.2-.4.5-.7.9-1,1.3-1,1.4-1.3,1.8-1.5,2.3-2.8,4.3-3.5,5-.6.8-1.8,1.9-3.2,3-3,2.1-6.5,3.1-10.2,3.4-1.4,0-2.8,0-4.2,0-.8,0-2.5-.3-3.7-.6-.3,0-.7,0-1,.1-1.8.9-4.6,4.8-5.7,6-1,1.1-2.1,2.4-3.3,3.6-1.1,1.2-1.6,1.6-2.7,2.6-1.4,1.2-3.5,2.1-4.7,3.3-.3.3-3,3.3-2.1,3.6.5.2,2.3,0,3,0,1.9-.2,6-5.3,7.6-6.8,3.3-3.3,7.5-7.5,12.2-7.9,3-.2,5.9,1,8.9,1.3,3.3.4,8.3.7,11.5.4,9.4-.6,17.1-11.5,24.4-17.1,7.1-5.3,18.7-2.9,25.9,4.1,4.7,4.6,9.1,9.3,14.9,12.3,5.7,2.9,11.4,2.9,17.5,2.4,2.6-.2,5.2-.9,7.9-1.1.9,0,1.4,1.7,2.2,2.2.6.4,5.3.2,6.5.2,2.3,0,4.6-.1,6.9-.2,4.4-.2,8.7-.4,13.1-.6h0c2.6-.1,5.2-.2,7.8-.3,5.4-.2,10.4-.8,15.5,1.5,2.6,1.2,5.3,4,8.1,4.1.5,0,1.2-.1,1.7-.3.1,0,.2-.3.2-.4-.3-1.3-1.5-2.5-2.5-3.1ZM813.8,356.7c.5-.3,2.5-.9,2.5.6,0,0,0,.1,0,.3-.1.3-2,.3-2.4.2,0,0-.2-.2-.3-.4,0-.3.1-.5.2-.6ZM802.8,354.3c-.2-.4-.1-.5-.3-.7-.2-.4-.7-.3-1.5-.5-.6-.2-1.4-.6-1.4-.7,0-.2,1.5-.4,2.7.3.2.1,1.3.7,1.2,1.5,0,.3-.2.7-.4.7-.2,0-.3-.3-.4-.5Z"/>
        <path class="st16" d="M692.9,372.1c-.9,1-2.1,2.9-2.9,4.1-.7,1.1-1.5,2.1-2.1,2.8-3.1,3.6-7.4,5.5-12.9,5.9-.6,0-1.2,0-1.9,0s-1.4,0-2.1,0c-.2,0-.4,0-.6,0-.4,0-.8-.1-1.1-.2-.8-.2-1.6-.4-2.4-.3-1.3,0-3.6,2.3-6,5.2-.4.5-.8,1-1,1.3-.4.4-.8.9-1.2,1.4-.4.4-.7.8-1.1,1.3-.9,1-1.9,1.8-3,2.4s-.6.3-1,.5c-1.3.6-2.7.9-4.1.7-1.5-.2-.5-1.3,0-1.8,1.7-2.2,4.9-3.6,7.2-5.5,3.2-2.7,6.2-6.5,8.9-9s.3-.3.5-.4c.7-.4.9,0,2.1.3,7.1,2.5,12.7,2,18.5-3.3.8-.8,3.3-3.9,4.1-4.5.7-.2,1.5-.3,2.3-.5Z"/>
        <path class="st16" d="M838.7,408.1c0,.3-1.1.5-1.3.5-4,0-6.8-3.8-10.2-5.6-1.1-.6-2.3-1-3.6-1.4-7.8-2.3-15.8-3.5-23.7-5.6-.4-.1-1.1-.3-2-.5,2.5-.1,5.1-.2,7.6-.3,1.6,0,3.2-.2,4.8-.2,2.8,0,5.2.3,8.9,1.5,5,1.6,15.5,6.1,18.7,10.4.3.4.8,1.1.8,1.3Z"/>
      </g>
    </g>
    <g>
      <g>
        <path d="M1522.6,441.6h30.9l-10.7,78.1h-40l-10.7-78.1h29.1v52h1.4v-52Z"/>
        <path d="M1555.9,441.6h57v26h-28.1v2h23.2v21.9h-23.2v2h28.1v26h-57.1v-78Z"/>
        <path d="M1645,493.6h28.1v26h-57.1v-78.1h29v52.1Z"/>
        <path d="M1724,441.5c1.6,0,3.1.5,4.5,1.4s2.7,2.1,3.8,3.7c2.3,3.4,3.4,7.5,3.4,12.3v43.4c0,2.3-.3,4.6-.9,6.7-.6,2.1-1.4,4-2.5,5.5-2.3,3.4-5,5.1-8.3,5.1h-36.3c-1.5,0-3-.4-4.4-1.3-1.4-.9-2.7-2.1-3.8-3.8-1.1-1.7-2-3.5-2.5-5.7-.6-2.1-.9-4.3-.9-6.6v-10.5c0-3.7,0-7.5,0-11.3,0-3.8,0-7.6,0-11.3v-10.5c0-2.3.3-4.6.9-6.7.6-2.1,1.4-4,2.5-5.5,1.1-1.6,2.3-2.8,3.7-3.7s2.9-1.4,4.5-1.4h36.1ZM1706.7,467.6h-1.5v26h1.5v-26Z"/>
        <path d="M1775.1,493.9l-3.1,5.5,1.1,1.5,4-7.2h12.7v26h-51.1v-26l16.7-31.9-1.2-1.5-3.8,7.3h-11.7v-26h51.1v26l-14.7,26.2Z"/>
      </g>
      <g>
        <path d="M1736.4,388.8c-4.1-3.5-11.7-7.9-16.3-8.4-6.9-.8-13.8-.7-20.8-1.3-6-.5-9.2,1.2-13.3-7.1-2.1-4.2-2.3-10.5-3.3-15.5.4,0,.4,0,.7.3.7.9,1.1,5.8,1.4,7.4,0,.4.2,2.2.6,1.9.2-.2,1.9-5.6,2.4-6.7,4.1-8.8,12-16.2,18.9-16.8,5.4-.5,13.6,3.5,18.5-.4.2-.2.5-.4.7-.7.3-.3.4-.9.3-1.4,0-.2,0-.4-.2-.7-.2-.6-.4-1-.6-1.3-.1-.2-.3-.3-.4-.4-1.9-.8-3.9-1.8-5.9-2.8-1.9-1-3.7-2-5.5-3-.4-.2-.8-.6-1.1-1.1-2.4-3.8-6.5-5.2-9.7-5.7-.9-.2-2.1.2-3,0-.6-.2-1.3-1.2-2-1.6-2.5-1.4-6.2-.4-8.8-.3-.2,2.2,1.7,2.4,2.6,3.1,1.2.8,2.7,2.3,3.9,2.8,1,.5,2.6.3,2.5,1,0,.8-2,.5-2.4.3-1.2-.4-3.5-2.7-4.3-2.7-2.8,0-7.9,4.5-10.7,6.2-6.1,3.7-12.3,5.3-18.8,4.8-5.7-.5-10.2-4.3-15.6-6.3-16.5-6.1-30.7-2.5-40.1,2.2-10.7,5.3-13.5,9.9-18.3,13.2-4,2.8-20.5,9.5-31.7-2.7-3.1-3.4-5-7.8-5.2-8.1-3.3-7.6-3.4-15.4-3.3-19-.2.9-.3,2.2-.4,3.8-.2,3.4-.3,9.6,1.8,16,3.6,10.6,10.7,14.2,14,15.9,0,0,8.5,4.3,22,.1,1.4-.4,2.7-.9,2.7-.9,1.1-.4,2.4-1,4.1-2,1-.6,2.2-1.5,3.6-2.9,0,1.1-.5,1.7-1.9,3-1.5,1.3-3.2,2.4-4.3,2.9-.1.3-.4.8-.7,1.3-1,2-1,2.1-1.3,2.7-1.5,3.4-2.8,6.3-3.5,7.5-.6,1.1-1.8,2.9-3.2,4.4-3,3.2-6.5,4.7-10.2,5.1-1.4.1-2.8.1-4.2,0-.8,0-2.5-.5-3.7-.8-.3-.1-.7,0-1,.2-1.8,1.3-4.6,7.2-5.7,8.9-1,1.6-2.1,3.5-3.3,5.4-1.1,1.8-1.6,2.5-2.7,3.8-1.4,1.8-3.5,3.2-4.7,5-.3.4-3,4.9-2.1,5.3.5.2,2.3.1,3,0,1.9-.3,6-7.9,7.6-10.2,3.3-5,7.5-11.2,12.2-11.8,3-.4,5.9,1.4,8.9,1.9,3.3.6,8.3,1,11.5.7,9.4-.9,17.1-17.2,24.4-25.5,7.1-8,18.7-4.4,25.9,6.1,4.7,6.8,9.1,13.9,14.9,18.4,5.7,4.3,11.4,4.4,17.5,3.6,2.6-.3,5.2-1.3,7.9-1.6.9.1,1.4,2.5,2.2,3.3.6.6,5.3.4,6.5.3,2.3,0,4.6-.2,6.9-.3,4.4-.3,8.7-.6,13.1-.9h0c2.6-.2,5.2-.3,7.8-.4,5.4-.2,10.4-1.2,15.5,2.3,2.6,1.7,5.3,6,8.1,6.1.5,0,1.2-.2,1.7-.5.1,0,.2-.4.2-.6-.3-1.9-1.5-3.7-2.5-4.6ZM1709.1,331.2c.5-.5,2.5-1.3,2.5.9,0,0,0,.2,0,.4-.1.5-2,.5-2.4.3,0,0-.2-.3-.3-.6,0-.5.1-.7.2-.9ZM1698.1,327.7c-.2-.6-.1-.8-.3-1.1-.2-.6-.7-.5-1.5-.8-.6-.3-1.4-.8-1.4-1.1,0-.4,1.5-.6,2.7.4.2.2,1.3,1.1,1.2,2.3,0,.5-.2,1-.4,1-.2,0-.3-.4-.4-.7Z"/>
        <path d="M1588.3,354.1c-.9,1.5-2.1,4.3-2.9,6.2-.7,1.7-1.5,3.2-2.1,4.2-3.1,5.4-7.4,8.2-12.9,8.8-.6,0-1.2.1-1.9.1s-1.4,0-2.1-.1c-.2,0-.4,0-.6-.1-.4,0-.8-.2-1.1-.3-.8-.3-1.6-.5-2.4-.5-1.3,0-3.6,3.4-6,7.8-.4.8-.8,1.5-1,1.9-.4.6-.8,1.3-1.2,2-.4.6-.7,1.2-1.1,1.9-.9,1.4-1.9,2.7-3,3.6s-.6.5-1,.7c-1.3.8-2.7,1.3-4.1,1-1.5-.4-.5-1.9,0-2.8,1.7-3.3,4.9-5.4,7.2-8.2,3.2-4.1,6.2-9.7,8.9-13.5s.3-.4.5-.5c.7-.5.9-.1,2.1.5,7.1,3.7,12.7,3,18.5-5,.8-1.2,3.3-5.8,4.1-6.8.7-.2,1.5-.5,2.3-.8Z"/>
        <path d="M1734.1,407.9c0,.4-1.1.7-1.3.7-4,.1-6.8-5.7-10.2-8.4-1.1-.9-2.3-1.5-3.6-2-7.8-3.4-15.8-5.2-23.7-8.4-.4-.2-1.1-.4-2-.8,2.5-.2,5.1-.3,7.6-.5,1.6-.1,3.2-.2,4.8-.3,2.8,0,5.2.4,8.9,2.2,5,2.4,15.5,9.1,18.7,15.6.3.6.8,1.6.8,1.9Z"/>
      </g>
    </g>
    <g>
      <path class="st11" d="M591.3,302c0-1.1.3-2,.9-2.6.6-.6,1.3-.9,2.2-.9s1.6.2,2.1.7c.5.5.8,1.1.8,1.8h0c0,0-1.3,0-1.3,0h0c0-.5-.1-.9-.4-1.1s-.6-.4-1.2-.4-.9.2-1.3.6c-.3.4-.5,1-.5,1.8v.7c0,.8.2,1.3.5,1.7s.7.6,1.3.6.9-.1,1.1-.4.4-.6.4-1h0c0,0,1.3,0,1.3,0h0c0,.8-.3,1.4-.8,1.9-.5.5-1.2.7-2,.7s-1.7-.3-2.2-.9-.9-1.5-.9-2.6v-.4Z"/>
      <path class="st11" d="M598.3,303.1c0-.8.2-1.4.7-1.9s1.1-.7,1.9-.7,1.4.2,1.9.7.7,1.1.7,1.9v.2c0,.8-.2,1.4-.7,1.9s-1.1.7-1.9.7-1.4-.2-1.9-.7-.7-1.1-.7-1.9v-.2ZM599.6,303.3c0,.5.1.9.3,1.2.2.3.5.4.9.4s.7-.1.9-.4c.2-.3.3-.7.3-1.2v-.3c0-.5-.1-.9-.3-1.2s-.5-.4-.9-.4-.7.1-.9.4-.3.7-.3,1.2v.3Z"/>
      <path class="st11" d="M604.8,298.3h1.3v7.5h-1.3v-7.5Z"/>
      <path class="st11" d="M607.3,303.1c0-.8.2-1.4.7-1.9.5-.5,1.1-.7,1.9-.7s1.4.2,1.9.7c.5.5.7,1.1.7,1.9v.2c0,.8-.2,1.4-.7,1.9-.5.5-1.1.7-1.9.7s-1.4-.2-1.9-.7c-.5-.5-.7-1.1-.7-1.9v-.2ZM608.6,303.3c0,.5.1.9.3,1.2s.5.4.9.4.7-.1.9-.4.3-.7.3-1.2v-.3c0-.5-.1-.9-.3-1.2-.2-.3-.5-.4-.9-.4s-.7.1-.9.4-.3.7-.3,1.2v.3Z"/>
      <path class="st11" d="M613.8,300.6h1.2v.6h0c.1-.2.3-.4.5-.5s.4-.2.7-.2.1,0,.2,0,.1,0,.2,0v1.1c0,0-.1,0-.2,0,0,0-.1,0-.2,0-.2,0-.5,0-.6.2s-.3.3-.4.5v3.4h-1.3v-5.1Z"/>
      <path class="st11" d="M617.3,303.1c0-.8.2-1.4.7-1.9.5-.5,1.1-.7,1.8-.7s1.3.2,1.7.7c.4.5.6,1.1.6,1.9v.5h-4v-.8h2.7c0-.4,0-.7-.3-.9-.2-.2-.4-.3-.8-.3s-.7.2-.9.5-.3.7-.3,1.2v.3c0,.5.1.9.3,1.2.2.3.5.5,1,.5s.5,0,.8-.2c.2-.1.4-.3.5-.5l.9.6c-.2.3-.4.5-.8.7s-.8.3-1.3.3c-.8,0-1.5-.2-1.9-.7s-.7-1.1-.7-1.9v-.2Z"/>
      <path class="st11" d="M624.3,304.2h0c0,.3,0,.5.3.6s.4.2.7.2.5,0,.7-.2.2-.3.2-.5,0-.3-.2-.4-.5-.2-1.1-.3c-.6-.1-1-.3-1.3-.6s-.4-.6-.4-1,.2-.8.6-1.1.9-.4,1.5-.4,1.2.1,1.5.4.6.7.6,1.2h0s-1.2,0-1.2,0h0c0-.3,0-.4-.2-.6-.1-.1-.4-.2-.7-.2s-.5,0-.6.2-.2.2-.2.4,0,.3.2.4.5.2,1.1.3c.6.1,1,.3,1.3.6s.4.6.4,1-.2.9-.6,1.2c-.4.3-.9.4-1.7.4s-1.3-.1-1.7-.4-.6-.7-.6-1.2h0s1.3,0,1.3,0Z"/>
      <path class="st11" d="M630.8,300.6h3v.9h-3v-.9ZM631.6,300.1c0-.6.2-1.1.5-1.4.4-.3.8-.5,1.4-.5s.2,0,.3,0c.1,0,.2,0,.3,0v1c-.1,0-.2,0-.3,0s-.2,0-.2,0c-.3,0-.5,0-.6.2s-.2.4-.2.7v.9h0v4.8h-1.3v-5.7Z"/>
      <path class="st11" d="M634.8,300.6h1.3v3.2c0,.4,0,.6.2.8.2.1.4.2.7.2s.5,0,.7-.2c.2-.1.3-.3.4-.5v-3.5h1.3v5.1h-1.2v-.6h0c-.2.2-.4.4-.6.5s-.6.2-.9.2c-.5,0-.9-.2-1.3-.5s-.5-.8-.5-1.6v-3.2Z"/>
      <path class="st11" d="M640.6,303.1c0-.8.2-1.4.7-1.9.5-.5,1.1-.7,1.8-.7s1.3.2,1.7.7c.4.5.6,1.1.6,1.9v.5h-4v-.8h2.7c0-.4,0-.7-.3-.9-.2-.2-.4-.3-.8-.3s-.7.2-.9.5-.3.7-.3,1.2v.3c0,.5.1.9.3,1.2.2.3.5.5,1,.5s.5,0,.8-.2c.2-.1.4-.3.5-.5l.9.6c-.2.3-.4.5-.8.7s-.8.3-1.3.3c-.8,0-1.5-.2-1.9-.7s-.7-1.1-.7-1.9v-.2Z"/>
      <path class="st11" d="M646.7,300.6h1.2v.6h0c.1-.2.3-.4.5-.5.2-.1.4-.2.7-.2s.1,0,.2,0c0,0,.1,0,.2,0v1.1c0,0-.1,0-.2,0s-.1,0-.2,0c-.2,0-.5,0-.6.2s-.3.3-.4.5v3.4h-1.3v-5.1Z"/>
      <path class="st11" d="M650.8,303c.4-.3,1-.4,1.6-.4h1v-.3c0-.3,0-.5-.2-.6-.1-.2-.4-.2-.7-.2s-.6,0-.7.2c-.1.1-.2.3-.2.5h0c0,0-1.3,0-1.3,0h0c0-.5.2-.9.6-1.2s.9-.5,1.6-.5,1.2.1,1.6.4c.4.3.6.7.6,1.3v2.4c0,.2,0,.4,0,.6s0,.3.1.5h0c0,0-1.2,0-1.2,0,0,0,0-.2-.1-.3s0-.2,0-.4c-.1.2-.3.4-.6.5s-.6.2-1,.2-.9-.1-1.3-.4-.5-.7-.5-1.2.2-1,.7-1.3ZM651.7,304.8c.1.1.4.2.7.2s.6-.1.8-.3.3-.5.3-.7v-.6h-.9c-.4,0-.7,0-.9.2-.2.1-.3.3-.3.6s0,.4.2.6Z"/>
      <path class="st11" d="M658.7,303.1c0-.8.2-1.4.6-1.9s.9-.7,1.6-.7.6,0,.9.2.4.3.6.5v-2.9h1.3v7.5h-1.2v-.6h0c-.1.2-.3.4-.6.5-.3.1-.5.2-.9.2-.7,0-1.2-.2-1.6-.7s-.6-1.1-.6-1.9v-.2ZM660.3,304.5c.2.3.5.4.9.4s.5,0,.7-.2.3-.3.4-.5v-1.9c0-.2-.2-.4-.4-.5s-.4-.2-.7-.2-.7.1-.9.4-.3.7-.3,1.1v.3c0,.5,0,.8.3,1.1Z"/>
      <path class="st11" d="M664.9,303.1c0-.8.2-1.4.7-1.9.5-.5,1.1-.7,1.8-.7s1.3.2,1.7.7c.4.5.6,1.1.6,1.9v.5h-4v-.8h2.7c0-.4,0-.7-.3-.9-.2-.2-.4-.3-.8-.3s-.7.2-.9.5-.3.7-.3,1.2v.3c0,.5.1.9.3,1.2s.5.5,1,.5.5,0,.8-.2c.2-.1.4-.3.5-.5l.9.6c-.2.3-.4.5-.8.7s-.8.3-1.3.3c-.8,0-1.5-.2-1.9-.7s-.7-1.1-.7-1.9v-.2Z"/>
      <path class="st11" d="M673.5,300.6h1.2v.6h0c.1-.2.3-.4.6-.5s.6-.2.9-.2c.7,0,1.2.2,1.6.7s.6,1.1.6,1.9v.2c0,.8-.2,1.4-.6,1.9s-.9.7-1.6.7-.6,0-.9-.2-.5-.3-.6-.5v2.6h-1.3v-7.2ZM675.2,304.7c.2.2.4.2.7.2.4,0,.7-.1.9-.4s.3-.7.3-1.1v-.3c0-.5,0-.9-.3-1.1s-.5-.4-.9-.4-.5,0-.7.2-.3.3-.4.5v1.9c0,.2.2.4.4.5Z"/>
      <path class="st11" d="M680.1,303c.4-.3,1-.4,1.6-.4h1v-.3c0-.3,0-.5-.2-.6s-.4-.2-.7-.2-.6,0-.7.2c-.1.1-.2.3-.2.5h0c0,0-1.3,0-1.3,0h0c0-.5.2-.9.6-1.2.4-.3.9-.5,1.6-.5s1.2.1,1.6.4.6.7.6,1.3v2.4c0,.2,0,.4,0,.6s0,.3.1.5h0c0,0-1.2,0-1.2,0,0,0,0-.2-.1-.3,0-.1,0-.2,0-.4-.1.2-.3.4-.6.5s-.6.2-1,.2-.9-.1-1.3-.4-.5-.7-.5-1.2.2-1,.7-1.3ZM680.9,304.8c.1.1.4.2.7.2s.6-.1.8-.3.3-.5.3-.7v-.6h-.9c-.4,0-.7,0-.9.2-.2.1-.3.3-.3.6s0,.4.2.6Z"/>
      <path class="st11" d="M685.6,298.3h1.3v7.5h-1.3v-7.5Z"/>
      <path class="st11" d="M688.2,303.1c0-.8.2-1.4.7-1.9.5-.5,1.1-.7,1.8-.7s1.3.2,1.7.7c.4.5.6,1.1.6,1.9v.5h-4v-.8h2.7c0-.4,0-.7-.3-.9-.2-.2-.4-.3-.8-.3s-.7.2-.9.5-.3.7-.3,1.2v.3c0,.5.1.9.3,1.2.2.3.5.5,1,.5s.5,0,.8-.2c.2-.1.4-.3.5-.5l.9.6c-.2.3-.4.5-.8.7s-.8.3-1.3.3c-.8,0-1.5-.2-1.9-.7s-.7-1.1-.7-1.9v-.2Z"/>
      <path class="st11" d="M693.7,300.6h3.1v.9h-3.1v-.9ZM694.5,301.2h0v-1.7h1.3v4.9c0,.2,0,.4.1.5s.2.1.4.1.2,0,.2,0,.2,0,.2,0v.9c0,0-.2,0-.3.1s-.3,0-.5,0c-.4,0-.8-.1-1.1-.4-.3-.3-.4-.7-.4-1.2v-3.2Z"/>
      <path class="st11" d="M698.4,303c.4-.3,1-.4,1.6-.4h1.1v-.3c0-.3,0-.5-.2-.6s-.4-.2-.7-.2-.6,0-.7.2-.2.3-.2.5h0c0,0-1.3,0-1.3,0h0c0-.5.2-.9.6-1.2.4-.3.9-.5,1.6-.5s1.2.1,1.6.4.6.7.6,1.3v2.4c0,.2,0,.4,0,.6,0,.2,0,.3.1.5h0c0,0-1.2,0-1.2,0,0,0,0-.2-.1-.3,0-.1,0-.2,0-.4-.1.2-.3.4-.6.5-.3.2-.6.2-1,.2s-.9-.1-1.3-.4-.5-.7-.5-1.2.2-1,.7-1.3ZM699.2,304.8c.1.1.4.2.7.2s.6-.1.8-.3c.2-.2.3-.5.3-.7v-.6h-.9c-.4,0-.7,0-.9.2s-.3.3-.3.6,0,.4.2.6Z"/>
    </g>
    <g>
      <path class="st11" d="M1039.3,298.7l1.8,5c0,0,0,.2,0,.3,0,0,0,.2,0,.3h0c0-.1,0-.2,0-.3s0-.2,0-.3l1.8-5h1.3l-2.7,7.1h-1.3l-2.7-7.1h1.4Z"/>
      <path class="st11" d="M1044.8,303.1c0-.8.2-1.4.7-1.9s1.1-.7,1.8-.7,1.3.2,1.7.7.6,1.1.6,1.9v.5h-4v-.8h2.7c0-.4,0-.7-.3-.9s-.4-.3-.8-.3-.7.2-.9.5-.3.7-.3,1.2v.3c0,.5.1.9.3,1.2s.5.5,1,.5.5,0,.8-.2.4-.3.5-.5l.9.6c-.2.3-.4.5-.8.7s-.8.3-1.3.3c-.8,0-1.5-.2-1.9-.7s-.7-1.1-.7-1.9v-.2Z"/>
      <path class="st11" d="M1050.8,300.6h1.2v.6h0c.1-.2.3-.4.5-.5s.4-.2.7-.2.1,0,.2,0,.1,0,.2,0v1.1c0,0-.1,0-.2,0,0,0-.1,0-.2,0-.2,0-.5,0-.6.2s-.3.3-.4.5v3.4h-1.3v-5.1Z"/>
      <path class="st11" d="M1055.7,304.2h0c0,.3,0,.5.3.6s.4.2.7.2.5,0,.7-.2.2-.3.2-.5,0-.3-.2-.4-.5-.2-1.1-.3c-.6-.1-1-.3-1.3-.6s-.4-.6-.4-1,.2-.8.6-1.1.9-.4,1.5-.4,1.2.1,1.5.4.6.7.6,1.2h0s-1.2,0-1.2,0h0c0-.3,0-.4-.2-.6s-.4-.2-.7-.2-.5,0-.6.2-.2.2-.2.4,0,.3.2.4c.2,0,.5.2,1.1.3.6.1,1,.3,1.3.6s.4.6.4,1-.2.9-.6,1.2-.9.4-1.7.4-1.3-.1-1.7-.4-.6-.7-.6-1.2h0s1.3,0,1.3,0Z"/>
      <path class="st11" d="M1060.2,298.7c.1-.1.3-.2.6-.2s.4,0,.6.2.2.3.2.5,0,.4-.2.5-.3.2-.6.2-.4,0-.6-.2-.2-.3-.2-.5,0-.4.2-.5ZM1060.2,300.6h1.3v5.1h-1.3v-5.1Z"/>
      <path class="st11" d="M1062.7,303.1c0-.8.2-1.4.7-1.9s1.1-.7,1.9-.7,1.4.2,1.9.7.7,1.1.7,1.9v.2c0,.8-.2,1.4-.7,1.9s-1.1.7-1.9.7-1.4-.2-1.9-.7-.7-1.1-.7-1.9v-.2ZM1064,303.3c0,.5.1.9.3,1.2s.5.4.9.4.7-.1.9-.4.3-.7.3-1.2v-.3c0-.5-.1-.9-.3-1.2s-.5-.4-.9-.4-.7.1-.9.4c-.2.3-.3.7-.3,1.2v.3Z"/>
      <path class="st11" d="M1069.2,300.6h1.2v.6h0c.1-.2.4-.4.6-.5s.6-.2.9-.2c.5,0,1,.1,1.3.4s.5.8.5,1.6v3.3h-1.3v-3.3c0-.4,0-.6-.2-.7s-.4-.2-.7-.2-.4,0-.6.2-.3.3-.4.5v3.5h-1.3v-5.1Z"/>
      <path class="st11" d="M1077.8,298.3h1.3v3c.2-.2.4-.4.6-.6.3-.1.6-.2.9-.2s.9.2,1.2.5.5.8.5,1.5v3.3h-1.3v-3.2c0-.4,0-.6-.2-.8s-.4-.2-.7-.2-.5,0-.6.2c-.2.1-.3.3-.4.6v3.5h-1.3v-7.5Z"/>
      <path class="st11" d="M1083.5,303.1c0-.8.2-1.4.7-1.9.5-.5,1.1-.7,1.9-.7s1.4.2,1.9.7c.5.5.7,1.1.7,1.9v.2c0,.8-.2,1.4-.7,1.9-.5.5-1.1.7-1.9.7s-1.4-.2-1.9-.7c-.5-.5-.7-1.1-.7-1.9v-.2ZM1084.8,303.3c0,.5.1.9.3,1.2s.5.4.9.4.7-.1.9-.4.3-.7.3-1.2v-.3c0-.5-.1-.9-.3-1.2-.2-.3-.5-.4-.9-.4s-.7.1-.9.4-.3.7-.3,1.2v.3Z"/>
      <path class="st11" d="M1090,300.6h1.2v.6h0c.1-.2.3-.4.5-.5s.4-.2.7-.2.1,0,.2,0,.1,0,.2,0v1.1c0,0-.1,0-.2,0,0,0-.1,0-.2,0-.2,0-.5,0-.6.2s-.3.3-.4.5v3.4h-1.3v-5.1Z"/>
      <path class="st11" d="M1093.9,298.7c.1-.1.3-.2.6-.2s.4,0,.6.2.2.3.2.5,0,.4-.2.5-.3.2-.6.2-.4,0-.6-.2c-.1-.1-.2-.3-.2-.5s0-.4.2-.5ZM1093.8,300.6h1.3v5.1h-1.3v-5.1Z"/>
      <path class="st11" d="M1096.3,304.9l2.6-3.3h-2.6v-1h4.2v.8l-2.6,3.3h2.8v1h-4.4v-.8Z"/>
      <path class="st11" d="M1101.5,303.1c0-.8.2-1.4.7-1.9.5-.5,1.1-.7,1.9-.7s1.4.2,1.9.7c.5.5.7,1.1.7,1.9v.2c0,.8-.2,1.4-.7,1.9-.5.5-1.1.7-1.9.7s-1.4-.2-1.9-.7c-.5-.5-.7-1.1-.7-1.9v-.2ZM1102.8,303.3c0,.5.1.9.3,1.2s.5.4.9.4.7-.1.9-.4.3-.7.3-1.2v-.3c0-.5-.1-.9-.3-1.2-.2-.3-.5-.4-.9-.4s-.7.1-.9.4-.3.7-.3,1.2v.3Z"/>
      <path class="st11" d="M1107.9,300.6h1.2v.6h0c.1-.2.4-.4.6-.5s.6-.2.9-.2c.5,0,1,.1,1.3.4s.5.8.5,1.6v3.3h-1.3v-3.3c0-.4,0-.6-.2-.7-.2-.1-.4-.2-.7-.2s-.4,0-.6.2c-.2.1-.3.3-.4.5v3.5h-1.3v-5.1Z"/>
      <path class="st11" d="M1113.3,300.6h3.1v.9h-3.1v-.9ZM1114.1,301.2h0v-1.7h1.3v4.9c0,.2,0,.4.1.5s.2.1.4.1.2,0,.2,0c0,0,.2,0,.2,0v.9c0,0-.2,0-.3.1-.1,0-.3,0-.5,0-.4,0-.8-.1-1.1-.4-.3-.3-.4-.7-.4-1.2v-3.2Z"/>
      <path class="st11" d="M1118,303c.4-.3,1-.4,1.6-.4h1v-.3c0-.3,0-.5-.2-.6-.1-.2-.4-.2-.7-.2s-.6,0-.7.2c-.1.1-.2.3-.2.5h0c0,0-1.3,0-1.3,0h0c0-.5.2-.9.6-1.2s.9-.5,1.6-.5,1.2.1,1.6.4c.4.3.6.7.6,1.3v2.4c0,.2,0,.4,0,.6s0,.3.1.5h0c0,0-1.2,0-1.2,0,0,0,0-.2-.1-.3s0-.2,0-.4c-.1.2-.3.4-.6.5s-.6.2-1,.2-.9-.1-1.3-.4-.5-.7-.5-1.2.2-1,.7-1.3ZM1118.8,304.8c.1.1.4.2.7.2s.6-.1.8-.3.3-.5.3-.7v-.6h-.9c-.4,0-.7,0-.9.2-.2.1-.3.3-.3.6s0,.4.2.6Z"/>
      <path class="st11" d="M1123.5,298.3h1.3v7.5h-1.3v-7.5Z"/>
    </g>
    <g>
      <path class="st11" d="M1493,298.7h2.3c.9,0,1.7.3,2.4.9s.9,1.4.9,2.4v.4c0,1-.3,1.9-.9,2.4s-1.4.9-2.4.9h-2.3v-7.1ZM1495.2,304.8c.6,0,1.1-.2,1.4-.6s.5-1,.5-1.7v-.5c0-.7-.2-1.3-.5-1.7s-.8-.6-1.4-.6h-1v5.1h1Z"/>
      <path class="st11" d="M1499.7,303.1c0-.8.2-1.4.7-1.9s1.1-.7,1.8-.7,1.3.2,1.7.7.6,1.1.6,1.9v.5h-4v-.8h2.7c0-.4,0-.7-.3-.9s-.4-.3-.8-.3-.7.2-.9.5-.3.7-.3,1.2v.3c0,.5.1.9.3,1.2s.5.5,1,.5.5,0,.8-.2.4-.3.5-.5l.9.6c-.2.3-.4.5-.8.7s-.8.3-1.3.3c-.8,0-1.5-.2-1.9-.7s-.7-1.1-.7-1.9v-.2Z"/>
      <path class="st11" d="M1505.3,300.6h3v.9h-3v-.9ZM1506,300.1c0-.6.2-1.1.5-1.4.4-.3.8-.5,1.4-.5s.2,0,.3,0,.2,0,.3,0v1c-.1,0-.2,0-.3,0s-.2,0-.2,0c-.3,0-.5,0-.6.2s-.2.4-.2.7v.9h0v4.8h-1.3v-5.7Z"/>
      <path class="st11" d="M1508.9,303.1c0-.8.2-1.4.7-1.9s1.1-.7,1.9-.7,1.4.2,1.9.7.7,1.1.7,1.9v.2c0,.8-.2,1.4-.7,1.9s-1.1.7-1.9.7-1.4-.2-1.9-.7-.7-1.1-.7-1.9v-.2ZM1510.2,303.3c0,.5.1.9.3,1.2.2.3.5.4.9.4s.7-.1.9-.4c.2-.3.3-.7.3-1.2v-.3c0-.5-.1-.9-.3-1.2s-.5-.4-.9-.4-.7.1-.9.4-.3.7-.3,1.2v.3Z"/>
      <path class="st11" d="M1515.4,300.6h1.2v.6h0c.1-.2.3-.4.5-.5s.4-.2.7-.2.1,0,.2,0c0,0,.1,0,.2,0v1.1c0,0-.1,0-.2,0s-.1,0-.2,0c-.2,0-.5,0-.6.2s-.3.3-.4.5v3.4h-1.3v-5.1Z"/>
      <path class="st11" d="M1519.2,300.6h1.2v.6h0c.2-.2.4-.4.6-.5s.5-.2.8-.2.7,0,.9.2.5.4.6.7h0c.2-.3.4-.5.7-.7s.6-.2.9-.2c.5,0,.9.2,1.3.5.3.3.5.8.5,1.6v3.2h-1.3v-3.3c0-.3,0-.6-.2-.7s-.4-.2-.6-.2c-.2,0-.4,0-.6.2-.2.1-.3.3-.4.5v3.5h-1.3v-3.3c0-.3,0-.6-.2-.8-.1-.2-.4-.2-.6-.2s-.4,0-.6.2-.3.3-.4.5v3.5h-1.3v-5.1Z"/>
      <path class="st11" d="M1528.7,303c.4-.3,1-.4,1.6-.4h1v-.3c0-.3,0-.5-.2-.6s-.4-.2-.7-.2-.6,0-.7.2-.2.3-.2.5h0c0,0-1.3,0-1.3,0h0c0-.5.2-.9.6-1.2s.9-.5,1.6-.5,1.2.1,1.6.4c.4.3.6.7.6,1.3v2.4c0,.2,0,.4,0,.6,0,.2,0,.3.1.5h0c0,0-1.2,0-1.2,0,0,0,0-.2-.1-.3s0-.2,0-.4c-.1.2-.3.4-.6.5-.3.2-.6.2-1,.2s-.9-.1-1.3-.4-.5-.7-.5-1.2.2-1,.7-1.3ZM1529.5,304.8c.1.1.4.2.7.2s.6-.1.8-.3c.2-.2.3-.5.3-.7v-.6h-.9c-.4,0-.7,0-.9.2s-.3.3-.3.6,0,.4.2.6Z"/>
      <path class="st11" d="M1533.9,303.1c0-.8.2-1.4.7-1.9s1.1-.7,1.8-.7,1.3.2,1.7.6.6.8.6,1.3h0c0,0-1.2,0-1.2,0h0c0-.3,0-.5-.3-.7s-.4-.3-.8-.3-.7.2-.9.5-.3.7-.3,1.2v.3c0,.5,0,.9.3,1.2s.5.5.9.5.6,0,.8-.3.2-.4.2-.6h0s1.2,0,1.2,0h0c0,.5-.2,1-.6,1.4s-.9.6-1.7.6-1.4-.2-1.8-.7-.7-1.1-.7-1.9v-.2Z"/>
      <path class="st11" d="M1540,298.7c.1-.1.3-.2.6-.2s.4,0,.6.2c.1.1.2.3.2.5s0,.4-.2.5c-.1.1-.3.2-.6.2s-.4,0-.6-.2-.2-.3-.2-.5,0-.4.2-.5ZM1539.9,300.6h1.3v5.1h-1.3v-5.1Z"/>
      <path class="st11" d="M1542.5,303.1c0-.8.2-1.4.7-1.9s1.1-.7,1.9-.7,1.4.2,1.9.7.7,1.1.7,1.9v.2c0,.8-.2,1.4-.7,1.9s-1.1.7-1.9.7-1.4-.2-1.9-.7-.7-1.1-.7-1.9v-.2ZM1543.8,303.3c0,.5.1.9.3,1.2s.5.4.9.4.7-.1.9-.4.3-.7.3-1.2v-.3c0-.5-.1-.9-.3-1.2s-.5-.4-.9-.4-.7.1-.9.4c-.2.3-.3.7-.3,1.2v.3ZM1545.3,297.8l1,.6-1.5,1.4-.7-.5,1.2-1.5Z"/>
      <path class="st11" d="M1548.9,300.6h1.2v.6h0c.1-.2.4-.4.6-.5s.6-.2.9-.2c.5,0,1,.1,1.3.4s.5.8.5,1.6v3.3h-1.3v-3.3c0-.4,0-.6-.2-.7s-.4-.2-.7-.2-.4,0-.6.2-.3.3-.4.5v3.5h-1.3v-5.1Z"/>
    </g>
    <g>
      <path class="st11" d="M1493,697.4h2.5c.8,0,1.4.2,1.9.6s.7.9.7,1.6-.2,1.2-.7,1.6c-.4.4-1.1.6-1.9.6h-1.2v2.7h-1.3v-7.1ZM1495.4,700.8c.5,0,.8-.1,1-.3.2-.2.3-.5.3-.9s0-.7-.3-.9c-.2-.2-.5-.3-1-.3h-1.2v2.4h1.2ZM1495.2,701.2h1.4c0,0,1.8,3.3,1.8,3.3h-1.5l-1.7-3.3Z"/>
      <path class="st11" d="M1499.1,701.9c0-.8.2-1.4.7-1.9.5-.5,1.1-.7,1.8-.7s1.3.2,1.7.7c.4.5.6,1.1.6,1.9v.5h-4v-.8h2.7c0-.4,0-.7-.3-.9-.2-.2-.4-.3-.8-.3s-.7.2-.9.5-.3.7-.3,1.2v.3c0,.5.1.9.3,1.2.2.3.5.5,1,.5s.5,0,.8-.2c.2-.1.4-.3.5-.5l.9.6c-.2.3-.4.5-.8.7s-.8.3-1.3.3c-.8,0-1.5-.2-1.9-.7s-.7-1.1-.7-1.9v-.2Z"/>
      <path class="st11" d="M1505.2,697h1.3v7.5h-1.3v-7.5Z"/>
      <path class="st11" d="M1508,697h1.3v7.5h-1.3v-7.5Z"/>
      <path class="st11" d="M1510.6,701.9c0-.8.2-1.4.7-1.9s1.1-.7,1.8-.7,1.3.2,1.7.7.6,1.1.6,1.9v.5h-4v-.8h2.7c0-.4,0-.7-.3-.9s-.4-.3-.8-.3-.7.2-.9.5-.3.7-.3,1.2v.3c0,.5.1.9.3,1.2s.5.5,1,.5.5,0,.8-.2.4-.3.5-.5l.9.6c-.2.3-.4.5-.8.7s-.8.3-1.3.3c-.8,0-1.5-.2-1.9-.7s-.7-1.1-.7-1.9v-.2Z"/>
      <path class="st11" d="M1516.7,699.4h1.2v.6h0c.1-.2.4-.4.6-.5s.6-.2.9-.2c.5,0,1,.1,1.3.4s.5.8.5,1.6v3.3h-1.3v-3.3c0-.4,0-.6-.2-.7-.2-.1-.4-.2-.7-.2s-.4,0-.6.2c-.2.1-.3.3-.4.5v3.5h-1.3v-5.1Z"/>
      <path class="st11" d="M1522.5,701.9c0-.8.2-1.4.7-1.9s1.1-.7,1.9-.7,1.4.2,1.9.7.7,1.1.7,1.9v.2c0,.8-.2,1.4-.7,1.9s-1.1.7-1.9.7-1.4-.2-1.9-.7-.7-1.1-.7-1.9v-.2ZM1523.8,702.1c0,.5.1.9.3,1.2s.5.4.9.4.7-.1.9-.4.3-.7.3-1.2v-.3c0-.5-.1-.9-.3-1.2s-.5-.4-.9-.4-.7.1-.9.4c-.2.3-.3.7-.3,1.2v.3Z"/>
      <path class="st11" d="M1531.6,697.4c.1-.1.3-.2.6-.2s.4,0,.6.2c.1.1.2.3.2.5s0,.4-.2.5c-.1.1-.3.2-.6.2s-.4,0-.6-.2-.2-.3-.2-.5,0-.4.2-.5ZM1531.5,699.4h1.3v5.1h-1.3v-5.1Z"/>
      <path class="st11" d="M1534.4,699.4h1.2v.6h0c.1-.2.4-.4.6-.5s.6-.2.9-.2c.5,0,1,.1,1.3.4s.5.8.5,1.6v3.3h-1.3v-3.3c0-.4,0-.6-.2-.7s-.4-.2-.7-.2-.4,0-.6.2-.3.3-.4.5v3.5h-1.3v-5.1Z"/>
      <path class="st11" d="M1540.9,699.4l1.1,3.2c0,.1,0,.2,0,.3s0,.2,0,.3h0c0,0,0-.2,0-.3,0-.1,0-.2.1-.3l1.1-3.2h1.2l-2,5.1h-1.1l-2-5.1h1.3Z"/>
      <path class="st11" d="M1545.2,701.9c0-.8.2-1.4.7-1.9.5-.5,1.1-.7,1.8-.7s1.3.2,1.7.7c.4.5.6,1.1.6,1.9v.5h-4v-.8h2.7c0-.4,0-.7-.3-.9-.2-.2-.4-.3-.8-.3s-.7.2-.9.5-.3.7-.3,1.2v.3c0,.5.1.9.3,1.2.2.3.5.5,1,.5s.5,0,.8-.2c.2-.1.4-.3.5-.5l.9.6c-.2.3-.4.5-.8.7s-.8.3-1.3.3c-.8,0-1.5-.2-1.9-.7s-.7-1.1-.7-1.9v-.2Z"/>
      <path class="st11" d="M1551.2,699.4h1.2v.6h0c.1-.2.3-.4.5-.5.2-.1.4-.2.7-.2s.1,0,.2,0c0,0,.1,0,.2,0v1.1c0,0-.1,0-.2,0s-.1,0-.2,0c-.2,0-.5,0-.7.2s-.3.3-.4.5v3.4h-1.3v-5.1Z"/>
      <path class="st11" d="M1554.7,699.4h3.1v.9h-3.1v-.9ZM1555.5,699.9h0v-1.7h1.3v4.9c0,.2,0,.4.1.5s.2.1.4.1.2,0,.2,0c0,0,.2,0,.2,0v.9c0,0-.2,0-.3.1-.1,0-.3,0-.5,0-.4,0-.8-.1-1.1-.4s-.4-.7-.4-1.2v-3.2Z"/>
      <path class="st11" d="M1559,697.4c.1-.1.3-.2.6-.2s.4,0,.6.2.2.3.2.5,0,.4-.2.5-.3.2-.6.2-.4,0-.6-.2-.2-.3-.2-.5,0-.4.2-.5ZM1558.9,699.4h1.3v5.1h-1.3v-5.1Z"/>
      <path class="st11" d="M1561.5,701.9c0-.8.2-1.4.6-1.9s.9-.7,1.6-.7.6,0,.9.2.4.3.6.5v-2.9h1.3v7.5h-1.2v-.6h0c-.1.2-.3.4-.6.5-.3.1-.5.2-.9.2-.7,0-1.2-.2-1.6-.7-.4-.5-.6-1.1-.6-1.9v-.2ZM1563.1,703.2c.2.3.5.4.9.4s.5,0,.7-.2.3-.3.4-.5v-1.9c0-.2-.2-.4-.4-.5s-.4-.2-.7-.2-.7.1-.9.4c-.2.3-.3.7-.3,1.1v.3c0,.5,0,.8.3,1.1Z"/>
      <path class="st11" d="M1567.7,701.9c0-.8.2-1.4.7-1.9.5-.5,1.1-.7,1.9-.7s1.4.2,1.9.7c.5.5.7,1.1.7,1.9v.2c0,.8-.2,1.4-.7,1.9-.5.5-1.1.7-1.9.7s-1.4-.2-1.9-.7c-.5-.5-.7-1.1-.7-1.9v-.2ZM1569,702.1c0,.5.1.9.3,1.2s.5.4.9.4.7-.1.9-.4.3-.7.3-1.2v-.3c0-.5-.1-.9-.3-1.2-.2-.3-.5-.4-.9-.4s-.7.1-.9.4-.3.7-.3,1.2v.3Z"/>
    </g>
    <g>
      <path class="st11" d="M591.7,700.7c0-1.1.3-2,.9-2.6.6-.6,1.3-.9,2.2-.9s1.6.2,2.1.7c.5.5.8,1.1.8,1.8h0c0,0-1.3,0-1.3,0h0c0-.5-.1-.9-.4-1.1s-.6-.4-1.2-.4-.9.2-1.3.6c-.3.4-.5,1-.5,1.8v.7c0,.8.2,1.3.5,1.7s.7.6,1.3.6.9-.1,1.1-.4.4-.6.4-1h0c0,0,1.3,0,1.3,0h0c0,.8-.3,1.4-.8,1.9-.5.5-1.2.7-2,.7s-1.7-.3-2.2-.9-.9-1.5-.9-2.6v-.4Z"/>
      <path class="st11" d="M598.8,701.9c0-.8.2-1.4.7-1.9s1.1-.7,1.9-.7,1.4.2,1.9.7.7,1.1.7,1.9v.2c0,.8-.2,1.4-.7,1.9s-1.1.7-1.9.7-1.4-.2-1.9-.7-.7-1.1-.7-1.9v-.2ZM600.1,702.1c0,.5.1.9.3,1.2s.5.4.9.4.7-.1.9-.4.3-.7.3-1.2v-.3c0-.5-.1-.9-.3-1.2s-.5-.4-.9-.4-.7.1-.9.4c-.2.3-.3.7-.3,1.2v.3Z"/>
      <path class="st11" d="M605.2,699.4h1.2v.6h0c.1-.2.4-.4.6-.5s.6-.2.9-.2c.5,0,1,.1,1.3.4s.5.8.5,1.6v3.3h-1.3v-3.3c0-.4,0-.6-.2-.7s-.4-.2-.7-.2-.4,0-.6.2-.3.3-.4.5v3.5h-1.3v-5.1Z"/>
      <path class="st11" d="M614.8,702.9h0c0,.3,0,.5.3.6s.4.2.7.2.5,0,.7-.2.2-.3.2-.5,0-.3-.2-.4-.5-.2-1.1-.3c-.6-.1-1-.3-1.3-.6s-.4-.6-.4-1,.2-.8.6-1.1.9-.4,1.5-.4,1.2.1,1.5.4.6.7.6,1.2h0s-1.2,0-1.2,0h0c0-.3,0-.4-.2-.6s-.4-.2-.7-.2-.5,0-.6.2-.2.2-.2.4,0,.3.2.4c.2,0,.5.2,1.1.3.6.1,1,.3,1.3.6s.4.6.4,1-.2.9-.6,1.2-.9.4-1.7.4-1.3-.1-1.7-.4-.6-.7-.6-1.2h0s1.3,0,1.3,0Z"/>
      <path class="st11" d="M619,701.9c0-.8.2-1.4.7-1.9.5-.5,1.1-.7,1.9-.7s1.4.2,1.9.7c.5.5.7,1.1.7,1.9v.2c0,.8-.2,1.4-.7,1.9-.5.5-1.1.7-1.9.7s-1.4-.2-1.9-.7c-.5-.5-.7-1.1-.7-1.9v-.2ZM620.3,702.1c0,.5.1.9.3,1.2s.5.4.9.4.7-.1.9-.4.3-.7.3-1.2v-.3c0-.5-.1-.9-.3-1.2-.2-.3-.5-.4-.9-.4s-.7.1-.9.4-.3.7-.3,1.2v.3Z"/>
      <path class="st11" d="M625.4,699.4h1.2v.6h0c.2-.2.4-.4.6-.5s.5-.2.8-.2.7,0,.9.2.5.4.6.7h0c.2-.3.4-.5.7-.7.3-.1.6-.2.9-.2.5,0,.9.2,1.3.5.3.3.5.8.5,1.6v3.2h-1.3v-3.3c0-.3,0-.6-.2-.7s-.4-.2-.6-.2c-.2,0-.4,0-.6.2s-.3.3-.4.5v3.5h-1.3v-3.3c0-.3,0-.6-.2-.8-.1-.2-.4-.2-.6-.2s-.4,0-.6.2-.3.3-.4.5v3.5h-1.3v-5.1Z"/>
      <path class="st11" d="M634.5,697h1.3v2.9c.2-.2.4-.4.6-.5.2-.1.5-.2.9-.2.7,0,1.2.2,1.6.7s.6,1.1.6,1.9v.2c0,.8-.2,1.4-.6,1.9s-.9.7-1.6.7-.6,0-.9-.2-.5-.3-.6-.5h0v.6h-1.2v-7.5ZM636.2,703.4c.2.2.4.2.7.2s.7-.1.9-.4.3-.7.3-1.1v-.2c0-.5,0-.8-.3-1.1-.2-.3-.5-.4-.9-.4s-.5,0-.7.2-.3.3-.4.5v1.8c0,.2.2.4.4.6Z"/>
      <path class="st11" d="M640.7,699.4h1.2v.6h0c.1-.2.3-.4.5-.5s.4-.2.7-.2.1,0,.2,0,.1,0,.2,0v1.1c0,0-.1,0-.2,0,0,0-.1,0-.2,0-.2,0-.5,0-.6.2s-.3.3-.4.5v3.4h-1.3v-5.1Z"/>
      <path class="st11" d="M644.9,701.7c.4-.3,1-.4,1.6-.4h1v-.3c0-.3,0-.5-.2-.6s-.4-.2-.7-.2-.6,0-.7.2-.2.3-.2.5h0c0,0-1.3,0-1.3,0h0c0-.5.2-.9.6-1.2.4-.3.9-.5,1.6-.5s1.2.1,1.6.4.6.7.6,1.3v2.4c0,.2,0,.4,0,.6,0,.2,0,.3.1.5h0c0,0-1.2,0-1.2,0,0,0,0-.2-.1-.3,0-.1,0-.2,0-.4-.1.2-.3.4-.6.5-.3.2-.6.2-1.1.2s-.9-.1-1.3-.4-.5-.7-.5-1.2.2-1,.7-1.3ZM645.8,703.5c.1.1.4.2.7.2s.6-.1.8-.3c.2-.2.3-.5.3-.7v-.6h-.9c-.4,0-.7,0-.9.2s-.3.3-.3.6,0,.4.2.6Z"/>
    </g>
    <rect class="st14" x="1027.3" y="692.4" width="142.7" height="18.6"/>
    <g>
      <path class="st11" d="M1031.8,702.4h1.3c0,.5.1.8.4.9.2.2.6.3,1,.3s.8,0,1-.3c.2-.2.4-.4.4-.7s-.1-.5-.3-.7c-.2-.2-.7-.3-1.4-.5-.8-.2-1.3-.5-1.7-.8-.4-.3-.6-.8-.6-1.3,0-.6.2-1.1.7-1.5.5-.4,1.1-.6,1.9-.6s1.4.2,1.9.6.7.9.7,1.5h0c0,.1-1.3.1-1.3.1h0c0-.4-.1-.7-.3-.9-.2-.2-.5-.3-1-.3s-.7,0-.9.2-.3.4-.3.7.1.5.3.6c.2.1.7.3,1.4.5.7.2,1.3.5,1.7.8s.6.8.6,1.4-.2,1.2-.7,1.5-1.1.6-2,.6-1.5-.2-2-.6c-.5-.4-.8-.9-.8-1.6h0Z"/>
      <path class="st11" d="M1038.4,701.9c0-.8.2-1.4.7-1.9.5-.5,1.1-.7,1.9-.7s1.4.2,1.9.7c.5.5.7,1.1.7,1.9v.2c0,.8-.2,1.4-.7,1.9-.5.5-1.1.7-1.9.7s-1.4-.2-1.9-.7c-.5-.5-.7-1.1-.7-1.9v-.2ZM1039.7,702.1c0,.5.1.9.3,1.2s.5.4.9.4.7-.1.9-.4.3-.7.3-1.2v-.3c0-.5-.1-.9-.3-1.2-.2-.3-.5-.4-.9-.4s-.7.1-.9.4-.3.7-.3,1.2v.3Z"/>
      <path class="st11" d="M1044.8,697h1.3v2.9c.2-.2.4-.4.6-.5s.5-.2.9-.2c.7,0,1.2.2,1.6.7s.6,1.1.6,1.9v.2c0,.8-.2,1.4-.6,1.9s-.9.7-1.6.7-.6,0-.9-.2-.5-.3-.6-.5h0v.6h-1.2v-7.5ZM1046.5,703.4c.2.2.4.2.7.2s.7-.1.9-.4c.2-.3.3-.7.3-1.1v-.2c0-.5,0-.8-.3-1.1-.2-.3-.5-.4-.9-.4s-.5,0-.7.2-.3.3-.4.5v1.8c0,.2.2.4.4.6Z"/>
      <path class="st11" d="M1051,699.4h1.2v.6h0c.1-.2.3-.4.5-.5s.4-.2.7-.2.1,0,.2,0c0,0,.1,0,.2,0v1.1c0,0-.1,0-.2,0,0,0-.1,0-.2,0-.2,0-.5,0-.6.2s-.3.3-.4.5v3.4h-1.3v-5.1Z"/>
      <path class="st11" d="M1054.5,701.9c0-.8.2-1.4.7-1.9.5-.5,1.1-.7,1.8-.7s1.3.2,1.7.7c.4.5.6,1.1.6,1.9v.5h-4v-.8h2.7c0-.4,0-.7-.3-.9-.2-.2-.4-.3-.8-.3s-.7.2-.9.5-.3.7-.3,1.2v.3c0,.5.1.9.3,1.2.2.3.5.5,1,.5s.5,0,.8-.2c.2-.1.4-.3.5-.5l.9.6c-.2.3-.4.5-.8.7s-.8.3-1.3.3c-.8,0-1.5-.2-1.9-.7s-.7-1.1-.7-1.9v-.2Z"/>
      <path class="st11" d="M1062.6,699.4h3v.9h-3v-.9ZM1063.3,698.8c0-.6.2-1.1.5-1.4s.8-.5,1.4-.5.2,0,.3,0,.2,0,.3,0v1c-.1,0-.2,0-.3,0s-.2,0-.2,0c-.3,0-.5,0-.6.2s-.2.4-.2.7v.9h0v4.8h-1.3v-5.7Z"/>
      <path class="st11" d="M1066.3,701.9c0-.8.2-1.4.7-1.9s1.1-.7,1.9-.7,1.4.2,1.9.7.7,1.1.7,1.9v.2c0,.8-.2,1.4-.7,1.9s-1.1.7-1.9.7-1.4-.2-1.9-.7-.7-1.1-.7-1.9v-.2ZM1067.6,702.1c0,.5.1.9.3,1.2s.5.4.9.4.7-.1.9-.4.3-.7.3-1.2v-.3c0-.5-.1-.9-.3-1.2s-.5-.4-.9-.4-.7.1-.9.4c-.2.3-.3.7-.3,1.2v.3Z"/>
      <path class="st11" d="M1072.7,699.4h1.2v.6h0c.1-.2.4-.4.6-.5s.6-.2.9-.2c.5,0,1,.1,1.3.4s.5.8.5,1.6v3.3h-1.3v-3.3c0-.4,0-.6-.2-.7s-.4-.2-.7-.2-.4,0-.6.2-.3.3-.4.5v3.5h-1.3v-5.1Z"/>
      <path class="st11" d="M1078.5,701.9c0-.8.2-1.4.6-1.9.4-.5.9-.7,1.6-.7s.6,0,.9.2c.2.1.4.3.6.5v-2.9h1.3v7.5h-1.2v-.6h0c-.1.2-.3.4-.6.5s-.5.2-.9.2c-.7,0-1.2-.2-1.6-.7s-.6-1.1-.6-1.9v-.2ZM1080.1,703.2c.2.3.5.4.9.4s.5,0,.7-.2c.2-.2.3-.3.4-.5v-1.9c0-.2-.2-.4-.4-.5-.2-.1-.4-.2-.7-.2s-.7.1-.9.4-.3.7-.3,1.1v.3c0,.5,0,.8.3,1.1Z"/>
      <path class="st11" d="M1084.6,701.9c0-.8.2-1.4.7-1.9s1.1-.7,1.9-.7,1.4.2,1.9.7.7,1.1.7,1.9v.2c0,.8-.2,1.4-.7,1.9s-1.1.7-1.9.7-1.4-.2-1.9-.7-.7-1.1-.7-1.9v-.2ZM1085.9,702.1c0,.5.1.9.3,1.2.2.3.5.4.9.4s.7-.1.9-.4c.2-.3.3-.7.3-1.2v-.3c0-.5-.1-.9-.3-1.2s-.5-.4-.9-.4-.7.1-.9.4c-.2.3-.3.7-.3,1.2v.3Z"/>
      <path class="st11" d="M1092,702.9h0c0,.3,0,.5.3.6s.4.2.7.2.5,0,.7-.2.2-.3.2-.5,0-.3-.2-.4-.5-.2-1.1-.3c-.6-.1-1-.3-1.3-.6s-.4-.6-.4-1,.2-.8.6-1.1.9-.4,1.5-.4,1.2.1,1.5.4.6.7.6,1.2h0s-1.2,0-1.2,0h0c0-.3,0-.4-.2-.6s-.4-.2-.7-.2-.5,0-.6.2-.2.2-.2.4,0,.3.2.4c.2,0,.5.2,1.1.3.6.1,1,.3,1.3.6s.4.6.4,1-.2.9-.6,1.2-.9.4-1.7.4-1.3-.1-1.7-.4-.6-.7-.6-1.2h0s1.3,0,1.3,0Z"/>
      <path class="st11" d="M1098.8,701.9c0-.8.2-1.4.7-1.9s1.1-.7,1.8-.7,1.3.2,1.7.6.6.8.6,1.3h0c0,0-1.2,0-1.2,0h0c0-.3,0-.5-.3-.7s-.4-.3-.8-.3-.7.2-.9.5-.3.7-.3,1.2v.3c0,.5,0,.9.3,1.2s.5.5.9.5.6,0,.8-.3.2-.4.2-.6h0s1.2,0,1.2,0h0c0,.5-.2,1-.6,1.4s-.9.6-1.7.6-1.4-.2-1.8-.7-.7-1.1-.7-1.9v-.2Z"/>
      <path class="st11" d="M1104.6,701.9c0-.8.2-1.4.7-1.9.5-.5,1.1-.7,1.9-.7s1.4.2,1.9.7c.5.5.7,1.1.7,1.9v.2c0,.8-.2,1.4-.7,1.9-.5.5-1.1.7-1.9.7s-1.4-.2-1.9-.7c-.5-.5-.7-1.1-.7-1.9v-.2ZM1105.9,702.1c0,.5.1.9.3,1.2s.5.4.9.4.7-.1.9-.4.3-.7.3-1.2v-.3c0-.5-.1-.9-.3-1.2-.2-.3-.5-.4-.9-.4s-.7.1-.9.4-.3.7-.3,1.2v.3Z"/>
      <path class="st11" d="M1111,699.4h1.2v.6h0c.1-.2.4-.4.6-.5s.6-.2.9-.2c.5,0,1,.1,1.3.4s.5.8.5,1.6v3.3h-1.3v-3.3c0-.4,0-.6-.2-.7-.2-.1-.4-.2-.7-.2s-.4,0-.6.2c-.2.1-.3.3-.4.5v3.5h-1.3v-5.1Z"/>
      <path class="st11" d="M1119.7,699.4h1.2v.6h0c.1-.2.3-.4.6-.5s.6-.2.9-.2c.7,0,1.2.2,1.6.7s.6,1.1.6,1.9v.2c0,.8-.2,1.4-.6,1.9s-.9.7-1.6.7-.6,0-.9-.2c-.3-.1-.5-.3-.6-.5v2.6h-1.3v-7.2ZM1121.4,703.4c.2.2.4.2.7.2.4,0,.7-.1.9-.4s.3-.7.3-1.1v-.3c0-.5,0-.9-.3-1.1s-.5-.4-.9-.4-.5,0-.7.2-.3.3-.4.5v1.9c0,.2.2.4.4.5Z"/>
      <path class="st11" d="M1126.2,701.7c.4-.3,1-.4,1.6-.4h1v-.3c0-.3,0-.5-.2-.6s-.4-.2-.7-.2-.6,0-.7.2c-.1.1-.2.3-.2.5h0c0,0-1.3,0-1.3,0h0c0-.5.2-.9.6-1.2s.9-.5,1.6-.5,1.2.1,1.6.4.6.7.6,1.3v2.4c0,.2,0,.4,0,.6,0,.2,0,.3.1.5h0c0,0-1.2,0-1.2,0,0,0,0-.2-.1-.3s0-.2,0-.4c-.1.2-.3.4-.6.5-.3.2-.6.2-1,.2s-.9-.1-1.3-.4-.5-.7-.5-1.2.2-1,.7-1.3ZM1127.1,703.5c.1.1.4.2.7.2s.6-.1.8-.3c.2-.2.3-.5.3-.7v-.6h-.9c-.4,0-.7,0-.9.2-.2.1-.3.3-.3.6s0,.4.2.6Z"/>
      <path class="st11" d="M1131.2,699.4h3.1v.9h-3.1v-.9ZM1132,699.9h0v-1.7h1.3v4.9c0,.2,0,.4.1.5s.2.1.4.1.2,0,.2,0,.2,0,.2,0v.9c0,0-.2,0-.3.1s-.3,0-.5,0c-.4,0-.8-.1-1.1-.4s-.4-.7-.4-1.2v-3.2Z"/>
      <path class="st11" d="M1135.4,699.4h1.2v.6h0c.1-.2.3-.4.5-.5.2-.1.4-.2.7-.2s.1,0,.2,0,.1,0,.2,0v1.1c0,0-.1,0-.2,0s-.1,0-.2,0c-.2,0-.5,0-.6.2s-.3.3-.4.5v3.4h-1.3v-5.1Z"/>
      <path class="st11" d="M1138.9,701.9c0-.8.2-1.4.7-1.9s1.1-.7,1.9-.7,1.4.2,1.9.7.7,1.1.7,1.9v.2c0,.8-.2,1.4-.7,1.9s-1.1.7-1.9.7-1.4-.2-1.9-.7-.7-1.1-.7-1.9v-.2ZM1140.2,702.1c0,.5.1.9.3,1.2.2.3.5.4.9.4s.7-.1.9-.4c.2-.3.3-.7.3-1.2v-.3c0-.5-.1-.9-.3-1.2s-.5-.4-.9-.4-.7.1-.9.4-.3.7-.3,1.2v.3Z"/>
      <path class="st11" d="M1145.3,699.4h1.2v.6h0c.1-.2.4-.4.6-.5s.6-.2.9-.2c.5,0,1,.1,1.3.4s.5.8.5,1.6v3.3h-1.3v-3.3c0-.4,0-.6-.2-.7-.2-.1-.4-.2-.7-.2s-.4,0-.6.2c-.2.1-.3.3-.4.5v3.5h-1.3v-5.1Z"/>
      <path class="st11" d="M1151.1,701.9c0-.8.2-1.4.7-1.9s1.1-.7,1.8-.7,1.3.2,1.7.7.6,1.1.6,1.9v.5h-4v-.8h2.7c0-.4,0-.7-.3-.9s-.4-.3-.8-.3-.7.2-.9.5-.3.7-.3,1.2v.3c0,.5.1.9.3,1.2s.5.5,1,.5.5,0,.8-.2.4-.3.5-.5l.9.6c-.2.3-.4.5-.8.7s-.8.3-1.3.3c-.8,0-1.5-.2-1.9-.7s-.7-1.1-.7-1.9v-.2Z"/>
      <path class="st11" d="M1158.1,702.9h0c0,.3,0,.5.3.6s.4.2.7.2.5,0,.7-.2.2-.3.2-.5,0-.3-.2-.4-.5-.2-1.1-.3c-.6-.1-1-.3-1.3-.6s-.4-.6-.4-1,.2-.8.6-1.1c.4-.3.9-.4,1.5-.4s1.2.1,1.5.4.6.7.6,1.2h0s-1.2,0-1.2,0h0c0-.3,0-.4-.2-.6-.1-.1-.4-.2-.7-.2s-.5,0-.6.2c-.1.1-.2.2-.2.4s0,.3.2.4.5.2,1.1.3c.6.1,1,.3,1.3.6s.4.6.4,1-.2.9-.6,1.2c-.4.3-.9.4-1.7.4s-1.3-.1-1.7-.4c-.4-.3-.6-.7-.6-1.2h0s1.3,0,1.3,0Z"/>
    </g>
  </g>
</svg>