<?xml version="1.0" encoding="UTF-8"?>
<svg id="Capa_1" xmlns="http://www.w3.org/2000/svg" version="1.1" viewBox="0 0 1487.6 293.1">
  <!-- Generator: Adobe Illustrator 29.3.1, SVG Export Plug-In . SVG Version: 2.1.0 Build 151)  -->
  <defs>
    <style>
      .st0 {
        fill: #212223;
      }

      .st1 {
        fill: #d4d4d4;
      }

      .st2 {
        fill: #0019aa;
      }
    </style>
  </defs>
  <rect class="st1" width="1487.6" height="293.1"/>
  <g>
    <path class="st2" d="M1026.9,17.5c-6.3-6-13.5-10.7-21.5-14.2-8-3.4-16.5-5.2-25.3-5.2h-204.9c-9.2,0-17.8,1.7-25.8,5.2-8,3.4-15,8.2-21,14.2-6,6-10.7,13-14.2,21-3.4,8-5.2,16.5-5.2,25.3v39.7c0,14.2,0,28.5-.2,43-.1,14.5-.2,28.8-.2,43v39.7c0,8.6,1.6,16.9,4.9,24.9,3.3,8,8.1,15.2,14.4,21.5,6.3,6.3,13.5,11.1,21.5,14.4,8,3.3,16.3,4.9,24.9,4.9h205.7c18.3,0,33.9-6.4,46.8-19.3,6.3-6,11.1-13,14.4-21,3.3-8,4.9-16.5,4.9-25.3V64.3c0-18.3-6.4-33.9-19.3-46.8Z"/>
    <rect class="st2" x="867.2" y="-1.9" width="626.4" height="297.2"/>
  </g>
  <g>
    <path class="st1" d="M783.3,84h6.5c2.2,0,3.9.5,5,1.6,1.2,1.1,1.7,2.5,1.7,4.4s-.6,3.3-1.7,4.4c-1.2,1.1-2.8,1.7-5,1.7h-4.3v8.6h-2.3v-20.6ZM789.9,94.1c1.7,0,2.8-.4,3.5-1.2s1-1.8,1-3-.3-2.2-1-2.9c-.7-.8-1.8-1.2-3.5-1.2h-4.3v8.3h4.3ZM790.1,95.1l2.3-.3,5.3,9.8h-2.6l-5-9.5Z"/>
    <path class="st1" d="M799.5,96.9c0-2.2.6-4.1,1.8-5.5,1.2-1.4,2.8-2.1,4.9-2.1s3.6.7,4.6,2c1.1,1.3,1.6,3.1,1.6,5.4v.9h-11.7v-1.8h9.4v-.2c0-1.4-.3-2.4-1-3.3-.7-.8-1.7-1.2-3-1.2s-2.6.6-3.4,1.7c-.8,1.1-1.1,2.5-1.1,4.1v.5c0,1.7.4,3,1.2,4.1s2,1.7,3.7,1.7,1.8-.2,2.5-.6c.7-.4,1.3-.9,1.7-1.5l1.4,1.2c-.5.7-1.2,1.3-2.2,1.9-1,.6-2.1.9-3.5.9-2.3,0-4.1-.7-5.3-2.1-1.2-1.4-1.8-3.3-1.8-5.5v-.5Z"/>
    <path class="st1" d="M814.7,96.9c0-2.2.6-4.1,1.8-5.5,1.2-1.4,2.9-2.1,5-2.1s3.5.5,4.5,1.6c1,1.1,1.5,2.3,1.5,3.6h0c0,0-2.1,0-2.1,0h0c0-1-.3-1.8-.9-2.4-.6-.7-1.6-1-3-1s-2.7.6-3.5,1.7c-.8,1.1-1.1,2.5-1.1,4.1v.5c0,1.7.4,3,1.1,4.1.8,1.1,1.9,1.7,3.5,1.7s2.3-.3,3-1c.6-.7.9-1.5.9-2.4h0c0,0,2.1,0,2.1,0h0c0,1.4-.5,2.6-1.5,3.7-1,1.1-2.5,1.6-4.5,1.6s-3.8-.7-5-2.1c-1.2-1.4-1.8-3.3-1.8-5.5v-.5Z"/>
    <path class="st1" d="M829.7,96.9c0-2.2.6-4.1,1.8-5.5,1.2-1.4,2.8-2.1,4.9-2.1s3.6.7,4.6,2c1.1,1.3,1.6,3.1,1.6,5.4v.9h-11.7v-1.8h9.4v-.2c0-1.4-.3-2.4-1-3.3-.7-.8-1.7-1.2-3-1.2s-2.6.6-3.4,1.7c-.8,1.1-1.1,2.5-1.1,4.1v.5c0,1.7.4,3,1.2,4.1s2,1.7,3.7,1.7,1.8-.2,2.5-.6c.7-.4,1.3-.9,1.7-1.5l1.4,1.2c-.5.7-1.2,1.3-2.2,1.9-1,.6-2.1.9-3.5.9-2.3,0-4.1-.7-5.3-2.1-1.2-1.4-1.8-3.3-1.8-5.5v-.5Z"/>
    <path class="st1" d="M845.9,89.7h2v2h.2c.4-.6,1-1.2,1.9-1.6.8-.4,1.8-.7,2.9-.7,1.9,0,3.4.7,4.6,2.1,1.1,1.4,1.7,3.2,1.7,5.4v.5c0,2.2-.6,4-1.7,5.4-1.1,1.4-2.6,2.1-4.6,2.1s-2-.2-2.8-.6c-.8-.4-1.4-.9-1.9-1.5v7.7h-2.2v-20.8ZM849.6,102.2c.7.5,1.6.8,2.6.8,1.6,0,2.7-.5,3.4-1.6.7-1.1,1.1-2.4,1.1-4v-.5c0-1.6-.4-3-1.1-4-.7-1.1-1.9-1.6-3.4-1.6s-1.9.3-2.6.8c-.7.5-1.3,1.1-1.6,1.8v6.5c.3.7.8,1.3,1.6,1.8Z"/>
    <path class="st1" d="M861.4,96.9c0-2.2.6-4.1,1.8-5.5,1.2-1.4,2.9-2.1,5-2.1s3.5.5,4.5,1.6c1,1.1,1.5,2.3,1.5,3.6h0c0,0-2.1,0-2.1,0h0c0-1-.3-1.8-.9-2.4-.6-.7-1.6-1-3-1s-2.7.6-3.5,1.7c-.8,1.1-1.1,2.5-1.1,4.1v.5c0,1.7.4,3,1.1,4.1s1.9,1.7,3.5,1.7,2.3-.3,3-1c.6-.7.9-1.5.9-2.4h0c0,0,2.1,0,2.1,0h0c0,1.4-.5,2.6-1.5,3.7-1,1.1-2.5,1.6-4.5,1.6s-3.8-.7-5-2.1c-1.2-1.4-1.8-3.3-1.8-5.5v-.5Z"/>
    <path class="st1" d="M877.5,84.1c.2-.3.6-.4,1.1-.4s.8.1,1.1.4c.2.3.4.6.4,1s-.1.7-.4,1c-.2.3-.6.4-1.1.4s-.8-.1-1.1-.4c-.2-.3-.4-.6-.4-1s.1-.7.4-1ZM877.5,89.7h2.2v14.9h-2.2v-14.9Z"/>
    <path class="st1" d="M883.1,96.9c0-2.2.6-4.1,1.9-5.5,1.3-1.4,3-2.1,5.1-2.1s3.8.7,5.1,2.1c1.3,1.4,1.9,3.3,1.9,5.5v.5c0,2.2-.6,4.1-1.9,5.5-1.3,1.4-3,2.1-5.1,2.1s-3.8-.7-5.1-2.1c-1.3-1.4-1.9-3.3-1.9-5.5v-.5ZM885.4,97.4c0,1.6.4,3,1.2,4.1s2,1.7,3.6,1.7,2.8-.6,3.6-1.7,1.2-2.5,1.2-4.1v-.5c0-1.6-.4-3-1.2-4.1s-2-1.7-3.6-1.7-2.8.6-3.6,1.7-1.2,2.5-1.2,4.1v.5ZM891.4,82.1l1.8,1.3-4.2,3.9-1.1-.9,3.5-4.2Z"/>
    <path class="st1" d="M900.5,89.7h2v2.1h.2c.6-.7,1.3-1.3,2.1-1.7.8-.4,1.7-.6,2.7-.6,1.5,0,2.7.4,3.6,1.3s1.3,2.3,1.3,4.2v9.7h-2.2v-9.7c0-1.3-.3-2.2-.9-2.7s-1.4-.8-2.5-.8-1.7.2-2.4.7c-.7.5-1.3,1.1-1.6,1.9v10.7h-2.2v-14.9Z"/>
    <path class="st1" d="M922.2,108.6c.3,0,.6.1.9.2.3,0,.6,0,.9,0,.6,0,1.2-.2,1.6-.7.5-.5,1.1-1.7,1.8-3.6h0s-5.7-14.8-5.7-14.8h2.2l3.9,10.5c.1.3.2.7.3,1,0,.3.2.6.3.9h0c0-.3.2-.6.3-.9,0-.3.2-.6.3-1l3.6-10.5h2.1l-6.1,16.6c-.5,1.5-1.2,2.6-1.9,3.4s-1.6,1.1-2.7,1.1-.7,0-1,0c-.3,0-.6-.1-.9-.2v-1.9Z"/>
    <path class="st1" d="M945,107.1c.4.5,1.1.9,1.9,1.2.8.3,1.7.5,2.7.5,1.4,0,2.5-.4,3.3-1.2s1.2-1.9,1.2-3.3v-1.5c-.5.6-1.1,1.1-1.9,1.5-.8.4-1.7.6-2.8.6-1.9,0-3.4-.7-4.6-2.1s-1.7-3.2-1.7-5.4v-.5c0-2.2.6-4,1.7-5.4s2.7-2.1,4.6-2.1,2.1.2,2.9.7,1.5,1,1.9,1.6h0v-2h2.1v14.6c0,2.1-.6,3.7-1.8,4.8-1.2,1.1-2.8,1.7-4.8,1.7s-2.3-.2-3.4-.6c-1-.4-1.9-.9-2.6-1.4l1.3-1.7ZM946.4,101.4c.7,1.1,1.9,1.6,3.4,1.6s1.9-.3,2.6-.8c.7-.5,1.2-1.1,1.6-1.8v-6.5c-.3-.7-.8-1.3-1.6-1.8-.7-.5-1.6-.8-2.6-.8-1.5,0-2.7.5-3.4,1.6s-1.1,2.4-1.1,4v.5c0,1.6.4,3,1.1,4Z"/>
    <path class="st1" d="M959.5,96.9c0-2.2.6-4.1,1.8-5.5,1.2-1.4,2.8-2.1,4.9-2.1s3.6.7,4.6,2c1.1,1.3,1.6,3.1,1.6,5.4v.9h-11.7v-1.8h9.4v-.2c0-1.4-.3-2.4-1-3.3-.7-.8-1.7-1.2-3-1.2s-2.6.6-3.4,1.7-1.1,2.5-1.1,4.1v.5c0,1.7.4,3,1.2,4.1s2,1.7,3.7,1.7,1.8-.2,2.5-.6,1.3-.9,1.7-1.5l1.4,1.2c-.5.7-1.2,1.3-2.2,1.9s-2.1.9-3.5.9c-2.3,0-4.1-.7-5.3-2.1-1.2-1.4-1.8-3.3-1.8-5.5v-.5Z"/>
    <path class="st1" d="M976.9,100.2h0c0,1,.4,1.8,1.1,2.3.7.5,1.6.7,2.8.7s2.1-.2,2.7-.7,1-1.1,1-1.8-.3-1.3-.8-1.7c-.5-.4-1.6-.7-3.3-1.1-1.6-.4-2.9-.9-3.8-1.6s-1.4-1.6-1.4-2.8.5-2.2,1.5-3c1-.8,2.3-1.2,4-1.2s3,.4,4,1.2c1,.8,1.5,1.9,1.5,3.2h0c0,0-2.2,0-2.2,0h0c0-.9-.3-1.5-.8-2s-1.4-.7-2.5-.7-2,.2-2.5.6c-.5.4-.8.9-.8,1.6s.3,1.2.8,1.5c.6.4,1.7.8,3.3,1.1,1.7.4,2.9.9,3.8,1.6s1.3,1.7,1.3,3-.5,2.4-1.5,3.2-2.5,1.3-4.4,1.3-3.4-.4-4.5-1.3c-1-.9-1.5-2-1.5-3.4h0c0,0,2.2,0,2.2,0Z"/>
    <path class="st1" d="M987.7,89.7h8.6v1.7h-8.6v-1.7ZM990.6,90.7v-4.7h2.2v14.9c0,.8.1,1.3.4,1.7s.8.5,1.4.5.5,0,.8,0c.3,0,.5-.1.8-.2v1.8c-.2.1-.5.2-.9.3-.4,0-.8.1-1.2.1-1.1,0-1.9-.3-2.5-1s-.9-1.7-.9-3.1v-10.2Z"/>
    <path class="st1" d="M999.2,84.1c.2-.3.6-.4,1.1-.4s.8.1,1.1.4c.2.3.4.6.4,1s-.1.7-.4,1c-.2.3-.6.4-1.1.4s-.8-.1-1.1-.4c-.2-.3-.4-.6-.4-1s.1-.7.4-1ZM999.2,89.7h2.2v14.9h-2.2v-14.9Z"/>
    <path class="st1" d="M1004.9,96.9c0-2.2.6-4.1,1.9-5.5,1.3-1.4,3-2.1,5.1-2.1s3.8.7,5.1,2.1c1.3,1.4,1.9,3.3,1.9,5.5v.5c0,2.2-.6,4.1-1.9,5.5-1.3,1.4-3,2.1-5.1,2.1s-3.8-.7-5.1-2.1c-1.3-1.4-1.9-3.3-1.9-5.5v-.5ZM1007.1,97.4c0,1.6.4,3,1.2,4.1s2,1.7,3.6,1.7,2.8-.6,3.6-1.7,1.2-2.5,1.2-4.1v-.5c0-1.6-.4-3-1.2-4.1s-2-1.7-3.6-1.7-2.8.6-3.6,1.7-1.2,2.5-1.2,4.1v.5ZM1013.1,82.1l1.8,1.3-4.2,3.9-1.1-.9,3.5-4.2Z"/>
    <path class="st1" d="M1022.2,89.7h2v2.1h.2c.6-.7,1.3-1.3,2.1-1.7.8-.4,1.7-.6,2.7-.6,1.5,0,2.7.4,3.6,1.3s1.3,2.3,1.3,4.2v9.7h-2.2v-9.7c0-1.3-.3-2.2-.9-2.7s-1.4-.8-2.5-.8-1.7.2-2.4.7c-.7.5-1.3,1.1-1.6,1.9v10.7h-2.2v-14.9Z"/>
    <path class="st1" d="M1044.3,96.9c0-2.2.6-4,1.7-5.4s2.7-2.1,4.6-2.1,2,.2,2.8.6c.8.4,1.4.9,1.9,1.5v-8.7h2.2v21.8h-2v-2h-.1c-.4.6-1,1.2-1.9,1.6s-1.8.7-2.9.7c-1.9,0-3.4-.7-4.6-2.1s-1.7-3.2-1.7-5.4v-.5ZM1047.7,101.4c.7,1.1,1.9,1.6,3.4,1.6s1.9-.3,2.6-.8c.7-.5,1.2-1.1,1.6-1.8v-6.5c-.3-.7-.8-1.3-1.6-1.8-.7-.5-1.6-.8-2.6-.8-1.5,0-2.7.5-3.4,1.6s-1.1,2.4-1.1,4v.5c0,1.6.4,3,1.1,4Z"/>
    <path class="st1" d="M1060.8,96.9c0-2.2.6-4.1,1.8-5.5,1.2-1.4,2.8-2.1,4.9-2.1s3.6.7,4.6,2c1.1,1.3,1.6,3.1,1.6,5.4v.9h-11.7v-1.8h9.4v-.2c0-1.4-.3-2.4-1-3.3-.7-.8-1.7-1.2-3-1.2s-2.6.6-3.4,1.7-1.1,2.5-1.1,4.1v.5c0,1.7.4,3,1.2,4.1s2,1.7,3.7,1.7,1.8-.2,2.5-.6,1.3-.9,1.7-1.5l1.4,1.2c-.5.7-1.2,1.3-2.2,1.9s-2.1.9-3.5.9c-2.3,0-4.1-.7-5.3-2.1-1.2-1.4-1.8-3.3-1.8-5.5v-.5Z"/>
    <path class="st1" d="M1077.1,82.8h2.2v21.8h-2.2v-21.8Z"/>
    <path class="st1" d="M1089.8,96.9c0-2.2.6-4.1,1.8-5.5,1.2-1.4,2.9-2.1,5-2.1s3.5.5,4.5,1.6c1,1.1,1.5,2.3,1.5,3.6h0c0,0-2.1,0-2.1,0h0c0-1-.3-1.8-.9-2.4-.6-.7-1.6-1-3-1s-2.7.6-3.5,1.7c-.8,1.1-1.1,2.5-1.1,4.1v.5c0,1.7.4,3,1.1,4.1s1.9,1.7,3.5,1.7,2.3-.3,3-1c.6-.7.9-1.5.9-2.4h0c0,0,2.1,0,2.1,0h0c0,1.4-.5,2.6-1.5,3.7-1,1.1-2.5,1.6-4.5,1.6s-3.8-.7-5-2.1c-1.2-1.4-1.8-3.3-1.8-5.5v-.5Z"/>
    <path class="st1" d="M1105.8,82.8h2.2v21.8h-2.2v-21.8Z"/>
    <path class="st1" d="M1112.5,84.1c.2-.3.6-.4,1.1-.4s.8.1,1.1.4c.2.3.4.6.4,1s-.1.7-.4,1c-.2.3-.6.4-1.1.4s-.8-.1-1.1-.4c-.2-.3-.4-.6-.4-1s.1-.7.4-1ZM1112.5,89.7h2.2v14.9h-2.2v-14.9Z"/>
    <path class="st1" d="M1118.1,96.9c0-2.2.6-4.1,1.8-5.5,1.2-1.4,2.8-2.1,4.9-2.1s3.6.7,4.6,2c1.1,1.3,1.6,3.1,1.6,5.4v.9h-11.7v-1.8h9.4v-.2c0-1.4-.3-2.4-1-3.3-.7-.8-1.7-1.2-3-1.2s-2.6.6-3.4,1.7c-.8,1.1-1.1,2.5-1.1,4.1v.5c0,1.7.4,3,1.2,4.1s2,1.7,3.7,1.7,1.8-.2,2.5-.6c.7-.4,1.3-.9,1.7-1.5l1.4,1.2c-.5.7-1.2,1.3-2.2,1.9-1,.6-2.1.9-3.5.9-2.3,0-4.1-.7-5.3-2.1-1.2-1.4-1.8-3.3-1.8-5.5v-.5Z"/>
    <path class="st1" d="M1134.3,89.7h2v2.1h.2c.6-.7,1.3-1.3,2.1-1.7.8-.4,1.7-.6,2.7-.6,1.5,0,2.7.4,3.6,1.3s1.3,2.3,1.3,4.2v9.7h-2.2v-9.7c0-1.3-.3-2.2-.9-2.7s-1.4-.8-2.5-.8-1.7.2-2.4.7c-.7.5-1.3,1.1-1.6,1.9v10.7h-2.2v-14.9Z"/>
    <path class="st1" d="M1148.1,89.7h8.6v1.7h-8.6v-1.7ZM1151,90.7v-4.7h2.2v14.9c0,.8.1,1.3.4,1.7.3.3.8.5,1.4.5s.5,0,.8,0,.5-.1.8-.2v1.8c-.2.1-.5.2-.9.3s-.8.1-1.2.1c-1.1,0-1.9-.3-2.5-1s-.9-1.7-.9-3.1v-10.2Z"/>
    <path class="st1" d="M1158.6,96.9c0-2.2.6-4.1,1.8-5.5,1.2-1.4,2.8-2.1,4.9-2.1s3.6.7,4.6,2c1.1,1.3,1.6,3.1,1.6,5.4v.9h-11.7v-1.8h9.4v-.2c0-1.4-.3-2.4-1-3.3-.7-.8-1.7-1.2-3-1.2s-2.6.6-3.4,1.7c-.8,1.1-1.1,2.5-1.1,4.1v.5c0,1.7.4,3,1.2,4.1s2,1.7,3.7,1.7,1.8-.2,2.5-.6c.7-.4,1.3-.9,1.7-1.5l1.4,1.2c-.5.7-1.2,1.3-2.2,1.9-1,.6-2.1.9-3.5.9-2.3,0-4.1-.7-5.3-2.1-1.2-1.4-1.8-3.3-1.8-5.5v-.5Z"/>
    <path class="st1" d="M1175.5,105.7c.2-.6.3-1.3.3-2v-1.9h2.2v1.9c0,.9-.2,1.8-.6,2.6-.4.8-.9,1.5-1.5,2l-1.3-.9c.4-.5.7-1.1.9-1.7Z"/>
    <path class="st1" d="M784.2,135h0c0,1,.4,1.8,1.1,2.3.7.5,1.6.7,2.8.7s2.1-.2,2.7-.7,1-1.1,1-1.8-.3-1.3-.8-1.7c-.5-.4-1.6-.7-3.3-1.1-1.6-.4-2.9-.9-3.8-1.6s-1.4-1.6-1.4-2.8.5-2.2,1.5-3c1-.8,2.3-1.2,4-1.2s3,.4,4,1.2c1,.8,1.5,1.9,1.5,3.2h0c0,0-2.2,0-2.2,0h0c0-.9-.3-1.5-.8-2s-1.4-.7-2.5-.7-2,.2-2.5.6c-.5.4-.8.9-.8,1.6s.3,1.2.8,1.5c.6.4,1.7.8,3.3,1.1,1.7.4,2.9.9,3.8,1.6s1.3,1.7,1.3,3-.5,2.4-1.5,3.2-2.5,1.3-4.4,1.3-3.4-.4-4.5-1.3c-1-.9-1.5-2-1.5-3.4h0c0,0,2.2,0,2.2,0Z"/>
    <path class="st1" d="M797.2,117.6h2.2v8.8c.6-.7,1.3-1.3,2.1-1.7.8-.4,1.7-.6,2.7-.6,1.4,0,2.6.4,3.5,1.3s1.3,2.3,1.3,4.2v9.7h-2.2v-9.7c0-1.3-.3-2.2-.9-2.7s-1.4-.8-2.5-.8-1.7.2-2.4.7c-.7.5-1.3,1.1-1.7,1.9v10.7h-2.2v-21.8Z"/>
    <path class="st1" d="M812.3,131.7c0-2.2.6-4.1,1.9-5.5,1.3-1.4,3-2.1,5.1-2.1s3.8.7,5.1,2.1c1.3,1.4,1.9,3.3,1.9,5.5v.5c0,2.2-.6,4.1-1.9,5.5-1.3,1.4-3,2.1-5.1,2.1s-3.8-.7-5.1-2.1c-1.3-1.4-1.9-3.3-1.9-5.5v-.5ZM814.5,132.2c0,1.6.4,3,1.2,4.1s2,1.7,3.6,1.7,2.8-.6,3.6-1.7,1.2-2.5,1.2-4.1v-.5c0-1.6-.4-3-1.2-4.1s-2-1.7-3.6-1.7-2.8.6-3.6,1.7-1.2,2.5-1.2,4.1v.5Z"/>
    <path class="st1" d="M828.7,131.7c0-2.2.6-4.1,1.9-5.5,1.3-1.4,3-2.1,5.1-2.1s3.8.7,5.1,2.1c1.3,1.4,1.9,3.3,1.9,5.5v.5c0,2.2-.6,4.1-1.9,5.5-1.3,1.4-3,2.1-5.1,2.1s-3.8-.7-5.1-2.1c-1.3-1.4-1.9-3.3-1.9-5.5v-.5ZM830.9,132.2c0,1.6.4,3,1.2,4.1.8,1.1,2,1.7,3.6,1.7s2.8-.6,3.6-1.7c.8-1.1,1.2-2.5,1.2-4.1v-.5c0-1.6-.4-3-1.2-4.1-.8-1.1-2-1.7-3.6-1.7s-2.8.6-3.6,1.7c-.8,1.1-1.2,2.5-1.2,4.1v.5Z"/>
    <path class="st1" d="M843.9,124.5h8.6v1.7h-8.6v-1.7ZM846.8,125.5v-4.7h2.2v14.9c0,.8.1,1.3.4,1.7.3.3.8.5,1.4.5s.5,0,.8,0,.5-.1.8-.2v1.8c-.2.1-.5.2-.9.3s-.8.1-1.2.1c-1.1,0-1.9-.3-2.5-1s-.9-1.7-.9-3.1v-10.2Z"/>
    <path class="st1" d="M855.5,118.9c.2-.3.6-.4,1.1-.4s.8.1,1.1.4c.2.3.4.6.4,1s-.1.7-.4,1c-.3.3-.6.4-1.1.4s-.8-.1-1.1-.4c-.3-.3-.4-.6-.4-1s.1-.7.4-1ZM855.4,124.5h2.2v14.9h-2.2v-14.9Z"/>
    <path class="st1" d="M862,124.5h2v2.1h.2c.6-.7,1.3-1.3,2.1-1.7.8-.4,1.7-.6,2.7-.6,1.5,0,2.7.4,3.6,1.3s1.3,2.3,1.3,4.2v9.7h-2.2v-9.7c0-1.3-.3-2.2-.9-2.7s-1.4-.8-2.5-.8-1.7.2-2.4.7c-.7.5-1.3,1.1-1.6,1.9v10.7h-2.2v-14.9Z"/>
    <path class="st1" d="M879,141.9c.4.5,1.1.9,1.9,1.2.8.3,1.7.5,2.7.5,1.4,0,2.5-.4,3.3-1.2s1.2-1.9,1.2-3.3v-1.5c-.5.6-1.1,1.1-1.9,1.5-.8.4-1.7.6-2.8.6-1.9,0-3.4-.7-4.6-2.1s-1.7-3.2-1.7-5.4v-.5c0-2.2.6-4,1.7-5.4s2.7-2.1,4.6-2.1,2.1.2,2.9.7,1.5,1,1.9,1.6h0v-2h2.1v14.6c0,2.1-.6,3.7-1.8,4.8-1.2,1.1-2.8,1.7-4.8,1.7s-2.3-.2-3.4-.6c-1-.4-1.9-.9-2.6-1.4l1.3-1.7ZM880.4,136.2c.7,1.1,1.9,1.6,3.4,1.6s1.9-.3,2.6-.8c.7-.5,1.2-1.1,1.6-1.8v-6.5c-.3-.7-.8-1.3-1.6-1.8-.7-.5-1.6-.8-2.6-.8-1.5,0-2.7.5-3.4,1.6s-1.1,2.4-1.1,4v.5c0,1.6.4,3,1.1,4Z"/>
    <path class="st1" d="M899.8,124.5h8.3v1.7h-8.3v-1.7ZM902.4,122.5c0-1.7.4-3,1.3-3.8.9-.9,2.1-1.3,3.6-1.3s.6,0,.9,0c.3,0,.6,0,.9.2l-.2,1.8c-.2,0-.4,0-.7-.1s-.5,0-.8,0c-.9,0-1.6.3-2.1.8-.5.5-.8,1.4-.8,2.5v16.9h-2.2v-16.9Z"/>
    <path class="st1" d="M912.6,116.9l1.8,1.3-4.2,3.9-1.1-.9,3.5-4.2ZM910.2,124.5h2.2v14.9h-2.2v-14.9Z"/>
    <path class="st1" d="M918,135h0c0,1,.4,1.8,1.1,2.3.7.5,1.6.7,2.8.7s2.1-.2,2.7-.7c.7-.5,1-1.1,1-1.8s-.3-1.3-.8-1.7-1.6-.7-3.3-1.1c-1.6-.4-2.9-.9-3.8-1.6-.9-.7-1.4-1.6-1.4-2.8s.5-2.2,1.5-3,2.3-1.2,4-1.2,3,.4,4,1.2c1,.8,1.5,1.9,1.5,3.2h0c0,0-2.2,0-2.2,0h0c0-.9-.3-1.5-.8-2-.6-.5-1.4-.7-2.5-.7s-2,.2-2.5.6c-.5.4-.8.9-.8,1.6s.3,1.2.8,1.5c.6.4,1.7.8,3.3,1.1,1.7.4,2.9.9,3.8,1.6s1.3,1.7,1.3,3-.5,2.4-1.5,3.2c-1,.8-2.5,1.3-4.4,1.3s-3.4-.4-4.5-1.3c-1-.9-1.5-2-1.5-3.4h0c0,0,2.2,0,2.2,0Z"/>
    <path class="st1" d="M931.1,118.9c.2-.3.6-.4,1.1-.4s.8.1,1.1.4c.2.3.4.6.4,1s-.1.7-.4,1c-.3.3-.6.4-1.1.4s-.8-.1-1.1-.4c-.3-.3-.4-.6-.4-1s.1-.7.4-1ZM931.1,124.5h2.2v14.9h-2.2v-14.9Z"/>
    <path class="st1" d="M936.7,131.7c0-2.2.6-4.1,1.8-5.5,1.2-1.4,2.9-2.1,5-2.1s3.5.5,4.5,1.6c1,1.1,1.5,2.3,1.5,3.6h0c0,0-2.1,0-2.1,0h0c0-1-.3-1.8-.9-2.4-.6-.7-1.6-1-3-1s-2.7.6-3.5,1.7c-.8,1.1-1.1,2.5-1.1,4.1v.5c0,1.7.4,3,1.1,4.1.8,1.1,1.9,1.7,3.5,1.7s2.3-.3,3-1c.6-.7.9-1.5.9-2.4h0c0,0,2.1,0,2.1,0h0c0,1.4-.5,2.6-1.5,3.7-1,1.1-2.5,1.6-4.5,1.6s-3.8-.7-5-2.1c-1.2-1.4-1.8-3.3-1.8-5.5v-.5Z"/>
    <path class="st1" d="M951.8,131.7c0-2.2.6-4.1,1.9-5.5,1.3-1.4,3-2.1,5.1-2.1s3.8.7,5.1,2.1c1.3,1.4,1.9,3.3,1.9,5.5v.5c0,2.2-.6,4.1-1.9,5.5-1.3,1.4-3,2.1-5.1,2.1s-3.8-.7-5.1-2.1c-1.3-1.4-1.9-3.3-1.9-5.5v-.5ZM954,132.2c0,1.6.4,3,1.2,4.1s2,1.7,3.6,1.7,2.8-.6,3.6-1.7,1.2-2.5,1.2-4.1v-.5c0-1.6-.4-3-1.2-4.1s-2-1.7-3.6-1.7-2.8.6-3.6,1.7-1.2,2.5-1.2,4.1v.5Z"/>
    <path class="st1" d="M969.4,140.5c.2-.6.3-1.3.3-2v-1.9h2.2v1.9c0,.9-.2,1.8-.6,2.6-.4.8-.9,1.5-1.5,2l-1.3-.9c.4-.5.7-1.1.9-1.7Z"/>
    <path class="st1" d="M982.9,131.7c0-2.2.6-4.1,1.8-5.5,1.2-1.4,2.9-2.1,5-2.1s3.5.5,4.5,1.6c1,1.1,1.5,2.3,1.5,3.6h0c0,0-2.1,0-2.1,0h0c0-1-.3-1.8-.9-2.4-.6-.7-1.6-1-3-1s-2.7.6-3.5,1.7c-.8,1.1-1.1,2.5-1.1,4.1v.5c0,1.7.4,3,1.1,4.1.8,1.1,1.9,1.7,3.5,1.7s2.3-.3,3-1c.6-.7.9-1.5.9-2.4h0c0,0,2.1,0,2.1,0h0c0,1.4-.5,2.6-1.5,3.7-1,1.1-2.5,1.6-4.5,1.6s-3.8-.7-5-2.1c-1.2-1.4-1.8-3.3-1.8-5.5v-.5Z"/>
    <path class="st1" d="M998.8,124.5h2.2v9.7c0,1.3.3,2.2.9,2.7s1.4.8,2.5.8,1.7-.2,2.4-.7c.7-.5,1.2-1.1,1.6-1.9v-10.7h2.2v14.9h-2v-2.1h-.2c-.6.7-1.3,1.3-2.1,1.7-.8.4-1.7.6-2.7.6-1.5,0-2.7-.4-3.6-1.3-.9-.8-1.3-2.3-1.3-4.2v-9.7Z"/>
    <path class="st1" d="M1014.9,124.5h2v2h.2c.4-.7,1-1.2,1.6-1.7.7-.5,1.5-.7,2.4-.7s.4,0,.7,0c.2,0,.4,0,.5.1v2.1c-.2,0-.4,0-.6,0-.2,0-.5,0-.7,0-.9,0-1.7.2-2.4.7-.6.5-1.1,1.1-1.5,1.8v10.7h-2.2v-14.9Z"/>
    <path class="st1" d="M1025.2,131.6c1.2-.8,2.7-1.2,4.6-1.2h3.7v-1.2c0-1-.3-1.8-.8-2.4-.5-.6-1.4-.9-2.6-.9s-2.2.3-2.7.8-.8,1.1-.8,1.8h0c0,0-2.2,0-2.2,0h0c0-1.3.5-2.3,1.6-3.2,1-.9,2.4-1.3,4.2-1.3s3.1.4,4.1,1.3c1,.9,1.5,2.1,1.5,3.8v6.8c0,.6,0,1.2.1,1.7,0,.5.2,1,.4,1.4v.2h-2.1c-.2-.2-.3-.6-.4-1s-.2-.8-.2-1.2c-.4.6-1,1.2-1.8,1.7-.8.5-1.9.8-3.2.8s-2.6-.4-3.6-1.2-1.5-1.9-1.5-3.4.6-2.7,1.8-3.5ZM1026.5,137.1c.6.5,1.4.7,2.6.7s2.2-.4,3.1-1.1c.9-.8,1.3-1.6,1.3-2.4v-2.3h-3.4c-1.5,0-2.6.3-3.3.8-.8.5-1.1,1.3-1.1,2.2s.3,1.7.8,2.1Z"/>
    <path class="st1" d="M1038.9,131.7c0-2.2.6-4,1.7-5.4s2.7-2.1,4.6-2.1,2,.2,2.8.6c.8.4,1.4.9,1.9,1.5v-8.7h2.2v21.8h-2v-2h-.1c-.4.6-1,1.2-1.9,1.6s-1.8.7-2.9.7c-1.9,0-3.4-.7-4.6-2.1s-1.7-3.2-1.7-5.4v-.5ZM1042.3,136.2c.7,1.1,1.9,1.6,3.4,1.6s1.9-.3,2.6-.8c.7-.5,1.2-1.1,1.6-1.8v-6.5c-.3-.7-.8-1.3-1.6-1.8-.7-.5-1.6-.8-2.6-.8-1.5,0-2.7.5-3.4,1.6s-1.1,2.4-1.1,4v.5c0,1.6.4,3,1.1,4Z"/>
    <path class="st1" d="M1056.2,124.5h2.2v9.7c0,1.3.3,2.2.9,2.7s1.4.8,2.5.8,1.7-.2,2.4-.7c.7-.5,1.2-1.1,1.6-1.9v-10.7h2.2v14.9h-2v-2.1h-.2c-.6.7-1.3,1.3-2.1,1.7-.8.4-1.7.6-2.7.6-1.5,0-2.7-.4-3.6-1.3-.9-.8-1.3-2.3-1.3-4.2v-9.7Z"/>
    <path class="st1" d="M1072.4,124.5h2v2h.2c.4-.7,1-1.2,1.6-1.7.7-.5,1.5-.7,2.4-.7s.4,0,.7,0c.2,0,.4,0,.5.1v2.1c-.2,0-.4,0-.6,0s-.5,0-.7,0c-.9,0-1.7.2-2.4.7-.6.5-1.1,1.1-1.5,1.8v10.7h-2.2v-14.9Z"/>
    <path class="st1" d="M1084.7,116.9l1.8,1.3-4.2,3.9-1.1-.9,3.5-4.2ZM1082.4,124.5h2.2v14.9h-2.2v-14.9Z"/>
    <path class="st1" d="M1089.9,131.6c1.2-.8,2.7-1.2,4.6-1.2h3.7v-1.2c0-1-.3-1.8-.8-2.4s-1.4-.9-2.6-.9-2.2.3-2.7.8c-.5.5-.8,1.1-.8,1.8h0c0,0-2.2,0-2.2,0h0c0-1.3.5-2.3,1.6-3.2s2.4-1.3,4.2-1.3,3.1.4,4.1,1.3c1,.9,1.5,2.1,1.5,3.8v6.8c0,.6,0,1.2.1,1.7,0,.5.2,1,.4,1.4v.2h-2.1c-.2-.2-.3-.6-.4-1s-.2-.8-.2-1.2c-.4.6-1,1.2-1.8,1.7-.8.5-1.9.8-3.2.8s-2.6-.4-3.6-1.2c-1-.8-1.5-1.9-1.5-3.4s.6-2.7,1.8-3.5ZM1091.1,137.1c.6.5,1.4.7,2.6.7s2.2-.4,3.1-1.1c.9-.8,1.3-1.6,1.3-2.4v-2.3h-3.4c-1.5,0-2.6.3-3.3.8s-1.1,1.3-1.1,2.2.3,1.7.8,2.1Z"/>
    <path class="st1" d="M1110.7,131.7c0-2.2.6-4,1.7-5.4,1.1-1.4,2.6-2.1,4.6-2.1s2,.2,2.8.6c.8.4,1.4.9,1.9,1.5v-8.7h2.2v21.8h-2v-2h-.1c-.4.6-1,1.2-1.9,1.6-.8.4-1.8.7-2.9.7-1.9,0-3.4-.7-4.6-2.1-1.1-1.4-1.7-3.2-1.7-5.4v-.5ZM1114,136.2c.7,1.1,1.9,1.6,3.4,1.6s1.9-.3,2.6-.8c.7-.5,1.2-1.1,1.6-1.8v-6.5c-.3-.7-.8-1.3-1.6-1.8-.7-.5-1.6-.8-2.6-.8-1.5,0-2.7.5-3.4,1.6-.7,1.1-1.1,2.4-1.1,4v.5c0,1.6.4,3,1.1,4Z"/>
    <path class="st1" d="M1127.2,131.7c0-2.2.6-4.1,1.8-5.5,1.2-1.4,2.8-2.1,4.9-2.1s3.6.7,4.6,2c1.1,1.3,1.6,3.1,1.6,5.4v.9h-11.7v-1.8h9.4v-.2c0-1.4-.3-2.4-1-3.3-.7-.8-1.7-1.2-3-1.2s-2.6.6-3.4,1.7c-.8,1.1-1.1,2.5-1.1,4.1v.5c0,1.7.4,3,1.2,4.1s2,1.7,3.7,1.7,1.8-.2,2.5-.6c.7-.4,1.3-.9,1.7-1.5l1.4,1.2c-.5.7-1.2,1.3-2.2,1.9-1,.6-2.1.9-3.5.9-2.3,0-4.1-.7-5.3-2.1-1.2-1.4-1.8-3.3-1.8-5.5v-.5Z"/>
    <path class="st1" d="M1143.4,117.6h2.2v21.8h-2.2v-21.8Z"/>
    <path class="st1" d="M1157,124.5h2v2.1h.2c.6-.7,1.2-1.3,2-1.7.8-.4,1.7-.6,2.6-.6s1.9.2,2.7.6c.8.4,1.3,1.1,1.7,2h0c.6-.9,1.4-1.6,2.2-2,.8-.4,1.7-.6,2.8-.6,1.5,0,2.7.4,3.6,1.3s1.3,2.3,1.3,4.2v9.7h-2.2v-9.7c0-1.3-.3-2.2-.9-2.7s-1.4-.8-2.4-.8-1.7.2-2.3.7-1.2,1.1-1.6,1.9v10.7h-2.2v-9.7c0-1.3-.3-2.2-.9-2.7s-1.4-.8-2.4-.8-1.7.2-2.3.7c-.7.5-1.2,1.1-1.6,1.9v10.7h-2.2v-14.9Z"/>
    <path class="st1" d="M1183.1,131.6c1.2-.8,2.7-1.2,4.6-1.2h3.7v-1.2c0-1-.3-1.8-.8-2.4s-1.4-.9-2.6-.9-2.2.3-2.7.8c-.5.5-.8,1.1-.8,1.8h0c0,0-2.2,0-2.2,0h0c0-1.3.5-2.3,1.6-3.2s2.4-1.3,4.2-1.3,3.1.4,4.1,1.3c1,.9,1.5,2.1,1.5,3.8v6.8c0,.6,0,1.2.1,1.7,0,.5.2,1,.4,1.4v.2h-2.1c-.2-.2-.3-.6-.4-1s-.2-.8-.2-1.2c-.4.6-1,1.2-1.8,1.7-.8.5-1.9.8-3.2.8s-2.6-.4-3.6-1.2c-1-.8-1.5-1.9-1.5-3.4s.6-2.7,1.8-3.5ZM1184.4,137.1c.6.5,1.4.7,2.6.7s2.2-.4,3.1-1.1c.9-.8,1.3-1.6,1.3-2.4v-2.3h-3.4c-1.5,0-2.6.3-3.3.8s-1.1,1.3-1.1,2.2.3,1.7.8,2.1Z"/>
    <path class="st1" d="M1195.6,124.5h8.6v1.7h-8.6v-1.7ZM1198.5,125.5v-4.7h2.2v14.9c0,.8.1,1.3.4,1.7s.8.5,1.4.5.5,0,.8,0c.3,0,.5-.1.8-.2v1.8c-.2.1-.5.2-.9.3-.4,0-.8.1-1.2.1-1.1,0-1.9-.3-2.5-1s-.9-1.7-.9-3.1v-10.2Z"/>
    <path class="st1" d="M1206.1,131.7c0-2.2.6-4.1,1.8-5.5,1.2-1.4,2.8-2.1,4.9-2.1s3.6.7,4.6,2c1.1,1.3,1.6,3.1,1.6,5.4v.9h-11.7v-1.8h9.4v-.2c0-1.4-.3-2.4-1-3.3-.7-.8-1.7-1.2-3-1.2s-2.6.6-3.4,1.7-1.1,2.5-1.1,4.1v.5c0,1.7.4,3,1.2,4.1s2,1.7,3.7,1.7,1.8-.2,2.5-.6,1.3-.9,1.7-1.5l1.4,1.2c-.5.7-1.2,1.3-2.2,1.9s-2.1.9-3.5.9c-2.3,0-4.1-.7-5.3-2.1-1.2-1.4-1.8-3.3-1.8-5.5v-.5Z"/>
    <path class="st1" d="M1222.2,124.5h2v2h.2c.4-.7,1-1.2,1.6-1.7.7-.5,1.5-.7,2.4-.7s.4,0,.7,0c.2,0,.4,0,.5.1v2.1c-.2,0-.4,0-.6,0s-.5,0-.7,0c-.9,0-1.7.2-2.4.7-.6.5-1.1,1.1-1.5,1.8v10.7h-2.2v-14.9Z"/>
    <path class="st1" d="M1232.3,118.9c.2-.3.6-.4,1.1-.4s.8.1,1.1.4c.2.3.4.6.4,1s-.1.7-.4,1c-.2.3-.6.4-1.1.4s-.8-.1-1.1-.4c-.2-.3-.4-.6-.4-1s.1-.7.4-1ZM1232.3,124.5h2.2v14.9h-2.2v-14.9Z"/>
    <path class="st1" d="M1239.8,131.6c1.2-.8,2.7-1.2,4.6-1.2h3.7v-1.2c0-1-.3-1.8-.8-2.4s-1.4-.9-2.6-.9-2.2.3-2.7.8c-.5.5-.8,1.1-.8,1.8h0c0,0-2.2,0-2.2,0h0c0-1.3.5-2.3,1.6-3.2s2.4-1.3,4.2-1.3,3.1.4,4.1,1.3c1,.9,1.5,2.1,1.5,3.8v6.8c0,.6,0,1.2.1,1.7,0,.5.2,1,.4,1.4v.2h-2.1c-.2-.2-.3-.6-.4-1s-.2-.8-.2-1.2c-.4.6-1,1.2-1.8,1.7-.8.5-1.9.8-3.2.8s-2.6-.4-3.6-1.2c-1-.8-1.5-1.9-1.5-3.4s.6-2.7,1.8-3.5ZM1241,137.1c.6.5,1.4.7,2.6.7s2.2-.4,3.1-1.1c.9-.8,1.3-1.6,1.3-2.4v-2.3h-3.4c-1.5,0-2.6.3-3.3.8s-1.1,1.3-1.1,2.2.3,1.7.8,2.1Z"/>
    <path class="st1" d="M1254.5,117.6h2.2v21.8h-2.2v-21.8Z"/>
    <path class="st1" d="M1261.6,140.5c.2-.6.3-1.3.3-2v-1.9h2.2v1.9c0,.9-.2,1.8-.6,2.6-.4.8-.9,1.5-1.5,2l-1.3-.9c.4-.5.7-1.1.9-1.7Z"/>
    <path class="st1" d="M782.1,166.5c0-2.2.6-4.1,1.8-5.5,1.2-1.4,2.8-2.1,4.9-2.1s3.6.7,4.6,2c1.1,1.3,1.6,3.1,1.6,5.4v.9h-11.7v-1.8h9.4v-.2c0-1.4-.3-2.4-1-3.3-.7-.8-1.7-1.2-3-1.2s-2.6.6-3.4,1.7c-.8,1.1-1.1,2.5-1.1,4.1v.5c0,1.7.4,3,1.2,4.1s2,1.7,3.7,1.7,1.8-.2,2.5-.6c.7-.4,1.3-.9,1.7-1.5l1.4,1.2c-.5.7-1.2,1.3-2.2,1.9-1,.6-2.1.9-3.5.9-2.3,0-4.1-.7-5.3-2.1-1.2-1.4-1.8-3.3-1.8-5.5v-.5Z"/>
    <path class="st1" d="M797.3,166.5c0-2.2.6-4,1.7-5.4,1.1-1.4,2.6-2.1,4.6-2.1s2,.2,2.8.6c.8.4,1.4.9,1.9,1.5v-8.7h2.2v21.8h-2v-2h-.1c-.4.6-1,1.2-1.9,1.6-.8.4-1.8.7-2.9.7-1.9,0-3.4-.7-4.6-2.1-1.1-1.4-1.7-3.2-1.7-5.4v-.5ZM800.7,171c.7,1.1,1.9,1.6,3.4,1.6s1.9-.3,2.6-.8c.7-.5,1.2-1.1,1.6-1.8v-6.5c-.3-.7-.8-1.3-1.6-1.8-.7-.5-1.6-.8-2.6-.8-1.5,0-2.7.5-3.4,1.6-.7,1.1-1.1,2.4-1.1,4v.5c0,1.6.4,3,1.1,4Z"/>
    <path class="st1" d="M814.9,153.7c.2-.3.6-.4,1.1-.4s.8.1,1.1.4c.2.3.4.6.4,1s-.1.7-.4,1c-.3.3-.6.4-1.1.4s-.8-.1-1.1-.4c-.3-.3-.4-.6-.4-1s.1-.7.4-1ZM814.8,159.3h2.2v14.9h-2.2v-14.9Z"/>
    <path class="st1" d="M820.5,166.5c0-2.2.6-4.1,1.8-5.5,1.2-1.4,2.9-2.1,5-2.1s3.5.5,4.5,1.6c1,1.1,1.5,2.3,1.5,3.6h0c0,0-2.1,0-2.1,0h0c0-1-.3-1.8-.9-2.4-.6-.7-1.6-1-3-1s-2.7.6-3.5,1.7c-.8,1.1-1.1,2.5-1.1,4.1v.5c0,1.7.4,3,1.1,4.1.8,1.1,1.9,1.7,3.5,1.7s2.3-.3,3-1c.6-.7.9-1.5.9-2.4h0c0,0,2.1,0,2.1,0h0c0,1.4-.5,2.6-1.5,3.7-1,1.1-2.5,1.6-4.5,1.6s-3.8-.7-5-2.1c-1.2-1.4-1.8-3.3-1.8-5.5v-.5Z"/>
    <path class="st1" d="M836.6,153.7c.2-.3.6-.4,1.1-.4s.8.1,1.1.4c.2.3.4.6.4,1s-.1.7-.4,1c-.3.3-.6.4-1.1.4s-.8-.1-1.1-.4c-.3-.3-.4-.6-.4-1s.1-.7.4-1ZM836.6,159.3h2.2v14.9h-2.2v-14.9Z"/>
    <path class="st1" d="M842.2,166.5c0-2.2.6-4.1,1.9-5.5,1.3-1.4,3-2.1,5.1-2.1s3.8.7,5.1,2.1c1.3,1.4,1.9,3.3,1.9,5.5v.5c0,2.2-.6,4.1-1.9,5.5-1.3,1.4-3,2.1-5.1,2.1s-3.8-.7-5.1-2.1c-1.3-1.4-1.9-3.3-1.9-5.5v-.5ZM844.5,167c0,1.6.4,3,1.2,4.1.8,1.1,2,1.7,3.6,1.7s2.8-.6,3.6-1.7c.8-1.1,1.2-2.5,1.2-4.1v-.5c0-1.6-.4-3-1.2-4.1-.8-1.1-2-1.7-3.6-1.7s-2.8.6-3.6,1.7c-.8,1.1-1.2,2.5-1.2,4.1v.5ZM850.5,151.7l1.8,1.3-4.2,3.9-1.1-.9,3.5-4.2Z"/>
    <path class="st1" d="M859.6,159.3h2v2.1h.2c.6-.7,1.3-1.3,2.1-1.7.8-.4,1.7-.6,2.7-.6,1.5,0,2.7.4,3.6,1.3.9.8,1.3,2.3,1.3,4.2v9.7h-2.2v-9.7c0-1.3-.3-2.2-.9-2.7-.6-.6-1.4-.8-2.5-.8s-1.7.2-2.4.7c-.7.5-1.3,1.1-1.6,1.9v10.7h-2.2v-14.9Z"/>
    <path class="st1" d="M881.7,166.5c0-2.2.6-4,1.7-5.4,1.1-1.4,2.6-2.1,4.6-2.1s2,.2,2.8.6c.8.4,1.4.9,1.9,1.5v-8.7h2.2v21.8h-2v-2h-.1c-.4.6-1,1.2-1.9,1.6-.8.4-1.8.7-2.9.7-1.9,0-3.4-.7-4.6-2.1-1.1-1.4-1.7-3.2-1.7-5.4v-.5ZM885,171c.7,1.1,1.9,1.6,3.4,1.6s1.9-.3,2.6-.8c.7-.5,1.2-1.1,1.6-1.8v-6.5c-.3-.7-.8-1.3-1.6-1.8-.7-.5-1.6-.8-2.6-.8-1.5,0-2.7.5-3.4,1.6-.7,1.1-1.1,2.4-1.1,4v.5c0,1.6.4,3,1.1,4Z"/>
    <path class="st1" d="M898.2,166.5c0-2.2.6-4.1,1.8-5.5,1.2-1.4,2.8-2.1,4.9-2.1s3.6.7,4.6,2c1.1,1.3,1.6,3.1,1.6,5.4v.9h-11.7v-1.8h9.4v-.2c0-1.4-.3-2.4-1-3.3-.7-.8-1.7-1.2-3-1.2s-2.6.6-3.4,1.7c-.8,1.1-1.1,2.5-1.1,4.1v.5c0,1.7.4,3,1.2,4.1s2,1.7,3.7,1.7,1.8-.2,2.5-.6c.7-.4,1.3-.9,1.7-1.5l1.4,1.2c-.5.7-1.2,1.3-2.2,1.9-1,.6-2.1.9-3.5.9-2.3,0-4.1-.7-5.3-2.1-1.2-1.4-1.8-3.3-1.8-5.5v-.5Z"/>
    <path class="st1" d="M919.6,159.3h8.3v1.7h-8.3v-1.7ZM922.3,157.3c0-1.7.4-3,1.3-3.8.9-.9,2.1-1.3,3.6-1.3s.6,0,.9,0c.3,0,.6,0,.9.2l-.2,1.8c-.2,0-.4,0-.7-.1s-.5,0-.8,0c-.9,0-1.6.3-2.1.8-.5.5-.8,1.4-.8,2.5v16.9h-2.2v-16.9Z"/>
    <path class="st1" d="M929,166.5c0-2.2.6-4.1,1.9-5.5,1.3-1.4,3-2.1,5.1-2.1s3.8.7,5.1,2.1c1.3,1.4,1.9,3.3,1.9,5.5v.5c0,2.2-.6,4.1-1.9,5.5-1.3,1.4-3,2.1-5.1,2.1s-3.8-.7-5.1-2.1c-1.3-1.4-1.9-3.3-1.9-5.5v-.5ZM931.3,167c0,1.6.4,3,1.2,4.1s2,1.7,3.6,1.7,2.8-.6,3.6-1.7,1.2-2.5,1.2-4.1v-.5c0-1.6-.4-3-1.2-4.1s-2-1.7-3.6-1.7-2.8.6-3.6,1.7-1.2,2.5-1.2,4.1v.5Z"/>
    <path class="st1" d="M944.2,159.3h8.6v1.7h-8.6v-1.7ZM947.1,160.3v-4.7h2.2v14.9c0,.8.1,1.3.4,1.7s.8.5,1.4.5.5,0,.8,0c.3,0,.5-.1.8-.2v1.8c-.2.1-.5.2-.9.3-.4,0-.8.1-1.2.1-1.1,0-1.9-.3-2.5-1s-.9-1.7-.9-3.1v-10.2Z"/>
    <path class="st1" d="M954.4,166.5c0-2.2.6-4.1,1.9-5.5,1.3-1.4,3-2.1,5.1-2.1s3.8.7,5.1,2.1c1.3,1.4,1.9,3.3,1.9,5.5v.5c0,2.2-.6,4.1-1.9,5.5-1.3,1.4-3,2.1-5.1,2.1s-3.8-.7-5.1-2.1c-1.3-1.4-1.9-3.3-1.9-5.5v-.5ZM956.7,167c0,1.6.4,3,1.2,4.1.8,1.1,2,1.7,3.6,1.7s2.8-.6,3.6-1.7c.8-1.1,1.2-2.5,1.2-4.1v-.5c0-1.6-.4-3-1.2-4.1-.8-1.1-2-1.7-3.6-1.7s-2.8.6-3.6,1.7c-.8,1.1-1.2,2.5-1.2,4.1v.5Z"/>
    <path class="st1" d="M973,169.8h0c0,1,.4,1.8,1.1,2.3.7.5,1.6.7,2.8.7s2.1-.2,2.7-.7,1-1.1,1-1.8-.3-1.3-.8-1.7c-.5-.4-1.6-.7-3.3-1.1-1.6-.4-2.9-.9-3.8-1.6s-1.4-1.6-1.4-2.8.5-2.2,1.5-3c1-.8,2.3-1.2,4-1.2s3,.4,4,1.2c1,.8,1.5,1.9,1.5,3.2h0c0,0-2.2,0-2.2,0h0c0-.9-.3-1.5-.8-2s-1.4-.7-2.5-.7-2,.2-2.5.6c-.5.4-.8.9-.8,1.6s.3,1.2.8,1.5c.6.4,1.7.8,3.3,1.1,1.7.4,2.9.9,3.8,1.6s1.3,1.7,1.3,3-.5,2.4-1.5,3.2-2.5,1.3-4.4,1.3-3.4-.4-4.5-1.3c-1-.9-1.5-2-1.5-3.4h0c0,0,2.2,0,2.2,0Z"/>
    <path class="st1" d="M991.6,178.2c.3,0,.6.1.9.2s.6,0,.9,0c.6,0,1.2-.2,1.6-.7s1.1-1.7,1.8-3.6h0s-5.7-14.8-5.7-14.8h2.2l3.9,10.5c.1.3.2.7.3,1,0,.3.2.6.3.9h0c0-.3.2-.6.3-.9,0-.3.2-.6.3-1l3.6-10.5h2.1l-6.1,16.6c-.5,1.5-1.2,2.6-1.9,3.4-.7.7-1.6,1.1-2.7,1.1s-.7,0-1,0c-.3,0-.6-.1-.9-.2v-1.9Z"/>
    <path class="st1" d="M1013.5,159.3l3.9,10.5c.1.4.2.7.3,1,0,.3.2.6.2.8h0c0-.2.1-.5.2-.8,0-.3.2-.7.4-1l3.9-10.5h2.2l-5.8,14.9h-1.8l-5.8-14.9h2.2Z"/>
    <path class="st1" d="M1026.9,153.7c.2-.3.6-.4,1.1-.4s.8.1,1.1.4c.2.3.4.6.4,1s-.1.7-.4,1c-.3.3-.6.4-1.1.4s-.8-.1-1.1-.4c-.3-.3-.4-.6-.4-1s.1-.7.4-1ZM1026.9,159.3h2.2v14.9h-2.2v-14.9Z"/>
    <path class="st1" d="M1032.5,166.5c0-2.2.6-4,1.7-5.4,1.1-1.4,2.6-2.1,4.6-2.1s2,.2,2.8.6c.8.4,1.4.9,1.9,1.5v-8.7h2.2v21.8h-2v-2h-.1c-.4.6-1,1.2-1.9,1.6-.8.4-1.8.7-2.9.7-1.9,0-3.4-.7-4.6-2.1-1.1-1.4-1.7-3.2-1.7-5.4v-.5ZM1035.9,171c.7,1.1,1.9,1.6,3.4,1.6s1.9-.3,2.6-.8c.7-.5,1.2-1.1,1.6-1.8v-6.5c-.3-.7-.8-1.3-1.6-1.8-.7-.5-1.6-.8-2.6-.8-1.5,0-2.7.5-3.4,1.6-.7,1.1-1.1,2.4-1.1,4v.5c0,1.6.4,3,1.1,4Z"/>
    <path class="st1" d="M1049,166.5c0-2.2.6-4.1,1.8-5.5,1.2-1.4,2.8-2.1,4.9-2.1s3.6.7,4.6,2c1.1,1.3,1.6,3.1,1.6,5.4v.9h-11.7v-1.8h9.4v-.2c0-1.4-.3-2.4-1-3.3-.7-.8-1.7-1.2-3-1.2s-2.6.6-3.4,1.7c-.8,1.1-1.1,2.5-1.1,4.1v.5c0,1.7.4,3,1.2,4.1s2,1.7,3.7,1.7,1.8-.2,2.5-.6c.7-.4,1.3-.9,1.7-1.5l1.4,1.2c-.5.7-1.2,1.3-2.2,1.9-1,.6-2.1.9-3.5.9-2.3,0-4.1-.7-5.3-2.1-1.2-1.4-1.8-3.3-1.8-5.5v-.5Z"/>
    <path class="st1" d="M1064.2,166.5c0-2.2.6-4.1,1.9-5.5,1.3-1.4,3-2.1,5.1-2.1s3.8.7,5.1,2.1c1.3,1.4,1.9,3.3,1.9,5.5v.5c0,2.2-.6,4.1-1.9,5.5-1.3,1.4-3,2.1-5.1,2.1s-3.8-.7-5.1-2.1c-1.3-1.4-1.9-3.3-1.9-5.5v-.5ZM1066.5,167c0,1.6.4,3,1.2,4.1.8,1.1,2,1.7,3.6,1.7s2.8-.6,3.6-1.7c.8-1.1,1.2-2.5,1.2-4.1v-.5c0-1.6-.4-3-1.2-4.1-.8-1.1-2-1.7-3.6-1.7s-2.8.6-3.6,1.7c-.8,1.1-1.2,2.5-1.2,4.1v.5Z"/>
    <path class="st1" d="M1082.7,169.8h0c0,1,.4,1.8,1.1,2.3.7.5,1.6.7,2.8.7s2.1-.2,2.7-.7,1-1.1,1-1.8-.3-1.3-.8-1.7c-.5-.4-1.6-.7-3.3-1.1-1.6-.4-2.9-.9-3.8-1.6s-1.4-1.6-1.4-2.8.5-2.2,1.5-3c1-.8,2.3-1.2,4-1.2s3,.4,4,1.2c1,.8,1.5,1.9,1.5,3.2h0c0,0-2.2,0-2.2,0h0c0-.9-.3-1.5-.8-2s-1.4-.7-2.5-.7-2,.2-2.5.6c-.5.4-.8.9-.8,1.6s.3,1.2.8,1.5c.6.4,1.7.8,3.3,1.1,1.7.4,2.9.9,3.8,1.6s1.3,1.7,1.3,3-.5,2.4-1.5,3.2-2.5,1.3-4.4,1.3-3.4-.4-4.5-1.3c-1-.9-1.5-2-1.5-3.4h0c0,0,2.2,0,2.2,0Z"/>
    <path class="st1" d="M1101.4,178.2c.3,0,.6.1.9.2s.6,0,.9,0c.6,0,1.2-.2,1.6-.7s1.1-1.7,1.8-3.6h0s-5.7-14.8-5.7-14.8h2.2l3.9,10.5c.1.3.2.7.3,1,0,.3.2.6.3.9h0c0-.3.2-.6.3-.9,0-.3.2-.6.3-1l3.6-10.5h2.1l-6.1,16.6c-.5,1.5-1.2,2.6-1.9,3.4-.7.7-1.6,1.1-2.7,1.1s-.7,0-1,0c-.3,0-.6-.1-.9-.2v-1.9Z"/>
    <path class="st1" d="M784,201.2c1.2-.8,2.7-1.2,4.6-1.2h3.7v-1.2c0-1-.3-1.8-.8-2.4s-1.4-.9-2.6-.9-2.2.3-2.7.8c-.5.5-.8,1.1-.8,1.8h0c0,0-2.2,0-2.2,0h0c0-1.3.5-2.3,1.6-3.2s2.4-1.3,4.2-1.3,3.1.4,4.1,1.3c1,.9,1.5,2.1,1.5,3.8v6.8c0,.6,0,1.2.1,1.7,0,.5.2,1,.4,1.4v.2h-2.1c-.2-.2-.3-.6-.4-1s-.2-.8-.2-1.2c-.4.6-1,1.2-1.8,1.7-.8.5-1.9.8-3.2.8s-2.6-.4-3.6-1.2c-1-.8-1.5-1.9-1.5-3.4s.6-2.7,1.8-3.5ZM785.2,206.7c.6.5,1.4.7,2.6.7s2.2-.4,3.1-1.1c.9-.8,1.3-1.6,1.3-2.4v-2.3h-3.4c-1.5,0-2.6.3-3.3.8s-1.1,1.3-1.1,2.2.3,1.7.8,2.1Z"/>
    <path class="st1" d="M797.7,201.3c0-2.2.6-4,1.7-5.4,1.1-1.4,2.6-2.1,4.6-2.1s2,.2,2.8.6c.8.4,1.4.9,1.9,1.5v-8.7h2.2v21.8h-2v-2h-.1c-.4.6-1,1.2-1.9,1.6-.8.4-1.8.7-2.9.7-1.9,0-3.4-.7-4.6-2.1-1.1-1.4-1.7-3.2-1.7-5.4v-.5ZM801.1,205.8c.7,1.1,1.9,1.6,3.4,1.6s1.9-.3,2.6-.8c.7-.5,1.2-1.1,1.6-1.8v-6.5c-.3-.7-.8-1.3-1.6-1.8-.7-.5-1.6-.8-2.6-.8-1.5,0-2.7.5-3.4,1.6-.7,1.1-1.1,2.4-1.1,4v.5c0,1.6.4,3,1.1,4Z"/>
    <path class="st1" d="M815.1,194.1h2v2.1h.2c.6-.7,1.2-1.3,2-1.7s1.7-.6,2.6-.6,1.9.2,2.7.6c.8.4,1.3,1.1,1.7,2h0c.6-.9,1.4-1.6,2.2-2,.8-.4,1.7-.6,2.8-.6,1.5,0,2.7.4,3.6,1.3s1.3,2.3,1.3,4.2v9.7h-2.2v-9.7c0-1.3-.3-2.2-.9-2.7-.6-.6-1.4-.8-2.4-.8s-1.7.2-2.3.7c-.7.5-1.2,1.1-1.6,1.9v10.7h-2.2v-9.7c0-1.3-.3-2.2-.9-2.7-.6-.6-1.4-.8-2.4-.8s-1.7.2-2.3.7c-.7.5-1.2,1.1-1.6,1.9v10.7h-2.2v-14.9Z"/>
    <path class="st1" d="M840.4,188.5c.2-.3.6-.4,1.1-.4s.8.1,1.1.4c.2.3.4.6.4,1s-.1.7-.4,1c-.2.3-.6.4-1.1.4s-.8-.1-1.1-.4c-.2-.3-.4-.6-.4-1s.1-.7.4-1ZM840.4,194.1h2.2v14.9h-2.2v-14.9Z"/>
    <path class="st1" d="M846.9,194.1h2v2.1h.2c.6-.7,1.3-1.3,2.1-1.7.8-.4,1.7-.6,2.7-.6,1.5,0,2.7.4,3.6,1.3.9.8,1.3,2.3,1.3,4.2v9.7h-2.2v-9.7c0-1.3-.3-2.2-.9-2.7-.6-.6-1.4-.8-2.5-.8s-1.7.2-2.4.7c-.7.5-1.3,1.1-1.6,1.9v10.7h-2.2v-14.9Z"/>
    <path class="st1" d="M863.1,188.5c.2-.3.6-.4,1.1-.4s.8.1,1.1.4c.2.3.4.6.4,1s-.1.7-.4,1c-.2.3-.6.4-1.1.4s-.8-.1-1.1-.4c-.2-.3-.4-.6-.4-1s.1-.7.4-1ZM863,194.1h2.2v14.9h-2.2v-14.9Z"/>
    <path class="st1" d="M870.8,204.6h0c0,1,.4,1.8,1.1,2.3.7.5,1.6.7,2.8.7s2.1-.2,2.7-.7,1-1.1,1-1.8-.3-1.3-.8-1.7c-.5-.4-1.6-.7-3.3-1.1-1.6-.4-2.9-.9-3.8-1.6s-1.4-1.6-1.4-2.8.5-2.2,1.5-3c1-.8,2.3-1.2,4-1.2s3,.4,4,1.2c1,.8,1.5,1.9,1.5,3.2h0c0,0-2.2,0-2.2,0h0c0-.9-.3-1.5-.8-2s-1.4-.7-2.5-.7-2,.2-2.5.6c-.5.4-.8.9-.8,1.6s.3,1.2.8,1.5c.6.4,1.7.8,3.3,1.1,1.7.4,2.9.9,3.8,1.6s1.3,1.7,1.3,3-.5,2.4-1.5,3.2-2.5,1.3-4.4,1.3-3.4-.4-4.5-1.3c-1-.9-1.5-2-1.5-3.4h0c0,0,2.2,0,2.2,0Z"/>
    <path class="st1" d="M881.6,194.1h8.6v1.7h-8.6v-1.7ZM884.5,195.1v-4.7h2.2v14.9c0,.8.1,1.3.4,1.7s.8.5,1.4.5.5,0,.8,0c.3,0,.5-.1.8-.2v1.8c-.2.1-.5.2-.9.3-.4,0-.8.1-1.2.1-1.1,0-1.9-.3-2.5-1s-.9-1.7-.9-3.1v-10.2Z"/>
    <path class="st1" d="M893.1,194.1h2v2h.2c.4-.7,1-1.2,1.6-1.7.7-.5,1.5-.7,2.4-.7s.4,0,.7,0c.2,0,.4,0,.5.1v2.1c-.2,0-.4,0-.6,0-.2,0-.5,0-.7,0-.9,0-1.7.2-2.4.7-.6.5-1.1,1.1-1.5,1.8v10.7h-2.2v-14.9Z"/>
    <path class="st1" d="M903.4,201.2c1.2-.8,2.7-1.2,4.6-1.2h3.7v-1.2c0-1-.3-1.8-.8-2.4-.5-.6-1.4-.9-2.6-.9s-2.2.3-2.7.8-.8,1.1-.8,1.8h0c0,0-2.2,0-2.2,0h0c0-1.3.5-2.3,1.6-3.2,1-.9,2.4-1.3,4.2-1.3s3.1.4,4.1,1.3c1,.9,1.5,2.1,1.5,3.8v6.8c0,.6,0,1.2.1,1.7,0,.5.2,1,.4,1.4v.2h-2.1c-.2-.2-.3-.6-.4-1s-.2-.8-.2-1.2c-.4.6-1,1.2-1.8,1.7-.8.5-1.9.8-3.2.8s-2.6-.4-3.6-1.2-1.5-1.9-1.5-3.4.6-2.7,1.8-3.5ZM904.6,206.7c.6.5,1.4.7,2.6.7s2.2-.4,3.1-1.1c.9-.8,1.3-1.6,1.3-2.4v-2.3h-3.4c-1.5,0-2.6.3-3.3.8-.8.5-1.1,1.3-1.1,2.2s.3,1.7.8,2.1Z"/>
    <path class="st1" d="M917.1,201.3c0-2.2.6-4.1,1.8-5.5,1.2-1.4,2.9-2.1,5-2.1s3.5.5,4.5,1.6c1,1.1,1.5,2.3,1.5,3.6h0c0,0-2.1,0-2.1,0h0c0-1-.3-1.8-.9-2.4-.6-.7-1.6-1-3-1s-2.7.6-3.5,1.7c-.8,1.1-1.1,2.5-1.1,4.1v.5c0,1.7.4,3,1.1,4.1s1.9,1.7,3.5,1.7,2.3-.3,3-1c.6-.7.9-1.5.9-2.4h0c0,0,2.1,0,2.1,0h0c0,1.4-.5,2.6-1.5,3.7-1,1.1-2.5,1.6-4.5,1.6s-3.8-.7-5-2.1c-1.2-1.4-1.8-3.3-1.8-5.5v-.5Z"/>
    <path class="st1" d="M933.2,188.5c.2-.3.6-.4,1.1-.4s.8.1,1.1.4c.2.3.4.6.4,1s-.1.7-.4,1c-.2.3-.6.4-1.1.4s-.8-.1-1.1-.4c-.2-.3-.4-.6-.4-1s.1-.7.4-1ZM933.2,194.1h2.2v14.9h-2.2v-14.9Z"/>
    <path class="st1" d="M938.8,201.3c0-2.2.6-4.1,1.9-5.5,1.3-1.4,3-2.1,5.1-2.1s3.8.7,5.1,2.1c1.3,1.4,1.9,3.3,1.9,5.5v.5c0,2.2-.6,4.1-1.9,5.5-1.3,1.4-3,2.1-5.1,2.1s-3.8-.7-5.1-2.1c-1.3-1.4-1.9-3.3-1.9-5.5v-.5ZM941.1,201.8c0,1.6.4,3,1.2,4.1s2,1.7,3.6,1.7,2.8-.6,3.6-1.7,1.2-2.5,1.2-4.1v-.5c0-1.6-.4-3-1.2-4.1s-2-1.7-3.6-1.7-2.8.6-3.6,1.7-1.2,2.5-1.2,4.1v.5ZM947.1,186.5l1.8,1.3-4.2,3.9-1.1-.9,3.5-4.2Z"/>
    <path class="st1" d="M956.2,194.1h2v2.1h.2c.6-.7,1.3-1.3,2.1-1.7.8-.4,1.7-.6,2.7-.6,1.5,0,2.7.4,3.6,1.3s1.3,2.3,1.3,4.2v9.7h-2.2v-9.7c0-1.3-.3-2.2-.9-2.7s-1.4-.8-2.5-.8-1.7.2-2.4.7c-.7.5-1.3,1.1-1.6,1.9v10.7h-2.2v-14.9Z"/>
  </g>
  <path class="st1" d="M1381.2,230.9v-16.7c1.9-.4,3.5-2,3.9-3.9h16.7c-.6,11.1-9.5,20-20.6,20.6h0ZM1358.2,210.3h16.7c.4,1.9,2,3.5,3.9,3.9v16.7c-11.1-.6-20-9.5-20.6-20.6h0ZM1378.9,187.3v16.7c-1.9.4-3.5,2-3.9,3.9h-16.7c.6-11.1,9.5-20,20.6-20.6h0ZM1401.9,207.9h-16.7c-.4-1.9-2-3.5-3.9-3.9v-16.7c11.1.6,20,9.5,20.6,20.6h0ZM1427.3,207.9h-23.5c-.6-12.2-10.4-22-22.6-22.6v-23.5h-2.4v23.5c-12.2.6-22,10.4-22.6,22.6h-23.5v2.4h23.5c.6,12.2,10.4,22,22.6,22.6v23.5h2.4v-23.5c12.2-.6,22-10.4,22.6-22.6h23.5v-2.4Z"/>
  <g>
    <path class="st0" d="M139.1,97.1h58.7l-20.3,99.3h-75.9l-20.3-99.3h55.2v66.1h2.6v-66.1Z"/>
    <path class="st0" d="M202.2,97.1h108.3v33.1h-53.3v2.6h44v27.9h-44v2.6h53.3v33.1h-108.4v-99.2Z"/>
    <path class="st0" d="M371.3,163.3h53.3v33.1h-108.4v-99.3h55.1v66.3Z"/>
    <path class="st0" d="M521.2,97c3,0,5.8.6,8.5,1.7,2.7,1.2,5.1,2.7,7.2,4.7,4.3,4.3,6.5,9.5,6.5,15.7v55.2c0,3-.6,5.8-1.7,8.5-1.1,2.7-2.7,5-4.8,7-4.3,4.3-9.5,6.5-15.7,6.5h-68.9c-2.9,0-5.7-.6-8.3-1.7-2.7-1.1-5.1-2.7-7.2-4.8-2.1-2.1-3.7-4.5-4.8-7.2-1.1-2.7-1.7-5.5-1.7-8.3v-13.3c0-4.7,0-9.5,0-14.4,0-4.8,0-9.6,0-14.4v-13.3c0-3,.6-5.8,1.7-8.5,1.1-2.7,2.7-5,4.7-7,2-2,4.4-3.6,7-4.7,2.7-1.2,5.6-1.7,8.6-1.7h68.6ZM488.3,130.2h-2.9v33.1h2.9v-33.1Z"/>
    <path class="st0" d="M618.1,163.6l-5.9,7,2.2,1.9,7.6-9.2h24v33.1h-96.9v-33.1l31.8-40.5-2.3-1.9-7.2,9.3h-22.3v-33.1h96.9v33.1l-27.9,33.4Z"/>
  </g>
</svg>