<?xml version="1.0" encoding="UTF-8"?>
<svg xmlns="http://www.w3.org/2000/svg" version="1.1" viewBox="0 0 1920 1080">
  <!-- Generator: Adobe Illustrator 29.3.1, SVG Export Plug-In . SVG Version: 2.1.0 Build 151)  -->
  <defs>
    <style>
      .st0 {
        fill: #212223;
      }

      .st1 {
        stroke: #212223;
        stroke-width: 3px;
      }

      .st1, .st2, .st3 {
        fill: none;
        stroke-miterlimit: 10;
      }

      .st4 {
        fill: #d4d4d4;
      }

      .st2 {
        stroke-width: 1.5px;
      }

      .st2, .st3 {
        stroke: #000;
      }

      .st3 {
        stroke-width: 2.1px;
      }

      .st5 {
        fill: #0019aa;
        font-family: REDJOLA-Free-Trial, 'REDJOLA Free Trial';
        font-size: 536.1px;
      }
    </style>
  </defs>
  <g id="Capa_4">
    <rect class="st4" width="1920" height="1080"/>
  </g>
  <g id="Capa_1">
    <text class="st5" transform="translate(160.5 907.3)"><tspan x="0" y="0">04</tspan></text>
    <g>
      <path class="st0" d="M1102,842.1h6.8l13.2,64.7h-7.1l-9.5-50.1c-.2-1.1-.4-2.2-.6-3.3-.2-1.1-.3-2.1-.4-3.2h-.4c-.4,1.1-.9,2.1-1.4,3.2-.5,1.1-1.1,2.2-1.7,3.3l-27.4,50.1h-7.3l35.8-64.7ZM1082.4,883.5h31.5l1.2,5.9h-36l3.3-5.9Z"/>
      <path class="st0" d="M1135.6,860.3h6.2l-.8,6.3h.2c1.6-2,3.9-3.7,6.8-5.1,2.9-1.4,6-2.1,9.4-2.1,6,0,10.3,2.2,13,6.6,2.7,4.4,3.5,10,2.3,16.8l-.3,1.4c-1.2,6.8-3.9,12.4-8.2,16.8-4.3,4.4-9.4,6.6-15.4,6.6s-6.2-.6-8.5-1.8c-2.2-1.2-3.9-2.8-5.1-4.8l-4.2,24h-6.8l11.4-64.8ZM1140.5,899.4c2,1.7,4.5,2.5,7.7,2.5,4.9,0,8.7-1.7,11.6-5s4.7-7.6,5.6-12.6l.3-1.4c.9-5.1.5-9.3-1.2-12.6s-4.9-5-9.8-5-6.1.8-8.6,2.5c-2.6,1.7-4.5,3.6-5.9,5.7l-3.6,20.3c.6,2.1,1.9,4.1,3.9,5.7Z"/>
      <path class="st0" d="M1189.4,839h6.9l-12,67.8h-6.9l12-67.8Z"/>
      <path class="st0" d="M1204.3,860.3h6.8l-8.2,46.4h-6.8l8.2-46.4ZM1207.5,842.8c.9-.8,2.1-1.3,3.6-1.3s2.5.4,3.1,1.3c.6.8.8,1.9.6,3.1-.2,1.2-.8,2.3-1.7,3.1-.9.8-2.1,1.3-3.6,1.3s-2.5-.4-3.2-1.3c-.6-.8-.8-1.9-.6-3.1.2-1.2.8-2.3,1.7-3.1Z"/>
      <path class="st0" d="M1216.1,882.8c1.2-7,4.1-12.7,8.7-17.2,4.6-4.4,10.2-6.7,16.8-6.7s10.5,1.7,13.1,5c2.6,3.3,3.5,7.1,2.8,11.2v.2h-6.7v-.2c.5-2.8,0-5.3-1.5-7.3-1.6-2.1-4.4-3.1-8.6-3.1s-8.8,1.7-11.8,5.2c-3,3.5-4.9,7.8-5.8,12.9l-.3,1.4c-.9,5.1-.5,9.5,1.3,12.9,1.8,3.5,5.1,5.2,10,5.2s7.5-1,9.7-3.1c2.3-2.1,3.7-4.5,4.2-7.3v-.2h6.7v.2c-.8,4.1-3,7.9-6.7,11.2-3.8,3.3-8.7,5-14.8,5s-11.5-2.2-14.5-6.7c-3-4.4-3.9-10.2-2.7-17.2l.3-1.4Z"/>
      <path class="st0" d="M1267.7,882.5c4.2-2.6,9.1-3.9,14.8-3.9h11.4l.7-3.7c.6-3.1.2-5.6-1-7.5-1.2-1.9-3.8-2.9-7.7-2.9s-6.9.8-8.8,2.4c-2,1.6-3.2,3.5-3.6,5.8v.2h-6.8v-.2c.7-3.8,2.9-7,6.6-9.7,3.7-2.7,8.3-4.1,13.8-4.1s9.5,1.3,12,4c2.5,2.7,3.3,6.7,2.4,12l-3.8,21.2c-.3,1.9-.5,3.7-.5,5.4,0,1.7.2,3.2.5,4.5v.7h-6.7c-.4-.8-.6-1.8-.7-3-.1-1.2-.1-2.5,0-3.7-1.5,1.9-3.7,3.7-6.5,5.2s-6.3,2.3-10.3,2.3-8-1.2-10.6-3.6c-2.6-2.4-3.5-5.9-2.7-10.7.8-4.7,3.3-8.3,7.5-10.9ZM1268.5,899.7c1.4,1.5,4,2.3,7.6,2.3s6.9-1.2,10.1-3.5c3.2-2.4,5-4.9,5.5-7.5l1.3-7.3h-10.5c-4.5,0-8.1.8-10.8,2.5-2.6,1.7-4.2,3.9-4.7,6.9-.5,2.9,0,5.1,1.4,6.7Z"/>
      <path class="st0" d="M1308.6,882.8c1.2-7,4.1-12.7,8.7-17.2,4.6-4.4,10.2-6.7,16.8-6.7s10.5,1.7,13.1,5c2.6,3.3,3.5,7.1,2.8,11.2v.2h-6.7v-.2c.5-2.8,0-5.3-1.5-7.3-1.6-2.1-4.4-3.1-8.6-3.1s-8.8,1.7-11.8,5.2c-3,3.5-4.9,7.8-5.8,12.9l-.3,1.4c-.9,5.1-.5,9.5,1.3,12.9,1.8,3.5,5.1,5.2,10,5.2s7.5-1,9.7-3.1c2.3-2.1,3.7-4.5,4.2-7.3v-.2h6.7v.2c-.8,4.1-3,7.9-6.7,11.2-3.8,3.3-8.7,5-14.8,5s-11.5-2.2-14.5-6.7c-3-4.4-3.9-10.2-2.7-17.2l.3-1.4Z"/>
      <path class="st0" d="M1361.2,860.3h6.8l-8.2,46.4h-6.8l8.2-46.4ZM1364.4,842.8c.9-.8,2.1-1.3,3.6-1.3s2.5.4,3.1,1.3c.6.8.8,1.9.6,3.1-.2,1.2-.8,2.3-1.7,3.1-.9.8-2.1,1.3-3.6,1.3s-2.5-.4-3.2-1.3c-.6-.8-.8-1.9-.6-3.1.2-1.2.8-2.3,1.7-3.1Z"/>
      <path class="st0" d="M1373.1,882.8c1.2-7,4.2-12.7,9-17.2,4.7-4.4,10.4-6.7,17.1-6.7s11.5,2.2,14.7,6.7c3.2,4.4,4.1,10.2,2.9,17.2l-.3,1.4c-1.2,7-4.2,12.7-9,17.2-4.7,4.4-10.4,6.7-17,6.7s-11.6-2.2-14.7-6.7c-3.2-4.4-4.1-10.2-2.9-17.2l.3-1.4ZM1379.8,884.3c-.9,5.1-.4,9.4,1.5,12.9,1.9,3.5,5.3,5.2,10.2,5.2s8.9-1.7,12-5.2c3.1-3.5,5.1-7.8,6-12.9l.3-1.4c.9-5.1.4-9.4-1.5-12.9-1.9-3.5-5.3-5.2-10.1-5.2s-8.9,1.7-12,5.2c-3.1,3.5-5.1,7.8-6,12.9l-.3,1.4Z"/>
      <path class="st0" d="M1429.5,860.3h6.2l-.8,6.4h.2c2.1-2.3,4.6-4.1,7.4-5.4,2.8-1.3,5.7-1.9,8.8-1.9,4.7,0,8.2,1.3,10.5,3.9,2.3,2.6,2.9,7,1.9,13.2l-5.3,30.2h-6.9l5.3-30.3c.7-4,.3-6.8-1.2-8.6-1.5-1.7-3.9-2.6-7.3-2.6s-5.5.8-8,2.3c-2.5,1.5-4.5,3.5-6.2,5.8l-5.9,33.3h-6.8l8.2-46.4Z"/>
      <path class="st0" d="M1470.8,882.8c1.2-7,4.2-12.7,8.8-17.2,4.6-4.4,10-6.7,16.3-6.7s10.7,2,13.4,6.1c2.7,4.1,3.4,9.7,2.1,16.9l-.5,2.9h-36.4l1-5.6h29.4v-.6c.9-4.2.4-7.6-1.2-10.2-1.6-2.5-4.5-3.8-8.6-3.8s-8.5,1.7-11.5,5.2c-3,3.5-4.9,7.8-5.8,12.9l-.3,1.4c-.9,5.1-.4,9.5,1.4,12.9,1.9,3.5,5.4,5.2,10.7,5.2s5.8-.6,8.2-1.9c2.4-1.2,4.5-2.8,6.2-4.6l3.8,3.7c-1.9,2.1-4.4,4.1-7.8,5.8-3.3,1.8-7.1,2.7-11.5,2.7-7.2,0-12.3-2.2-15.4-6.7-3.1-4.4-4-10.2-2.7-17.2l.3-1.4Z"/>
      <path class="st0" d="M1521.8,893.1v.2c-.6,3,.1,5.3,2.1,6.8,1.9,1.5,4.7,2.3,8.2,2.3s6.5-.7,8.8-2.2c2.3-1.5,3.6-3.4,4.1-5.7.4-2.3-.1-4.1-1.5-5.2-1.4-1.2-4.6-2.3-9.6-3.5-4.9-1.2-8.6-2.8-11.1-5-2.5-2.1-3.4-5.1-2.7-8.8.6-3.7,2.8-6.8,6.3-9.3,3.6-2.5,7.9-3.7,13.1-3.7s9.2,1.3,11.9,3.8c2.7,2.6,3.7,5.9,3,10.1v.2h-6.9v-.3c.5-2.5,0-4.4-1.5-5.9-1.5-1.5-4-2.2-7.5-2.2s-6.3.6-8.2,1.9c-1.9,1.3-3.1,2.9-3.4,4.9-.3,2,.3,3.6,1.8,4.8,1.5,1.2,4.8,2.4,9.7,3.6,4.9,1.2,8.6,2.8,11,4.9,2.4,2.1,3.2,5.2,2.5,9.2-.7,4.1-2.9,7.4-6.4,10.1-3.5,2.6-8.3,4-14.5,4s-10.5-1.3-13.2-4c-2.7-2.7-3.7-6.3-2.9-10.7v-.2h6.9Z"/>
    </g>
    <g>
      <g>
        <line class="st1" x1="103.7" y1="57.1" x2="103.7" y2="129.8"/>
        <line class="st1" x1="67.3" y1="93.5" x2="140.1" y2="93.5"/>
      </g>
      <g>
        <line class="st1" x1="103.7" y1="954.4" x2="103.7" y2="1027.1"/>
        <line class="st1" x1="67.3" y1="990.7" x2="140.1" y2="990.7"/>
      </g>
      <g>
        <line class="st1" x1="1807.8" y1="57.1" x2="1807.8" y2="129.8"/>
        <line class="st1" x1="1771.4" y1="93.5" x2="1844.1" y2="93.5"/>
      </g>
      <g>
        <line class="st1" x1="1807.8" y1="954.4" x2="1807.8" y2="1027.1"/>
        <line class="st1" x1="1771.4" y1="990.7" x2="1844.1" y2="990.7"/>
      </g>
    </g>
    <g>
      <g>
        <g>
          <line class="st2" x1="1789.9" y1="540" x2="1808.1" y2="540"/>
          <line class="st2" x1="1789.9" y1="531.1" x2="1808.1" y2="531.1"/>
          <line class="st2" x1="1789.9" y1="522.1" x2="1808.1" y2="522.1"/>
          <line class="st2" x1="1789.9" y1="513.2" x2="1808.1" y2="513.2"/>
          <line class="st2" x1="1789.9" y1="504.3" x2="1808.1" y2="504.3"/>
          <line class="st2" x1="1789.9" y1="495.4" x2="1808.1" y2="495.4"/>
        </g>
        <g>
          <line class="st2" x1="1789.9" y1="495.4" x2="1808.1" y2="495.4"/>
          <line class="st2" x1="1789.9" y1="486.4" x2="1808.1" y2="486.4"/>
          <line class="st2" x1="1789.9" y1="477.5" x2="1808.1" y2="477.5"/>
          <line class="st2" x1="1789.9" y1="468.6" x2="1808.1" y2="468.6"/>
          <line class="st2" x1="1789.9" y1="459.7" x2="1808.1" y2="459.7"/>
          <line class="st2" x1="1789.9" y1="450.7" x2="1808.1" y2="450.7"/>
        </g>
        <g>
          <line class="st2" x1="1789.9" y1="450.7" x2="1808.1" y2="450.7"/>
          <line class="st2" x1="1789.9" y1="441.8" x2="1808.1" y2="441.8"/>
          <line class="st2" x1="1789.9" y1="432.9" x2="1808.1" y2="432.9"/>
          <line class="st2" x1="1789.9" y1="424" x2="1808.1" y2="424"/>
          <line class="st2" x1="1789.9" y1="415" x2="1808.1" y2="415"/>
          <line class="st2" x1="1789.9" y1="406.1" x2="1808.1" y2="406.1"/>
        </g>
        <g>
          <line class="st2" x1="1789.9" y1="406.1" x2="1808.1" y2="406.1"/>
          <line class="st2" x1="1789.9" y1="397.2" x2="1808.1" y2="397.2"/>
          <line class="st2" x1="1789.9" y1="388.3" x2="1808.1" y2="388.3"/>
          <line class="st2" x1="1789.9" y1="379.3" x2="1808.1" y2="379.3"/>
          <line class="st2" x1="1789.9" y1="370.4" x2="1808.1" y2="370.4"/>
          <line class="st2" x1="1789.9" y1="361.5" x2="1808.1" y2="361.5"/>
        </g>
        <line class="st3" x1="1776.9" y1="540" x2="1808.1" y2="540"/>
        <line class="st3" x1="1776.9" y1="495.4" x2="1808.1" y2="495.4"/>
        <line class="st3" x1="1776.9" y1="450.7" x2="1808.1" y2="450.7"/>
        <line class="st3" x1="1776.9" y1="406.1" x2="1808.1" y2="406.1"/>
        <line class="st3" x1="1776.9" y1="361.5" x2="1808.1" y2="361.5"/>
      </g>
      <g>
        <g>
          <line class="st2" x1="1789.9" y1="540" x2="1808.1" y2="540"/>
          <line class="st2" x1="1789.9" y1="548.9" x2="1808.1" y2="548.9"/>
          <line class="st2" x1="1789.9" y1="557.9" x2="1808.1" y2="557.9"/>
          <line class="st2" x1="1789.9" y1="566.8" x2="1808.1" y2="566.8"/>
          <line class="st2" x1="1789.9" y1="575.7" x2="1808.1" y2="575.7"/>
          <line class="st2" x1="1789.9" y1="584.6" x2="1808.1" y2="584.6"/>
        </g>
        <g>
          <line class="st2" x1="1789.9" y1="584.6" x2="1808.1" y2="584.6"/>
          <line class="st2" x1="1789.9" y1="593.6" x2="1808.1" y2="593.6"/>
          <line class="st2" x1="1789.9" y1="602.5" x2="1808.1" y2="602.5"/>
          <line class="st2" x1="1789.9" y1="611.4" x2="1808.1" y2="611.4"/>
          <line class="st2" x1="1789.9" y1="620.3" x2="1808.1" y2="620.3"/>
          <line class="st2" x1="1789.9" y1="629.3" x2="1808.1" y2="629.3"/>
        </g>
        <g>
          <line class="st2" x1="1789.9" y1="629.3" x2="1808.1" y2="629.3"/>
          <line class="st2" x1="1789.9" y1="638.2" x2="1808.1" y2="638.2"/>
          <line class="st2" x1="1789.9" y1="647.1" x2="1808.1" y2="647.1"/>
          <line class="st2" x1="1789.9" y1="656" x2="1808.1" y2="656"/>
          <line class="st2" x1="1789.9" y1="665" x2="1808.1" y2="665"/>
          <line class="st2" x1="1789.9" y1="673.9" x2="1808.1" y2="673.9"/>
        </g>
        <g>
          <line class="st2" x1="1789.9" y1="673.9" x2="1808.1" y2="673.9"/>
          <line class="st2" x1="1789.9" y1="682.8" x2="1808.1" y2="682.8"/>
          <line class="st2" x1="1789.9" y1="691.7" x2="1808.1" y2="691.7"/>
          <line class="st2" x1="1789.9" y1="700.7" x2="1808.1" y2="700.7"/>
          <line class="st2" x1="1789.9" y1="709.6" x2="1808.1" y2="709.6"/>
          <line class="st2" x1="1789.9" y1="718.5" x2="1808.1" y2="718.5"/>
        </g>
        <line class="st3" x1="1776.9" y1="540" x2="1808.1" y2="540"/>
        <line class="st3" x1="1776.9" y1="584.6" x2="1808.1" y2="584.6"/>
        <line class="st3" x1="1776.9" y1="629.3" x2="1808.1" y2="629.3"/>
        <line class="st3" x1="1776.9" y1="673.9" x2="1808.1" y2="673.9"/>
        <line class="st3" x1="1776.9" y1="718.5" x2="1808.1" y2="718.5"/>
      </g>
    </g>
  </g>
</svg>