<?xml version="1.0" encoding="UTF-8"?>
<svg xmlns="http://www.w3.org/2000/svg" version="1.1" viewBox="0 0 1920 1080">
  <!-- Generator: Adobe Illustrator 29.3.1, SVG Export Plug-In . SVG Version: 2.1.0 Build 151)  -->
  <defs>
    <style>
      .st0 {
        fill: #212223;
      }

      .st1 {
        stroke: #212223;
        stroke-width: 3px;
      }

      .st1, .st2, .st3 {
        fill: none;
        stroke-miterlimit: 10;
      }

      .st4 {
        fill: #d4d4d4;
      }

      .st2 {
        stroke-width: 1.5px;
      }

      .st2, .st3 {
        stroke: #000;
      }

      .st3 {
        stroke-width: 2.1px;
      }

      .st5 {
        fill: #0019aa;
        font-family: REDJOLA-Free-Trial, 'REDJOLA Free Trial';
        font-size: 536.1px;
      }
    </style>
  </defs>
  <g id="Capa_4">
    <rect class="st4" width="1920" height="1080"/>
  </g>
  <g id="Capa_1">
    <text class="st5" transform="translate(160.5 907.3)"><tspan x="0" y="0">03</tspan></text>
    <g>
      <path class="st0" d="M1078.3,842.5h49.4l-1.1,6h-21.2l-10.3,58.3h-7.1l10.3-58.3h-21.2l1.1-6Z"/>
      <path class="st0" d="M1130.5,860.3h6.8l-8.2,46.4h-6.8l8.2-46.4ZM1133.7,842.8c.9-.8,2.1-1.3,3.6-1.3s2.5.4,3.1,1.3c.6.8.8,1.9.6,3.1-.2,1.2-.8,2.3-1.7,3.1s-2.1,1.3-3.6,1.3-2.5-.4-3.2-1.3-.8-1.9-.6-3.1c.2-1.2.8-2.3,1.7-3.1Z"/>
      <path class="st0" d="M1149.3,860.3h6.2l-.8,6.3h.2c1.6-2,3.9-3.7,6.8-5.1,2.9-1.4,6-2.1,9.4-2.1,6,0,10.3,2.2,13,6.6,2.7,4.4,3.5,10,2.3,16.8l-.3,1.4c-1.2,6.8-3.9,12.4-8.2,16.8s-9.4,6.6-15.4,6.6-6.2-.6-8.5-1.8c-2.2-1.2-3.9-2.8-5.1-4.8l-4.2,24h-6.8l11.4-64.8ZM1154.2,899.4c2,1.7,4.5,2.5,7.7,2.5,4.9,0,8.7-1.7,11.6-5s4.7-7.6,5.6-12.6l.3-1.4c.9-5.1.5-9.3-1.2-12.6s-4.9-5-9.8-5-6.1.8-8.6,2.5c-2.6,1.7-4.5,3.6-5.9,5.7l-3.6,20.3c.6,2.1,1.9,4.1,3.9,5.7Z"/>
      <path class="st0" d="M1192.7,882.8c1.2-7,4.2-12.7,9-17.2,4.7-4.4,10.4-6.7,17.1-6.7s11.5,2.2,14.7,6.7c3.2,4.4,4.1,10.2,2.9,17.2l-.3,1.4c-1.2,7-4.2,12.7-9,17.2-4.7,4.4-10.4,6.7-17,6.7s-11.6-2.2-14.7-6.7c-3.2-4.4-4.1-10.2-2.9-17.2l.3-1.4ZM1199.5,884.3c-.9,5.1-.4,9.4,1.5,12.9s5.3,5.2,10.2,5.2,8.9-1.7,12-5.2c3.1-3.5,5.1-7.8,6-12.9l.3-1.4c.9-5.1.4-9.4-1.5-12.9s-5.3-5.2-10.1-5.2-8.9,1.7-12,5.2c-3.1,3.5-5.1,7.8-6,12.9l-.3,1.4Z"/>
      <path class="st0" d="M1242.7,914.5c1.1,1.4,2.9,2.7,5.2,3.8,2.3,1.1,5,1.6,8,1.6,4.3,0,7.9-1.2,10.9-3.7,2.9-2.5,4.8-5.9,5.6-10.4l.8-4.8c-1.8,2-4.1,3.6-6.7,4.8s-5.7,1.8-9.1,1.8c-6,0-10.3-2.2-13.1-6.6-2.7-4.4-3.5-10-2.3-16.8l.3-1.4c1.2-6.8,3.9-12.4,8.2-16.8s9.4-6.6,15.4-6.6,6.3.7,8.6,2.1c2.3,1.4,4,3.1,4.9,5.1h.2l1.4-6.3h6.2l-8,45.5c-1.1,6.5-3.9,11.5-8.4,15-4.4,3.5-9.7,5.2-15.8,5.2s-7.2-.6-10.2-1.7c-3-1.2-5.4-2.7-7.3-4.5l5.1-5.3ZM1250.3,896.9c1.7,3.4,4.9,5,9.7,5s6.1-.8,8.6-2.5c2.6-1.7,4.5-3.6,5.9-5.7l3.6-20.3c-.6-2.1-1.9-4.1-3.9-5.7-2-1.7-4.5-2.5-7.7-2.5-4.8,0-8.7,1.7-11.5,5-2.9,3.4-4.7,7.6-5.6,12.6l-.3,1.4c-.9,5.1-.5,9.3,1.2,12.6Z"/>
      <path class="st0" d="M1299,860.3h6.2l-.8,6.3h.2c1.6-2,3.6-3.8,6-5.3,2.4-1.5,5-2.3,7.9-2.3s1.4,0,2.1.2c.7.1,1.2.3,1.5.4l-1.1,6.4c-.6-.1-1.2-.2-1.9-.3-.7,0-1.4-.1-2.2-.1-2.9,0-5.5.8-7.7,2.2s-4.1,3.4-5.5,5.6l-5.9,33.3h-6.8l8.2-46.4Z"/>
      <path class="st0" d="M1325,882.5c4.2-2.6,9.1-3.9,14.8-3.9h11.4l.7-3.7c.6-3.1.2-5.6-1-7.5-1.2-1.9-3.8-2.9-7.7-2.9s-6.9.8-8.8,2.4c-2,1.6-3.2,3.5-3.6,5.8v.2h-6.8v-.2c.7-3.8,2.9-7,6.6-9.7,3.7-2.7,8.3-4.1,13.8-4.1s9.5,1.3,12,4c2.5,2.7,3.3,6.7,2.4,12l-3.8,21.2c-.3,1.9-.5,3.7-.5,5.4,0,1.7.2,3.2.5,4.5v.7h-6.7c-.4-.8-.6-1.8-.7-3-.1-1.2-.1-2.5,0-3.7-1.5,1.9-3.7,3.7-6.5,5.3-2.9,1.6-6.3,2.3-10.3,2.3s-8-1.2-10.6-3.6-3.5-5.9-2.7-10.7c.8-4.7,3.3-8.3,7.5-10.9ZM1325.9,899.7c1.4,1.5,4,2.3,7.6,2.3s6.9-1.2,10.1-3.5c3.2-2.4,5-4.9,5.5-7.5l1.3-7.3h-10.5c-4.5,0-8.1.8-10.8,2.5-2.6,1.7-4.2,3.9-4.7,6.9-.5,2.9,0,5.1,1.4,6.7Z"/>
      <path class="st0" d="M1366.2,860.3h25.9l-.9,5.4h-25.9l.9-5.4ZM1375.6,854.2c.9-5.2,2.9-9.2,6.1-12s7.1-4.1,11.8-4.1,1.9,0,2.9.2c1,.1,1.9.3,2.8.5l-1.5,5.6c-.6-.1-1.3-.2-2.1-.3-.8-.1-1.6-.2-2.4-.2-2.9,0-5.3.9-7.1,2.6s-3.1,4.3-3.7,7.7l-1.5,8.4-.2.9-7.6,43.3h-6.8l9.3-52.6Z"/>
      <path class="st0" d="M1398.4,860.3h6.8l-8.2,46.4h-6.8l8.2-46.4ZM1409.8,836.8l5.1,4-15.3,12.1-2.9-3,13.1-13.1Z"/>
      <path class="st0" d="M1415.7,882.5c4.2-2.6,9.1-3.9,14.8-3.9h11.4l.7-3.7c.6-3.1.2-5.6-1-7.5-1.2-1.9-3.8-2.9-7.7-2.9s-6.9.8-8.8,2.4c-2,1.6-3.2,3.5-3.6,5.8v.2h-6.8v-.2c.7-3.8,2.9-7,6.6-9.7,3.7-2.7,8.3-4.1,13.8-4.1s9.5,1.3,12,4c2.5,2.7,3.3,6.7,2.4,12l-3.8,21.2c-.3,1.9-.5,3.7-.5,5.4,0,1.7.2,3.2.5,4.5v.7h-6.7c-.4-.8-.6-1.8-.7-3-.1-1.2-.1-2.5,0-3.7-1.5,1.9-3.7,3.7-6.5,5.3-2.9,1.6-6.3,2.3-10.3,2.3s-8-1.2-10.6-3.6-3.5-5.9-2.7-10.7c.8-4.7,3.3-8.3,7.5-10.9ZM1416.5,899.7c1.4,1.5,4,2.3,7.6,2.3s6.9-1.2,10.1-3.5c3.2-2.4,5-4.9,5.5-7.5l1.3-7.3h-10.5c-4.5,0-8.1.8-10.8,2.5-2.6,1.7-4.2,3.9-4.7,6.9-.5,2.9,0,5.1,1.4,6.7Z"/>
    </g>
    <g>
      <g>
        <line class="st1" x1="103.7" y1="57.1" x2="103.7" y2="129.8"/>
        <line class="st1" x1="67.3" y1="93.5" x2="140.1" y2="93.5"/>
      </g>
      <g>
        <line class="st1" x1="103.7" y1="954.4" x2="103.7" y2="1027.1"/>
        <line class="st1" x1="67.3" y1="990.7" x2="140.1" y2="990.7"/>
      </g>
      <g>
        <line class="st1" x1="1807.8" y1="57.1" x2="1807.8" y2="129.8"/>
        <line class="st1" x1="1771.4" y1="93.5" x2="1844.1" y2="93.5"/>
      </g>
      <g>
        <line class="st1" x1="1807.8" y1="954.4" x2="1807.8" y2="1027.1"/>
        <line class="st1" x1="1771.4" y1="990.7" x2="1844.1" y2="990.7"/>
      </g>
    </g>
    <g>
      <g>
        <g>
          <line class="st2" x1="1789.9" y1="540" x2="1808.1" y2="540"/>
          <line class="st2" x1="1789.9" y1="531.1" x2="1808.1" y2="531.1"/>
          <line class="st2" x1="1789.9" y1="522.1" x2="1808.1" y2="522.1"/>
          <line class="st2" x1="1789.9" y1="513.2" x2="1808.1" y2="513.2"/>
          <line class="st2" x1="1789.9" y1="504.3" x2="1808.1" y2="504.3"/>
          <line class="st2" x1="1789.9" y1="495.4" x2="1808.1" y2="495.4"/>
        </g>
        <g>
          <line class="st2" x1="1789.9" y1="495.4" x2="1808.1" y2="495.4"/>
          <line class="st2" x1="1789.9" y1="486.4" x2="1808.1" y2="486.4"/>
          <line class="st2" x1="1789.9" y1="477.5" x2="1808.1" y2="477.5"/>
          <line class="st2" x1="1789.9" y1="468.6" x2="1808.1" y2="468.6"/>
          <line class="st2" x1="1789.9" y1="459.7" x2="1808.1" y2="459.7"/>
          <line class="st2" x1="1789.9" y1="450.7" x2="1808.1" y2="450.7"/>
        </g>
        <g>
          <line class="st2" x1="1789.9" y1="450.7" x2="1808.1" y2="450.7"/>
          <line class="st2" x1="1789.9" y1="441.8" x2="1808.1" y2="441.8"/>
          <line class="st2" x1="1789.9" y1="432.9" x2="1808.1" y2="432.9"/>
          <line class="st2" x1="1789.9" y1="424" x2="1808.1" y2="424"/>
          <line class="st2" x1="1789.9" y1="415" x2="1808.1" y2="415"/>
          <line class="st2" x1="1789.9" y1="406.1" x2="1808.1" y2="406.1"/>
        </g>
        <g>
          <line class="st2" x1="1789.9" y1="406.1" x2="1808.1" y2="406.1"/>
          <line class="st2" x1="1789.9" y1="397.2" x2="1808.1" y2="397.2"/>
          <line class="st2" x1="1789.9" y1="388.3" x2="1808.1" y2="388.3"/>
          <line class="st2" x1="1789.9" y1="379.3" x2="1808.1" y2="379.3"/>
          <line class="st2" x1="1789.9" y1="370.4" x2="1808.1" y2="370.4"/>
          <line class="st2" x1="1789.9" y1="361.5" x2="1808.1" y2="361.5"/>
        </g>
        <line class="st3" x1="1776.9" y1="540" x2="1808.1" y2="540"/>
        <line class="st3" x1="1776.9" y1="495.4" x2="1808.1" y2="495.4"/>
        <line class="st3" x1="1776.9" y1="450.7" x2="1808.1" y2="450.7"/>
        <line class="st3" x1="1776.9" y1="406.1" x2="1808.1" y2="406.1"/>
        <line class="st3" x1="1776.9" y1="361.5" x2="1808.1" y2="361.5"/>
      </g>
      <g>
        <g>
          <line class="st2" x1="1789.9" y1="540" x2="1808.1" y2="540"/>
          <line class="st2" x1="1789.9" y1="548.9" x2="1808.1" y2="548.9"/>
          <line class="st2" x1="1789.9" y1="557.9" x2="1808.1" y2="557.9"/>
          <line class="st2" x1="1789.9" y1="566.8" x2="1808.1" y2="566.8"/>
          <line class="st2" x1="1789.9" y1="575.7" x2="1808.1" y2="575.7"/>
          <line class="st2" x1="1789.9" y1="584.6" x2="1808.1" y2="584.6"/>
        </g>
        <g>
          <line class="st2" x1="1789.9" y1="584.6" x2="1808.1" y2="584.6"/>
          <line class="st2" x1="1789.9" y1="593.6" x2="1808.1" y2="593.6"/>
          <line class="st2" x1="1789.9" y1="602.5" x2="1808.1" y2="602.5"/>
          <line class="st2" x1="1789.9" y1="611.4" x2="1808.1" y2="611.4"/>
          <line class="st2" x1="1789.9" y1="620.3" x2="1808.1" y2="620.3"/>
          <line class="st2" x1="1789.9" y1="629.3" x2="1808.1" y2="629.3"/>
        </g>
        <g>
          <line class="st2" x1="1789.9" y1="629.3" x2="1808.1" y2="629.3"/>
          <line class="st2" x1="1789.9" y1="638.2" x2="1808.1" y2="638.2"/>
          <line class="st2" x1="1789.9" y1="647.1" x2="1808.1" y2="647.1"/>
          <line class="st2" x1="1789.9" y1="656" x2="1808.1" y2="656"/>
          <line class="st2" x1="1789.9" y1="665" x2="1808.1" y2="665"/>
          <line class="st2" x1="1789.9" y1="673.9" x2="1808.1" y2="673.9"/>
        </g>
        <g>
          <line class="st2" x1="1789.9" y1="673.9" x2="1808.1" y2="673.9"/>
          <line class="st2" x1="1789.9" y1="682.8" x2="1808.1" y2="682.8"/>
          <line class="st2" x1="1789.9" y1="691.7" x2="1808.1" y2="691.7"/>
          <line class="st2" x1="1789.9" y1="700.7" x2="1808.1" y2="700.7"/>
          <line class="st2" x1="1789.9" y1="709.6" x2="1808.1" y2="709.6"/>
          <line class="st2" x1="1789.9" y1="718.5" x2="1808.1" y2="718.5"/>
        </g>
        <line class="st3" x1="1776.9" y1="540" x2="1808.1" y2="540"/>
        <line class="st3" x1="1776.9" y1="584.6" x2="1808.1" y2="584.6"/>
        <line class="st3" x1="1776.9" y1="629.3" x2="1808.1" y2="629.3"/>
        <line class="st3" x1="1776.9" y1="673.9" x2="1808.1" y2="673.9"/>
        <line class="st3" x1="1776.9" y1="718.5" x2="1808.1" y2="718.5"/>
      </g>
    </g>
  </g>
</svg>