<?xml version="1.0" encoding="UTF-8"?>
<svg xmlns="http://www.w3.org/2000/svg" version="1.1" viewBox="0 0 1920 1080">
  <!-- Generator: Adobe Illustrator 29.3.1, SVG Export Plug-In . SVG Version: 2.1.0 Build 151)  -->
  <defs>
    <style>
      .st0 {
        stroke-width: 2px;
      }

      .st0, .st1, .st2 {
        stroke: #212223;
      }

      .st0, .st1, .st2, .st3, .st4, .st5, .st6, .st7, .st8, .st9 {
        stroke-miterlimit: 10;
      }

      .st0, .st1, .st2, .st3, .st4, .st6, .st7, .st8, .st9 {
        fill: none;
      }

      .st10 {
        fill: #001436;
      }

      .st10, .st11 {
        font-size: 42px;
      }

      .st10, .st11, .st12 {
        letter-spacing: 0em;
      }

      .st10, .st11, .st12, .st13 {
        font-family: Roboto-Regular, Roboto;
      }

      .st11, .st14, .st13 {
        fill: #0019aa;
      }

      .st15 {
        fill: #212223;
      }

      .st16 {
        fill: #a5a5a5;
      }

      .st1 {
        stroke-width: 3px;
      }

      .st2 {
        stroke-width: 2.5px;
      }

      .st17 {
        fill: #d4d4d4;
      }

      .st3 {
        stroke-width: 1.5px;
      }

      .st3, .st4, .st5, .st7, .st8, .st9 {
        stroke: #000;
      }

      .st4 {
        stroke-width: 1.6px;
      }

      .st5 {
        stroke-width: .8px;
      }

      .st6 {
        stroke: #fff;
      }

      .st6, .st7 {
        stroke-width: .8px;
      }

      .st8 {
        stroke-width: 2.1px;
      }

      .st9 {
        stroke-width: 2px;
      }

      .st12 {
        font-size: 28px;
      }

      .st13 {
        font-size: 10px;
        letter-spacing: 0em;
      }
    </style>
  </defs>
  <g id="Capa_4">
    <rect class="st17" x="0" width="1920" height="1080"/>
    <line class="st0" x1="67.3" y1="178.2" x2="1852.7" y2="178.2"/>
    <g>
      <g>
        <line class="st2" x1="385" y1="216.7" x2="385" y2="277.3"/>
        <line class="st2" x1="354.8" y1="247" x2="415.3" y2="247"/>
      </g>
      <g>
        <line class="st2" x1="385" y1="963.8" x2="385" y2="1024.3"/>
        <line class="st2" x1="354.8" y1="994" x2="415.3" y2="994"/>
      </g>
      <g>
        <line class="st2" x1="1803.8" y1="216.7" x2="1803.8" y2="277.3"/>
        <line class="st2" x1="1773.6" y1="247" x2="1834.1" y2="247"/>
      </g>
      <g>
        <line class="st2" x1="1803.8" y1="963.8" x2="1803.8" y2="1024.3"/>
        <line class="st2" x1="1773.6" y1="994" x2="1834.1" y2="994"/>
      </g>
    </g>
    <text class="st10" transform="translate(421.8 97.1)"><tspan x="0" y="0">Íconos / Recursos gráficos</tspan></text>
    <text class="st11" transform="translate(348.2 97.1)"><tspan x="0" y="0">4.2</tspan></text>
  </g>
  <g id="Capa_1">
    <g>
      <path d="M1742,963.8l-2.1.8v-1.9l3.1-1.2h1.5v9.6h-2.5v-7.2Z"/>
      <path d="M1749.1,961.6h1.9l-3.3,10.3h-2l3.3-10.3Z"/>
      <path d="M1753.5,963.8l-2.1.8v-1.9l3.1-1.2h1.5v9.6h-2.5v-7.2Z"/>
      <path d="M1758.2,969.6l3.1-3.7c.3-.4.6-.7.8-1,.2-.3.3-.6.3-.9s0-.5-.2-.6c-.1-.1-.3-.2-.6-.2s-.5.1-.7.3c-.1.2-.2.5-.2,1v.3h-2.5v-.3c0-.9.3-1.7.9-2.2.6-.6,1.4-.8,2.5-.8s2.1.2,2.6.7.8,1.1.8,1.9c0,.6-.2,1.2-.5,1.7-.3.5-.7,1-1.2,1.5l-1.8,2h3.6v1.9h-6.9v-1.4Z"/>
      <path d="M1765.6,968.2h2.5v.2c0,.3,0,.6.3.8.2.2.4.3.8.3s.6-.1.8-.4c.1-.2.2-.6.2-1.1s0-.8-.2-1.1c-.2-.2-.4-.3-.7-.3s-.5,0-.7.2c-.2.1-.3.3-.4.5l-2.1-1,.5-4.7h5.7v1.9h-3.7s-.2,1.7-.2,1.7c.1-.1.3-.2.5-.3s.5-.1.8-.1c.9,0,1.6.3,2.2.8.5.5.8,1.3.8,2.3s-.3,1.8-.9,2.5c-.6.6-1.5.9-2.6.9s-2.1-.3-2.7-.8-.9-1.2-.9-2v-.2Z"/>
    </g>
    <g>
      <path d="M1713.1,961.6h6.5v1.8h-4.1v2.2h3.6v1.8h-3.6v3.6h-2.5v-9.5Z"/>
      <path d="M1720.8,966.9c.4-.4.8-.7,1.3-.8h0c-.5-.2-.8-.5-1.2-.8-.3-.4-.5-.8-.5-1.4s.3-1.3.8-1.8c.6-.5,1.4-.7,2.4-.7s1.9.2,2.5.7.9,1.1.9,1.8-.1,1-.4,1.4-.6.6-1.1.8h0c.5.1.9.4,1.3.8.4.4.5.9.5,1.6s-.3,1.5-.9,2c-.6.5-1.5.7-2.7.7s-2-.2-2.7-.7c-.6-.5-.9-1.1-.9-2s.2-1.2.6-1.6ZM1723,969.2c.2.2.4.3.8.3s.6-.1.8-.3c.2-.2.3-.5.3-.9s0-.7-.2-.9c-.2-.2-.4-.3-.8-.3s-.7.1-.8.3c-.2.2-.2.5-.2.9s0,.7.3.9ZM1723.1,965c.1.2.3.3.7.3s.6-.1.7-.3c.1-.2.2-.5.2-.8s0-.6-.2-.8c-.1-.2-.3-.3-.7-.3s-.5.1-.7.3-.2.5-.2.8,0,.6.2.8Z"/>
    </g>
    <g>
      <path d="M1725.2,942.9h2.5v9.5h-2.5v-9.5Z"/>
      <path d="M1729,949.4h2.6v.2c0,.4.1.7.4.9.2.2.6.3,1,.3s.8,0,1-.2c.2-.2.3-.4.3-.7s-.1-.6-.3-.8c-.2-.2-.8-.3-1.6-.5-1-.2-1.7-.6-2.3-1.1-.6-.5-.9-1.1-.9-1.9,0-.9.3-1.6,1-2.1.7-.5,1.6-.8,2.7-.8s2,.3,2.7.8c.7.5,1,1.2,1,2.1v.2h-2.5v-.2c0-.3-.1-.6-.3-.8-.2-.2-.5-.3-.9-.3s-.7,0-.9.2-.3.3-.3.6.1.5.3.6.8.3,1.6.5c1,.2,1.7.6,2.3,1.1.6.5.9,1.2.9,2.1s-.4,1.7-1.1,2.2c-.7.5-1.7.7-2.8.7s-2.1-.2-2.8-.7c-.7-.5-1.1-1.2-1.1-2.2v-.2Z"/>
      <path d="M1737.7,947.3c0-1.5.4-2.7,1.2-3.5.8-.8,1.9-1.2,3.2-1.2s2.4.4,3.2,1.2c.8.8,1.2,1.9,1.2,3.5v.6c0,1.5-.4,2.7-1.2,3.5-.8.8-1.9,1.2-3.2,1.2s-2.4-.4-3.2-1.2c-.8-.8-1.2-1.9-1.2-3.5v-.6ZM1740.8,950.2c.3.4.8.6,1.3.6s1-.2,1.4-.6c.3-.4.5-1,.5-1.9v-1.2c0-.9-.2-1.5-.5-1.9-.3-.4-.8-.6-1.4-.6s-1,.2-1.3.6c-.3.4-.5,1-.5,1.9v1.2c0,.9.2,1.5.5,1.9Z"/>
      <path d="M1751.2,948.3c.4-.4.8-.7,1.3-.8h0c-.5-.2-.8-.5-1.2-.8-.3-.4-.5-.8-.5-1.4s.3-1.3.8-1.8c.6-.5,1.4-.7,2.4-.7s1.9.2,2.5.7.9,1.1.9,1.8-.1,1-.4,1.4-.6.6-1.1.8h0c.5.1.9.4,1.3.8.4.4.5.9.5,1.6s-.3,1.5-.9,2c-.6.5-1.5.7-2.7.7s-2-.2-2.7-.7c-.6-.5-.9-1.1-.9-2s.2-1.2.6-1.6ZM1753.4,950.5c.2.2.4.3.8.3s.6-.1.8-.3c.2-.2.3-.5.3-.9s0-.7-.2-.9c-.2-.2-.4-.3-.8-.3s-.7.1-.8.3c-.2.2-.2.5-.2.9s0,.7.3.9ZM1753.5,946.4c.1.2.3.3.7.3s.6-.1.7-.3c.1-.2.2-.5.2-.8s0-.6-.2-.8c-.1-.2-.3-.3-.7-.3s-.5.1-.7.3-.2.5-.2.8,0,.6.2.8Z"/>
      <path d="M1758.2,946.4c0-1.1.3-2,.9-2.7.6-.7,1.4-1,2.6-1s2,.3,2.6,1,.9,1.6.9,2.7v2.5c0,1.1-.3,2-.9,2.7s-1.5,1-2.6,1-2-.3-2.6-1-.9-1.6-.9-2.7v-2.5ZM1761,950.3c.1.3.4.4.7.4s.6-.1.7-.4c.1-.3.2-.7.2-1.1v-3c0-.5,0-.9-.2-1.1-.1-.3-.4-.4-.7-.4s-.6.1-.7.4c-.1.3-.2.7-.2,1.1v3c0,.5,0,.9.2,1.1Z"/>
      <path d="M1765.7,946.4c0-1.1.3-2,.9-2.7.6-.7,1.4-1,2.6-1s2,.3,2.6,1,.9,1.6.9,2.7v2.5c0,1.1-.3,2-.9,2.7s-1.5,1-2.6,1-2-.3-2.6-1-.9-1.6-.9-2.7v-2.5ZM1768.5,950.3c.1.3.4.4.7.4s.6-.1.7-.4c.1-.3.2-.7.2-1.1v-3c0-.5,0-.9-.2-1.1-.1-.3-.4-.4-.7-.4s-.6.1-.7.4c-.1.3-.2.7-.2,1.1v3c0,.5,0,.9.2,1.1Z"/>
    </g>
    <g>
      <path d="M415.2,272h3.7c1.2,0,2.1.3,2.7.8s1,1.3,1,2.3-.3,1.8-1,2.4c-.7.5-1.6.8-2.7.8h-1.2v3.2h-2.5v-9.5ZM418.8,276.5c.5,0,.8-.1,1-.4.2-.2.3-.6.3-1,0-.5-.1-.8-.3-1s-.6-.3-1-.3h-1.1v2.7h1.1ZM418.1,277.1h2.7s2.3,4.4,2.3,4.4h-2.8l-2.2-4.4Z"/>
      <path d="M424,272h6.7v1.8h-4.2v1.9h3.6v1.8h-3.6v2.1h4.3v1.8h-6.7v-9.5Z"/>
      <path d="M431.7,276.4c0-1.6.4-2.7,1.2-3.5.8-.8,1.9-1.2,3.2-1.2s2.2.3,3,.9c.7.6,1.1,1.5,1.1,2.5v.2h-2.5v-.3c0-.5-.1-.9-.4-1.2-.3-.2-.7-.4-1.2-.4s-1,.2-1.3.5c-.3.4-.5,1-.5,1.9v1.3c0,.8.2,1.5.5,1.9.3.4.8.6,1.4.6s.9-.1,1.1-.4.4-.7.4-1.2v-.2h2.5v.2c0,1-.4,1.9-1.1,2.5-.7.6-1.7.9-3,.9s-2.4-.4-3.2-1.2c-.8-.8-1.2-1.9-1.2-3.5v-.6Z"/>
    </g>
    <g>
      <path d="M468.4,275.7c0-1.1.3-2,.9-2.7.6-.7,1.4-1,2.6-1s2,.3,2.6,1c.6.7.9,1.6.9,2.7v2.5c0,1.1-.3,2-.9,2.7-.6.7-1.5,1-2.6,1s-2-.3-2.6-1c-.6-.7-.9-1.6-.9-2.7v-2.5ZM471.2,279.6c.1.3.4.4.7.4s.6-.1.7-.4.2-.7.2-1.1v-3c0-.5,0-.9-.2-1.1-.1-.3-.4-.4-.7-.4s-.6.1-.7.4c-.1.3-.2.7-.2,1.1v3c0,.5,0,.9.2,1.1Z"/>
      <path d="M475.9,275.7c0-1.1.3-2,.9-2.7.6-.7,1.4-1,2.6-1s2,.3,2.6,1c.6.7.9,1.6.9,2.7v2.5c0,1.1-.3,2-.9,2.7-.6.7-1.5,1-2.6,1s-2-.3-2.6-1c-.6-.7-.9-1.6-.9-2.7v-2.5ZM478.7,279.6c.1.3.4.4.7.4s.6-.1.7-.4.2-.7.2-1.1v-3c0-.5,0-.9-.2-1.1-.1-.3-.4-.4-.7-.4s-.6.1-.7.4c-.1.3-.2.7-.2,1.1v3c0,.5,0,.9.2,1.1Z"/>
      <path d="M484.4,274.9c.2-.3.6-.4,1.1-.4s.8.1,1.1.4.4.6.4.9-.1.7-.4.9-.6.4-1.1.4-.8-.1-1.1-.4c-.2-.3-.4-.6-.4-.9s.1-.7.4-.9ZM484.4,279.6c.2-.3.6-.4,1.1-.4s.8.1,1.1.4.4.6.4.9-.1.7-.4.9-.6.4-1.1.4-.8-.1-1.1-.4c-.2-.3-.4-.6-.4-.9s.1-.7.4-.9Z"/>
      <path d="M488.1,275.7c0-1.1.3-2,.9-2.7.6-.7,1.4-1,2.6-1s2,.3,2.6,1c.6.7.9,1.6.9,2.7v2.5c0,1.1-.3,2-.9,2.7-.6.7-1.5,1-2.6,1s-2-.3-2.6-1c-.6-.7-.9-1.6-.9-2.7v-2.5ZM490.9,279.6c.1.3.4.4.7.4s.6-.1.7-.4.2-.7.2-1.1v-3c0-.5,0-.9-.2-1.1-.1-.3-.4-.4-.7-.4s-.6.1-.7.4c-.1.3-.2.7-.2,1.1v3c0,.5,0,.9.2,1.1Z"/>
      <path d="M495.6,275.7c0-1.1.3-2,.9-2.7.6-.7,1.4-1,2.6-1s2,.3,2.6,1c.6.7.9,1.6.9,2.7v2.5c0,1.1-.3,2-.9,2.7-.6.7-1.5,1-2.6,1s-2-.3-2.6-1c-.6-.7-.9-1.6-.9-2.7v-2.5ZM498.4,279.6c.1.3.4.4.7.4s.6-.1.7-.4.2-.7.2-1.1v-3c0-.5,0-.9-.2-1.1-.1-.3-.4-.4-.7-.4s-.6.1-.7.4c-.1.3-.2.7-.2,1.1v3c0,.5,0,.9.2,1.1Z"/>
      <path d="M504.1,274.9c.2-.3.6-.4,1.1-.4s.8.1,1.1.4.4.6.4.9-.1.7-.4.9-.6.4-1.1.4-.8-.1-1.1-.4c-.2-.3-.4-.6-.4-.9s.1-.7.4-.9ZM504.1,279.6c.2-.3.6-.4,1.1-.4s.8.1,1.1.4.4.6.4.9-.1.7-.4.9-.6.4-1.1.4-.8-.1-1.1-.4c-.2-.3-.4-.6-.4-.9s.1-.7.4-.9Z"/>
      <path d="M507.7,275.7c0-1.1.3-2,.9-2.7.6-.7,1.4-1,2.6-1s2,.3,2.6,1c.6.7.9,1.6.9,2.7v2.5c0,1.1-.3,2-.9,2.7-.6.7-1.5,1-2.6,1s-2-.3-2.6-1c-.6-.7-.9-1.6-.9-2.7v-2.5ZM510.5,279.6c.1.3.4.4.7.4s.6-.1.7-.4.2-.7.2-1.1v-3c0-.5,0-.9-.2-1.1-.1-.3-.4-.4-.7-.4s-.6.1-.7.4c-.1.3-.2.7-.2,1.1v3c0,.5,0,.9.2,1.1Z"/>
      <path d="M515.3,275.7c0-1.1.3-2,.9-2.7.6-.7,1.4-1,2.6-1s2,.3,2.6,1c.6.7.9,1.6.9,2.7v2.5c0,1.1-.3,2-.9,2.7-.6.7-1.5,1-2.6,1s-2-.3-2.6-1c-.6-.7-.9-1.6-.9-2.7v-2.5ZM518,279.6c.1.3.4.4.7.4s.6-.1.7-.4.2-.7.2-1.1v-3c0-.5,0-.9-.2-1.1-.1-.3-.4-.4-.7-.4s-.6.1-.7.4c-.1.3-.2.7-.2,1.1v3c0,.5,0,.9.2,1.1Z"/>
    </g>
    <path d="M462.8,277.3c0-4.2-3.4-7.7-7.7-7.7s-7.7,3.4-7.7,7.7,3.4,7.7,7.7,7.7,7.7-3.4,7.7-7.7Z"/>
    <g>
      <rect class="st9" x="1725.8" y="270.4" width="46.2" height="18.2" rx="4.1" ry="4.1"/>
      <path class="st5" d="M1765.7,273.9l-4.9,11.2h6.3c.8,0,1.4-.6,1.4-1.4v-8.3c0-.8-.6-1.4-1.4-1.4h-1.4Z"/>
      <polygon class="st5" points="1748.1 285.1 1758.6 285.1 1763.5 273.9 1753.1 273.9 1748.1 285.1"/>
      <polygon class="st5" points="1735.5 285.1 1745.9 285.1 1750.9 273.9 1740.4 273.9 1735.5 285.1"/>
      <path class="st9" d="M1723.8,275.6h2v7.8h-2c-.8,0-1.4-.6-1.4-1.4v-5.1c0-.8.6-1.4,1.4-1.4Z"/>
    </g>
    <g>
      <path d="M419.5,961.3h2.7l3.7,9.5h-2.7l-2.3-6.4c0-.1,0-.3-.1-.4,0-.1,0-.3,0-.4h0c0,.1,0,.3,0,.4,0,.1,0,.3-.1.4l-2.3,6.4h-2.3l3.6-9.5ZM418.8,967.2h4l.5,1.8h-5l.5-1.8Z"/>
      <path d="M426.6,961.4h6.5v1.8h-4.1v2.2h3.6v1.8h-3.6v3.6h-2.5v-9.5Z"/>
      <path d="M433.8,965.7h3.8v2h-3.8v-2Z"/>
      <path d="M438.5,965.8c0-1.6.4-2.7,1.2-3.5.8-.8,1.9-1.2,3.2-1.2s2.2.3,3,.9c.7.6,1.1,1.5,1.1,2.5v.2h-2.5v-.3c0-.5-.1-.9-.4-1.2-.3-.2-.7-.4-1.2-.4s-1,.2-1.3.5c-.3.4-.5,1-.5,1.9v1.3c0,.8.2,1.5.5,1.9.3.4.8.6,1.4.6s.9-.1,1.1-.4.4-.7.4-1.2v-.2h2.5v.2c0,1-.4,1.9-1.1,2.5-.7.6-1.7.9-3,.9s-2.4-.4-3.2-1.2c-.8-.8-1.2-1.9-1.2-3.5v-.6Z"/>
    </g>
    <g>
      <path d="M475.9,965c0-1.1.3-2,.9-2.7.6-.7,1.4-1,2.6-1s2,.3,2.6,1c.6.7.9,1.6.9,2.7v2.5c0,1.1-.3,2-.9,2.7-.6.7-1.5,1-2.6,1s-2-.3-2.6-1c-.6-.7-.9-1.6-.9-2.7v-2.5ZM478.7,968.9c.1.3.4.4.7.4s.6-.1.7-.4.2-.7.2-1.1v-3c0-.5,0-.9-.2-1.1-.1-.3-.4-.4-.7-.4s-.6.1-.7.4c-.1.3-.2.7-.2,1.1v3c0,.5,0,.9.2,1.1Z"/>
      <path d="M484.3,968.8c.3-.3.6-.4,1.1-.4s.8.1,1.1.4.4.6.4,1-.1.7-.4,1-.6.4-1.1.4-.8-.1-1.1-.4c-.3-.3-.4-.6-.4-1s.1-.7.4-1Z"/>
      <path d="M488,965c0-1.1.3-2,.9-2.7.6-.7,1.4-1,2.6-1s2,.3,2.6,1c.6.7.9,1.6.9,2.7v2.5c0,1.1-.3,2-.9,2.7-.6.7-1.5,1-2.6,1s-2-.3-2.6-1c-.6-.7-.9-1.6-.9-2.7v-2.5ZM490.8,968.9c.1.3.4.4.7.4s.6-.1.7-.4.2-.7.2-1.1v-3c0-.5,0-.9-.2-1.1-.1-.3-.4-.4-.7-.4s-.6.1-.7.4c-.1.3-.2.7-.2,1.1v3c0,.5,0,.9.2,1.1Z"/>
    </g>
    <g>
      <rect class="st4" x="455.1" y="958.7" width="14" height="14"/>
      <line class="st7" x1="466.4" y1="967.8" x2="462.6" y2="967.8"/>
      <polygon points="455.1 972.7 455.1 958.7 469.1 958.7 455.1 972.7"/>
      <g>
        <line class="st6" x1="459.2" y1="960.1" x2="459.2" y2="965.1"/>
        <line class="st6" x1="461.7" y1="962.6" x2="456.7" y2="962.6"/>
      </g>
    </g>
    <text class="st13" transform="translate(67.3 984.9)"><tspan x="0" y="0">2025</tspan><tspan x="0" y="14">Veloz</tspan><tspan x="0" y="28">Manual de Marca</tspan></text>
    <text class="st12" transform="translate(67.3 284.1)"><tspan class="st16"><tspan x="0" y="0">Colores</tspan></tspan><tspan class="st16"><tspan x="0" y="59.9">Imagotipo</tspan></tspan><tspan class="st16"><tspan x="0" y="119.8">Tipografía</tspan></tspan><tspan class="st14"><tspan x="0" y="179.7">Aplicaciones</tspan></tspan></text>
    <g>
      <g>
        <line class="st1" x1="1317.8" y1="677.5" x2="1317.8" y2="750.9"/>
        <line class="st1" x1="1281.1" y1="714.2" x2="1354.5" y2="714.2"/>
      </g>
      <path d="M543.1,756.5c4.5-11.3,7.1-25.6,7.2-40.8h31.5c-.8,18.5-16.7,34.3-38.8,40.8ZM522,775.6v-12.9c5.5,0,10.8-.7,15.8-1.8-4.5,8.8-10,13.9-15.8,14.6h0ZM503.1,761c5.1,1.1,10.4,1.7,15.8,1.8v12.9c-5.8-.8-11.3-5.9-15.8-14.6h0ZM459,715.7h31.5c.2,15.2,2.7,29.5,7.2,40.8-22.1-6.5-38-22.3-38.8-40.8ZM497.8,671.9c-4.5,11.3-7.1,25.6-7.2,40.8h-31.5c.8-18.5,16.7-34.3,38.8-40.8ZM518.9,652.9v12.9c-5.5,0-10.8.7-15.8,1.8,4.5-8.8,10-13.9,15.8-14.6h0ZM537.8,667.5c-5.1-1.1-10.4-1.7-15.8-1.8v-12.9c5.8.8,11.3,5.9,15.8,14.6ZM530.3,712.7c-4.6,0-8.4-3.7-8.4-8.4v-35.6c6.1.1,11.9.9,17.5,2.2,4.9,11.3,7.7,26,7.9,41.8h-17ZM518.9,668.8v35.6c0,4.6-3.7,8.4-8.4,8.4h-17c.2-15.7,2.9-30.5,7.9-41.8,5.5-1.3,11.4-2.1,17.5-2.2h0ZM501.5,757.5c-4.9-11.3-7.7-26-7.9-41.8h17c4.6,0,8.4,3.7,8.4,8.4v35.6c-6.1-.1-11.9-.9-17.5-2.2ZM522,759.7v-35.6c0-4.6,3.7-8.4,8.4-8.4h17c-.2,15.7-2.9,30.5-7.9,41.8-5.5,1.3-11.4,2.1-17.5,2.2h0ZM581.9,712.7h-31.5c-.2-15.2-2.7-29.5-7.2-40.8,22.1,6.5,38,22.3,38.8,40.8ZM584.9,714.2c0-21.2-18.1-39.2-43.4-45.8-5.6-12-13.1-18.7-21.1-18.7s-15.6,6.6-21.1,18.7c-25.2,6.6-43.4,24.7-43.4,45.8s18.1,39.2,43.4,45.8c5.6,12,13.1,18.7,21.1,18.7s15.6-6.6,21.1-18.7c25.2-6.6,43.4-24.7,43.4-45.8h0Z"/>
      <path d="M850,478.3c0-.3-.1-.6-.2-.8-1.5-5.7-3.8-11.2-6.9-16.3-.2-.3-.4-.6-.5-.9-2.6-4.1-5.6-8-9.2-11.6-2.8-2.8-5.7-5.2-8.8-7.4-.5-.4-1-.7-1.6-1h0c-10.1-6.6-21.9-10.2-34.2-10.3-.2,0-.4,0-.6,0,0,0,0,0,0,0s0,0,0,0c-.2,0-.4,0-.6,0-12.3.1-24.1,3.7-34.2,10.3h-.1c-.5.4-1,.7-1.4,1-3.1,2.2-6.1,4.6-8.8,7.4-3.5,3.5-6.6,7.4-9.2,11.6l-.2.3-.3.6h0c-3,5.2-5.3,10.6-6.9,16.4l-.2.8c-1.3,5-1.9,10.3-1.9,15.6s.6,10.6,1.9,15.6c0,.3.1.6.2.8,1.5,5.7,3.8,11.2,6.9,16.3.2.3.4.6.5.9,2.6,4.1,5.6,8,9.2,11.6,2.8,2.8,5.7,5.2,8.9,7.4.5.4,1,.7,1.6,1,10.1,6.6,21.9,10.2,34.2,10.3.2,0,.4,0,.6,0s.4,0,.6,0c12.3-.1,24.1-3.7,34.2-10.3h0c.5-.3,1-.7,1.6-1,3.1-2.2,6.1-4.6,8.9-7.4,3.5-3.5,6.6-7.4,9.2-11.6.2-.3.4-.6.5-.9h0c3-5.1,5.3-10.6,6.9-16.3,0-.3.1-.6.2-.8,1.3-5,1.9-10.3,1.9-15.6s-.6-10.6-1.9-15.6ZM851.1,493.5h0s-15.1,0-15.1,0c0-5.6-.6-11.1-1.7-16.3,0,0,0,0,0,0,5,.3,9.9.6,14.8,1,1.3,4.9,1.9,10,2,15.3ZM818.8,475.6c-.9-6.2-2.3-12-4.1-17.4,0,0,0,0,0,0,4.3.3,8.6.7,12.8,1.1h0c2.6,5.3,4.6,11,5.9,17-4.8-.3-9.7-.5-14.5-.7h0ZM788.4,457.3h0c4.1,0,8.1,0,12.2.2h0c1,5.4,1.7,11.4,2.2,17.6-4.8,0-9.6-.1-14.4-.1h0v-17.7ZM788.4,456.5h0v-17.7h0c2.4,0,4.7,0,7.1.1h0c1.2,2.8,2.3,6.2,3.3,10.2.6,2.4,1.1,4.9,1.6,7.6-4-.1-8-.2-12.1-.2ZM795.1,438.1c-2.2,0-4.5,0-6.7,0h0v-7.1c2.3.3,4.6,2.8,6.7,7.2h0ZM787.6,438c-2.2,0-4.5,0-6.7,0h0c2.1-4.4,4.4-7,6.7-7.2v7.1ZM780.5,438.9h0c2.4,0,4.7-.1,7.1-.1v17.7c-4,0-8,0-12.1.2.5-2.7,1-5.2,1.6-7.6,1-4,2.1-7.4,3.3-10.2ZM775.4,457.5h0c4.1-.1,8.1-.2,12.2-.2v17.7c-4.8,0-9.6,0-14.4.1.5-6.3,1.2-12.2,2.2-17.6ZM773.1,476c4.8,0,9.6-.1,14.4-.1v17.7h-15.1c0-6,.2-11.9.6-17.6ZM787.6,494.3v17.7c-4.8,0-9.6,0-14.4-.1-.4-5.6-.6-11.5-.6-17.6h15.1ZM787.6,512.8v17.7c-4.1,0-8.1,0-12.2-.2h0c-1-5.4-1.7-11.4-2.2-17.6,4.8,0,9.6.1,14.4.1ZM787.6,531.4v17.7c-2.4,0-4.7,0-7.1-.1h0c-1.2-2.8-2.3-6.2-3.3-10.2s-1.1-4.9-1.6-7.6c4,.1,8,.2,12.1.2ZM780.9,549.8c2.2,0,4.5,0,6.7,0v7.1c-2.3-.3-4.6-2.8-6.7-7.2h0ZM788.4,549.9h0c2.2,0,4.5,0,6.7,0-2.1,4.4-4.4,7-6.7,7.2v-7.1ZM795.5,548.9c-2.4,0-4.7.1-7.1.1h0v-17.7h0c4,0,8,0,12.1-.2-.5,2.7-1,5.2-1.6,7.6-1,4-2.1,7.4-3.3,10.2ZM800.6,530.3h0c-4.1.1-8.1.2-12.2.2h0v-17.7h0c4.8,0,9.6,0,14.4-.1-.5,6.3-1.2,12.2-2.2,17.6ZM802.8,511.9c-4.8,0-9.6.1-14.4.1h0v-17.7h15.1c0,6-.2,11.9-.6,17.6ZM788.4,493.5v-17.7h0c4.8,0,9.6,0,14.4.1.4,5.6.6,11.5.6,17.6h-15.1ZM801.4,457.6c4.1.1,8.3.3,12.4.6,1.8,5.3,3.2,11.1,4.2,17.4-4.8-.2-9.6-.3-14.4-.4-.5-6.3-1.2-12.2-2.2-17.6ZM801.2,456.7s0,0,0,0c-.5-2.7-1.1-5.3-1.7-7.8-1-3.9-2.1-7.2-3.2-10h0c2.4,0,4.9.2,7.3.3h0c3.9,4.5,7.2,10.7,9.9,18-4.1-.3-8.1-.5-12.2-.6ZM796,438.1h0c-1.5-3.3-3.2-5.7-4.9-7,4.2.8,8.2,3.4,11.8,7.3-2.3-.1-4.6-.2-6.9-.3ZM780,438.1h0c-2.3,0-4.6.2-6.9.3,3.6-3.9,7.6-6.4,11.8-7.3-1.7,1.3-3.4,3.6-4.9,7ZM772.3,439.3c2.4-.1,4.9-.3,7.3-.3h0c-1.2,2.7-2.3,6.1-3.2,10-.6,2.4-1.2,5-1.7,7.8,0,0,0,0,0,0-4.1.1-8.2.3-12.2.6,2.6-7.3,6-13.5,9.9-18,0,0,0,0,0,0ZM762.2,458.2c4.1-.3,8.2-.5,12.4-.6,0,0,0,0,0,0-.9,5.4-1.7,11.4-2.2,17.6-4.8,0-9.6.2-14.4.4.9-6.3,2.4-12.1,4.2-17.4ZM757.8,476.4c4.8-.2,9.6-.3,14.5-.4-.4,5.6-.6,11.5-.6,17.5h-15.1c0-5.9.4-11.7,1.2-17.1ZM771.7,494.3c0,6,.2,11.9.6,17.5-4.8,0-9.7-.2-14.5-.4-.8-5.4-1.2-11.2-1.2-17.1h15.1ZM772.4,512.7c.5,6.3,1.2,12.2,2.2,17.6h0c-4.1-.1-8.3-.3-12.4-.6-1.8-5.3-3.2-11.1-4.2-17.4,4.8.2,9.6.3,14.4.4ZM774.7,531.1h0c.5,2.7,1.1,5.4,1.7,7.8,1,3.9,2.1,7.2,3.2,10h0c-2.4,0-4.9-.2-7.3-.3h0c-3.9-4.5-7.2-10.7-9.9-18,4.1.3,8.1.5,12.2.6ZM780,549.7h0c1.5,3.3,3.2,5.7,4.9,7-4.2-.8-8.2-3.4-11.8-7.3,2.3.1,4.6.2,6.9.3ZM796,549.7h0c2.3,0,4.6-.2,6.9-.3-3.6,3.9-7.6,6.4-11.8,7.3,1.7-1.3,3.4-3.6,4.9-7ZM803.6,548.6c-2.4.1-4.9.3-7.3.3h0c1.2-2.7,2.3-6.1,3.2-10,.6-2.4,1.2-5,1.7-7.8,0,0,0,0,0,0,4.1-.1,8.2-.3,12.2-.6-2.6,7.3-6,13.5-9.9,18ZM813.8,529.7c-4.1.3-8.2.5-12.4.6.9-5.4,1.7-11.4,2.2-17.6,4.8,0,9.6-.2,14.4-.4-.9,6.3-2.4,12.1-4.2,17.4ZM818.1,511.5c-4.8.2-9.6.3-14.5.4.4-5.6.6-11.5.6-17.5h15.1c0,5.9-.4,11.7-1.2,17.1ZM804.2,493.5c0-6-.2-11.9-.6-17.5,4.8,0,9.7.2,14.5.4.8,5.4,1.2,11.2,1.2,17.1h-15.1ZM814.4,457.4s0,0,0,0c-1.1-3-2.3-5.9-3.6-8.5-1.8-3.7-3.9-6.8-6-9.5,0,0,0,0,0,0h0c2.6.2,5.1.4,7.7.6,3.2,2.6,6.2,5.7,8.9,9.3,2.1,2.8,4,5.9,5.7,9.2-4.2-.4-8.4-.8-12.7-1.1ZM804,438.5s0,0,0,0c-2.8-3.2-5.9-5.6-9.1-7,5.8,1.1,11.3,3.7,16.4,7.5-2.4-.2-4.8-.4-7.3-.5ZM781,431.5c-3.2,1.4-6.3,3.7-9.1,7,0,0,0,0,0,0-2.4.1-4.9.3-7.3.5,5-3.8,10.6-6.4,16.4-7.5ZM763.5,440c2.6-.2,5.1-.4,7.7-.6h0s0,0,0,0c-2.2,2.6-4.2,5.8-6,9.5-1.3,2.7-2.5,5.5-3.6,8.5,0,0,0,0,0,0-4.2.3-8.5.6-12.7,1.1,1.7-3.3,3.6-6.3,5.7-9.2,2.7-3.6,5.7-6.7,8.9-9.3ZM748.5,459.3h0c4.2-.4,8.5-.8,12.8-1.1,0,0,0,0,0,0-1.8,5.4-3.2,11.2-4.1,17.4h0c-4.9.2-9.7.4-14.5.7,1.3-6,3.3-11.8,5.9-17ZM742.4,477.2c4.8-.3,9.7-.5,14.6-.7h0c-.8,5.5-1.2,11.2-1.2,17.1h-15.1c0-5.6.6-11.1,1.7-16.4h0ZM755.8,494.3c0,5.9.4,11.6,1.2,17.1h0c-4.9-.2-9.8-.4-14.6-.7h0c-1.1-5.3-1.7-10.8-1.7-16.4h15.1ZM757.1,512.2h0c.9,6.2,2.3,12,4.1,17.4,0,0,0,0,0,0-4.3-.3-8.6-.7-12.8-1.1h0c-2.6-5.3-4.6-11-5.9-17,4.8.3,9.7.5,14.5.7ZM761.6,530.5h0c1.1,3,2.3,5.9,3.6,8.5,1.8,3.7,3.9,6.8,6,9.5,0,0,0,0,0,0-2.6-.2-5.1-.4-7.7-.6-3.2-2.6-6.2-5.7-8.9-9.3-2.1-2.8-4-5.9-5.7-9.2,4.2.4,8.4.8,12.7,1.1ZM771.9,549.4s0,0,0,0c2.8,3.2,5.9,5.6,9.1,7-5.8-1.1-11.3-3.7-16.4-7.5,2.4.2,4.8.4,7.3.5ZM804,549.4s0,0,0,0c2.4-.1,4.9-.3,7.3-.5-5,3.8-10.6,6.4-16.4,7.5,3.2-1.4,6.3-3.7,9.1-7ZM812.5,547.9c-2.6.2-5.1.4-7.7.6,0,0,0,0,0,0,2.2-2.6,4.2-5.8,6-9.5,1.3-2.7,2.5-5.5,3.6-8.5,0,0,0,0,0,0,4.2-.3,8.5-.6,12.7-1.1-1.7,3.3-3.6,6.3-5.7,9.2-2.7,3.6-5.7,6.7-8.9,9.3ZM827.5,528.5c-4.2.4-8.5.8-12.8,1.1,0,0,0,0,0,0,1.8-5.4,3.2-11.2,4.1-17.4h0c4.9-.2,9.7-.4,14.5-.7-1.3,6-3.3,11.8-5.9,17ZM833.5,510.7c-4.8.3-9.7.5-14.6.7h0c.8-5.5,1.2-11.2,1.2-17.1h15.1c0,5.6-.6,11.1-1.7,16.4h0ZM820.1,493.5c0-5.9-.4-11.6-1.2-17.1h0c4.9.2,9.8.4,14.6.7,1.1,5.3,1.7,10.8,1.7,16.4h-15.1ZM848.9,477.4c-4.8-.4-9.8-.7-14.7-1,0,0,0,0,0,0-1.3-6-3.2-11.7-5.8-17,0,0,0,0,0,0,4.5.5,9,1,13.4,1.6,3.1,5,5.5,10.5,7.1,16.4ZM841.2,460.2c-4.4-.6-8.8-1.2-13.3-1.6h0c-1.7-3.5-3.8-6.7-6-9.8-2.5-3.3-5.2-6.2-8.1-8.7h0c2.9.3,5.7.6,8.5,1,7.6,4.9,14,11.5,18.8,19.1ZM799.6,431.9c7.6,1.4,14.7,4.2,21.1,8.1-2.7-.3-5.3-.6-8-.9h0c-4.1-3.3-8.5-5.7-13.1-7.2,0,0,0,0,0,0ZM776.3,431.9c-4.6,1.5-9,4-13.1,7.2h0c-2.7.3-5.4.5-8,.9,6.4-3.9,13.5-6.7,21.1-8.1ZM753.5,441.1h0c2.8-.4,5.7-.7,8.5-1,0,0,0,0,0,0-2.9,2.5-5.6,5.4-8.1,8.7-2.3,3-4.3,6.3-6,9.8-4.5.5-8.9,1-13.3,1.6,4.8-7.6,11.3-14.1,18.8-19.1ZM734.1,461.1h0c4.4-.6,8.9-1.2,13.4-1.6,0,0,0,0,0,0-2.5,5.3-4.5,11-5.8,17,0,0,0,0,0,0-4.9.3-9.9.6-14.7,1,1.6-5.8,4-11.3,7.1-16.4ZM726.8,478.2c4.9-.4,9.8-.7,14.8-1,0,0,0,0,0,0-1.1,5.3-1.6,10.7-1.7,16.3h-15.1c0-5.3.7-10.4,2-15.3ZM724.9,494.3h15.1c0,5.6.6,11.1,1.7,16.3h0c-5-.3-9.9-.6-14.8-1-1.3-4.9-1.9-10-2-15.3ZM727.1,510.4c4.8.4,9.8.7,14.7,1,0,0,0,0,0,0,1.3,6,3.2,11.7,5.8,17h0c-4.5-.5-9-1-13.4-1.6-3.1-5-5.5-10.5-7.1-16.4ZM734.7,527.7c4.4.6,8.8,1.2,13.3,1.6,1.7,3.5,3.8,6.7,6,9.8,2.5,3.3,5.2,6.2,8.1,8.7,0,0,0,0,0,0-2.9-.3-5.7-.6-8.5-1-7.6-4.9-14-11.5-18.8-19.1ZM755.2,547.8c2.7.3,5.3.6,8,.9h0s0,0,0,0c4.1,3.3,8.5,5.7,13.1,7.2,0,0,0,0,0,0-7.6-1.4-14.7-4.2-21.1-8.1ZM799.6,555.9s0,0,0,0c0,0,0,0,0,0,4.6-1.5,9-4,13.1-7.2,0,0,0,0,0,0h0c2.7-.3,5.3-.5,8-.9-6.4,3.9-13.5,6.7-21.1,8.1ZM822.4,546.8h0c-2.8.4-5.7.7-8.5,1,0,0,0,0,0,0,2.9-2.5,5.6-5.4,8.1-8.7,2.3-3,4.3-6.3,6-9.8,4.5-.5,8.9-1,13.3-1.6-4.8,7.6-11.3,14.1-18.8,19.1ZM841.8,526.8c-4.4.6-8.9,1.2-13.4,1.6,0,0,0,0,0,0,2.5-5.3,4.5-11,5.8-17,0,0,0,0,0,0,4.9-.3,9.9-.6,14.7-1-1.6,5.8-4,11.3-7.1,16.4ZM849.1,509.6c-4.9.4-9.8.7-14.8,1,0,0,0,0,0,0,1.1-5.3,1.6-10.7,1.7-16.3h15.1c0,5.3-.7,10.4-2,15.3Z"/>
      <path d="M1319.4,523.4v-22.6c2.6-.6,4.7-2.7,5.3-5.3h22.6c-.8,15-12.9,27.1-27.9,27.9h0ZM1288.3,495.5h22.6c.6,2.6,2.7,4.7,5.3,5.3v22.6c-15-.8-27.1-12.9-27.9-27.9h0ZM1316.2,464.5v22.6c-2.6.6-4.7,2.7-5.3,5.3h-22.6c.8-15,12.9-27.1,27.9-27.9h0ZM1347.2,492.3h-22.6c-.6-2.6-2.7-4.7-5.3-5.3v-22.6c15,.8,27.1,12.9,27.9,27.9h0ZM1381.7,492.3h-31.8c-.8-16.5-14-29.7-30.5-30.5v-31.8h-3.2v31.8c-16.5.8-29.7,14-30.5,30.5h-31.8v3.2h31.8c.8,16.5,14,29.7,30.5,30.5v31.8h3.2v-31.8c16.5-.8,29.7-14,30.5-30.5h31.8v-3.2Z"/>
      <path d="M1076.1,491.4c-6.2-4-14.5-6.2-23.3-6.2s-17,2.2-23.3,6.2c-.1,0-.3.2-.4.3-4.2-3.3-6.6-7.4-6.6-11.7s2.5-8.7,7-12.1c6.2,4,14.5,6.2,23.2,6.2s17-2.2,23.2-6.2c4.5,3.4,7,7.6,7,12.1s-2.3,8.4-6.6,11.7c-.1,0-.3-.2-.4-.3h0ZM1032,493.5c5.7-3.4,13-5.3,20.9-5.3s15.2,1.9,20.9,5.3c-5.7,3.4-13,5.3-20.9,5.3s-15.2-1.9-20.9-5.3h0ZM1083.1,507.1c0,4.6-2.7,9-7.6,12.5-6.2-3.8-14.1-5.8-22.6-5.8s-16.4,2.1-22.6,5.8c-4.9-3.5-7.6-7.9-7.6-12.5s2.3-8.4,6.6-11.7c.1,0,.3.2.4.3,6.2,4,14.5,6.2,23.3,6.2s17-2.2,23.3-6.2c.1,0,.3-.2.4-.3,4.2,3.3,6.6,7.4,6.6,11.7h0ZM1033.2,521.5c5.5-3,12.3-4.6,19.6-4.6s14.1,1.6,19.6,4.6c-5.5,3-12.3,4.6-19.6,4.6s-14.1-1.6-19.6-4.6h0ZM1083.1,535.8c0,4.9-3.1,9.6-8.6,13.2-5.7,3.7-13.4,5.8-21.6,5.8s-15.9-2-21.6-5.8c-5.5-3.6-8.6-8.3-8.6-13.2s2.7-9,7.6-12.5c6.2,3.8,14.1,5.8,22.6,5.8s16.4-2.1,22.6-5.8c4.9,3.5,7.6,7.9,7.6,12.5ZM1073.2,466c-5.6,3.2-12.8,5-20.4,5s-14.8-1.8-20.4-5c5.6-3.2,12.8-5,20.4-5s14.8,1.8,20.4,5ZM1022.7,452c0-4.9,3.1-9.6,8.6-13.2,5.7-3.7,13.4-5.8,21.6-5.8s15.9,2,21.6,5.8c5.5,3.6,8.6,8.3,8.6,13.2s-2.5,8.7-7,12.1c-6.2-4-14.5-6.2-23.2-6.2s-17,2.2-23.2,6.2c-4.5-3.4-7-7.6-7-12.1h0ZM1086.1,479.9c0-5.2-2.6-10-7.5-13.9,4.8-3.9,7.5-8.8,7.5-13.9s-3.5-11.6-10-15.8c-6.2-4-14.5-6.2-23.3-6.2s-17,2.2-23.3,6.2c-6.4,4.2-10,9.8-10,15.8s2.6,10,7.5,13.9c-4.8,3.9-7.5,8.8-7.5,13.9s2.5,9.8,7.1,13.6c-4.6,3.8-7.1,8.6-7.1,13.6s2.8,10.4,8,14.4c-5.2,4-8,9-8,14.4s3.5,11.6,10,15.8c6.2,4,14.5,6.2,23.3,6.2s17-2.2,23.3-6.2c6.4-4.2,10-9.8,10-15.8s-2.8-10.4-8-14.4c5.2-4,8-9,8-14.4s-2.5-9.8-7.1-13.6c4.6-3.9,7.1-8.6,7.1-13.6h0Z"/>
      <path d="M1620.4,750.1v-71.8h-24.9v71.8h24.9ZM1583.4,750.1v-71.8h-24.9v71.8h24.9ZM1641.6,750.1v-71.8h-2.6v71.8h2.6ZM1635.1,750.1v-71.8h-2.6v71.8h2.6ZM1628.6,750.1v-71.8h-4.3v71.8h4.3ZM1591.6,750.1v-71.8h-4.3v71.8h4.3ZM1554.6,750.1v-71.8h-4.3v71.8h4.3ZM1545.4,750.1v-71.8h-2.4v71.8h2.4ZM1512.6,750.1v-71.8h-4.3v71.8h4.3ZM1538.1,750.1v-71.8h-4.3v71.8h4.3ZM1658.9,750.1v-71.8h-13.4v71.8h13.4ZM1516.5,750.1v-71.8h13.4v71.8h-13.4Z"/>
      <path d="M542.8,464c2.4,5.2,4.2,11.3,5.2,18h-13.9c-.3-5.6-.9-11-1.6-15.9,3.5-.4,7-1.1,10.3-2.1ZM548.2,504c.4-3.3.6-6.6.6-10.1s-.2-6.9-.6-10.1h-14.1c.2,3.3.2,6.7.2,10.1s0,6.8-.2,10.1h14.1ZM563.7,482c-2-8.3-6-15.6-11.4-21.4-2.5,1.1-5.1,2.1-7.8,2.9,2.5,5.3,4.3,11.6,5.3,18.5h13.9ZM523.1,466.7c-2.5,0-5.1-.1-7.6-.4-.7,4.6-1.3,9.9-1.6,15.7h18.4c-.3-5.9-.9-11.1-1.6-15.7-2.5.3-5.1.4-7.6.4ZM557,456.2c-5.1-2.9-10.7-5.2-16.8-6.7,4.6,2.2,8.8,5.2,12.5,8.9,1.5-.7,2.9-1.4,4.3-2.2ZM565.1,493.9c0-3.5-.4-6.9-1-10.1h-14c.4,3.3.6,6.6.6,10.1s-.2,6.9-.6,10.1h14c.7-3.3,1-6.6,1-10.1ZM563.7,505.8h-13.9c-1,6.9-2.8,13.1-5.3,18.5,2.7.8,5.3,1.8,7.8,2.9,5.4-5.8,9.4-13.1,11.4-21.4ZM543.6,461.9c2.5-.8,4.9-1.7,7.3-2.7-5.1-5-11.4-8.7-18.2-10.5,4.3,2.8,8,7.3,11,13.2ZM548,505.8h-13.9c-.3,5.6-.9,11-1.6,15.9,3.5.4,7,1.1,10.3,2.1,2.4-5.2,4.2-11.3,5.2-18ZM530.6,521.5c.7-4.6,1.3-9.9,1.6-15.7h-18.4c.3,5.9.9,11.1,1.6,15.7,5-.5,10.1-.5,15.2,0ZM532.6,493.9c0-3.5,0-6.9-.2-10.1h-18.6c-.2,3.2-.2,6.6-.2,10.1s0,6.9.2,10.1h18.6c.2-3.2.2-6.6.2-10.1ZM565.5,482h13.8c-3.3-10-10.7-18.6-20.6-24.8-1.5.9-3.1,1.8-4.7,2.6,5.5,6,9.5,13.7,11.5,22.2ZM497.9,483.8c-.4,3.3-.6,6.6-.6,10.1s.2,6.9.6,10.1h14.1c-.2-3.3-.2-6.7-.2-10.1s0-6.8.2-10.1h-14.1ZM481.1,493.9c0,3.5.4,6.9,1,10.1h14c-.4-3.3-.6-6.6-.6-10.1s.2-6.9.6-10.1h-14c-.7,3.3-1,6.6-1,10.1ZM513.7,466.1c-3.5-.4-7-1.1-10.3-2.1-2.4,5.2-4.2,11.3-5.2,18h13.9c.3-5.6.9-11,1.6-15.9ZM501.7,524.3c-2.5-5.3-4.3-11.6-5.3-18.5h-13.9c2,8.3,6,15.6,11.4,21.4,2.5-1.1,5.1-2.1,7.8-2.9ZM513.7,521.8c-.8-4.9-1.3-10.3-1.6-15.9h-13.9c1,6.7,2.8,12.8,5.2,18,3.3-.9,6.8-1.6,10.3-2.1ZM482.5,482h13.9c1-6.9,2.8-13.1,5.3-18.5-2.7-.8-5.3-1.8-7.8-2.9-5.4,5.8-9.4,13.1-11.4,21.4ZM502.5,525.9c-2.5.8-4.9,1.6-7.3,2.7,5.1,5,11.4,8.7,18.3,10.5-4.3-2.8-8-7.3-11-13.2ZM540.2,538.3c6.1-1.5,11.7-3.8,16.8-6.7-1.4-.8-2.8-1.5-4.3-2.2-3.7,3.7-7.9,6.7-12.5,8.9ZM504.2,525.5c3.9,7.6,9.3,12.9,15.2,14.4-2.3-3.1-4.1-9-5.4-16.4-3.4.4-6.7,1.1-9.8,1.9ZM543.6,525.9c-3,5.8-6.7,10.4-11,13.2,6.9-1.8,13.1-5.5,18.2-10.5-2.3-1-4.8-1.9-7.3-2.7ZM515.8,523.3c1.9,10.7,4.7,17,7.3,17s5.4-6.4,7.3-17c-4.8-.5-9.7-.5-14.6,0ZM542,525.5c-3.2-.9-6.5-1.5-9.8-1.9-1.3,7.4-3.1,13.3-5.4,16.4,6-1.5,11.3-6.8,15.2-14.4ZM542,462.4c-3.9-7.6-9.3-12.9-15.2-14.4,2.3,3.1,4.1,9,5.4,16.4,3.4-.4,6.7-1.1,9.8-1.9ZM554,528c1.6.8,3.2,1.6,4.7,2.6,9.9-6.2,17.3-14.8,20.6-24.8h-13.8c-2,8.5-6,16.2-11.5,22.2ZM579.9,483.8h-14c.6,3.3,1,6.6,1,10.1s-.3,6.9-1,10.1h14c.9-3.3,1.4-6.6,1.4-10.1s-.5-6.9-1.4-10.1ZM587,493.9c0,28.7-28.7,52.1-63.9,52.1s-63.9-23.4-63.9-52.1,28.7-52.1,63.9-52.1,63.9,23.4,63.9,52.1ZM583.1,493.9c0-26.6-26.9-48.2-60-48.2s-60,21.6-60,48.2,26.9,48.2,60,48.2,60-21.6,60-48.2ZM504.2,462.4c3.2.9,6.5,1.5,9.8,1.9,1.3-7.4,3.1-13.3,5.4-16.4-6,1.5-11.3,6.8-15.2,14.4ZM505.9,449.6c-6.1,1.5-11.7,3.8-16.8,6.7,1.4.8,2.8,1.5,4.3,2.2,3.7-3.7,7.9-6.7,12.5-8.9ZM502.5,461.9c3-5.8,6.7-10.4,11-13.2-6.9,1.8-13.1,5.5-18.2,10.5,2.4,1,4.8,1.9,7.3,2.7ZM530.3,464.5c-1.9-10.7-4.7-17-7.3-17s-5.4,6.4-7.3,17c4.8.5,9.7.5,14.6,0ZM480.6,505.8h-13.8c3.3,10,10.7,18.6,20.6,24.8,1.5-.9,3.1-1.8,4.7-2.6-5.5-6-9.5-13.7-11.5-22.2ZM492.1,459.8c-1.6-.8-3.2-1.7-4.7-2.6-9.9,6.2-17.3,14.8-20.6,24.8h13.8c2-8.5,6-16.2,11.5-22.2ZM489.1,531.6c5.1,2.9,10.7,5.2,16.8,6.7-4.6-2.2-8.8-5.2-12.5-8.9-1.5.7-2.9,1.4-4.3,2.2ZM479.3,493.9c0-3.5.3-6.9,1-10.1h-14c-.9,3.3-1.4,6.6-1.4,10.1s.5,6.9,1.4,10.1h14c-.6-3.3-1-6.6-1-10.1Z"/>
      <path d="M1083.7,681.4c-5.6,0-11,1.4-15.8,4.1-4.8-2.7-10.3-4.1-15.9-4.1s-11,1.4-15.8,4.1c-4.7-2.6-10.1-4.1-15.9-4.1-18.1,0-32.8,14.7-32.8,32.8s14.7,32.8,32.8,32.8,11.1-1.5,15.9-4.1c4.8,2.7,10.3,4.1,15.8,4.1s11-1.4,15.9-4.1c4.8,2.7,10.3,4.1,15.8,4.1,18.1,0,32.8-14.7,32.8-32.8s-14.7-32.8-32.8-32.8ZM989.8,714.2c0-16.9,13.7-30.6,30.6-30.6s30.6,13.7,30.6,30.6-13.7,30.6-30.6,30.6-30.6-13.7-30.6-30.6ZM1038.4,741.6c8.9-5.9,14.7-15.9,14.7-27.4s-5.9-21.5-14.7-27.4c4.2-2.1,8.9-3.2,13.6-3.2s10.7,1.4,15.3,4.1c9.4,5.4,15.3,15.6,15.3,26.5s-5.9,21-15.3,26.5c-4.6,2.7-9.9,4.1-15.3,4.1s-9.4-1.1-13.6-3.2ZM1083.7,744.8c-4.7,0-9.4-1.1-13.6-3.2,9.1-6,14.7-16.3,14.7-27.4s-5.6-21.3-14.7-27.4c4.2-2.1,8.9-3.2,13.6-3.2,16.9,0,30.6,13.7,30.6,30.6s-13.7,30.6-30.6,30.6Z"/>
      <path d="M786.2,662.4c-35.6,0-64.5,23.2-64.5,51.8s28.9,51.8,64.5,51.8,64.5-23.2,64.5-51.8-28.9-51.8-64.5-51.8ZM846.7,701.4h-14.9c-2.1-9.2-6.5-17.4-12.4-23.9,1.7-.8,3.4-1.8,5.1-2.7,10.7,6.6,18.6,15.9,22.2,26.6ZM776.2,725.1c-.2-3.5-.3-7.1-.3-10.9s0-7.4.3-10.9h20c.2,3.5.3,7.1.3,10.9s0,7.4-.3,10.9h-20ZM796.1,727c-.4,6.3-1,12-1.8,16.9-5.4-.5-10.9-.5-16.3,0-.8-4.9-1.4-10.6-1.8-16.9h19.8ZM774.3,725.1h-15.1c-.4-3.5-.7-7.1-.7-10.9s.2-7.4.7-10.9h15.1c-.2,3.6-.3,7.3-.3,10.9s0,7.3.3,10.9ZM759.5,701.4c1.1-7.2,3-13.8,5.6-19.3,3.6,1,7.3,1.7,11.1,2.2-.8,5.2-1.4,11.1-1.8,17.1h-14.9ZM757.5,701.4h-14.9c2.1-8.9,6.4-16.8,12.2-23,2.7,1.2,5.5,2.3,8.4,3.1-2.7,5.7-4.7,12.5-5.7,19.9ZM757.3,703.4c-.4,3.5-.7,7.1-.7,10.9s.2,7.4.7,10.9h-15.1c-.7-3.5-1.1-7.1-1.1-10.9s.4-7.4,1.1-10.9h15.1ZM757.5,727c1.1,7.4,3.1,14.1,5.7,19.9-2.9.9-5.7,1.9-8.4,3.1-5.8-6.2-10.1-14.1-12.2-23h14.9ZM759.5,727h14.9c.3,6,.9,11.9,1.8,17.1-3.8.5-7.5,1.2-11.1,2.2-2.6-5.5-4.5-12.1-5.6-19.3ZM776.3,701.4c.4-6.3,1-12,1.8-16.9,2.7.3,5.4.4,8.1.4s5.4-.1,8.1-.4c.8,4.9,1.4,10.6,1.8,16.9h-19.8ZM798.2,703.4h15.1c.4,3.5.7,7.1.7,10.9s-.2,7.4-.7,10.9h-15.1c.2-3.6.3-7.3.3-10.9s0-7.3-.3-10.9ZM809.2,681.6c2.9-.9,5.7-1.9,8.4-3.1,5.8,6.2,10.1,14.1,12.2,23h-14.9c-1.1-7.4-3.1-14.1-5.7-19.9ZM813,701.4h-14.9c-.3-6-.9-11.9-1.8-17.1,3.8-.5,7.5-1.2,11.1-2.2,2.6,5.5,4.5,12.1,5.6,19.3ZM798.1,727h14.9c-1.1,7.2-3,13.8-5.6,19.3-3.6-1-7.3-1.7-11.1-2.2.8-5.2,1.4-11.1,1.8-17.1ZM814.9,727h14.9c-2.1,8.9-6.4,16.8-12.2,23-2.7-1.2-5.5-2.3-8.4-3.1,2.7-5.7,4.7-12.5,5.7-19.9ZM815.2,725.1c.4-3.5.7-7.1.7-10.9s-.2-7.4-.7-10.9h15.1c.7,3.5,1.1,7.1,1.1,10.9s-.4,7.4-1.1,10.9h-15.1ZM822.7,673.7c-1.5.9-3,1.7-4.6,2.4-3.9-4-8.5-7.2-13.4-9.6,6.5,1.6,12.6,4,18,7.2ZM816.2,677c-2.5,1.1-5.1,2.1-7.8,2.9-3.2-6.3-7.2-11.2-11.8-14.1,7.4,1.9,14.1,5.9,19.6,11.3ZM806.5,680.3c-3.4.9-7,1.6-10.6,2.1-1.4-7.9-3.3-14.3-5.8-17.6,6.4,1.6,12.2,7.3,16.4,15.5ZM786.2,664.3c2.8,0,5.8,6.9,7.8,18.3-5.2.5-10.5.5-15.6,0,2-11.4,5-18.3,7.8-18.3ZM776.5,682.4c-3.6-.5-7.2-1.2-10.6-2.1,4.2-8.2,10-13.8,16.4-15.5-2.5,3.3-4.4,9.6-5.8,17.6ZM764.1,679.8c-2.7-.8-5.3-1.8-7.8-2.9,5.5-5.4,12.2-9.3,19.6-11.3-4.6,3-8.6,7.9-11.8,14.1ZM767.8,666.6c-5,2.3-9.5,5.6-13.4,9.6-1.6-.8-3.1-1.6-4.6-2.4,5.4-3.1,11.5-5.5,18-7.2ZM747.9,674.8c1.6,1,3.3,1.9,5.1,2.7-5.9,6.5-10.3,14.7-12.4,23.9h-14.9c3.6-10.7,11.5-20,22.2-26.6ZM723.7,714.2c0-3.7.5-7.4,1.5-10.9h15.1c-.7,3.5-1.1,7.1-1.1,10.9s.4,7.4,1.1,10.9h-15.1c-1-3.5-1.5-7.1-1.5-10.9ZM725.8,727h14.9c2.1,9.2,6.5,17.4,12.4,23.9-1.8.9-3.5,1.8-5.1,2.7-10.7-6.6-18.6-15.9-22.2-26.6ZM749.8,754.8c1.5-.8,3-1.7,4.6-2.4,3.9,4,8.5,7.2,13.4,9.6-6.5-1.6-12.6-4-18-7.2ZM756.3,751.5c2.5-1.1,5.2-2.1,7.8-2.9,3.2,6.3,7.2,11.2,11.8,14.1-7.4-1.9-14.1-5.9-19.6-11.3ZM765.9,748.1c3.4-.9,7-1.6,10.6-2.1,1.4,7.9,3.3,14.3,5.8,17.6-6.4-1.6-12.2-7.3-16.4-15.5ZM786.2,764.1c-2.8,0-5.8-6.9-7.8-18.3,5.2-.5,10.5-.5,15.6,0-2,11.4-5,18.3-7.8,18.3ZM796,746c3.6.5,7.1,1.2,10.6,2.1-4.2,8.2-10,13.8-16.4,15.5,2.5-3.3,4.4-9.6,5.8-17.6ZM808.4,748.6c2.7.8,5.3,1.8,7.8,2.9-5.5,5.4-12.2,9.3-19.6,11.3,4.6-3,8.6-7.9,11.8-14.1ZM804.6,761.9c5-2.3,9.5-5.6,13.4-9.6,1.6.7,3.1,1.5,4.6,2.4-5.4,3.1-11.5,5.5-18,7.2ZM824.6,753.6c-1.7-1-3.4-1.9-5.1-2.7,5.9-6.5,10.3-14.7,12.4-23.9h14.9c-3.6,10.7-11.5,20-22.2,26.6ZM832.2,725.1c.7-3.5,1.1-7.1,1.1-10.9s-.4-7.4-1.1-10.9h15.1c1,3.5,1.5,7.1,1.5,10.9s-.5,7.4-1.5,10.9h-15.1Z"/>
      <path d="M1675.8,487l4.8-14.1h-14.1l-4.8,14.1h-13.9l4.7-14.1h-14.1l-4.7,14.1h-13.9l4.7-14.1h-14.1l-4.7,14.1h-13.9l4.6-14.1h-14.1l-4.6,14.1h-13.9l4.6-14.1h-14.1l-4.6,14.1h-13.9l4.5-14.1h-14.1l-4.5,14.1h-13.9l4.5-14.1h-14.1l-4.5,14.1h14l-4.5,14h-14l-4.4,14h14l4.5-14h13.9l-4.5,14h14l4.5-14h13.9l-4.5,14h14l4.6-14h13.9l-4.6,14h14l4.6-14h13.9l-4.6,14h14l4.7-14h13.9l-4.7,14h14l4.7-14h13.9l-4.7,14h14l4.8-14h-14l4.7-14h14ZM1531.1,501h-13.9l4.5-14h13.9l-4.5,14ZM1559.1,501h-13.9l4.5-14h13.9l-4.6,14ZM1587.1,501h-13.9l4.6-14h13.9l-4.6,14ZM1615,501h-13.9l4.6-14h13.9l-4.7,14ZM1643,501h-13.9l4.7-14h13.9l-4.7,14Z"/>
    </g>
    <path class="st15" d="M104.6,110.2v-12.9c1.5-.3,2.7-1.5,3-3h12.9c-.5,8.5-7.3,15.4-15.9,15.9h0ZM86.9,94.4h12.9c.3,1.5,1.5,2.7,3,3v12.9c-8.5-.5-15.4-7.3-15.9-15.9h0ZM102.8,76.7v12.9c-1.5.3-2.7,1.5-3,3h-12.9c.5-8.5,7.3-15.4,15.9-15.9h0ZM120.5,92.6h-12.9c-.3-1.5-1.5-2.7-3-3v-12.9c8.5.5,15.4,7.3,15.9,15.9h0ZM140.1,92.6h-18.1c-.5-9.4-8-16.9-17.4-17.4v-18.1h-1.8v18.1c-9.4.5-16.9,8-17.4,17.4h-18.1v1.8h18.1c.5,9.4,8,16.9,17.4,17.4v18.1h1.8v-18.1c9.4-.5,16.9-8,17.4-17.4h18.1v-1.8Z"/>
    <g>
      <g>
        <g>
          <line class="st3" x1="1789.9" y1="604.4" x2="1808.1" y2="604.4"/>
          <line class="st3" x1="1789.9" y1="595.5" x2="1808.1" y2="595.5"/>
          <line class="st3" x1="1789.9" y1="586.5" x2="1808.1" y2="586.5"/>
          <line class="st3" x1="1789.9" y1="577.6" x2="1808.1" y2="577.6"/>
          <line class="st3" x1="1789.9" y1="568.7" x2="1808.1" y2="568.7"/>
          <line class="st3" x1="1789.9" y1="559.7" x2="1808.1" y2="559.7"/>
        </g>
        <g>
          <line class="st3" x1="1789.9" y1="559.7" x2="1808.1" y2="559.7"/>
          <line class="st3" x1="1789.9" y1="550.8" x2="1808.1" y2="550.8"/>
          <line class="st3" x1="1789.9" y1="541.9" x2="1808.1" y2="541.9"/>
          <line class="st3" x1="1789.9" y1="533" x2="1808.1" y2="533"/>
          <line class="st3" x1="1789.9" y1="524" x2="1808.1" y2="524"/>
          <line class="st3" x1="1789.9" y1="515.1" x2="1808.1" y2="515.1"/>
        </g>
        <g>
          <line class="st3" x1="1789.9" y1="515.1" x2="1808.1" y2="515.1"/>
          <line class="st3" x1="1789.9" y1="506.2" x2="1808.1" y2="506.2"/>
          <line class="st3" x1="1789.9" y1="497.3" x2="1808.1" y2="497.3"/>
          <line class="st3" x1="1789.9" y1="488.3" x2="1808.1" y2="488.3"/>
          <line class="st3" x1="1789.9" y1="479.4" x2="1808.1" y2="479.4"/>
          <line class="st3" x1="1789.9" y1="470.5" x2="1808.1" y2="470.5"/>
        </g>
        <g>
          <line class="st3" x1="1789.9" y1="470.5" x2="1808.1" y2="470.5"/>
          <line class="st3" x1="1789.9" y1="461.6" x2="1808.1" y2="461.6"/>
          <line class="st3" x1="1789.9" y1="452.6" x2="1808.1" y2="452.6"/>
          <line class="st3" x1="1789.9" y1="443.7" x2="1808.1" y2="443.7"/>
          <line class="st3" x1="1789.9" y1="434.8" x2="1808.1" y2="434.8"/>
          <line class="st3" x1="1789.9" y1="425.9" x2="1808.1" y2="425.9"/>
        </g>
        <line class="st8" x1="1776.9" y1="604.4" x2="1808.1" y2="604.4"/>
        <line class="st8" x1="1776.9" y1="559.7" x2="1808.1" y2="559.7"/>
        <line class="st8" x1="1776.9" y1="515.1" x2="1808.1" y2="515.1"/>
        <line class="st8" x1="1776.9" y1="470.5" x2="1808.1" y2="470.5"/>
        <line class="st8" x1="1776.9" y1="425.9" x2="1808.1" y2="425.9"/>
      </g>
      <g>
        <g>
          <line class="st3" x1="1789.9" y1="604.4" x2="1808.1" y2="604.4"/>
          <line class="st3" x1="1789.9" y1="613.3" x2="1808.1" y2="613.3"/>
          <line class="st3" x1="1789.9" y1="622.2" x2="1808.1" y2="622.2"/>
          <line class="st3" x1="1789.9" y1="631.2" x2="1808.1" y2="631.2"/>
          <line class="st3" x1="1789.9" y1="640.1" x2="1808.1" y2="640.1"/>
          <line class="st3" x1="1789.9" y1="649" x2="1808.1" y2="649"/>
        </g>
        <g>
          <line class="st3" x1="1789.9" y1="649" x2="1808.1" y2="649"/>
          <line class="st3" x1="1789.9" y1="657.9" x2="1808.1" y2="657.9"/>
          <line class="st3" x1="1789.9" y1="666.9" x2="1808.1" y2="666.9"/>
          <line class="st3" x1="1789.9" y1="675.8" x2="1808.1" y2="675.8"/>
          <line class="st3" x1="1789.9" y1="684.7" x2="1808.1" y2="684.7"/>
          <line class="st3" x1="1789.9" y1="693.6" x2="1808.1" y2="693.6"/>
        </g>
        <g>
          <line class="st3" x1="1789.9" y1="693.6" x2="1808.1" y2="693.6"/>
          <line class="st3" x1="1789.9" y1="702.6" x2="1808.1" y2="702.6"/>
          <line class="st3" x1="1789.9" y1="711.5" x2="1808.1" y2="711.5"/>
          <line class="st3" x1="1789.9" y1="720.4" x2="1808.1" y2="720.4"/>
          <line class="st3" x1="1789.9" y1="729.3" x2="1808.1" y2="729.3"/>
          <line class="st3" x1="1789.9" y1="738.3" x2="1808.1" y2="738.3"/>
        </g>
        <g>
          <line class="st3" x1="1789.9" y1="738.3" x2="1808.1" y2="738.3"/>
          <line class="st3" x1="1789.9" y1="747.2" x2="1808.1" y2="747.2"/>
          <line class="st3" x1="1789.9" y1="756.1" x2="1808.1" y2="756.1"/>
          <line class="st3" x1="1789.9" y1="765" x2="1808.1" y2="765"/>
          <line class="st3" x1="1789.9" y1="774" x2="1808.1" y2="774"/>
          <line class="st3" x1="1789.9" y1="782.9" x2="1808.1" y2="782.9"/>
        </g>
        <line class="st8" x1="1776.9" y1="604.4" x2="1808.1" y2="604.4"/>
        <line class="st8" x1="1776.9" y1="649" x2="1808.1" y2="649"/>
        <line class="st8" x1="1776.9" y1="693.6" x2="1808.1" y2="693.6"/>
        <line class="st8" x1="1776.9" y1="738.3" x2="1808.1" y2="738.3"/>
        <line class="st8" x1="1776.9" y1="782.9" x2="1808.1" y2="782.9"/>
      </g>
    </g>
  </g>
</svg>