<?xml version="1.0" encoding="UTF-8"?>
<svg xmlns="http://www.w3.org/2000/svg" version="1.1" viewBox="0 0 1920 1080">
  <!-- Generator: Adobe Illustrator 29.3.1, SVG Export Plug-In . SVG Version: 2.1.0 Build 151)  -->
  <defs>
    <style>
      .st0 {
        stroke-width: 2px;
      }

      .st0, .st1 {
        stroke: #212223;
      }

      .st0, .st1, .st2, .st3, .st4 {
        fill: none;
        stroke-miterlimit: 10;
      }

      .st5 {
        fill: #001436;
      }

      .st5, .st6 {
        font-size: 42px;
      }

      .st5, .st6, .st7 {
        letter-spacing: 0em;
      }

      .st5, .st6, .st7, .st8 {
        font-family: Roboto-Regular, Roboto;
      }

      .st6, .st9, .st8 {
        fill: #0019aa;
      }

      .st10 {
        fill: #212223;
      }

      .st11 {
        fill: #a5a5a5;
      }

      .st1 {
        stroke-width: 2.9px;
      }

      .st12 {
        fill: #d4d4d4;
      }

      .st2 {
        stroke-width: .7px;
      }

      .st2, .st3, .st4 {
        stroke: #a5a5a5;
      }

      .st3 {
        stroke-width: .6px;
      }

      .st4 {
        stroke-width: .5px;
      }

      .st7 {
        font-size: 28px;
      }

      .st13 {
        fill: #132ea3;
      }

      .st8 {
        font-size: 10px;
        letter-spacing: 0em;
      }
    </style>
  </defs>
  <g id="Capa_4">
    <rect class="st12" width="1920" height="1080"/>
    <g>
      <path class="st9" d="M917.6,76.5h4.7v1.1h-6v-10h1.3v8.9Z"/>
      <path class="st9" d="M928.5,77.6c0-.1-.1-.4-.2-.8-.6.6-1.3.9-2.1.9s-1.3-.2-1.8-.6c-.5-.4-.7-.9-.7-1.6s.3-1.4.9-1.8c.6-.4,1.4-.6,2.5-.6h1.2v-.6c0-.4-.1-.8-.4-1.1-.3-.3-.7-.4-1.2-.4s-.8.1-1.1.3c-.3.2-.5.5-.5.8h-1.3c0-.4.1-.7.4-1.1.3-.3.6-.6,1.1-.8.4-.2.9-.3,1.5-.3.9,0,1.5.2,2,.6.5.4.7,1,.8,1.8v3.4c0,.7,0,1.2.3,1.6h0c0,.1-1.3.1-1.3.1ZM926.4,76.6c.4,0,.8-.1,1.1-.3s.6-.5.8-.8v-1.5h-1c-1.5,0-2.3.5-2.3,1.4s.1.7.4.9c.3.2.6.3,1,.3Z"/>
      <path class="st9" d="M936.8,70.2v.8c.6-.6,1.3-1,2.2-1s1.7.4,2.1,1.2c.2-.4.6-.6,1-.9s.9-.3,1.4-.3c1.6,0,2.4.9,2.5,2.6v5h-1.3v-4.9c0-.5-.1-.9-.4-1.2-.2-.3-.6-.4-1.2-.4s-.9.1-1.2.4c-.3.3-.5.7-.5,1.1v4.9h-1.3v-4.8c0-1.1-.5-1.6-1.6-1.6s-1.4.4-1.7,1.1v5.4h-1.3v-7.4h1.2Z"/>
      <path class="st9" d="M952.6,77.6c0-.1-.1-.4-.2-.8-.6.6-1.3.9-2.1.9s-1.3-.2-1.8-.6c-.5-.4-.7-.9-.7-1.6s.3-1.4.9-1.8c.6-.4,1.4-.6,2.5-.6h1.2v-.6c0-.4-.1-.8-.4-1.1-.3-.3-.7-.4-1.2-.4s-.8.1-1.1.3c-.3.2-.5.5-.5.8h-1.3c0-.4.1-.7.4-1.1.3-.3.6-.6,1.1-.8.4-.2.9-.3,1.5-.3.9,0,1.5.2,2,.6.5.4.7,1,.8,1.8v3.4c0,.7,0,1.2.3,1.6h0c0,.1-1.3.1-1.3.1ZM950.5,76.6c.4,0,.8-.1,1.1-.3s.6-.5.8-.8v-1.5h-1c-1.5,0-2.3.5-2.3,1.4s.1.7.4.9c.3.2.6.3,1,.3Z"/>
      <path class="st9" d="M959.5,71.3c-.2,0-.4,0-.6,0-.8,0-1.4.4-1.7,1.1v5.2h-1.3v-7.4h1.2v.9c.4-.7,1-1,1.8-1s.4,0,.6,0v1.2Z"/>
      <path class="st9" d="M963.8,76.7c.5,0,.8-.1,1.2-.4.3-.3.5-.6.6-1h1.2c0,.4-.2.8-.4,1.2-.3.4-.6.7-1.1.9-.4.2-.9.3-1.4.3-1,0-1.8-.3-2.4-1-.6-.7-.9-1.6-.9-2.8v-.2c0-.7.1-1.4.4-1.9.3-.6.6-1,1.1-1.3.5-.3,1.1-.5,1.8-.5s1.5.2,2.1.7c.5.5.8,1.1.9,1.9h-1.2c0-.5-.2-.9-.5-1.2s-.7-.5-1.2-.5-1.1.2-1.5.7c-.4.5-.5,1.1-.5,2v.2c0,.9.2,1.5.5,2,.4.5.9.7,1.5.7Z"/>
      <path class="st9" d="M973,77.6c0-.1-.1-.4-.2-.8-.6.6-1.3.9-2.1.9s-1.3-.2-1.8-.6c-.5-.4-.7-.9-.7-1.6s.3-1.4.9-1.8c.6-.4,1.4-.6,2.5-.6h1.2v-.6c0-.4-.1-.8-.4-1.1-.3-.3-.7-.4-1.2-.4s-.8.1-1.1.3c-.3.2-.5.5-.5.8h-1.3c0-.4.1-.7.4-1.1.3-.3.6-.6,1.1-.8.4-.2.9-.3,1.5-.3.9,0,1.5.2,2,.6.5.4.7,1,.8,1.8v3.4c0,.7,0,1.2.3,1.6h0c0,.1-1.3.1-1.3.1ZM970.9,76.6c.4,0,.8-.1,1.1-.3s.6-.5.8-.8v-1.5h-1c-1.5,0-2.3.5-2.3,1.4s.1.7.4.9c.3.2.6.3,1,.3Z"/>
      <path class="st9" d="M981.3,70.2v.9c.6-.7,1.3-1.1,2.3-1.1,1.6,0,2.4.9,2.4,2.6v4.9h-1.3v-4.9c0-.5-.1-.9-.4-1.2-.2-.3-.6-.4-1.1-.4s-.8.1-1.1.3c-.3.2-.6.5-.7.9v5.3h-1.3v-7.4h1.2Z"/>
      <path class="st9" d="M987.8,73.8c0-.7.1-1.4.4-2,.3-.6.7-1,1.2-1.3.5-.3,1.1-.5,1.7-.5,1,0,1.8.3,2.4,1,.6.7.9,1.6.9,2.8h0c0,.8-.1,1.5-.4,2-.3.6-.7,1-1.2,1.3-.5.3-1.1.5-1.8.5-1,0-1.8-.3-2.4-1-.6-.7-.9-1.6-.9-2.8h0ZM989,73.9c0,.8.2,1.5.6,2,.4.5.9.7,1.5.7s1.2-.3,1.5-.8c.4-.5.6-1.2.6-2.1s-.2-1.5-.6-2c-.4-.5-.9-.8-1.5-.8s-1.1.2-1.5.7c-.4.5-.6,1.2-.6,2.1Z"/>
      <path class="st9" d="M1003.1,76.7c.5,0,.8-.1,1.2-.4.3-.3.5-.6.6-1h1.2c0,.4-.2.8-.4,1.2-.3.4-.6.7-1.1.9-.4.2-.9.3-1.4.3-1,0-1.8-.3-2.4-1-.6-.7-.9-1.6-.9-2.8v-.2c0-.7.1-1.4.4-1.9.3-.6.6-1,1.1-1.3.5-.3,1.1-.5,1.8-.5s1.5.2,2.1.7c.5.5.8,1.1.9,1.9h-1.2c0-.5-.2-.9-.5-1.2s-.7-.5-1.2-.5-1.1.2-1.5.7c-.4.5-.5,1.1-.5,2v.2c0,.9.2,1.5.5,2,.4.5.9.7,1.5.7Z"/>
      <path class="st9" d="M1012.3,76.8c-.5.6-1.2.9-2.2.9s-1.4-.2-1.8-.7c-.4-.5-.6-1.1-.6-2v-4.8h1.3v4.8c0,1.1.5,1.7,1.4,1.7s1.6-.4,1.9-1.1v-5.4h1.3v7.4h-1.2v-.7Z"/>
      <path class="st9" d="M1018.8,77.7c-1,0-1.8-.3-2.4-1-.6-.7-.9-1.5-.9-2.6v-.2c0-.7.1-1.4.4-2,.3-.6.7-1,1.2-1.4.5-.3,1-.5,1.6-.5,1,0,1.7.3,2.2,1,.5.6.8,1.5.8,2.7v.5h-5c0,.7.2,1.3.6,1.8.4.4.9.7,1.6.7s.8,0,1.1-.3c.3-.2.6-.4.8-.7l.8.6c-.6,1-1.5,1.4-2.8,1.4ZM1018.6,71.1c-.5,0-.9.2-1.3.6-.3.4-.6.9-.6,1.6h3.7c0-.7-.2-1.2-.5-1.6-.3-.4-.7-.5-1.3-.5Z"/>
      <path class="st9" d="M1024.7,70.2v.9c.6-.7,1.3-1.1,2.3-1.1,1.6,0,2.4.9,2.4,2.6v4.9h-1.3v-4.9c0-.5-.1-.9-.4-1.2-.2-.3-.6-.4-1.1-.4s-.8.1-1.1.3-.6.5-.7.9v5.3h-1.3v-7.4h1.2Z"/>
      <path class="st9" d="M1033.2,68.4v1.8h1.4v1h-1.4v4.6c0,.3,0,.5.2.7s.3.2.6.2.3,0,.6,0v1c-.3,0-.7.1-1,.1-.6,0-1-.2-1.3-.5s-.4-.8-.4-1.5v-4.6h-1.3v-1h1.3v-1.8h1.3Z"/>
      <path class="st9" d="M1040.9,77.6c0-.1-.1-.4-.2-.8-.6.6-1.3.9-2.1.9s-1.3-.2-1.8-.6c-.5-.4-.7-.9-.7-1.6s.3-1.4.9-1.8c.6-.4,1.4-.6,2.5-.6h1.2v-.6c0-.4-.1-.8-.4-1.1-.3-.3-.7-.4-1.2-.4s-.8.1-1.1.3c-.3.2-.5.5-.5.8h-1.3c0-.4.1-.7.4-1.1.3-.3.6-.6,1.1-.8.4-.2.9-.3,1.5-.3.9,0,1.5.2,2,.6.5.4.7,1,.8,1.8v3.4c0,.7,0,1.2.3,1.6h0c0,.1-1.3.1-1.3.1ZM1038.8,76.6c.4,0,.8-.1,1.1-.3s.6-.5.8-.8v-1.5h-1c-1.5,0-2.3.5-2.3,1.4s.1.7.4.9c.3.2.6.3,1,.3Z"/>
      <path class="st9" d="M1050.9,76.7c.5,0,.8-.1,1.2-.4s.5-.6.6-1h1.2c0,.4-.2.8-.4,1.2-.3.4-.6.7-1.1.9-.4.2-.9.3-1.4.3-1,0-1.8-.3-2.4-1-.6-.7-.9-1.6-.9-2.8v-.2c0-.7.1-1.4.4-1.9.3-.6.6-1,1.1-1.3.5-.3,1.1-.5,1.8-.5s1.5.2,2.1.7c.5.5.8,1.1.9,1.9h-1.2c0-.5-.2-.9-.5-1.2-.3-.3-.7-.5-1.2-.5s-1.1.2-1.5.7c-.4.5-.5,1.1-.5,2v.2c0,.9.2,1.5.5,2,.4.5.9.7,1.5.7Z"/>
      <path class="st9" d="M1055.2,73.8c0-.7.1-1.4.4-2,.3-.6.7-1,1.2-1.3s1.1-.5,1.7-.5c1,0,1.8.3,2.4,1s.9,1.6.9,2.8h0c0,.8-.1,1.5-.4,2-.3.6-.7,1-1.2,1.3-.5.3-1.1.5-1.8.5-1,0-1.8-.3-2.4-1s-.9-1.6-.9-2.8h0ZM1056.5,73.9c0,.8.2,1.5.6,2,.4.5.9.7,1.5.7s1.2-.3,1.5-.8c.4-.5.6-1.2.6-2.1s-.2-1.5-.6-2c-.4-.5-.9-.8-1.5-.8s-1.1.2-1.5.7c-.4.5-.6,1.2-.6,2.1Z"/>
      <path class="st9" d="M1065,70.2v.9c.6-.7,1.3-1.1,2.3-1.1,1.6,0,2.4.9,2.4,2.6v4.9h-1.3v-4.9c0-.5-.1-.9-.4-1.2-.2-.3-.6-.4-1.1-.4s-.8.1-1.1.3-.6.5-.7.9v5.3h-1.3v-7.4h1.2Z"/>
      <path class="st9" d="M1080.1,76.8c-.5.6-1.2.9-2.2.9s-1.4-.2-1.8-.7c-.4-.5-.6-1.1-.6-2v-4.8h1.3v4.8c0,1.1.5,1.7,1.4,1.7s1.6-.4,1.9-1.1v-5.4h1.3v7.4h-1.2v-.7Z"/>
      <path class="st9" d="M1084.8,70.2v.9c.6-.7,1.3-1.1,2.3-1.1,1.6,0,2.4.9,2.4,2.6v4.9h-1.3v-4.9c0-.5-.1-.9-.4-1.2-.2-.3-.6-.4-1.1-.4s-.8.1-1.1.3c-.3.2-.6.5-.7.9v5.3h-1.3v-7.4h1.2Z"/>
      <path class="st9" d="M1096,77.6c0-.1-.1-.4-.2-.8-.6.6-1.3.9-2.1.9s-1.3-.2-1.8-.6c-.5-.4-.7-.9-.7-1.6s.3-1.4.9-1.8c.6-.4,1.4-.6,2.5-.6h1.2v-.6c0-.4-.1-.8-.4-1.1-.3-.3-.7-.4-1.2-.4s-.8.1-1.1.3c-.3.2-.5.5-.5.8h-1.3c0-.4.1-.7.4-1.1.3-.3.6-.6,1.1-.8.4-.2.9-.3,1.5-.3.9,0,1.5.2,2,.6.5.4.7,1,.8,1.8v3.4c0,.7,0,1.2.3,1.6h0c0,.1-1.3.1-1.3.1ZM1093.9,76.6c.4,0,.8-.1,1.1-.3s.6-.5.8-.8v-1.5h-1c-1.5,0-2.3.5-2.3,1.4s.1.7.4.9c.3.2.6.3,1,.3Z"/>
      <path class="st9" d="M1105.5,75.8l1.8-5.7h1.3l-2.7,7.4h-1l-2.7-7.4h1.3l1.9,5.7Z"/>
      <path class="st9" d="M1113,77.7c-1,0-1.8-.3-2.4-1-.6-.7-.9-1.5-.9-2.6v-.2c0-.7.1-1.4.4-2,.3-.6.7-1,1.2-1.4.5-.3,1-.5,1.6-.5,1,0,1.7.3,2.2,1,.5.6.8,1.5.8,2.7v.5h-5c0,.7.2,1.3.6,1.8.4.4.9.7,1.6.7s.8,0,1.1-.3c.3-.2.6-.4.8-.7l.8.6c-.6,1-1.5,1.4-2.8,1.4ZM1112.8,71.1c-.5,0-.9.2-1.3.6-.3.4-.6.9-.6,1.6h3.7c0-.7-.2-1.2-.5-1.6-.3-.4-.7-.5-1.3-.5Z"/>
      <path class="st9" d="M1121.2,71.3c-.2,0-.4,0-.6,0-.8,0-1.4.4-1.7,1.1v5.2h-1.3v-7.4h1.2v.9c.4-.7,1-1,1.8-1s.4,0,.6,0v1.2Z"/>
      <path class="st9" d="M1127,75.6c0-.3-.1-.6-.4-.8-.3-.2-.7-.4-1.3-.5s-1.1-.3-1.5-.5-.7-.4-.8-.7c-.2-.3-.3-.6-.3-.9,0-.6.3-1.1.8-1.5.5-.4,1.2-.6,2-.6s1.5.2,2,.6c.5.4.8,1,.8,1.7h-1.3c0-.3-.1-.6-.4-.9-.3-.3-.7-.4-1.1-.4s-.8.1-1.1.3c-.3.2-.4.5-.4.8s.1.5.4.7c.2.2.7.3,1.3.4.6.1,1.1.3,1.5.5s.7.4.9.7c.2.3.3.6.3,1,0,.7-.3,1.2-.8,1.6-.5.4-1.2.6-2.1.6s-1.1-.1-1.6-.3c-.5-.2-.8-.5-1.1-.9s-.4-.8-.4-1.2h1.3c0,.4.2.8.5,1,.3.2.7.4,1.3.4s.9,0,1.2-.3c.3-.2.4-.5.4-.8Z"/>
      <path class="st9" d="M1130.1,68.2c0-.2,0-.4.2-.5.1-.1.3-.2.6-.2s.4,0,.6.2c.1.1.2.3.2.5s0,.4-.2.5-.3.2-.6.2-.4,0-.6-.2c-.1-.1-.2-.3-.2-.5ZM1131.4,77.6h-1.3v-7.4h1.3v7.4Z"/>
      <path class="st9" d="M1133.3,73.8c0-.7.1-1.4.4-2,.3-.6.7-1,1.2-1.3s1.1-.5,1.7-.5c1,0,1.8.3,2.4,1s.9,1.6.9,2.8h0c0,.8-.1,1.5-.4,2-.3.6-.7,1-1.2,1.3-.5.3-1.1.5-1.8.5-1,0-1.8-.3-2.4-1s-.9-1.6-.9-2.8h0ZM1134.6,73.9c0,.8.2,1.5.6,2,.4.5.9.7,1.5.7s1.2-.3,1.5-.8c.4-.5.6-1.2.6-2.1s-.2-1.5-.6-2c-.4-.5-.9-.8-1.5-.8s-1.1.2-1.5.7c-.4.5-.6,1.2-.6,2.1ZM1137.3,67.1h1.5l-1.8,2h-1s1.3-2,1.3-2Z"/>
      <path class="st9" d="M1143.1,70.2v.9c.6-.7,1.3-1.1,2.3-1.1,1.6,0,2.4.9,2.4,2.6v4.9h-1.3v-4.9c0-.5-.1-.9-.4-1.2-.2-.3-.6-.4-1.1-.4s-.8.1-1.1.3-.6.5-.7.9v5.3h-1.3v-7.4h1.2Z"/>
      <path class="st9" d="M1154.9,71.1c.6-.7,1.3-1,2.2-1,1.6,0,2.4.9,2.4,2.6v4.9h-1.3v-4.9c0-.5-.1-.9-.4-1.2-.2-.3-.6-.4-1.1-.4s-.8.1-1.1.3c-.3.2-.6.5-.7.9v5.3h-1.3v-10.5h1.3v4Z"/>
      <path class="st9" d="M1161.3,73.8c0-.7.1-1.4.4-2,.3-.6.7-1,1.2-1.3.5-.3,1.1-.5,1.7-.5,1,0,1.8.3,2.4,1,.6.7.9,1.6.9,2.8h0c0,.8-.1,1.5-.4,2-.3.6-.7,1-1.2,1.3-.5.3-1.1.5-1.8.5-1,0-1.8-.3-2.4-1-.6-.7-.9-1.6-.9-2.8h0ZM1162.5,73.9c0,.8.2,1.5.6,2,.4.5.9.7,1.5.7s1.2-.3,1.5-.8c.4-.5.6-1.2.6-2.1s-.2-1.5-.6-2c-.4-.5-.9-.8-1.5-.8s-1.1.2-1.5.7c-.4.5-.6,1.2-.6,2.1Z"/>
      <path class="st9" d="M1173.4,71.3c-.2,0-.4,0-.6,0-.8,0-1.4.4-1.7,1.1v5.2h-1.3v-7.4h1.2v.9c.4-.7,1-1,1.8-1s.4,0,.6,0v1.2Z"/>
      <path class="st9" d="M1174.9,68.2c0-.2,0-.4.2-.5.1-.1.3-.2.6-.2s.4,0,.6.2c.1.1.2.3.2.5s0,.4-.2.5c-.1.1-.3.2-.6.2s-.4,0-.6-.2-.2-.3-.2-.5ZM1176.2,77.6h-1.3v-7.4h1.3v7.4Z"/>
      <path class="st9" d="M1179.5,76.5h4.3v1h-5.9v-.9l4.1-5.4h-4v-1h5.6v.9l-4.1,5.5Z"/>
      <path class="st9" d="M1184.9,73.8c0-.7.1-1.4.4-2,.3-.6.7-1,1.2-1.3s1.1-.5,1.7-.5c1,0,1.8.3,2.4,1s.9,1.6.9,2.8h0c0,.8-.1,1.5-.4,2-.3.6-.7,1-1.2,1.3-.5.3-1.1.5-1.8.5-1,0-1.8-.3-2.4-1s-.9-1.6-.9-2.8h0ZM1186.2,73.9c0,.8.2,1.5.6,2,.4.5.9.7,1.5.7s1.2-.3,1.5-.8c.4-.5.6-1.2.6-2.1s-.2-1.5-.6-2c-.4-.5-.9-.8-1.5-.8s-1.1.2-1.5.7c-.4.5-.6,1.2-.6,2.1Z"/>
      <path class="st9" d="M1194.7,70.2v.9c.6-.7,1.3-1.1,2.3-1.1,1.6,0,2.4.9,2.4,2.6v4.9h-1.3v-4.9c0-.5-.1-.9-.4-1.2-.2-.3-.6-.4-1.1-.4s-.8.1-1.1.3-.6.5-.7.9v5.3h-1.3v-7.4h1.2Z"/>
      <path class="st9" d="M1203.2,68.4v1.8h1.4v1h-1.4v4.6c0,.3,0,.5.2.7s.3.2.6.2.3,0,.6,0v1c-.3,0-.7.1-1,.1-.6,0-1-.2-1.3-.5s-.4-.8-.4-1.5v-4.6h-1.3v-1h1.3v-1.8h1.3Z"/>
      <path class="st9" d="M1210.9,77.6c0-.1-.1-.4-.2-.8-.6.6-1.3.9-2.1.9s-1.3-.2-1.8-.6c-.5-.4-.7-.9-.7-1.6s.3-1.4.9-1.8c.6-.4,1.4-.6,2.5-.6h1.2v-.6c0-.4-.1-.8-.4-1.1-.3-.3-.7-.4-1.2-.4s-.8.1-1.1.3c-.3.2-.5.5-.5.8h-1.3c0-.4.1-.7.4-1.1.3-.3.6-.6,1.1-.8.4-.2.9-.3,1.5-.3.9,0,1.5.2,2,.6.5.4.7,1,.8,1.8v3.4c0,.7,0,1.2.3,1.6h0c0,.1-1.3.1-1.3.1ZM1208.8,76.6c.4,0,.8-.1,1.1-.3s.6-.5.8-.8v-1.5h-1c-1.5,0-2.3.5-2.3,1.4s.1.7.4.9c.3.2.6.3,1,.3Z"/>
      <path class="st9" d="M1215.5,77.6h-1.3v-10.5h1.3v10.5Z"/>
      <path class="st9" d="M1221.2,73.8c0-1.1.3-2,.8-2.7.5-.7,1.2-1,2.1-1s1.6.3,2.1.9v-3.9h1.3v10.5h-1.2v-.8c-.6.6-1.3.9-2.2.9s-1.6-.4-2.1-1.1c-.5-.7-.8-1.6-.8-2.7h0ZM1222.5,73.9c0,.8.2,1.5.5,2,.3.5.8.7,1.4.7s1.4-.4,1.8-1.1v-3.4c-.4-.7-1-1-1.7-1s-1.1.2-1.4.7c-.3.5-.5,1.2-.5,2.1Z"/>
      <path class="st9" d="M1232.7,77.7c-1,0-1.8-.3-2.4-1-.6-.7-.9-1.5-.9-2.6v-.2c0-.7.1-1.4.4-2,.3-.6.7-1,1.2-1.4.5-.3,1-.5,1.6-.5,1,0,1.7.3,2.2,1,.5.6.8,1.5.8,2.7v.5h-5c0,.7.2,1.3.6,1.8.4.4.9.7,1.6.7s.8,0,1.1-.3c.3-.2.6-.4.8-.7l.8.6c-.6,1-1.5,1.4-2.8,1.4ZM1232.6,71.1c-.5,0-.9.2-1.3.6-.3.4-.6.9-.6,1.6h3.7c0-.7-.2-1.2-.5-1.6-.3-.4-.7-.5-1.3-.5Z"/>
      <path class="st9" d="M1238.8,77.6h-1.3v-10.5h1.3v10.5Z"/>
      <path class="st9" d="M1244.8,68.2c0-.2,0-.4.2-.5.1-.1.3-.2.6-.2s.4,0,.6.2c.1.1.2.3.2.5s0,.4-.2.5c-.1.1-.3.2-.6.2s-.4,0-.6-.2-.2-.3-.2-.5ZM1246.2,77.6h-1.3v-7.4h1.3v7.4Z"/>
      <path class="st9" d="M1249.6,70.2v.8c.6-.6,1.3-1,2.2-1s1.7.4,2.1,1.2c.2-.4.6-.6,1-.9.4-.2.9-.3,1.4-.3,1.6,0,2.4.9,2.5,2.6v5h-1.3v-4.9c0-.5-.1-.9-.4-1.2-.2-.3-.6-.4-1.2-.4s-.9.1-1.2.4-.5.7-.5,1.1v4.9h-1.3v-4.8c0-1.1-.5-1.6-1.6-1.6s-1.4.4-1.7,1.1v5.4h-1.3v-7.4h1.2Z"/>
      <path class="st9" d="M1265.5,77.6c0-.1-.1-.4-.2-.8-.6.6-1.3.9-2.1.9s-1.3-.2-1.8-.6c-.5-.4-.7-.9-.7-1.6s.3-1.4.9-1.8c.6-.4,1.4-.6,2.5-.6h1.2v-.6c0-.4-.1-.8-.4-1.1-.3-.3-.7-.4-1.2-.4s-.8.1-1.1.3c-.3.2-.5.5-.5.8h-1.3c0-.4.1-.7.4-1.1.3-.3.6-.6,1.1-.8.4-.2.9-.3,1.5-.3.9,0,1.5.2,2,.6.5.4.7,1,.8,1.8v3.4c0,.7,0,1.2.3,1.6h0c0,.1-1.3.1-1.3.1ZM1263.4,76.6c.4,0,.8-.1,1.1-.3s.6-.5.8-.8v-1.5h-1c-1.5,0-2.3.5-2.3,1.4s.1.7.4.9c.3.2.6.3,1,.3Z"/>
      <path class="st9" d="M1268.4,73.8c0-1.2.3-2.1.8-2.8.5-.7,1.2-1,2.1-1s1.6.3,2.1,1v-.8h1.2v7.2c0,1-.3,1.7-.9,2.3-.6.6-1.3.8-2.3.8s-1.1-.1-1.6-.3c-.5-.2-.9-.5-1.2-.9l.7-.8c.5.7,1.2,1,2,1s1.1-.2,1.4-.5c.3-.3.5-.8.5-1.5v-.6c-.5.6-1.2.9-2.1.9s-1.6-.3-2.1-1c-.5-.7-.8-1.6-.8-2.9ZM1269.7,73.9c0,.8.2,1.5.5,2,.3.5.8.7,1.4.7s1.4-.4,1.8-1.1v-3.4c-.4-.7-1-1.1-1.7-1.1s-1.1.2-1.4.7-.5,1.2-.5,2.1Z"/>
      <path class="st9" d="M1276.5,73.8c0-.7.1-1.4.4-2,.3-.6.7-1,1.2-1.3s1.1-.5,1.7-.5c1,0,1.8.3,2.4,1s.9,1.6.9,2.8h0c0,.8-.1,1.5-.4,2-.3.6-.7,1-1.2,1.3-.5.3-1.1.5-1.8.5-1,0-1.8-.3-2.4-1s-.9-1.6-.9-2.8h0ZM1277.8,73.9c0,.8.2,1.5.6,2,.4.5.9.7,1.5.7s1.2-.3,1.5-.8c.4-.5.6-1.2.6-2.1s-.2-1.5-.6-2c-.4-.5-.9-.8-1.5-.8s-1.1.2-1.5.7c-.4.5-.6,1.2-.6,2.1Z"/>
      <path class="st9" d="M1286.7,68.4v1.8h1.4v1h-1.4v4.6c0,.3,0,.5.2.7s.3.2.6.2.3,0,.6,0v1c-.3,0-.7.1-1,.1-.6,0-1-.2-1.3-.5s-.4-.8-.4-1.5v-4.6h-1.3v-1h1.3v-1.8h1.3Z"/>
      <path class="st9" d="M1289.7,68.2c0-.2,0-.4.2-.5.1-.1.3-.2.6-.2s.4,0,.6.2c.1.1.2.3.2.5s0,.4-.2.5-.3.2-.6.2-.4,0-.6-.2c-.1-.1-.2-.3-.2-.5ZM1291.1,77.6h-1.3v-7.4h1.3v7.4Z"/>
      <path class="st9" d="M1299.6,73.9c0,1.1-.3,2-.8,2.7-.5.7-1.2,1-2.1,1s-1.6-.3-2.1-.9v3.6h-1.3v-10.2h1.2v.8c.6-.6,1.3-1,2.2-1s1.6.3,2.1,1c.5.7.8,1.6.8,2.8h0ZM1298.3,73.8c0-.8-.2-1.5-.5-2-.4-.5-.8-.7-1.5-.7s-1.3.3-1.7,1v3.5c.4.7,1,1,1.7,1s1.1-.2,1.4-.7c.4-.5.5-1.2.5-2.1Z"/>
      <path class="st9" d="M1301.1,73.8c0-.7.1-1.4.4-2,.3-.6.7-1,1.2-1.3s1.1-.5,1.7-.5c1,0,1.8.3,2.4,1s.9,1.6.9,2.8h0c0,.8-.1,1.5-.4,2-.3.6-.7,1-1.2,1.3-.5.3-1.1.5-1.8.5-1,0-1.8-.3-2.4-1s-.9-1.6-.9-2.8h0ZM1302.4,73.9c0,.8.2,1.5.6,2,.4.5.9.7,1.5.7s1.2-.3,1.5-.8c.4-.5.6-1.2.6-2.1s-.2-1.5-.6-2c-.4-.5-.9-.8-1.5-.8s-1.1.2-1.5.7c-.4.5-.6,1.2-.6,2.1Z"/>
      <path class="st9" d="M1309.5,76.9c0-.2,0-.4.2-.5.1-.1.3-.2.6-.2s.5,0,.6.2c.1.1.2.3.2.5s0,.4-.2.5c-.1.1-.3.2-.6.2s-.5,0-.6-.2c-.1-.1-.2-.3-.2-.5Z"/>
      <path class="st9" d="M1323,73h-4.3v3.5h5v1.1h-6.3v-10h6.3v1.1h-4.9v3.2h4.3v1.1Z"/>
      <path class="st9" d="M1326.6,70.2v.9c.6-.7,1.3-1.1,2.3-1.1,1.6,0,2.4.9,2.4,2.6v4.9h-1.3v-4.9c0-.5-.1-.9-.4-1.2-.2-.3-.6-.4-1.1-.4s-.8.1-1.1.3-.6.5-.7.9v5.3h-1.3v-7.4h1.2Z"/>
      <path class="st9" d="M1340.1,76.7c.5,0,.8-.1,1.2-.4.3-.3.5-.6.6-1h1.2c0,.4-.2.8-.4,1.2-.3.4-.6.7-1.1.9-.4.2-.9.3-1.4.3-1,0-1.8-.3-2.4-1-.6-.7-.9-1.6-.9-2.8v-.2c0-.7.1-1.4.4-1.9.3-.6.6-1,1.1-1.3.5-.3,1.1-.5,1.8-.5s1.5.2,2.1.7c.5.5.8,1.1.9,1.9h-1.2c0-.5-.2-.9-.5-1.2s-.7-.5-1.2-.5-1.1.2-1.5.7c-.4.5-.5,1.1-.5,2v.2c0,.9.2,1.5.5,2,.4.5.9.7,1.5.7Z"/>
      <path class="st9" d="M1349.3,77.6c0-.1-.1-.4-.2-.8-.6.6-1.3.9-2.1.9s-1.3-.2-1.8-.6c-.5-.4-.7-.9-.7-1.6s.3-1.4.9-1.8c.6-.4,1.4-.6,2.5-.6h1.2v-.6c0-.4-.1-.8-.4-1.1-.3-.3-.7-.4-1.2-.4s-.8.1-1.1.3c-.3.2-.5.5-.5.8h-1.3c0-.4.1-.7.4-1.1.3-.3.6-.6,1.1-.8.4-.2.9-.3,1.5-.3.9,0,1.5.2,2,.6.5.4.7,1,.8,1.8v3.4c0,.7,0,1.2.3,1.6h0c0,.1-1.3.1-1.3.1ZM1347.2,76.6c.4,0,.8-.1,1.1-.3s.6-.5.8-.8v-1.5h-1c-1.5,0-2.3.5-2.3,1.4s.1.7.4.9c.3.2.6.3,1,.3Z"/>
      <path class="st9" d="M1356.8,75.6c0-.3-.1-.6-.4-.8-.3-.2-.7-.4-1.3-.5-.6-.1-1.1-.3-1.5-.5-.4-.2-.7-.4-.8-.7-.2-.3-.3-.6-.3-.9,0-.6.3-1.1.8-1.5.5-.4,1.2-.6,2-.6s1.5.2,2,.6c.5.4.8,1,.8,1.7h-1.3c0-.3-.1-.6-.4-.9-.3-.3-.7-.4-1.1-.4s-.8.1-1.1.3c-.3.2-.4.5-.4.8s.1.5.4.7c.2.2.7.3,1.3.4.6.1,1.1.3,1.5.5.4.2.7.4.9.7.2.3.3.6.3,1,0,.7-.3,1.2-.8,1.6-.5.4-1.2.6-2.1.6s-1.1-.1-1.6-.3c-.5-.2-.8-.5-1.1-.9-.3-.4-.4-.8-.4-1.2h1.3c0,.4.2.8.5,1,.3.2.7.4,1.3.4s.9,0,1.2-.3c.3-.2.4-.5.4-.8Z"/>
      <path class="st9" d="M1359.6,73.8c0-.7.1-1.4.4-2,.3-.6.7-1,1.2-1.3.5-.3,1.1-.5,1.7-.5,1,0,1.8.3,2.4,1,.6.7.9,1.6.9,2.8h0c0,.8-.1,1.5-.4,2-.3.6-.7,1-1.2,1.3-.5.3-1.1.5-1.8.5-1,0-1.8-.3-2.4-1-.6-.7-.9-1.6-.9-2.8h0ZM1360.8,73.9c0,.8.2,1.5.6,2,.4.5.9.7,1.5.7s1.2-.3,1.5-.8c.4-.5.6-1.2.6-2.1s-.2-1.5-.6-2c-.4-.5-.9-.8-1.5-.8s-1.1.2-1.5.7c-.4.5-.6,1.2-.6,2.1Z"/>
      <path class="st9" d="M1372.4,75.6c0-.3-.1-.6-.4-.8-.3-.2-.7-.4-1.3-.5s-1.1-.3-1.5-.5-.7-.4-.8-.7c-.2-.3-.3-.6-.3-.9,0-.6.3-1.1.8-1.5.5-.4,1.2-.6,2-.6s1.5.2,2,.6c.5.4.8,1,.8,1.7h-1.3c0-.3-.1-.6-.4-.9-.3-.3-.7-.4-1.1-.4s-.8.1-1.1.3c-.3.2-.4.5-.4.8s.1.5.4.7c.2.2.7.3,1.3.4.6.1,1.1.3,1.5.5.4.2.7.4.9.7.2.3.3.6.3,1,0,.7-.3,1.2-.8,1.6-.5.4-1.2.6-2.1.6s-1.1-.1-1.6-.3c-.5-.2-.8-.5-1.1-.9s-.4-.8-.4-1.2h1.3c0,.4.2.8.5,1,.3.2.7.4,1.3.4s.9,0,1.2-.3c.3-.2.4-.5.4-.8Z"/>
      <path class="st9" d="M1379,73.8c0-1.2.3-2.1.8-2.8s1.2-1,2.1-1,1.6.3,2.1.9v-.7h1.2v10.2h-1.3v-3.5c-.5.5-1.2.8-2,.8s-1.6-.3-2.1-1c-.5-.7-.8-1.6-.8-2.8h0ZM1380.3,73.9c0,.8.2,1.5.5,2,.4.5.8.7,1.4.7s1.3-.3,1.7-1v-3.6c-.4-.7-1-1-1.7-1s-1.1.2-1.5.7-.5,1.2-.5,2.2Z"/>
      <path class="st9" d="M1392.1,76.8c-.5.6-1.2.9-2.2.9s-1.4-.2-1.8-.7-.6-1.1-.6-2v-4.8h1.3v4.8c0,1.1.5,1.7,1.4,1.7s1.6-.4,1.9-1.1v-5.4h1.3v7.4h-1.2v-.7Z"/>
      <path class="st9" d="M1398.6,77.7c-1,0-1.8-.3-2.4-1-.6-.7-.9-1.5-.9-2.6v-.2c0-.7.1-1.4.4-2,.3-.6.7-1,1.2-1.4.5-.3,1-.5,1.6-.5,1,0,1.7.3,2.2,1,.5.6.8,1.5.8,2.7v.5h-5c0,.7.2,1.3.6,1.8.4.4.9.7,1.6.7s.8,0,1.1-.3c.3-.2.6-.4.8-.7l.8.6c-.6,1-1.5,1.4-2.8,1.4ZM1398.4,71.1c-.5,0-.9.2-1.3.6-.3.4-.6.9-.6,1.6h3.7c0-.7-.2-1.2-.5-1.6-.3-.4-.7-.5-1.3-.5Z"/>
      <path class="st9" d="M1410.5,71.3c-.2,0-.4,0-.6,0-.8,0-1.4.4-1.7,1.1v5.2h-1.3v-7.4h1.2v.9c.4-.7,1-1,1.8-1s.4,0,.6,0v1.2Z"/>
      <path class="st9" d="M1414.9,77.7c-1,0-1.8-.3-2.4-1-.6-.7-.9-1.5-.9-2.6v-.2c0-.7.1-1.4.4-2,.3-.6.7-1,1.2-1.4.5-.3,1-.5,1.6-.5,1,0,1.7.3,2.2,1,.5.6.8,1.5.8,2.7v.5h-5c0,.7.2,1.3.6,1.8.4.4.9.7,1.6.7s.8,0,1.1-.3c.3-.2.6-.4.8-.7l.8.6c-.6,1-1.5,1.4-2.8,1.4ZM1414.8,71.1c-.5,0-.9.2-1.3.6-.3.4-.6.9-.6,1.6h3.7c0-.7-.2-1.2-.5-1.6-.3-.4-.7-.5-1.3-.5Z"/>
      <path class="st9" d="M1419.3,73.8c0-1.2.3-2.1.8-2.8s1.2-1,2.1-1,1.6.3,2.1.9v-.7h1.2v10.2h-1.3v-3.5c-.5.5-1.2.8-2,.8s-1.6-.3-2.1-1c-.5-.7-.8-1.6-.8-2.8h0ZM1420.6,73.9c0,.8.2,1.5.5,2,.4.5.8.7,1.4.7s1.3-.3,1.7-1v-3.6c-.4-.7-1-1-1.7-1s-1.1.2-1.5.7c-.4.5-.5,1.2-.5,2.2Z"/>
      <path class="st9" d="M1432.3,76.8c-.5.6-1.2.9-2.2.9s-1.4-.2-1.8-.7-.6-1.1-.6-2v-4.8h1.3v4.8c0,1.1.5,1.7,1.4,1.7s1.6-.4,1.9-1.1v-5.4h1.3v7.4h-1.2v-.7Z"/>
      <path class="st9" d="M1435.7,68.2c0-.2,0-.4.2-.5.1-.1.3-.2.6-.2s.4,0,.6.2c.1.1.2.3.2.5s0,.4-.2.5-.3.2-.6.2-.4,0-.6-.2c-.1-.1-.2-.3-.2-.5ZM1437.1,77.6h-1.3v-7.4h1.3v7.4Z"/>
      <path class="st9" d="M1442.4,77.7c-1,0-1.8-.3-2.4-1-.6-.7-.9-1.5-.9-2.6v-.2c0-.7.1-1.4.4-2,.3-.6.7-1,1.2-1.4.5-.3,1-.5,1.6-.5,1,0,1.7.3,2.2,1,.5.6.8,1.5.8,2.7v.5h-5c0,.7.2,1.3.6,1.8.4.4.9.7,1.6.7s.8,0,1.1-.3c.3-.2.6-.4.8-.7l.8.6c-.6,1-1.5,1.4-2.8,1.4ZM1442.2,71.1c-.5,0-.9.2-1.3.6-.3.4-.6.9-.6,1.6h3.7c0-.7-.2-1.2-.5-1.6-.3-.4-.7-.5-1.3-.5Z"/>
      <path class="st9" d="M1450.7,71.3c-.2,0-.4,0-.6,0-.8,0-1.4.4-1.7,1.1v5.2h-1.3v-7.4h1.2v.9c.4-.7,1-1,1.8-1s.4,0,.6,0v1.2Z"/>
      <path class="st9" d="M1456.6,77.6c0-.1-.1-.4-.2-.8-.6.6-1.3.9-2.1.9s-1.3-.2-1.8-.6c-.5-.4-.7-.9-.7-1.6s.3-1.4.9-1.8c.6-.4,1.4-.6,2.5-.6h1.2v-.6c0-.4-.1-.8-.4-1.1-.3-.3-.7-.4-1.2-.4s-.8.1-1.1.3c-.3.2-.5.5-.5.8h-1.3c0-.4.1-.7.4-1.1.3-.3.6-.6,1.1-.8.4-.2.9-.3,1.5-.3.9,0,1.5.2,2,.6.5.4.7,1,.8,1.8v3.4c0,.7,0,1.2.3,1.6h0c0,.1-1.3.1-1.3.1ZM1454.6,76.6c.4,0,.8-.1,1.1-.3s.6-.5.8-.8v-1.5h-1c-1.5,0-2.3.5-2.3,1.4s.1.7.4.9c.3.2.6.3,1,.3Z"/>
      <path class="st9" d="M1461.1,70.2v.9c.6-.7,1.3-1.1,2.3-1.1,1.6,0,2.4.9,2.4,2.6v4.9h-1.3v-4.9c0-.5-.1-.9-.4-1.2-.2-.3-.6-.4-1.1-.4s-.8.1-1.1.3-.6.5-.7.9v5.3h-1.3v-7.4h1.2Z"/>
      <path class="st9" d="M1476.2,76.8c-.5.6-1.2.9-2.2.9s-1.4-.2-1.8-.7-.6-1.1-.6-2v-4.8h1.3v4.8c0,1.1.5,1.7,1.4,1.7s1.6-.4,1.9-1.1v-5.4h1.3v7.4h-1.2v-.7Z"/>
      <path class="st9" d="M1480.9,70.2v.9c.6-.7,1.3-1.1,2.3-1.1,1.6,0,2.4.9,2.4,2.6v4.9h-1.3v-4.9c0-.5-.1-.9-.4-1.2-.2-.3-.6-.4-1.1-.4s-.8.1-1.1.3-.6.5-.7.9v5.3h-1.3v-7.4h1.2Z"/>
      <path class="st9" d="M1492,77.6v-6.4h-1.2v-1h1.2v-.8c0-.8.2-1.4.6-1.8.4-.4,1-.6,1.8-.6s.6,0,.9.1v1c-.3,0-.5,0-.8,0-.4,0-.7.1-1,.4-.2.2-.3.6-.3,1v.8h1.6v1h-1.6v6.4h-1.3Z"/>
      <path class="st9" d="M1496,73.8c0-.7.1-1.4.4-2,.3-.6.7-1,1.2-1.3s1.1-.5,1.7-.5c1,0,1.8.3,2.4,1s.9,1.6.9,2.8h0c0,.8-.1,1.5-.4,2-.3.6-.7,1-1.2,1.3-.5.3-1.1.5-1.8.5-1,0-1.8-.3-2.4-1s-.9-1.6-.9-2.8h0ZM1497.2,73.9c0,.8.2,1.5.6,2,.4.5.9.7,1.5.7s1.2-.3,1.5-.8c.4-.5.6-1.2.6-2.1s-.2-1.5-.6-2c-.4-.5-.9-.8-1.5-.8s-1.1.2-1.5.7c-.4.5-.6,1.2-.6,2.1Z"/>
      <path class="st9" d="M1508.1,71.3c-.2,0-.4,0-.6,0-.8,0-1.4.4-1.7,1.1v5.2h-1.3v-7.4h1.2v.9c.4-.7,1-1,1.8-1s.4,0,.6,0v1.2Z"/>
      <path class="st9" d="M1510.8,70.2v.8c.6-.6,1.3-1,2.2-1s1.7.4,2.1,1.2c.2-.4.6-.6,1-.9s.9-.3,1.4-.3c1.6,0,2.4.9,2.5,2.6v5h-1.3v-4.9c0-.5-.1-.9-.4-1.2-.2-.3-.6-.4-1.2-.4s-.9.1-1.2.4c-.3.3-.5.7-.5,1.1v4.9h-1.3v-4.8c0-1.1-.5-1.6-1.6-1.6s-1.4.4-1.7,1.1v5.4h-1.3v-7.4h1.2Z"/>
      <path class="st9" d="M1526.6,77.6c0-.1-.1-.4-.2-.8-.6.6-1.3.9-2.1.9s-1.3-.2-1.8-.6c-.5-.4-.7-.9-.7-1.6s.3-1.4.9-1.8c.6-.4,1.4-.6,2.5-.6h1.2v-.6c0-.4-.1-.8-.4-1.1-.3-.3-.7-.4-1.2-.4s-.8.1-1.1.3c-.3.2-.5.5-.5.8h-1.3c0-.4.1-.7.4-1.1.3-.3.6-.6,1.1-.8.4-.2.9-.3,1.5-.3.9,0,1.5.2,2,.6.5.4.7,1,.8,1.8v3.4c0,.7,0,1.2.3,1.6h0c0,.1-1.3.1-1.3.1ZM1524.5,76.6c.4,0,.8-.1,1.1-.3s.6-.5.8-.8v-1.5h-1c-1.5,0-2.3.5-2.3,1.4s.1.7.4.9c.3.2.6.3,1,.3Z"/>
      <path class="st9" d="M1531.6,68.4v1.8h1.4v1h-1.4v4.6c0,.3,0,.5.2.7s.3.2.6.2.3,0,.6,0v1c-.3,0-.7.1-1,.1-.6,0-1-.2-1.3-.5s-.4-.8-.4-1.5v-4.6h-1.3v-1h1.3v-1.8h1.3Z"/>
      <path class="st9" d="M1534.2,73.8c0-.7.1-1.4.4-2,.3-.6.7-1,1.2-1.3.5-.3,1.1-.5,1.7-.5,1,0,1.8.3,2.4,1,.6.7.9,1.6.9,2.8h0c0,.8-.1,1.5-.4,2-.3.6-.7,1-1.2,1.3-.5.3-1.1.5-1.8.5-1,0-1.8-.3-2.4-1-.6-.7-.9-1.6-.9-2.8h0ZM1535.4,73.9c0,.8.2,1.5.6,2,.4.5.9.7,1.5.7s1.2-.3,1.5-.8c.4-.5.6-1.2.6-2.1s-.2-1.5-.6-2c-.4-.5-.9-.8-1.5-.8s-1.1.2-1.5.7c-.4.5-.6,1.2-.6,2.1Z"/>
      <path class="st9" d="M1547.8,71.1c.6-.7,1.3-1,2.2-1,1.6,0,2.4.9,2.4,2.6v4.9h-1.3v-4.9c0-.5-.1-.9-.4-1.2-.2-.3-.6-.4-1.1-.4s-.8.1-1.1.3c-.3.2-.6.5-.7.9v5.3h-1.3v-10.5h1.3v4Z"/>
      <path class="st9" d="M1554.1,73.8c0-.7.1-1.4.4-2,.3-.6.7-1,1.2-1.3s1.1-.5,1.7-.5c1,0,1.8.3,2.4,1s.9,1.6.9,2.8h0c0,.8-.1,1.5-.4,2-.3.6-.7,1-1.2,1.3-.5.3-1.1.5-1.8.5-1,0-1.8-.3-2.4-1s-.9-1.6-.9-2.8h0ZM1555.4,73.9c0,.8.2,1.5.6,2,.4.5.9.7,1.5.7s1.2-.3,1.5-.8c.4-.5.6-1.2.6-2.1s-.2-1.5-.6-2c-.4-.5-.9-.8-1.5-.8s-1.1.2-1.5.7c-.4.5-.6,1.2-.6,2.1Z"/>
      <path class="st9" d="M1566.3,71.3c-.2,0-.4,0-.6,0-.8,0-1.4.4-1.7,1.1v5.2h-1.3v-7.4h1.2v.9c.4-.7,1-1,1.8-1s.4,0,.6,0v1.2Z"/>
      <path class="st9" d="M1567.7,68.2c0-.2,0-.4.2-.5.1-.1.3-.2.6-.2s.4,0,.6.2c.1.1.2.3.2.5s0,.4-.2.5c-.1.1-.3.2-.6.2s-.4,0-.6-.2-.2-.3-.2-.5ZM1569.1,77.6h-1.3v-7.4h1.3v7.4Z"/>
      <path class="st9" d="M1572.4,76.5h4.3v1h-5.9v-.9l4.1-5.4h-4v-1h5.6v.9l-4.1,5.5Z"/>
      <path class="st9" d="M1577.8,73.8c0-.7.1-1.4.4-2,.3-.6.7-1,1.2-1.3s1.1-.5,1.7-.5c1,0,1.8.3,2.4,1s.9,1.6.9,2.8h0c0,.8-.1,1.5-.4,2-.3.6-.7,1-1.2,1.3-.5.3-1.1.5-1.8.5-1,0-1.8-.3-2.4-1s-.9-1.6-.9-2.8h0ZM1579.1,73.9c0,.8.2,1.5.6,2,.4.5.9.7,1.5.7s1.2-.3,1.5-.8c.4-.5.6-1.2.6-2.1s-.2-1.5-.6-2c-.4-.5-.9-.8-1.5-.8s-1.1.2-1.5.7c-.4.5-.6,1.2-.6,2.1Z"/>
      <path class="st9" d="M1587.6,70.2v.9c.6-.7,1.3-1.1,2.3-1.1,1.6,0,2.4.9,2.4,2.6v4.9h-1.3v-4.9c0-.5-.1-.9-.4-1.2-.2-.3-.6-.4-1.1-.4s-.8.1-1.1.3-.6.5-.7.9v5.3h-1.3v-7.4h1.2Z"/>
      <path class="st9" d="M1596.1,68.4v1.8h1.4v1h-1.4v4.6c0,.3,0,.5.2.7s.3.2.6.2.3,0,.6,0v1c-.3,0-.7.1-1,.1-.6,0-1-.2-1.3-.5s-.4-.8-.4-1.5v-4.6h-1.3v-1h1.3v-1.8h1.3Z"/>
      <path class="st9" d="M1603.7,77.6c0-.1-.1-.4-.2-.8-.6.6-1.3.9-2.1.9s-1.3-.2-1.8-.6c-.5-.4-.7-.9-.7-1.6s.3-1.4.9-1.8c.6-.4,1.4-.6,2.5-.6h1.2v-.6c0-.4-.1-.8-.4-1.1-.3-.3-.7-.4-1.2-.4s-.8.1-1.1.3c-.3.2-.5.5-.5.8h-1.3c0-.4.1-.7.4-1.1.3-.3.6-.6,1.1-.8.4-.2.9-.3,1.5-.3.9,0,1.5.2,2,.6.5.4.7,1,.8,1.8v3.4c0,.7,0,1.2.3,1.6h0c0,.1-1.3.1-1.3.1ZM1601.6,76.6c.4,0,.8-.1,1.1-.3s.6-.5.8-.8v-1.5h-1c-1.5,0-2.3.5-2.3,1.4s.1.7.4.9c.3.2.6.3,1,.3Z"/>
      <path class="st9" d="M1608.3,77.6h-1.3v-10.5h1.3v10.5Z"/>
      <path class="st9" d="M1610.7,79.5l-.7-.5c.4-.6.7-1.2.7-1.8v-1.1h1.2v1c0,.5-.1.9-.3,1.4-.2.5-.5.8-.9,1.1Z"/>
      <path class="st9" d="M1621.8,75.6c0-.3-.1-.6-.4-.8-.3-.2-.7-.4-1.3-.5s-1.1-.3-1.5-.5-.7-.4-.8-.7c-.2-.3-.3-.6-.3-.9,0-.6.3-1.1.8-1.5.5-.4,1.2-.6,2-.6s1.5.2,2,.6c.5.4.8,1,.8,1.7h-1.3c0-.3-.1-.6-.4-.9-.3-.3-.7-.4-1.1-.4s-.8.1-1.1.3c-.3.2-.4.5-.4.8s.1.5.4.7c.2.2.7.3,1.3.4.6.1,1.1.3,1.5.5s.7.4.9.7c.2.3.3.6.3,1,0,.7-.3,1.2-.8,1.6-.5.4-1.2.6-2.1.6s-1.1-.1-1.6-.3c-.5-.2-.8-.5-1.1-.9s-.4-.8-.4-1.2h1.3c0,.4.2.8.5,1,.3.2.7.4,1.3.4s.9,0,1.2-.3c.3-.2.4-.5.4-.8Z"/>
      <path class="st9" d="M1627.9,77.7c-1,0-1.8-.3-2.4-1-.6-.7-.9-1.5-.9-2.6v-.2c0-.7.1-1.4.4-2,.3-.6.7-1,1.2-1.4.5-.3,1-.5,1.6-.5,1,0,1.7.3,2.2,1,.5.6.8,1.5.8,2.7v.5h-5c0,.7.2,1.3.6,1.8.4.4.9.7,1.6.7s.8,0,1.1-.3c.3-.2.6-.4.8-.7l.8.6c-.6,1-1.5,1.4-2.8,1.4ZM1627.8,71.1c-.5,0-.9.2-1.3.6-.3.4-.6.9-.6,1.6h3.7c0-.7-.2-1.2-.5-1.6-.3-.4-.7-.5-1.3-.5Z"/>
      <path class="st9" d="M1640.9,76.8c-.5.6-1.2.9-2.2.9s-1.4-.2-1.8-.7-.6-1.1-.6-2v-4.8h1.3v4.8c0,1.1.5,1.7,1.4,1.7s1.6-.4,1.9-1.1v-5.4h1.3v7.4h-1.2v-.7Z"/>
      <path class="st9" d="M1646.1,68.4v1.8h1.4v1h-1.4v4.6c0,.3,0,.5.2.7s.3.2.6.2.3,0,.6,0v1c-.3,0-.7.1-1,.1-.6,0-1-.2-1.3-.5s-.4-.8-.4-1.5v-4.6h-1.3v-1h1.3v-1.8h1.3Z"/>
      <path class="st9" d="M1649.1,68.2c0-.2,0-.4.2-.5.1-.1.3-.2.6-.2s.4,0,.6.2c.1.1.2.3.2.5s0,.4-.2.5c-.1.1-.3.2-.6.2s-.4,0-.6-.2-.2-.3-.2-.5ZM1650.5,77.6h-1.3v-7.4h1.3v7.4Z"/>
      <path class="st9" d="M1654,77.6h-1.3v-10.5h1.3v10.5Z"/>
      <path class="st9" d="M1656.2,68.2c0-.2,0-.4.2-.5.1-.1.3-.2.6-.2s.4,0,.6.2c.1.1.2.3.2.5s0,.4-.2.5-.3.2-.6.2-.4,0-.6-.2c-.1-.1-.2-.3-.2-.5ZM1657.6,77.6h-1.3v-7.4h1.3v7.4Z"/>
      <path class="st9" d="M1662.8,73.8h-3.3v-1h3.3v1Z"/>
      <path class="st9" d="M917.3,97.5h4.3v1h-5.9v-.9l4.1-5.4h-4v-1h5.6v.9l-4.1,5.5Z"/>
      <path class="st9" d="M927.8,98.6c0-.1-.1-.4-.2-.8-.6.6-1.3.9-2.1.9s-1.3-.2-1.8-.6c-.5-.4-.7-.9-.7-1.6s.3-1.4.9-1.8c.6-.4,1.4-.6,2.5-.6h1.2v-.6c0-.4-.1-.8-.4-1.1-.3-.3-.7-.4-1.2-.4s-.8.1-1.1.3c-.3.2-.5.5-.5.8h-1.3c0-.4.1-.7.4-1.1.3-.3.6-.6,1.1-.8.4-.2.9-.3,1.5-.3.9,0,1.5.2,2,.6.5.4.7,1,.8,1.8v3.4c0,.7,0,1.2.3,1.6h0c0,.1-1.3.1-1.3.1ZM925.7,97.6c.4,0,.8-.1,1.1-.3s.6-.5.8-.8v-1.5h-1c-1.5,0-2.3.5-2.3,1.4s.1.7.4.9c.3.2.6.3,1,.3Z"/>
      <path class="st9" d="M934.6,92.3c-.2,0-.4,0-.6,0-.8,0-1.4.4-1.7,1.1v5.2h-1.3v-7.4h1.2v.9c.4-.7,1-1,1.8-1s.4,0,.6,0v1.2Z"/>
      <path class="st9" d="M940.6,98.6c0-.1-.1-.4-.2-.8-.6.6-1.3.9-2.1.9s-1.3-.2-1.8-.6c-.5-.4-.7-.9-.7-1.6s.3-1.4.9-1.8c.6-.4,1.4-.6,2.5-.6h1.2v-.6c0-.4-.1-.8-.4-1.1-.3-.3-.7-.4-1.2-.4s-.8.1-1.1.3c-.3.2-.5.5-.5.8h-1.3c0-.4.1-.7.4-1.1.3-.3.6-.6,1.1-.8.4-.2.9-.3,1.5-.3.9,0,1.5.2,2,.6.5.4.7,1,.8,1.8v3.4c0,.7,0,1.2.3,1.6h0c0,.1-1.3.1-1.3.1ZM938.5,97.6c.4,0,.8-.1,1.1-.3s.6-.5.8-.8v-1.5h-1c-1.5,0-2.3.5-2.3,1.4s.1.7.4.9c.3.2.6.3,1,.3ZM939.7,88.1h1.5l-1.8,2h-1s1.3-2,1.3-2Z"/>
      <path class="st9" d="M952.3,97.8c-.5.6-1.2.9-2.2.9s-1.4-.2-1.8-.7c-.4-.5-.6-1.1-.6-2v-4.8h1.3v4.8c0,1.1.5,1.7,1.4,1.7s1.6-.4,1.9-1.1v-5.4h1.3v7.4h-1.2v-.7ZM951.3,88.1h1.5l-1.8,2h-1s1.3-2,1.3-2Z"/>
      <path class="st9" d="M956.9,91.2v.9c.6-.7,1.3-1.1,2.3-1.1,1.6,0,2.4.9,2.4,2.6v4.9h-1.3v-4.9c0-.5-.1-.9-.4-1.2-.2-.3-.6-.4-1.1-.4s-.8.1-1.1.3c-.3.2-.6.5-.7.9v5.3h-1.3v-7.4h1.2Z"/>
      <path class="st9" d="M963.6,89.2c0-.2,0-.4.2-.5.1-.1.3-.2.6-.2s.4,0,.6.2c.1.1.2.3.2.5s0,.4-.2.5c-.1.1-.3.2-.6.2s-.4,0-.6-.2c-.1-.1-.2-.3-.2-.5ZM965,98.6h-1.3v-7.4h1.3v7.4Z"/>
      <path class="st9" d="M970.2,97.7c.5,0,.8-.1,1.2-.4s.5-.6.6-1h1.2c0,.4-.2.8-.4,1.2-.3.4-.6.7-1.1.9-.4.2-.9.3-1.4.3-1,0-1.8-.3-2.4-1-.6-.7-.9-1.6-.9-2.8v-.2c0-.7.1-1.4.4-1.9.3-.6.6-1,1.1-1.3.5-.3,1.1-.5,1.8-.5s1.5.2,2.1.7c.5.5.8,1.1.9,1.9h-1.2c0-.5-.2-.9-.5-1.2-.3-.3-.7-.5-1.2-.5s-1.1.2-1.5.7c-.4.5-.5,1.1-.5,2v.2c0,.9.2,1.5.5,2,.4.5.9.7,1.5.7Z"/>
      <path class="st9" d="M979.4,98.6c0-.1-.1-.4-.2-.8-.6.6-1.3.9-2.1.9s-1.3-.2-1.8-.6c-.5-.4-.7-.9-.7-1.6s.3-1.4.9-1.8c.6-.4,1.4-.6,2.5-.6h1.2v-.6c0-.4-.1-.8-.4-1.1-.3-.3-.7-.4-1.2-.4s-.8.1-1.1.3c-.3.2-.5.5-.5.8h-1.3c0-.4.1-.7.4-1.1.3-.3.6-.6,1.1-.8.4-.2.9-.3,1.5-.3.9,0,1.5.2,2,.6.5.4.7,1,.8,1.8v3.4c0,.7,0,1.2.3,1.6h0c0,.1-1.3.1-1.3.1ZM977.3,97.6c.4,0,.8-.1,1.1-.3s.6-.5.8-.8v-1.5h-1c-1.5,0-2.3.5-2.3,1.4s.1.7.4.9c.3.2.6.3,1,.3Z"/>
      <path class="st9" d="M983.9,91.2v.8c.6-.6,1.3-1,2.2-1s1.7.4,2.1,1.2c.2-.4.6-.6,1-.9.4-.2.9-.3,1.4-.3,1.6,0,2.4.9,2.5,2.6v5h-1.3v-4.9c0-.5-.1-.9-.4-1.2-.2-.3-.6-.4-1.2-.4s-.9.1-1.2.4c-.3.3-.5.7-.5,1.1v4.9h-1.3v-4.8c0-1.1-.5-1.6-1.6-1.6s-1.4.4-1.7,1.1v5.4h-1.3v-7.4h1.2Z"/>
      <path class="st9" d="M998.3,98.7c-1,0-1.8-.3-2.4-1-.6-.7-.9-1.5-.9-2.6v-.2c0-.7.1-1.4.4-2,.3-.6.7-1,1.2-1.4.5-.3,1-.5,1.6-.5,1,0,1.7.3,2.2,1,.5.6.8,1.5.8,2.7v.5h-5c0,.7.2,1.3.6,1.8.4.4.9.7,1.6.7s.8,0,1.1-.3c.3-.2.6-.4.8-.7l.8.6c-.6,1-1.5,1.4-2.8,1.4ZM998.1,92.1c-.5,0-.9.2-1.3.6-.3.4-.6.9-.6,1.6h3.7c0-.7-.2-1.2-.5-1.6-.3-.4-.7-.5-1.3-.5Z"/>
      <path class="st9" d="M1004.2,91.2v.9c.6-.7,1.3-1.1,2.3-1.1,1.6,0,2.4.9,2.4,2.6v4.9h-1.3v-4.9c0-.5-.1-.9-.4-1.2-.2-.3-.6-.4-1.1-.4s-.8.1-1.1.3c-.3.2-.6.5-.7.9v5.3h-1.3v-7.4h1.2Z"/>
      <path class="st9" d="M1012.7,89.4v1.8h1.4v1h-1.4v4.6c0,.3,0,.5.2.7s.3.2.6.2.3,0,.6,0v1c-.3,0-.7.1-1,.1-.6,0-1-.2-1.3-.5s-.4-.8-.4-1.5v-4.6h-1.3v-1h1.3v-1.8h1.3Z"/>
      <path class="st9" d="M1018.7,98.7c-1,0-1.8-.3-2.4-1-.6-.7-.9-1.5-.9-2.6v-.2c0-.7.1-1.4.4-2,.3-.6.7-1,1.2-1.4.5-.3,1-.5,1.6-.5,1,0,1.7.3,2.2,1,.5.6.8,1.5.8,2.7v.5h-5c0,.7.2,1.3.6,1.8.4.4.9.7,1.6.7s.8,0,1.1-.3c.3-.2.6-.4.8-.7l.8.6c-.6,1-1.5,1.4-2.8,1.4ZM1018.5,92.1c-.5,0-.9.2-1.3.6-.3.4-.6.9-.6,1.6h3.7c0-.7-.2-1.2-.5-1.6-.3-.4-.7-.5-1.3-.5Z"/>
      <path class="st9" d="M1030.1,98.7c-1,0-1.8-.3-2.4-1-.6-.7-.9-1.5-.9-2.6v-.2c0-.7.1-1.4.4-2,.3-.6.7-1,1.2-1.4.5-.3,1-.5,1.6-.5,1,0,1.7.3,2.2,1,.5.6.8,1.5.8,2.7v.5h-5c0,.7.2,1.3.6,1.8.4.4.9.7,1.6.7s.8,0,1.1-.3c.3-.2.6-.4.8-.7l.8.6c-.6,1-1.5,1.4-2.8,1.4ZM1030,92.1c-.5,0-.9.2-1.3.6-.3.4-.6.9-.6,1.6h3.7c0-.7-.2-1.2-.5-1.6-.3-.4-.7-.5-1.3-.5Z"/>
      <path class="st9" d="M1036.1,98.6h-1.3v-10.5h1.3v10.5Z"/>
      <path class="st9" d="M1043.6,98.6h-1.3v-10.5h1.3v10.5Z"/>
      <path class="st9" d="M1045.5,94.8c0-.7.1-1.4.4-2,.3-.6.7-1,1.2-1.3.5-.3,1.1-.5,1.7-.5,1,0,1.8.3,2.4,1,.6.7.9,1.6.9,2.8h0c0,.8-.1,1.5-.4,2-.3.6-.7,1-1.2,1.3-.5.3-1.1.5-1.8.5-1,0-1.8-.3-2.4-1-.6-.7-.9-1.6-.9-2.8h0ZM1046.7,94.9c0,.8.2,1.5.6,2,.4.5.9.7,1.5.7s1.2-.3,1.5-.8c.4-.5.6-1.2.6-2.1s-.2-1.5-.6-2c-.4-.5-.9-.8-1.5-.8s-1.1.2-1.5.7c-.4.5-.6,1.2-.6,2.1Z"/>
      <path class="st9" d="M1053.7,94.8c0-1.2.3-2.1.8-2.8.5-.7,1.2-1,2.1-1s1.6.3,2.1,1v-.8h1.2v7.2c0,1-.3,1.7-.9,2.3-.6.6-1.3.8-2.3.8s-1.1-.1-1.6-.3c-.5-.2-.9-.5-1.2-.9l.7-.8c.5.7,1.2,1,2,1s1.1-.2,1.4-.5c.3-.3.5-.8.5-1.5v-.6c-.5.6-1.2.9-2.1.9s-1.6-.3-2.1-1c-.5-.7-.8-1.6-.8-2.9ZM1055,94.9c0,.8.2,1.5.5,2,.3.5.8.7,1.4.7s1.4-.4,1.8-1.1v-3.4c-.4-.7-1-1.1-1.7-1.1s-1.1.2-1.4.7c-.3.5-.5,1.2-.5,2.1Z"/>
      <path class="st9" d="M1061.8,94.8c0-.7.1-1.4.4-2,.3-.6.7-1,1.2-1.3.5-.3,1.1-.5,1.7-.5,1,0,1.8.3,2.4,1,.6.7.9,1.6.9,2.8h0c0,.8-.1,1.5-.4,2-.3.6-.7,1-1.2,1.3-.5.3-1.1.5-1.8.5-1,0-1.8-.3-2.4-1-.6-.7-.9-1.6-.9-2.8h0ZM1063.1,94.9c0,.8.2,1.5.6,2,.4.5.9.7,1.5.7s1.2-.3,1.5-.8c.4-.5.6-1.2.6-2.1s-.2-1.5-.6-2c-.4-.5-.9-.8-1.5-.8s-1.1.2-1.5.7c-.4.5-.6,1.2-.6,2.1Z"/>
      <path class="st9" d="M1072.1,89.4v1.8h1.4v1h-1.4v4.6c0,.3,0,.5.2.7s.3.2.6.2.3,0,.6,0v1c-.3,0-.7.1-1,.1-.6,0-1-.2-1.3-.5s-.4-.8-.4-1.5v-4.6h-1.3v-1h1.3v-1.8h1.3Z"/>
      <path class="st9" d="M1075.1,89.2c0-.2,0-.4.2-.5.1-.1.3-.2.6-.2s.4,0,.6.2c.1.1.2.3.2.5s0,.4-.2.5-.3.2-.6.2-.4,0-.6-.2c-.1-.1-.2-.3-.2-.5ZM1076.4,98.6h-1.3v-7.4h1.3v7.4Z"/>
      <path class="st9" d="M1084.9,94.9c0,1.1-.3,2-.8,2.7-.5.7-1.2,1-2.1,1s-1.6-.3-2.1-.9v3.6h-1.3v-10.2h1.2v.8c.6-.6,1.3-1,2.2-1s1.6.3,2.1,1c.5.7.8,1.6.8,2.8h0ZM1083.7,94.8c0-.8-.2-1.5-.5-2-.4-.5-.8-.7-1.5-.7s-1.3.3-1.7,1v3.5c.4.7,1,1,1.7,1s1.1-.2,1.4-.7c.4-.5.5-1.2.5-2.1Z"/>
      <path class="st9" d="M1086.5,94.8c0-.7.1-1.4.4-2,.3-.6.7-1,1.2-1.3s1.1-.5,1.7-.5c1,0,1.8.3,2.4,1s.9,1.6.9,2.8h0c0,.8-.1,1.5-.4,2-.3.6-.7,1-1.2,1.3-.5.3-1.1.5-1.8.5-1,0-1.8-.3-2.4-1s-.9-1.6-.9-2.8h0ZM1087.8,94.9c0,.8.2,1.5.6,2,.4.5.9.7,1.5.7s1.2-.3,1.5-.8c.4-.5.6-1.2.6-2.1s-.2-1.5-.6-2c-.4-.5-.9-.8-1.5-.8s-1.1.2-1.5.7c-.4.5-.6,1.2-.6,2.1Z"/>
      <path class="st9" d="M1098.5,94.8c0-.7.1-1.4.4-2,.3-.6.7-1,1.2-1.3.5-.3,1.1-.5,1.7-.5,1,0,1.8.3,2.4,1,.6.7.9,1.6.9,2.8h0c0,.8-.1,1.5-.4,2-.3.6-.7,1-1.2,1.3-.5.3-1.1.5-1.8.5-1,0-1.8-.3-2.4-1-.6-.7-.9-1.6-.9-2.8h0ZM1099.8,94.9c0,.8.2,1.5.6,2,.4.5.9.7,1.5.7s1.2-.3,1.5-.8c.4-.5.6-1.2.6-2.1s-.2-1.5-.6-2c-.4-.5-.9-.8-1.5-.8s-1.1.2-1.5.7c-.4.5-.6,1.2-.6,2.1Z"/>
      <path class="st9" d="M1113.9,98.7c-1,0-1.8-.3-2.4-1-.6-.7-.9-1.5-.9-2.6v-.2c0-.7.1-1.4.4-2,.3-.6.7-1,1.2-1.4.5-.3,1-.5,1.6-.5,1,0,1.7.3,2.2,1,.5.6.8,1.5.8,2.7v.5h-5c0,.7.2,1.3.6,1.8.4.4.9.7,1.6.7s.8,0,1.1-.3c.3-.2.6-.4.8-.7l.8.6c-.6,1-1.5,1.4-2.8,1.4ZM1113.7,92.1c-.5,0-.9.2-1.3.6-.3.4-.6.9-.6,1.6h3.7c0-.7-.2-1.2-.5-1.6-.3-.4-.7-.5-1.3-.5Z"/>
      <path class="st9" d="M1119.9,98.6h-1.3v-10.5h1.3v10.5Z"/>
      <path class="st9" d="M1126,89.2c0-.2,0-.4.2-.5.1-.1.3-.2.6-.2s.4,0,.6.2c.1.1.2.3.2.5s0,.4-.2.5c-.1.1-.3.2-.6.2s-.4,0-.6-.2-.2-.3-.2-.5ZM1127.3,98.6h-1.3v-7.4h1.3v7.4Z"/>
      <path class="st9" d="M1133.8,96.6c0-.3-.1-.6-.4-.8-.3-.2-.7-.4-1.3-.5-.6-.1-1.1-.3-1.5-.5-.4-.2-.7-.4-.8-.7-.2-.3-.3-.6-.3-.9,0-.6.3-1.1.8-1.5.5-.4,1.2-.6,2-.6s1.5.2,2,.6c.5.4.8,1,.8,1.7h-1.3c0-.3-.1-.6-.4-.9-.3-.3-.7-.4-1.1-.4s-.8.1-1.1.3c-.3.2-.4.5-.4.8s.1.5.4.7c.2.2.7.3,1.3.4.6.1,1.1.3,1.5.5.4.2.7.4.9.7.2.3.3.6.3,1,0,.7-.3,1.2-.8,1.6-.5.4-1.2.6-2.1.6s-1.1-.1-1.6-.3c-.5-.2-.8-.5-1.1-.9-.3-.4-.4-.8-.4-1.2h1.3c0,.4.2.8.5,1,.3.2.7.4,1.3.4s.9,0,1.2-.3c.3-.2.4-.5.4-.8Z"/>
      <path class="st9" d="M1136.6,94.8c0-.7.1-1.4.4-2,.3-.6.7-1,1.2-1.3s1.1-.5,1.7-.5c1,0,1.8.3,2.4,1s.9,1.6.9,2.8h0c0,.8-.1,1.5-.4,2-.3.6-.7,1-1.2,1.3-.5.3-1.1.5-1.8.5-1,0-1.8-.3-2.4-1s-.9-1.6-.9-2.8h0ZM1137.9,94.9c0,.8.2,1.5.6,2,.4.5.9.7,1.5.7s1.2-.3,1.5-.8c.4-.5.6-1.2.6-2.1s-.2-1.5-.6-2c-.4-.5-.9-.8-1.5-.8s-1.1.2-1.5.7c-.4.5-.6,1.2-.6,2.1Z"/>
      <path class="st9" d="M1146.8,89.4v1.8h1.4v1h-1.4v4.6c0,.3,0,.5.2.7s.3.2.6.2.3,0,.6,0v1c-.3,0-.7.1-1,.1-.6,0-1-.2-1.3-.5s-.4-.8-.4-1.5v-4.6h-1.3v-1h1.3v-1.8h1.3Z"/>
      <path class="st9" d="M1149.8,89.2c0-.2,0-.4.2-.5.1-.1.3-.2.6-.2s.4,0,.6.2c.1.1.2.3.2.5s0,.4-.2.5-.3.2-.6.2-.4,0-.6-.2c-.1-.1-.2-.3-.2-.5ZM1151.2,98.6h-1.3v-7.4h1.3v7.4Z"/>
      <path class="st9" d="M1159.7,94.9c0,1.1-.3,2-.8,2.7-.5.7-1.2,1-2.1,1s-1.6-.3-2.1-.9v3.6h-1.3v-10.2h1.2v.8c.6-.6,1.3-1,2.2-1s1.6.3,2.1,1c.5.7.8,1.6.8,2.8h0ZM1158.4,94.8c0-.8-.2-1.5-.5-2-.4-.5-.8-.7-1.5-.7s-1.3.3-1.7,1v3.5c.4.7,1,1,1.7,1s1.1-.2,1.4-.7c.4-.5.5-1.2.5-2.1Z"/>
      <path class="st9" d="M1161.2,94.8c0-.7.1-1.4.4-2,.3-.6.7-1,1.2-1.3s1.1-.5,1.7-.5c1,0,1.8.3,2.4,1s.9,1.6.9,2.8h0c0,.8-.1,1.5-.4,2-.3.6-.7,1-1.2,1.3-.5.3-1.1.5-1.8.5-1,0-1.8-.3-2.4-1s-.9-1.6-.9-2.8h0ZM1162.5,94.9c0,.8.2,1.5.6,2,.4.5.9.7,1.5.7s1.2-.3,1.5-.8c.4-.5.6-1.2.6-2.1s-.2-1.5-.6-2c-.4-.5-.9-.8-1.5-.8s-1.1.2-1.5.7c-.4.5-.6,1.2-.6,2.1Z"/>
      <path class="st9" d="M1177.9,96.6c0-.3-.1-.6-.4-.8-.3-.2-.7-.4-1.3-.5-.6-.1-1.1-.3-1.5-.5-.4-.2-.7-.4-.8-.7-.2-.3-.3-.6-.3-.9,0-.6.3-1.1.8-1.5.5-.4,1.2-.6,2-.6s1.5.2,2,.6c.5.4.8,1,.8,1.7h-1.3c0-.3-.1-.6-.4-.9-.3-.3-.7-.4-1.1-.4s-.8.1-1.1.3c-.3.2-.4.5-.4.8s.1.5.4.7c.2.2.7.3,1.3.4.6.1,1.1.3,1.5.5.4.2.7.4.9.7.2.3.3.6.3,1,0,.7-.3,1.2-.8,1.6-.5.4-1.2.6-2.1.6s-1.1-.1-1.6-.3c-.5-.2-.8-.5-1.1-.9-.3-.4-.4-.8-.4-1.2h1.3c0,.4.2.8.5,1,.3.2.7.4,1.3.4s.9,0,1.2-.3c.3-.2.4-.5.4-.8Z"/>
      <path class="st9" d="M1184.1,98.7c-1,0-1.8-.3-2.4-1-.6-.7-.9-1.5-.9-2.6v-.2c0-.7.1-1.4.4-2,.3-.6.7-1,1.2-1.4.5-.3,1-.5,1.6-.5,1,0,1.7.3,2.2,1,.5.6.8,1.5.8,2.7v.5h-5c0,.7.2,1.3.6,1.8.4.4.9.7,1.6.7s.8,0,1.1-.3c.3-.2.6-.4.8-.7l.8.6c-.6,1-1.5,1.4-2.8,1.4ZM1183.9,92.1c-.5,0-.9.2-1.3.6-.3.4-.6.9-.6,1.6h3.7c0-.7-.2-1.2-.5-1.6-.3-.4-.7-.5-1.3-.5Z"/>
      <path class="st9" d="M1188.4,94.8c0-1.2.3-2.1.8-2.8.5-.7,1.2-1,2.1-1s1.6.3,2.1,1v-.8h1.2v7.2c0,1-.3,1.7-.9,2.3-.6.6-1.3.8-2.3.8s-1.1-.1-1.6-.3c-.5-.2-.9-.5-1.2-.9l.7-.8c.5.7,1.2,1,2,1s1.1-.2,1.4-.5c.3-.3.5-.8.5-1.5v-.6c-.5.6-1.2.9-2.1.9s-1.6-.3-2.1-1c-.5-.7-.8-1.6-.8-2.9ZM1189.7,94.9c0,.8.2,1.5.5,2,.3.5.8.7,1.4.7s1.4-.4,1.8-1.1v-3.4c-.4-.7-1-1.1-1.7-1.1s-1.1.2-1.4.7-.5,1.2-.5,2.1Z"/>
      <path class="st9" d="M1201.4,97.8c-.5.6-1.2.9-2.2.9s-1.4-.2-1.8-.7-.6-1.1-.6-2v-4.8h1.3v4.8c0,1.1.5,1.7,1.4,1.7s1.6-.4,1.9-1.1v-5.4h1.3v7.4h-1.2v-.7ZM1200.4,88.1h1.5l-1.8,2h-1s1.3-2,1.3-2Z"/>
      <path class="st9" d="M1206,91.2v.9c.6-.7,1.3-1.1,2.3-1.1,1.6,0,2.4.9,2.4,2.6v4.9h-1.3v-4.9c0-.5-.1-.9-.4-1.2-.2-.3-.6-.4-1.1-.4s-.8.1-1.1.3-.6.5-.7.9v5.3h-1.3v-7.4h1.2Z"/>
      <path class="st9" d="M1218,98.6h-1.3v-10.5h1.3v10.5Z"/>
      <path class="st9" d="M1219.9,94.8c0-.7.1-1.4.4-2,.3-.6.7-1,1.2-1.3.5-.3,1.1-.5,1.7-.5,1,0,1.8.3,2.4,1,.6.7.9,1.6.9,2.8h0c0,.8-.1,1.5-.4,2-.3.6-.7,1-1.2,1.3-.5.3-1.1.5-1.8.5-1,0-1.8-.3-2.4-1-.6-.7-.9-1.6-.9-2.8h0ZM1221.1,94.9c0,.8.2,1.5.6,2,.4.5.9.7,1.5.7s1.2-.3,1.5-.8c.4-.5.6-1.2.6-2.1s-.2-1.5-.6-2c-.4-.5-.9-.8-1.5-.8s-1.1.2-1.5.7c-.4.5-.6,1.2-.6,2.1Z"/>
      <path class="st9" d="M1236.8,98.6c0-.1-.1-.4-.2-.8-.6.6-1.3.9-2.1.9s-1.3-.2-1.8-.6c-.5-.4-.7-.9-.7-1.6s.3-1.4.9-1.8c.6-.4,1.4-.6,2.5-.6h1.2v-.6c0-.4-.1-.8-.4-1.1-.3-.3-.7-.4-1.2-.4s-.8.1-1.1.3c-.3.2-.5.5-.5.8h-1.3c0-.4.1-.7.4-1.1.3-.3.6-.6,1.1-.8.4-.2.9-.3,1.5-.3.9,0,1.5.2,2,.6.5.4.7,1,.8,1.8v3.4c0,.7,0,1.2.3,1.6h0c0,.1-1.3.1-1.3.1ZM1234.7,97.6c.4,0,.8-.1,1.1-.3s.6-.5.8-.8v-1.5h-1c-1.5,0-2.3.5-2.3,1.4s.1.7.4.9c.3.2.6.3,1,.3Z"/>
      <path class="st9" d="M1241.3,91.2v.8c.6-.6,1.3-1,2.2-1s1.7.4,2.1,1.2c.2-.4.6-.6,1-.9s.9-.3,1.4-.3c1.6,0,2.4.9,2.5,2.6v5h-1.3v-4.9c0-.5-.1-.9-.4-1.2-.2-.3-.6-.4-1.2-.4s-.9.1-1.2.4c-.3.3-.5.7-.5,1.1v4.9h-1.3v-4.8c0-1.1-.5-1.6-1.6-1.6s-1.4.4-1.7,1.1v5.4h-1.3v-7.4h1.2Z"/>
      <path class="st9" d="M1255.7,98.7c-1,0-1.8-.3-2.4-1-.6-.7-.9-1.5-.9-2.6v-.2c0-.7.1-1.4.4-2,.3-.6.7-1,1.2-1.4.5-.3,1-.5,1.6-.5,1,0,1.7.3,2.2,1,.5.6.8,1.5.8,2.7v.5h-5c0,.7.2,1.3.6,1.8.4.4.9.7,1.6.7s.8,0,1.1-.3c.3-.2.6-.4.8-.7l.8.6c-.6,1-1.5,1.4-2.8,1.4ZM1255.5,92.1c-.5,0-.9.2-1.3.6-.3.4-.6.9-.6,1.6h3.7c0-.7-.2-1.2-.5-1.6-.3-.4-.7-.5-1.3-.5Z"/>
      <path class="st9" d="M1263.9,92.3c-.2,0-.4,0-.6,0-.8,0-1.4.4-1.7,1.1v5.2h-1.3v-7.4h1.2v.9c.4-.7,1-1,1.8-1s.4,0,.6,0v1.2Z"/>
      <path class="st9" d="M1265.4,89.2c0-.2,0-.4.2-.5.1-.1.3-.2.6-.2s.4,0,.6.2c.1.1.2.3.2.5s0,.4-.2.5-.3.2-.6.2-.4,0-.6-.2c-.1-.1-.2-.3-.2-.5ZM1266.7,98.6h-1.3v-7.4h1.3v7.4Z"/>
      <path class="st9" d="M1270.8,89.4v1.8h1.4v1h-1.4v4.6c0,.3,0,.5.2.7s.3.2.6.2.3,0,.6,0v1c-.3,0-.7.1-1,.1-.6,0-1-.2-1.3-.5s-.4-.8-.4-1.5v-4.6h-1.3v-1h1.3v-1.8h1.3Z"/>
      <path class="st9" d="M1276.8,98.7c-1,0-1.8-.3-2.4-1-.6-.7-.9-1.5-.9-2.6v-.2c0-.7.1-1.4.4-2,.3-.6.7-1,1.2-1.4.5-.3,1-.5,1.6-.5,1,0,1.7.3,2.2,1,.5.6.8,1.5.8,2.7v.5h-5c0,.7.2,1.3.6,1.8.4.4.9.7,1.6.7s.8,0,1.1-.3c.3-.2.6-.4.8-.7l.8.6c-.6,1-1.5,1.4-2.8,1.4ZM1276.6,92.1c-.5,0-.9.2-1.3.6-.3.4-.6.9-.6,1.6h3.7c0-.7-.2-1.2-.5-1.6-.3-.4-.7-.5-1.3-.5Z"/>
      <path class="st9" d="M1286.5,98.6h-1.3v-10.5h1.3v10.5Z"/>
      <path class="st9" d="M1293.3,98.6c0-.1-.1-.4-.2-.8-.6.6-1.3.9-2.1.9s-1.3-.2-1.8-.6c-.5-.4-.7-.9-.7-1.6s.3-1.4.9-1.8c.6-.4,1.4-.6,2.5-.6h1.2v-.6c0-.4-.1-.8-.4-1.1-.3-.3-.7-.4-1.2-.4s-.8.1-1.1.3c-.3.2-.5.5-.5.8h-1.3c0-.4.1-.7.4-1.1.3-.3.6-.6,1.1-.8.4-.2.9-.3,1.5-.3.9,0,1.5.2,2,.6.5.4.7,1,.8,1.8v3.4c0,.7,0,1.2.3,1.6h0c0,.1-1.3.1-1.3.1ZM1291.2,97.6c.4,0,.8-.1,1.1-.3s.6-.5.8-.8v-1.5h-1c-1.5,0-2.3.5-2.3,1.4s.1.7.4.9c.3.2.6.3,1,.3Z"/>
      <path class="st9" d="M1304.9,98.6c0-.1-.1-.4-.2-.8-.6.6-1.3.9-2.1.9s-1.3-.2-1.8-.6c-.5-.4-.7-.9-.7-1.6s.3-1.4.9-1.8c.6-.4,1.4-.6,2.5-.6h1.2v-.6c0-.4-.1-.8-.4-1.1-.3-.3-.7-.4-1.2-.4s-.8.1-1.1.3c-.3.2-.5.5-.5.8h-1.3c0-.4.1-.7.4-1.1.3-.3.6-.6,1.1-.8.4-.2.9-.3,1.5-.3.9,0,1.5.2,2,.6.5.4.7,1,.8,1.8v3.4c0,.7,0,1.2.3,1.6h0c0,.1-1.3.1-1.3.1ZM1302.8,97.6c.4,0,.8-.1,1.1-.3s.6-.5.8-.8v-1.5h-1c-1.5,0-2.3.5-2.3,1.4s.1.7.4.9c.3.2.6.3,1,.3Z"/>
      <path class="st9" d="M1314.4,94.9c0,1.1-.3,2-.8,2.7-.5.7-1.2,1-2.1,1s-1.6-.3-2.1-.9v3.6h-1.3v-10.2h1.2v.8c.6-.6,1.3-1,2.2-1s1.6.3,2.1,1c.5.7.8,1.6.8,2.8h0ZM1313.2,94.8c0-.8-.2-1.5-.5-2-.4-.5-.8-.7-1.5-.7s-1.3.3-1.7,1v3.5c.4.7,1,1,1.7,1s1.1-.2,1.4-.7c.4-.5.5-1.2.5-2.1Z"/>
      <path class="st9" d="M1317.7,98.6h-1.3v-10.5h1.3v10.5Z"/>
      <path class="st9" d="M1319.8,89.2c0-.2,0-.4.2-.5.1-.1.3-.2.6-.2s.4,0,.6.2c.1.1.2.3.2.5s0,.4-.2.5c-.1.1-.3.2-.6.2s-.4,0-.6-.2-.2-.3-.2-.5ZM1321.2,98.6h-1.3v-7.4h1.3v7.4Z"/>
      <path class="st9" d="M1326.4,97.7c.5,0,.8-.1,1.2-.4s.5-.6.6-1h1.2c0,.4-.2.8-.4,1.2s-.6.7-1.1.9c-.4.2-.9.3-1.4.3-1,0-1.8-.3-2.4-1-.6-.7-.9-1.6-.9-2.8v-.2c0-.7.1-1.4.4-1.9s.6-1,1.1-1.3c.5-.3,1.1-.5,1.8-.5s1.5.2,2.1.7c.5.5.8,1.1.9,1.9h-1.2c0-.5-.2-.9-.5-1.2-.3-.3-.7-.5-1.2-.5s-1.1.2-1.5.7c-.4.5-.5,1.1-.5,2v.2c0,.9.2,1.5.5,2,.4.5.9.7,1.5.7Z"/>
      <path class="st9" d="M1335.6,98.6c0-.1-.1-.4-.2-.8-.6.6-1.3.9-2.1.9s-1.3-.2-1.8-.6c-.5-.4-.7-.9-.7-1.6s.3-1.4.9-1.8c.6-.4,1.4-.6,2.5-.6h1.2v-.6c0-.4-.1-.8-.4-1.1-.3-.3-.7-.4-1.2-.4s-.8.1-1.1.3c-.3.2-.5.5-.5.8h-1.3c0-.4.1-.7.4-1.1.3-.3.6-.6,1.1-.8.4-.2.9-.3,1.5-.3.9,0,1.5.2,2,.6.5.4.7,1,.8,1.8v3.4c0,.7,0,1.2.3,1.6h0c0,.1-1.3.1-1.3.1ZM1333.5,97.6c.4,0,.8-.1,1.1-.3s.6-.5.8-.8v-1.5h-1c-1.5,0-2.3.5-2.3,1.4s.1.7.4.9c.3.2.6.3,1,.3Z"/>
      <path class="st9" d="M1341.8,97.7c.5,0,.8-.1,1.2-.4.3-.3.5-.6.6-1h1.2c0,.4-.2.8-.4,1.2-.3.4-.6.7-1.1.9-.4.2-.9.3-1.4.3-1,0-1.8-.3-2.4-1-.6-.7-.9-1.6-.9-2.8v-.2c0-.7.1-1.4.4-1.9.3-.6.6-1,1.1-1.3.5-.3,1.1-.5,1.8-.5s1.5.2,2.1.7c.5.5.8,1.1.9,1.9h-1.2c0-.5-.2-.9-.5-1.2s-.7-.5-1.2-.5-1.1.2-1.5.7c-.4.5-.5,1.1-.5,2v.2c0,.9.2,1.5.5,2,.4.5.9.7,1.5.7Z"/>
      <path class="st9" d="M1346.5,89.2c0-.2,0-.4.2-.5.1-.1.3-.2.6-.2s.4,0,.6.2c.1.1.2.3.2.5s0,.4-.2.5-.3.2-.6.2-.4,0-.6-.2c-.1-.1-.2-.3-.2-.5ZM1347.8,98.6h-1.3v-7.4h1.3v7.4Z"/>
      <path class="st9" d="M1349.7,94.8c0-.7.1-1.4.4-2,.3-.6.7-1,1.2-1.3s1.1-.5,1.7-.5c1,0,1.8.3,2.4,1s.9,1.6.9,2.8h0c0,.8-.1,1.5-.4,2-.3.6-.7,1-1.2,1.3-.5.3-1.1.5-1.8.5-1,0-1.8-.3-2.4-1s-.9-1.6-.9-2.8h0ZM1351,94.9c0,.8.2,1.5.6,2,.4.5.9.7,1.5.7s1.2-.3,1.5-.8c.4-.5.6-1.2.6-2.1s-.2-1.5-.6-2c-.4-.5-.9-.8-1.5-.8s-1.1.2-1.5.7c-.4.5-.6,1.2-.6,2.1ZM1353.7,88.1h1.5l-1.8,2h-1s1.3-2,1.3-2Z"/>
      <path class="st9" d="M1359.5,91.2v.9c.6-.7,1.3-1.1,2.3-1.1,1.6,0,2.4.9,2.4,2.6v4.9h-1.3v-4.9c0-.5-.1-.9-.4-1.2-.2-.3-.6-.4-1.1-.4s-.8.1-1.1.3-.6.5-.7.9v5.3h-1.3v-7.4h1.2Z"/>
    </g>
    <g>
      <path d="M852.5,823.2c0,.8-.5,1.7-1,1.7-.4,0-.8-.7-1.1-1.2-.5-.9-.4-1.3-.7-1.8-.6-1-1.9-.8-3.9-1.4-1.6-.5-3.8-1.4-3.7-1.9.1-.6,3.9-1,7.2.7.6.3,3.4,1.8,3.3,3.8Z"/>
      <path d="M887.4,830.7s0,.4-.2.7c-.4.8-3.2.9-6.7.4,0,0-.5-.4-.6-1-.1-.8.4-1.3.5-1.4,2-1.3,7-2.3,6.9,1.3Z"/>
      <path class="st10" d="M963.2,935.1c-.5-4.7-5.4-9.4-8.8-11.2-11.8-6.3-32.6-13.6-44.8-14.5-10.8-.7-21.7-1-32.3-1.3-7.7-.2-15.7-.4-23.5-.8-2.9-.1-5.5-.2-7.9-.2-11.3-.1-17.6-.2-25.8-10.7-1.3-1.6-2.2-3.4-3.1-5.4.1,0,.3,0,.4-.2,1.1-.5,1.4-1.1,4.3-6.4,1.2-2.2,2.7-4.9,3.3-5.7,10.8-14.5,31.7-26.1,48.8-27.1.8,0,1.6,0,2.5,0,4.3,0,9.3.5,14.5,1.1,5.7.6,11.5,1.2,17.1,1.2s12.5-1,16.7-3.1c1-.5,2.4-1.3,3.6-2.3.6-.6,1-1.4.9-2.2,0-1.3-.4-2.6-1-3.7-.7-1.4-1.8-2.7-3.1-3.6-.3-.2-.5-.3-.8-.4-5.5-1.5-11-3.1-16.4-4.8-5.3-1.7-10.6-3.5-15.8-5.3-5.5-6.1-15-9.8-28.4-11.2-.5,0-1.1,0-1.7,0s-1.5,0-2.2,0c-.7,0-1.3,0-2,0s-1.3,0-1.8-.1c-.4,0-1.3-.6-1.9-1-1-.6-2-1.2-3.2-1.6-2.7-.9-5.9-1.4-10-1.4s-6,.2-8.9.4c-2,.1-4,.3-5.7.3-1.3,0-2.4,1-2.6,2.3-.5,3.2,1.3,5.1,3.4,6.2-5.2,1.3-11.4,4.1-16.9,6.6-2.7,1.2-5.2,2.3-7.1,3.1-14,5.4-28,8-43,8s-4.3,0-6.4-.2c-9-.5-16.7-3-24.9-5.7-5.3-1.7-10.7-3.5-16.6-4.8-14.4-3.1-32.7-4.8-50-4.8s-30.6.9-45,5.4c-10.9,3.4-21.1,8.5-30.9,13.5-9.2,4.6-18.7,9.4-28.5,12.6-2.2.7-21.8,7-44.8,7s-29.8-3.1-40.7-9.1c-5.6-3.1-10-6.7-13.4-11-9.6-12.1-10-27-9.3-34.8.1-1.4-.8-2.7-2.2-2.9-.2,0-.3,0-.5,0-1.2,0-2.3.8-2.6,2-.6,2.2-1,4.5-1.3,6.8,0,.6-1.5,14.6,5.1,28.3,3.7,7.6,10.1,14.1,19.1,19.2,7.4,4.2,15.1,6.7,20.3,8.3,8.7,2.6,18.6,3.9,29.6,3.9s17.5-.8,26.5-2.3c-.7.8-1.6,1.8-2.6,2.9-1.7,1.9-3.5,3.9-4.4,4.7-9.2,8-17.7,11.6-27.6,11.6s-11.5-1.1-18.6-3.4c-.8-.3-1.3-.5-1.8-.8-.8-.4-1.6-.8-2.8-.8s-2.9.7-4.7,2c-4.3,3-8.4,7.2-12.4,11.2-4,4-8.1,8.1-12.4,11.2-2.1,1.5-5,3.1-8,4.8-5.7,3.2-11.5,6.4-14.7,10.4-.1.2-.3.4-.4.6-1.4,1.6-3,3.7-2,6,1,2.3,3.8,2.4,4.7,2.5.3,0,.7,0,1,0,3.9,0,9.3-1.1,12.8-2.3-.2.1-.3.3-.5.4-1.6,1.2-3.6,2.4-5.6,3.6-2.6,1.5-5.3,3.1-7.3,4.9-1,.9-5.9,5.8-5.1,9.2.3,1.2,1.2,2.1,2.5,2.5.7.2,1.6.3,3,.3s2.5,0,3.6-.1c.9,0,1.7,0,2.2,0,4.8,0,11-6.1,18.6-14.1,1.5-1.5,2.7-2.9,3.6-3.7,8.1-7.6,19.2-18.1,31.1-19,.6,0,1.3,0,2,0,4,0,8,.8,12.2,1.7,3,.6,6,1.3,9.1,1.6,7.5.8,17,1.3,24.3,1.3s5,0,7-.2c18.6-1.1,35.2-17.2,49.9-31.3,6.4-6.2,12.4-12,18.2-16.3,7-5.2,14.5-7.8,22.1-7.8,12.9,0,26.6,7,43.1,22.1,1.4,1.3,2.9,2.6,4.3,4,10.9,10.1,22.1,20.5,36.5,27.3,10,4.7,20.8,6.9,34,6.9s8.8-.2,14.4-.7c3.6-.3,7.1-.8,10.5-1.4,3.3-.5,6.8-1.1,10.2-1.3.4.3,1.1,1.2,1.6,1.8.9,1.2,1.9,2.5,3.2,3.3.9.5,2.4,1,10.3,1s5.4,0,7.2,0c.5,0,.9,0,1.3,0,5.8-.1,11.7-.3,17.6-.5,0,.2.1.4.2.6,1.1,2.3,3.7,2.8,5.4,3.2.3,0,.5.1.7.2,9.8,2.5,20.1,4.4,30,6.4,11.6,2.2,23.7,4.6,34.9,7.7,3,.8,6.2,1.8,9.1,3.2,2.9,1.4,5.6,3.4,8.5,5.6,5.9,4.3,12,8.8,19.8,8.8s.3,0,.5,0c.6,0,1.7-.2,2.7-.5.8-.2,3.4-1,3.5-3.3,0-.6-.2-1.2-.5-1.7-.3-.4-.5-.8-.8-1.2-.4-.7-.9-1.4-1.4-2.1-4.1-5.1-12.3-10.6-24.3-16.3-10.2-4.9-20.8-8.7-27.2-10.7-2.4-.7-4.7-1.3-6.7-1.8,1,0,1.9,0,2.9,0,2.2,0,4.4-.1,6.6-.2,3.6-.1,7-.3,10.4-.3,6.9,0,15.1.5,23.6,4.1,2.3,1,4.7,2.5,7.2,4,4.9,3.1,10,6.2,15.4,6.4h.2c.8,0,1.7-.2,2.5-.3.7-.1,1.4-.3,1.9-.3s.4,0,.5,0c.2,0,.4,0,.6,0,.6,0,1.3-.2,1.8-.7.7-.6,1-1.4.9-2.3ZM435.7,931.1c-4.3-.2-1.9-2.6-.2-4.6,4.4-5.5,15.9-10.2,22.1-14.7,9-6.4,16.5-16.6,24.8-22.4,3.8-2.7,3.3-1.2,6.9,0,19.1,6.3,33.3,4.8,48.7-8.7,2.3-2,7.8-8.9,10-10.5,1.9-.4,3.8-.8,5.8-1.2-2.3,2.6-4.5,5.8-6.7,9-1.9,2.8-3.7,5.4-5.3,7.2-8.2,9.1-19.8,14.2-34.5,15.1-1.7.1-3.3.2-5.1.2s-3.7,0-5.7-.2c-.5,0-1.1,0-1.6-.2-1-.1-2-.4-3.1-.6-2.1-.4-4.4-.9-6.3-.9-4.5,0-9.7,5.7-16.1,13.1-1.1,1.3-2.1,2.5-2.8,3.2-1.1,1.1-2.2,2.2-3.3,3.4-1.7,1.8-3.5,3.6-5.3,5.5-2.5,2-5.3,3.7-8.4,4.9-3.6,1.4-10,2.7-13.8,2.5ZM894.6,929c13.4,4.1,41.5,15.3,50.2,26.1.8,1,1.4,2.2,2.2,3.2,0,.7-2.8,1.2-3.5,1.2-10.8.2-18.4-9.5-27.5-14.1-3-1.5-6.3-2.5-9.6-3.4-21-5.8-43.8-8.7-65-14-1.2-.3-3-.5-3.9-1.4,6.8-.3,13.6-.6,20.3-.9,4.2-.2,8.5-.4,12.8-.6,7.6,0,14,.7,24,3.8ZM954.8,935.8c-7.4-.2-14.7-7.3-21.6-10.2-13.7-5.8-27.1-4.2-41.7-3.8-6.9.2-13.9.4-20.8.7h0c-11.7.5-23.4,1.1-35.2,1.5-6.2.2-12.4.4-18.6.5-3,0-15.6.5-17.4-.5-2.1-1.2-3.5-5.3-5.9-5.5-7.1.5-14.1,2.2-21.1,2.7-16.5,1.4-31.8,1.2-47-6-15.8-7.5-27.6-19.3-40.1-30.8-19.3-17.7-43.8-32.9-68.7-14.5-19.4,14.3-41.3,45.5-66.6,47-8.7.5-22.1-.2-30.9-1.1-7.9-.8-15.8-3.8-23.8-3.2-12.7,1-23.9,11.4-32.8,19.7-4.1,3.9-15,17.1-20.3,17.1s-6.7.4-8.1,0c-2.3-.6,3-6.3,3.8-7.1,3.2-3,8.9-5.4,12.7-8.4,3-2.3,6.1-5.3,9.1-8.3,3-3.1,6-6.2,8.7-9,3.2-3.3,12.3-15.4,17-15.4s6.1,1,9.1,1.4c.6,0,1.2.2,1.8.2,3.8.2,7.6.2,11.4,0,13.7-.9,26.4-5.3,36-16,3.9-4.3,8.3-12.4,12.9-17.1,1-1,2-1.9,3.1-2.6,3-1.9,10.8-3.5,14.8-5.2,1-.5,3-1.1,3.8-1.6,1.6-1.1,2-3-.6-2.3-2.9.8-7.2,3.2-10.4,4.2-4.2,1.4-8.6,2.6-13.1,3.8-2.3.6-4.7,1.1-7.2,1.6-19.6,3.8-41.4,4.5-59-.7-10.2-3-29.8-9.7-37.7-26.1-6.4-13.1-4.9-26.8-4.9-26.8.3-2.7.8-4.9,1.2-6.4-.5,6.2-1.1,22.9,9.9,36.7,2.4,3,6.6,7.5,14.3,11.7,31.6,17.5,76.6,6,87.7,2.3,20.6-6.8,38.7-19.7,59.4-26.1,25.3-7.9,67.7-6.1,93.6-.5,14.7,3.1,26.6,9.8,41.9,10.6,17.5.9,34.2-1.8,50.5-8,7.4-2.8,21.1-10.3,28.7-10.3,2.2,0,8.3,4,11.5,4.6,1.2.2,6.2.8,6.5-.6.3-1.6-5.4-1.6-7.2-2-3.2-.9-7.1-3.1-10.2-4.4-2.5-1.1-7.6-1.4-7-5.2,7.1-.2,17-1.8,23.6.4,1.8.6,3.9,2.4,5.4,2.7,2.5.5,5.5-.1,8,.1,9.1.9,21,3.6,27.1,10.8,5.3,1.9,10.8,3.8,16.5,5.6,5.6,1.8,11.1,3.4,16.5,4.9.5.4,1.6,1.2,2.3,2.6.5,1.1.7,2.1.7,2.7-.9.8-2,1.4-3.1,2-13.1,6.4-35.3-.2-49.7.6-18.5,1-39.9,13.4-50.8,28.2-1.4,1.9-6,11-6.5,11.3-1,.5-1.4-2.6-1.6-3.2-.8-2.8-1.9-10.8-3.8-12.4-.7-.6-.9-.7-1.9-.6,2.7,8.4,3.4,18.8,9,25.9,10.9,14,19.4,11.2,35.7,12,18.6.9,37.2.9,55.8,2.1,12.3.8,32.7,8.3,43.8,14.2,3,1.6,7.1,5.7,7.4,9.1-1.9-.5-4.1.5-5.7.4Z"/>
      <g>
        <path class="st12" d="M953.1,926.3c-11-5.9-31.5-13.3-43.8-14.2-18.5-1.3-37.2-1.2-55.8-2.1-16.2-.8-24.8,2-35.7-12-5.5-7.1-6.3-17.5-9-25.9.9-.2,1.2,0,1.9.6,1.9,1.6,3,9.7,3.8,12.4.2.6.7,3.7,1.6,3.2.6-.3,5.1-9.4,6.5-11.3,11-14.8,32.3-27.2,50.8-28.2,14.4-.8,36.7,5.8,49.7-.6,1.1-.5,2.2-1.2,3.1-2,0-.6-.2-1.6-.7-2.7-.7-1.4-1.7-2.3-2.3-2.6-5.3-1.5-10.8-3.1-16.5-4.9-5.7-1.8-11.3-3.7-16.5-5.6-6.1-7.3-17.9-9.9-27.1-10.8-2.5-.3-5.5.4-8-.1-1.5-.3-3.6-2-5.4-2.7-6.7-2.3-16.6-.6-23.6-.4-.6,3.8,4.6,4.1,7,5.2,3.1,1.4,7,3.6,10.2,4.4,1.8.5,7.5.4,7.2,2-.3,1.4-5.3.8-6.5.6-3.2-.6-9.3-4.6-11.5-4.6-7.5,0-21.3,7.5-28.7,10.3-16.3,6.3-32.9,8.9-50.5,8-15.3-.8-27.2-7.5-41.9-10.6-26-5.5-68.4-7.3-93.6.5-20.8,6.4-38.8,19.3-59.4,26.1-11.1,3.6-56.1,15.1-87.7-2.3-7.6-4.2-11.8-8.7-14.3-11.7-11-13.8-10.4-30.5-9.9-36.7-.4,1.6-.9,3.8-1.2,6.4,0,0-1.5,13.6,4.9,26.8,8,16.3,27.5,23,37.7,26.1,17.6,5.2,39.4,4.6,59,.7,2.4-.5,4.8-1,7.2-1.6,4.6-1.1,9-2.4,13.1-3.8,3.2-1.1,7.5-3.5,10.4-4.2,2.6-.7,2.3,1.2.6,2.3-.8.5-2.7,1.2-3.8,1.6-4,1.8-11.8,3.3-14.8,5.2-1,.6-2.1,1.5-3.1,2.6-4.6,4.7-9.1,12.8-12.9,17.1-9.6,10.6-22.4,15.1-36,16-3.7.2-7.5.2-11.4,0-.6,0-1.2-.1-1.8-.2-3-.4-6.4-1.4-9.1-1.4-4.6,0-13.8,12.1-17,15.4-2.7,2.8-5.7,5.9-8.7,9-3,3-6.2,6-9.1,8.3-3.8,3-9.5,5.3-12.7,8.4-.8.7-6.1,6.4-3.8,7.1,1.4.4,6.2,0,8.1,0,5.2,0,16.2-13.2,20.3-17.1,8.8-8.3,20.1-18.8,32.8-19.7,8-.6,15.9,2.4,23.8,3.2,8.8.9,22.2,1.7,30.9,1.1,25.3-1.6,47.2-32.7,66.6-47,24.9-18.4,49.4-3.2,68.7,14.5,12.5,11.5,24.3,23.3,40.1,30.8,15.2,7.2,30.5,7.4,47,6,7.1-.6,14.1-2.2,21.1-2.7,2.4.2,3.8,4.3,5.9,5.5,1.7,1,14.3.6,17.4.5,6.2-.1,12.4-.3,18.6-.5,11.7-.4,23.4-1,35.2-1.5h0c7-.3,13.9-.6,20.8-.7,14.6-.4,28-2,41.7,3.8,6.9,2.9,14.3,10,21.6,10.2,1.6,0,3.8-.9,5.7-.4-.4-3.4-4.4-7.5-7.4-9.1ZM880.5,829.4c2-1.3,7-2.3,6.9,1.3,0,0,0,.4-.2.7-.4.8-3.2.9-6.7.4,0,0-.5-.4-.6-1-.1-.8.4-1.3.5-1.4ZM850.3,823.8c-.5-.9-.4-1.3-.7-1.8-.6-1-1.9-.8-3.9-1.4-1.6-.5-3.8-1.4-3.7-1.9.1-.6,3.9-1,7.2.7.6.3,3.4,1.8,3.3,3.8,0,.8-.5,1.7-1,1.7-.4,0-.8-.7-1.1-1.2Z"/>
        <path class="st12" d="M553.8,869c-2.3,2.6-4.5,5.8-6.7,9-1.9,2.8-3.7,5.4-5.3,7.2-8.2,9.1-19.8,14.2-34.5,15.1-1.7.1-3.3.2-5.1.2s-3.7,0-5.7-.2c-.5,0-1.1,0-1.6-.2-1-.1-2-.4-3.1-.6-2.1-.4-4.4-.9-6.3-.9-4.5,0-9.7,5.7-16.1,13.1-1.1,1.3-2.1,2.5-2.8,3.2-1.1,1.1-2.2,2.2-3.3,3.4-1.7,1.8-3.5,3.6-5.3,5.5-2.5,2-5.3,3.7-8.4,4.9-3.6,1.4-10,2.7-13.8,2.5-4.3-.2-1.9-2.6-.2-4.6,4.4-5.5,15.9-10.2,22.1-14.7,9-6.4,16.5-16.6,24.8-22.4,3.8-2.7,3.3-1.2,6.9,0,19.1,6.3,33.3,4.8,48.7-8.7,2.3-2,7.8-8.9,10-10.5,1.9-.4,3.8-.8,5.8-1.2Z"/>
        <path class="st12" d="M947,958.4c0,.7-2.8,1.2-3.5,1.2-10.8.2-18.4-9.5-27.5-14.1-3-1.5-6.3-2.5-9.6-3.4-21-5.8-43.8-8.7-65-14-1.2-.3-3-.5-3.9-1.4,6.8-.3,13.6-.6,20.3-.9,4.2-.2,8.5-.4,12.8-.6,7.6,0,14,.7,24,3.8,13.4,4.1,41.5,15.3,50.2,26.1.8,1,1.4,2.2,2.2,3.2Z"/>
      </g>
    </g>
    <g>
      <path d="M1590.8,823.2c0,.8-.5,1.7-1,1.7-.4,0-.8-.7-1.1-1.2-.5-.9-.4-1.3-.7-1.8-.6-1-1.9-.8-3.9-1.4-1.6-.5-3.8-1.4-3.7-1.9.1-.6,3.9-1,7.2.7.6.3,3.4,1.8,3.3,3.8Z"/>
      <path d="M1625.8,830.7s0,.4-.2.7c-.4.8-3.2.9-6.7.4,0,0-.5-.4-.6-1-.1-.8.4-1.3.5-1.4,2-1.3,7-2.3,6.9,1.3Z"/>
      <path class="st10" d="M1701.5,935.1c-.5-4.7-5.4-9.4-8.8-11.2-11.8-6.3-32.6-13.6-44.8-14.5-10.8-.7-21.7-1-32.3-1.3-7.7-.2-15.7-.4-23.5-.8-2.9-.1-5.5-.2-7.9-.2-11.3-.1-17.6-.2-25.8-10.7-1.3-1.6-2.2-3.4-3.1-5.4.1,0,.3,0,.4-.2,1.1-.5,1.4-1.1,4.3-6.4,1.2-2.2,2.7-4.9,3.3-5.7,10.8-14.5,31.7-26.1,48.8-27.1.8,0,1.6,0,2.5,0,4.3,0,9.3.5,14.5,1.1,5.7.6,11.5,1.2,17.1,1.2s12.5-1,16.7-3.1c1-.5,2.4-1.3,3.6-2.3.6-.6,1-1.4.9-2.2,0-1.3-.4-2.6-1-3.7-.7-1.4-1.8-2.7-3.1-3.6-.3-.2-.5-.3-.8-.4-5.5-1.5-11-3.1-16.4-4.8-5.3-1.7-10.6-3.5-15.8-5.3-5.5-6.1-15-9.8-28.4-11.2-.5,0-1.1,0-1.7,0s-1.5,0-2.2,0c-.7,0-1.3,0-2,0s-1.3,0-1.8-.1c-.4,0-1.3-.6-1.9-1-1-.6-2-1.2-3.2-1.6-2.7-.9-5.9-1.4-10-1.4s-6,.2-8.9.4c-2,.1-4,.3-5.7.3-1.3,0-2.4,1-2.6,2.3-.5,3.2,1.3,5.1,3.4,6.2-5.2,1.3-11.4,4.1-16.9,6.6-2.7,1.2-5.2,2.3-7.1,3.1-14,5.4-28,8-43,8s-4.3,0-6.4-.2c-9-.5-16.7-3-24.9-5.7-5.3-1.7-10.7-3.5-16.6-4.8-14.4-3.1-32.7-4.8-50-4.8s-30.6.9-45,5.4c-10.9,3.4-21.1,8.5-30.9,13.5-9.2,4.6-18.7,9.4-28.5,12.6-2.2.7-21.8,7-44.8,7s-29.8-3.1-40.7-9.1c-5.6-3.1-10-6.7-13.4-11-9.6-12.1-10-27-9.3-34.8.1-1.4-.8-2.7-2.2-2.9-.2,0-.3,0-.5,0-1.2,0-2.3.8-2.6,2-.6,2.2-1,4.5-1.3,6.8,0,.6-1.5,14.6,5.1,28.3,3.7,7.6,10.1,14.1,19.1,19.2,7.4,4.2,15.1,6.7,20.3,8.3,8.7,2.6,18.6,3.9,29.6,3.9s17.5-.8,26.5-2.3c-.7.8-1.6,1.8-2.6,2.9-1.7,1.9-3.5,3.9-4.4,4.7-9.2,8-17.7,11.6-27.6,11.6s-11.5-1.1-18.6-3.4c-.8-.3-1.3-.5-1.8-.8-.8-.4-1.6-.8-2.8-.8s-2.9.7-4.7,2c-4.3,3-8.4,7.2-12.4,11.2-4,4-8.1,8.1-12.4,11.2-2.1,1.5-5,3.1-8,4.8-5.7,3.2-11.5,6.4-14.7,10.4-.1.2-.3.4-.4.6-1.4,1.6-3,3.7-2,6,1,2.3,3.8,2.4,4.7,2.5.3,0,.7,0,1,0,3.9,0,9.3-1.1,12.8-2.3-.2.1-.3.3-.5.4-1.6,1.2-3.6,2.4-5.6,3.6-2.6,1.5-5.3,3.1-7.3,4.9-1,.9-5.9,5.8-5.1,9.2.3,1.2,1.2,2.1,2.5,2.5.7.2,1.6.3,3,.3s2.5,0,3.6-.1c.9,0,1.7,0,2.2,0,4.8,0,11-6.1,18.6-14.1,1.5-1.5,2.7-2.9,3.6-3.7,8.1-7.6,19.2-18.1,31.1-19,.6,0,1.3,0,2,0,4,0,8,.8,12.2,1.7,3,.6,6,1.3,9.1,1.6,7.5.8,17,1.3,24.3,1.3s5,0,7-.2c18.6-1.1,35.2-17.2,49.9-31.3,6.4-6.2,12.4-12,18.2-16.3,7-5.2,14.5-7.8,22.1-7.8,12.9,0,26.6,7,43.1,22.1,1.4,1.3,2.9,2.6,4.3,4,10.9,10.1,22.1,20.5,36.5,27.3,10,4.7,20.8,6.9,34,6.9s8.8-.2,14.4-.7c3.6-.3,7.1-.8,10.5-1.4,3.3-.5,6.8-1.1,10.2-1.3.4.3,1.1,1.2,1.6,1.8.9,1.2,1.9,2.5,3.2,3.3.9.5,2.4,1,10.3,1s5.4,0,7.2,0c.5,0,.9,0,1.3,0,5.8-.1,11.7-.3,17.6-.5,0,.2.1.4.2.6,1.1,2.3,3.7,2.8,5.4,3.2.3,0,.5.1.7.2,9.8,2.5,20.1,4.4,30,6.4,11.6,2.2,23.7,4.6,34.9,7.7,3,.8,6.2,1.8,9.1,3.2,2.9,1.4,5.6,3.4,8.5,5.6,5.9,4.3,12,8.8,19.8,8.8s.3,0,.5,0c.6,0,1.7-.2,2.7-.5.8-.2,3.4-1,3.5-3.3,0-.6-.2-1.2-.5-1.7-.3-.4-.5-.8-.8-1.2-.4-.7-.9-1.4-1.4-2.1-4.1-5.1-12.3-10.6-24.3-16.3-10.2-4.9-20.8-8.7-27.2-10.7-2.4-.7-4.7-1.3-6.7-1.8,1,0,1.9,0,2.9,0,2.2,0,4.4-.1,6.6-.2,3.6-.1,7-.3,10.4-.3,6.9,0,15.1.5,23.6,4.1,2.3,1,4.7,2.5,7.2,4,4.9,3.1,10,6.2,15.4,6.4h.2c.8,0,1.7-.2,2.5-.3.7-.1,1.4-.3,1.9-.3s.4,0,.5,0c.2,0,.4,0,.6,0,.6,0,1.3-.2,1.8-.7.7-.6,1-1.4.9-2.3ZM1174.1,931.1c-4.3-.2-1.9-2.6-.2-4.6,4.4-5.5,15.9-10.2,22.1-14.7,9-6.4,16.5-16.6,24.8-22.4,3.8-2.7,3.3-1.2,6.9,0,19.1,6.3,33.3,4.8,48.7-8.7,2.3-2,7.8-8.9,10-10.5,1.9-.4,3.8-.8,5.8-1.2-2.3,2.6-4.5,5.8-6.7,9-1.9,2.8-3.7,5.4-5.3,7.2-8.2,9.1-19.8,14.2-34.5,15.1-1.7.1-3.3.2-5.1.2s-3.7,0-5.7-.2c-.5,0-1.1,0-1.6-.2-1-.1-2-.4-3.1-.6-2.1-.4-4.4-.9-6.3-.9-4.5,0-9.7,5.7-16.1,13.1-1.1,1.3-2.1,2.5-2.8,3.2-1.1,1.1-2.2,2.2-3.3,3.4-1.7,1.8-3.5,3.6-5.3,5.5-2.5,2-5.3,3.7-8.4,4.9-3.6,1.4-10,2.7-13.8,2.5ZM1632.9,929c13.4,4.1,41.5,15.3,50.2,26.1.8,1,1.4,2.2,2.2,3.2,0,.7-2.8,1.2-3.5,1.2-10.8.2-18.4-9.5-27.5-14.1-3-1.5-6.3-2.5-9.6-3.4-21-5.8-43.8-8.7-65-14-1.2-.3-3-.5-3.9-1.4,6.8-.3,13.6-.6,20.3-.9,4.2-.2,8.5-.4,12.8-.6,7.6,0,14,.7,24,3.8ZM1693.1,935.8c-7.4-.2-14.7-7.3-21.6-10.2-13.7-5.8-27.1-4.2-41.7-3.8-6.9.2-13.9.4-20.8.7h0c-11.7.5-23.4,1.1-35.2,1.5-6.2.2-12.4.4-18.6.5-3,0-15.6.5-17.4-.5-2.1-1.2-3.5-5.3-5.9-5.5-7.1.5-14.1,2.2-21.1,2.7-16.5,1.4-31.8,1.2-47-6-15.8-7.5-27.6-19.3-40.1-30.8-19.3-17.7-43.8-32.9-68.7-14.5-19.4,14.3-41.3,45.5-66.6,47-8.7.5-22.1-.2-30.9-1.1-7.9-.8-15.8-3.8-23.8-3.2-12.7,1-23.9,11.4-32.8,19.7-4.1,3.9-15,17.1-20.3,17.1s-6.7.4-8.1,0c-2.3-.6,3-6.3,3.8-7.1,3.2-3,8.9-5.4,12.7-8.4,3-2.3,6.1-5.3,9.1-8.3,3-3.1,6-6.2,8.7-9,3.2-3.3,12.3-15.4,17-15.4s6.1,1,9.1,1.4c.6,0,1.2.2,1.8.2,3.8.2,7.6.2,11.4,0,13.7-.9,26.4-5.3,36-16,3.9-4.3,8.3-12.4,12.9-17.1,1-1,2-1.9,3.1-2.6,3-1.9,10.8-3.5,14.8-5.2,1-.5,3-1.1,3.8-1.6,1.6-1.1,1.8-3.4-.6-2.3s-7.2,3.2-10.4,4.2c-4.2,1.4-8.6,2.6-13.1,3.8-2.3.6-4.7,1.1-7.2,1.6-19.6,3.8-41.4,4.5-59-.7-10.2-3-29.8-9.7-37.7-26.1-6.4-13.1-4.9-26.8-4.9-26.8.3-2.7.8-4.9,1.2-6.4-.5,6.2-1.1,22.9,9.9,36.7,2.4,3,6.6,7.5,14.3,11.7,31.6,17.5,76.6,6,87.7,2.3,20.6-6.8,38.7-19.7,59.4-26.1,25.3-7.9,67.7-6.1,93.6-.5,14.7,3.1,26.6,9.8,41.9,10.6,17.5.9,34.2-1.8,50.5-8,7.4-2.8,21.1-10.3,28.7-10.3,2.2,0,8.3,4,11.5,4.6,1.2.2,6.2.8,6.5-.6.3-1.6-5.4-1.6-7.2-2-3.2-.9-7.1-3.1-10.2-4.4-2.5-1.1-7.6-1.4-7-5.2,7.1-.2,17-1.8,23.6.4,1.8.6,3.9,2.4,5.4,2.7,2.5.5,5.5-.1,8,.1,9.1.9,21,3.6,27.1,10.8,5.3,1.9,10.8,3.8,16.5,5.6,5.6,1.8,11.1,3.4,16.5,4.9.5.4,1.6,1.2,2.3,2.6.5,1.1.7,2.1.7,2.7-.9.8-2,1.4-3.1,2-13.1,6.4-35.3-.2-49.7.6-18.5,1-39.9,13.4-50.8,28.2-1.4,1.9-6,11-6.5,11.3-1,.5-1.4-2.6-1.6-3.2-.8-2.8-1.9-10.8-3.8-12.4-.7-.6-.9-.7-1.9-.6,2.7,8.4,3.4,18.8,9,25.9,10.9,14,19.4,11.2,35.7,12,18.6.9,37.2.9,55.8,2.1,12.3.8,32.7,8.3,43.8,14.2,3,1.6,7.1,5.7,7.4,9.1-1.9-.5-4.1.5-5.7.4Z"/>
    </g>
  </g>
  <g id="Capa_1">
    <text class="st8" transform="translate(67.3 984.9)"><tspan x="0" y="0">2025</tspan><tspan x="0" y="14">Veloz</tspan><tspan x="0" y="28">Manual de Marca</tspan></text>
    <line class="st0" x1="67.3" y1="178.2" x2="1852.7" y2="178.2"/>
    <g>
      <line class="st1" x1="103.7" y1="57.1" x2="103.7" y2="129.8"/>
      <line class="st1" x1="67.3" y1="93.5" x2="140.1" y2="93.5"/>
    </g>
    <text class="st5" transform="translate(421.8 97.1)"><tspan x="0" y="0">Versiones</tspan></text>
    <text class="st6" transform="translate(348.2 97.1)"><tspan x="0" y="0">2.4</tspan></text>
    <text class="st7" transform="translate(67.3 284.1)"><tspan class="st11"><tspan x="0" y="0">Colores</tspan></tspan><tspan class="st13"><tspan x="0" y="59.9">Imagotipo</tspan></tspan><tspan class="st11"><tspan x="0" y="119.8">Tipografa</tspan></tspan><tspan class="st11"><tspan x="0" y="179.7">Aplicaciones</tspan></tspan></text>
    <path class="st10" d="M104.6,110.2v-12.9c1.5-.3,2.7-1.5,3-3h12.9c-.5,8.5-7.3,15.4-15.9,15.9h0ZM86.9,94.4h12.9c.3,1.5,1.5,2.7,3,3v12.9c-8.5-.5-15.4-7.3-15.9-15.9h0ZM102.8,76.7v12.9c-1.5.3-2.7,1.5-3,3h-12.9c.5-8.5,7.3-15.4,15.9-15.9h0ZM120.5,92.6h-12.9c-.3-1.5-1.5-2.7-3-3v-12.9c8.5.5,15.4,7.3,15.9,15.9h0ZM140.1,92.6h-18.1c-.5-9.4-8-16.9-17.4-17.4v-18.1h-1.8v18.1c-9.4.5-16.9,8-17.4,17.4h-18.1v1.8h18.1c.5,9.4,8,16.9,17.4,17.4v18.1h1.8v-18.1c9.4-.5,16.9-8,17.4-17.4h18.1v-1.8Z"/>
    <path class="st3" d="M1172.2,488.2c-1,1.1-1.8,2.3-2.4,3.7-.6,1.4-.9,2.8-.9,4.4v35.2c0,1.6.3,3.1.9,4.4.6,1.4,1.4,2.6,2.4,3.6,1,1,2.2,1.8,3.6,2.4,1.4.6,2.8.9,4.4.9h6.8c2.4,0,4.9,0,7.4,0,2.5,0,4.9,0,7.4,0h6.8c1.5,0,2.9-.3,4.3-.8,1.4-.6,2.6-1.4,3.7-2.5,1.1-1.1,1.9-2.3,2.5-3.7.6-1.4.8-2.8.8-4.3v-35.4c0-3.1-1.1-5.8-3.3-8-1-1.1-2.2-1.9-3.6-2.5-1.4-.6-2.8-.8-4.4-.8h-28.3c-3.1,0-5.8,1.1-8,3.3Z"/>
    <path class="st3" d="M1223.2,488.2c-1,1.1-1.8,2.3-2.4,3.7-.6,1.4-.9,2.8-.9,4.4v35.2c0,1.6.3,3.1.9,4.4.6,1.4,1.4,2.6,2.4,3.6,1,1,2.2,1.8,3.6,2.4,1.4.6,2.8.9,4.4.9h6.8c2.4,0,4.9,0,7.4,0,2.5,0,4.9,0,7.4,0h6.8c1.5,0,2.9-.3,4.3-.8,1.4-.6,2.6-1.4,3.7-2.5,1.1-1.1,1.9-2.3,2.5-3.7.6-1.4.8-2.8.8-4.3v-35.4c0-3.1-1.1-5.8-3.3-8-1-1.1-2.2-1.9-3.6-2.5-1.4-.6-2.8-.8-4.4-.8h-28.3c-3.1,0-5.8,1.1-8,3.3Z"/>
    <path class="st3" d="M1751.7,563.4c-1,1.1-1.8,2.3-2.4,3.7-.6,1.4-.9,2.8-.9,4.4v35.2c0,1.6.3,3.1.9,4.4.6,1.4,1.4,2.6,2.4,3.6,1,1,2.2,1.8,3.6,2.4,1.4.6,2.8.9,4.4.9h6.8c2.4,0,4.9,0,7.4,0,2.5,0,4.9,0,7.4,0h6.8c1.5,0,2.9-.3,4.3-.8,1.4-.6,2.6-1.4,3.7-2.5,1.1-1.1,1.9-2.3,2.5-3.7.6-1.4.8-2.8.8-4.3v-35.4c0-3.1-1.1-5.8-3.3-8-1-1.1-2.2-1.9-3.6-2.5-1.4-.6-2.8-.8-4.4-.8h-28.3c-3.1,0-5.8,1.1-8,3.3Z"/>
    <path class="st3" d="M1802.7,563.4c-1,1.1-1.8,2.3-2.4,3.7-.6,1.4-.9,2.8-.9,4.4v35.2c0,1.6.3,3.1.9,4.4.6,1.4,1.4,2.6,2.4,3.6,1,1,2.2,1.8,3.6,2.4,1.4.6,2.8.9,4.4.9h6.8c2.4,0,4.9,0,7.4,0,2.5,0,4.9,0,7.4,0h6.8c1.5,0,2.9-.3,4.3-.8,1.4-.6,2.6-1.4,3.7-2.5,1.1-1.1,1.9-2.3,2.5-3.7.6-1.4.8-2.8.8-4.3v-35.4c0-3.1-1.1-5.8-3.3-8-1-1.1-2.2-1.9-3.6-2.5-1.4-.6-2.8-.8-4.4-.8h-28.3c-3.1,0-5.8,1.1-8,3.3Z"/>
    <path class="st3" d="M1625.3,407.8c1.1,1,2.3,1.8,3.7,2.4,1.4.6,2.8.9,4.4.9h35.2c1.6,0,3.1-.3,4.4-.9,1.4-.6,2.6-1.4,3.6-2.4,1-1,1.8-2.2,2.4-3.6.6-1.4.9-2.8.9-4.4,0-2.1,0-4.4,0-6.8,0-2.4,0-4.9,0-7.4,0-2.5,0-4.9,0-7.4,0-2.4,0-4.7,0-6.8,0-1.5-.3-2.9-.8-4.3-.6-1.4-1.4-2.6-2.5-3.7-1.1-1.1-2.3-1.9-3.7-2.5-1.4-.6-2.8-.8-4.3-.8h-35.4c-3.1,0-5.8,1.1-8,3.3-1.1,1-1.9,2.2-2.5,3.6-.6,1.4-.8,2.8-.8,4.4v28.3c0,3.1,1.1,5.8,3.3,8Z"/>
    <path class="st3" d="M1625.3,356.8c1.1,1,2.3,1.8,3.7,2.4,1.4.6,2.8.9,4.4.9h35.2c1.6,0,3.1-.3,4.4-.9,1.4-.6,2.6-1.4,3.6-2.4,1-1,1.8-2.2,2.4-3.6.6-1.4.9-2.8.9-4.4v-6.8c0-2.4,0-4.9,0-7.4,0-2.5,0-4.9,0-7.4,0-2.4,0-4.7,0-6.8,0-1.5-.3-2.9-.8-4.3-.6-1.4-1.4-2.6-2.5-3.7-1.1-1.1-2.3-1.9-3.7-2.5-1.4-.6-2.8-.8-4.3-.8h-35.4c-3.1,0-5.8,1.1-8,3.3-1.1,1-1.9,2.2-2.5,3.6-.6,1.4-.8,2.8-.8,4.4v28.3c0,3.1,1.1,5.8,3.3,8Z"/>
    <path class="st3" d="M1274.2,641.6c1.1,1,2.3,1.8,3.7,2.4,1.4.6,2.8.9,4.4.9h35.2c1.6,0,3.1-.3,4.4-.9,1.4-.6,2.6-1.4,3.6-2.4,1-1,1.8-2.2,2.4-3.6.6-1.4.9-2.8.9-4.4s0-4.4,0-6.8,0-4.9,0-7.4c0-2.5,0-4.9,0-7.4s0-4.7,0-6.8c0-1.5-.3-2.9-.8-4.3-.6-1.4-1.4-2.6-2.5-3.7-1.1-1.1-2.3-1.9-3.7-2.5-1.4-.6-2.8-.8-4.3-.8h-35.4c-3.1,0-5.8,1.1-8,3.3-1.1,1-1.9,2.2-2.5,3.6-.6,1.4-.8,2.8-.8,4.4v28.3c0,3.1,1.1,5.8,3.3,8Z"/>
    <path class="st3" d="M1274.2,590.6c1.1,1,2.3,1.8,3.7,2.4,1.4.6,2.8.9,4.4.9h35.2c1.6,0,3.1-.3,4.4-.9,1.4-.6,2.6-1.4,3.6-2.4,1-1,1.8-2.2,2.4-3.6.6-1.4.9-2.8.9-4.4s0-4.4,0-6.8c0-2.4,0-4.9,0-7.4,0-2.5,0-4.9,0-7.4,0-2.4,0-4.7,0-6.8s-.3-2.9-.8-4.3c-.6-1.4-1.4-2.6-2.5-3.7-1.1-1.1-2.3-1.9-3.7-2.5-1.4-.6-2.8-.8-4.3-.8h-35.4c-3.1,0-5.8,1.1-8,3.3-1.1,1-1.9,2.2-2.5,3.6-.6,1.4-.8,2.8-.8,4.4v28.3c0,3.1,1.1,5.8,3.3,8Z"/>
    <g>
      <g>
        <path class="st10" d="M493.5,432.2h53.1l-18.4,89.9h-68.7l-18.4-89.9h50v59.9h2.3v-59.9Z"/>
        <path class="st10" d="M550.6,432.2h98v29.9h-48.3v2.3h39.8v25.2h-39.8v2.3h48.3v29.9h-98.1v-89.8Z"/>
        <path class="st10" d="M703.6,492h48.3v29.9h-98.1v-89.9h49.8v60Z"/>
        <path class="st10" d="M839.4,432c2.7,0,5.2.5,7.7,1.6s4.6,2.5,6.5,4.3c3.9,3.9,5.9,8.6,5.9,14.2v50c0,2.7-.5,5.2-1.5,7.7-1,2.4-2.5,4.6-4.4,6.4-3.9,3.9-8.6,5.9-14.2,5.9h-62.3c-2.6,0-5.1-.5-7.5-1.5-2.4-1-4.6-2.4-6.5-4.4-1.9-1.9-3.4-4.1-4.4-6.5-1-2.4-1.5-4.9-1.5-7.5v-12c0-4.3,0-8.6,0-13,0-4.4,0-8.7,0-13v-12c0-2.7.5-5.2,1.6-7.7,1-2.4,2.5-4.6,4.3-6.4,1.8-1.8,3.9-3.3,6.4-4.3s5-1.6,7.8-1.6h62.1ZM809.6,462.1h-2.6v29.9h2.6v-29.9Z"/>
        <path class="st10" d="M927.1,492.3l-5.3,6.4,2,1.7,6.9-8.3h21.7v29.9h-87.7v-29.9l28.8-36.7-2.1-1.7-6.5,8.5h-20.2v-29.9h87.7v29.9l-25.2,30.2Z"/>
      </g>
      <g>
        <rect class="st2" x="396.3" y="387.1" width="601.2" height="179.9"/>
        <path class="st4" d="M399.3,473.7c-.9,1-1.6,2-2.1,3.3-.5,1.2-.8,2.5-.8,3.8v31.1c0,1.4.3,2.7.8,3.9.5,1.2,1.2,2.3,2.1,3.2.9.9,2,1.6,3.2,2.1,1.2.5,2.5.8,3.8.8h6c2.1,0,4.3,0,6.5,0,2.2,0,4.4,0,6.5,0h6c1.3,0,2.6-.2,3.8-.7,1.2-.5,2.3-1.2,3.3-2.2,1-1,1.7-2,2.2-3.3.5-1.2.7-2.5.7-3.8v-31.2c0-2.8-1-5.1-2.9-7.1-.9-1-2-1.7-3.2-2.2-1.2-.5-2.5-.7-3.8-.7h-25c-2.8,0-5.1,1-7.1,2.9Z"/>
        <path class="st4" d="M354.3,473.7c-.9,1-1.6,2-2.1,3.3-.5,1.2-.8,2.5-.8,3.8v31.1c0,1.4.3,2.7.8,3.9.5,1.2,1.2,2.3,2.1,3.2.9.9,2,1.6,3.2,2.1,1.2.5,2.5.8,3.8.8h6c2.1,0,4.3,0,6.5,0,2.2,0,4.4,0,6.5,0h6c1.3,0,2.6-.2,3.8-.7,1.2-.5,2.3-1.2,3.3-2.2,1-1,1.7-2,2.2-3.3.5-1.2.7-2.5.7-3.8v-31.2c0-2.8-1-5.1-2.9-7.1-.9-1-2-1.7-3.2-2.2-1.2-.5-2.5-.7-3.8-.7h-25c-2.8,0-5.1,1-7.1,2.9Z"/>
        <path class="st4" d="M955.3,473.7c-.9,1-1.6,2-2.1,3.3-.5,1.2-.8,2.5-.8,3.8v31.1c0,1.4.3,2.7.8,3.9.5,1.2,1.2,2.3,2.1,3.2.9.9,2,1.6,3.2,2.1,1.2.5,2.5.8,3.8.8h6c2.1,0,4.3,0,6.5,0,2.2,0,4.4,0,6.5,0h6c1.3,0,2.6-.2,3.8-.7,1.2-.5,2.3-1.2,3.3-2.2,1-1,1.7-2,2.2-3.3.5-1.2.7-2.5.7-3.8v-31.2c0-2.8-1-5.1-2.9-7.1-.9-1-2-1.7-3.2-2.2-1.2-.5-2.5-.7-3.8-.7h-25c-2.8,0-5.1,1-7.1,2.9Z"/>
        <path class="st4" d="M1000.4,473.7c-.9,1-1.6,2-2.1,3.3-.5,1.2-.8,2.5-.8,3.8v31.1c0,1.4.3,2.7.8,3.9.5,1.2,1.2,2.3,2.1,3.2.9.9,2,1.6,3.2,2.1,1.2.5,2.5.8,3.8.8h6c2.1,0,4.3,0,6.5,0,2.2,0,4.4,0,6.5,0h6c1.3,0,2.6-.2,3.8-.7,1.2-.5,2.3-1.2,3.3-2.2,1-1,1.7-2,2.2-3.3.5-1.2.7-2.5.7-3.8v-31.2c0-2.8-1-5.1-2.9-7.1-.9-1-2-1.7-3.2-2.2-1.2-.5-2.5-.7-3.8-.7h-25c-2.8,0-5.1,1-7.1,2.9Z"/>
      </g>
    </g>
    <g>
      <path class="st10" d="M1742.3,520.1c-10-5.7-28.6-13-39.7-13.8-16.8-1.2-33.8-1.2-50.6-2.1-14.7-.8-22.5,1.9-32.3-11.7-5-6.9-5.7-17.1-8.1-25.3.9-.2,1.1,0,1.7.5,1.7,1.6,2.7,9.4,3.5,12.1.2.6.6,3.6,1.5,3.2.5-.3,4.6-9.1,5.9-11,10-14.4,29.3-26.5,46.1-27.5,13.1-.8,33.3,5.6,45.1-.6.6-.3,1.2-.7,1.8-1.1.7-.5,1-1.5.8-2.3,0-.4-.2-.7-.4-1.1-.5-1-1-1.7-1.5-2.1-.3-.3-.7-.5-1-.6-4.7-1.4-9.5-2.9-14.4-4.6-4.6-1.6-9.1-3.2-13.4-4.8-1-.4-1.9-1-2.6-1.8-5.8-6.2-15.8-8.5-23.6-9.4-2.3-.3-5,.4-7.2-.1-1.4-.3-3.3-2-4.9-2.6-6.1-2.2-15-.6-21.5-.4-.5,3.7,4.2,4,6.4,5,2.8,1.3,6.6,3.8,9.5,4.6,2.4.8,6.3.5,6.2,1.7-.1,1.4-4.8.8-5.9.6-2.9-.6-8.5-4.5-10.5-4.5-6.8,0-19.3,7.3-26,10.1-14.8,6.1-29.9,8.7-45.8,7.8-13.9-.7-24.8-7-38-10.3-40.3-9.9-74.8-4-97.7,3.6-26.1,8.7-32.8,16.1-44.6,21.6-9.8,4.5-50,15.5-77.3-4.4-7.6-5.5-12.3-12.7-12.7-13.3-8-12.3-8.3-25.1-8-31-.4,1.5-.8,3.7-1.1,6.3-.6,5.5-.8,15.6,4.4,26.1,8.7,17.3,26.2,23.2,34.1,25.9,0,0,20.8,7,53.7.2,3.3-.7,6.5-1.5,6.5-1.5,2.7-.7,6-1.6,9.9-3.3,2.4-1,5.4-2.5,8.8-4.7,0,1.8-1.1,2.7-4.5,4.8-3.6,2.1-7.9,3.9-10.4,4.7-.4.5-1,1.3-1.7,2.2-2.4,3.2-2.5,3.5-3.1,4.4-3.8,5.6-6.8,10.4-8.5,12.3-1.6,1.8-4.3,4.7-7.8,7.3-7.3,5.2-15.9,7.7-24.9,8.3-3.4.2-6.8.2-10.3,0-1.9,0-6.1-.8-9-1.4-.8-.2-1.7-.1-2.4.3-4.4,2.2-11.3,11.7-13.9,14.6-2.5,2.7-5.2,5.8-7.9,8.7-2.8,3-3.9,4-6.6,6.3-3.5,2.9-8.6,5.2-11.6,8.1-.7.7-7.2,8.1-5.1,8.7,1.3.4,5.7.2,7.4,0,4.7-.6,14.7-12.9,18.4-16.6,8-8.1,18.2-18.3,29.7-19.2,7.3-.6,14.4,2.3,21.6,3.1,8,.9,20.1,1.6,28,1.1,23-1.5,41.7-28.2,59.6-41.7,17.2-13,45.6-7.2,63.2,10,11.4,11.2,22.1,22.7,36.4,30,13.8,7,27.7,7.2,42.6,5.9,6.4-.6,12.7-2.2,19.2-2.7,2.2.2,3.4,4.2,5.4,5.3,1.6,1,13,.6,15.8.5,5.6-.1,11.3-.3,16.9-.5,10.6-.4,21.3-1,31.9-1.5h0c6.3-.3,12.6-.5,18.9-.7,13.3-.4,25.4-2,37.8,3.7,6.3,2.9,13,9.8,19.6,9.9,1.3,0,3-.3,4.2-.8.3-.1.4-.7.4-1-.6-3.1-3.6-6.1-6.1-7.6ZM1675.8,426c1.3-.8,6.2-2.1,6.1,1.4,0,0,0,.4-.2.7-.4.8-4.8.9-5.9.5-.2,0-.6-.5-.7-1-.1-.7.2-1.2.6-1.5ZM1649,420.2c-.5-.9-.4-1.3-.6-1.7-.5-1-1.7-.8-3.6-1.3-1.5-.4-3.4-1.4-3.3-1.8,0-.6,3.6-1,6.5.7.5.3,3.1,1.8,3,3.7,0,.8-.5,1.7-.9,1.7-.4,0-.8-.7-1-1.2Z"/>
      <path class="st10" d="M1381.3,463.4c-2.1,2.5-5.1,7-7.1,10.1-1.7,2.7-3.6,5.2-5.1,6.9-7.5,8.9-18,13.4-31.4,14.3-1.5.1-3,.2-4.6.2s-3.4,0-5.2-.2c-.5,0-1,0-1.5-.2-.9-.1-1.9-.3-2.8-.5-1.9-.4-3.9-.9-5.7-.8-3.2,0-8.8,5.5-14.6,12.7-1,1.3-1.9,2.4-2.5,3.1-1,1.1-2,2.2-3,3.3-.9,1-1.8,2-2.8,3.1-2.1,2.4-4.6,4.4-7.3,5.9s-1.5.8-2.3,1.1c-3.3,1.4-6.5,2.2-10,1.6-3.6-.6-1.2-3.2-.2-4.5,4-5.4,12.1-8.9,17.5-13.5,7.9-6.6,15-15.8,21.6-22.1.4-.4.8-.7,1.2-.9,1.8-.9,2.2-.2,5.1.8,17.4,6.1,31.1,5,45.1-8.1,2.1-1.9,8.2-9.5,10.1-11.1,1.7-.4,3.8-.8,5.5-1.2Z"/>
      <path class="st10" d="M1736.7,551.4c0,.6-2.6,1.2-3.2,1.2-9.8.2-16.7-9.2-25-13.7-2.8-1.5-5.7-2.5-8.7-3.3-19-5.6-38.5-8.5-57.8-13.7-1.1-.3-2.7-.7-4.8-1.3,6.2-.2,12.4-.5,18.4-.8,3.8-.2,7.7-.4,11.6-.5,6.9,0,12.7.7,21.7,3.7,12.1,4,37.7,14.9,45.6,25.4.7,1,2,2.6,2,3.2Z"/>
    </g>
    <rect class="st3" x="1169.8" y="309.1" width="680.5" height="335.8"/>
    <rect class="st3" x="1271" y="411.1" width="477.4" height="131.8"/>
    <g>
      <path class="st9" d="M358.5,260.5l1.8,5c0,0,0,.2,0,.3s0,.2,0,.3h0c0-.1,0-.2,0-.3,0,0,0-.2,0-.3l1.8-5h1.3l-2.7,7.1h-1.3l-2.7-7.1h1.4Z"/>
      <path class="st9" d="M364,264.9c0-.8.2-1.4.7-1.9s1.1-.7,1.8-.7,1.3.2,1.7.7.6,1.1.6,1.9v.5h-4v-.8h2.7c0-.4,0-.7-.3-.9s-.4-.3-.8-.3-.7.2-.9.5-.3.7-.3,1.2v.3c0,.5.1.9.3,1.2s.5.5,1,.5.5,0,.8-.2.4-.3.5-.5l.9.6c-.2.3-.4.5-.8.7s-.8.3-1.3.3c-.8,0-1.5-.2-1.9-.7s-.7-1.1-.7-1.9v-.2Z"/>
      <path class="st9" d="M370,262.5h1.2v.6h0c.1-.2.3-.4.5-.5.2-.1.4-.2.7-.2s.1,0,.2,0c0,0,.1,0,.2,0v1.1c0,0-.1,0-.2,0s-.1,0-.2,0c-.2,0-.5,0-.7.2s-.3.3-.4.5v3.4h-1.3v-5.1Z"/>
      <path class="st9" d="M374.8,266h0c0,.3,0,.5.3.6s.4.2.7.2.5,0,.7-.2.2-.3.2-.5,0-.3-.2-.4-.5-.2-1.1-.3c-.6-.1-1-.3-1.3-.6s-.4-.6-.4-1,.2-.8.6-1.1c.4-.3.9-.4,1.5-.4s1.2.1,1.5.4.6.7.6,1.2h0s-1.2,0-1.2,0h0c0-.3,0-.4-.2-.6s-.4-.2-.7-.2-.5,0-.6.2c-.1.1-.2.2-.2.4s0,.3.2.4.5.2,1.1.3c.6.1,1,.3,1.3.6s.4.6.4,1-.2.9-.6,1.2-.9.4-1.7.4-1.3-.1-1.7-.4c-.4-.3-.6-.7-.6-1.2h0s1.3,0,1.3,0Z"/>
      <path class="st9" d="M379.4,260.5c.1-.1.3-.2.6-.2s.4,0,.6.2.2.3.2.5,0,.4-.2.5-.3.2-.6.2-.4,0-.6-.2c-.1-.1-.2-.3-.2-.5s0-.4.2-.5ZM379.3,262.5h1.3v5.1h-1.3v-5.1Z"/>
      <path class="st9" d="M381.9,264.9c0-.8.2-1.4.7-1.9s1.1-.7,1.9-.7,1.4.2,1.9.7.7,1.1.7,1.9v.2c0,.8-.2,1.4-.7,1.9s-1.1.7-1.9.7-1.4-.2-1.9-.7-.7-1.1-.7-1.9v-.2ZM383.2,265.2c0,.5.1.9.3,1.2.2.3.5.4.9.4s.7-.1.9-.4c.2-.3.3-.7.3-1.2v-.3c0-.5-.1-.9-.3-1.2s-.5-.4-.9-.4-.7.1-.9.4-.3.7-.3,1.2v.3ZM384.7,259.6l1,.6-1.5,1.4-.7-.5,1.2-1.5Z"/>
      <path class="st9" d="M388.3,262.5h1.2v.6h0c.1-.2.4-.4.6-.5s.6-.2.9-.2c.5,0,1,.1,1.3.4.3.3.5.8.5,1.6v3.3h-1.3v-3.3c0-.4,0-.6-.2-.7s-.4-.2-.7-.2-.4,0-.6.2-.3.3-.4.5v3.5h-1.3v-5.1Z"/>
      <path class="st9" d="M397.1,260.5h1.3v2.9h3.1v-2.9h1.3v7.1h-1.3v-3.2h-3.1v3.2h-1.3v-7.1Z"/>
      <path class="st9" d="M404.3,264.9c0-.8.2-1.4.7-1.9s1.1-.7,1.9-.7,1.4.2,1.9.7.7,1.1.7,1.9v.2c0,.8-.2,1.4-.7,1.9s-1.1.7-1.9.7-1.4-.2-1.9-.7-.7-1.1-.7-1.9v-.2ZM405.6,265.2c0,.5.1.9.3,1.2.2.3.5.4.9.4s.7-.1.9-.4c.2-.3.3-.7.3-1.2v-.3c0-.5-.1-.9-.3-1.2s-.5-.4-.9-.4-.7.1-.9.4-.3.7-.3,1.2v.3Z"/>
      <path class="st9" d="M410.7,262.5h1.2v.6h0c.1-.2.3-.4.5-.5s.4-.2.7-.2.1,0,.2,0c0,0,.1,0,.2,0v1.1c0,0-.1,0-.2,0,0,0-.1,0-.2,0-.2,0-.5,0-.6.2s-.3.3-.4.5v3.4h-1.3v-5.1Z"/>
      <path class="st9" d="M414.6,260.5c.1-.1.3-.2.6-.2s.4,0,.6.2c.1.1.2.3.2.5s0,.4-.2.5c-.1.1-.3.2-.6.2s-.4,0-.6-.2-.2-.3-.2-.5,0-.4.2-.5ZM414.5,262.5h1.3v5.1h-1.3v-5.1Z"/>
      <path class="st9" d="M417,266.7l2.6-3.3h-2.6v-1h4.2v.8l-2.6,3.3h2.8v1h-4.4v-.8Z"/>
      <path class="st9" d="M422.2,264.9c0-.8.2-1.4.7-1.9s1.1-.7,1.9-.7,1.4.2,1.9.7.7,1.1.7,1.9v.2c0,.8-.2,1.4-.7,1.9s-1.1.7-1.9.7-1.4-.2-1.9-.7-.7-1.1-.7-1.9v-.2ZM423.5,265.2c0,.5.1.9.3,1.2s.5.4.9.4.7-.1.9-.4.3-.7.3-1.2v-.3c0-.5-.1-.9-.3-1.2s-.5-.4-.9-.4-.7.1-.9.4c-.2.3-.3.7-.3,1.2v.3Z"/>
      <path class="st9" d="M428.6,262.5h1.2v.6h0c.1-.2.4-.4.6-.5s.6-.2.9-.2c.5,0,1,.1,1.3.4s.5.8.5,1.6v3.3h-1.3v-3.3c0-.4,0-.6-.2-.7s-.4-.2-.7-.2-.4,0-.6.2-.3.3-.4.5v3.5h-1.3v-5.1Z"/>
      <path class="st9" d="M434,262.5h3.1v.9h-3.1v-.9ZM434.9,263h0v-1.7h1.3v4.9c0,.2,0,.4.1.5s.2.1.4.1.2,0,.2,0,.2,0,.2,0v.9c0,0-.2,0-.3.1s-.3,0-.5,0c-.4,0-.8-.1-1.1-.4s-.4-.7-.4-1.2v-3.2Z"/>
      <path class="st9" d="M438.7,264.8c.4-.3,1-.4,1.6-.4h1v-.3c0-.3,0-.5-.2-.6s-.4-.2-.7-.2-.6,0-.7.2-.2.3-.2.5h0c0,0-1.3,0-1.3,0h0c0-.5.2-.9.6-1.2s.9-.5,1.6-.5,1.2.1,1.6.4c.4.3.6.7.6,1.3v2.4c0,.2,0,.4,0,.6,0,.2,0,.3.1.5h0c0,0-1.2,0-1.2,0,0,0,0-.2-.1-.3s0-.2,0-.4c-.1.2-.3.4-.6.5-.3.2-.6.2-1,.2s-.9-.1-1.3-.4-.5-.7-.5-1.2.2-1,.7-1.3ZM439.6,266.6c.1.1.4.2.7.2s.6-.1.8-.3c.2-.2.3-.5.3-.7v-.6h-.9c-.4,0-.7,0-.9.2s-.3.3-.3.6,0,.4.2.6Z"/>
      <path class="st9" d="M444.2,260.1h1.3v7.5h-1.3v-7.5Z"/>
    </g>
    <g>
      <path class="st9" d="M358.5,704.6l1.8,5c0,0,0,.2,0,.3s0,.2,0,.3h0c0-.1,0-.2,0-.3,0,0,0-.2,0-.3l1.8-5h1.3l-2.7,7.1h-1.3l-2.7-7.1h1.4Z"/>
      <path class="st9" d="M364,709.1c0-.8.2-1.4.7-1.9s1.1-.7,1.8-.7,1.3.2,1.7.7.6,1.1.6,1.9v.5h-4v-.8h2.7c0-.4,0-.7-.3-.9s-.4-.3-.8-.3-.7.2-.9.5-.3.7-.3,1.2v.3c0,.5.1.9.3,1.2s.5.5,1,.5.5,0,.8-.2.4-.3.5-.5l.9.6c-.2.3-.4.5-.8.7s-.8.3-1.3.3c-.8,0-1.5-.2-1.9-.7s-.7-1.1-.7-1.9v-.2Z"/>
      <path class="st9" d="M370,706.6h1.2v.6h0c.1-.2.3-.4.5-.5.2-.1.4-.2.7-.2s.1,0,.2,0c0,0,.1,0,.2,0v1.1c0,0-.1,0-.2,0s-.1,0-.2,0c-.2,0-.5,0-.7.2s-.3.3-.4.5v3.4h-1.3v-5.1Z"/>
      <path class="st9" d="M374.8,710.2h0c0,.3,0,.5.3.6s.4.2.7.2.5,0,.7-.2.2-.3.2-.5,0-.3-.2-.4-.5-.2-1.1-.3c-.6-.1-1-.3-1.3-.6s-.4-.6-.4-1,.2-.8.6-1.1c.4-.3.9-.4,1.5-.4s1.2.1,1.5.4.6.7.6,1.2h0s-1.2,0-1.2,0h0c0-.3,0-.4-.2-.6s-.4-.2-.7-.2-.5,0-.6.2c-.1.1-.2.2-.2.4s0,.3.2.4.5.2,1.1.3c.6.1,1,.3,1.3.6s.4.6.4,1-.2.9-.6,1.2-.9.4-1.7.4-1.3-.1-1.7-.4c-.4-.3-.6-.7-.6-1.2h0s1.3,0,1.3,0Z"/>
      <path class="st9" d="M379.4,704.6c.1-.1.3-.2.6-.2s.4,0,.6.2.2.3.2.5,0,.4-.2.5-.3.2-.6.2-.4,0-.6-.2c-.1-.1-.2-.3-.2-.5s0-.4.2-.5ZM379.3,706.6h1.3v5.1h-1.3v-5.1Z"/>
      <path class="st9" d="M381.9,709.1c0-.8.2-1.4.7-1.9s1.1-.7,1.9-.7,1.4.2,1.9.7.7,1.1.7,1.9v.2c0,.8-.2,1.4-.7,1.9s-1.1.7-1.9.7-1.4-.2-1.9-.7-.7-1.1-.7-1.9v-.2ZM383.2,709.3c0,.5.1.9.3,1.2.2.3.5.4.9.4s.7-.1.9-.4c.2-.3.3-.7.3-1.2v-.3c0-.5-.1-.9-.3-1.2s-.5-.4-.9-.4-.7.1-.9.4-.3.7-.3,1.2v.3ZM384.7,703.7l1,.6-1.5,1.4-.7-.5,1.2-1.5Z"/>
      <path class="st9" d="M388.3,706.6h1.2v.6h0c.1-.2.4-.4.6-.5s.6-.2.9-.2c.5,0,1,.1,1.3.4.3.3.5.8.5,1.6v3.3h-1.3v-3.3c0-.4,0-.6-.2-.7s-.4-.2-.7-.2-.4,0-.6.2-.3.3-.4.5v3.5h-1.3v-5.1Z"/>
      <path class="st9" d="M396.8,708c0-1.1.3-2,.9-2.6s1.3-.9,2.2-.9,1.7.3,2.3.9.9,1.5.9,2.6v.4c0,1.1-.3,2-.9,2.6s-1.3.9-2.3.9-1.7-.3-2.2-.9-.9-1.5-.9-2.6v-.4ZM398.7,710.3c.3.4.8.6,1.3.6s1-.2,1.3-.6.5-1,.5-1.8v-.6c0-.8-.2-1.4-.5-1.8s-.8-.6-1.3-.6-1,.2-1.3.6-.5,1-.5,1.8v.6c0,.8.2,1.4.5,1.8Z"/>
      <path class="st9" d="M404.5,706.6h1.3v3.2c0,.4,0,.6.2.8s.4.2.7.2.5,0,.7-.2.3-.3.4-.5v-3.5h1.3v5.1h-1.2v-.6h0c-.2.2-.4.4-.6.5s-.6.2-.9.2c-.5,0-.9-.2-1.3-.5s-.5-.8-.5-1.6v-3.2Z"/>
      <path class="st9" d="M410,706.6h3.1v.9h-3.1v-.9ZM410.8,707.1h0v-1.7h1.3v4.9c0,.2,0,.4.1.5s.2.1.4.1.2,0,.2,0,.2,0,.2,0v.9c0,0-.2,0-.3.1s-.3,0-.5,0c-.4,0-.8-.1-1.1-.4-.3-.3-.4-.7-.4-1.2v-3.2Z"/>
      <path class="st9" d="M414.3,704.3h1.3v7.5h-1.3v-7.5Z"/>
      <path class="st9" d="M417.2,704.6c.1-.1.3-.2.6-.2s.4,0,.6.2.2.3.2.5,0,.4-.2.5-.3.2-.6.2-.4,0-.6-.2c-.1-.1-.2-.3-.2-.5s0-.4.2-.5ZM417.1,706.6h1.3v5.1h-1.3v-5.1Z"/>
      <path class="st9" d="M420,706.6h1.2v.6h0c.1-.2.4-.4.6-.5s.6-.2.9-.2c.5,0,1,.1,1.3.4.3.3.5.8.5,1.6v3.3h-1.3v-3.3c0-.4,0-.6-.2-.7s-.4-.2-.7-.2-.4,0-.6.2-.3.3-.4.5v3.5h-1.3v-5.1Z"/>
      <path class="st9" d="M425.7,709.1c0-.8.2-1.4.7-1.9.5-.5,1.1-.7,1.8-.7s1.3.2,1.7.7c.4.5.6,1.1.6,1.9v.5h-4v-.8h2.7c0-.4,0-.7-.3-.9-.2-.2-.4-.3-.8-.3s-.7.2-.9.5-.3.7-.3,1.2v.3c0,.5.1.9.3,1.2.2.3.5.5,1,.5s.5,0,.8-.2c.2-.1.4-.3.5-.5l.9.6c-.2.3-.4.5-.8.7s-.8.3-1.3.3c-.8,0-1.5-.2-1.9-.7s-.7-1.1-.7-1.9v-.2Z"/>
      <path class="st9" d="M434.1,709.1c0-.8.2-1.4.6-1.9.4-.5.9-.7,1.6-.7s.6,0,.9.2c.2.1.4.3.6.5v-2.9h1.3v7.5h-1.2v-.6h0c-.1.2-.3.4-.6.5s-.5.2-.9.2c-.7,0-1.2-.2-1.6-.7s-.6-1.1-.6-1.9v-.2ZM435.7,710.4c.2.3.5.4.9.4s.5,0,.7-.2c.2-.2.3-.3.4-.5v-1.9c0-.2-.2-.4-.4-.5-.2-.1-.4-.2-.7-.2s-.7.1-.9.4-.3.7-.3,1.1v.3c0,.5,0,.8.3,1.1Z"/>
      <path class="st9" d="M440.3,709.1c0-.8.2-1.4.7-1.9s1.1-.7,1.8-.7,1.3.2,1.7.7.6,1.1.6,1.9v.5h-4v-.8h2.7c0-.4,0-.7-.3-.9s-.4-.3-.8-.3-.7.2-.9.5-.3.7-.3,1.2v.3c0,.5.1.9.3,1.2s.5.5,1,.5.5,0,.8-.2.4-.3.5-.5l.9.6c-.2.3-.4.5-.8.7s-.8.3-1.3.3c-.8,0-1.5-.2-1.9-.7s-.7-1.1-.7-1.9v-.2Z"/>
      <path class="st9" d="M446.4,704.3h1.3v7.5h-1.3v-7.5Z"/>
      <path class="st9" d="M451.9,704.6h1.3v7.1h-1.3v-7.1Z"/>
      <path class="st9" d="M455.9,710.2h0c0,.3,0,.5.3.6s.4.2.7.2.5,0,.7-.2.2-.3.2-.5,0-.3-.2-.4-.5-.2-1.1-.3c-.6-.1-1-.3-1.3-.6s-.4-.6-.4-1,.2-.8.6-1.1.9-.4,1.5-.4,1.2.1,1.5.4.6.7.6,1.2h0s-1.2,0-1.2,0h0c0-.3,0-.4-.2-.6-.1-.1-.4-.2-.7-.2s-.5,0-.6.2-.2.2-.2.4,0,.3.2.4.5.2,1.1.3c.6.1,1,.3,1.3.6s.4.6.4,1-.2.9-.6,1.2c-.4.3-.9.4-1.7.4s-1.3-.1-1.7-.4-.6-.7-.6-1.2h0s1.3,0,1.3,0Z"/>
      <path class="st9" d="M460.1,709.1c0-.8.2-1.4.7-1.9.5-.5,1.1-.7,1.9-.7s1.4.2,1.9.7c.5.5.7,1.1.7,1.9v.2c0,.8-.2,1.4-.7,1.9-.5.5-1.1.7-1.9.7s-1.4-.2-1.9-.7c-.5-.5-.7-1.1-.7-1.9v-.2ZM461.4,709.3c0,.5.1.9.3,1.2s.5.4.9.4.7-.1.9-.4.3-.7.3-1.2v-.3c0-.5-.1-.9-.3-1.2-.2-.3-.5-.4-.9-.4s-.7.1-.9.4-.3.7-.3,1.2v.3Z"/>
      <path class="st9" d="M466,706.6h3.1v.9h-3.1v-.9ZM466.8,707.1h0v-1.7h1.3v4.9c0,.2,0,.4.1.5s.2.1.4.1.2,0,.2,0c0,0,.2,0,.2,0v.9c0,0-.2,0-.3.1-.1,0-.3,0-.5,0-.4,0-.8-.1-1.1-.4-.3-.3-.4-.7-.4-1.2v-3.2Z"/>
      <path class="st9" d="M470.2,704.6c.1-.1.3-.2.6-.2s.4,0,.6.2.2.3.2.5,0,.4-.2.5-.3.2-.6.2-.4,0-.6-.2c-.1-.1-.2-.3-.2-.5s0-.4.2-.5ZM470.2,706.6h1.3v5.1h-1.3v-5.1Z"/>
      <path class="st9" d="M473,706.6h1.2v.6h0c.1-.2.3-.4.6-.5.3-.1.6-.2.9-.2.7,0,1.2.2,1.6.7s.6,1.1.6,1.9v.2c0,.8-.2,1.4-.6,1.9s-.9.7-1.6.7-.6,0-.9-.2c-.3-.1-.5-.3-.6-.5v2.6h-1.3v-7.2ZM474.7,710.6c.2.2.4.2.7.2.4,0,.7-.1.9-.4.2-.3.3-.7.3-1.1v-.3c0-.5,0-.9-.3-1.1-.2-.3-.5-.4-.9-.4s-.5,0-.7.2-.3.3-.4.5v1.9c0,.2.2.4.4.5Z"/>
      <path class="st9" d="M478.9,709.1c0-.8.2-1.4.7-1.9s1.1-.7,1.9-.7,1.4.2,1.9.7.7,1.1.7,1.9v.2c0,.8-.2,1.4-.7,1.9s-1.1.7-1.9.7-1.4-.2-1.9-.7-.7-1.1-.7-1.9v-.2ZM480.2,709.3c0,.5.1.9.3,1.2.2.3.5.4.9.4s.7-.1.9-.4c.2-.3.3-.7.3-1.2v-.3c0-.5-.1-.9-.3-1.2s-.5-.4-.9-.4-.7.1-.9.4-.3.7-.3,1.2v.3Z"/>
    </g>
  </g>
</svg>