<?xml version="1.0" encoding="UTF-8"?>
<svg id="Capa_1" xmlns="http://www.w3.org/2000/svg" xmlns:xlink="http://www.w3.org/1999/xlink" version="1.1" viewBox="0 0 1235.7 293.1">
  <!-- Generator: Adobe Illustrator 29.3.1, SVG Export Plug-In . SVG Version: 2.1.0 Build 151)  -->
  <defs>
    <style>
      .st0, .st1, .st2 {
        fill: none;
      }

      .st3 {
        fill: #212223;
      }

      .st1 {
        stroke: #fff;
        stroke-width: 2.7px;
      }

      .st1, .st2 {
        stroke-miterlimit: 10;
      }

      .st2 {
        stroke: #212223;
        stroke-width: 3px;
      }

      .st4 {
        fill: #d4d4d4;
      }

      .st5 {
        clip-path: url(#clippath);
      }

      .st6 {
        fill: #0019aa;
        font-family: REDJOLA-Free-Trial, 'REDJOLA Free Trial';
        font-size: 82.9px;
      }
    </style>
    <clipPath id="clippath">
      <rect class="st0" width="1487.6" height="293.1"/>
    </clipPath>
  </defs>
  <rect class="st4" width="1487.6" height="293.1"/>
  <g>
    <text class="st6" transform="translate(615.3 140.5)"><tspan x="0" y="0">PROCESOS</tspan></text>
    <text class="st6" transform="translate(461.8 203.9)"><tspan x="0" y="0">OPTIMIZADOS</tspan></text>
  </g>
  <g>
    <g>
      <g>
        <polyline class="st1" points="381.5 38.9 43.3 38.9 43.3 97.3"/>
        <polyline class="st1" points="381.5 254.1 43.3 254.1 43.3 195.8"/>
      </g>
      <g>
        <polyline class="st2" points="381.5 38.9 43.3 38.9 43.3 97.3"/>
        <polyline class="st2" points="381.5 254.1 43.3 254.1 43.3 195.8"/>
      </g>
    </g>
    <g>
      <g>
        <polyline class="st1" points="854.3 38.9 1192.4 38.9 1192.4 97.3"/>
        <polyline class="st1" points="854.3 254.1 1192.4 254.1 1192.4 195.8"/>
      </g>
      <g>
        <polyline class="st2" points="854.3 38.9 1192.4 38.9 1192.4 97.3"/>
        <polyline class="st2" points="854.3 254.1 1192.4 254.1 1192.4 195.8"/>
      </g>
    </g>
  </g>
  <g class="st5">
    <g>
      <path d="M375.1,82.2c0,1.2-.8,2.7-1.6,2.7-.7,0-1.3-1.1-1.8-1.9-.8-1.5-.6-2-1.1-2.8-.9-1.6-3-1.2-6.2-2.1-2.5-.7-6-2.2-5.8-3,.2-.9,6.2-1.6,11.3,1.1.9.5,5.4,2.8,5.3,6Z"/>
      <path d="M430.3,93.9s0,.6-.3,1.1c-.6,1.3-5,1.5-10.5.6-.2-.1-.8-.6-.9-1.5-.2-1.2.7-2.1.8-2.1,3.2-2.1,11-3.7,10.9,2Z"/>
      <path class="st3" d="M549.7,258.5c-.8-7.5-8.6-14.8-13.9-17.7-18.6-10-51.5-21.5-70.7-22.8-17-1.2-34.2-1.6-50.9-2.1-12.2-.3-24.7-.7-37.1-1.3-4.5-.2-8.7-.3-12.4-.3-17.9-.2-27.7-.3-40.6-16.9-2-2.5-3.5-5.4-4.8-8.6.2,0,.4-.2.7-.3,1.7-.8,2.2-1.7,6.8-10.1,1.9-3.5,4.2-7.8,5.1-9,17-22.9,50-41.2,76.9-42.7,1.2,0,2.5-.1,3.9-.1,6.9,0,14.6.8,22.9,1.7,8.9.9,18.1,1.9,26.9,1.9s19.6-1.6,26.3-4.9c1.5-.8,3.8-2,5.7-3.7,1-.9,1.6-2.2,1.5-3.5-.1-2.1-.7-4.1-1.6-5.9-1.1-2.3-2.8-4.3-4.9-5.7-.4-.3-.9-.5-1.3-.6-8.6-2.4-17.3-4.9-25.8-7.6-8.3-2.6-16.7-5.5-24.9-8.4-8.6-9.5-23.7-15.5-44.7-17.7-.8,0-1.7-.1-2.7-.1s-2.4,0-3.5.1c-1.1,0-2.1.1-3.1.1s-2.1,0-2.8-.2c-.6-.1-2.1-1-3.1-1.6-1.5-.9-3.2-1.9-5-2.5-4.2-1.5-9.2-2.1-15.8-2.1s-9.4.3-14,.7c-3.2.2-6.3.5-9,.5-2.1,0-3.8,1.6-4.1,3.6-.8,5.1,2.1,8,5.3,9.7-8.3,2.1-17.9,6.5-26.7,10.4-4.2,1.9-8.1,3.7-11.2,4.8-22.1,8.5-44.2,12.7-67.7,12.7s-6.7,0-10.1-.3c-14.2-.7-26.4-4.8-39.3-9-8.3-2.7-16.8-5.6-26.1-7.6-22.7-4.8-51.5-7.6-78.9-7.6s-48.2,1.5-70.9,8.5c-17.1,5.3-33.2,13.4-48.8,21.3-14.5,7.3-29.5,14.8-44.9,19.9-3.4,1.1-34.4,11-70.7,11s-47-4.8-64.2-14.3c-8.8-4.9-15.8-10.6-21.2-17.4-15.2-19.1-15.7-42.5-14.7-54.8.2-2.2-1.3-4.2-3.5-4.6-.2,0-.5,0-.7,0-1.9,0-3.6,1.3-4.1,3.2-.9,3.5-1.6,7.1-2,10.7-.1.9-2.4,23,8.1,44.6,5.8,12,16,22.1,30.1,30.2,11.6,6.6,23.8,10.6,31.9,13.1,13.7,4.1,29.4,6.1,46.7,6.1s27.7-1.3,41.7-3.6c-1.2,1.3-2.5,2.8-4.1,4.6-2.7,3-5.5,6.1-6.9,7.4-14.5,12.6-27.9,18.2-43.4,18.2s-18.2-1.8-29.3-5.4c-1.2-.4-2.1-.8-2.8-1.2-1.2-.6-2.6-1.3-4.4-1.3s-4.5,1.2-7.3,3.2c-6.8,4.8-13.3,11.3-19.6,17.7-6.3,6.3-12.7,12.8-19.5,17.7-3.4,2.4-7.9,4.9-12.6,7.6-8.9,5-18.1,10.1-23.1,16.3-.2.3-.5.6-.7.9-2.1,2.6-4.8,5.8-3.2,9.4,1.6,3.6,5.9,3.8,7.4,3.9.5,0,1.1,0,1.6,0,6.2,0,14.7-1.8,20.2-3.6-.3.2-.5.4-.8.6-2.5,2-5.7,3.8-8.9,5.6-4.1,2.4-8.4,4.8-11.5,7.8-1.6,1.5-9.4,9.1-8.1,14.4.5,1.9,1.9,3.4,3.9,3.9,1.1.3,2.5.4,4.8.4s3.9,0,5.7-.2c1.4,0,2.6-.1,3.4-.1,7.6,0,17.4-9.6,29.3-22.2,2.3-2.4,4.3-4.5,5.6-5.8,12.8-12,30.3-28.5,49-30,1,0,2.1-.1,3.1-.1,6.3,0,12.6,1.3,19.3,2.7,4.7,1,9.5,2,14.3,2.5,11.8,1.3,26.8,2.1,38.3,2.1s7.9-.1,11.1-.3c29.3-1.8,55.5-27,78.6-49.3,10.1-9.7,19.6-18.9,28.7-25.6,11.1-8.2,22.8-12.3,34.9-12.3,20.4,0,42,11.1,68,34.9,2.3,2.1,4.5,4.2,6.8,6.3,17.2,15.9,34.9,32.3,57.5,43,15.8,7.5,32.8,11,53.6,11s13.9-.3,22.7-1.1c5.6-.5,11.2-1.3,16.6-2.2,5.3-.8,10.7-1.7,16-2.1.6.4,1.8,1.9,2.4,2.9,1.4,1.8,2.9,3.9,5.1,5.2,1.5.8,3.8,1.6,16.2,1.6s8.6,0,11.4-.2c.8,0,1.5,0,2,0,9.2-.2,18.5-.4,27.7-.8,0,.3.2.6.3.9,1.8,3.6,5.8,4.5,8.5,5,.4,0,.8.2,1.1.2,15.5,3.9,31.6,7,47.3,10,18.3,3.5,37.3,7.2,55.1,12.1,4.7,1.3,9.7,2.8,14.3,5.1,4.5,2.3,8.8,5.4,13.4,8.8,9.3,6.8,18.9,13.8,31.3,13.8s.5,0,.7,0c1,0,2.7-.3,4.2-.8,1.3-.4,5.3-1.5,5.5-5.3,0-1-.2-1.9-.8-2.7-.4-.6-.8-1.3-1.3-2-.7-1.1-1.4-2.2-2.3-3.3-6.5-8.1-19.3-16.7-38.3-25.7-16.1-7.7-32.7-13.7-42.9-16.8-3.8-1.2-7.3-2.1-10.6-2.9,1.5,0,3,0,4.6-.1,3.5,0,7-.2,10.4-.4,5.7-.2,11-.4,16.4-.4,10.9,0,23.8.8,37.2,6.4,3.6,1.5,7.4,3.9,11.3,6.4,7.7,4.8,15.7,9.8,24.3,10h.2c1.3,0,2.7-.2,4-.5,1.1-.2,2.2-.4,3.1-.4s.6,0,.8,0c.3,0,.7.1,1,.1,1,0,2-.4,2.8-1,1-.9,1.6-2.3,1.4-3.7ZM-281.7,252.2c-6.7-.4-3-4-.4-7.3,7-8.7,25.1-16.1,34.9-23.1,14.1-10.1,26-26.1,39.1-35.3,6.1-4.3,5.2-1.9,10.8,0,30.2,9.9,52.5,7.6,76.8-13.6,3.6-3.1,12.4-14,15.7-16.6,3-.6,6.1-1.3,9.1-2-3.7,4.1-7.1,9.2-10.5,14.1-3,4.4-5.9,8.5-8.4,11.4-13,14.4-31.2,22.3-54.3,23.8-2.6.2-5.3.3-8,.3s-5.9,0-8.9-.3c-.8,0-1.7-.2-2.6-.3-1.6-.2-3.2-.6-4.8-.9-3.4-.7-6.9-1.4-10-1.4-7.1,0-15.3,8.9-25.4,20.6-1.8,2.1-3.4,3.9-4.4,5-1.7,1.7-3.4,3.5-5.2,5.4-2.7,2.8-5.5,5.7-8.4,8.6-4,3.1-8.3,5.8-13.2,7.7-5.7,2.2-15.7,4.3-21.8,3.9ZM441.5,248.9c21.1,6.4,65.5,24.1,79.1,41.2,1.3,1.6,2.2,3.4,3.4,5.1,0,1-4.5,1.9-5.5,2-17.1.4-29-14.9-43.4-22.2-4.8-2.4-9.9-4-15.1-5.4-33.1-9.1-69-13.7-102.4-22.1-1.9-.5-4.8-.8-6.2-2.2,10.8-.4,21.5-.9,32-1.4,6.7-.3,13.4-.6,20.2-.9,11.9,0,22.1,1.2,37.8,5.9ZM536.5,259.6c-11.6-.3-23.2-11.4-34.1-16.1-21.7-9.2-42.7-6.6-65.8-6-10.9.3-21.9.7-32.8,1.2h0c-18.5.8-37,1.7-55.4,2.4-9.8.4-19.6.6-29.3.8-4.8,0-24.7.7-27.4-.8-3.4-1.9-5.5-8.3-9.3-8.7-11.1.8-22.2,3.4-33.3,4.3-26,2.1-50.1,1.9-74.1-9.5-24.9-11.8-43.5-30.4-63.2-48.5-30.4-27.8-69-51.8-108.2-22.9-30.6,22.6-65.1,71.7-105,74.1-13.7.8-34.8-.3-48.7-1.8-12.5-1.3-24.9-6.1-37.5-5.1-20,1.5-37.7,18-51.6,31.1-6.5,6.1-23.7,26.9-32,26.9s-10.6.6-12.8,0c-3.7-1,4.7-10,5.9-11.1,5.1-4.8,14.1-8.5,20.1-13.2,4.7-3.7,9.6-8.3,14.4-13.1,4.8-4.8,9.5-9.8,13.8-14.2,5-5.1,19.4-24.3,26.7-24.3s9.6,1.5,14.3,2.2c1,.1,1.9.3,2.8.3,6,.4,12,.4,17.9,0,21.6-1.4,41.7-8.4,56.8-25.2,6.1-6.8,13.1-19.5,20.4-27,1.6-1.6,3.2-3,4.9-4.1,4.8-3,17-5.5,23.4-8.3,1.6-.7,4.7-1.8,5.9-2.6,2.6-1.7,3.1-4.7-1-3.6-4.5,1.2-11.3,5-16.4,6.7-6.5,2.2-13.5,4.2-20.7,5.9-3.7.9-7.5,1.7-11.3,2.4-31,6-65.3,7.1-93-1.1-16-4.8-46.9-15.3-59.4-41.1-10.1-20.7-7.7-42.2-7.7-42.2.5-4.2,1.2-7.7,1.9-10.1-.8,9.8-1.7,36.1,15.6,57.8,3.8,4.8,10.5,11.8,22.5,18.4,49.8,27.6,120.8,9.4,138.3,3.7,32.4-10.6,61-31,93.7-41.1,39.8-12.4,106.7-9.5,147.6-.9,23.2,4.9,41.9,15.5,66.1,16.7,27.6,1.4,53.9-2.8,79.5-12.7,11.6-4.5,33.3-16.3,45.2-16.3,3.5,0,13.1,6.3,18.2,7.2,1.9.4,9.8,1.3,10.3-.9.5-2.5-8.4-2.5-11.3-3.2-5.1-1.4-11.1-4.8-16-7-3.9-1.7-12-2.2-11.1-8.1,11.1-.3,26.8-2.9,37.3.7,2.9,1,6.2,3.7,8.6,4.2,3.9.8,8.6-.2,12.6.2,14.4,1.5,33,5.6,42.7,17.1,8.3,3,17,6,26.1,8.9,8.9,2.8,17.5,5.4,26,7.7.9.6,2.5,1.9,3.6,4.2.9,1.7,1.1,3.3,1.2,4.3-1.4,1.2-3.2,2.3-4.8,3.1-20.6,10.1-55.7-.3-78.4,1-29.2,1.6-62.8,21.1-80.1,44.4-2.3,3-9.4,17.4-10.3,17.8-1.5.7-2.2-4.1-2.5-5.1-1.3-4.3-3.1-17.1-6-19.6-1.1-.9-1.5-1.1-3-.9,4.3,13.2,5.4,29.7,14.1,40.9,17.2,22,30.6,17.6,56.2,18.9,29.3,1.5,58.7,1.4,87.9,3.4,19.3,1.3,51.6,13,69,22.3,4.7,2.5,11.1,8.9,11.7,14.4-2.9-.7-6.4.7-8.9.7Z"/>
      <g>
        <path class="st4" d="M533.8,244.6c-17.4-9.3-49.6-21-69-22.3-29.2-2-58.6-1.9-87.9-3.4-25.6-1.3-39,3.1-56.2-18.9-8.7-11.2-9.9-27.6-14.1-40.9,1.5-.2,1.9,0,3,.9,2.9,2.5,4.7,15.2,6,19.6.3,1,1,5.8,2.5,5.1.9-.4,8.1-14.8,10.3-17.8,17.3-23.3,50.9-42.8,80.1-44.4,22.7-1.3,57.8,9.1,78.4-1,1.7-.8,3.4-1.9,4.8-3.1,0-1-.3-2.6-1.2-4.3-1.1-2.3-2.7-3.6-3.6-4.2-8.4-2.3-17.1-4.8-26-7.7-9.1-2.9-17.7-5.8-26.1-8.9-9.6-11.4-28.3-15.6-42.7-17.1-4-.4-8.7.6-12.6-.2-2.4-.5-5.7-3.2-8.6-4.2-10.5-3.6-26.1-1-37.3-.7-.9,5.9,7.2,6.4,11.1,8.1,4.9,2.2,11,5.6,16,7,2.8.8,11.8.7,11.3,3.2-.5,2.2-8.3,1.3-10.3.9-5.1-.9-14.7-7.3-18.2-7.2-11.9,0-33.6,11.8-45.2,16.3-25.7,9.9-51.9,14.1-79.5,12.7-24.2-1.2-42.9-11.8-66.1-16.7-40.9-8.7-107.8-11.5-147.6.9-32.7,10.2-61.2,30.5-93.7,41.1-17.5,5.8-88.5,23.9-138.3-3.7-12-6.6-18.7-13.7-22.5-18.4-17.3-21.7-16.4-48-15.6-57.8-.6,2.4-1.4,5.9-1.9,10.1,0,0-2.4,21.5,7.7,42.2,12.5,25.7,43.4,36.3,59.4,41.1,27.8,8.3,62.1,7.2,93,1.1,3.8-.7,7.6-1.6,11.3-2.4,7.2-1.7,14.2-3.7,20.7-5.9,5.1-1.7,11.8-5.4,16.4-6.7,4.1-1.1,3.6,1.9,1,3.6-1.2.8-4.3,1.9-5.9,2.6-6.3,2.8-18.6,5.3-23.4,8.3-1.6,1-3.3,2.4-4.9,4.1-7.3,7.5-14.3,20.2-20.4,27-15.1,16.8-35.3,23.8-56.8,25.2-5.9.4-11.9.4-17.9,0-.9,0-1.8-.2-2.8-.3-4.7-.7-10.2-2.2-14.3-2.2-7.3,0-21.7,19.1-26.7,24.3-4.3,4.4-9,9.3-13.8,14.2-4.8,4.8-9.7,9.4-14.4,13.1-6,4.7-15,8.4-20.1,13.2-1.3,1.2-9.6,10.1-5.9,11.1,2.2.6,9.8,0,12.8,0,8.3,0,25.5-20.8,32-26.9,13.9-13.1,31.6-29.6,51.6-31.1,12.6-1,25.1,3.8,37.5,5.1,13.8,1.5,35,2.6,48.7,1.8,39.9-2.5,74.4-51.5,105-74.1,39.3-28.9,77.8-5,108.2,22.9,19.8,18.1,38.4,36.7,63.2,48.5,24,11.4,48.1,11.6,74.1,9.5,11.1-.9,22.1-3.5,33.3-4.3,3.9.3,6,6.7,9.3,8.7,2.7,1.6,22.6.9,27.4.8,9.8-.2,19.5-.5,29.3-.8,18.5-.7,37-1.6,55.4-2.4h0c11-.5,21.9-.9,32.8-1.2,23-.6,44.1-3.2,65.8,6,10.9,4.6,22.5,15.8,34.1,16.1,2.5,0,6-1.4,8.9-.7-.6-5.4-7-11.8-11.7-14.4ZM419.3,91.9c3.2-2.1,11-3.7,10.9,2,0,0,0,.6-.3,1.1-.6,1.3-5,1.5-10.5.6-.2-.1-.8-.6-.9-1.5-.2-1.2.7-2.1.8-2.1ZM371.7,83c-.8-1.5-.6-2-1.1-2.8-.9-1.6-3-1.2-6.2-2.1-2.5-.7-6-2.2-5.8-3,.2-.9,6.2-1.6,11.3,1.1.9.5,5.4,2.8,5.3,6,0,1.2-.8,2.7-1.6,2.7-.7,0-1.3-1.1-1.8-1.9Z"/>
        <path class="st4" d="M524.1,295.2c0,1-4.5,1.9-5.5,2-17.1.4-29-14.9-43.4-22.2-4.8-2.4-9.9-4-15.1-5.4-33.1-9.1-69-13.7-102.4-22.1-1.9-.5-4.8-.8-6.2-2.2,10.8-.4,21.5-.9,32-1.4,6.7-.3,13.4-.6,20.2-.9,11.9,0,22.1,1.2,37.8,5.9,21.1,6.4,65.5,24.1,79.1,41.2,1.3,1.6,2.2,3.4,3.4,5.1Z"/>
      </g>
    </g>
  </g>
</svg>