<?xml version="1.0" encoding="UTF-8"?>
<svg id="Capa_1" xmlns="http://www.w3.org/2000/svg" xmlns:xlink="http://www.w3.org/1999/xlink" version="1.1" viewBox="0 0 960 960">
  <!-- Generator: Adobe Illustrator 29.3.1, SVG Export Plug-In . SVG Version: 2.1.0 Build 151)  -->
  <defs>
    <style>
      .st0, .st1, .st2, .st3, .st4, .st5, .st6 {
        fill: none;
      }

      .st7 {
        fill: #212223;
      }

      .st1 {
        stroke-width: 2.9px;
      }

      .st1, .st2, .st3, .st8, .st4, .st5, .st6 {
        stroke-miterlimit: 10;
      }

      .st1, .st5 {
        stroke: #fff;
      }

      .st2 {
        stroke-width: 2.7px;
      }

      .st2, .st3, .st8 {
        stroke: #212223;
      }

      .st3 {
        stroke-width: 2.7px;
      }

      .st8, .st9 {
        fill: #d4d4d4;
      }

      .st10 {
        fill: #0019aa;
      }

      .st4 {
        stroke-width: 1.9px;
      }

      .st4, .st6 {
        stroke: #000;
      }

      .st5, .st6 {
        stroke-width: .9px;
      }

      .st11 {
        clip-path: url(#clippath);
      }
    </style>
    <clipPath id="clippath">
      <rect class="st0" x="1226.7" y="861.7" width="1487.6" height="293.1"/>
    </clipPath>
  </defs>
  <rect class="st8" width="960" height="960"/>
  <g>
    <path d="M140.1,145.3h3.3v27.1h14.4v2.8h-17.7v-29.9Z"/>
    <path d="M163.1,163.9c1.7-1.2,3.9-1.8,6.6-1.8h5.3v-1.7c0-1.4-.4-2.6-1.1-3.5-.7-.9-2-1.3-3.8-1.3s-3.1.4-3.9,1.1c-.8.7-1.2,1.6-1.2,2.7h0c0,.1-3.1.1-3.1.1h0c0-1.9.8-3.4,2.3-4.6,1.5-1.3,3.5-1.9,6.1-1.9s4.5.6,5.9,1.9c1.4,1.2,2.1,3.1,2.1,5.6v9.8c0,.9,0,1.7.2,2.5.1.8.3,1.5.6,2.1v.3h-3.1c-.2-.4-.4-.8-.6-1.4s-.3-1.1-.3-1.7c-.5.9-1.4,1.7-2.6,2.4-1.2.7-2.7,1.1-4.6,1.1s-3.8-.6-5.2-1.7c-1.4-1.1-2.1-2.8-2.1-5s.9-3.9,2.6-5.1ZM164.9,171.9c.8.7,2,1.1,3.7,1.1s3.1-.5,4.4-1.6c1.3-1.1,1.9-2.3,1.9-3.5v-3.4h-4.9c-2.1,0-3.7.4-4.8,1.2-1.1.8-1.6,1.8-1.6,3.2s.4,2.4,1.2,3.1Z"/>
    <path d="M193.2,164.1c0-3.3.9-5.9,2.7-8s4.1-3.1,7-3.1,5.2,1,6.7,2.9,2.4,4.5,2.4,7.9v1.3h-16.9v-2.6h13.7v-.3c0-2-.5-3.5-1.4-4.7-1-1.2-2.4-1.8-4.3-1.8s-3.8.8-4.9,2.4-1.7,3.6-1.7,6v.7c0,2.4.6,4.4,1.7,6,1.1,1.6,2.9,2.4,5.4,2.4s2.6-.3,3.7-.9,1.9-1.3,2.5-2.1l2.1,1.7c-.7,1-1.7,1.9-3.1,2.7-1.4.8-3.1,1.2-5.1,1.2-3.3,0-5.9-1-7.7-3.1s-2.7-4.7-2.7-8v-.7Z"/>
    <path d="M216.6,153.6h2.9v3h.2c.8-1.1,1.8-1.9,2.9-2.5s2.4-.9,3.8-.9,2.8.3,3.8.9,1.9,1.5,2.4,2.8h0c.9-1.3,2-2.2,3.2-2.8,1.2-.6,2.5-.9,4-.9,2.2,0,3.9.6,5.2,1.8s1.9,3.3,1.9,6.1v14h-3.2v-14.1c0-1.8-.4-3.2-1.2-4s-2-1.2-3.5-1.2-2.4.4-3.4,1.1c-1,.7-1.8,1.6-2.3,2.7v15.5h-3.2v-14.1c0-1.8-.4-3.2-1.3-4s-2-1.2-3.5-1.2-2.4.4-3.4,1.1c-1,.7-1.7,1.6-2.3,2.7v15.5h-3.2v-21.6Z"/>
    <path d="M253,153.6h2.9v2.9h.2c.6-.9,1.5-1.7,2.7-2.3s2.6-1,4.2-1c2.8,0,5,1,6.6,3.1s2.4,4.6,2.4,7.8v.7c0,3.1-.8,5.7-2.4,7.8s-3.8,3.1-6.6,3.1-2.9-.3-4.1-.8-2.1-1.3-2.7-2.2v11.2h-3.2v-30.1ZM258.4,171.8c1.1.8,2.3,1.2,3.8,1.2,2.3,0,3.9-.8,5-2.3s1.6-3.5,1.6-5.9v-.7c0-2.4-.5-4.3-1.6-5.9s-2.7-2.3-5-2.3-2.8.4-3.8,1.2c-1.1.8-1.8,1.7-2.3,2.7v9.4c.5,1,1.2,1.9,2.3,2.7Z"/>
    <path d="M276.9,153.6h2.9v2.9h.2c.6-.9,1.4-1.8,2.3-2.5s2.1-1.1,3.5-1.1.6,0,1,.1.6.1.7.2v3c-.3,0-.6,0-.9-.1-.3,0-.7,0-1,0-1.3,0-2.5.3-3.4,1s-1.6,1.6-2.1,2.6v15.5h-3.2v-21.6Z"/>
    <path d="M289.5,164.1c0-3.3.9-5.9,2.7-8s4.1-3.1,7-3.1,5.2,1,6.7,2.9,2.4,4.5,2.4,7.9v1.3h-16.9v-2.6h13.7v-.3c0-2-.5-3.5-1.4-4.7-1-1.2-2.4-1.8-4.3-1.8s-3.8.8-4.9,2.4-1.7,3.6-1.7,6v.7c0,2.4.6,4.4,1.7,6,1.1,1.6,2.9,2.4,5.4,2.4s2.6-.3,3.7-.9,1.9-1.3,2.5-2.1l2.1,1.7c-.7,1-1.7,1.9-3.1,2.7-1.4.8-3.1,1.2-5.1,1.2-3.3,0-5.9-1-7.7-3.1s-2.7-4.7-2.7-8v-.7Z"/>
    <path d="M314.6,168.8h0c0,1.5.5,2.6,1.5,3.3s2.4,1,4,1,3-.3,3.9-1,1.4-1.6,1.4-2.6-.4-1.9-1.1-2.4c-.8-.5-2.3-1.1-4.7-1.6-2.4-.5-4.2-1.3-5.5-2.3-1.3-1-2-2.3-2-4.1s.7-3.2,2.2-4.3,3.4-1.7,5.8-1.7,4.4.6,5.9,1.8,2.2,2.7,2.2,4.7h0c0,.1-3.2.1-3.2.1h0c0-1.3-.4-2.2-1.2-2.9s-2-1-3.7-1-2.9.3-3.6.9-1.2,1.3-1.2,2.3.4,1.7,1.2,2.2c.8.6,2.4,1.1,4.8,1.7,2.4.5,4.2,1.3,5.5,2.3s1.9,2.4,1.9,4.3-.7,3.4-2.1,4.7-3.6,1.8-6.4,1.8-5-.6-6.5-1.9c-1.5-1.2-2.2-2.9-2.2-5h0c0-.1,3.2-.1,3.2-.1Z"/>
    <path d="M334.8,163.9c1.7-1.2,3.9-1.8,6.6-1.8h5.3v-1.7c0-1.4-.4-2.6-1.1-3.5s-2-1.3-3.8-1.3-3.1.4-3.9,1.1-1.2,1.6-1.2,2.7h0c0,.1-3.1.1-3.1.1h0c0-1.9.8-3.4,2.3-4.6s3.5-1.9,6.1-1.9,4.5.6,5.9,1.9,2.1,3.1,2.1,5.6v9.8c0,.9,0,1.7.2,2.5.1.8.3,1.5.6,2.1v.3h-3.1c-.2-.4-.4-.8-.6-1.4s-.3-1.1-.3-1.7c-.5.9-1.4,1.7-2.6,2.4s-2.7,1.1-4.6,1.1-3.8-.6-5.2-1.7c-1.4-1.1-2.1-2.8-2.1-5s.9-3.9,2.6-5.1ZM336.5,171.9c.8.7,2,1.1,3.7,1.1s3.1-.5,4.4-1.6,1.9-2.3,1.9-3.5v-3.4h-4.9c-2.1,0-3.7.4-4.8,1.2s-1.6,1.8-1.6,3.2.4,2.4,1.2,3.1Z"/>
    <path d="M366.2,153.6h2.9v2.9h.2c.6-.9,1.5-1.7,2.7-2.3s2.6-1,4.2-1c2.8,0,5,1,6.6,3.1s2.4,4.6,2.4,7.8v.7c0,3.1-.8,5.7-2.4,7.8s-3.8,3.1-6.6,3.1-2.9-.3-4.1-.8-2.1-1.3-2.7-2.2v11.2h-3.2v-30.1ZM371.7,171.8c1.1.8,2.3,1.2,3.8,1.2,2.3,0,3.9-.8,5-2.3s1.6-3.5,1.6-5.9v-.7c0-2.4-.5-4.3-1.6-5.9s-2.7-2.3-5-2.3-2.8.4-3.8,1.2c-1.1.8-1.8,1.7-2.3,2.7v9.4c.5,1,1.2,1.9,2.3,2.7Z"/>
    <path d="M390.1,153.6h2.9v2.9h.2c.6-.9,1.4-1.8,2.3-2.5s2.1-1.1,3.5-1.1.6,0,1,.1.6.1.7.2v3c-.3,0-.6,0-.9-.1-.3,0-.7,0-1,0-1.3,0-2.5.3-3.4,1s-1.6,1.6-2.1,2.6v15.5h-3.2v-21.6Z"/>
    <path d="M402.7,164.1c0-3.3.9-5.9,2.8-8s4.3-3.1,7.4-3.1,5.5,1,7.4,3.1,2.8,4.7,2.8,8v.7c0,3.3-.9,5.9-2.8,8s-4.3,3.1-7.4,3.1-5.6-1-7.4-3.1-2.8-4.7-2.8-8v-.7ZM406,164.7c0,2.4.6,4.4,1.7,6s2.9,2.4,5.2,2.4,4-.8,5.1-2.4,1.7-3.6,1.7-6v-.7c0-2.4-.6-4.4-1.7-6s-2.9-2.4-5.1-2.4-4,.8-5.2,2.4-1.7,3.6-1.7,6v.7Z"/>
    <path d="M427.8,153.6h2.9v3h.2c.8-1.1,1.8-1.9,2.9-2.5s2.4-.9,3.8-.9,2.8.3,3.8.9,1.9,1.5,2.4,2.8h0c.9-1.3,2-2.2,3.2-2.8,1.2-.6,2.5-.9,4-.9,2.2,0,3.9.6,5.2,1.8s1.9,3.3,1.9,6.1v14h-3.2v-14.1c0-1.8-.4-3.2-1.2-4s-2-1.2-3.5-1.2-2.4.4-3.4,1.1c-1,.7-1.8,1.6-2.3,2.7v15.5h-3.2v-14.1c0-1.8-.4-3.2-1.3-4s-2-1.2-3.5-1.2-2.4.4-3.4,1.1c-1,.7-1.7,1.6-2.3,2.7v15.5h-3.2v-21.6Z"/>
    <path d="M462.9,164.1c0-3.3.9-5.9,2.7-8s4.1-3.1,7-3.1,5.2,1,6.7,2.9,2.4,4.5,2.4,7.9v1.3h-16.9v-2.6h13.7v-.3c0-2-.5-3.5-1.4-4.7-1-1.2-2.4-1.8-4.3-1.8s-3.8.8-4.9,2.4-1.7,3.6-1.7,6v.7c0,2.4.6,4.4,1.7,6,1.1,1.6,2.9,2.4,5.4,2.4s2.6-.3,3.7-.9,1.9-1.3,2.5-2.1l2.1,1.7c-.7,1-1.7,1.9-3.1,2.7-1.4.8-3.1,1.2-5.1,1.2-3.3,0-5.9-1-7.7-3.1s-2.7-4.7-2.7-8v-.7Z"/>
    <path d="M483.1,153.6h12.4v2.5h-12.4v-2.5ZM487.3,155.1v-6.8h3.2v21.6c0,1.1.2,1.9.6,2.4s1.1.7,2,.7.8,0,1.2-.1.8-.2,1.1-.3v2.7c-.3.2-.8.3-1.3.4-.5.1-1.1.2-1.8.2-1.5,0-2.7-.5-3.7-1.4s-1.4-2.5-1.4-4.5v-14.7Z"/>
    <path d="M498.3,164.1c0-3.3.9-5.9,2.7-8s4.1-3.1,7-3.1,5.2,1,6.7,2.9,2.4,4.5,2.4,7.9v1.3h-16.9v-2.6h13.7v-.3c0-2-.5-3.5-1.4-4.7-1-1.2-2.4-1.8-4.3-1.8s-3.8.8-4.9,2.4-1.7,3.6-1.7,6v.7c0,2.4.6,4.4,1.7,6,1.1,1.6,2.9,2.4,5.4,2.4s2.6-.3,3.7-.9,1.9-1.3,2.5-2.1l2.1,1.7c-.7,1-1.7,1.9-3.1,2.7-1.4.8-3.1,1.2-5.1,1.2-3.3,0-5.9-1-7.7-3.1s-2.7-4.7-2.7-8v-.7Z"/>
    <path d="M531.7,153.6h3.2v14.1c0,1.8.4,3.2,1.3,4s2.1,1.2,3.6,1.2,2.5-.4,3.5-1.1,1.8-1.6,2.4-2.7v-15.5h3.2v21.6h-2.9v-3h-.2c-.8,1.1-1.8,1.9-3,2.5-1.2.6-2.5.9-3.9.9-2.2,0-3.9-.6-5.2-1.8-1.3-1.2-1.9-3.3-1.9-6.1v-14Z"/>
    <path d="M555.1,153.6h2.9v3h.2c.8-1.1,1.8-1.9,3-2.5,1.2-.6,2.5-.9,3.9-.9,2.2,0,3.9.6,5.2,1.8s1.9,3.3,1.9,6.1v14h-3.2v-14.1c0-1.8-.4-3.2-1.3-4s-2.1-1.2-3.6-1.2-2.5.4-3.5,1.1-1.8,1.6-2.4,2.7v15.5h-3.2v-21.6Z"/>
    <path d="M587.2,164.1c0-3.1.8-5.7,2.5-7.8s3.8-3.1,6.6-3.1,2.9.3,4.1.8,2,1.3,2.7,2.2v-12.6h3.2v31.5h-2.9v-2.9h-.2c-.6.9-1.5,1.7-2.7,2.3-1.2.6-2.6,1-4.2,1-2.8,0-5-1-6.6-3.1s-2.5-4.6-2.5-7.8v-.7ZM592,170.6c1.1,1.6,2.7,2.3,4.9,2.3s2.8-.4,3.8-1.2,1.8-1.7,2.3-2.7v-9.4c-.5-1-1.2-1.9-2.3-2.7-1-.8-2.3-1.2-3.8-1.2-2.2,0-3.9.8-4.9,2.3s-1.6,3.5-1.6,5.9v.7c0,2.4.5,4.3,1.6,5.9Z"/>
    <path d="M611,164.1c0-3.3.9-5.9,2.7-8s4.1-3.1,7-3.1,5.2,1,6.7,2.9,2.4,4.5,2.4,7.9v1.3h-16.9v-2.6h13.7v-.3c0-2-.5-3.5-1.4-4.7-1-1.2-2.4-1.8-4.3-1.8s-3.8.8-4.9,2.4-1.7,3.6-1.7,6v.7c0,2.4.6,4.4,1.7,6,1.1,1.6,2.9,2.4,5.4,2.4s2.6-.3,3.7-.9,1.9-1.3,2.5-2.1l2.1,1.7c-.7,1-1.7,1.9-3.1,2.7-1.4.8-3.1,1.2-5.1,1.2-3.3,0-5.9-1-7.7-3.1s-2.7-4.7-2.7-8v-.7Z"/>
    <path d="M634.5,143.7h3.2v31.5h-3.2v-31.5Z"/>
    <path d="M644.2,145.5c.4-.4.9-.6,1.6-.6s1.2.2,1.5.6c.4.4.5.9.5,1.4s-.2,1.1-.5,1.4c-.4.4-.9.6-1.5.6s-1.2-.2-1.6-.6c-.4-.4-.5-.9-.5-1.4s.2-1.1.5-1.4ZM644.2,153.6h3.2v21.6h-3.2v-21.6Z"/>
    <path d="M653.8,153.6l5.6,15.3c.2.5.4,1,.5,1.5s.2.8.3,1.2h.1c0-.3.2-.7.3-1.2s.3-1,.5-1.5l5.6-15.3h3.1l-8.4,21.6h-2.6l-8.4-21.6h3.2Z"/>
    <path d="M671.4,164.1c0-3.3.9-5.9,2.7-8s4.1-3.1,7-3.1,5.2,1,6.7,2.9,2.4,4.5,2.4,7.9v1.3h-16.9v-2.6h13.7v-.3c0-2-.5-3.5-1.4-4.7-1-1.2-2.4-1.8-4.3-1.8s-3.8.8-4.9,2.4-1.7,3.6-1.7,6v.7c0,2.4.6,4.4,1.7,6,1.1,1.6,2.9,2.4,5.4,2.4s2.6-.3,3.7-.9,1.9-1.3,2.5-2.1l2.1,1.7c-.7,1-1.7,1.9-3.1,2.7-1.4.8-3.1,1.2-5.1,1.2-3.3,0-5.9-1-7.7-3.1s-2.7-4.7-2.7-8v-.7Z"/>
    <path d="M694.7,153.6h2.9v2.9h.2c.6-.9,1.4-1.8,2.3-2.5s2.1-1.1,3.5-1.1.6,0,1,.1.6.1.7.2v3c-.3,0-.6,0-.9-.1-.3,0-.7,0-1,0-1.3,0-2.5.3-3.4,1s-1.6,1.6-2.1,2.6v15.5h-3.2v-21.6Z"/>
    <path d="M707.5,181c.4.1.8.2,1.3.3s.9.1,1.3.1c.9,0,1.7-.3,2.4-1,.7-.7,1.5-2.4,2.6-5.2h0s-8.3-21.5-8.3-21.5h3.2l5.6,15.1c.2.5.3,1,.5,1.4s.3.9.4,1.3h.1c.1-.4.3-.9.4-1.3s.3-.9.5-1.4l5.2-15.1h3.1l-8.8,24c-.8,2.2-1.7,3.8-2.8,4.9s-2.4,1.6-3.9,1.6-1.1,0-1.5-.1-.8-.2-1.2-.3v-2.7Z"/>
    <path d="M141.1,214.3c1.7-1.2,3.9-1.8,6.6-1.8h5.3v-1.7c0-1.4-.4-2.6-1.1-3.5-.7-.9-2-1.3-3.8-1.3s-3.1.4-3.9,1.1c-.8.7-1.2,1.6-1.2,2.7h0c0,.1-3.1.1-3.1.1h0c0-1.9.8-3.4,2.3-4.6,1.5-1.3,3.5-1.9,6.1-1.9s4.5.6,5.9,1.9c1.4,1.2,2.1,3.1,2.1,5.6v9.8c0,.9,0,1.7.2,2.5.1.8.3,1.5.6,2.1v.3h-3.1c-.2-.4-.4-.8-.6-1.4s-.3-1.1-.3-1.7c-.5.9-1.4,1.7-2.6,2.4-1.2.7-2.7,1.1-4.6,1.1s-3.8-.6-5.2-1.7c-1.4-1.1-2.1-2.8-2.1-5s.9-3.9,2.6-5.1ZM142.9,222.3c.8.7,2,1.1,3.7,1.1s3.1-.5,4.4-1.6c1.3-1.1,1.9-2.3,1.9-3.5v-3.4h-4.9c-2.1,0-3.7.4-4.8,1.2-1.1.8-1.6,1.8-1.6,3.2s.4,2.4,1.2,3.1Z"/>
    <path d="M162.5,194.1h3.2v31.5h-3.2v-31.5Z"/>
    <path d="M182.2,204h2.9v3h.2c.8-1.1,1.8-1.9,2.9-2.5s2.4-.9,3.8-.9,2.8.3,3.8.9,1.9,1.5,2.4,2.8h0c.9-1.3,2-2.2,3.2-2.8,1.2-.6,2.5-.9,4-.9,2.2,0,3.9.6,5.2,1.8s1.9,3.3,1.9,6.1v14h-3.2v-14.1c0-1.8-.4-3.2-1.2-4s-2-1.2-3.5-1.2-2.4.4-3.4,1.1c-1,.7-1.8,1.6-2.3,2.7v15.5h-3.2v-14.1c0-1.8-.4-3.2-1.3-4s-2-1.2-3.5-1.2-2.4.4-3.4,1.1c-1,.7-1.7,1.6-2.3,2.7v15.5h-3.2v-21.6Z"/>
    <path d="M217.3,214.5c0-3.3.9-5.9,2.7-8s4.1-3.1,7-3.1,5.2,1,6.7,2.9,2.4,4.5,2.4,7.9v1.3h-16.9v-2.6h13.7v-.3c0-2-.5-3.5-1.4-4.7-1-1.2-2.4-1.8-4.3-1.8s-3.8.8-4.9,2.4-1.7,3.6-1.7,6v.7c0,2.4.6,4.4,1.7,6,1.1,1.6,2.9,2.4,5.4,2.4s2.6-.3,3.7-.9,1.9-1.3,2.5-2.1l2.1,1.7c-.7,1-1.7,1.9-3.1,2.7-1.4.8-3.1,1.2-5.1,1.2-3.3,0-5.9-1-7.7-3.1s-2.7-4.7-2.7-8v-.7Z"/>
    <path d="M240.6,204h2.9v3h.2c.8-1.1,1.8-1.9,3-2.5,1.2-.6,2.5-.9,3.9-.9,2.2,0,3.9.6,5.2,1.8s1.9,3.3,1.9,6.1v14h-3.2v-14.1c0-1.8-.4-3.2-1.3-4s-2.1-1.2-3.6-1.2-2.5.4-3.5,1.1-1.8,1.6-2.4,2.7v15.5h-3.2v-21.6Z"/>
    <path d="M262.4,214.5c0-3.3.9-5.9,2.8-8s4.3-3.1,7.4-3.1,5.5,1,7.4,3.1,2.8,4.7,2.8,8v.7c0,3.3-.9,5.9-2.8,8s-4.3,3.1-7.4,3.1-5.6-1-7.4-3.1-2.8-4.7-2.8-8v-.7ZM265.7,215.1c0,2.4.6,4.4,1.7,6s2.9,2.4,5.2,2.4,4-.8,5.1-2.4,1.7-3.6,1.7-6v-.7c0-2.4-.6-4.4-1.7-6s-2.9-2.4-5.1-2.4-4,.8-5.2,2.4-1.7,3.6-1.7,6v.7Z"/>
    <path d="M289.3,219.2h0c0,1.5.5,2.6,1.5,3.3s2.4,1,4,1,3-.3,3.9-1,1.4-1.6,1.4-2.6-.4-1.9-1.1-2.4c-.8-.5-2.3-1.1-4.7-1.6-2.4-.5-4.2-1.3-5.5-2.3-1.3-1-2-2.3-2-4.1s.7-3.2,2.2-4.3,3.4-1.7,5.8-1.7,4.4.6,5.9,1.8,2.2,2.7,2.2,4.7h0c0,.1-3.2.1-3.2.1h0c0-1.3-.4-2.2-1.2-2.9s-2-1-3.7-1-2.9.3-3.6.9-1.2,1.3-1.2,2.3.4,1.7,1.2,2.2c.8.6,2.4,1.1,4.8,1.7,2.4.5,4.2,1.3,5.5,2.3s1.9,2.4,1.9,4.3-.7,3.4-2.1,4.7-3.6,1.8-6.4,1.8-5-.6-6.5-1.9c-1.5-1.2-2.2-2.9-2.2-5h0c0-.1,3.2-.1,3.2-.1Z"/>
    <path class="st10" d="M325.7,201.2l-7.2,2.9v-4.7l10.4-4h2.3v30.2h-5.5v-24.4Z"/>
    <path class="st10" d="M336,225.6l15.5-32.3h4.3l-15.5,32.3h-4.3Z"/>
    <path class="st10" d="M354.1,217.1h5.5v.3c0,1.4.4,2.5,1.3,3.3s2,1.2,3.5,1.2,2.7-.4,3.6-1.2c.8-.8,1.3-2,1.3-3.7s-.5-2.9-1.4-3.7c-1-.8-2.3-1.2-4.1-1.2h-2.6v-4.1h2.4c1.6,0,2.8-.4,3.6-1.2s1.2-1.9,1.2-3.3-.3-2.4-1-3.1-1.7-1.1-2.9-1.1-2.3.3-3,1-1.1,1.7-1.1,3v.3h-5.5v-.3c0-2.3.9-4.3,2.6-5.9,1.7-1.6,4.1-2.4,7.1-2.4s5.4.8,7,2.3,2.5,3.3,2.5,5.5-.4,2.9-1.1,4.2-1.9,2.2-3.5,2.8h0c1.7.5,3.1,1.3,4.1,2.6s1.5,2.8,1.5,4.7c0,2.8-.9,5-2.8,6.6-1.9,1.6-4.5,2.4-7.7,2.4s-5.8-.8-7.6-2.4-2.6-3.7-2.6-6.3v-.4Z"/>
    <path class="st10" d="M389.6,204h5v2.6h.3c.7-.9,1.5-1.7,2.6-2.2s2.2-.8,3.5-.8,2.8.3,3.9.9c1.1.6,1.9,1.5,2.4,2.8h.1c.8-1.2,1.8-2.2,3-2.8,1.2-.6,2.5-.9,3.9-.9,2.2,0,4,.7,5.3,2,1.3,1.3,2,3.5,2,6.6v13.4h-5.3v-13.7c0-1.4-.3-2.5-.9-3.1-.6-.7-1.5-1-2.6-1-1,0-1.9.3-2.6.8s-1.3,1.3-1.8,2.3v14.7h-5.4v-13.7c0-1.5-.3-2.5-.9-3.2-.6-.7-1.5-1-2.7-1s-1.9.3-2.6.8-1.3,1.3-1.8,2.3v14.7h-5.3v-21.6Z"/>
    <path class="st10" d="M428.6,213.9c1.8-1.2,4.1-1.8,6.9-1.8h4.4v-1.3c0-1.1-.3-1.9-.8-2.6-.6-.7-1.5-1-2.9-1s-2.4.3-3,.8-.9,1.2-.9,2v.2h-5.3v-.2c0-1.9.9-3.4,2.6-4.7s4-1.9,6.7-1.9,5,.6,6.5,1.8,2.3,3.1,2.3,5.6v9.9c0,.9,0,1.7.2,2.5.2.8.4,1.5.6,2v.3h-5.2c-.2-.3-.3-.8-.5-1.3s-.2-1-.3-1.5c-.5.8-1.3,1.6-2.4,2.2s-2.6,1-4.4,1-3.9-.6-5.3-1.7c-1.4-1.1-2.2-2.8-2.2-5.1s.9-4.1,2.7-5.3ZM432.1,221.3c.6.6,1.6.9,2.9.9s2.5-.4,3.5-1.3,1.5-1.9,1.5-3.1v-2.4h-3.7c-1.7,0-2.9.3-3.7.9s-1.2,1.4-1.2,2.5.3,1.9.9,2.5ZM437.2,191.9l4.1,2.6-6.4,6-2.8-2.2,5.1-6.4Z"/>
    <path class="st10" d="M454.7,218.9v.2c0,1.1.4,1.9,1.1,2.4s1.8.8,3.1.8,2.3-.2,3-.7,1-1.2,1-2-.3-1.4-1-1.8-2.2-.9-4.5-1.4c-2.5-.5-4.3-1.3-5.5-2.4s-1.8-2.4-1.8-4.2.8-3.5,2.4-4.7,3.7-1.8,6.4-1.8,4.9.6,6.5,1.8,2.4,2.9,2.4,5v.2h-5.2v-.3c0-.9-.3-1.6-.9-2.1-.6-.5-1.5-.8-2.8-.8s-2.1.2-2.7.7-.9,1-.9,1.7.3,1.2,1,1.7c.7.4,2.2.9,4.6,1.4,2.4.5,4.3,1.3,5.5,2.3,1.2,1,1.8,2.5,1.8,4.4s-.8,3.8-2.4,5-3.9,1.9-6.9,1.9-5.4-.6-7-1.9c-1.6-1.2-2.5-3-2.5-5.2v-.2h5.3Z"/>
    <path class="st10" d="M482.8,204h5v2.5h.2c.5-.8,1.1-1.6,1.9-2.2s1.7-.9,2.8-.9.6,0,.9.1.5.1.6.2v4.7c-.2,0-.5,0-.8-.1s-.6,0-.9,0c-1,0-1.9.3-2.7.9s-1.3,1.3-1.7,2.2v14.3h-5.4v-21.6Z"/>
    <path class="st10" d="M498.6,213.9c1.8-1.2,4.1-1.8,6.9-1.8h4.4v-1.3c0-1.1-.3-1.9-.8-2.6-.6-.7-1.5-1-2.9-1s-2.4.3-3,.8-.9,1.2-.9,2v.2h-5.3v-.2c0-1.9.9-3.4,2.6-4.7s4-1.9,6.7-1.9,5,.6,6.5,1.8,2.3,3.1,2.3,5.6v9.9c0,.9,0,1.7.2,2.5.2.8.4,1.5.6,2v.3h-5.2c-.2-.3-.3-.8-.5-1.3s-.2-1-.3-1.5c-.5.8-1.3,1.6-2.4,2.2s-2.6,1-4.4,1-3.9-.6-5.3-1.7c-1.4-1.1-2.2-2.8-2.2-5.1s.9-4.1,2.7-5.3ZM502.1,221.3c.6.6,1.6.9,2.9.9s2.5-.4,3.5-1.3,1.5-1.9,1.5-3.1v-2.4h-3.7c-1.7,0-2.9.3-3.7.9s-1.2,1.4-1.2,2.5.3,1.9.9,2.5ZM507.3,191.9l4.1,2.6-6.4,6-2.8-2.2,5.1-6.4Z"/>
    <path class="st10" d="M520.9,204h4.9v2.6h.3c.5-.8,1.3-1.6,2.4-2.1s2.4-.9,3.8-.9c2.8,0,5,1,6.7,3s2.5,4.6,2.5,7.9v.7c0,3.2-.8,5.9-2.5,7.9s-3.9,3-6.6,3-2.6-.2-3.7-.7-1.9-1.1-2.5-2v10.8h-5.3v-30.1ZM528,220.9c.8.7,1.9,1,3,1,1.7,0,2.9-.6,3.8-1.8.8-1.2,1.2-2.8,1.2-4.8v-1.1c0-2-.4-3.6-1.2-4.8s-2.1-1.8-3.8-1.8-2.2.3-3,1c-.8.6-1.4,1.4-1.8,2.2v7.8c.4.9,1,1.6,1.8,2.3Z"/>
    <path class="st10" d="M546.2,195.7c.5-.6,1.3-.8,2.4-.8s1.8.3,2.3.8.8,1.3.8,2.1-.3,1.5-.8,2.1-1.3.9-2.4.9-1.8-.3-2.3-.9-.8-1.3-.8-2.1.3-1.5.8-2.1ZM545.9,204h5.4v21.6h-5.4v-21.6Z"/>
    <path class="st10" d="M555.7,214.5c0-3.2.9-5.8,2.6-7.8,1.7-2,3.9-3,6.7-3s2.6.2,3.6.7c1,.5,1.8,1.2,2.4,2v-12.1h5.3v31.4h-5v-2.6h-.2c-.5.9-1.3,1.6-2.3,2.2s-2.3.9-3.7.9c-2.9,0-5.1-1-6.8-3-1.7-2-2.5-4.6-2.5-7.8v-.7ZM562.4,220c.8,1.2,2.1,1.9,3.8,1.9s2.1-.3,3-1c.8-.6,1.4-1.4,1.8-2.2v-7.9c-.4-.9-1-1.6-1.7-2.2s-1.8-.9-3-.9-3,.6-3.8,1.9c-.8,1.2-1.3,2.8-1.3,4.7v1.1c0,1.9.4,3.5,1.3,4.7Z"/>
    <path class="st10" d="M580.7,214.5c0-3.4,1-6.1,3-8.1s4.6-3,7.8-3,5.9,1,7.8,3,3,4.7,3,8.1v.7c0,3.3-1,6-3,8.1s-4.6,3-7.8,3-5.8-1-7.8-3-3-4.7-3-8.1v-.7ZM586.1,215.3c0,2.1.5,3.7,1.4,4.9.9,1.2,2.2,1.8,4,1.8s3.1-.6,4-1.8c.9-1.2,1.4-2.9,1.4-4.9v-1.1c0-2.1-.5-3.7-1.4-4.9s-2.2-1.8-4-1.8-3,.6-4,1.8-1.4,2.9-1.4,4.9v1.1Z"/>
    <path d="M615.9,214.5c0-3.1.8-5.7,2.4-7.8s3.8-3.1,6.6-3.1,3,.3,4.2,1,2.1,1.4,2.7,2.3h.1v-2.9h3v30.1h-3.2v-11.2c-.7.9-1.6,1.7-2.7,2.2s-2.5.8-4.1.8c-2.8,0-5-1-6.6-3.1s-2.4-4.6-2.4-7.8v-.7ZM620.7,221c1,1.6,2.7,2.3,4.9,2.3s2.8-.4,3.8-1.2,1.8-1.7,2.3-2.7v-9.4c-.5-1-1.2-1.9-2.3-2.7-1-.8-2.3-1.2-3.8-1.2-2.2,0-3.9.8-4.9,2.3s-1.6,3.5-1.6,5.9v.7c0,2.4.5,4.3,1.6,5.9Z"/>
    <path d="M640.9,204h3.2v14.1c0,1.8.4,3.2,1.3,4s2.1,1.2,3.6,1.2,2.5-.4,3.5-1.1,1.8-1.6,2.4-2.7v-15.5h3.2v21.6h-2.9v-3h-.2c-.8,1.1-1.8,1.9-3,2.5-1.2.6-2.5.9-3.9.9-2.2,0-3.9-.6-5.2-1.8-1.3-1.2-1.9-3.3-1.9-6.1v-14Z"/>
    <path d="M662.9,214.5c0-3.3.9-5.9,2.7-8s4.1-3.1,7-3.1,5.2,1,6.7,2.9,2.4,4.5,2.4,7.9v1.3h-16.9v-2.6h13.7v-.3c0-2-.5-3.5-1.4-4.7-1-1.2-2.4-1.8-4.3-1.8s-3.8.8-4.9,2.4-1.7,3.6-1.7,6v.7c0,2.4.6,4.4,1.7,6,1.1,1.6,2.9,2.4,5.4,2.4s2.6-.3,3.7-.9,1.9-1.3,2.5-2.1l2.1,1.7c-.7,1-1.7,1.9-3.1,2.7-1.4.8-3.1,1.2-5.1,1.2-3.3,0-5.9-1-7.7-3.1s-2.7-4.7-2.7-8v-.7Z"/>
    <path d="M695.2,214.5c0-3.3.9-5.9,2.7-8s4.1-3.1,7-3.1,5.2,1,6.7,2.9,2.4,4.5,2.4,7.9v1.3h-16.9v-2.6h13.7v-.3c0-2-.5-3.5-1.4-4.7-1-1.2-2.4-1.8-4.3-1.8s-3.8.8-4.9,2.4-1.7,3.6-1.7,6v.7c0,2.4.6,4.4,1.7,6,1.1,1.6,2.9,2.4,5.4,2.4s2.6-.3,3.7-.9,1.9-1.3,2.5-2.1l2.1,1.7c-.7,1-1.7,1.9-3.1,2.7-1.4.8-3.1,1.2-5.1,1.2-3.3,0-5.9-1-7.7-3.1s-2.7-4.7-2.7-8v-.7Z"/>
    <path d="M718.6,194.1h3.2v31.5h-3.2v-31.5Z"/>
    <path d="M139.8,254.4h2.9v3h.2c.8-1.1,1.8-1.9,2.9-2.5,1.1-.6,2.4-.9,3.8-.9s2.8.3,3.8.9,1.9,1.5,2.4,2.8h0c.9-1.3,2-2.2,3.2-2.8,1.2-.6,2.5-.9,4-.9,2.2,0,3.9.6,5.2,1.8s1.9,3.3,1.9,6.1v14h-3.2v-14.1c0-1.8-.4-3.2-1.2-4-.8-.8-2-1.2-3.5-1.2s-2.4.4-3.4,1.1c-1,.7-1.8,1.6-2.3,2.7v15.5h-3.2v-14.1c0-1.8-.4-3.2-1.3-4-.8-.8-2-1.2-3.5-1.2s-2.4.4-3.4,1.1c-1,.7-1.7,1.6-2.3,2.7v15.5h-3.2v-21.6Z"/>
    <path d="M176.3,246.3c.4-.4.9-.6,1.6-.6s1.2.2,1.5.6c.4.4.5.9.5,1.4s-.2,1.1-.5,1.4c-.4.4-.9.6-1.5.6s-1.2-.2-1.6-.6c-.4-.4-.5-.9-.5-1.4s.2-1.1.5-1.4ZM176.3,254.4h3.2v21.6h-3.2v-21.6Z"/>
    <path d="M187.5,269.6h0c0,1.5.5,2.6,1.5,3.3s2.4,1,4,1,3-.3,3.9-1,1.4-1.6,1.4-2.6-.4-1.9-1.1-2.4c-.8-.5-2.3-1.1-4.7-1.6-2.4-.5-4.2-1.3-5.5-2.3-1.3-1-2-2.3-2-4.1s.7-3.2,2.2-4.3,3.4-1.7,5.8-1.7,4.4.6,5.9,1.8,2.2,2.7,2.2,4.7h0c0,.1-3.2.1-3.2.1h0c0-1.3-.4-2.2-1.2-2.9s-2-1-3.7-1-2.9.3-3.6.9-1.2,1.3-1.2,2.3.4,1.7,1.2,2.2c.8.6,2.4,1.1,4.8,1.7,2.4.5,4.2,1.3,5.5,2.3s1.9,2.4,1.9,4.3-.7,3.4-2.1,4.7-3.6,1.8-6.4,1.8-5-.6-6.5-1.9c-1.5-1.2-2.2-2.9-2.2-5h0c0-.1,3.2-.1,3.2-.1Z"/>
    <path d="M206.3,254.4h2.9v3h.2c.8-1.1,1.8-1.9,2.9-2.5s2.4-.9,3.8-.9,2.8.3,3.8.9,1.9,1.5,2.4,2.8h0c.9-1.3,2-2.2,3.2-2.8,1.2-.6,2.5-.9,4-.9,2.2,0,3.9.6,5.2,1.8s1.9,3.3,1.9,6.1v14h-3.2v-14.1c0-1.8-.4-3.2-1.2-4s-2-1.2-3.5-1.2-2.4.4-3.4,1.1c-1,.7-1.8,1.6-2.3,2.7v15.5h-3.2v-14.1c0-1.8-.4-3.2-1.3-4s-2-1.2-3.5-1.2-2.4.4-3.4,1.1c-1,.7-1.7,1.6-2.3,2.7v15.5h-3.2v-21.6Z"/>
    <path d="M241.4,264.9c0-3.3.9-5.9,2.8-8s4.3-3.1,7.4-3.1,5.5,1,7.4,3.1,2.8,4.7,2.8,8v.7c0,3.3-.9,5.9-2.8,8s-4.3,3.1-7.4,3.1-5.6-1-7.4-3.1-2.8-4.7-2.8-8v-.7ZM244.7,265.5c0,2.4.6,4.4,1.7,6s2.9,2.4,5.2,2.4,4-.8,5.1-2.4,1.7-3.6,1.7-6v-.7c0-2.4-.6-4.4-1.7-6s-2.9-2.4-5.1-2.4-4,.8-5.2,2.4-1.7,3.6-1.7,6v.7Z"/>
    <path d="M273.7,254.4h12.4v2.5h-12.4v-2.5ZM277.8,255.9v-6.8h3.2v21.6c0,1.1.2,1.9.6,2.4s1.1.7,2,.7.8,0,1.2-.1.8-.2,1.1-.3v2.7c-.3.2-.8.3-1.3.4-.5.1-1.1.2-1.8.2-1.5,0-2.7-.5-3.7-1.4s-1.4-2.5-1.4-4.5v-14.7Z"/>
    <path d="M290.2,254.4h2.9v2.9h.2c.6-.9,1.4-1.8,2.3-2.5s2.1-1.1,3.5-1.1.6,0,1,.1.6.1.7.2v3c-.3,0-.6,0-.9-.1-.3,0-.7,0-1,0-1.3,0-2.5.3-3.4,1s-1.6,1.6-2.1,2.6v15.5h-3.2v-21.6Z"/>
    <path d="M305.2,264.7c1.7-1.2,3.9-1.8,6.6-1.8h5.3v-1.7c0-1.4-.4-2.6-1.1-3.5s-2-1.3-3.8-1.3-3.1.4-3.9,1.1-1.2,1.6-1.2,2.7h0c0,.1-3.1.1-3.1.1h0c0-1.9.8-3.4,2.3-4.6s3.5-1.9,6.1-1.9,4.5.6,5.9,1.9,2.1,3.1,2.1,5.6v9.8c0,.9,0,1.7.2,2.5.1.8.3,1.5.6,2.1v.3h-3.1c-.2-.4-.4-.8-.6-1.4s-.3-1.1-.3-1.7c-.5.9-1.4,1.7-2.6,2.4s-2.7,1.1-4.6,1.1-3.8-.6-5.2-1.7c-1.4-1.1-2.1-2.8-2.1-5s.9-3.9,2.6-5.1ZM307,272.7c.8.7,2,1.1,3.7,1.1s3.1-.5,4.4-1.6,1.9-2.3,1.9-3.5v-3.4h-4.9c-2.1,0-3.7.4-4.8,1.2s-1.6,1.8-1.6,3.2.4,2.4,1.2,3.1Z"/>
    <path d="M326.4,244.5h3.2v12.6c.7-.9,1.6-1.7,2.7-2.2s2.5-.8,4.1-.8c2.8,0,5,1,6.6,3.1s2.4,4.6,2.4,7.8v.7c0,3.1-.8,5.7-2.4,7.8s-3.8,3.1-6.6,3.1-3-.3-4.2-1c-1.2-.6-2.1-1.4-2.7-2.3h0v2.9h-3v-31.5ZM331.8,272.6c1,.8,2.3,1.2,3.8,1.2,2.3,0,3.9-.8,5-2.3s1.6-3.5,1.6-5.9v-.7c0-2.4-.5-4.3-1.6-5.9s-2.7-2.3-5-2.3-2.8.4-3.8,1.2c-1,.8-1.8,1.7-2.3,2.7v9.4c.5,1,1.2,1.9,2.3,2.7Z"/>
    <path d="M351.7,264.7c1.7-1.2,3.9-1.8,6.6-1.8h5.3v-1.7c0-1.4-.4-2.6-1.1-3.5s-2-1.3-3.8-1.3-3.1.4-3.9,1.1-1.2,1.6-1.2,2.7h0c0,.1-3.1.1-3.1.1h0c0-1.9.8-3.4,2.3-4.6s3.5-1.9,6.1-1.9,4.5.6,5.9,1.9,2.1,3.1,2.1,5.6v9.8c0,.9,0,1.7.2,2.5.1.8.3,1.5.6,2.1v.3h-3.1c-.2-.4-.4-.8-.6-1.4s-.3-1.1-.3-1.7c-.5.9-1.4,1.7-2.6,2.4s-2.7,1.1-4.6,1.1-3.8-.6-5.2-1.7c-1.4-1.1-2.1-2.8-2.1-5s.9-3.9,2.6-5.1ZM353.4,272.7c.8.7,2,1.1,3.7,1.1s3.1-.5,4.4-1.6,1.9-2.3,1.9-3.5v-3.4h-4.9c-2.1,0-3.7.4-4.8,1.2s-1.6,1.8-1.6,3.2.4,2.4,1.2,3.1Z"/>
    <path d="M367.4,281.8c.3,0,.7.2,1.2.3s1,.1,1.4.1c1,0,1.7-.3,2.2-.8.5-.6.8-1.5.8-2.7v-24.2h3.2v23.4c0,2.5-.5,4.3-1.4,5.4s-2.3,1.7-4.2,1.7-1.1,0-1.7-.2c-.6-.1-1.1-.2-1.4-.3v-2.6ZM373,246.3c.4-.4.9-.6,1.6-.6s1.2.2,1.5.6c.4.4.5.9.5,1.4s-.2,1.1-.5,1.4c-.4.4-.9.6-1.5.6s-1.2-.2-1.6-.6c-.4-.4-.5-.9-.5-1.4s.2-1.1.5-1.4Z"/>
    <path d="M381.2,264.9c0-3.3.9-5.9,2.8-8s4.3-3.1,7.4-3.1,5.5,1,7.4,3.1,2.8,4.7,2.8,8v.7c0,3.3-.9,5.9-2.8,8s-4.3,3.1-7.4,3.1-5.6-1-7.4-3.1-2.8-4.7-2.8-8v-.7ZM384.4,265.5c0,2.4.6,4.4,1.7,6s2.9,2.4,5.2,2.4,4-.8,5.1-2.4,1.7-3.6,1.7-6v-.7c0-2.4-.6-4.4-1.7-6s-2.9-2.4-5.1-2.4-4,.8-5.2,2.4-1.7,3.6-1.7,6v.7Z"/>
    <path d="M415.2,264.9c0-3.3.9-5.9,2.7-8s4.1-3.1,7-3.1,5.2,1,6.7,2.9,2.4,4.5,2.4,7.9v1.3h-16.9v-2.6h13.7v-.3c0-2-.5-3.5-1.4-4.7-1-1.2-2.4-1.8-4.3-1.8s-3.8.8-4.9,2.4-1.7,3.6-1.7,6v.7c0,2.4.6,4.4,1.7,6,1.1,1.6,2.9,2.4,5.4,2.4s2.6-.3,3.7-.9,1.9-1.3,2.5-2.1l2.1,1.7c-.7,1-1.7,1.9-3.1,2.7-1.4.8-3.1,1.2-5.1,1.2-3.3,0-5.9-1-7.7-3.1s-2.7-4.7-2.7-8v-.7Z"/>
    <path d="M433.1,281.8c.3,0,.7.2,1.2.3s1,.1,1.4.1c1,0,1.7-.3,2.2-.8.5-.6.8-1.5.8-2.7v-24.2h3.2v23.4c0,2.5-.5,4.3-1.4,5.4s-2.3,1.7-4.2,1.7-1.1,0-1.7-.2c-.6-.1-1.1-.2-1.4-.3v-2.6ZM438.7,246.3c.4-.4.9-.6,1.6-.6s1.2.2,1.5.6c.4.4.5.9.5,1.4s-.2,1.1-.5,1.4c-.4.4-.9.6-1.5.6s-1.2-.2-1.6-.6c-.4-.4-.5-.9-.5-1.4s.2-1.1.5-1.4Z"/>
    <path d="M446.8,264.9c0-3.3.9-5.9,2.7-8s4.1-3.1,7-3.1,5.2,1,6.7,2.9,2.4,4.5,2.4,7.9v1.3h-16.9v-2.6h13.7v-.3c0-2-.5-3.5-1.4-4.7-1-1.2-2.4-1.8-4.3-1.8s-3.8.8-4.9,2.4-1.7,3.6-1.7,6v.7c0,2.4.6,4.4,1.7,6,1.1,1.6,2.9,2.4,5.4,2.4s2.6-.3,3.7-.9,1.9-1.3,2.5-2.1l2.1,1.7c-.7,1-1.7,1.9-3.1,2.7-1.4.8-3.1,1.2-5.1,1.2-3.3,0-5.9-1-7.7-3.1s-2.7-4.7-2.7-8v-.7Z"/>
    <path d="M468.8,264.9c0-3.3.9-5.9,2.6-8s4.2-3.1,7.3-3.1,5,.8,6.5,2.3,2.2,3.3,2.2,5.2h0c0,.1-3.1.1-3.1.1h0c0-1.4-.4-2.6-1.3-3.5-.9-1-2.3-1.4-4.3-1.4s-4,.8-5.1,2.4-1.6,3.6-1.6,6v.7c0,2.4.5,4.4,1.6,6,1.1,1.6,2.8,2.4,5,2.4s3.4-.5,4.3-1.4c.9-1,1.3-2.1,1.3-3.4h0c0-.1,3.1-.1,3.1-.1h0c0,2-.7,3.8-2.2,5.3s-3.6,2.3-6.5,2.3-5.5-1-7.3-3.1-2.6-4.7-2.6-8v-.7Z"/>
    <path d="M491.8,254.4h3.2v14.1c0,1.8.4,3.2,1.3,4s2.1,1.2,3.6,1.2,2.5-.4,3.5-1.1,1.8-1.6,2.4-2.7v-15.5h3.2v21.6h-2.9v-3h-.2c-.8,1.1-1.8,1.9-3,2.5-1.2.6-2.5.9-3.9.9-2.2,0-3.9-.6-5.2-1.8-1.3-1.2-1.9-3.3-1.9-6.1v-14Z"/>
    <path d="M512.1,254.4h12.4v2.5h-12.4v-2.5ZM516.2,255.9v-6.8h3.2v21.6c0,1.1.2,1.9.6,2.4s1.1.7,2,.7.8,0,1.2-.1.8-.2,1.1-.3v2.7c-.3.2-.8.3-1.3.4-.5.1-1.1.2-1.8.2-1.5,0-2.7-.5-3.7-1.4s-1.4-2.5-1.4-4.5v-14.7Z"/>
    <path d="M530,264.7c1.7-1.2,3.9-1.8,6.6-1.8h5.3v-1.7c0-1.4-.4-2.6-1.1-3.5s-2-1.3-3.8-1.3-3.1.4-3.9,1.1-1.2,1.6-1.2,2.7h0c0,.1-3.1.1-3.1.1h0c0-1.9.8-3.4,2.3-4.6s3.5-1.9,6.1-1.9,4.5.6,5.9,1.9,2.1,3.1,2.1,5.6v9.8c0,.9,0,1.7.2,2.5.1.8.3,1.5.6,2.1v.3h-3.1c-.2-.4-.4-.8-.6-1.4s-.3-1.1-.3-1.7c-.5.9-1.4,1.7-2.6,2.4s-2.7,1.1-4.6,1.1-3.8-.6-5.2-1.7c-1.4-1.1-2.1-2.8-2.1-5s.9-3.9,2.6-5.1ZM531.8,272.7c.8.7,2,1.1,3.7,1.1s3.1-.5,4.4-1.6,1.9-2.3,1.9-3.5v-3.4h-4.9c-2.1,0-3.7.4-4.8,1.2s-1.6,1.8-1.6,3.2.4,2.4,1.2,3.1Z"/>
    <path d="M549.8,264.9c0-3.1.8-5.7,2.5-7.8s3.8-3.1,6.6-3.1,2.9.3,4.1.8,2,1.3,2.7,2.2v-12.6h3.2v31.5h-2.9v-2.9h-.2c-.6.9-1.5,1.7-2.7,2.3-1.2.6-2.6,1-4.2,1-2.8,0-5-1-6.6-3.1s-2.5-4.6-2.5-7.8v-.7ZM554.7,271.4c1.1,1.6,2.7,2.3,4.9,2.3s2.8-.4,3.8-1.2,1.8-1.7,2.3-2.7v-9.4c-.5-1-1.2-1.9-2.3-2.7-1-.8-2.3-1.2-3.8-1.2-2.2,0-3.9.8-4.9,2.3s-1.6,3.5-1.6,5.9v.7c0,2.4.5,4.3,1.6,5.9Z"/>
    <path d="M573.7,264.9c0-3.3.9-5.9,2.8-8s4.3-3.1,7.4-3.1,5.5,1,7.4,3.1,2.8,4.7,2.8,8v.7c0,3.3-.9,5.9-2.8,8s-4.3,3.1-7.4,3.1-5.6-1-7.4-3.1-2.8-4.7-2.8-8v-.7ZM577,265.5c0,2.4.6,4.4,1.7,6s2.9,2.4,5.2,2.4,4-.8,5.1-2.4,1.7-3.6,1.7-6v-.7c0-2.4-.6-4.4-1.7-6s-2.9-2.4-5.1-2.4-4,.8-5.2,2.4-1.7,3.6-1.7,6v.7Z"/>
    <path d="M607.7,264.9c0-3.1.8-5.7,2.5-7.8s3.8-3.1,6.6-3.1,2.9.3,4.1.8,2,1.3,2.7,2.2v-12.6h3.2v31.5h-2.9v-2.9h-.2c-.6.9-1.5,1.7-2.7,2.3-1.2.6-2.6,1-4.2,1-2.8,0-5-1-6.6-3.1s-2.5-4.6-2.5-7.8v-.7ZM612.6,271.4c1.1,1.6,2.7,2.3,4.9,2.3s2.8-.4,3.8-1.2,1.8-1.7,2.3-2.7v-9.4c-.5-1-1.2-1.9-2.3-2.7-1-.8-2.3-1.2-3.8-1.2-2.2,0-3.9.8-4.9,2.3s-1.6,3.5-1.6,5.9v.7c0,2.4.5,4.3,1.6,5.9Z"/>
    <path d="M631.6,264.9c0-3.3.9-5.9,2.7-8s4.1-3.1,7-3.1,5.2,1,6.7,2.9,2.4,4.5,2.4,7.9v1.3h-16.9v-2.6h13.7v-.3c0-2-.5-3.5-1.4-4.7-1-1.2-2.4-1.8-4.3-1.8s-3.8.8-4.9,2.4-1.7,3.6-1.7,6v.7c0,2.4.6,4.4,1.7,6,1.1,1.6,2.9,2.4,5.4,2.4s2.6-.3,3.7-.9,1.9-1.3,2.5-2.1l2.1,1.7c-.7,1-1.7,1.9-3.1,2.7-1.4.8-3.1,1.2-5.1,1.2-3.3,0-5.9-1-7.7-3.1s-2.7-4.7-2.7-8v-.7Z"/>
    <path d="M137.2,304.8h12v2.5h-12v-2.5ZM141,301.9c0-2.4.6-4.3,1.9-5.6,1.3-1.3,3-1.9,5.2-1.9s.9,0,1.4,0c.5,0,.9.1,1.3.2l-.2,2.6c-.3,0-.6-.1-1-.2s-.7,0-1.1,0c-1.3,0-2.4.4-3.1,1.2-.7.8-1.1,2-1.1,3.6v24.4h-3.2v-24.4Z"/>
    <path d="M150.8,315.3c0-3.3.9-5.9,2.8-8,1.8-2.1,4.3-3.1,7.4-3.1s5.5,1,7.4,3.1c1.8,2.1,2.8,4.7,2.8,8v.7c0,3.3-.9,5.9-2.8,8-1.8,2.1-4.3,3.1-7.4,3.1s-5.6-1-7.4-3.1c-1.8-2.1-2.8-4.7-2.8-8v-.7ZM154.1,315.9c0,2.4.6,4.4,1.7,6,1.2,1.6,2.9,2.4,5.2,2.4s4-.8,5.1-2.4c1.2-1.6,1.7-3.6,1.7-6v-.7c0-2.4-.6-4.4-1.7-6-1.2-1.6-2.9-2.4-5.1-2.4s-4,.8-5.2,2.4c-1.2,1.6-1.7,3.6-1.7,6v.7Z"/>
    <path d="M175.9,304.8h2.9v2.9h.2c.6-.9,1.4-1.8,2.3-2.5s2.1-1.1,3.5-1.1.6,0,1,.1.6.1.7.2v3c-.3,0-.6,0-.9-.1-.3,0-.7,0-1,0-1.3,0-2.5.3-3.4,1s-1.6,1.6-2.1,2.6v15.5h-3.2v-21.6Z"/>
    <path d="M190.3,304.8h2.9v3h.2c.8-1.1,1.8-1.9,2.9-2.5s2.4-.9,3.8-.9,2.8.3,3.8.9,1.9,1.5,2.4,2.8h0c.9-1.3,2-2.2,3.2-2.8,1.2-.6,2.5-.9,4-.9,2.2,0,3.9.6,5.2,1.8s1.9,3.3,1.9,6.1v14h-3.2v-14.1c0-1.8-.4-3.2-1.2-4s-2-1.2-3.5-1.2-2.4.4-3.4,1.1c-1,.7-1.8,1.6-2.3,2.7v15.5h-3.2v-14.1c0-1.8-.4-3.2-1.3-4s-2-1.2-3.5-1.2-2.4.4-3.4,1.1c-1,.7-1.7,1.6-2.3,2.7v15.5h-3.2v-21.6Z"/>
    <path d="M228.1,315.1c1.7-1.2,3.9-1.8,6.6-1.8h5.3v-1.7c0-1.4-.4-2.6-1.1-3.5s-2-1.3-3.8-1.3-3.1.4-3.9,1.1-1.2,1.6-1.2,2.7h0c0,.1-3.1.1-3.1.1h0c0-1.9.8-3.4,2.3-4.6s3.5-1.9,6.1-1.9,4.5.6,5.9,1.9,2.1,3.1,2.1,5.6v9.8c0,.9,0,1.7.2,2.5.1.8.3,1.5.6,2.1v.3h-3.1c-.2-.4-.4-.8-.6-1.4s-.3-1.1-.3-1.7c-.5.9-1.4,1.7-2.6,2.4s-2.7,1.1-4.6,1.1-3.8-.6-5.2-1.7c-1.4-1.1-2.1-2.8-2.1-5s.9-3.9,2.6-5.1ZM229.9,323.1c.8.7,2,1.1,3.7,1.1s3.1-.5,4.4-1.6,1.9-2.3,1.9-3.5v-3.4h-4.9c-2.1,0-3.7.4-4.8,1.2s-1.6,1.8-1.6,3.2.4,2.4,1.2,3.1Z"/>
    <path d="M258.2,315.3c0-3.3.9-5.9,2.6-8s4.2-3.1,7.3-3.1,5,.8,6.5,2.3,2.2,3.3,2.2,5.2h0c0,.1-3.1.1-3.1.1h0c0-1.4-.4-2.6-1.3-3.5-.9-1-2.3-1.4-4.3-1.4s-4,.8-5.1,2.4-1.6,3.6-1.6,6v.7c0,2.4.5,4.4,1.6,6,1.1,1.6,2.8,2.4,5,2.4s3.4-.5,4.3-1.4c.9-1,1.3-2.1,1.3-3.4h0c0-.1,3.1-.1,3.1-.1h0c0,2-.7,3.8-2.2,5.3s-3.6,2.3-6.5,2.3-5.5-1-7.3-3.1-2.6-4.7-2.6-8v-.7Z"/>
    <path d="M280,315.3c0-3.3.9-5.9,2.8-8s4.3-3.1,7.4-3.1,5.5,1,7.4,3.1,2.8,4.7,2.8,8v.7c0,3.3-.9,5.9-2.8,8s-4.3,3.1-7.4,3.1-5.6-1-7.4-3.1-2.8-4.7-2.8-8v-.7ZM283.2,315.9c0,2.4.6,4.4,1.7,6s2.9,2.4,5.2,2.4,4-.8,5.1-2.4,1.7-3.6,1.7-6v-.7c0-2.4-.6-4.4-1.7-6s-2.9-2.4-5.1-2.4-4,.8-5.2,2.4-1.7,3.6-1.7,6v.7Z"/>
    <path d="M305.1,304.8h2.9v3h.2c.8-1.1,1.8-1.9,3-2.5,1.2-.6,2.5-.9,3.9-.9,2.2,0,3.9.6,5.2,1.8s1.9,3.3,1.9,6.1v14h-3.2v-14.1c0-1.8-.4-3.2-1.3-4s-2.1-1.2-3.6-1.2-2.5.4-3.5,1.1-1.8,1.6-2.4,2.7v15.5h-3.2v-21.6Z"/>
    <path d="M328.3,304.8l5.6,15.3c.2.5.4,1,.5,1.5s.2.8.3,1.2h.1c0-.3.2-.7.3-1.2s.3-1,.5-1.5l5.6-15.3h3.1l-8.4,21.6h-2.6l-8.4-21.6h3.2Z"/>
    <path d="M345.9,315.3c0-3.3.9-5.9,2.7-8s4.1-3.1,7-3.1,5.2,1,6.7,2.9,2.4,4.5,2.4,7.9v1.3h-16.9v-2.6h13.7v-.3c0-2-.5-3.5-1.4-4.7-1-1.2-2.4-1.8-4.3-1.8s-3.8.8-4.9,2.4-1.7,3.6-1.7,6v.7c0,2.4.6,4.4,1.7,6,1.1,1.6,2.9,2.4,5.4,2.4s2.6-.3,3.7-.9,1.9-1.3,2.5-2.1l2.1,1.7c-.7,1-1.7,1.9-3.1,2.7-1.4.8-3.1,1.2-5.1,1.2-3.3,0-5.9-1-7.7-3.1s-2.7-4.7-2.7-8v-.7Z"/>
    <path d="M369.3,304.8h2.9v3h.2c.8-1.1,1.8-1.9,3-2.5,1.2-.6,2.5-.9,3.9-.9,2.2,0,3.9.6,5.2,1.8s1.9,3.3,1.9,6.1v14h-3.2v-14.1c0-1.8-.4-3.2-1.3-4s-2.1-1.2-3.6-1.2-2.5.4-3.5,1.1-1.8,1.6-2.4,2.7v15.5h-3.2v-21.6Z"/>
    <path d="M391.1,315.3c0-3.3.9-5.9,2.6-8s4.2-3.1,7.3-3.1,5,.8,6.5,2.3,2.2,3.3,2.2,5.2h0c0,.1-3.1.1-3.1.1h0c0-1.4-.4-2.6-1.3-3.5-.9-1-2.3-1.4-4.3-1.4s-4,.8-5.1,2.4-1.6,3.6-1.6,6v.7c0,2.4.5,4.4,1.6,6,1.1,1.6,2.8,2.4,5,2.4s3.4-.5,4.3-1.4c.9-1,1.3-2.1,1.3-3.4h0c0-.1,3.1-.1,3.1-.1h0c0,2-.7,3.8-2.2,5.3s-3.6,2.3-6.5,2.3-5.5-1-7.3-3.1-2.6-4.7-2.6-8v-.7Z"/>
    <path d="M414.4,296.7c.4-.4.9-.6,1.6-.6s1.2.2,1.5.6c.4.4.5.9.5,1.4s-.2,1.1-.5,1.4c-.4.4-.9.6-1.5.6s-1.2-.2-1.6-.6c-.4-.4-.5-.9-.5-1.4s.2-1.1.5-1.4ZM414.4,304.8h3.2v21.6h-3.2v-21.6Z"/>
    <path d="M422.6,315.3c0-3.3.9-5.9,2.8-8s4.3-3.1,7.4-3.1,5.5,1,7.4,3.1,2.8,4.7,2.8,8v.7c0,3.3-.9,5.9-2.8,8s-4.3,3.1-7.4,3.1-5.6-1-7.4-3.1-2.8-4.7-2.8-8v-.7ZM425.8,315.9c0,2.4.6,4.4,1.7,6s2.9,2.4,5.2,2.4,4-.8,5.1-2.4,1.7-3.6,1.7-6v-.7c0-2.4-.6-4.4-1.7-6s-2.9-2.4-5.1-2.4-4,.8-5.2,2.4-1.7,3.6-1.7,6v.7Z"/>
    <path d="M447.7,304.8h2.9v3h.2c.8-1.1,1.8-1.9,3-2.5,1.2-.6,2.5-.9,3.9-.9,2.2,0,3.9.6,5.2,1.8s1.9,3.3,1.9,6.1v14h-3.2v-14.1c0-1.8-.4-3.2-1.3-4s-2.1-1.2-3.6-1.2-2.5.4-3.5,1.1-1.8,1.6-2.4,2.7v15.5h-3.2v-21.6Z"/>
    <path d="M472.2,315.1c1.7-1.2,3.9-1.8,6.6-1.8h5.3v-1.7c0-1.4-.4-2.6-1.1-3.5s-2-1.3-3.8-1.3-3.1.4-3.9,1.1-1.2,1.6-1.2,2.7h0c0,.1-3.1.1-3.1.1h0c0-1.9.8-3.4,2.3-4.6s3.5-1.9,6.1-1.9,4.5.6,5.9,1.9,2.1,3.1,2.1,5.6v9.8c0,.9,0,1.7.2,2.5.1.8.3,1.5.6,2.1v.3h-3.1c-.2-.4-.4-.8-.6-1.4s-.3-1.1-.3-1.7c-.5.9-1.4,1.7-2.6,2.4s-2.7,1.1-4.6,1.1-3.8-.6-5.2-1.7c-1.4-1.1-2.1-2.8-2.1-5s.9-3.9,2.6-5.1ZM474,323.1c.8.7,2,1.1,3.7,1.1s3.1-.5,4.4-1.6,1.9-2.3,1.9-3.5v-3.4h-4.9c-2.1,0-3.7.4-4.8,1.2s-1.6,1.8-1.6,3.2.4,2.4,1.2,3.1Z"/>
    <path d="M493.5,294.9h3.2v31.5h-3.2v-31.5Z"/>
    <path d="M503.7,322.8c.4-.5,1-.7,1.8-.7s1.4.2,1.8.7c.4.5.6,1,.6,1.7s-.2,1.2-.6,1.7c-.4.5-1,.7-1.8.7s-1.4-.2-1.8-.7c-.4-.5-.6-1-.6-1.7s.2-1.2.6-1.7Z"/>
  </g>
  <g>
    <ellipse class="st3" cx="368.9" cy="599" rx="73.5" ry="118.7"/>
    <ellipse class="st3" cx="443" cy="599" rx="73.5" ry="118.7"/>
    <ellipse class="st3" cx="517" cy="599" rx="73.5" ry="118.7"/>
    <ellipse class="st3" cx="591.1" cy="599" rx="73.5" ry="118.7"/>
  </g>
  <g>
    <g>
      <g>
        <polyline class="st1" points="342.2 394.8 144.9 394.8 144.9 505.5"/>
        <polyline class="st1" points="342.2 803.2 144.9 803.2 144.9 692.5"/>
      </g>
      <g>
        <polyline class="st1" points="617.9 394.8 815.1 394.8 815.1 505.5"/>
        <polyline class="st1" points="617.9 803.2 815.1 803.2 815.1 692.5"/>
      </g>
    </g>
    <g>
      <g>
        <polyline class="st2" points="342.2 394.8 144.9 394.8 144.9 505.5"/>
        <polyline class="st2" points="342.2 803.2 144.9 803.2 144.9 692.5"/>
      </g>
      <g>
        <polyline class="st2" points="617.9 394.8 815.1 394.8 815.1 505.5"/>
        <polyline class="st2" points="617.9 803.2 815.1 803.2 815.1 692.5"/>
      </g>
    </g>
  </g>
  <g>
    <path d="M166.4,778.7h3.3l4.4,11.4h-3.2l-2.8-7.7c0-.2-.1-.3-.1-.5,0-.2,0-.3,0-.5h0c0,.2,0,.3,0,.5,0,.2,0,.3-.1.5l-2.8,7.7h-2.7l4.3-11.4ZM165.5,785.8h4.8l.6,2.1h-6.1l.6-2.1Z"/>
    <path d="M174.9,778.7h7.9v2.2h-4.9v2.7h4.3v2.2h-4.3v4.3h-3v-11.4Z"/>
    <path d="M183.5,784h4.6v2.4h-4.6v-2.4Z"/>
    <path d="M189.2,784.1c0-1.9.5-3.3,1.4-4.2,1-.9,2.3-1.4,3.9-1.4s2.7.4,3.6,1.1c.9.8,1.3,1.8,1.3,3v.3h-3v-.3c0-.7-.2-1.1-.5-1.4s-.8-.4-1.4-.4-1.2.2-1.6.6c-.4.4-.6,1.2-.6,2.3v1.6c0,1,.2,1.8.6,2.2.4.5.9.7,1.7.7s1.1-.2,1.4-.5c.3-.3.5-.8.5-1.4v-.3h3v.3c0,1.2-.5,2.2-1.3,3-.9.8-2.1,1.1-3.5,1.1s-2.9-.5-3.9-1.4c-1-.9-1.4-2.3-1.4-4.2v-.7Z"/>
  </g>
  <g>
    <path d="M234.1,783.2c0-1.3.3-2.4,1-3.2.7-.8,1.7-1.2,3.1-1.2s2.4.4,3.1,1.2c.7.8,1.1,1.9,1.1,3.2v3c0,1.3-.4,2.4-1.1,3.2-.7.8-1.7,1.2-3.1,1.2s-2.4-.4-3.1-1.2c-.7-.8-1-1.9-1-3.2v-3ZM237.4,787.9c.1.3.4.5.8.5s.7-.2.8-.5c.2-.3.2-.8.2-1.4v-3.6c0-.6,0-1-.2-1.4-.2-.3-.4-.5-.8-.5s-.7.2-.8.5c-.2.3-.2.8-.2,1.4v3.6c0,.6,0,1,.2,1.4Z"/>
    <path d="M244.1,787.7c.3-.3.7-.5,1.3-.5s1,.2,1.3.5c.3.3.5.7.5,1.2s-.2.8-.5,1.2c-.3.3-.7.5-1.3.5s-1-.2-1.3-.5c-.3-.3-.5-.7-.5-1.2s.2-.8.5-1.2Z"/>
    <path d="M248.6,783.2c0-1.3.3-2.4,1-3.2.7-.8,1.7-1.2,3.1-1.2s2.4.4,3.1,1.2c.7.8,1.1,1.9,1.1,3.2v3c0,1.3-.4,2.4-1.1,3.2-.7.8-1.7,1.2-3.1,1.2s-2.4-.4-3.1-1.2c-.7-.8-1-1.9-1-3.2v-3ZM251.9,787.9c.1.3.4.5.8.5s.7-.2.8-.5c.2-.3.2-.8.2-1.4v-3.6c0-.6,0-1-.2-1.4-.2-.3-.4-.5-.8-.5s-.7.2-.8.5c-.2.3-.2.8-.2,1.4v3.6c0,.6,0,1,.2,1.4Z"/>
  </g>
  <g>
    <rect class="st4" x="209.2" y="775.6" width="16.8" height="16.8"/>
    <line class="st6" x1="222.7" y1="786.5" x2="218.1" y2="786.5"/>
    <polygon points="209.2 792.4 209.2 775.6 226 775.6 209.2 792.4"/>
    <g>
      <line class="st5" x1="214" y1="777.2" x2="214" y2="783.2"/>
      <line class="st5" x1="217" y1="780.2" x2="211" y2="780.2"/>
    </g>
  </g>
  <g class="st11">
    <g>
      <path class="st7" d="M1776.3,1120.2c-.8-7.5-8.6-14.8-13.9-17.7-18.6-10-51.5-21.5-70.7-22.8-17-1.2-34.2-1.6-50.9-2.1-12.2-.3-24.7-.7-37.1-1.3-4.5-.2-8.7-.3-12.4-.3-17.9-.2-27.7-.3-40.6-16.9-2-2.5-3.5-5.4-4.8-8.6.2,0,.4-.2.7-.3,1.7-.8,2.2-1.7,6.8-10.1,1.9-3.5,4.2-7.8,5.1-9,17-22.9,50-41.2,76.9-42.7,1.2,0,2.5-.1,3.9-.1,6.9,0,14.6.8,22.9,1.7,8.9.9,18.1,1.9,26.9,1.9s19.6-1.6,26.3-4.9c1.5-.8,3.8-2,5.7-3.7,1-.9,1.6-2.2,1.5-3.5-.1-2.1-.7-4.1-1.6-5.9-1.1-2.3-2.8-4.3-4.9-5.7-.4-.3-.9-.5-1.3-.6-8.6-2.4-17.3-4.9-25.8-7.6-8.3-2.6-16.7-5.5-24.9-8.4-8.6-9.5-23.7-15.5-44.7-17.7-.8,0-1.7-.1-2.7-.1s-2.4,0-3.5.1c-1.1,0-2.1.1-3.1.1s-2.1,0-2.8-.2c-.6-.1-2.1-1-3.1-1.6-1.5-.9-3.2-1.9-5-2.5-4.2-1.5-9.2-2.1-15.8-2.1s-9.4.3-14,.7c-3.2.2-6.3.5-9,.5-2.1,0-3.8,1.6-4.1,3.6-.8,5.1,2.1,8,5.3,9.7-8.3,2.1-17.9,6.5-26.7,10.4-4.2,1.9-8.1,3.7-11.2,4.8-22.1,8.5-44.2,12.7-67.7,12.7s-6.7,0-10.1-.3c-14.2-.7-26.4-4.8-39.3-9-8.3-2.7-16.8-5.6-26.1-7.6-22.7-4.8-51.5-7.6-78.9-7.6s-48.2,1.5-70.9,8.5c-17.1,5.3-33.2,13.4-48.8,21.3-14.5,7.3-29.5,14.8-44.9,19.9-3.4,1.1-34.4,11-70.7,11s-47-4.8-64.2-14.3c-8.8-4.9-15.8-10.6-21.2-17.4-15.2-19.1-15.7-42.5-14.7-54.8.2-2.2-1.3-4.2-3.5-4.6-.2,0-.5,0-.7,0-1.9,0-3.6,1.3-4.1,3.2-.9,3.5-1.6,7.1-2,10.7-.1.9-2.4,23,8.1,44.6,5.8,12,16,22.1,30.1,30.2,11.6,6.6,23.8,10.6,31.9,13.1,13.7,4.1,29.4,6.1,46.7,6.1s27.7-1.3,41.7-3.6c-1.2,1.3-2.5,2.8-4.1,4.6-2.7,3-5.5,6.1-6.9,7.4-14.5,12.6-27.9,18.2-43.4,18.2s-18.2-1.8-29.3-5.4c-1.2-.4-2.1-.8-2.8-1.2-1.2-.6-2.6-1.3-4.4-1.3s-4.5,1.2-7.3,3.2c-6.8,4.8-13.3,11.3-19.6,17.7-6.3,6.3-12.7,12.8-19.5,17.7-3.4,2.4-7.9,4.9-12.6,7.6-8.9,5-18.1,10.1-23.1,16.3-.2.3-.5.6-.7.9-2.1,2.6-4.8,5.8-3.2,9.4,1.6,3.6,5.9,3.8,7.4,3.9.5,0,1.1,0,1.6,0,6.2,0,14.7-1.8,20.2-3.6-.3.2-.5.4-.8.6-2.5,2-5.7,3.8-8.9,5.6-4.1,2.4-8.4,4.8-11.5,7.8-1.6,1.5-9.4,9.1-8.1,14.4.5,1.9,1.9,3.4,3.9,3.9,1.1.3,2.5.4,4.8.4s3.9,0,5.7-.2c1.4,0,2.6-.1,3.4-.1,7.6,0,17.4-9.6,29.3-22.2,2.3-2.4,4.3-4.5,5.6-5.8,12.8-12,30.3-28.5,49-30,1,0,2.1-.1,3.1-.1,6.3,0,12.6,1.3,19.3,2.7,4.7,1,9.5,2,14.3,2.5,11.8,1.3,26.8,2.1,38.3,2.1s7.9-.1,11.1-.3c29.3-1.8,55.5-27,78.6-49.3,10.1-9.7,19.6-18.9,28.7-25.6,11.1-8.2,22.8-12.3,34.9-12.3,20.4,0,42,11.1,68,34.9,2.3,2.1,4.5,4.2,6.8,6.3,17.2,15.9,34.9,32.3,57.5,43,15.8,7.5,32.8,11,53.6,11s13.9-.3,22.7-1.1c5.6-.5,11.2-1.3,16.6-2.2,5.3-.8,10.7-1.7,16-2.1.6.4,1.8,1.9,2.4,2.9,1.4,1.8,2.9,3.9,5.1,5.2,1.5.8,3.8,1.6,16.2,1.6s8.6,0,11.4-.2c.8,0,1.5,0,2,0,9.2-.2,18.5-.4,27.7-.8,0,.3.2.6.3.9,1.8,3.6,5.8,4.5,8.5,5,.4,0,.8.2,1.1.2,15.5,3.9,31.6,7,47.3,10,18.3,3.5,37.3,7.2,55.1,12.1,4.7,1.3,9.7,2.8,14.3,5.1,4.5,2.3,8.8,5.4,13.4,8.8,9.3,6.8,18.9,13.8,31.3,13.8s.5,0,.7,0c1,0,2.7-.3,4.2-.8,1.3-.4,5.3-1.5,5.5-5.3,0-1-.2-1.9-.8-2.7-.4-.6-.8-1.3-1.3-2-.7-1.1-1.4-2.2-2.3-3.3-6.5-8.1-19.3-16.7-38.3-25.7-16.1-7.7-32.7-13.7-42.9-16.8-3.8-1.2-7.3-2.1-10.6-2.9,1.5,0,3,0,4.6-.1,3.5,0,7-.2,10.4-.4,5.7-.2,11-.4,16.4-.4,10.9,0,23.8.8,37.2,6.4,3.6,1.5,7.4,3.9,11.3,6.4,7.7,4.8,15.7,9.8,24.3,10h.2c1.3,0,2.7-.2,4-.5,1.1-.2,2.2-.4,3.1-.4s.6,0,.8,0c.3,0,.7.1,1,.1,1,0,2-.4,2.8-1,1-.9,1.6-2.3,1.4-3.7ZM944.9,1113.9c-6.7-.4-3-4-.4-7.3,7-8.7,25.1-16.1,34.9-23.1,14.1-10.1,26-26.1,39.1-35.3,6.1-4.3,5.2-1.9,10.8,0,30.2,9.9,52.5,7.6,76.8-13.6,3.6-3.1,12.4-14,15.7-16.6,3-.6,6.1-1.3,9.1-2-3.7,4.1-7.1,9.2-10.5,14.1-3,4.4-5.9,8.5-8.4,11.4-13,14.4-31.2,22.3-54.3,23.8-2.6.2-5.3.3-8,.3s-5.9,0-8.9-.3c-.8,0-1.7-.2-2.6-.3-1.6-.2-3.2-.6-4.8-.9-3.4-.7-6.9-1.4-10-1.4-7.1,0-15.3,8.9-25.4,20.6-1.8,2.1-3.4,3.9-4.4,5-1.7,1.7-3.4,3.5-5.2,5.4-2.7,2.8-5.5,5.7-8.4,8.6-4,3.1-8.3,5.8-13.2,7.7-5.7,2.2-15.7,4.3-21.8,3.9ZM1668.2,1110.6c21.1,6.4,65.5,24.1,79.1,41.2,1.3,1.6,2.2,3.4,3.4,5.1,0,1-4.5,1.9-5.5,2-17.1.4-29-14.9-43.4-22.2-4.8-2.4-9.9-4-15.1-5.4-33.1-9.1-69-13.7-102.4-22.1-1.9-.5-4.8-.8-6.2-2.2,10.8-.4,21.5-.9,32-1.4,6.7-.3,13.4-.6,20.2-.9,11.9,0,22.1,1.2,37.8,5.9ZM1763.1,1121.3c-11.6-.3-23.2-11.4-34.1-16.1-21.7-9.2-42.7-6.6-65.8-6-10.9.3-21.9.7-32.8,1.2h0c-18.5.8-37,1.7-55.4,2.4-9.8.4-19.6.6-29.3.8-4.8,0-24.7.7-27.4-.8-3.4-1.9-5.5-8.3-9.3-8.7-11.1.8-22.2,3.4-33.3,4.3-26,2.1-50.1,1.9-74.1-9.5-24.9-11.8-43.5-30.4-63.2-48.5-30.4-27.8-69-51.8-108.2-22.9-30.6,22.6-65.1,71.7-105,74.1-13.7.8-34.8-.3-48.7-1.8-12.5-1.3-24.9-6.1-37.5-5.1-20,1.5-37.7,18-51.6,31.1-6.5,6.1-23.7,26.9-32,26.9s-10.6.6-12.8,0c-3.7-1,4.7-10,5.9-11.1,5.1-4.8,14.1-8.5,20.1-13.2,4.7-3.7,9.6-8.3,14.4-13.1,4.8-4.8,9.5-9.8,13.8-14.2,5-5.1,19.4-24.3,26.7-24.3s9.6,1.5,14.3,2.2c1,.1,1.9.3,2.8.3,6,.4,12,.4,17.9,0,21.6-1.4,41.7-8.4,56.8-25.2,6.1-6.8,13.1-19.5,20.4-27,1.6-1.6,3.2-3,4.9-4.1,4.8-3,17-5.5,23.4-8.3,1.6-.7,4.7-1.8,5.9-2.6,2.6-1.7,3.1-4.7-1-3.6-4.5,1.2-11.3,5-16.4,6.7-6.5,2.2-13.5,4.2-20.7,5.9-3.7.9-7.5,1.7-11.3,2.4-31,6-65.3,7.1-93-1.1-16-4.8-46.9-15.3-59.4-41.1-10.1-20.7-7.7-42.2-7.7-42.2.5-4.2,1.2-7.7,1.9-10.1-.8,9.8-1.7,36.1,15.6,57.8,3.8,4.8,10.5,11.8,22.5,18.4,49.8,27.6,120.8,9.4,138.3,3.7,32.4-10.6,61-31,93.7-41.1,39.8-12.4,106.7-9.5,147.6-.9,23.2,4.9,41.9,15.5,66.1,16.7,27.6,1.4,53.9-2.8,79.5-12.7,11.6-4.5,33.3-16.3,45.2-16.3,3.5,0,13.1,6.3,18.2,7.2,1.9.4,9.8,1.3,10.3-.9.5-2.5-8.4-2.5-11.3-3.2-5.1-1.4-11.1-4.8-16-7-3.9-1.7-12-2.2-11.1-8.1,11.1-.3,26.8-2.9,37.3.7,2.9,1,6.2,3.7,8.6,4.2,3.9.8,8.6-.2,12.6.2,14.4,1.5,33,5.6,42.7,17.1,8.3,3,17,6,26.1,8.9,8.9,2.8,17.5,5.4,26,7.7.9.6,2.5,1.9,3.6,4.2.9,1.7,1.1,3.3,1.2,4.3-1.4,1.2-3.2,2.3-4.8,3.1-20.6,10.1-55.7-.3-78.4,1-29.2,1.6-62.8,21.1-80.1,44.4-2.3,3-9.4,17.4-10.3,17.8-1.5.7-2.2-4.1-2.5-5.1-1.3-4.3-3.1-17.1-6-19.6-1.1-.9-1.5-1.1-3-.9,4.3,13.2,5.4,29.7,14.1,40.9,17.2,22,30.6,17.6,56.2,18.9,29.3,1.5,58.7,1.4,87.9,3.4,19.3,1.3,51.6,13,69,22.3,4.7,2.5,11.1,8.9,11.7,14.4-2.9-.7-6.4.7-8.9.7Z"/>
      <path class="st9" d="M1760.4,1106.3c-17.4-9.3-49.6-21-69-22.3-29.2-2-58.6-1.9-87.9-3.4-25.6-1.3-39,3.1-56.2-18.9-8.7-11.2-9.9-27.6-14.1-40.9,1.5-.2,1.9,0,3,.9,2.9,2.5,4.7,15.2,6,19.6.3,1,1,5.8,2.5,5.1.9-.4,8.1-14.8,10.3-17.8,17.3-23.3,50.9-42.8,80.1-44.4,22.7-1.3,57.8,9.1,78.4-1,1.7-.8,3.4-1.9,4.8-3.1,0-1-.3-2.6-1.2-4.3-1.1-2.3-2.7-3.6-3.6-4.2-8.4-2.3-17.1-4.8-26-7.7-9.1-2.9-17.7-5.8-26.1-8.9-9.6-11.4-28.3-15.6-42.7-17.1-4-.4-8.7.6-12.6-.2-2.4-.5-5.7-3.2-8.6-4.2-10.5-3.6-26.1-1-37.3-.7-.9,5.9,7.2,6.4,11.1,8.1,4.9,2.2,11,5.6,16,7,2.8.8,11.8.7,11.3,3.2-.5,2.2-8.3,1.3-10.3.9-5.1-.9-14.7-7.3-18.2-7.2-11.9,0-33.6,11.8-45.2,16.3-25.7,9.9-51.9,14.1-79.5,12.7-24.2-1.2-42.9-11.8-66.1-16.7-40.9-8.7-107.8-11.5-147.6.9-32.7,10.2-61.2,30.5-93.7,41.1-17.5,5.8-88.5,23.9-138.3-3.7-12-6.6-18.7-13.7-22.5-18.4-17.3-21.7-16.4-48-15.6-57.8-.6,2.4-1.4,5.9-1.9,10.1,0,0-2.4,21.5,7.7,42.2,12.5,25.7,43.4,36.3,59.4,41.1,27.8,8.3,62.1,7.2,93,1.1,3.8-.7,7.6-1.6,11.3-2.4,7.2-1.7,14.2-3.7,20.7-5.9,5.1-1.7,11.8-5.4,16.4-6.7,4.1-1.1,3.6,1.9,1,3.6-1.2.8-4.3,1.9-5.9,2.6-6.3,2.8-18.6,5.3-23.4,8.3-1.6,1-3.3,2.4-4.9,4.1-7.3,7.5-14.3,20.2-20.4,27-15.1,16.8-35.3,23.8-56.8,25.2-5.9.4-11.9.4-17.9,0-.9,0-1.8-.2-2.8-.3-4.7-.7-10.2-2.2-14.3-2.2-7.3,0-21.7,19.1-26.7,24.3-4.3,4.4-9,9.3-13.8,14.2-4.8,4.8-9.7,9.4-14.4,13.1-6,4.7-15,8.4-20.1,13.2-1.3,1.2-9.6,10.1-5.9,11.1,2.2.6,9.8,0,12.8,0,8.3,0,25.5-20.8,32-26.9,13.9-13.1,31.6-29.6,51.6-31.1,12.6-1,25.1,3.8,37.5,5.1,13.8,1.5,35,2.6,48.7,1.8,39.9-2.5,74.4-51.5,105-74.1,39.3-28.9,77.8-5,108.2,22.9,19.8,18.1,38.4,36.7,63.2,48.5,24,11.4,48.1,11.6,74.1,9.5,11.1-.9,22.1-3.5,33.3-4.3,3.9.3,6,6.7,9.3,8.7,2.7,1.6,22.6.9,27.4.8,9.8-.2,19.5-.5,29.3-.8,18.5-.7,37-1.6,55.4-2.4h0c11-.5,21.9-.9,32.8-1.2,23-.6,44.1-3.2,65.8,6,10.9,4.6,22.5,15.8,34.1,16.1,2.5,0,6-1.4,8.9-.7-.6-5.4-7-11.8-11.7-14.4ZM1646,953.5c3.2-2.1,11-3.7,10.9,2,0,0,0,.6-.3,1.1-.6,1.3-5,1.5-10.5.6-.2-.1-.8-.6-.9-1.5-.2-1.2.7-2.1.8-2.1ZM1598.4,944.7c-.8-1.5-.6-2-1.1-2.8-.9-1.6-3-1.2-6.2-2.1-2.5-.7-6-2.2-5.8-3,.2-.9,6.2-1.6,11.3,1.1.9.5,5.4,2.8,5.3,6,0,1.2-.8,2.7-1.6,2.7-.7,0-1.3-1.1-1.8-1.9Z"/>
    </g>
  </g>
</svg>