<?xml version="1.0" encoding="UTF-8"?>
<svg xmlns="http://www.w3.org/2000/svg" version="1.1" viewBox="0 0 1920 1080">
  <!-- Generator: Adobe Illustrator 29.3.1, SVG Export Plug-In . SVG Version: 2.1.0 Build 151)  -->
  <defs>
    <style>
      .st0 {
        stroke: #212223;
        stroke-width: 3px;
      }

      .st0, .st1, .st2 {
        fill: none;
        stroke-miterlimit: 10;
      }

      .st3 {
        fill: #d4d4d4;
      }

      .st1 {
        stroke-width: 1.5px;
      }

      .st1, .st2 {
        stroke: #000;
      }

      .st4 {
        fill: #0019aa;
      }

      .st2 {
        stroke-width: 2.1px;
      }
    </style>
  </defs>
  <g id="Capa_4">
    <rect class="st3" y="0" width="1920" height="1080"/>
  </g>
  <g id="Capa_1">
    <g>
      <g>
        <g>
          <line class="st1" x1="1789.9" y1="540" x2="1808.1" y2="540"/>
          <line class="st1" x1="1789.9" y1="531.1" x2="1808.1" y2="531.1"/>
          <line class="st1" x1="1789.9" y1="522.1" x2="1808.1" y2="522.1"/>
          <line class="st1" x1="1789.9" y1="513.2" x2="1808.1" y2="513.2"/>
          <line class="st1" x1="1789.9" y1="504.3" x2="1808.1" y2="504.3"/>
          <line class="st1" x1="1789.9" y1="495.4" x2="1808.1" y2="495.4"/>
        </g>
        <g>
          <line class="st1" x1="1789.9" y1="495.4" x2="1808.1" y2="495.4"/>
          <line class="st1" x1="1789.9" y1="486.4" x2="1808.1" y2="486.4"/>
          <line class="st1" x1="1789.9" y1="477.5" x2="1808.1" y2="477.5"/>
          <line class="st1" x1="1789.9" y1="468.6" x2="1808.1" y2="468.6"/>
          <line class="st1" x1="1789.9" y1="459.7" x2="1808.1" y2="459.7"/>
          <line class="st1" x1="1789.9" y1="450.7" x2="1808.1" y2="450.7"/>
        </g>
        <g>
          <line class="st1" x1="1789.9" y1="450.7" x2="1808.1" y2="450.7"/>
          <line class="st1" x1="1789.9" y1="441.8" x2="1808.1" y2="441.8"/>
          <line class="st1" x1="1789.9" y1="432.9" x2="1808.1" y2="432.9"/>
          <line class="st1" x1="1789.9" y1="424" x2="1808.1" y2="424"/>
          <line class="st1" x1="1789.9" y1="415" x2="1808.1" y2="415"/>
          <line class="st1" x1="1789.9" y1="406.1" x2="1808.1" y2="406.1"/>
        </g>
        <g>
          <line class="st1" x1="1789.9" y1="406.1" x2="1808.1" y2="406.1"/>
          <line class="st1" x1="1789.9" y1="397.2" x2="1808.1" y2="397.2"/>
          <line class="st1" x1="1789.9" y1="388.3" x2="1808.1" y2="388.3"/>
          <line class="st1" x1="1789.9" y1="379.3" x2="1808.1" y2="379.3"/>
          <line class="st1" x1="1789.9" y1="370.4" x2="1808.1" y2="370.4"/>
          <line class="st1" x1="1789.9" y1="361.5" x2="1808.1" y2="361.5"/>
        </g>
        <line class="st2" x1="1776.9" y1="540" x2="1808.1" y2="540"/>
        <line class="st2" x1="1776.9" y1="495.4" x2="1808.1" y2="495.4"/>
        <line class="st2" x1="1776.9" y1="450.7" x2="1808.1" y2="450.7"/>
        <line class="st2" x1="1776.9" y1="406.1" x2="1808.1" y2="406.1"/>
        <line class="st2" x1="1776.9" y1="361.5" x2="1808.1" y2="361.5"/>
      </g>
      <g>
        <g>
          <line class="st1" x1="1789.9" y1="540" x2="1808.1" y2="540"/>
          <line class="st1" x1="1789.9" y1="548.9" x2="1808.1" y2="548.9"/>
          <line class="st1" x1="1789.9" y1="557.9" x2="1808.1" y2="557.9"/>
          <line class="st1" x1="1789.9" y1="566.8" x2="1808.1" y2="566.8"/>
          <line class="st1" x1="1789.9" y1="575.7" x2="1808.1" y2="575.7"/>
          <line class="st1" x1="1789.9" y1="584.6" x2="1808.1" y2="584.6"/>
        </g>
        <g>
          <line class="st1" x1="1789.9" y1="584.6" x2="1808.1" y2="584.6"/>
          <line class="st1" x1="1789.9" y1="593.6" x2="1808.1" y2="593.6"/>
          <line class="st1" x1="1789.9" y1="602.5" x2="1808.1" y2="602.5"/>
          <line class="st1" x1="1789.9" y1="611.4" x2="1808.1" y2="611.4"/>
          <line class="st1" x1="1789.9" y1="620.3" x2="1808.1" y2="620.3"/>
          <line class="st1" x1="1789.9" y1="629.3" x2="1808.1" y2="629.3"/>
        </g>
        <g>
          <line class="st1" x1="1789.9" y1="629.3" x2="1808.1" y2="629.3"/>
          <line class="st1" x1="1789.9" y1="638.2" x2="1808.1" y2="638.2"/>
          <line class="st1" x1="1789.9" y1="647.1" x2="1808.1" y2="647.1"/>
          <line class="st1" x1="1789.9" y1="656" x2="1808.1" y2="656"/>
          <line class="st1" x1="1789.9" y1="665" x2="1808.1" y2="665"/>
          <line class="st1" x1="1789.9" y1="673.9" x2="1808.1" y2="673.9"/>
        </g>
        <g>
          <line class="st1" x1="1789.9" y1="673.9" x2="1808.1" y2="673.9"/>
          <line class="st1" x1="1789.9" y1="682.8" x2="1808.1" y2="682.8"/>
          <line class="st1" x1="1789.9" y1="691.7" x2="1808.1" y2="691.7"/>
          <line class="st1" x1="1789.9" y1="700.7" x2="1808.1" y2="700.7"/>
          <line class="st1" x1="1789.9" y1="709.6" x2="1808.1" y2="709.6"/>
          <line class="st1" x1="1789.9" y1="718.5" x2="1808.1" y2="718.5"/>
        </g>
        <line class="st2" x1="1776.9" y1="540" x2="1808.1" y2="540"/>
        <line class="st2" x1="1776.9" y1="584.6" x2="1808.1" y2="584.6"/>
        <line class="st2" x1="1776.9" y1="629.3" x2="1808.1" y2="629.3"/>
        <line class="st2" x1="1776.9" y1="673.9" x2="1808.1" y2="673.9"/>
        <line class="st2" x1="1776.9" y1="718.5" x2="1808.1" y2="718.5"/>
      </g>
    </g>
    <g>
      <g>
        <path class="st4" d="M557.4,599.9h101.5l-35.1,171.9h-131.4l-35.1-171.9h95.5v114.4h4.5v-114.4Z"/>
        <path class="st4" d="M666.7,599.9h187.3v57.2h-92.3v4.5h76.1v48.3h-76.1v4.5h92.3v57.2h-187.6l.2-171.7Z"/>
        <path class="st4" d="M959.2,714.3h92.3v57.2h-187.6l.2-171.9h95v114.7Z"/>
        <path class="st4" d="M1218.7,599.6c5.1,0,10,1,14.7,3,4.6,2,8.8,4.7,12.4,8.2,7.5,7.5,11.2,16.5,11.2,27.1v95.5c0,5.1-1,10-2.9,14.7-1.9,4.6-4.7,8.7-8.3,12.2-7.5,7.5-16.5,11.2-27.1,11.2h-119.2c-5,0-9.8-1-14.4-2.9-4.6-1.9-8.8-4.7-12.4-8.3-3.7-3.6-6.4-7.8-8.3-12.4-1.9-4.6-2.9-9.5-2.9-14.4v-23c0-8.2,0-16.5.1-24.9,0-8.4.1-16.7.1-24.9v-23c0-5.1,1-10,3-14.7,2-4.6,4.7-8.7,8.2-12.2,3.5-3.5,7.5-6.2,12.2-8.2,4.6-2,9.6-3,14.9-3h118.7ZM1161.7,657.1h-5v57.2h5v-57.2Z"/>
        <path class="st4" d="M1386.3,714.8l-10.2,12.2,3.7,3.2,13.2-15.9h41.5v57.2h-167.7v-57.2l55-70.2-4-3.2-12.4,16.2h-38.6v-57.2h167.7v57.2l-48.3,57.7Z"/>
      </g>
      <path class="st4" d="M1452.9,619.5c-1.8,0-3.4-.4-4.9-1.3-1.5-.9-2.6-2-3.5-3.5-.9-1.5-1.3-3.1-1.3-5s.4-3.5,1.3-5c.9-1.5,2-2.6,3.5-3.5,1.5-.9,3.1-1.3,4.9-1.3s3.5.4,4.9,1.3c1.5.9,2.6,2,3.5,3.5.9,1.5,1.3,3.1,1.3,4.9s-.4,3.5-1.3,5c-.9,1.5-2,2.7-3.5,3.5-1.5.9-3.1,1.3-4.9,1.3ZM1452.9,617.3c1.5,0,2.7-.3,3.8-1,1.1-.6,2-1.6,2.6-2.7s1-2.5,1-4-.3-2.8-1-4c-.6-1.2-1.5-2.1-2.6-2.7-1.1-.7-2.4-1-3.8-1s-2.7.3-3.8,1c-1.1.7-2,1.6-2.6,2.7-.6,1.2-.9,2.5-.9,4s.3,2.8.9,4c.6,1.2,1.5,2.1,2.6,2.7,1.1.7,2.4,1,3.8,1ZM1449.4,614.1v-8.9h4c.9,0,1.7.3,2.2.8.5.5.8,1.2.8,2s-.1,1-.4,1.5c-.3.4-.7.8-1.2,1l2.1,3.6h-2.5l-1.7-3.1h-1.2v3.1h-2.2ZM1453,606.9h-1.4v2.4h1.3c.9,0,1.3-.4,1.3-1.2s-.1-.7-.3-.9c-.2-.2-.5-.3-.9-.3Z"/>
      <g>
        <path class="st4" d="M1259.3,483.6c-13.5-7.7-38.5-17.5-53.5-18.6-22.6-1.7-45.5-1.6-68.1-2.8-19.8-1.1-30.3,2.6-43.6-15.7-6.8-9.3-7.7-23-11-34,1.2-.2,1.5,0,2.3.7,2.3,2.1,3.7,12.7,4.7,16.3.2.9.8,4.9,2,4.3.7-.4,6.3-12.3,8-14.8,13.4-19.4,39.5-35.6,62.1-37,17.6-1.1,44.8,7.6,60.8-.8.8-.4,1.6-.9,2.4-1.5,1-.7,1.3-2,1-3.1-.1-.5-.3-1-.6-1.5-.6-1.3-1.4-2.2-2.1-2.9-.4-.4-.9-.7-1.4-.8-6.3-1.9-12.8-3.9-19.4-6.2-6.2-2.1-12.2-4.3-18-6.5-1.3-.5-2.5-1.3-3.6-2.4-7.8-8.3-21.2-11.5-31.8-12.6-3.1-.3-6.8.5-9.8-.2-1.8-.4-4.4-2.7-6.6-3.5-8.1-3-20.3-.8-28.9-.6-.7,4.9,5.6,5.4,8.6,6.8,3.8,1.8,8.9,5.1,12.8,6.2,3.3,1,8.5.6,8.3,2.3-.2,1.8-6.5,1.1-8,.8-3.9-.8-11.4-6-14.1-6-9.2,0-26,9.9-35,13.6-19.9,8.2-40.2,11.7-61.7,10.5-18.7-1-33.3-9.5-51.2-13.9-54.3-13.4-100.7-5.4-131.6,4.9-35.2,11.7-44.2,21.7-60.1,29.1-13.2,6.1-67.3,20.8-104.1-6-10.2-7.5-16.6-17.1-17.1-17.9-10.8-16.6-11.2-33.9-10.8-41.7-.5,2-1.1,4.9-1.4,8.4-.8,7.4-1,21.1,6,35.1,11.7,23.3,35.3,31.3,45.9,34.9,0,0,28,9.5,72.3.2,4.4-.9,8.7-2,8.7-2,3.7-1,8-2.2,13.3-4.5,3.2-1.4,7.3-3.4,11.9-6.4,0,2.4-1.5,3.7-6.1,6.5-4.8,2.9-10.6,5.2-14,6.3-.5.7-1.3,1.7-2.2,3-3.2,4.3-3.4,4.7-4.2,5.9-5.1,7.6-9.2,14-11.4,16.6-2.1,2.5-5.7,6.4-10.6,9.8-9.9,7-21.4,10.3-33.5,11.2-4.6.3-9.2.3-13.9,0-2.5-.1-8.2-1.1-12.1-1.9-1.1-.2-2.3-.1-3.3.3-6,2.9-15.2,15.8-18.7,19.6-3.3,3.6-7,7.8-10.7,11.8-3.7,4-5.2,5.4-8.9,8.5-4.7,3.9-11.6,7-15.6,11-1,1-9.8,10.9-6.9,11.7,1.7.5,7.6.3,9.9,0,6.4-.8,19.8-17.3,24.8-22.4,10.8-10.9,24.5-24.6,40-25.9,9.8-.8,19.4,3.1,29.1,4.2,10.7,1.2,27.1,2.2,37.7,1.5,30.9-2.1,56.1-37.9,80.3-56.2,23.2-17.5,61.5-9.7,85.1,13.5,15.3,15.1,29.7,30.6,49,40.4,18.6,9.5,37.3,9.7,57.4,7.9,8.6-.8,17.2-2.9,25.8-3.6,3,.3,4.6,5.6,7.2,7.2,2.1,1.3,17.5.8,21.2.7,7.6-.1,15.2-.4,22.7-.7,14.3-.6,28.7-1.3,43-2h0c8.5-.4,17-.7,25.5-1,17.9-.5,34.2-2.7,51,5,8.4,3.8,17.5,13.1,26.4,13.4,1.7,0,4-.4,5.6-1,.4-.1.6-.9.5-1.3-.8-4.2-4.8-8.2-8.3-10.2ZM1169.8,356.8c1.7-1.1,8.3-2.9,8.3,1.9,0,0,0,.5-.2.9-.5,1.1-6.4,1.1-7.9.6-.3-.1-.8-.7-.9-1.4-.1-1,.3-1.7.8-2ZM1133.7,349.1c-.6-1.2-.5-1.7-.8-2.3-.7-1.3-2.3-1-4.8-1.8-2-.6-4.6-1.8-4.5-2.5.1-.8,4.8-1.3,8.7.9.7.4,4.2,2.4,4.1,5,0,1-.6,2.2-1.3,2.3-.5,0-1-.9-1.4-1.6Z"/>
        <path class="st4" d="M773.1,407.2c-2.8,3.4-6.9,9.4-9.5,13.5-2.3,3.6-4.9,7-6.9,9.4-10,11.9-24.3,18.1-42.2,19.3-2,.1-4.1.2-6.2.2s-4.6,0-6.9-.2c-.6,0-1.3-.1-2-.2-1.2-.2-2.5-.5-3.8-.7-2.6-.6-5.3-1.2-7.7-1.1-4.4.1-11.9,7.4-19.7,17.1-1.4,1.7-2.6,3.3-3.4,4.1-1.3,1.4-2.7,2.9-4.1,4.5-1.2,1.3-2.4,2.7-3.7,4.1-2.9,3.2-6.2,6-9.9,8-1,.6-2.1,1.1-3.2,1.5-4.4,1.8-8.8,2.9-13.4,2.2-4.9-.8-1.7-4.2-.3-6.1,5.4-7.3,16.2-11.9,23.6-18.1,10.6-8.9,20.3-21.3,29.1-29.7.5-.5,1-.9,1.7-1.2,2.4-1.2,3-.2,6.8,1.1,23.4,8.2,41.8,6.7,60.7-11,2.8-2.6,11-12.8,13.6-14.9,2.4-.5,5.1-1.1,7.4-1.7Z"/>
        <path class="st4" d="M1251.8,525.7c0,.9-3.5,1.6-4.3,1.6-13.2.3-22.5-12.4-33.6-18.4-3.7-2-7.7-3.3-11.7-4.5-25.6-7.6-51.9-11.5-77.8-18.5-1.4-.4-3.6-1-6.4-1.8,8.3-.3,16.7-.7,24.8-1.1,5.2-.2,10.4-.5,15.7-.7,9.2,0,17.1,1,29.3,4.9,16.4,5.4,50.8,20.1,61.4,34.3,1,1.3,2.7,3.5,2.6,4.3Z"/>
      </g>
    </g>
    <g>
      <g>
        <line class="st0" x1="103.7" y1="57.1" x2="103.7" y2="129.8"/>
        <line class="st0" x1="67.3" y1="93.5" x2="140.1" y2="93.5"/>
      </g>
      <g>
        <line class="st0" x1="103.7" y1="954.4" x2="103.7" y2="1027.1"/>
        <line class="st0" x1="67.3" y1="990.7" x2="140.1" y2="990.7"/>
      </g>
      <g>
        <line class="st0" x1="1807.8" y1="57.1" x2="1807.8" y2="129.8"/>
        <line class="st0" x1="1771.4" y1="93.5" x2="1844.1" y2="93.5"/>
      </g>
      <g>
        <line class="st0" x1="1807.8" y1="954.4" x2="1807.8" y2="1027.1"/>
        <line class="st0" x1="1771.4" y1="990.7" x2="1844.1" y2="990.7"/>
      </g>
    </g>
  </g>
</svg>