<?xml version="1.0" encoding="UTF-8"?>
<svg id="Capa_1" xmlns="http://www.w3.org/2000/svg" version="1.1" viewBox="0 0 960 960">
  <!-- Generator: Adobe Illustrator 29.3.1, SVG Export Plug-In . SVG Version: 2.1.0 Build 151)  -->
  <defs>
    <style>
      .st0 {
        fill: #d4d4d4;
        stroke: #212223;
      }

      .st0, .st1, .st2, .st3, .st4 {
        stroke-miterlimit: 10;
      }

      .st1 {
        stroke-width: 1.6px;
      }

      .st1, .st2, .st3 {
        fill: none;
        stroke: #000;
      }

      .st5 {
        fill: #0019aa;
      }

      .st3 {
        stroke-dasharray: 12.4 12.4;
      }

      .st4 {
        stroke: #d4d4d4;
        stroke-width: .8px;
      }
    </style>
  </defs>
  <rect class="st0" x="0" width="960" height="960"/>
  <rect class="st1" x="200" y="567" width="544.7" height="133.6" rx="47" ry="47"/>
  <path class="st4" d="M680.2,661.9c3.2-8.1,5-18.3,5.2-29.2h22.6c-.6,13.2-11.9,24.5-27.7,29.2ZM665.1,675.6v-9.2c3.9,0,7.7-.5,11.3-1.3-3.2,6.3-7.2,9.9-11.3,10.5h0ZM651.6,665.1c3.6.8,7.4,1.2,11.3,1.3v9.2c-4.1-.5-8.1-4.2-11.3-10.5h0ZM620.1,632.8h22.6c.1,10.8,1.9,21.1,5.2,29.2-15.8-4.7-27.1-15.9-27.7-29.2ZM647.8,601.4c-3.2,8.1-5,18.3-5.2,29.2h-22.6c.6-13.2,11.9-24.5,27.7-29.2ZM662.9,587.8v9.2c-3.9,0-7.7.5-11.3,1.3,3.2-6.3,7.2-9.9,11.3-10.5h0ZM676.4,598.3c-3.6-.8-7.4-1.2-11.3-1.3v-9.2c4.1.5,8.1,4.2,11.3,10.5ZM671.1,630.6c-3.3,0-6-2.7-6-6v-25.5c4.3,0,8.5.6,12.5,1.6,3.5,8.1,5.5,18.6,5.6,29.9h-12.2ZM662.9,599.2v25.5c0,3.3-2.7,6-6,6h-12.2c.1-11.3,2.1-21.8,5.6-29.9,4-1,8.1-1.5,12.5-1.6h0ZM650.5,662.6c-3.5-8.1-5.5-18.6-5.6-29.9h12.2c3.3,0,6,2.7,6,6v25.5c-4.3,0-8.5-.6-12.5-1.6ZM665.1,664.2v-25.5c0-3.3,2.7-6,6-6h12.2c-.1,11.3-2.1,21.8-5.6,29.9-4,1-8.1,1.5-12.5,1.6h0ZM708,630.6h-22.6c-.1-10.8-1.9-21.1-5.2-29.2,15.8,4.7,27.1,15.9,27.7,29.2ZM710.1,631.7c0-15.1-13-28.1-31-32.8-4-8.6-9.3-13.3-15.1-13.3s-11.1,4.7-15.1,13.3c-18,4.7-31,17.6-31,32.8s13,28.1,31,32.8c4,8.6,9.4,13.3,15.1,13.3s11.1-4.7,15.1-13.3c18-4.7,31-17.6,31-32.8h0Z"/>
  <g>
    <path d="M236.9,608.6c0-4.3,1-7.6,3-9.9,2-2.3,4.6-3.4,7.7-3.4s5.3.8,6.8,2.5c1.5,1.7,2.5,3.8,2.9,6.4v.2s-1.8,0-1.8,0v-.2c-.3-1.8-1.1-3.4-2.2-4.9-1.2-1.5-3.1-2.3-5.7-2.3s-4.7,1-6.4,3.1c-1.7,2.1-2.5,4.9-2.5,8.5v1.1c0,3.8.8,6.7,2.5,8.7,1.7,2,3.8,2.9,6.4,2.9s4.6-.8,5.8-2.3,1.9-3.2,2.1-5v-.2h1.8v.2c-.3,2.6-1.2,4.7-2.8,6.4s-3.9,2.5-6.9,2.5-5.6-1.1-7.7-3.4c-2-2.2-3-5.6-3-9.9v-1.1Z"/>
    <path d="M262.8,612.8c1.5-1,3.5-1.5,5.8-1.5h5.5v-1.9c0-1.5-.4-2.8-1.1-3.7-.8-.9-2.1-1.4-4.1-1.4s-3.3.4-4.2,1.2c-.8.8-1.3,1.8-1.3,3h0c0,0-1.7,0-1.7,0h0c0-1.7.7-3.1,2-4.2,1.3-1.1,3.1-1.6,5.2-1.6s3.9.6,5,1.7c1.2,1.1,1.8,2.8,1.8,5v8.8c0,.8,0,1.5.2,2.2.1.7.3,1.3.6,1.9v.3h-1.6c-.2-.3-.4-.8-.6-1.4s-.3-1.1-.3-1.7c-.5.8-1.4,1.6-2.6,2.3-1.2.7-2.7,1.1-4.5,1.1s-3.4-.5-4.7-1.4c-1.3-.9-1.9-2.3-1.9-4.3s.8-3.4,2.3-4.4ZM263.6,620.3c.9.7,2.2,1,4,1s3.3-.5,4.6-1.6c1.3-1.1,2-2.2,2-3.5v-3.5h-5c-2.2,0-3.9.4-5.1,1.2-1.2.8-1.8,1.9-1.8,3.3s.4,2.5,1.3,3.2Z"/>
    <path d="M281.6,603.2h1.6v2.8h0c.6-.9,1.6-1.6,2.8-2.2,1.2-.6,2.6-.9,4.2-.9,2.5,0,4.5.9,6,2.7s2.1,4.1,2.1,7v.6c0,2.8-.7,5.1-2.1,7s-3.4,2.7-6,2.7-2.9-.3-4-.8c-1.1-.5-2.1-1.2-2.8-2.1v10.2h-1.7v-26.9ZM285.7,620.2c1.1.7,2.4,1.1,4,1.1,2.4,0,4.1-.7,5.2-2.3,1.1-1.5,1.6-3.5,1.6-5.8v-.6c0-2.4-.5-4.3-1.6-5.8-1.1-1.5-2.8-2.3-5.2-2.3-1.5,0-2.9.4-4,1.1-1.1.7-1.9,1.6-2.4,2.5v9.6c.5.9,1.3,1.8,2.4,2.5Z"/>
    <path d="M299.8,603.2h11.3v1.5h-11.3v-1.5ZM304.1,604.1v-5.7h1.7v19.2c0,1.3.2,2.3.7,2.9s1.2.9,2.2.9.7,0,1.1-.1c.3,0,.7-.2,1-.3v1.6c-.3.1-.6.2-1.1.3-.4,0-.9.1-1.5.1-1.3,0-2.3-.4-3-1.3-.7-.9-1.1-2.2-1.1-4.1v-13.5Z"/>
    <path d="M316.1,612.8c1.5-1,3.5-1.5,5.8-1.5h5.5v-1.9c0-1.5-.4-2.8-1.1-3.7-.8-.9-2.1-1.4-4.1-1.4s-3.3.4-4.2,1.2c-.8.8-1.3,1.8-1.3,3h0c0,0-1.7,0-1.7,0h0c0-1.7.7-3.1,2-4.2,1.3-1.1,3.1-1.6,5.2-1.6s3.9.6,5,1.7c1.2,1.1,1.8,2.8,1.8,5v8.8c0,.8,0,1.5.2,2.2.1.7.3,1.3.6,1.9v.3h-1.6c-.2-.3-.4-.8-.6-1.4s-.3-1.1-.3-1.7c-.5.8-1.4,1.6-2.6,2.3-1.2.7-2.7,1.1-4.5,1.1s-3.4-.5-4.7-1.4c-1.3-.9-1.9-2.3-1.9-4.3s.8-3.4,2.3-4.4ZM316.8,620.3c.9.7,2.2,1,4,1s3.3-.5,4.6-1.6c1.3-1.1,2-2.2,2-3.5v-3.5h-5c-2.2,0-3.9.4-5.1,1.2-1.2.8-1.8,1.9-1.8,3.3s.4,2.5,1.3,3.2Z"/>
    <path d="M333.5,612.6c0-2.9.8-5.3,2.4-7.1,1.6-1.8,3.7-2.8,6.4-2.8s4.4.7,5.7,2.1c1.3,1.4,1.9,2.9,1.9,4.7h0c0,0-1.7,0-1.7,0h0c0-1.5-.5-2.8-1.4-3.8-.9-1-2.5-1.5-4.5-1.5s-4.2.8-5.3,2.3c-1.2,1.6-1.7,3.6-1.7,6v.6c0,2.4.6,4.4,1.8,6,1.2,1.6,2.9,2.3,5.3,2.3s3.6-.5,4.5-1.5c.9-1,1.4-2.2,1.4-3.7h0c0,0,1.7,0,1.7,0h0c0,1.8-.6,3.4-1.9,4.8-1.3,1.4-3.2,2.1-5.7,2.1s-4.9-.9-6.4-2.8c-1.6-1.8-2.4-4.2-2.4-7.1v-.6Z"/>
    <path d="M354,595.9c.2-.3.6-.4,1-.4s.8.1,1,.4c.2.3.4.6.4,1s-.1.7-.4,1c-.2.3-.6.4-1,.4s-.8-.1-1-.4c-.2-.3-.4-.6-.4-1s.1-.7.4-1ZM354.1,603.2h1.7v19.2h-1.7v-19.2Z"/>
    <path d="M360.3,612.6c0-2.9.8-5.3,2.5-7.1,1.6-1.8,3.8-2.8,6.5-2.8s4.9.9,6.5,2.8c1.6,1.8,2.5,4.2,2.5,7.1v.6c0,2.9-.8,5.3-2.5,7.1-1.6,1.8-3.8,2.8-6.5,2.8s-4.9-.9-6.5-2.8c-1.6-1.8-2.5-4.2-2.5-7.1v-.6ZM362.1,613.2c0,2.4.6,4.4,1.8,5.9,1.2,1.6,3,2.3,5.4,2.3s4.2-.8,5.4-2.3,1.8-3.5,1.8-5.9v-.6c0-2.4-.6-4.4-1.8-5.9s-3-2.3-5.4-2.3-4.2.8-5.4,2.3c-1.2,1.6-1.8,3.5-1.8,5.9v.6ZM371.2,594.1l1.5,1.1-5.5,5-.8-.5,4.7-5.6Z"/>
    <path d="M382.8,603.2h1.6v3h0c.8-1.1,1.8-1.9,2.9-2.5,1.2-.6,2.5-.9,3.9-.9s3.5.5,4.6,1.6c1.1,1.1,1.7,2.8,1.7,5.3v12.7h-1.7v-12.7c0-1.9-.4-3.2-1.3-4.1s-2.2-1.2-3.8-1.2-2.6.4-3.6,1.1c-1.1.7-1.9,1.6-2.5,2.7v14.2h-1.7v-19.2Z"/>
    <path d="M236.3,657.5c0-2.8.7-5.1,2.2-7,1.4-1.8,3.4-2.7,6-2.7s2.9.3,4,.8c1.1.5,2.1,1.2,2.8,2.1v-11.4h1.8v28.1h-1.6v-2.8c-.7.9-1.6,1.6-2.8,2.2-1.2.6-2.6.9-4.1.9-2.5,0-4.5-.9-6-2.7-1.4-1.8-2.2-4.1-2.2-7v-.6ZM239.7,663.9c1.1,1.5,2.8,2.3,5.2,2.3,1.5,0,2.9-.4,4-1.1,1.1-.7,1.9-1.6,2.4-2.5v-9.6c-.5-.9-1.3-1.8-2.4-2.5-1.1-.7-2.4-1.1-4-1.1-2.4,0-4.1.7-5.2,2.3-1.1,1.5-1.7,3.5-1.7,5.8v.6c0,2.4.6,4.3,1.7,5.8Z"/>
    <path d="M257.4,657.5c0-2.9.8-5.3,2.4-7.1,1.6-1.8,3.6-2.8,6.2-2.8s4.5.8,5.9,2.5c1.4,1.6,2,4,2,7.1v.8h-15.6v-1.5h13.8c0-2.4-.5-4.2-1.5-5.4-1-1.2-2.6-1.8-4.8-1.8s-3.9.8-5,2.3-1.7,3.5-1.7,6v.6c0,2.4.6,4.4,1.8,6,1.2,1.6,3.1,2.3,5.7,2.3s2.5-.2,3.5-.7c1-.5,1.8-1.1,2.5-1.9l1.2,1.1c-.6.8-1.5,1.5-2.7,2.1-1.2.6-2.6.9-4.4.9-3,0-5.2-.9-6.8-2.8-1.6-1.8-2.4-4.2-2.4-7.1v-.6Z"/>
    <path d="M287.2,640.8h15.7v1.6h-13.9v10.5h12v1.6h-12v11.3h14.1v1.6h-15.9v-26.6Z"/>
    <path d="M305.8,648.2l5.7,15.1c.2.5.4.9.5,1.3.2.3.3.7.4,1.1h.1c.1-.4.2-.8.4-1.1.1-.4.3-.8.5-1.3l5.7-15.1h1.9l-7.8,19.2h-1.6l-7.8-19.2h1.9Z"/>
    <path d="M322.4,657.5c0-2.9.8-5.3,2.4-7.1,1.6-1.8,3.6-2.8,6.2-2.8s4.5.8,5.9,2.5c1.4,1.6,2,4,2,7.1v.8h-15.6v-1.5h13.8c0-2.4-.5-4.2-1.5-5.4-1-1.2-2.6-1.8-4.8-1.8s-3.9.8-5,2.3-1.7,3.5-1.7,6v.6c0,2.4.6,4.4,1.8,6,1.2,1.6,3.1,2.3,5.7,2.3s2.5-.2,3.5-.7c1-.5,1.8-1.1,2.5-1.9l1.2,1.1c-.6.8-1.5,1.5-2.7,2.1-1.2.6-2.6.9-4.4.9-3,0-5.2-.9-6.8-2.8-1.6-1.8-2.4-4.2-2.4-7.1v-.6Z"/>
    <path d="M342.7,648.2h1.6v3h0c.8-1.1,1.8-1.9,2.9-2.5,1.2-.6,2.5-.9,3.9-.9s3.5.5,4.6,1.6c1.1,1.1,1.7,2.8,1.7,5.3v12.7h-1.7v-12.7c0-1.9-.4-3.2-1.3-4.1s-2.2-1.2-3.8-1.2-2.6.4-3.6,1.1c-1.1.7-1.9,1.6-2.5,2.7v14.2h-1.7v-19.2Z"/>
    <path d="M360.2,648.2h11.3v1.5h-11.3v-1.5ZM364.4,649.1v-5.7h1.7v19.2c0,1.3.2,2.3.7,2.9s1.2.9,2.2.9.7,0,1.1-.1c.3,0,.7-.2,1-.3v1.6c-.3.1-.6.2-1.1.3-.4,0-.9.1-1.5.1-1.3,0-2.3-.4-3-1.3-.7-.9-1.1-2.2-1.1-4.1v-13.5Z"/>
    <path d="M373.6,657.5c0-2.9.8-5.3,2.5-7.1,1.6-1.8,3.8-2.8,6.5-2.8s4.9.9,6.5,2.8c1.6,1.8,2.5,4.2,2.5,7.1v.6c0,2.9-.8,5.3-2.5,7.1-1.6,1.8-3.8,2.8-6.5,2.8s-4.9-.9-6.5-2.8c-1.6-1.8-2.5-4.2-2.5-7.1v-.6ZM375.3,658.1c0,2.4.6,4.4,1.8,5.9,1.2,1.6,3,2.3,5.4,2.3s4.2-.8,5.4-2.3,1.8-3.5,1.8-5.9v-.6c0-2.4-.6-4.4-1.8-5.9s-3-2.3-5.4-2.3-4.2.8-5.4,2.3c-1.2,1.6-1.8,3.5-1.8,5.9v.6Z"/>
    <path d="M396.3,661.7h0c0,1.6.5,2.8,1.6,3.5,1.1.8,2.5,1.1,4.3,1.1s3.2-.4,4.2-1.1,1.5-1.7,1.5-2.9-.4-2-1.2-2.6c-.8-.5-2.3-1-4.6-1.5-2.2-.5-3.9-1.2-5-2.1-1.1-.9-1.6-2-1.6-3.5s.6-2.7,1.9-3.7c1.3-1,2.9-1.4,5-1.4s3.8.5,5.1,1.6c1.3,1.1,1.9,2.4,1.9,4h0c0,0-1.7,0-1.7,0h0c0-1.2-.5-2.3-1.4-3-.9-.8-2.2-1.2-3.9-1.2s-3,.3-3.9.9-1.3,1.4-1.3,2.5.4,1.8,1.2,2.5c.8.6,2.3,1.2,4.5,1.7,2.2.5,3.9,1.2,5.1,2,1.1.8,1.7,2,1.7,3.6s-.6,3-1.8,4.1c-1.2,1.1-3.1,1.7-5.6,1.7s-4.4-.6-5.7-1.7c-1.3-1.1-1.9-2.6-1.9-4.5h0c0,0,1.7,0,1.7,0Z"/>
  </g>
  <g>
    <line class="st2" x1="443.6" y1="631.7" x2="449.6" y2="631.7"/>
    <line class="st3" x1="462" y1="631.7" x2="580.3" y2="631.7"/>
    <line class="st2" x1="586.5" y1="631.7" x2="592.5" y2="631.7"/>
  </g>
  <g>
    <g>
      <path class="st5" d="M254.2,428.2h55l-19,93.2h-71.2l-19-93.2h51.8v62h2.4v-62Z"/>
      <path class="st5" d="M313.3,428.2h101.5v31h-50v2.4h41.2v26.2h-41.2v2.4h50v31h-101.6v-93Z"/>
      <path class="st5" d="M471.9,490.2h50v31h-101.6v-93.2h51.6v62.1Z"/>
      <path class="st5" d="M612.5,428.1c2.8,0,5.4.5,8,1.6s4.8,2.6,6.7,4.4c4,4,6.1,8.9,6.1,14.7v51.8c0,2.8-.5,5.4-1.5,8-1,2.5-2.5,4.7-4.5,6.6-4,4-8.9,6.1-14.7,6.1h-64.6c-2.7,0-5.3-.5-7.8-1.6-2.5-1-4.8-2.5-6.7-4.5-2-2-3.5-4.2-4.5-6.7-1-2.5-1.5-5.1-1.5-7.8v-12.5c0-4.4,0-8.9,0-13.5,0-4.5,0-9,0-13.5v-12.5c0-2.8.5-5.4,1.6-8,1.1-2.5,2.6-4.7,4.4-6.6,1.9-1.9,4.1-3.4,6.6-4.4,2.5-1.1,5.2-1.6,8.1-1.6h64.3ZM581.6,459.2h-2.7v31h2.7v-31Z"/>
      <path class="st5" d="M703.3,490.5l-5.5,6.6,2,1.8,7.1-8.6h22.5v31h-90.9v-31l29.8-38-2.2-1.8-6.7,8.8h-20.9v-31h90.9v31l-26.2,31.3Z"/>
    </g>
    <path class="st5" d="M739.4,438.8c-1,0-1.8-.2-2.6-.7-.8-.5-1.4-1.1-1.9-1.9-.5-.8-.7-1.7-.7-2.7s.2-1.9.7-2.7c.5-.8,1.1-1.4,1.9-1.9.8-.5,1.7-.7,2.6-.7s1.9.2,2.7.7c.8.5,1.4,1.1,1.9,1.9.5.8.7,1.7.7,2.7s-.2,1.9-.7,2.7c-.5.8-1.1,1.4-1.9,1.9-.8.5-1.7.7-2.7.7ZM739.4,437.7c.8,0,1.5-.2,2.1-.5s1.1-.8,1.4-1.5.5-1.4.5-2.2-.2-1.5-.5-2.1c-.4-.6-.8-1.1-1.4-1.5s-1.3-.5-2.1-.5-1.5.2-2.1.5c-.6.4-1.1.9-1.4,1.5-.3.6-.5,1.3-.5,2.1s.2,1.5.5,2.1c.3.6.8,1.1,1.4,1.5.6.4,1.3.5,2.1.5ZM737.5,435.9v-4.8h2.2c.5,0,.9.1,1.2.4.3.3.4.6.4,1.1s0,.6-.2.8c-.1.2-.4.4-.6.6l1.1,2h-1.3l-.9-1.7h-.7v1.7h-1.2ZM739.5,432h-.7v1.3h.7c.5,0,.7-.2.7-.7s0-.4-.2-.5c-.1-.1-.3-.2-.5-.2Z"/>
    <g>
      <path class="st5" d="M634.5,365.2c-7.3-4.2-20.8-9.5-29-10.1-12.3-.9-24.6-.9-36.9-1.5-10.7-.6-16.4,1.4-23.6-8.5-3.7-5-4.2-12.5-5.9-18.4.6-.1.8,0,1.2.4,1.2,1.1,2,6.9,2.5,8.8.1.5.4,2.6,1.1,2.3.4-.2,3.4-6.7,4.3-8,7.3-10.5,21.4-19.3,33.7-20,9.5-.6,24.3,4.1,32.9-.4.4-.2.9-.5,1.3-.8.5-.4.7-1.1.6-1.7,0-.3-.2-.5-.3-.8-.3-.7-.8-1.2-1.1-1.5-.2-.2-.5-.4-.8-.4-3.4-1-6.9-2.1-10.5-3.3-3.4-1.1-6.6-2.3-9.7-3.5-.7-.3-1.4-.7-1.9-1.3-4.2-4.5-11.5-6.2-17.2-6.8-1.7-.2-3.7.3-5.3,0-1-.2-2.4-1.5-3.6-1.9-4.4-1.6-11-.5-15.7-.3-.4,2.7,3,2.9,4.7,3.7,2.1,1,4.8,2.7,7,3.4,1.8.5,4.6.3,4.5,1.2-.1,1-3.5.6-4.3.4-2.1-.4-6.2-3.3-7.6-3.3-5,0-14.1,5.3-19,7.4-10.8,4.5-21.8,6.3-33.4,5.7-10.2-.5-18.1-5.1-27.8-7.5-29.4-7.3-54.6-2.9-71.3,2.6-19.1,6.4-23.9,11.8-32.6,15.8-7.1,3.3-36.5,11.3-56.4-3.2-5.6-4-9-9.2-9.3-9.7-5.8-9-6-18.4-5.9-22.6-.3,1.1-.6,2.7-.8,4.6-.4,4-.6,11.4,3.2,19,6.3,12.7,19.1,17,24.9,18.9,0,0,15.2,5.1,39.2.1,2.4-.5,4.7-1.1,4.7-1.1,2-.5,4.4-1.2,7.2-2.4,1.7-.7,4-1.8,6.4-3.5,0,1.3-.8,2-3.3,3.5-2.6,1.5-5.8,2.8-7.6,3.4-.3.4-.7.9-1.2,1.6-1.7,2.3-1.8,2.5-2.3,3.2-2.8,4.1-5,7.6-6.2,9-1.2,1.3-3.1,3.4-5.7,5.3-5.4,3.8-11.6,5.6-18.1,6.1-2.5.2-5,.2-7.5,0-1.4,0-4.5-.6-6.6-1-.6-.1-1.2,0-1.8.2-3.2,1.6-8.2,8.6-10.1,10.6-1.8,2-3.8,4.2-5.8,6.4-2,2.2-2.8,2.9-4.8,4.6-2.5,2.1-6.3,3.8-8.4,5.9-.5.5-5.3,5.9-3.7,6.4.9.3,4.1.1,5.4,0,3.5-.4,10.7-9.4,13.4-12.1,5.8-5.9,13.3-13.3,21.7-14,5.3-.4,10.5,1.7,15.8,2.3,5.8.7,14.7,1.2,20.4.8,16.8-1.1,30.4-20.5,43.5-30.4,12.6-9.5,33.3-5.2,46.1,7.3,8.3,8.2,16.1,16.6,26.6,21.9,10.1,5.1,20.2,5.2,31.1,4.3,4.7-.4,9.3-1.6,14-2,1.6.1,2.5,3,3.9,3.9,1.1.7,9.5.4,11.5.4,4.1,0,8.2-.2,12.3-.4,7.8-.3,15.5-.7,23.3-1.1h0c4.6-.2,9.2-.4,13.8-.5,9.7-.3,18.5-1.5,27.6,2.7,4.6,2.1,9.5,7.1,14.3,7.2.9,0,2.2-.2,3.1-.6.2,0,.3-.5.3-.7-.4-2.3-2.6-4.5-4.5-5.5ZM586,296.5c.9-.6,4.5-1.6,4.5,1,0,0,0,.3-.1.5-.3.6-3.5.6-4.3.3-.2,0-.4-.4-.5-.8,0-.5.2-.9.4-1.1ZM566.4,292.3c-.3-.7-.3-.9-.5-1.3-.4-.7-1.2-.6-2.6-1-1.1-.3-2.5-1-2.4-1.3,0-.4,2.6-.7,4.7.5.4.2,2.3,1.3,2.2,2.7,0,.6-.3,1.2-.7,1.2-.3,0-.6-.5-.8-.9Z"/>
      <path class="st5" d="M371,323.8c-1.5,1.8-3.7,5.1-5.2,7.3-1.3,2-2.6,3.8-3.7,5.1-5.4,6.5-13.2,9.8-22.9,10.5-1.1,0-2.2.1-3.4.1s-2.5,0-3.8-.1c-.3,0-.7,0-1.1-.1-.7-.1-1.4-.3-2-.4-1.4-.3-2.9-.7-4.2-.6-2.4,0-6.4,4-10.7,9.3-.8.9-1.4,1.8-1.8,2.2-.7.8-1.4,1.6-2.2,2.4-.7.7-1.3,1.5-2,2.2-1.6,1.7-3.4,3.2-5.4,4.3s-1.1.6-1.7.8c-2.4,1-4.8,1.6-7.3,1.2-2.6-.4-.9-2.3-.2-3.3,2.9-3.9,8.8-6.5,12.8-9.8,5.8-4.8,11-11.5,15.8-16.1.3-.3.6-.5.9-.6,1.3-.6,1.6-.1,3.7.6,12.7,4.5,22.7,3.6,32.9-5.9,1.5-1.4,6-6.9,7.4-8.1,1.3-.3,2.7-.6,4-.9Z"/>
      <path class="st5" d="M630.4,388c0,.5-1.9.9-2.3.9-7.2.2-12.2-6.7-18.2-10-2-1.1-4.2-1.8-6.3-2.4-13.9-4.1-28.1-6.2-42.2-10-.8-.2-2-.5-3.5-1,4.5-.2,9-.4,13.5-.6,2.8-.1,5.6-.3,8.5-.4,5,0,9.3.5,15.9,2.7,8.9,2.9,27.5,10.9,33.2,18.6.5.7,1.5,1.9,1.4,2.3Z"/>
    </g>
  </g>
</svg>