<?xml version="1.0" encoding="UTF-8"?>
<svg id="Capa_1" xmlns="http://www.w3.org/2000/svg" version="1.1" viewBox="0 0 960 960">
  <!-- Generator: Adobe Illustrator 29.3.1, SVG Export Plug-In . SVG Version: 2.1.0 Build 151)  -->
  <defs>
    <style>
      .st0 {
        stroke-width: 2px;
      }

      .st0, .st1, .st2, .st3, .st4, .st5, .st6 {
        stroke-miterlimit: 10;
      }

      .st0, .st1, .st3, .st4, .st5, .st6 {
        stroke: #212223;
      }

      .st0, .st2 {
        fill: none;
      }

      .st1, .st7 {
        fill: #d4d4d4;
      }

      .st2 {
        stroke: #000;
        stroke-dasharray: 11.9 11.9;
      }

      .st8 {
        fill: #212223;
        font-family: REDJOLA, REDJOLA;
        font-size: 42px;
      }

      .st3 {
        stroke-width: .9px;
      }

      .st3, .st4, .st5, .st6 {
        fill: #0019aa;
      }

      .st4 {
        stroke-width: 1.2px;
      }

      .st5 {
        stroke-width: 1px;
      }
    </style>
  </defs>
  <rect class="st1" width="960" height="960"/>
  <circle class="st2" cx="479.3" cy="480.7" r="216.7" transform="translate(-199.6 479.7) rotate(-45)"/>
  <path d="M593.1,451.5c-.1-.5-.3-1-.4-1.5-2.8-10.4-7-20.4-12.5-29.7-.3-.5-.7-1.1-1-1.6-4.7-7.6-10.3-14.7-16.8-21.1-5-5-10.4-9.5-16.1-13.5-.9-.7-1.9-1.3-2.8-1.9h0c-18.4-12-39.9-18.5-62.4-18.7-.3,0-.7,0-1,0,0,0,0,0,0,0s0,0,0,0c-.4,0-.7,0-1.1,0-22.5.2-43.9,6.7-62.4,18.7h0l-.2.2c-.9.6-1.7,1.2-2.6,1.8-5.7,4-11.1,8.5-16.1,13.5-6.5,6.5-12.1,13.5-16.8,21.1l-.3.5-.6,1h0c-5.6,9.4-9.8,19.4-12.5,29.8l-.4,1.5c-2.3,9.2-3.5,18.7-3.5,28.5s1.2,19.3,3.5,28.5c.1.5.3,1,.4,1.5,2.8,10.4,7,20.4,12.5,29.7.3.5.7,1.1,1,1.6,4.7,7.6,10.3,14.7,16.8,21.1,5,5,10.4,9.5,16.2,13.5.9.7,1.9,1.3,2.8,1.9,18.4,12,39.9,18.5,62.4,18.7.4,0,.7,0,1.1,0s.7,0,1.1,0c22.5-.2,43.9-6.7,62.4-18.7h0c.9-.6,1.9-1.3,2.8-1.9,5.7-4,11.1-8.5,16.2-13.5,6.5-6.5,12.1-13.5,16.8-21.1.3-.5.7-1.1,1-1.6h0c5.6-9.3,9.8-19.3,12.5-29.7.1-.5.3-1,.4-1.5,2.3-9.2,3.5-18.8,3.5-28.5s-1.2-19.3-3.5-28.5ZM595.1,479.3h0s-27.5,0-27.5,0c0-10.2-1.1-20.2-3-29.8,0,0,0,0,0,0,9.1.5,18,1.2,26.9,1.9,2.3,8.9,3.5,18.3,3.6,27.9ZM536.2,446.6c-1.7-11.3-4.2-22-7.5-31.7,0,0,0,0,0,0,7.8.5,15.6,1.2,23.4,2h0c4.7,9.6,8.3,20.1,10.7,31.1-8.8-.5-17.6-.9-26.5-1.3h0ZM480.7,413.2h0c7.4,0,14.9.1,22.3.4h0c1.7,9.9,3.1,20.7,4,32.2-8.7-.2-17.5-.2-26.2-.2h0v-32.3ZM480.7,411.7h0v-32.2h0c4.3,0,8.6,0,12.9.2h0c2.2,5,4.3,11.3,6.1,18.6,1.1,4.3,2.1,9,3,13.8-7.3-.2-14.6-.4-22-.4ZM493,378.1c-4.1-.1-8.2-.2-12.2-.2h0v-13c4.2.5,8.4,5.1,12.2,13.2h0ZM479.3,377.9c-4.1,0-8.2,0-12.2.2h0c3.8-8.1,8-12.7,12.2-13.2v13ZM466.3,379.7h0c4.3-.1,8.6-.2,12.9-.2v32.2c-7.4,0-14.7.1-22,.4.9-4.9,1.9-9.5,3-13.8,1.8-7.3,3.9-13.6,6.1-18.6ZM457,413.6h0c7.4-.2,14.8-.4,22.3-.4v32.3c-8.7,0-17.5,0-26.2.2.9-11.5,2.2-22.3,4-32.2ZM452.9,447.2c8.8-.2,17.5-.2,26.3-.3v32.3h-27.5c0-11,.4-21.8,1.2-32ZM479.3,480.7v32.3c-8.8,0-17.6,0-26.3-.3-.8-10.3-1.2-21-1.2-32h27.5ZM479.3,514.5v32.3c-7.4,0-14.9-.1-22.3-.4h0c-1.7-9.9-3.1-20.7-4-32.2,8.7.2,17.5.2,26.2.2ZM479.3,548.3v32.2c-4.3,0-8.6,0-12.9-.2h0c-2.2-5-4.3-11.3-6.1-18.6-1.1-4.3-2.1-9-3-13.8,7.3.2,14.6.4,22,.4ZM467,581.9c4.1.1,8.2.2,12.2.2v13c-4.2-.5-8.4-5.1-12.2-13.2h0ZM480.7,582.1h0c4.1,0,8.2,0,12.2-.2-3.8,8.1-8,12.7-12.2,13.2v-13ZM493.7,580.3c-4.3.1-8.6.2-12.9.2h0v-32.2h0c7.4,0,14.7-.1,22-.4-.9,4.9-1.9,9.5-3,13.8-1.8,7.3-3.9,13.6-6.1,18.6ZM503,546.4h0c-7.4.2-14.8.4-22.3.4h0v-32.3h0c8.7,0,17.5,0,26.2-.2-.9,11.5-2.2,22.3-4,32.2ZM507.1,512.8c-8.8.2-17.5.2-26.3.3h0v-32.3h27.5c0,11-.4,21.8-1.2,32ZM480.7,479.3v-32.3h0c8.8,0,17.6,0,26.3.3.8,10.3,1.2,21,1.2,32h-27.5ZM504.5,413.6c7.6.3,15.1.6,22.6,1.1,3.3,9.6,5.9,20.3,7.6,31.8-8.7-.3-17.5-.6-26.3-.8-.9-11.4-2.2-22.3-3.9-32.2ZM504.2,412.1s0,0,0,0c-.9-5-1.9-9.8-3-14.2-1.8-7.1-3.8-13.2-5.9-18.2h0c4.4.1,8.9.3,13.3.6h0c7.1,8.3,13.2,19.5,18,32.9-7.4-.5-14.9-.9-22.3-1.1ZM494.6,378.1h0c-2.8-6.1-5.8-10.4-9-12.7,7.7,1.5,15,6.2,21.5,13.3-4.2-.2-8.3-.4-12.5-.5ZM465.4,378.1h0c-4.2.1-8.4.3-12.5.5,6.5-7.1,13.8-11.7,21.5-13.3-3.2,2.3-6.2,6.6-9,12.7ZM451.4,380.3c4.4-.3,8.9-.5,13.3-.6h0c-2.1,5-4.1,11.1-5.9,18.2-1.1,4.5-2.1,9.2-3,14.2,0,0,0,0,0,0-7.5.2-14.9.6-22.3,1.1,4.7-13.4,10.9-24.6,18-32.9,0,0,0,0,0,0ZM432.9,414.8c7.5-.5,15-.9,22.6-1.1,0,0,0,0,0,0-1.7,9.9-3,20.7-3.9,32.2-8.8.2-17.6.4-26.3.8,1.7-11.5,4.3-22.2,7.6-31.8ZM425,448c8.8-.3,17.6-.6,26.4-.8-.8,10.3-1.1,21-1.2,32h-27.5c0-10.8.8-21.3,2.2-31.2ZM450.3,480.7c0,11,.4,21.7,1.2,32-8.8-.2-17.7-.4-26.4-.8-1.4-9.9-2.2-20.4-2.2-31.2h27.5ZM451.6,514.2c.9,11.4,2.2,22.3,3.9,32.2h0c-7.6-.3-15.1-.6-22.6-1.1-3.3-9.6-5.9-20.3-7.6-31.8,8.7.3,17.5.6,26.3.8ZM455.8,547.9h0c.9,5,1.9,9.8,3,14.2,1.8,7.1,3.8,13.2,5.9,18.2h0c-4.4-.1-8.9-.3-13.3-.6h0c-7.1-8.3-13.2-19.5-18-32.9,7.4.5,14.9.9,22.3,1.1ZM465.4,581.9h0c2.8,6.1,5.8,10.4,9,12.7-7.7-1.5-15-6.2-21.5-13.3,4.2.2,8.3.4,12.5.5ZM494.6,581.9h0c4.2-.1,8.4-.3,12.5-.5-6.5,7.1-13.8,11.7-21.5,13.3,3.2-2.3,6.2-6.6,9-12.7ZM508.6,579.7c-4.4.3-8.9.5-13.3.6h0c2.1-5,4.1-11.1,5.9-18.2,1.1-4.5,2.1-9.2,3-14.2,0,0,0,0,0,0,7.5-.2,14.9-.6,22.3-1.1-4.7,13.4-10.9,24.6-18,32.9ZM527.1,545.2c-7.5.5-15,.9-22.6,1.1,1.7-9.9,3-20.7,3.9-32.2,8.8-.2,17.6-.4,26.3-.8-1.7,11.5-4.3,22.2-7.6,31.8ZM535,512c-8.8.3-17.6.6-26.4.8.8-10.3,1.1-21,1.2-32h27.5c0,10.8-.8,21.3-2.2,31.2ZM509.7,479.3c0-11-.4-21.7-1.2-32,8.8.2,17.7.4,26.4.8,1.4,9.9,2.2,20.4,2.2,31.2h-27.5ZM528.2,413.3s0,0,0,0c-1.9-5.5-4.1-10.7-6.5-15.6-3.4-6.7-7-12.5-11-17.3,0,0,0,0,0,0h0c4.7.3,9.4.7,14.1,1.1,5.8,4.7,11.2,10.4,16.2,17,3.9,5.2,7.4,10.8,10.4,16.7-7.7-.8-15.4-1.4-23.1-1.9ZM509.2,378.8s0,0,0,0c-5.2-5.9-10.7-10.2-16.6-12.7,10.6,2.1,20.7,6.7,29.9,13.7-4.4-.4-8.8-.7-13.3-1ZM467.3,366.1c-5.8,2.5-11.4,6.8-16.6,12.7,0,0,0,0,0,0-4.4.3-8.9.6-13.3,1,9.2-7,19.3-11.6,29.9-13.7ZM435.3,381.5c4.7-.4,9.4-.8,14.1-1.1h0s0,0,0,0c-4,4.8-7.7,10.6-11,17.3-2.4,4.9-4.6,10.1-6.5,15.6,0,0,0,0,0,0-7.7.5-15.4,1.2-23.1,1.9,3-5.9,6.5-11.6,10.4-16.7,4.9-6.6,10.4-12.2,16.2-17ZM407.9,416.8h0c7.7-.8,15.5-1.4,23.4-2,0,0,0,0,0,0-3.3,9.8-5.9,20.5-7.5,31.7h0c-8.9.3-17.8.8-26.5,1.3,2.4-11,6-21.5,10.7-31.1ZM396.9,449.4c8.8-.5,17.7-1,26.6-1.3h0c-1.4,10-2.2,20.5-2.2,31.2h-27.5c0-10.2,1.1-20.3,3.1-29.9h0ZM421.3,480.7c0,10.7.8,21.2,2.2,31.2h0c-8.9-.4-17.8-.8-26.6-1.3h0c-2-9.6-3-19.6-3.1-29.9h27.5ZM423.8,513.4h0c1.7,11.3,4.2,22,7.5,31.7,0,0,0,0,0,0-7.8-.5-15.6-1.2-23.4-2h0c-4.7-9.6-8.3-20.1-10.7-31.1,8.8.5,17.6.9,26.5,1.3ZM431.8,546.7h0c1.9,5.5,4.1,10.7,6.5,15.6,3.4,6.7,7,12.5,11,17.3,0,0,0,0,0,0-4.7-.3-9.4-.7-14.1-1.1-5.8-4.7-11.2-10.4-16.2-17-3.9-5.2-7.4-10.8-10.4-16.7,7.7.8,15.4,1.4,23.1,1.9ZM450.8,581.2s0,0,0,0c5.2,5.9,10.7,10.2,16.6,12.7-10.6-2.1-20.7-6.7-29.9-13.7,4.4.4,8.8.7,13.3,1ZM509.2,581.2s0,0,0,0c4.4-.3,8.9-.6,13.3-1-9.2,7-19.3,11.6-29.9,13.7,5.8-2.5,11.4-6.8,16.6-12.7ZM524.7,578.5c-4.7.4-9.4.8-14.1,1.1,0,0,0,0,0,0,4-4.8,7.7-10.6,11-17.3,2.4-4.9,4.6-10.1,6.5-15.6,0,0,0,0,0,0,7.7-.5,15.4-1.2,23.1-1.9-3,5.9-6.5,11.6-10.4,16.7-4.9,6.6-10.4,12.3-16.2,17ZM552.1,543.2c-7.7.8-15.5,1.4-23.4,2,0,0,0,0,0,0,3.3-9.8,5.9-20.5,7.5-31.7h0c8.9-.3,17.8-.8,26.5-1.3-2.4,11-6,21.5-10.7,31.1ZM563.1,510.6c-8.8.5-17.7,1-26.6,1.3h0c1.4-10,2.2-20.5,2.2-31.2h27.5c0,10.2-1.1,20.3-3.1,29.9h0ZM538.7,479.3c0-10.7-.8-21.2-2.2-31.2h0c8.9.3,17.8.8,26.6,1.3,2,9.6,3,19.6,3.1,29.9h-27.5ZM591.1,449.9c-8.8-.7-17.8-1.3-26.8-1.9,0,0,0,0,0,0-2.3-11-5.9-21.4-10.5-31,0,0,0,0,0,0,8.2.9,16.4,1.9,24.4,3,5.6,9.2,10,19.2,12.9,29.9ZM577.2,418.4c-8-1.1-16.1-2.1-24.2-3h0c-3.2-6.3-6.8-12.3-11-17.8-4.5-6-9.5-11.3-14.7-15.8h0c5.2.5,10.4,1.1,15.6,1.8,13.8,9,25.5,20.9,34.4,34.8ZM501.3,366.8c13.9,2.6,26.9,7.7,38.5,14.8-4.9-.6-9.7-1.2-14.6-1.6h0c-7.4-6-15.5-10.4-23.9-13.2,0,0,0,0,0,0ZM458.7,366.8c-8.4,2.8-16.5,7.2-23.9,13.2h0c-4.9.5-9.8,1-14.6,1.6,11.7-7.1,24.7-12.2,38.5-14.8ZM417.1,383.6h0c5.2-.7,10.4-1.3,15.6-1.8,0,0,0,0,0,0-5.3,4.5-10.2,9.8-14.7,15.8-4.1,5.5-7.8,11.5-11,17.8-8.1.8-16.2,1.8-24.2,3,8.8-13.9,20.6-25.8,34.4-34.8ZM381.8,420h0c8.1-1.1,16.2-2.1,24.4-3,0,0,0,0,0,0-4.6,9.6-8.2,20-10.5,31,0,0,0,0,0,0-9,.5-18,1.2-26.8,1.9,2.9-10.6,7.3-20.7,12.9-29.9ZM368.5,451.4c8.9-.7,17.9-1.4,26.9-1.9,0,0,0,0,0,0-1.9,9.6-3,19.6-3,29.8h-27.5c0-9.6,1.3-19,3.6-27.9ZM364.9,480.7h27.5c0,10.2,1.1,20.2,3,29.8h0c-9.1-.5-18-1.2-26.9-1.9-2.3-8.9-3.5-18.3-3.6-27.9ZM368.9,510.1c8.8.7,17.8,1.3,26.8,1.9,0,0,0,0,0,0,2.3,11,5.9,21.4,10.5,31h0c-8.2-.9-16.4-1.9-24.5-3-5.6-9.2-10-19.2-12.9-29.9ZM382.8,541.6c8,1.1,16.1,2.1,24.2,3,3.2,6.3,6.8,12.3,11,17.8,4.5,6,9.5,11.3,14.7,15.8,0,0,0,0,0,0-5.2-.5-10.4-1.1-15.6-1.8-13.8-9-25.5-20.9-34.4-34.8ZM420.2,578.3c4.9.6,9.7,1.2,14.6,1.6h0s0,0,0,0c7.4,6,15.5,10.4,23.9,13.2,0,0,0,0,0,0-13.9-2.6-26.9-7.7-38.6-14.8ZM501.3,593.2s0,0,0,0c0,0,0,0,0,0,8.4-2.8,16.5-7.2,23.9-13.2,0,0,0,0,0,0h0c4.9-.5,9.8-1,14.6-1.6-11.7,7.1-24.7,12.2-38.5,14.8ZM542.8,576.4h0c-5.2.7-10.4,1.3-15.6,1.8,0,0,0,0,0,0,5.3-4.5,10.2-9.8,14.7-15.8,4.1-5.5,7.8-11.5,11-17.8,8.1-.8,16.2-1.8,24.2-3-8.8,13.9-20.6,25.8-34.4,34.8ZM578.2,540c-8.1,1.1-16.2,2.1-24.5,3,0,0,0,0,0,0,4.6-9.6,8.2-20,10.5-31,0,0,0,0,0,0,9-.5,18-1.2,26.8-1.9-2.9,10.6-7.3,20.7-12.9,29.9ZM591.5,508.6c-8.9.7-17.9,1.4-26.9,1.9,0,0,0,0,0,0,1.9-9.6,3-19.6,3-29.8h27.5c0,9.6-1.3,19-3.6,27.9Z"/>
  <rect class="st6" x="188.5" y="615.6" width="220.2" height="66.1" rx="23.7" ry="23.7"/>
  <g>
    <path class="st7" d="M220.6,636.4h8.2c2.8,0,4.8.7,6,2.1,1.2,1.4,1.6,3.2,1.2,5.6s-1.5,4.2-3.2,5.6c-1.7,1.4-3.9,2.1-6.7,2.1h-5.9l-2,11.3h-2.4l4.7-26.6ZM226.5,649.8c2.3,0,4-.5,5.1-1.6,1.1-1.1,1.8-2.4,2.1-4.1.3-1.7,0-3-.6-4.1s-2.2-1.6-4.5-1.6h-5.9l-2,11.3h5.9ZM227.1,650.8l2.3-.2,4.5,12.5h-2.5l-4.4-12.3Z"/>
    <path class="st7" d="M238.1,653.2c.5-2.9,1.7-5.3,3.6-7.1,1.9-1.8,4.1-2.8,6.7-2.8s4.4.8,5.5,2.5c1.1,1.7,1.4,4,.8,7l-.2,1h-15.3l.3-1.9h13c.4-2.2.2-3.8-.6-4.9-.7-1.1-2.1-1.7-4-1.7s-3.8.7-5.1,2.2c-1.3,1.5-2.2,3.4-2.6,5.7v.6c-.5,2.3-.3,4.1.6,5.6s2.5,2.2,4.8,2.2,2.5-.2,3.5-.7c1-.5,1.9-1.1,2.7-1.9l1.3,1.3c-.8.8-1.8,1.6-3.2,2.3-1.3.7-2.9,1-4.7,1-3,0-5.1-.9-6.4-2.8-1.3-1.8-1.6-4.2-1.1-7.1v-.6Z"/>
    <path class="st7" d="M257.4,653.2c.5-2.9,1.7-5.3,3.6-7.1,1.9-1.8,4.2-2.8,6.9-2.8s4.3.7,5.4,2.1c1,1.4,1.4,2.9,1.1,4.7h0c0,0-2.2,0-2.2,0h0c.2-1.4,0-2.5-.7-3.4-.7-.9-2-1.4-3.9-1.4s-4,.8-5.3,2.2c-1.3,1.5-2.2,3.4-2.6,5.7v.6c-.5,2.3-.3,4.2.5,5.7.8,1.5,2.3,2.2,4.5,2.2s3.4-.5,4.4-1.4c1-.9,1.7-2.1,1.9-3.4h0c0,0,2.2,0,2.2,0h0c-.3,1.8-1.2,3.4-2.8,4.8-1.5,1.4-3.6,2.1-6.1,2.1s-4.7-.9-6-2.8c-1.2-1.8-1.6-4.2-1.1-7.1v-.6Z"/>
    <path class="st7" d="M276.7,653.2c.5-2.9,1.7-5.3,3.6-7.1,1.9-1.8,4.1-2.8,6.7-2.8s4.4.8,5.5,2.5c1.1,1.7,1.4,4,.8,7l-.2,1h-15.3l.3-1.9h13c.4-2.2.2-3.8-.6-4.9-.7-1.1-2.1-1.7-4-1.7s-3.8.7-5.1,2.2c-1.3,1.5-2.2,3.4-2.6,5.7v.6c-.5,2.3-.3,4.1.6,5.6s2.5,2.2,4.8,2.2,2.5-.2,3.5-.7c1-.5,1.9-1.1,2.7-1.9l1.3,1.3c-.8.8-1.8,1.6-3.2,2.3-1.3.7-2.9,1-4.7,1-3,0-5.1-.9-6.4-2.8-1.3-1.8-1.6-4.2-1.1-7.1v-.6Z"/>
    <path class="st7" d="M298.9,643.8h2.1l-.4,2.7h0c.7-.8,1.7-1.5,3-2.1,1.2-.6,2.6-.9,4.1-.9,2.5,0,4.3.9,5.4,2.7,1.1,1.8,1.4,4.1.9,7v.6c-.6,2.8-1.7,5.1-3.5,7-1.8,1.8-3.9,2.7-6.4,2.7s-2.7-.3-3.7-.8c-1-.5-1.7-1.2-2.3-2l-1.8,10.1h-2.3l4.7-26.9ZM300.5,660.4c.9.7,2.1,1.1,3.5,1.1,2.2,0,3.9-.7,5.2-2.2,1.3-1.5,2.1-3.3,2.5-5.5v-.6c.5-2.2.3-4.1-.4-5.5-.8-1.5-2.2-2.2-4.4-2.2-1.4,0-2.7.4-3.9,1.1-1.1.7-2,1.5-2.7,2.4l-1.6,9c.3.9.9,1.7,1.8,2.4Z"/>
    <path class="st7" d="M317.3,653.2c.5-2.9,1.7-5.3,3.6-7.1,1.9-1.8,4.2-2.8,6.9-2.8s4.3.7,5.4,2.1c1,1.4,1.4,2.9,1.1,4.7h0c0,0-2.2,0-2.2,0h0c.2-1.4,0-2.5-.7-3.4-.7-.9-2-1.4-3.9-1.4s-4,.8-5.3,2.2c-1.3,1.5-2.2,3.4-2.6,5.7v.6c-.5,2.3-.3,4.2.5,5.7.8,1.5,2.3,2.2,4.5,2.2s3.4-.5,4.4-1.4c1-.9,1.7-2.1,1.9-3.4h0c0,0,2.2,0,2.2,0h0c-.3,1.8-1.2,3.4-2.8,4.8-1.5,1.4-3.6,2.1-6.1,2.1s-4.7-.9-6-2.8c-1.2-1.8-1.6-4.2-1.1-7.1v-.6Z"/>
    <path class="st7" d="M339.6,643.8h2.3l-3.4,19.2h-2.3l3.4-19.2ZM340.8,636.6c.3-.3.8-.5,1.3-.5s.9.2,1.1.5c.2.3.3.7.2,1.1,0,.5-.3.8-.6,1.2-.3.3-.8.5-1.3.5s-.9-.2-1.1-.5c-.2-.3-.3-.7-.2-1.2,0-.5.3-.8.6-1.1Z"/>
    <path class="st7" d="M344.7,653.2c.5-2.9,1.7-5.3,3.7-7.1,2-1.8,4.3-2.8,7-2.8s4.8.9,6.1,2.8c1.3,1.8,1.7,4.2,1.2,7.1v.6c-.6,2.9-1.9,5.3-3.8,7.1-2,1.8-4.3,2.8-7.1,2.8s-4.8-.9-6.1-2.8c-1.3-1.8-1.7-4.2-1.2-7.1v-.6ZM346.9,653.8c-.4,2.3-.2,4.1.7,5.6.9,1.5,2.4,2.2,4.6,2.2s4-.7,5.4-2.2,2.3-3.4,2.7-5.6v-.6c.5-2.3.3-4.1-.6-5.6-.9-1.5-2.4-2.2-4.6-2.2s-4,.7-5.4,2.2c-1.4,1.5-2.3,3.4-2.7,5.6v.6ZM358.8,634.4l1.7,1.3-6.4,5-.9-.9,5.6-5.5Z"/>
    <path class="st7" d="M368.7,643.8h2.1l-.4,2.8h0c1-1,2-1.8,3.2-2.4,1.2-.6,2.5-.8,3.9-.8s3.4.5,4.3,1.6c.9,1.1,1.2,2.9.7,5.4l-2.2,12.6h-2.3l2.2-12.6c.3-1.8.1-3.1-.6-3.8-.7-.8-1.8-1.2-3.3-1.2s-2.5.3-3.6,1c-1.1.7-2,1.5-2.8,2.6l-2.5,14h-2.3l3.4-19.2Z"/>
  </g>
  <rect class="st5" x="123.5" y="411.4" width="199.6" height="66.1" rx="23.7" ry="23.7"/>
  <g>
    <path class="st7" d="M150.9,448.6h2.4v.2c-.4,1.8,0,3.2,1.1,4.2,1,1,2.7,1.5,4.9,1.5s4-.4,5.3-1.3c1.3-.9,2.2-2.1,2.4-3.7.3-1.5,0-2.6-.9-3.5-.8-.9-2.7-1.7-5.6-2.5-2.8-.8-4.7-1.8-5.7-2.9-1.1-1.1-1.4-2.7-1.1-4.7.4-2.1,1.4-3.8,3.1-5.1,1.7-1.2,3.9-1.9,6.6-1.9s4.7.7,6,2.2c1.3,1.5,1.8,3.3,1.4,5.4v.2h-2.4v-.2c.3-1.6,0-2.9-.9-4-.9-1-2.4-1.6-4.5-1.6s-3.7.4-4.9,1.3c-1.2.8-1.9,2-2.2,3.6-.2,1.3,0,2.4.9,3.3.9.8,2.7,1.7,5.6,2.5,2.7.8,4.6,1.8,5.7,3s1.4,2.8,1,4.9c-.4,2.2-1.5,4-3.3,5.3s-4.2,1.9-7.1,1.9-5-.7-6.4-2.1c-1.5-1.4-2-3.3-1.6-5.7v-.2Z"/>
    <path class="st7" d="M177.4,427.9h2.3l-2,11.6c1-1,2-1.8,3.2-2.3,1.2-.5,2.4-.8,3.8-.8,1.9,0,3.4.5,4.4,1.6,1,1.1,1.2,2.9.8,5.4l-2.2,12.6h-2.3l2.2-12.6c.3-1.8.1-3.1-.6-3.8-.7-.8-1.8-1.2-3.3-1.2s-2.5.3-3.5,1c-1.1.7-2,1.5-2.8,2.6l-2.5,14h-2.3l5-28.1Z"/>
    <path class="st7" d="M193.4,446.1c.5-2.9,1.7-5.3,3.7-7.1,2-1.8,4.3-2.8,7-2.8s4.8.9,6.1,2.8c1.3,1.8,1.7,4.2,1.2,7.1v.6c-.6,2.9-1.9,5.3-3.8,7.1-2,1.8-4.3,2.8-7.1,2.8s-4.8-.9-6.1-2.8c-1.3-1.8-1.7-4.2-1.2-7.1v-.6ZM195.6,446.7c-.4,2.3-.2,4.1.7,5.6.9,1.5,2.4,2.2,4.6,2.2s4-.7,5.4-2.2,2.3-3.4,2.7-5.6v-.6c.5-2.3.3-4.1-.6-5.6-.9-1.5-2.4-2.2-4.6-2.2s-4,.7-5.4,2.2c-1.4,1.5-2.3,3.4-2.7,5.6v.6Z"/>
    <path class="st7" d="M214.5,446.1c.5-2.9,1.7-5.3,3.7-7.1,2-1.8,4.3-2.8,7-2.8s4.8.9,6.1,2.8c1.3,1.8,1.7,4.2,1.2,7.1v.6c-.6,2.9-1.9,5.3-3.8,7.1-2,1.8-4.3,2.8-7.1,2.8s-4.8-.9-6.1-2.8c-1.3-1.8-1.7-4.2-1.2-7.1v-.6ZM216.8,446.7c-.4,2.3-.2,4.1.7,5.6.9,1.5,2.4,2.2,4.6,2.2s4-.7,5.4-2.2,2.3-3.4,2.7-5.6v-.6c.5-2.3.3-4.1-.6-5.6-.9-1.5-2.4-2.2-4.6-2.2s-4,.7-5.4,2.2c-1.4,1.5-2.3,3.4-2.7,5.6v.6Z"/>
    <path class="st7" d="M235.8,436.8h11.2l-.3,1.9h-11.2l.3-1.9ZM239.6,437.9v-.4c0,0,1-5.5,1-5.5h2.3l-3.4,19.2c-.2,1.2-.1,2,.2,2.5.3.5.9.8,1.8.8s.7,0,1.1-.1c.3,0,.7-.2,1.1-.3l-.3,2c-.3.1-.7.2-1.2.3-.5,0-1,.1-1.6.1-1.3,0-2.3-.4-2.9-1.3-.6-.9-.8-2.2-.5-4.1l2.4-13.3Z"/>
    <path class="st7" d="M250.8,436.8h2.3l-3.4,19.2h-2.3l3.4-19.2ZM252,429.5c.3-.3.8-.5,1.3-.5s.9.2,1.1.5c.2.3.3.7.2,1.1,0,.5-.3.8-.6,1.2-.3.3-.8.5-1.3.5s-.9-.2-1.1-.5c-.2-.3-.3-.7-.2-1.2,0-.5.3-.8.6-1.1Z"/>
    <path class="st7" d="M258.8,436.8h2.1l-.4,2.8h0c1-1,2-1.8,3.2-2.4,1.2-.6,2.5-.8,3.9-.8s3.4.5,4.3,1.6c.9,1.1,1.2,2.9.7,5.4l-2.2,12.6h-2.3l2.2-12.6c.3-1.8.1-3.1-.6-3.8-.7-.8-1.8-1.2-3.3-1.2s-2.5.3-3.6,1c-1.1.7-2,1.5-2.8,2.6l-2.5,14h-2.3l3.4-19.2Z"/>
    <path class="st7" d="M276,459.8c.5.6,1.3,1.1,2.3,1.5,1,.4,2.2.6,3.5.6,1.9,0,3.6-.6,4.9-1.7,1.3-1.1,2.1-2.7,2.5-4.7l.4-2c-.8.8-1.8,1.5-3,2-1.2.5-2.5.8-4,.8-2.5,0-4.3-.9-5.5-2.7-1.1-1.8-1.4-4.1-.9-7v-.6c.6-2.8,1.7-5.1,3.5-7,1.8-1.8,3.9-2.7,6.4-2.7s2.7.3,3.8.9c1,.6,1.8,1.3,2.2,2.1h0l.6-2.7h2.1l-3.3,18.8c-.5,2.7-1.6,4.8-3.5,6.2-1.8,1.4-4,2.2-6.5,2.2s-2.9-.2-4.2-.7c-1.2-.4-2.2-1-3-1.7l1.6-1.8ZM279.1,452.2c.8,1.5,2.3,2.2,4.5,2.2,1.4,0,2.7-.4,3.9-1.1s2-1.5,2.6-2.4l1.6-9c-.3-.9-.9-1.7-1.8-2.4-.9-.7-2.1-1.1-3.5-1.1-2.2,0-3.9.7-5.2,2.2-1.3,1.5-2.1,3.3-2.5,5.5v.6c-.5,2.2-.3,4.1.5,5.5Z"/>
  </g>
  <rect class="st6" x="369.9" y="256.2" width="220.2" height="66.1" rx="23.7" ry="23.7"/>
  <g>
    <path class="st7" d="M399.3,288.4c.7-4.2,2.3-7.5,4.8-9.8,2.5-2.3,5.2-3.4,8.4-3.4s4.9.8,6.4,2.4c1.4,1.6,2.1,3.8,1.9,6.5v.2h-2.3v-.2c.1-2.1-.4-3.8-1.4-5s-2.7-1.8-4.8-1.8-4.7,1-6.6,2.9c-1.9,1.9-3.2,4.7-3.8,8.2l-.2,1.3c-.6,3.6-.3,6.3.9,8.2s3.1,2.9,5.6,2.9,4.4-.7,5.8-2.1c1.4-1.4,2.3-3,2.8-4.7v-.2h2.4v.2c-.7,2.5-2.1,4.7-4,6.4-1.9,1.7-4.4,2.6-7.5,2.6s-5.5-1.1-7.2-3.4c-1.7-2.3-2.1-5.5-1.4-9.8l.2-1.3Z"/>
    <path class="st7" d="M425,283.1h2.3l-2.2,12.6c-.3,1.8-.1,3.1.6,3.8s1.8,1.1,3.3,1.2c1.3,0,2.5-.3,3.5-1,1.1-.7,2-1.5,2.8-2.6l2.5-14h2.3l-3.4,19.2h-2.1l.4-2.8h0c-1,1-2.1,1.8-3.3,2.4-1.2.5-2.5.8-3.8.8-1.9,0-3.4-.5-4.3-1.6-1-1.1-1.2-2.9-.8-5.4l2.2-12.6Z"/>
    <path class="st7" d="M445.6,283.1h2.1l-.4,2.7h0c.8-.9,1.7-1.6,2.7-2.3,1-.7,2.2-1,3.5-1s.6,0,.9,0c.3,0,.5.1.7.2l-.4,2.2c-.3,0-.5,0-.8-.1-.3,0-.6,0-1,0-1.3,0-2.4.3-3.4,1-1,.7-1.9,1.5-2.5,2.5l-2.5,14.1h-2.3l3.4-19.2Z"/>
    <path class="st7" d="M457.3,292.5c1.7-1,3.8-1.6,6.1-1.6h5.1l.3-1.7c.2-1.4,0-2.5-.5-3.4-.6-.9-1.7-1.3-3.5-1.3s-3.1.4-4,1.1c-.9.7-1.4,1.6-1.6,2.7h0c0,0-2.2,0-2.2,0h0c.3-1.7,1.2-3.1,2.7-4.2s3.4-1.7,5.6-1.7,3.8.6,4.9,1.7c1,1.1,1.3,2.8,1,5l-1.6,8.8c-.1.8-.2,1.5-.2,2.2,0,.7,0,1.3.2,1.9v.3h-2.2c-.1-.3-.2-.8-.3-1.3,0-.5,0-1.1,0-1.6-.7.8-1.6,1.5-2.9,2.2-1.2.7-2.7,1-4.5,1s-3.3-.5-4.4-1.4-1.5-2.4-1.1-4.4c.3-1.9,1.4-3.4,3.1-4.5ZM457.2,299.8c.7.7,1.8,1,3.5,1s3.1-.5,4.6-1.5c1.4-1,2.2-2.1,2.4-3.3l.6-3.3h-4.7c-2,0-3.7.4-4.9,1.1-1.2.7-1.9,1.8-2.2,3.1-.2,1.3,0,2.3.7,3Z"/>
    <path class="st7" d="M474.9,292.4c.5-2.8,1.6-5.1,3.4-7s3.9-2.7,6.4-2.7,2.7.3,3.7.8c1,.5,1.7,1.2,2.2,2l2-11.3h2.3l-5,28.1h-2.1l.4-2.7h0c-.7.8-1.7,1.5-3,2.1-1.2.6-2.6.9-4.1.9-2.5,0-4.3-.9-5.5-2.7-1.1-1.8-1.4-4.1-.9-7v-.6ZM477.7,298.5c.8,1.5,2.3,2.2,4.5,2.2,1.4,0,2.7-.4,3.9-1.1,1.1-.7,2-1.5,2.6-2.4l1.6-9c-.3-.9-.9-1.7-1.8-2.4s-2.1-1.1-3.5-1.1c-2.2,0-3.9.7-5.2,2.2-1.3,1.5-2.1,3.3-2.5,5.5v.6c-.5,2.2-.3,4.1.5,5.5Z"/>
    <path class="st7" d="M498.8,283.1h2.3l-2.2,12.6c-.3,1.8-.1,3.1.6,3.8.7.8,1.8,1.1,3.3,1.2,1.3,0,2.5-.3,3.5-1,1.1-.7,2-1.5,2.8-2.6l2.5-14h2.3l-3.4,19.2h-2.1l.4-2.8h0c-1,1-2.1,1.8-3.3,2.4-1.2.5-2.5.8-3.8.8-1.9,0-3.4-.5-4.3-1.6-1-1.1-1.2-2.9-.8-5.4l2.2-12.6Z"/>
    <path class="st7" d="M519.5,283.1h2.1l-.4,2.7h0c.8-.9,1.7-1.6,2.7-2.3,1-.7,2.2-1,3.5-1s.6,0,.9,0c.3,0,.5.1.7.2l-.4,2.2c-.3,0-.5,0-.8-.1-.3,0-.6,0-1,0-1.3,0-2.4.3-3.4,1s-1.9,1.5-2.5,2.5l-2.5,14.1h-2.3l3.4-19.2Z"/>
    <path class="st7" d="M532.4,283.1h2.3l-3.4,19.2h-2.3l3.4-19.2ZM536.9,273.6l1.7,1.3-6.4,5-.9-.9,5.6-5.5Z"/>
    <path class="st7" d="M540,292.5c1.7-1,3.8-1.6,6.1-1.6h5.1l.3-1.7c.2-1.4,0-2.5-.5-3.4-.6-.9-1.7-1.3-3.5-1.3s-3.1.4-4,1.1c-.9.7-1.4,1.6-1.6,2.7h0c0,0-2.2,0-2.2,0h0c.3-1.7,1.2-3.1,2.7-4.2s3.4-1.7,5.6-1.7,3.8.6,4.9,1.7c1,1.1,1.3,2.8,1,5l-1.6,8.8c-.1.8-.2,1.5-.2,2.2,0,.7,0,1.3.2,1.9v.3h-2.2c-.1-.3-.2-.8-.3-1.3,0-.5,0-1.1,0-1.6-.7.8-1.6,1.5-2.9,2.2-1.2.7-2.7,1-4.5,1s-3.3-.5-4.4-1.4-1.5-2.4-1.1-4.4c.3-1.9,1.4-3.4,3.1-4.5ZM539.9,299.8c.7.7,1.8,1,3.5,1s3.1-.5,4.6-1.5c1.4-1,2.2-2.1,2.4-3.3l.6-3.3h-4.7c-2,0-3.7.4-4.9,1.1-1.2.7-1.9,1.8-2.2,3.1-.2,1.3,0,2.3.7,3Z"/>
  </g>
  <rect class="st3" x="635.3" y="411.4" width="168.3" height="66.1" rx="23.7" ry="23.7"/>
  <g>
    <path class="st7" d="M664.6,431.6h16l-.3,2h-13.7l-1.7,9.8h11.8l-.4,2h-11.8l-1.9,10.7h13.9l-.4,2h-16.2l4.7-26.6Z"/>
    <path class="st7" d="M680.3,448.3c.5-2.8,1.6-5.1,3.4-7,1.8-1.8,3.9-2.7,6.4-2.7s2.7.3,3.7.8c1,.5,1.7,1.2,2.2,2l2-11.3h2.3l-5,28.1h-2.1l.4-2.7h0c-.7.8-1.7,1.5-3,2.1-1.3.6-2.6.9-4.1.9-2.5,0-4.3-.9-5.5-2.7-1.1-1.8-1.4-4.1-.9-7v-.6ZM683.1,454.4c.8,1.5,2.3,2.2,4.5,2.2,1.4,0,2.7-.4,3.9-1.1s2-1.5,2.6-2.4l1.6-9c-.3-.9-.9-1.7-1.8-2.4-.9-.7-2.1-1.1-3.5-1.1-2.2,0-3.9.7-5.2,2.2-1.3,1.5-2.1,3.3-2.5,5.5v.6c-.5,2.2-.3,4.1.5,5.5Z"/>
    <path class="st7" d="M704.5,439h2.3l-3.4,19.2h-2.3l3.4-19.2ZM705.7,431.7c.3-.3.8-.5,1.3-.5s.9.2,1.1.5c.2.3.3.7.2,1.1,0,.5-.3.8-.6,1.2-.3.3-.8.5-1.3.5s-.9-.2-1.1-.5c-.2-.3-.3-.7-.2-1.2,0-.5.3-.8.6-1.1Z"/>
    <path class="st7" d="M709.6,448.3c.5-2.9,1.7-5.3,3.6-7.1,1.9-1.8,4.2-2.8,6.9-2.8s4.3.7,5.4,2.1c1,1.4,1.4,2.9,1.1,4.7h0c0,0-2.2,0-2.2,0h0c.2-1.4,0-2.5-.7-3.4-.7-.9-2-1.4-3.9-1.4s-4,.8-5.3,2.2c-1.3,1.5-2.2,3.4-2.6,5.7v.6c-.5,2.3-.3,4.2.5,5.7.8,1.5,2.3,2.2,4.5,2.2s3.4-.5,4.4-1.4c1-.9,1.7-2.1,1.9-3.4h0c0,0,2.2,0,2.2,0h0c-.3,1.8-1.2,3.4-2.8,4.8-1.5,1.4-3.6,2.1-6.1,2.1s-4.7-.9-6-2.8c-1.2-1.8-1.6-4.2-1.1-7.1v-.6Z"/>
    <path class="st7" d="M731.9,439h2.3l-3.4,19.2h-2.3l3.4-19.2ZM733.2,431.7c.3-.3.8-.5,1.3-.5s.9.2,1.1.5c.2.3.3.7.2,1.1,0,.5-.3.8-.6,1.2-.3.3-.8.5-1.3.5s-.9-.2-1.1-.5c-.2-.3-.3-.7-.2-1.2,0-.5.3-.8.6-1.1Z"/>
    <path class="st7" d="M737.1,448.3c.5-2.9,1.7-5.3,3.7-7.1,2-1.8,4.3-2.8,7-2.8s4.8.9,6.1,2.8c1.3,1.8,1.7,4.2,1.2,7.1v.6c-.6,2.9-1.9,5.3-3.8,7.1-2,1.8-4.3,2.8-7.1,2.8s-4.8-.9-6.1-2.8c-1.3-1.8-1.7-4.2-1.2-7.1v-.6ZM739.3,448.9c-.4,2.3-.2,4.1.7,5.6.9,1.5,2.4,2.2,4.6,2.2s4-.7,5.4-2.2,2.3-3.4,2.7-5.6v-.6c.5-2.3.3-4.1-.6-5.6-.9-1.5-2.4-2.2-4.6-2.2s-4,.7-5.4,2.2c-1.4,1.5-2.3,3.4-2.7,5.6v.6ZM751.1,429.5l1.7,1.3-6.4,5-.9-.9,5.6-5.5Z"/>
    <path class="st7" d="M761.1,439h2.1l-.4,2.8h0c1-1,2-1.8,3.2-2.4,1.2-.6,2.5-.8,3.9-.8s3.4.5,4.3,1.6c.9,1.1,1.2,2.9.7,5.4l-2.2,12.6h-2.3l2.2-12.6c.3-1.8.1-3.1-.6-3.8-.7-.8-1.8-1.2-3.3-1.2s-2.5.3-3.6,1c-1.1.7-2,1.5-2.8,2.6l-2.5,14h-2.3l3.4-19.2Z"/>
  </g>
  <rect class="st4" x="547.2" y="615.6" width="308.5" height="66.1" rx="23.7" ry="23.7"/>
  <g>
    <path class="st7" d="M592.6,633.5h2.5l5.5,26.8h-2.4l-4.2-21.5c0-.5-.2-1-.3-1.5,0-.5-.1-1-.2-1.5h-.2c-.2.5-.5,1-.7,1.5-.2.5-.5,1-.8,1.5l-11.8,21.5h-2.5l14.9-26.8ZM584,650.9h13.6l.5,2h-15.2l1.1-2Z"/>
    <path class="st7" d="M604.2,650.4c.5-2.8,1.6-5.1,3.4-7,1.8-1.8,3.9-2.7,6.4-2.7s2.7.3,3.7.8c1,.5,1.7,1.2,2.2,2l2-11.3h2.3l-5,28.1h-2.1l.4-2.7h0c-.7.8-1.7,1.5-3,2.1-1.3.6-2.6.9-4.1.9-2.5,0-4.3-.9-5.5-2.7-1.1-1.8-1.4-4.1-.9-7v-.6ZM606.9,656.5c.8,1.5,2.3,2.2,4.5,2.2,1.4,0,2.7-.4,3.9-1.1s2-1.5,2.6-2.4l1.6-9c-.3-.9-.9-1.7-1.8-2.4-.9-.7-2.1-1.1-3.5-1.1-2.2,0-3.9.7-5.2,2.2-1.3,1.5-2.1,3.3-2.5,5.5v.6c-.5,2.2-.3,4.1.5,5.5Z"/>
    <path class="st7" d="M628.2,641.1h2.1l-.4,2.8h0c1-1,2-1.8,3.2-2.4,1.2-.6,2.4-.8,3.7-.8s2.4.3,3.3.8c.9.6,1.5,1.4,1.7,2.6h0c1.1-1.2,2.2-2,3.4-2.6,1.2-.6,2.5-.8,3.9-.8s3.3.5,4.3,1.6c1,1.1,1.2,2.9.8,5.4l-2.2,12.6h-2.3l2.2-12.6c.3-1.8.1-3.1-.6-3.8-.7-.8-1.7-1.2-3.2-1.2-1.2,0-2.4.4-3.5,1-1.1.7-2,1.5-2.8,2.5l-2.5,14h-2.3l2.2-12.6c.3-1.8.1-3.1-.6-3.8-.7-.8-1.8-1.1-3.2-1.2-1.2,0-2.4.3-3.4,1-1,.7-2,1.5-2.7,2.6l-2.5,14h-2.3l3.4-19.2Z"/>
    <path class="st7" d="M661,641.1h2.3l-3.4,19.2h-2.3l3.4-19.2ZM662.3,633.8c.3-.3.8-.5,1.3-.5s.9.2,1.1.5c.2.3.3.7.2,1.1,0,.5-.3.8-.6,1.2-.3.3-.8.5-1.3.5s-.9-.2-1.1-.5c-.2-.3-.3-.7-.2-1.2,0-.5.3-.8.6-1.1Z"/>
    <path class="st7" d="M669,641.1h2.1l-.4,2.8h0c1-1,2-1.8,3.2-2.4,1.2-.6,2.5-.8,3.9-.8s3.4.5,4.3,1.6c.9,1.1,1.2,2.9.7,5.4l-2.2,12.6h-2.3l2.2-12.6c.3-1.8.1-3.1-.6-3.8-.7-.8-1.8-1.2-3.3-1.2s-2.5.3-3.6,1c-1.1.7-2,1.5-2.8,2.6l-2.5,14h-2.3l3.4-19.2Z"/>
    <path class="st7" d="M689.6,641.1h2.3l-3.4,19.2h-2.3l3.4-19.2ZM690.8,633.8c.3-.3.8-.5,1.3-.5s.9.2,1.1.5c.2.3.3.7.2,1.1,0,.5-.3.8-.6,1.2-.3.3-.8.5-1.3.5s-.9-.2-1.1-.5c-.2-.3-.3-.7-.2-1.2,0-.5.3-.8.6-1.1Z"/>
    <path class="st7" d="M696.2,654.6h0c-.2,1.5,0,2.5.9,3.2.9.7,2.1,1,3.7,1s3-.3,4-1c1-.7,1.6-1.6,1.8-2.6.2-1.1,0-1.9-.7-2.4-.7-.5-2-1-4.1-1.5-2.1-.5-3.6-1.2-4.6-2.1-1-.9-1.3-2.1-1.1-3.5.3-1.5,1.1-2.8,2.6-3.8,1.5-1,3.2-1.5,5.4-1.5s3.8.5,4.9,1.6c1.1,1.1,1.5,2.4,1.2,4.1h0c0,0-2.3,0-2.3,0h0c.2-1.2,0-2.1-.7-2.8-.7-.7-1.8-1-3.4-1s-2.8.3-3.7.8c-.9.6-1.4,1.3-1.6,2.3-.2.9,0,1.6.7,2.2.7.6,2,1.1,4.1,1.6,2.1.5,3.6,1.2,4.6,2s1.3,2.1,1,3.7c-.3,1.6-1.1,3-2.6,4.1s-3.4,1.7-5.9,1.7-4.3-.6-5.4-1.7c-1.1-1.1-1.5-2.6-1.2-4.5h0c0,0,2.3,0,2.3,0Z"/>
    <path class="st7" d="M712.9,641.1h11.2l-.3,1.9h-11.2l.3-1.9ZM716.8,642.2v-.4c0,0,1-5.5,1-5.5h2.3l-3.4,19.2c-.2,1.2-.1,2,.2,2.5.3.5.9.8,1.8.8s.7,0,1.1-.1c.3,0,.7-.2,1.1-.3l-.3,2c-.3.1-.7.2-1.2.3-.5,0-1,.1-1.6.1-1.3,0-2.3-.4-2.9-1.3-.6-.9-.8-2.2-.5-4.1l2.4-13.3Z"/>
    <path class="st7" d="M727.8,641.1h2.1l-.4,2.7h0c.8-.9,1.7-1.6,2.7-2.3,1-.7,2.2-1,3.5-1s.6,0,.9,0c.3,0,.5.1.7.2l-.4,2.2c-.3,0-.5,0-.8-.1-.3,0-.6,0-1,0-1.3,0-2.4.3-3.4,1-1,.7-1.9,1.5-2.5,2.5l-2.5,14.1h-2.3l3.4-19.2Z"/>
    <path class="st7" d="M739.5,650.4c1.7-1,3.8-1.6,6.1-1.6h5.1l.3-1.7c.2-1.4,0-2.5-.5-3.4-.6-.9-1.7-1.3-3.5-1.3s-3.1.4-4,1.1c-.9.7-1.4,1.6-1.6,2.7h0c0,0-2.2,0-2.2,0h0c.3-1.7,1.2-3.1,2.7-4.2,1.5-1.1,3.4-1.7,5.6-1.7s3.8.6,4.9,1.7c1,1.1,1.3,2.8,1,5l-1.6,8.8c-.1.8-.2,1.5-.2,2.2,0,.7,0,1.3.2,1.9v.3h-2.2c-.1-.3-.2-.8-.3-1.3,0-.5,0-1.1,0-1.6-.7.8-1.6,1.5-2.9,2.2-1.2.7-2.7,1-4.5,1s-3.3-.5-4.4-1.4-1.5-2.4-1.1-4.4c.3-1.9,1.4-3.4,3.1-4.5ZM739.4,657.7c.7.7,1.8,1,3.5,1s3.1-.5,4.6-1.5c1.4-1,2.2-2.1,2.4-3.3l.6-3.3h-4.7c-2,0-3.7.4-4.9,1.1-1.2.7-1.9,1.8-2.2,3.1-.2,1.3,0,2.3.7,3Z"/>
    <path class="st7" d="M757.1,650.4c.5-2.9,1.7-5.3,3.6-7.1,1.9-1.8,4.2-2.8,6.9-2.8s4.3.7,5.4,2.1c1,1.4,1.4,2.9,1.1,4.7h0c0,0-2.2,0-2.2,0h0c.2-1.4,0-2.5-.7-3.4-.7-.9-2-1.4-3.9-1.4s-4,.8-5.3,2.2c-1.3,1.5-2.2,3.4-2.6,5.7v.6c-.5,2.3-.3,4.2.5,5.7.8,1.5,2.3,2.2,4.5,2.2s3.4-.5,4.4-1.4,1.7-2.1,1.9-3.4h0c0,0,2.2,0,2.2,0h0c-.3,1.8-1.2,3.4-2.8,4.8-1.5,1.4-3.6,2.1-6.1,2.1s-4.7-.9-6-2.8c-1.2-1.8-1.6-4.2-1.1-7.1v-.6Z"/>
    <path class="st7" d="M779.4,641.1h2.3l-3.4,19.2h-2.3l3.4-19.2ZM780.7,633.8c.3-.3.8-.5,1.3-.5s.9.2,1.1.5c.2.3.3.7.2,1.1,0,.5-.3.8-.6,1.2-.3.3-.8.5-1.3.5s-.9-.2-1.1-.5c-.2-.3-.3-.7-.2-1.2,0-.5.3-.8.6-1.1Z"/>
    <path class="st7" d="M784.5,650.4c.5-2.9,1.8-5.3,3.7-7.1,2-1.8,4.3-2.8,7-2.8s4.8.9,6.1,2.8c1.3,1.8,1.7,4.2,1.2,7.1v.6c-.6,2.9-1.9,5.3-3.8,7.1-2,1.8-4.3,2.8-7.1,2.8s-4.8-.9-6.1-2.8c-1.3-1.8-1.7-4.2-1.2-7.1v-.6ZM786.8,651c-.4,2.3-.2,4.1.7,5.6.9,1.5,2.4,2.2,4.6,2.2s4-.7,5.4-2.2,2.3-3.4,2.7-5.6v-.6c.5-2.3.3-4.1-.6-5.6-.9-1.5-2.4-2.2-4.6-2.2s-4,.7-5.4,2.2c-1.4,1.5-2.3,3.4-2.7,5.6v.6ZM798.6,631.6l1.7,1.3-6.4,5-.9-.9,5.6-5.5Z"/>
    <path class="st7" d="M808.6,641.1h2.1l-.4,2.8h0c1-1,2-1.8,3.2-2.4,1.2-.6,2.5-.8,3.9-.8s3.4.5,4.3,1.6c.9,1.1,1.2,2.9.7,5.4l-2.2,12.6h-2.3l2.2-12.6c.3-1.8.1-3.1-.6-3.8-.7-.8-1.8-1.2-3.3-1.2s-2.5.3-3.6,1c-1.1.7-2,1.5-2.8,2.6l-2.5,14h-2.3l3.4-19.2Z"/>
  </g>
  <path class="st0" d="M839.3,169.7c-15.1-14.5-32.4-25.8-51.6-34.1-19.3-8.3-39.6-12.4-60.9-12.4H234.3c-22,0-42.7,4.1-62,12.4-19.3,8.3-36.1,19.6-50.6,34.1-14.5,14.5-25.8,31.3-34.1,50.6-8.3,19.3-12.4,39.6-12.4,60.9v95.5c0,34.1-.2,68.5-.5,103.3-.4,34.8-.5,69.2-.5,103.3v95.5c0,20.7,4,40.6,11.9,59.9,7.9,19.3,19.4,36.5,34.6,51.6,15.1,15.1,32.3,26.7,51.6,34.6,19.3,7.9,39.2,11.9,59.9,11.9h494.6c44,0,81.6-15.5,112.5-46.5,15.1-14.5,26.7-31.3,34.6-50.6,7.9-19.3,11.9-39.6,11.9-60.9v-396.5c0-44-15.5-81.6-46.5-112.5Z"/>
  <text class="st8" transform="translate(211.2 615.6)"><tspan x="0" y="0">1</tspan></text>
  <text class="st8" transform="translate(143.6 411.4)"><tspan x="0" y="0">2</tspan></text>
  <text class="st8" transform="translate(393.8 256.2)"><tspan x="0" y="0">3</tspan></text>
  <text class="st8" transform="translate(659.9 411.4)"><tspan x="0" y="0">4</tspan></text>
  <text class="st8" transform="translate(579.9 615.6)"><tspan x="0" y="0">5</tspan></text>
</svg>