<?xml version="1.0" encoding="UTF-8"?>
<svg xmlns="http://www.w3.org/2000/svg" version="1.1" viewBox="0 0 1920 1080">
  <!-- Generator: Adobe Illustrator 29.3.1, SVG Export Plug-In . SVG Version: 2.1.0 Build 151)  -->
  <defs>
    <style>
      .st0 {
        stroke-width: 2px;
      }

      .st0, .st1, .st2 {
        fill: none;
        stroke: #212223;
        stroke-miterlimit: 10;
      }

      .st3 {
        fill: #001436;
      }

      .st3, .st4 {
        font-size: 42px;
      }

      .st3, .st4, .st5 {
        letter-spacing: 0em;
      }

      .st3, .st4, .st5, .st6 {
        font-family: Roboto-Regular, Roboto;
      }

      .st4, .st7, .st6 {
        fill: #0019aa;
      }

      .st8 {
        fill: #212223;
      }

      .st9 {
        fill: #a5a5a5;
      }

      .st1 {
        stroke-width: 2.9px;
      }

      .st2 {
        stroke-width: 2.7px;
      }

      .st10 {
        fill: #d4d4d4;
      }

      .st11 {
        fill: #fff;
      }

      .st5 {
        font-size: 28px;
      }

      .st12 {
        fill: #132ea3;
      }

      .st6 {
        font-size: 10px;
        letter-spacing: 0em;
      }
    </style>
  </defs>
  <g id="Capa_4">
    <rect class="st10" width="1920" height="1080"/>
    <g>
      <path class="st7" d="M358,260.5h1.3v7.1h-1.3v-7.1Z"/>
      <path class="st7" d="M361,262.5h1.2v.6h0c.2-.2.4-.4.6-.5s.5-.2.8-.2.7,0,.9.2.5.4.6.7h0c.2-.3.4-.5.7-.7.3-.1.6-.2.9-.2.5,0,.9.2,1.3.5.3.3.5.8.5,1.6v3.2h-1.3v-3.3c0-.3,0-.6-.2-.7s-.4-.2-.6-.2c-.2,0-.4,0-.6.2s-.3.3-.4.5v3.5h-1.3v-3.3c0-.3,0-.6-.2-.8-.1-.2-.4-.2-.6-.2s-.4,0-.6.2-.3.3-.4.5v3.5h-1.3v-5.1Z"/>
      <path class="st7" d="M370.5,264.8c.4-.3,1-.4,1.6-.4h1.1v-.3c0-.3,0-.5-.2-.6s-.4-.2-.7-.2-.6,0-.7.2-.2.3-.2.5h0c0,0-1.3,0-1.3,0h0c0-.5.2-.9.6-1.2.4-.3.9-.5,1.6-.5s1.2.1,1.6.4.6.7.6,1.3v2.4c0,.2,0,.4,0,.6,0,.2,0,.3.1.5h0c0,0-1.2,0-1.2,0,0,0,0-.2-.1-.3,0-.1,0-.2,0-.4-.1.2-.3.4-.6.5-.3.2-.6.2-1,.2s-.9-.1-1.3-.4-.5-.7-.5-1.2.2-1,.7-1.3ZM371.3,266.6c.1.1.4.2.7.2s.6-.1.8-.3c.2-.2.3-.5.3-.7v-.6h-.9c-.4,0-.7,0-.9.2s-.3.3-.3.6,0,.4.2.6Z"/>
      <path class="st7" d="M376.6,268.2c.1.1.3.3.6.4s.6.2.9.2.7-.1.9-.3.3-.6.3-1v-.3c-.1.2-.3.4-.6.5-.2.1-.5.2-.9.2-.7,0-1.2-.2-1.6-.7-.4-.5-.6-1.1-.6-1.9v-.2c0-.8.2-1.4.6-1.9s.9-.7,1.6-.7.6,0,.9.2.4.3.6.5h0v-.6h1.2v4.9c0,.8-.2,1.4-.7,1.8-.5.4-1.1.6-1.8.6s-.8,0-1.2-.2c-.4-.1-.7-.3-.9-.5l.6-.8ZM377.3,266.3c.2.3.5.4.9.4s.5,0,.7-.2.3-.3.4-.5v-1.8c0-.2-.2-.4-.4-.6-.2-.2-.4-.2-.7-.2-.4,0-.7.1-.9.4s-.3.7-.3,1.1v.3c0,.5,0,.8.3,1.1Z"/>
      <path class="st7" d="M381.9,264.9c0-.8.2-1.4.7-1.9s1.1-.7,1.9-.7,1.4.2,1.9.7.7,1.1.7,1.9v.2c0,.8-.2,1.4-.7,1.9s-1.1.7-1.9.7-1.4-.2-1.9-.7-.7-1.1-.7-1.9v-.2ZM383.2,265.2c0,.5.1.9.3,1.2s.5.4.9.4.7-.1.9-.4.3-.7.3-1.2v-.3c0-.5-.1-.9-.3-1.2s-.5-.4-.9-.4-.7.1-.9.4c-.2.3-.3.7-.3,1.2v.3Z"/>
      <path class="st7" d="M387.7,262.5h3.1v.9h-3.1v-.9ZM388.5,263h0v-1.7h1.3v4.9c0,.2,0,.4.1.5s.2.1.4.1.2,0,.2,0,.2,0,.2,0v.9c0,0-.2,0-.3.1s-.3,0-.5,0c-.4,0-.8-.1-1.1-.4-.3-.3-.4-.7-.4-1.2v-3.2Z"/>
      <path class="st7" d="M392,260.5c.1-.1.3-.2.6-.2s.4,0,.6.2c.1.1.2.3.2.5s0,.4-.2.5c-.1.1-.3.2-.6.2s-.4,0-.6-.2-.2-.3-.2-.5,0-.4.2-.5ZM391.9,262.5h1.3v5.1h-1.3v-5.1Z"/>
      <path class="st7" d="M394.8,262.5h1.2v.6h0c.1-.2.3-.4.6-.5.3-.1.6-.2.9-.2.7,0,1.2.2,1.6.7s.6,1.1.6,1.9v.2c0,.8-.2,1.4-.6,1.9-.4.5-.9.7-1.6.7s-.6,0-.9-.2-.5-.3-.6-.5v2.6h-1.3v-7.2ZM396.5,266.5c.2.2.4.2.7.2.4,0,.7-.1.9-.4.2-.3.3-.7.3-1.1v-.3c0-.5,0-.9-.3-1.1-.2-.3-.5-.4-.9-.4s-.5,0-.7.2-.3.3-.4.5v1.9c0,.2.2.4.4.5Z"/>
      <path class="st7" d="M400.7,264.9c0-.8.2-1.4.7-1.9.5-.5,1.1-.7,1.9-.7s1.4.2,1.9.7c.5.5.7,1.1.7,1.9v.2c0,.8-.2,1.4-.7,1.9-.5.5-1.1.7-1.9.7s-1.4-.2-1.9-.7c-.5-.5-.7-1.1-.7-1.9v-.2ZM402,265.2c0,.5.1.9.3,1.2s.5.4.9.4.7-.1.9-.4.3-.7.3-1.2v-.3c0-.5-.1-.9-.3-1.2-.2-.3-.5-.4-.9-.4s-.7.1-.9.4-.3.7-.3,1.2v.3Z"/>
      <path class="st7" d="M409.4,264.9c0-.8.2-1.4.7-1.9s1.1-.7,1.8-.7,1.3.2,1.7.7.6,1.1.6,1.9v.5h-4v-.8h2.7c0-.4,0-.7-.3-.9s-.4-.3-.8-.3-.7.2-.9.5-.3.7-.3,1.2v.3c0,.5.1.9.3,1.2s.5.5,1,.5.5,0,.8-.2.4-.3.5-.5l.9.6c-.2.3-.4.5-.8.7s-.8.3-1.3.3c-.8,0-1.5-.2-1.9-.7s-.7-1.1-.7-1.9v-.2Z"/>
      <path class="st7" d="M415.5,262.5h1.2v.6h0c.1-.2.4-.4.6-.5s.6-.2.9-.2c.5,0,1,.1,1.3.4s.5.8.5,1.6v3.3h-1.3v-3.3c0-.4,0-.6-.2-.7s-.4-.2-.7-.2-.4,0-.6.2-.3.3-.4.5v3.5h-1.3v-5.1Z"/>
      <path class="st7" d="M423.9,264.9c0-.8.2-1.4.6-1.9s.9-.7,1.6-.7.6,0,.9.2.4.3.6.5v-2.9h1.3v7.5h-1.2v-.6h0c-.1.2-.3.4-.6.5-.3.1-.5.2-.9.2-.7,0-1.2-.2-1.6-.7s-.6-1.1-.6-1.9v-.2ZM425.5,266.3c.2.3.5.4.9.4s.5,0,.7-.2.3-.3.4-.5v-1.9c0-.2-.2-.4-.4-.5s-.4-.2-.7-.2-.7.1-.9.4-.3.7-.3,1.1v.3c0,.5,0,.8.3,1.1Z"/>
      <path class="st7" d="M430.4,260.5c.1-.1.3-.2.6-.2s.4,0,.6.2c.1.1.2.3.2.5s0,.4-.2.5c-.1.1-.3.2-.6.2s-.4,0-.6-.2-.2-.3-.2-.5,0-.4.2-.5ZM430.3,262.5h1.3v5.1h-1.3v-5.1Z"/>
      <path class="st7" d="M434.1,266h0c0,.3,0,.5.3.6s.4.2.7.2.5,0,.7-.2.2-.3.2-.5,0-.3-.2-.4-.5-.2-1.1-.3c-.6-.1-1-.3-1.3-.6s-.4-.6-.4-1,.2-.8.6-1.1.9-.4,1.5-.4,1.2.1,1.5.4.6.7.6,1.2h0s-1.2,0-1.2,0h0c0-.3,0-.4-.2-.6-.1-.1-.4-.2-.7-.2s-.5,0-.6.2-.2.2-.2.4,0,.3.2.4.5.2,1.1.3c.6.1,1,.3,1.3.6s.4.6.4,1-.2.9-.6,1.2c-.4.3-.9.4-1.7.4s-1.3-.1-1.7-.4-.6-.7-.6-1.2h0s1.3,0,1.3,0Z"/>
      <path class="st7" d="M438.1,262.5h3.1v.9h-3.1v-.9ZM438.9,263h0v-1.7h1.3v4.9c0,.2,0,.4.1.5s.2.1.4.1.2,0,.2,0c0,0,.2,0,.2,0v.9c0,0-.2,0-.3.1-.1,0-.3,0-.5,0-.4,0-.8-.1-1.1-.4s-.4-.7-.4-1.2v-3.2Z"/>
      <path class="st7" d="M442.4,260.5c.1-.1.3-.2.6-.2s.4,0,.6.2c.1.1.2.3.2.5s0,.4-.2.5c-.1.1-.3.2-.6.2s-.4,0-.6-.2-.2-.3-.2-.5,0-.4.2-.5ZM442.3,262.5h1.3v5.1h-1.3v-5.1Z"/>
      <path class="st7" d="M445.1,262.5h1.2v.6h0c.1-.2.4-.4.6-.5s.6-.2.9-.2c.5,0,1,.1,1.3.4s.5.8.5,1.6v3.3h-1.3v-3.3c0-.4,0-.6-.2-.7s-.4-.2-.7-.2-.4,0-.6.2-.3.3-.4.5v3.5h-1.3v-5.1Z"/>
      <path class="st7" d="M450.6,262.5h3.1v.9h-3.1v-.9ZM451.4,263h0v-1.7h1.3v4.9c0,.2,0,.4.1.5s.2.1.4.1.2,0,.2,0,.2,0,.2,0v.9c0,0-.2,0-.3.1s-.3,0-.5,0c-.4,0-.8-.1-1.1-.4s-.4-.7-.4-1.2v-3.2Z"/>
      <path class="st7" d="M454.5,264.9c0-.8.2-1.4.7-1.9s1.1-.7,1.9-.7,1.4.2,1.9.7.7,1.1.7,1.9v.2c0,.8-.2,1.4-.7,1.9s-1.1.7-1.9.7-1.4-.2-1.9-.7-.7-1.1-.7-1.9v-.2ZM455.8,265.2c0,.5.1.9.3,1.2.2.3.5.4.9.4s.7-.1.9-.4c.2-.3.3-.7.3-1.2v-.3c0-.5-.1-.9-.3-1.2s-.5-.4-.9-.4-.7.1-.9.4-.3.7-.3,1.2v.3Z"/>
      <path class="st7" d="M461.8,266h0c0,.3,0,.5.3.6s.4.2.7.2.5,0,.7-.2.2-.3.2-.5,0-.3-.2-.4-.5-.2-1.1-.3c-.6-.1-1-.3-1.3-.6s-.4-.6-.4-1,.2-.8.6-1.1.9-.4,1.5-.4,1.2.1,1.5.4.6.7.6,1.2h0s-1.2,0-1.2,0h0c0-.3,0-.4-.2-.6-.1-.1-.4-.2-.7-.2s-.5,0-.6.2-.2.2-.2.4,0,.3.2.4.5.2,1.1.3c.6.1,1,.3,1.3.6s.4.6.4,1-.2.9-.6,1.2c-.4.3-.9.4-1.7.4s-1.3-.1-1.7-.4-.6-.7-.6-1.2h0s1.3,0,1.3,0Z"/>
      <path class="st7" d="M357.6,278.9c0-.8.2-1.4.7-1.9s1.1-.7,1.8-.7,1.3.2,1.7.6.6.8.6,1.3h0c0,0-1.2,0-1.2,0h0c0-.3,0-.5-.3-.7-.2-.2-.4-.3-.8-.3s-.7.2-.9.5c-.2.3-.3.7-.3,1.2v.3c0,.5.1.9.3,1.2.2.3.5.5.9.5s.6,0,.8-.3c.2-.2.2-.4.2-.6h0s1.2,0,1.2,0h0c0,.5-.2,1-.6,1.4-.4.4-.9.6-1.7.6s-1.4-.2-1.8-.7-.7-1.1-.7-1.9v-.2Z"/>
      <path class="st7" d="M363.3,278.9c0-.8.2-1.4.7-1.9s1.1-.7,1.9-.7,1.4.2,1.9.7.7,1.1.7,1.9v.2c0,.8-.2,1.4-.7,1.9s-1.1.7-1.9.7-1.4-.2-1.9-.7-.7-1.1-.7-1.9v-.2ZM364.6,279.2c0,.5.1.9.3,1.2.2.3.5.4.9.4s.7-.1.9-.4c.2-.3.3-.7.3-1.2v-.3c0-.5-.1-.9-.3-1.2s-.5-.4-.9-.4-.7.1-.9.4-.3.7-.3,1.2v.3Z"/>
      <path class="st7" d="M369.8,274.1h1.3v7.5h-1.3v-7.5Z"/>
      <path class="st7" d="M372.4,278.9c0-.8.2-1.4.7-1.9s1.1-.7,1.9-.7,1.4.2,1.9.7.7,1.1.7,1.9v.2c0,.8-.2,1.4-.7,1.9s-1.1.7-1.9.7-1.4-.2-1.9-.7-.7-1.1-.7-1.9v-.2ZM373.7,279.2c0,.5.1.9.3,1.2.2.3.5.4.9.4s.7-.1.9-.4c.2-.3.3-.7.3-1.2v-.3c0-.5-.1-.9-.3-1.2s-.5-.4-.9-.4-.7.1-.9.4c-.2.3-.3.7-.3,1.2v.3Z"/>
      <path class="st7" d="M378.8,276.5h1.2v.6h0c.1-.2.3-.4.5-.5.2-.1.4-.2.7-.2s.1,0,.2,0c0,0,.1,0,.2,0v1.1c0,0-.1,0-.2,0s-.1,0-.2,0c-.2,0-.5,0-.6.2s-.3.3-.4.5v3.4h-1.3v-5.1Z"/>
      <path class="st7" d="M382.3,278.9c0-.8.2-1.4.7-1.9s1.1-.7,1.8-.7,1.3.2,1.7.7.6,1.1.6,1.9v.5h-4v-.8h2.7c0-.4,0-.7-.3-.9s-.4-.3-.8-.3-.7.2-.9.5-.3.7-.3,1.2v.3c0,.5.1.9.3,1.2s.5.5,1,.5.5,0,.8-.2.4-.3.5-.5l.9.6c-.2.3-.4.5-.8.7s-.8.3-1.3.3c-.8,0-1.5-.2-1.9-.7s-.7-1.1-.7-1.9v-.2Z"/>
      <path class="st7" d="M389.3,280h0c0,.3,0,.5.3.6s.4.2.7.2.5,0,.7-.2.2-.3.2-.5,0-.3-.2-.4-.5-.2-1.1-.3c-.6-.1-1-.3-1.3-.6s-.4-.6-.4-1,.2-.8.6-1.1.9-.4,1.5-.4,1.2.1,1.5.4.6.7.6,1.2h0s-1.2,0-1.2,0h0c0-.3,0-.4-.2-.6s-.4-.2-.7-.2-.5,0-.6.2-.2.2-.2.4,0,.3.2.4c.2,0,.5.2,1.1.3.6.1,1,.3,1.3.6s.4.6.4,1-.2.9-.6,1.2-.9.4-1.7.4-1.3-.1-1.7-.4-.6-.7-.6-1.2h0s1.3,0,1.3,0Z"/>
    </g>
  </g>
  <g id="Capa_1">
    <text class="st6" transform="translate(67.3 984.9)"><tspan x="0" y="0">2025</tspan><tspan x="0" y="14">Veloz</tspan><tspan x="0" y="28">Manual de Marca</tspan></text>
    <line class="st0" x1="67.3" y1="178.2" x2="1852.7" y2="178.2"/>
    <g>
      <line class="st1" x1="103.7" y1="57.1" x2="103.7" y2="129.8"/>
      <line class="st1" x1="67.3" y1="93.5" x2="140.1" y2="93.5"/>
    </g>
    <text class="st3" transform="translate(421.8 97.1)"><tspan x="0" y="0">Versiones</tspan></text>
    <text class="st4" transform="translate(348.2 97.1)"><tspan x="0" y="0">2.3</tspan></text>
    <text class="st5" transform="translate(67.3 284.1)"><tspan class="st9"><tspan x="0" y="0">Colores</tspan></tspan><tspan class="st12"><tspan x="0" y="59.9">Imagotipo</tspan></tspan><tspan class="st9"><tspan x="0" y="119.8">Tipografía</tspan></tspan><tspan class="st9"><tspan x="0" y="179.7">Aplicaciones</tspan></tspan></text>
    <path class="st7" d="M932.3,673c-7.7-7.3-16.4-13.1-26.2-17.3-9.8-4.2-20.1-6.3-30.9-6.3h-250.1c-11.2,0-21.7,2.1-31.5,6.3-9.8,4.2-18.4,10-25.7,17.3-7.3,7.3-13.1,15.9-17.3,25.7-4.2,9.8-6.3,20.1-6.3,30.9v48.5c0,17.3,0,34.8-.3,52.4-.2,17.7-.3,35.1-.3,52.4v48.5c0,10.5,2,20.6,6,30.4,4,9.8,9.9,18.5,17.6,26.2,7.7,7.7,16.4,13.6,26.2,17.6,9.8,4,19.9,6,30.4,6h251.2c22.4,0,41.4-7.9,57.2-23.6,7.7-7.3,13.5-15.9,17.6-25.7,4-9.8,6-20.1,6-30.9v-201.4c0-22.4-7.9-41.4-23.6-57.2Z"/>
    <path class="st2" d="M1380,673c-7.7-7.3-16.4-13.1-26.2-17.3-9.8-4.2-20.1-6.3-30.9-6.3h-250.1c-11.2,0-21.7,2.1-31.5,6.3-9.8,4.2-18.4,10-25.7,17.3-7.3,7.3-13.1,15.9-17.3,25.7-4.2,9.8-6.3,20.1-6.3,30.9v48.5c0,17.3,0,34.8-.3,52.4-.2,17.7-.3,35.1-.3,52.4v48.5c0,10.5,2,20.6,6,30.4,4,9.8,9.9,18.5,17.6,26.2,7.7,7.7,16.4,13.6,26.2,17.6,9.8,4,19.9,6,30.4,6h251.2c22.4,0,41.4-7.9,57.2-23.6,7.7-7.3,13.5-15.9,17.6-25.7,4-9.8,6-20.1,6-30.9v-201.4c0-22.4-7.9-41.4-23.6-57.2Z"/>
    <path d="M1827.7,673c-7.7-7.3-16.4-13.1-26.2-17.3-9.8-4.2-20.1-6.3-30.9-6.3h-250.1c-11.2,0-21.7,2.1-31.5,6.3-9.8,4.2-18.4,10-25.7,17.3-7.3,7.3-13.1,15.9-17.3,25.7-4.2,9.8-6.3,20.1-6.3,30.9v48.5c0,17.3,0,34.8-.3,52.4-.2,17.7-.3,35.1-.3,52.4v48.5c0,10.5,2,20.6,6,30.4,4,9.8,9.9,18.5,17.6,26.2,7.7,7.7,16.4,13.6,26.2,17.6,9.8,4,19.9,6,30.4,6h251.2c22.4,0,41.4-7.9,57.2-23.6,7.7-7.3,13.5-15.9,17.6-25.7,4-9.8,6-20.1,6-30.9v-201.4c0-22.4-7.9-41.4-23.6-57.2Z"/>
    <path class="st8" d="M932.3,270c-7.7-7.3-16.4-13.1-26.2-17.3-9.8-4.2-20.1-6.3-30.9-6.3h-250.1c-11.2,0-21.7,2.1-31.5,6.3-9.8,4.2-18.4,10-25.7,17.3-7.3,7.3-13.1,15.9-17.3,25.7-4.2,9.8-6.3,20.1-6.3,30.9v48.5c0,17.3,0,34.8-.3,52.4-.2,17.7-.3,35.1-.3,52.4v48.5c0,10.5,2,20.6,6,30.4,4,9.8,9.9,18.5,17.6,26.2,7.7,7.7,16.4,13.6,26.2,17.6,9.8,4,19.9,6,30.4,6h251.2c22.4,0,41.4-7.9,57.2-23.6,7.7-7.3,13.5-15.9,17.6-25.7,4-9.8,6-20.1,6-30.9v-201.4c0-22.4-7.9-41.4-23.6-57.2Z"/>
    <path class="st2" d="M1380,270c-7.7-7.3-16.4-13.1-26.2-17.3-9.8-4.2-20.1-6.3-30.9-6.3h-250.1c-11.2,0-21.7,2.1-31.5,6.3-9.8,4.2-18.4,10-25.7,17.3-7.3,7.3-13.1,15.9-17.3,25.7-4.2,9.8-6.3,20.1-6.3,30.9v48.5c0,17.3,0,34.8-.3,52.4-.2,17.7-.3,35.1-.3,52.4v48.5c0,10.5,2,20.6,6,30.4,4,9.8,9.9,18.5,17.6,26.2,7.7,7.7,16.4,13.6,26.2,17.6,9.8,4,19.9,6,30.4,6h251.2c22.4,0,41.4-7.9,57.2-23.6,7.7-7.3,13.5-15.9,17.6-25.7,4-9.8,6-20.1,6-30.9v-201.4c0-22.4-7.9-41.4-23.6-57.2Z"/>
    <path class="st11" d="M1827.7,270c-7.7-7.3-16.4-13.1-26.2-17.3-9.8-4.2-20.1-6.3-30.9-6.3h-250.1c-11.2,0-21.7,2.1-31.5,6.3-9.8,4.2-18.4,10-25.7,17.3-7.3,7.3-13.1,15.9-17.3,25.7-4.2,9.8-6.3,20.1-6.3,30.9v48.5c0,17.3,0,34.8-.3,52.4-.2,17.7-.3,35.1-.3,52.4v48.5c0,10.5,2,20.6,6,30.4,4,9.8,9.9,18.5,17.6,26.2,7.7,7.7,16.4,13.6,26.2,17.6,9.8,4,19.9,6,30.4,6h251.2c22.4,0,41.4-7.9,57.2-23.6,7.7-7.3,13.5-15.9,17.6-25.7,4-9.8,6-20.1,6-30.9v-201.4c0-22.4-7.9-41.4-23.6-57.2Z"/>
    <g>
      <g>
        <path class="st10" d="M631.5,432.7h30.9l-10.7,52.4h-40l-10.7-52.4h29.1v34.9h1.4v-34.9Z"/>
        <path class="st10" d="M664.7,432.7h57v17.4h-28.1v1.4h23.2v14.7h-23.2v1.4h28.1v17.4h-57.1v-52.3Z"/>
        <path class="st10" d="M753.8,467.5h28.1v17.4h-57.1v-52.4h29v34.9Z"/>
        <path class="st10" d="M832.8,432.6c1.6,0,3.1.3,4.5.9s2.7,1.4,3.8,2.5c2.3,2.3,3.4,5,3.4,8.3v29.1c0,1.6-.3,3.1-.9,4.5-.6,1.4-1.4,2.7-2.5,3.7-2.3,2.3-5,3.4-8.3,3.4h-36.3c-1.5,0-3-.3-4.4-.9-1.4-.6-2.7-1.4-3.8-2.5-1.1-1.1-2-2.4-2.5-3.8-.6-1.4-.9-2.9-.9-4.4v-7c0-2.5,0-5,0-7.6,0-2.5,0-5.1,0-7.6v-7c0-1.6.3-3.1.9-4.5.6-1.4,1.4-2.7,2.5-3.7,1.1-1.1,2.3-1.9,3.7-2.5s2.9-.9,4.5-.9h36.1ZM815.5,450.1h-1.5v17.4h1.5v-17.4Z"/>
        <path class="st10" d="M883.9,467.7l-3.1,3.7,1.1,1,4-4.8h12.7v17.4h-51.1v-17.4l16.7-21.4-1.2-1-3.8,4.9h-11.7v-17.4h51.1v17.4l-14.7,17.6Z"/>
      </g>
      <path class="st10" d="M904.2,438.6c-.5,0-1-.1-1.5-.4-.4-.3-.8-.6-1.1-1.1-.3-.5-.4-1-.4-1.5s.1-1.1.4-1.5c.3-.4.6-.8,1.1-1.1.4-.3.9-.4,1.5-.4s1.1.1,1.5.4c.4.3.8.6,1.1,1.1.3.5.4,1,.4,1.5s-.1,1.1-.4,1.5c-.3.5-.6.8-1.1,1.1-.4.3-.9.4-1.5.4ZM904.2,438c.4,0,.8,0,1.2-.3s.6-.5.8-.8.3-.8.3-1.2,0-.9-.3-1.2c-.2-.4-.5-.6-.8-.8s-.7-.3-1.2-.3-.8.1-1.2.3c-.3.2-.6.5-.8.8-.2.4-.3.8-.3,1.2s0,.9.3,1.2c.2.4.5.6.8.8.3.2.7.3,1.2.3ZM903.1,437v-2.7h1.2c.3,0,.5,0,.7.2s.2.4.2.6,0,.3-.1.4c0,.1-.2.2-.4.3l.6,1.1h-.8l-.5-1h-.4v1h-.7ZM904.2,434.8h-.4v.7h.4c.3,0,.4-.1.4-.4s0-.2,0-.3c0,0-.2,0-.3,0Z"/>
      <g>
        <path class="st10" d="M845.2,397.3c-4.1-2.4-11.7-5.3-16.3-5.7-6.9-.5-13.8-.5-20.8-.9-6-.3-9.2.8-13.3-4.8-2.1-2.8-2.3-7-3.3-10.4.4,0,.4,0,.7.2.7.6,1.1,3.9,1.4,5,0,.3.2,1.5.6,1.3.2-.1,1.9-3.7,2.4-4.5,4.1-5.9,12-10.9,18.9-11.3,5.4-.3,13.6,2.3,18.5-.2.2-.1.5-.3.7-.4.3-.2.4-.6.3-1,0-.1,0-.3-.2-.5-.2-.4-.4-.7-.6-.9-.1-.1-.3-.2-.4-.2-1.9-.6-3.9-1.2-5.9-1.9-1.9-.6-3.7-1.3-5.5-2-.4-.2-.8-.4-1.1-.7-2.4-2.5-6.5-3.5-9.7-3.8-.9-.1-2.1.2-3,0-.6-.1-1.3-.8-2-1.1-2.5-.9-6.2-.3-8.8-.2-.2,1.5,1.7,1.6,2.6,2.1,1.2.5,2.7,1.5,3.9,1.9,1,.3,2.6.2,2.5.7,0,.6-2,.3-2.4.2-1.2-.2-3.5-1.8-4.3-1.8-2.8,0-7.9,3-10.7,4.1-6.1,2.5-12.3,3.6-18.8,3.2-5.7-.3-10.2-2.9-15.6-4.2-16.5-4.1-30.7-1.7-40.1,1.5-10.7,3.6-13.5,6.6-18.3,8.9-4,1.9-20.5,6.3-31.7-1.8-3.1-2.3-5-5.2-5.2-5.5-3.3-5.1-3.4-10.3-3.3-12.7-.2.6-.3,1.5-.4,2.6-.2,2.2-.3,6.4,1.8,10.7,3.6,7.1,10.7,9.5,14,10.6,0,0,8.5,2.9,22,0,1.4-.3,2.7-.6,2.7-.6,1.1-.3,2.4-.7,4.1-1.4,1-.4,2.2-1,3.6-1.9,0,.7-.5,1.1-1.9,2-1.5.9-3.2,1.6-4.3,1.9-.1.2-.4.5-.7.9-1,1.3-1,1.4-1.3,1.8-1.5,2.3-2.8,4.3-3.5,5-.6.8-1.8,1.9-3.2,3-3,2.1-6.5,3.1-10.2,3.4-1.4,0-2.8,0-4.2,0-.8,0-2.5-.3-3.7-.6-.3,0-.7,0-1,.1-1.8.9-4.6,4.8-5.7,6-1,1.1-2.1,2.4-3.3,3.6-1.1,1.2-1.6,1.6-2.7,2.6-1.4,1.2-3.5,2.1-4.7,3.3-.3.3-3,3.3-2.1,3.6.5.2,2.3,0,3,0,1.9-.2,6-5.3,7.6-6.8,3.3-3.3,7.5-7.5,12.2-7.9,3-.2,5.9,1,8.9,1.3,3.3.4,8.3.7,11.5.4,9.4-.6,17.1-11.5,24.4-17.1,7.1-5.3,18.7-2.9,25.9,4.1,4.7,4.6,9.1,9.3,14.9,12.3,5.7,2.9,11.4,2.9,17.5,2.4,2.6-.2,5.2-.9,7.9-1.1.9,0,1.4,1.7,2.2,2.2.6.4,5.3.2,6.5.2,2.3,0,4.6-.1,6.9-.2,4.4-.2,8.7-.4,13.1-.6h0c2.6-.1,5.2-.2,7.8-.3,5.4-.2,10.4-.8,15.5,1.5,2.6,1.2,5.3,4,8.1,4.1.5,0,1.2-.1,1.7-.3.1,0,.2-.3.2-.4-.3-1.3-1.5-2.5-2.5-3.1ZM818,358.6c.5-.3,2.5-.9,2.5.6,0,0,0,.1,0,.3-.1.3-2,.3-2.4.2,0,0-.2-.2-.3-.4,0-.3.1-.5.2-.6ZM807,356.3c-.2-.4-.1-.5-.3-.7-.2-.4-.7-.3-1.5-.5-.6-.2-1.4-.6-1.4-.7,0-.2,1.5-.4,2.7.3.2.1,1.3.7,1.2,1.5,0,.3-.2.7-.4.7-.2,0-.3-.3-.4-.5Z"/>
        <path class="st10" d="M697.2,374c-.9,1-2.1,2.9-2.9,4.1-.7,1.1-1.5,2.1-2.1,2.8-3.1,3.6-7.4,5.5-12.9,5.9-.6,0-1.2,0-1.9,0s-1.4,0-2.1,0c-.2,0-.4,0-.6,0-.4,0-.8-.1-1.1-.2-.8-.2-1.6-.4-2.4-.3-1.3,0-3.6,2.3-6,5.2-.4.5-.8,1-1,1.3-.4.4-.8.9-1.2,1.4-.4.4-.7.8-1.1,1.3-.9,1-1.9,1.8-3,2.4s-.6.3-1,.5c-1.3.6-2.7.9-4.1.7-1.5-.2-.5-1.3,0-1.8,1.7-2.2,4.9-3.6,7.2-5.5,3.2-2.7,6.2-6.5,8.9-9s.3-.3.5-.4c.7-.4.9,0,2.1.3,7.1,2.5,12.7,2,18.5-3.3.8-.8,3.3-3.9,4.1-4.5.7-.2,1.5-.3,2.3-.5Z"/>
        <path class="st10" d="M842.9,410.1c0,.3-1.1.5-1.3.5-4,0-6.8-3.8-10.2-5.6-1.1-.6-2.3-1-3.6-1.4-7.8-2.3-15.8-3.5-23.7-5.6-.4-.1-1.1-.3-2-.5,2.5-.1,5.1-.2,7.6-.3,1.6,0,3.2-.2,4.8-.2,2.8,0,5.2.3,8.9,1.5,5,1.6,15.5,6.1,18.7,10.4.3.4.8,1.1.8,1.3Z"/>
      </g>
    </g>
    <g>
      <g>
        <path class="st10" d="M631.5,848.8h30.9l-10.7,52.4h-40l-10.7-52.4h29.1v34.9h1.4v-34.9Z"/>
        <path class="st10" d="M664.7,848.8h57v17.4h-28.1v1.4h23.2v14.7h-23.2v1.4h28.1v17.4h-57.1v-52.3Z"/>
        <path class="st10" d="M753.8,883.6h28.1v17.4h-57.1v-52.4h29v34.9Z"/>
        <path class="st10" d="M832.8,848.7c1.6,0,3.1.3,4.5.9s2.7,1.4,3.8,2.5c2.3,2.3,3.4,5,3.4,8.3v29.1c0,1.6-.3,3.1-.9,4.5-.6,1.4-1.4,2.7-2.5,3.7-2.3,2.3-5,3.4-8.3,3.4h-36.3c-1.5,0-3-.3-4.4-.9-1.4-.6-2.7-1.4-3.8-2.5-1.1-1.1-2-2.4-2.5-3.8-.6-1.4-.9-2.9-.9-4.4v-7c0-2.5,0-5,0-7.6,0-2.5,0-5.1,0-7.6v-7c0-1.6.3-3.1.9-4.5.6-1.4,1.4-2.7,2.5-3.7,1.1-1.1,2.3-1.9,3.7-2.5s2.9-.9,4.5-.9h36.1ZM815.5,866.2h-1.5v17.4h1.5v-17.4Z"/>
        <path class="st10" d="M883.9,883.8l-3.1,3.7,1.1,1,4-4.8h12.7v17.4h-51.1v-17.4l16.7-21.4-1.2-1-3.8,4.9h-11.7v-17.4h51.1v17.4l-14.7,17.6Z"/>
      </g>
      <path class="st10" d="M904.2,854.8c-.5,0-1-.1-1.5-.4-.4-.3-.8-.6-1.1-1.1-.3-.5-.4-1-.4-1.5s.1-1.1.4-1.5c.3-.4.6-.8,1.1-1.1.4-.3.9-.4,1.5-.4s1.1.1,1.5.4c.4.3.8.6,1.1,1.1.3.5.4,1,.4,1.5s-.1,1.1-.4,1.5c-.3.5-.6.8-1.1,1.1-.4.3-.9.4-1.5.4ZM904.2,854.1c.4,0,.8,0,1.2-.3s.6-.5.8-.8.3-.8.3-1.2,0-.9-.3-1.2c-.2-.4-.5-.6-.8-.8s-.7-.3-1.2-.3-.8.1-1.2.3c-.3.2-.6.5-.8.8-.2.4-.3.8-.3,1.2s0,.9.3,1.2c.2.4.5.6.8.8.3.2.7.3,1.2.3ZM903.1,853.1v-2.7h1.2c.3,0,.5,0,.7.2s.2.4.2.6,0,.3-.1.4c0,.1-.2.2-.4.3l.6,1.1h-.8l-.5-1h-.4v1h-.7ZM904.2,850.9h-.4v.7h.4c.3,0,.4-.1.4-.4s0-.2,0-.3c0,0-.2,0-.3,0Z"/>
      <g>
        <path class="st10" d="M845.2,813.4c-4.1-2.4-11.7-5.3-16.3-5.7-6.9-.5-13.8-.5-20.8-.9-6-.3-9.2.8-13.3-4.8-2.1-2.8-2.3-7-3.3-10.4.4,0,.4,0,.7.2.7.6,1.1,3.9,1.4,5,0,.3.2,1.5.6,1.3.2-.1,1.9-3.7,2.4-4.5,4.1-5.9,12-10.9,18.9-11.3,5.4-.3,13.6,2.3,18.5-.2.2-.1.5-.3.7-.4.3-.2.4-.6.3-1,0-.1,0-.3-.2-.5-.2-.4-.4-.7-.6-.9-.1-.1-.3-.2-.4-.2-1.9-.6-3.9-1.2-5.9-1.9-1.9-.6-3.7-1.3-5.5-2-.4-.2-.8-.4-1.1-.7-2.4-2.5-6.5-3.5-9.7-3.8-.9-.1-2.1.2-3,0-.6-.1-1.3-.8-2-1.1-2.5-.9-6.2-.3-8.8-.2-.2,1.5,1.7,1.6,2.6,2.1,1.2.5,2.7,1.5,3.9,1.9,1,.3,2.6.2,2.5.7,0,.6-2,.3-2.4.2-1.2-.2-3.5-1.8-4.3-1.8-2.8,0-7.9,3-10.7,4.1-6.1,2.5-12.3,3.6-18.8,3.2-5.7-.3-10.2-2.9-15.6-4.2-16.5-4.1-30.7-1.7-40.1,1.5-10.7,3.6-13.5,6.6-18.3,8.9-4,1.9-20.5,6.3-31.7-1.8-3.1-2.3-5-5.2-5.2-5.5-3.3-5.1-3.4-10.3-3.3-12.7-.2.6-.3,1.5-.4,2.6-.2,2.2-.3,6.4,1.8,10.7,3.6,7.1,10.7,9.5,14,10.6,0,0,8.5,2.9,22,0,1.4-.3,2.7-.6,2.7-.6,1.1-.3,2.4-.7,4.1-1.4,1-.4,2.2-1,3.6-1.9,0,.7-.5,1.1-1.9,2-1.5.9-3.2,1.6-4.3,1.9-.1.2-.4.5-.7.9-1,1.3-1,1.4-1.3,1.8-1.5,2.3-2.8,4.3-3.5,5-.6.8-1.8,1.9-3.2,3-3,2.1-6.5,3.1-10.2,3.4-1.4,0-2.8,0-4.2,0-.8,0-2.5-.3-3.7-.6-.3,0-.7,0-1,.1-1.8.9-4.6,4.8-5.7,6-1,1.1-2.1,2.4-3.3,3.6-1.1,1.2-1.6,1.6-2.7,2.6-1.4,1.2-3.5,2.1-4.7,3.3-.3.3-3,3.3-2.1,3.6.5.2,2.3,0,3,0,1.9-.2,6-5.3,7.6-6.8,3.3-3.3,7.5-7.5,12.2-7.9,3-.2,5.9,1,8.9,1.3,3.3.4,8.3.7,11.5.4,9.4-.6,17.1-11.5,24.4-17.1,7.1-5.3,18.7-2.9,25.9,4.1,4.7,4.6,9.1,9.3,14.9,12.3,5.7,2.9,11.4,2.9,17.5,2.4,2.6-.2,5.2-.9,7.9-1.1.9,0,1.4,1.7,2.2,2.2.6.4,5.3.2,6.5.2,2.3,0,4.6-.1,6.9-.2,4.4-.2,8.7-.4,13.1-.6h0c2.6-.1,5.2-.2,7.8-.3,5.4-.2,10.4-.8,15.5,1.5,2.6,1.2,5.3,4,8.1,4.1.5,0,1.2-.1,1.7-.3.1,0,.2-.3.2-.4-.3-1.3-1.5-2.5-2.5-3.1ZM818,774.8c.5-.3,2.5-.9,2.5.6,0,0,0,.1,0,.3-.1.3-2,.3-2.4.2,0,0-.2-.2-.3-.4,0-.3.1-.5.2-.6ZM807,772.4c-.2-.4-.1-.5-.3-.7-.2-.4-.7-.3-1.5-.5-.6-.2-1.4-.6-1.4-.7,0-.2,1.5-.4,2.7.3.2.1,1.3.7,1.2,1.5,0,.3-.2.7-.4.7-.2,0-.3-.3-.4-.5Z"/>
        <path class="st10" d="M697.2,790.1c-.9,1-2.1,2.9-2.9,4.1-.7,1.1-1.5,2.1-2.1,2.8-3.1,3.6-7.4,5.5-12.9,5.9-.6,0-1.2,0-1.9,0s-1.4,0-2.1,0c-.2,0-.4,0-.6,0-.4,0-.8-.1-1.1-.2-.8-.2-1.6-.4-2.4-.3-1.3,0-3.6,2.3-6,5.2-.4.5-.8,1-1,1.3-.4.4-.8.9-1.2,1.4-.4.4-.7.8-1.1,1.3-.9,1-1.9,1.8-3,2.4s-.6.3-1,.5c-1.3.6-2.7.9-4.1.7-1.5-.2-.5-1.3,0-1.8,1.7-2.2,4.9-3.6,7.2-5.5,3.2-2.7,6.2-6.5,8.9-9s.3-.3.5-.4c.7-.4.9,0,2.1.3,7.1,2.5,12.7,2,18.5-3.3.8-.8,3.3-3.9,4.1-4.5.7-.2,1.5-.3,2.3-.5Z"/>
        <path class="st10" d="M842.9,826.2c0,.3-1.1.5-1.3.5-4,0-6.8-3.8-10.2-5.6-1.1-.6-2.3-1-3.6-1.4-7.8-2.3-15.8-3.5-23.7-5.6-.4-.1-1.1-.3-2-.5,2.5-.1,5.1-.2,7.6-.3,1.6,0,3.2-.2,4.8-.2,2.8,0,5.2.3,8.9,1.5,5,1.6,15.5,6.1,18.7,10.4.3.4.8,1.1.8,1.3Z"/>
      </g>
    </g>
    <g>
      <g>
        <path class="st8" d="M1074.9,432.7h30.9l-10.7,52.4h-40l-10.7-52.4h29.1v34.9h1.4v-34.9Z"/>
        <path class="st8" d="M1108.2,432.7h57v17.4h-28.1v1.4h23.2v14.7h-23.2v1.4h28.1v17.4h-57.1v-52.3Z"/>
        <path class="st8" d="M1197.3,467.5h28.1v17.4h-57.1v-52.4h29v34.9Z"/>
        <path class="st8" d="M1276.3,432.6c1.6,0,3.1.3,4.5.9s2.7,1.4,3.8,2.5c2.3,2.3,3.4,5,3.4,8.3v29.1c0,1.6-.3,3.1-.9,4.5-.6,1.4-1.4,2.7-2.5,3.7-2.3,2.3-5,3.4-8.3,3.4h-36.3c-1.5,0-3-.3-4.4-.9-1.4-.6-2.7-1.4-3.8-2.5-1.1-1.1-2-2.4-2.5-3.8-.6-1.4-.9-2.9-.9-4.4v-7c0-2.5,0-5,0-7.6,0-2.5,0-5.1,0-7.6v-7c0-1.6.3-3.1.9-4.5.6-1.4,1.4-2.7,2.5-3.7,1.1-1.1,2.3-1.9,3.7-2.5s2.9-.9,4.5-.9h36.1ZM1259,450.1h-1.5v17.4h1.5v-17.4Z"/>
        <path class="st8" d="M1327.4,467.7l-3.1,3.7,1.1,1,4-4.8h12.7v17.4h-51.1v-17.4l16.7-21.4-1.2-1-3.8,4.9h-11.7v-17.4h51.1v17.4l-14.7,17.6Z"/>
      </g>
      <path class="st8" d="M1347.6,438.6c-.5,0-1-.1-1.5-.4-.4-.3-.8-.6-1.1-1.1-.3-.5-.4-1-.4-1.5s.1-1.1.4-1.5c.3-.4.6-.8,1.1-1.1.4-.3.9-.4,1.5-.4s1.1.1,1.5.4c.4.3.8.6,1.1,1.1.3.5.4,1,.4,1.5s-.1,1.1-.4,1.5c-.3.5-.6.8-1.1,1.1-.4.3-.9.4-1.5.4ZM1347.6,438c.4,0,.8,0,1.2-.3s.6-.5.8-.8.3-.8.3-1.2,0-.9-.3-1.2c-.2-.4-.5-.6-.8-.8s-.7-.3-1.2-.3-.8.1-1.2.3c-.3.2-.6.5-.8.8-.2.4-.3.8-.3,1.2s0,.9.3,1.2c.2.4.5.6.8.8.3.2.7.3,1.2.3ZM1346.6,437v-2.7h1.2c.3,0,.5,0,.7.2s.2.4.2.6,0,.3-.1.4c0,.1-.2.2-.4.3l.6,1.1h-.8l-.5-1h-.4v1h-.7ZM1347.7,434.8h-.4v.7h.4c.3,0,.4-.1.4-.4s0-.2,0-.3c0,0-.2,0-.3,0Z"/>
      <g>
        <path class="st8" d="M1288.7,397.3c-4.1-2.4-11.7-5.3-16.3-5.7-6.9-.5-13.8-.5-20.8-.9-6-.3-9.2.8-13.3-4.8-2.1-2.8-2.3-7-3.3-10.4.4,0,.4,0,.7.2.7.6,1.1,3.9,1.4,5,0,.3.2,1.5.6,1.3.2-.1,1.9-3.7,2.4-4.5,4.1-5.9,12-10.9,18.9-11.3,5.4-.3,13.6,2.3,18.5-.2.2-.1.5-.3.7-.4.3-.2.4-.6.3-1,0-.1,0-.3-.2-.5-.2-.4-.4-.7-.6-.9-.1-.1-.3-.2-.4-.2-1.9-.6-3.9-1.2-5.9-1.9-1.9-.6-3.7-1.3-5.5-2-.4-.2-.8-.4-1.1-.7-2.4-2.5-6.5-3.5-9.7-3.8-.9-.1-2.1.2-3,0-.6-.1-1.3-.8-2-1.1-2.5-.9-6.2-.3-8.8-.2-.2,1.5,1.7,1.6,2.6,2.1,1.2.5,2.7,1.5,3.9,1.9,1,.3,2.6.2,2.5.7,0,.6-2,.3-2.4.2-1.2-.2-3.5-1.8-4.3-1.8-2.8,0-7.9,3-10.7,4.1-6.1,2.5-12.3,3.6-18.8,3.2-5.7-.3-10.2-2.9-15.6-4.2-16.5-4.1-30.7-1.7-40.1,1.5-10.7,3.6-13.5,6.6-18.3,8.9-4,1.9-20.5,6.3-31.7-1.8-3.1-2.3-5-5.2-5.2-5.5-3.3-5.1-3.4-10.3-3.3-12.7-.2.6-.3,1.5-.4,2.6-.2,2.2-.3,6.4,1.8,10.7,3.6,7.1,10.7,9.5,14,10.6,0,0,8.5,2.9,22,0,1.4-.3,2.7-.6,2.7-.6,1.1-.3,2.4-.7,4.1-1.4,1-.4,2.2-1,3.6-1.9,0,.7-.5,1.1-1.9,2-1.5.9-3.2,1.6-4.3,1.9-.1.2-.4.5-.7.9-1,1.3-1,1.4-1.3,1.8-1.5,2.3-2.8,4.3-3.5,5-.6.8-1.8,1.9-3.2,3-3,2.1-6.5,3.1-10.2,3.4-1.4,0-2.8,0-4.2,0-.8,0-2.5-.3-3.7-.6-.3,0-.7,0-1,.1-1.8.9-4.6,4.8-5.7,6-1,1.1-2.1,2.4-3.3,3.6-1.1,1.2-1.6,1.6-2.7,2.6-1.4,1.2-3.5,2.1-4.7,3.3-.3.3-3,3.3-2.1,3.6.5.2,2.3,0,3,0,1.9-.2,6-5.3,7.6-6.8,3.3-3.3,7.5-7.5,12.2-7.9,3-.2,5.9,1,8.9,1.3,3.3.4,8.3.7,11.5.4,9.4-.6,17.1-11.5,24.4-17.1,7.1-5.3,18.7-2.9,25.9,4.1,4.7,4.6,9.1,9.3,14.9,12.3,5.7,2.9,11.4,2.9,17.5,2.4,2.6-.2,5.2-.9,7.9-1.1.9,0,1.4,1.7,2.2,2.2.6.4,5.3.2,6.5.2,2.3,0,4.6-.1,6.9-.2,4.4-.2,8.7-.4,13.1-.6h0c2.6-.1,5.2-.2,7.8-.3,5.4-.2,10.4-.8,15.5,1.5,2.6,1.2,5.3,4,8.1,4.1.5,0,1.2-.1,1.7-.3.1,0,.2-.3.2-.4-.3-1.3-1.5-2.5-2.5-3.1ZM1261.4,358.6c.5-.3,2.5-.9,2.5.6,0,0,0,.1,0,.3-.1.3-2,.3-2.4.2,0,0-.2-.2-.3-.4,0-.3.1-.5.2-.6ZM1250.4,356.3c-.2-.4-.1-.5-.3-.7-.2-.4-.7-.3-1.5-.5-.6-.2-1.4-.6-1.4-.7,0-.2,1.5-.4,2.7.3.2.1,1.3.7,1.2,1.5,0,.3-.2.7-.4.7-.2,0-.3-.3-.4-.5Z"/>
        <path class="st8" d="M1140.6,374c-.9,1-2.1,2.9-2.9,4.1-.7,1.1-1.5,2.1-2.1,2.8-3.1,3.6-7.4,5.5-12.9,5.9-.6,0-1.2,0-1.9,0s-1.4,0-2.1,0c-.2,0-.4,0-.6,0-.4,0-.8-.1-1.1-.2-.8-.2-1.6-.4-2.4-.3-1.3,0-3.6,2.3-6,5.2-.4.5-.8,1-1,1.3-.4.4-.8.9-1.2,1.4-.4.4-.7.8-1.1,1.3-.9,1-1.9,1.8-3,2.4s-.6.3-1,.5c-1.3.6-2.7.9-4.1.7-1.5-.2-.5-1.3,0-1.8,1.7-2.2,4.9-3.6,7.2-5.5,3.2-2.7,6.2-6.5,8.9-9s.3-.3.5-.4c.7-.4.9,0,2.1.3,7.1,2.5,12.7,2,18.5-3.3.8-.8,3.3-3.9,4.1-4.5.7-.2,1.5-.3,2.3-.5Z"/>
        <path class="st8" d="M1286.4,410.1c0,.3-1.1.5-1.3.5-4,0-6.8-3.8-10.2-5.6-1.1-.6-2.3-1-3.6-1.4-7.8-2.3-15.8-3.5-23.7-5.6-.4-.1-1.1-.3-2-.5,2.5-.1,5.1-.2,7.6-.3,1.6,0,3.2-.2,4.8-.2,2.8,0,5.2.3,8.9,1.5,5,1.6,15.5,6.1,18.7,10.4.3.4.8,1.1.8,1.3Z"/>
      </g>
    </g>
    <g>
      <g>
        <path class="st7" d="M1074.9,848.8h30.9l-10.7,52.4h-40l-10.7-52.4h29.1v34.9h1.4v-34.9Z"/>
        <path class="st7" d="M1108.2,848.8h57v17.4h-28.1v1.4h23.2v14.7h-23.2v1.4h28.1v17.4h-57.1v-52.3Z"/>
        <path class="st7" d="M1197.3,883.6h28.1v17.4h-57.1v-52.4h29v34.9Z"/>
        <path class="st7" d="M1276.3,848.7c1.6,0,3.1.3,4.5.9s2.7,1.4,3.8,2.5c2.3,2.3,3.4,5,3.4,8.3v29.1c0,1.6-.3,3.1-.9,4.5-.6,1.4-1.4,2.7-2.5,3.7-2.3,2.3-5,3.4-8.3,3.4h-36.3c-1.5,0-3-.3-4.4-.9-1.4-.6-2.7-1.4-3.8-2.5-1.1-1.1-2-2.4-2.5-3.8-.6-1.4-.9-2.9-.9-4.4v-7c0-2.5,0-5,0-7.6,0-2.5,0-5.1,0-7.6v-7c0-1.6.3-3.1.9-4.5.6-1.4,1.4-2.7,2.5-3.7,1.1-1.1,2.3-1.9,3.7-2.5s2.9-.9,4.5-.9h36.1ZM1259,866.2h-1.5v17.4h1.5v-17.4Z"/>
        <path class="st7" d="M1327.4,883.8l-3.1,3.7,1.1,1,4-4.8h12.7v17.4h-51.1v-17.4l16.7-21.4-1.2-1-3.8,4.9h-11.7v-17.4h51.1v17.4l-14.7,17.6Z"/>
      </g>
      <path class="st7" d="M1347.6,854.8c-.5,0-1-.1-1.5-.4-.4-.3-.8-.6-1.1-1.1-.3-.5-.4-1-.4-1.5s.1-1.1.4-1.5c.3-.4.6-.8,1.1-1.1.4-.3.9-.4,1.5-.4s1.1.1,1.5.4c.4.3.8.6,1.1,1.1.3.5.4,1,.4,1.5s-.1,1.1-.4,1.5c-.3.5-.6.8-1.1,1.1-.4.3-.9.4-1.5.4ZM1347.6,854.1c.4,0,.8,0,1.2-.3s.6-.5.8-.8.3-.8.3-1.2,0-.9-.3-1.2c-.2-.4-.5-.6-.8-.8s-.7-.3-1.2-.3-.8.1-1.2.3c-.3.2-.6.5-.8.8-.2.4-.3.8-.3,1.2s0,.9.3,1.2c.2.4.5.6.8.8.3.2.7.3,1.2.3ZM1346.6,853.1v-2.7h1.2c.3,0,.5,0,.7.2s.2.4.2.6,0,.3-.1.4c0,.1-.2.2-.4.3l.6,1.1h-.8l-.5-1h-.4v1h-.7ZM1347.7,850.9h-.4v.7h.4c.3,0,.4-.1.4-.4s0-.2,0-.3c0,0-.2,0-.3,0Z"/>
      <g>
        <path class="st7" d="M1288.7,813.4c-4.1-2.4-11.7-5.3-16.3-5.7-6.9-.5-13.8-.5-20.8-.9-6-.3-9.2.8-13.3-4.8-2.1-2.8-2.3-7-3.3-10.4.4,0,.4,0,.7.2.7.6,1.1,3.9,1.4,5,0,.3.2,1.5.6,1.3.2-.1,1.9-3.7,2.4-4.5,4.1-5.9,12-10.9,18.9-11.3,5.4-.3,13.6,2.3,18.5-.2.2-.1.5-.3.7-.4.3-.2.4-.6.3-1,0-.1,0-.3-.2-.5-.2-.4-.4-.7-.6-.9-.1-.1-.3-.2-.4-.2-1.9-.6-3.9-1.2-5.9-1.9-1.9-.6-3.7-1.3-5.5-2-.4-.2-.8-.4-1.1-.7-2.4-2.5-6.5-3.5-9.7-3.8-.9-.1-2.1.2-3,0-.6-.1-1.3-.8-2-1.1-2.5-.9-6.2-.3-8.8-.2-.2,1.5,1.7,1.6,2.6,2.1,1.2.5,2.7,1.5,3.9,1.9,1,.3,2.6.2,2.5.7,0,.6-2,.3-2.4.2-1.2-.2-3.5-1.8-4.3-1.8-2.8,0-7.9,3-10.7,4.1-6.1,2.5-12.3,3.6-18.8,3.2-5.7-.3-10.2-2.9-15.6-4.2-16.5-4.1-30.7-1.7-40.1,1.5-10.7,3.6-13.5,6.6-18.3,8.9-4,1.9-20.5,6.3-31.7-1.8-3.1-2.3-5-5.2-5.2-5.5-3.3-5.1-3.4-10.3-3.3-12.7-.2.6-.3,1.5-.4,2.6-.2,2.2-.3,6.4,1.8,10.7,3.6,7.1,10.7,9.5,14,10.6,0,0,8.5,2.9,22,0,1.4-.3,2.7-.6,2.7-.6,1.1-.3,2.4-.7,4.1-1.4,1-.4,2.2-1,3.6-1.9,0,.7-.5,1.1-1.9,2-1.5.9-3.2,1.6-4.3,1.9-.1.2-.4.5-.7.9-1,1.3-1,1.4-1.3,1.8-1.5,2.3-2.8,4.3-3.5,5-.6.8-1.8,1.9-3.2,3-3,2.1-6.5,3.1-10.2,3.4-1.4,0-2.8,0-4.2,0-.8,0-2.5-.3-3.7-.6-.3,0-.7,0-1,.1-1.8.9-4.6,4.8-5.7,6-1,1.1-2.1,2.4-3.3,3.6-1.1,1.2-1.6,1.6-2.7,2.6-1.4,1.2-3.5,2.1-4.7,3.3-.3.3-3,3.3-2.1,3.6.5.2,2.3,0,3,0,1.9-.2,6-5.3,7.6-6.8,3.3-3.3,7.5-7.5,12.2-7.9,3-.2,5.9,1,8.9,1.3,3.3.4,8.3.7,11.5.4,9.4-.6,17.1-11.5,24.4-17.1,7.1-5.3,18.7-2.9,25.9,4.1,4.7,4.6,9.1,9.3,14.9,12.3,5.7,2.9,11.4,2.9,17.5,2.4,2.6-.2,5.2-.9,7.9-1.1.9,0,1.4,1.7,2.2,2.2.6.4,5.3.2,6.5.2,2.3,0,4.6-.1,6.9-.2,4.4-.2,8.7-.4,13.1-.6h0c2.6-.1,5.2-.2,7.8-.3,5.4-.2,10.4-.8,15.5,1.5,2.6,1.2,5.3,4,8.1,4.1.5,0,1.2-.1,1.7-.3.1,0,.2-.3.2-.4-.3-1.3-1.5-2.5-2.5-3.1ZM1261.4,774.8c.5-.3,2.5-.9,2.5.6,0,0,0,.1,0,.3-.1.3-2,.3-2.4.2,0,0-.2-.2-.3-.4,0-.3.1-.5.2-.6ZM1250.4,772.4c-.2-.4-.1-.5-.3-.7-.2-.4-.7-.3-1.5-.5-.6-.2-1.4-.6-1.4-.7,0-.2,1.5-.4,2.7.3.2.1,1.3.7,1.2,1.5,0,.3-.2.7-.4.7-.2,0-.3-.3-.4-.5Z"/>
        <path class="st7" d="M1140.6,790.1c-.9,1-2.1,2.9-2.9,4.1-.7,1.1-1.5,2.1-2.1,2.8-3.1,3.6-7.4,5.5-12.9,5.9-.6,0-1.2,0-1.9,0s-1.4,0-2.1,0c-.2,0-.4,0-.6,0-.4,0-.8-.1-1.1-.2-.8-.2-1.6-.4-2.4-.3-1.3,0-3.6,2.3-6,5.2-.4.5-.8,1-1,1.3-.4.4-.8.9-1.2,1.4-.4.4-.7.8-1.1,1.3-.9,1-1.9,1.8-3,2.4s-.6.3-1,.5c-1.3.6-2.7.9-4.1.7-1.5-.2-.5-1.3,0-1.8,1.7-2.2,4.9-3.6,7.2-5.5,3.2-2.7,6.2-6.5,8.9-9s.3-.3.5-.4c.7-.4.9,0,2.1.3,7.1,2.5,12.7,2,18.5-3.3.8-.8,3.3-3.9,4.1-4.5.7-.2,1.5-.3,2.3-.5Z"/>
        <path class="st7" d="M1286.4,826.2c0,.3-1.1.5-1.3.5-4,0-6.8-3.8-10.2-5.6-1.1-.6-2.3-1-3.6-1.4-7.8-2.3-15.8-3.5-23.7-5.6-.4-.1-1.1-.3-2-.5,2.5-.1,5.1-.2,7.6-.3,1.6,0,3.2-.2,4.8-.2,2.8,0,5.2.3,8.9,1.5,5,1.6,15.5,6.1,18.7,10.4.3.4.8,1.1.8,1.3Z"/>
      </g>
    </g>
    <g>
      <g>
        <path d="M1522.6,432.7h30.9l-10.7,52.4h-40l-10.7-52.4h29.1v34.9h1.4v-34.9Z"/>
        <path d="M1555.9,432.7h57v17.4h-28.1v1.4h23.2v14.7h-23.2v1.4h28.1v17.4h-57.1v-52.3Z"/>
        <path d="M1645,467.5h28.1v17.4h-57.1v-52.4h29v34.9Z"/>
        <path d="M1724,432.6c1.6,0,3.1.3,4.5.9s2.7,1.4,3.8,2.5c2.3,2.3,3.4,5,3.4,8.3v29.1c0,1.6-.3,3.1-.9,4.5-.6,1.4-1.4,2.7-2.5,3.7-2.3,2.3-5,3.4-8.3,3.4h-36.3c-1.5,0-3-.3-4.4-.9-1.4-.6-2.7-1.4-3.8-2.5-1.1-1.1-2-2.4-2.5-3.8-.6-1.4-.9-2.9-.9-4.4v-7c0-2.5,0-5,0-7.6,0-2.5,0-5.1,0-7.6v-7c0-1.6.3-3.1.9-4.5.6-1.4,1.4-2.7,2.5-3.7,1.1-1.1,2.3-1.9,3.7-2.5s2.9-.9,4.5-.9h36.1ZM1706.7,450.1h-1.5v17.4h1.5v-17.4Z"/>
        <path d="M1775.1,467.7l-3.1,3.7,1.1,1,4-4.8h12.7v17.4h-51.1v-17.4l16.7-21.4-1.2-1-3.8,4.9h-11.7v-17.4h51.1v17.4l-14.7,17.6Z"/>
      </g>
      <path d="M1795.3,438.6c-.5,0-1-.1-1.5-.4-.4-.3-.8-.6-1.1-1.1-.3-.5-.4-1-.4-1.5s.1-1.1.4-1.5c.3-.4.6-.8,1.1-1.1.4-.3.9-.4,1.5-.4s1.1.1,1.5.4c.4.3.8.6,1.1,1.1.3.5.4,1,.4,1.5s-.1,1.1-.4,1.5c-.3.5-.6.8-1.1,1.1-.4.3-.9.4-1.5.4ZM1795.3,438c.4,0,.8,0,1.2-.3s.6-.5.8-.8.3-.8.3-1.2,0-.9-.3-1.2c-.2-.4-.5-.6-.8-.8s-.7-.3-1.2-.3-.8.1-1.2.3c-.3.2-.6.5-.8.8-.2.4-.3.8-.3,1.2s0,.9.3,1.2c.2.4.5.6.8.8.3.2.7.3,1.2.3ZM1794.3,437v-2.7h1.2c.3,0,.5,0,.7.2s.2.4.2.6,0,.3-.1.4c0,.1-.2.2-.4.3l.6,1.1h-.8l-.5-1h-.4v1h-.7ZM1795.4,434.8h-.4v.7h.4c.3,0,.4-.1.4-.4s0-.2,0-.3c0,0-.2,0-.3,0Z"/>
      <g>
        <path d="M1736.4,397.3c-4.1-2.4-11.7-5.3-16.3-5.7-6.9-.5-13.8-.5-20.8-.9-6-.3-9.2.8-13.3-4.8-2.1-2.8-2.3-7-3.3-10.4.4,0,.4,0,.7.2.7.6,1.1,3.9,1.4,5,0,.3.2,1.5.6,1.3.2-.1,1.9-3.7,2.4-4.5,4.1-5.9,12-10.9,18.9-11.3,5.4-.3,13.6,2.3,18.5-.2.2-.1.5-.3.7-.4.3-.2.4-.6.3-1,0-.1,0-.3-.2-.5-.2-.4-.4-.7-.6-.9-.1-.1-.3-.2-.4-.2-1.9-.6-3.9-1.2-5.9-1.9-1.9-.6-3.7-1.3-5.5-2-.4-.2-.8-.4-1.1-.7-2.4-2.5-6.5-3.5-9.7-3.8-.9-.1-2.1.2-3,0-.6-.1-1.3-.8-2-1.1-2.5-.9-6.2-.3-8.8-.2-.2,1.5,1.7,1.6,2.6,2.1,1.2.5,2.7,1.5,3.9,1.9,1,.3,2.6.2,2.5.7,0,.6-2,.3-2.4.2-1.2-.2-3.5-1.8-4.3-1.8-2.8,0-7.9,3-10.7,4.1-6.1,2.5-12.3,3.6-18.8,3.2-5.7-.3-10.2-2.9-15.6-4.2-16.5-4.1-30.7-1.7-40.1,1.5-10.7,3.6-13.5,6.6-18.3,8.9-4,1.9-20.5,6.3-31.7-1.8-3.1-2.3-5-5.2-5.2-5.5-3.3-5.1-3.4-10.3-3.3-12.7-.2.6-.3,1.5-.4,2.6-.2,2.2-.3,6.4,1.8,10.7,3.6,7.1,10.7,9.5,14,10.6,0,0,8.5,2.9,22,0,1.4-.3,2.7-.6,2.7-.6,1.1-.3,2.4-.7,4.1-1.4,1-.4,2.2-1,3.6-1.9,0,.7-.5,1.1-1.9,2-1.5.9-3.2,1.6-4.3,1.9-.1.2-.4.5-.7.9-1,1.3-1,1.4-1.3,1.8-1.5,2.3-2.8,4.3-3.5,5-.6.8-1.8,1.9-3.2,3-3,2.1-6.5,3.1-10.2,3.4-1.4,0-2.8,0-4.2,0-.8,0-2.5-.3-3.7-.6-.3,0-.7,0-1,.1-1.8.9-4.6,4.8-5.7,6-1,1.1-2.1,2.4-3.3,3.6-1.1,1.2-1.6,1.6-2.7,2.6-1.4,1.2-3.5,2.1-4.7,3.3-.3.3-3,3.3-2.1,3.6.5.2,2.3,0,3,0,1.9-.2,6-5.3,7.6-6.8,3.3-3.3,7.5-7.5,12.2-7.9,3-.2,5.9,1,8.9,1.3,3.3.4,8.3.7,11.5.4,9.4-.6,17.1-11.5,24.4-17.1,7.1-5.3,18.7-2.9,25.9,4.1,4.7,4.6,9.1,9.3,14.9,12.3,5.7,2.9,11.4,2.9,17.5,2.4,2.6-.2,5.2-.9,7.9-1.1.9,0,1.4,1.7,2.2,2.2.6.4,5.3.2,6.5.2,2.3,0,4.6-.1,6.9-.2,4.4-.2,8.7-.4,13.1-.6h0c2.6-.1,5.2-.2,7.8-.3,5.4-.2,10.4-.8,15.5,1.5,2.6,1.2,5.3,4,8.1,4.1.5,0,1.2-.1,1.7-.3.1,0,.2-.3.2-.4-.3-1.3-1.5-2.5-2.5-3.1ZM1709.1,358.6c.5-.3,2.5-.9,2.5.6,0,0,0,.1,0,.3-.1.3-2,.3-2.4.2,0,0-.2-.2-.3-.4,0-.3.1-.5.2-.6ZM1698.1,356.3c-.2-.4-.1-.5-.3-.7-.2-.4-.7-.3-1.5-.5-.6-.2-1.4-.6-1.4-.7,0-.2,1.5-.4,2.7.3.2.1,1.3.7,1.2,1.5,0,.3-.2.7-.4.7-.2,0-.3-.3-.4-.5Z"/>
        <path d="M1588.3,374c-.9,1-2.1,2.9-2.9,4.1-.7,1.1-1.5,2.1-2.1,2.8-3.1,3.6-7.4,5.5-12.9,5.9-.6,0-1.2,0-1.9,0s-1.4,0-2.1,0c-.2,0-.4,0-.6,0-.4,0-.8-.1-1.1-.2-.8-.2-1.6-.4-2.4-.3-1.3,0-3.6,2.3-6,5.2-.4.5-.8,1-1,1.3-.4.4-.8.9-1.2,1.4-.4.4-.7.8-1.1,1.3-.9,1-1.9,1.8-3,2.4s-.6.3-1,.5c-1.3.6-2.7.9-4.1.7-1.5-.2-.5-1.3,0-1.8,1.7-2.2,4.9-3.6,7.2-5.5,3.2-2.7,6.2-6.5,8.9-9s.3-.3.5-.4c.7-.4.9,0,2.1.3,7.1,2.5,12.7,2,18.5-3.3.8-.8,3.3-3.9,4.1-4.5.7-.2,1.5-.3,2.3-.5Z"/>
        <path d="M1734.1,410.1c0,.3-1.1.5-1.3.5-4,0-6.8-3.8-10.2-5.6-1.1-.6-2.3-1-3.6-1.4-7.8-2.3-15.8-3.5-23.7-5.6-.4-.1-1.1-.3-2-.5,2.5-.1,5.1-.2,7.6-.3,1.6,0,3.2-.2,4.8-.2,2.8,0,5.2.3,8.9,1.5,5,1.6,15.5,6.1,18.7,10.4.3.4.8,1.1.8,1.3Z"/>
      </g>
    </g>
    <g>
      <g>
        <path class="st11" d="M1522.6,848.8h30.9l-10.7,52.4h-40l-10.7-52.4h29.1v34.9h1.4v-34.9Z"/>
        <path class="st11" d="M1555.9,848.8h57v17.4h-28.1v1.4h23.2v14.7h-23.2v1.4h28.1v17.4h-57.1v-52.3Z"/>
        <path class="st11" d="M1645,883.6h28.1v17.4h-57.1v-52.4h29v34.9Z"/>
        <path class="st11" d="M1724,848.7c1.6,0,3.1.3,4.5.9s2.7,1.4,3.8,2.5c2.3,2.3,3.4,5,3.4,8.3v29.1c0,1.6-.3,3.1-.9,4.5-.6,1.4-1.4,2.7-2.5,3.7-2.3,2.3-5,3.4-8.3,3.4h-36.3c-1.5,0-3-.3-4.4-.9-1.4-.6-2.7-1.4-3.8-2.5-1.1-1.1-2-2.4-2.5-3.8-.6-1.4-.9-2.9-.9-4.4v-7c0-2.5,0-5,0-7.6,0-2.5,0-5.1,0-7.6v-7c0-1.6.3-3.1.9-4.5.6-1.4,1.4-2.7,2.5-3.7,1.1-1.1,2.3-1.9,3.7-2.5s2.9-.9,4.5-.9h36.1ZM1706.7,866.2h-1.5v17.4h1.5v-17.4Z"/>
        <path class="st11" d="M1775.1,883.8l-3.1,3.7,1.1,1,4-4.8h12.7v17.4h-51.1v-17.4l16.7-21.4-1.2-1-3.8,4.9h-11.7v-17.4h51.1v17.4l-14.7,17.6Z"/>
      </g>
      <path class="st11" d="M1795.3,854.8c-.5,0-1-.1-1.5-.4-.4-.3-.8-.6-1.1-1.1-.3-.5-.4-1-.4-1.5s.1-1.1.4-1.5c.3-.4.6-.8,1.1-1.1.4-.3.9-.4,1.5-.4s1.1.1,1.5.4c.4.3.8.6,1.1,1.1.3.5.4,1,.4,1.5s-.1,1.1-.4,1.5c-.3.5-.6.8-1.1,1.1-.4.3-.9.4-1.5.4ZM1795.3,854.1c.4,0,.8,0,1.2-.3s.6-.5.8-.8.3-.8.3-1.2,0-.9-.3-1.2c-.2-.4-.5-.6-.8-.8s-.7-.3-1.2-.3-.8.1-1.2.3c-.3.2-.6.5-.8.8-.2.4-.3.8-.3,1.2s0,.9.3,1.2c.2.4.5.6.8.8.3.2.7.3,1.2.3ZM1794.3,853.1v-2.7h1.2c.3,0,.5,0,.7.2s.2.4.2.6,0,.3-.1.4c0,.1-.2.2-.4.3l.6,1.1h-.8l-.5-1h-.4v1h-.7ZM1795.4,850.9h-.4v.7h.4c.3,0,.4-.1.4-.4s0-.2,0-.3c0,0-.2,0-.3,0Z"/>
      <g>
        <path class="st11" d="M1736.4,813.4c-4.1-2.4-11.7-5.3-16.3-5.7-6.9-.5-13.8-.5-20.8-.9-6-.3-9.2.8-13.3-4.8-2.1-2.8-2.3-7-3.3-10.4.4,0,.4,0,.7.2.7.6,1.1,3.9,1.4,5,0,.3.2,1.5.6,1.3.2-.1,1.9-3.7,2.4-4.5,4.1-5.9,12-10.9,18.9-11.3,5.4-.3,13.6,2.3,18.5-.2.2-.1.5-.3.7-.4.3-.2.4-.6.3-1,0-.1,0-.3-.2-.5-.2-.4-.4-.7-.6-.9-.1-.1-.3-.2-.4-.2-1.9-.6-3.9-1.2-5.9-1.9-1.9-.6-3.7-1.3-5.5-2-.4-.2-.8-.4-1.1-.7-2.4-2.5-6.5-3.5-9.7-3.8-.9-.1-2.1.2-3,0-.6-.1-1.3-.8-2-1.1-2.5-.9-6.2-.3-8.8-.2-.2,1.5,1.7,1.6,2.6,2.1,1.2.5,2.7,1.5,3.9,1.9,1,.3,2.6.2,2.5.7,0,.6-2,.3-2.4.2-1.2-.2-3.5-1.8-4.3-1.8-2.8,0-7.9,3-10.7,4.1-6.1,2.5-12.3,3.6-18.8,3.2-5.7-.3-10.2-2.9-15.6-4.2-16.5-4.1-30.7-1.7-40.1,1.5-10.7,3.6-13.5,6.6-18.3,8.9-4,1.9-20.5,6.3-31.7-1.8-3.1-2.3-5-5.2-5.2-5.5-3.3-5.1-3.4-10.3-3.3-12.7-.2.6-.3,1.5-.4,2.6-.2,2.2-.3,6.4,1.8,10.7,3.6,7.1,10.7,9.5,14,10.6,0,0,8.5,2.9,22,0,1.4-.3,2.7-.6,2.7-.6,1.1-.3,2.4-.7,4.1-1.4,1-.4,2.2-1,3.6-1.9,0,.7-.5,1.1-1.9,2-1.5.9-3.2,1.6-4.3,1.9-.1.2-.4.5-.7.9-1,1.3-1,1.4-1.3,1.8-1.5,2.3-2.8,4.3-3.5,5-.6.8-1.8,1.9-3.2,3-3,2.1-6.5,3.1-10.2,3.4-1.4,0-2.8,0-4.2,0-.8,0-2.5-.3-3.7-.6-.3,0-.7,0-1,.1-1.8.9-4.6,4.8-5.7,6-1,1.1-2.1,2.4-3.3,3.6-1.1,1.2-1.6,1.6-2.7,2.6-1.4,1.2-3.5,2.1-4.7,3.3-.3.3-3,3.3-2.1,3.6.5.2,2.3,0,3,0,1.9-.2,6-5.3,7.6-6.8,3.3-3.3,7.5-7.5,12.2-7.9,3-.2,5.9,1,8.9,1.3,3.3.4,8.3.7,11.5.4,9.4-.6,17.1-11.5,24.4-17.1,7.1-5.3,18.7-2.9,25.9,4.1,4.7,4.6,9.1,9.3,14.9,12.3,5.7,2.9,11.4,2.9,17.5,2.4,2.6-.2,5.2-.9,7.9-1.1.9,0,1.4,1.7,2.2,2.2.6.4,5.3.2,6.5.2,2.3,0,4.6-.1,6.9-.2,4.4-.2,8.7-.4,13.1-.6h0c2.6-.1,5.2-.2,7.8-.3,5.4-.2,10.4-.8,15.5,1.5,2.6,1.2,5.3,4,8.1,4.1.5,0,1.2-.1,1.7-.3.1,0,.2-.3.2-.4-.3-1.3-1.5-2.5-2.5-3.1ZM1709.1,774.8c.5-.3,2.5-.9,2.5.6,0,0,0,.1,0,.3-.1.3-2,.3-2.4.2,0,0-.2-.2-.3-.4,0-.3.1-.5.2-.6ZM1698.1,772.4c-.2-.4-.1-.5-.3-.7-.2-.4-.7-.3-1.5-.5-.6-.2-1.4-.6-1.4-.7,0-.2,1.5-.4,2.7.3.2.1,1.3.7,1.2,1.5,0,.3-.2.7-.4.7-.2,0-.3-.3-.4-.5Z"/>
        <path class="st11" d="M1588.3,790.1c-.9,1-2.1,2.9-2.9,4.1-.7,1.1-1.5,2.1-2.1,2.8-3.1,3.6-7.4,5.5-12.9,5.9-.6,0-1.2,0-1.9,0s-1.4,0-2.1,0c-.2,0-.4,0-.6,0-.4,0-.8-.1-1.1-.2-.8-.2-1.6-.4-2.4-.3-1.3,0-3.6,2.3-6,5.2-.4.5-.8,1-1,1.3-.4.4-.8.9-1.2,1.4-.4.4-.7.8-1.1,1.3-.9,1-1.9,1.8-3,2.4s-.6.3-1,.5c-1.3.6-2.7.9-4.1.7-1.5-.2-.5-1.3,0-1.8,1.7-2.2,4.9-3.6,7.2-5.5,3.2-2.7,6.2-6.5,8.9-9s.3-.3.5-.4c.7-.4.9,0,2.1.3,7.1,2.5,12.7,2,18.5-3.3.8-.8,3.3-3.9,4.1-4.5.7-.2,1.5-.3,2.3-.5Z"/>
        <path class="st11" d="M1734.1,826.2c0,.3-1.1.5-1.3.5-4,0-6.8-3.8-10.2-5.6-1.1-.6-2.3-1-3.6-1.4-7.8-2.3-15.8-3.5-23.7-5.6-.4-.1-1.1-.3-2-.5,2.5-.1,5.1-.2,7.6-.3,1.6,0,3.2-.2,4.8-.2,2.8,0,5.2.3,8.9,1.5,5,1.6,15.5,6.1,18.7,10.4.3.4.8,1.1.8,1.3Z"/>
      </g>
    </g>
    <path class="st8" d="M104.6,110.2v-12.9c1.5-.3,2.7-1.5,3-3h12.9c-.5,8.5-7.3,15.4-15.9,15.9h0ZM86.9,94.4h12.9c.3,1.5,1.5,2.7,3,3v12.9c-8.5-.5-15.4-7.3-15.9-15.9h0ZM102.8,76.7v12.9c-1.5.3-2.7,1.5-3,3h-12.9c.5-8.5,7.3-15.4,15.9-15.9h0ZM120.5,92.6h-12.9c-.3-1.5-1.5-2.7-3-3v-12.9c8.5.5,15.4,7.3,15.9,15.9h0ZM140.1,92.6h-18.1c-.5-9.4-8-16.9-17.4-17.4v-18.1h-1.8v18.1c-9.4.5-16.9,8-17.4,17.4h-18.1v1.8h18.1c.5,9.4,8,16.9,17.4,17.4v18.1h1.8v-18.1c9.4-.5,16.9-8,17.4-17.4h18.1v-1.8Z"/>
  </g>
</svg>