<?xml version="1.0" encoding="UTF-8"?>
<svg xmlns="http://www.w3.org/2000/svg" version="1.1" viewBox="0 0 1920 1080">
  <!-- Generator: Adobe Illustrator 29.3.1, SVG Export Plug-In . SVG Version: 2.1.0 Build 151)  -->
  <defs>
    <style>
      .st0 {
        fill: #212223;
      }

      .st1 {
        stroke: #212223;
        stroke-width: 3px;
      }

      .st1, .st2, .st3 {
        fill: none;
        stroke-miterlimit: 10;
      }

      .st4 {
        fill: #d4d4d4;
      }

      .st2 {
        stroke-width: 1.5px;
      }

      .st2, .st3 {
        stroke: #000;
      }

      .st3 {
        stroke-width: 2.1px;
      }

      .st5 {
        fill: #0019aa;
        font-family: REDJOLA-Free-Trial, 'REDJOLA Free Trial';
        font-size: 536.1px;
      }
    </style>
  </defs>
  <g id="Capa_4">
    <rect class="st4" width="1920" height="1080"/>
  </g>
  <g id="Capa_1">
    <text class="st5" transform="translate(160.5 907.3)"><tspan x="0" y="0">01</tspan></text>
    <g>
      <path class="st0" d="M878.2,872.8c1.8-10.1,5.7-17.8,11.7-23.4,6-5.5,12.8-8.3,20.3-8.3s12.6,2,16.1,6c3.5,4,4.9,9.2,4.2,15.4v.4h-7.1v-.4c.5-4.6-.4-8.3-2.8-11.1-2.4-2.8-6.2-4.2-11.5-4.2s-10.6,2.2-15,6.5c-4.4,4.3-7.3,10.7-8.8,19l-.6,3.6c-1.4,8.1-.7,14.4,2.1,18.8,2.8,4.4,7.1,6.7,12.7,6.7s9.9-1.5,13.1-4.6c3.2-3.1,5.4-6.6,6.5-10.7v-.4h7.2v.4c-1.8,6-5,11-9.6,15.2-4.7,4.2-10.8,6.2-18.3,6.2s-13.4-2.7-17.4-8.2c-4.1-5.5-5.2-13.3-3.4-23.4l.6-3.6Z"/>
      <path class="st0" d="M933.4,882.8c1.2-7,4.2-12.7,9-17.2,4.7-4.4,10.4-6.7,17.1-6.7s11.5,2.2,14.7,6.7c3.2,4.4,4.1,10.2,2.9,17.2l-.3,1.4c-1.2,7-4.2,12.7-9,17.2-4.7,4.4-10.4,6.7-17,6.7s-11.6-2.2-14.7-6.7c-3.2-4.4-4.1-10.2-2.9-17.2l.3-1.4ZM940.1,884.3c-.9,5.1-.4,9.4,1.5,12.9,1.9,3.5,5.3,5.2,10.2,5.2s8.9-1.7,12-5.2c3.1-3.5,5.1-7.8,6-12.9l.3-1.4c.9-5.1.4-9.4-1.5-12.9-1.9-3.5-5.3-5.2-10.1-5.2s-8.9,1.7-12,5.2c-3.1,3.5-5.1,7.8-6,12.9l-.3,1.4Z"/>
      <path class="st0" d="M993.8,839h6.9l-12,67.8h-6.9l12-67.8Z"/>
      <path class="st0" d="M1001.8,882.8c1.2-7,4.2-12.7,9-17.2,4.7-4.4,10.4-6.7,17.1-6.7s11.5,2.2,14.7,6.7c3.2,4.4,4.1,10.2,2.9,17.2l-.3,1.4c-1.2,7-4.2,12.7-9,17.2-4.7,4.4-10.4,6.7-17,6.7s-11.6-2.2-14.7-6.7c-3.2-4.4-4.1-10.2-2.9-17.2l.3-1.4ZM1008.5,884.3c-.9,5.1-.4,9.4,1.5,12.9,1.9,3.5,5.3,5.2,10.2,5.2s8.9-1.7,12-5.2c3.1-3.5,5.1-7.8,6-12.9l.3-1.4c.9-5.1.4-9.4-1.5-12.9-1.9-3.5-5.3-5.2-10.1-5.2s-8.9,1.7-12,5.2c-3.1,3.5-5.1,7.8-6,12.9l-.3,1.4Z"/>
      <path class="st0" d="M1058.3,860.3h6.2l-.8,6.3h.2c1.6-2,3.6-3.8,6-5.3,2.4-1.5,5-2.3,7.9-2.3s1.4,0,2.1.2c.7.1,1.2.3,1.5.4l-1.1,6.4c-.6-.1-1.2-.2-1.9-.3-.7,0-1.4-.1-2.2-.1-2.9,0-5.5.8-7.7,2.3-2.3,1.5-4.1,3.4-5.5,5.6l-5.9,33.3h-6.8l8.2-46.4Z"/>
      <path class="st0" d="M1078.4,882.8c1.2-7,4.2-12.7,8.8-17.2,4.6-4.4,10-6.7,16.3-6.7s10.7,2,13.4,6.1c2.7,4.1,3.4,9.7,2.1,16.9l-.5,2.9h-36.4l1-5.6h29.4v-.6c.9-4.2.4-7.6-1.2-10.2-1.6-2.5-4.5-3.8-8.6-3.8s-8.5,1.7-11.5,5.2c-3,3.5-4.9,7.8-5.8,12.9l-.3,1.4c-.9,5.1-.4,9.5,1.4,12.9,1.9,3.5,5.4,5.2,10.7,5.2s5.8-.6,8.2-1.9c2.4-1.2,4.5-2.8,6.2-4.6l3.8,3.7c-1.9,2.1-4.4,4.1-7.8,5.8-3.3,1.8-7.1,2.7-11.5,2.7-7.2,0-12.3-2.2-15.4-6.7-3.1-4.4-4-10.2-2.7-17.2l.3-1.4Z"/>
      <path class="st0" d="M1129.4,893.1v.2c-.6,3,.1,5.3,2.1,6.8s4.7,2.3,8.2,2.3,6.5-.7,8.8-2.2c2.3-1.5,3.6-3.4,4.1-5.7.4-2.3-.1-4.1-1.5-5.2-1.4-1.2-4.6-2.3-9.6-3.5-4.9-1.2-8.6-2.8-11.1-5-2.5-2.1-3.4-5.1-2.7-8.8.6-3.7,2.8-6.8,6.3-9.3,3.6-2.5,7.9-3.7,13.1-3.7s9.2,1.3,11.9,3.8c2.7,2.6,3.7,5.9,3,10.1v.2h-6.9v-.3c.5-2.5,0-4.4-1.5-5.9-1.5-1.5-4-2.2-7.5-2.2s-6.3.6-8.2,1.9c-1.9,1.3-3.1,2.9-3.4,4.9-.3,2,.3,3.6,1.8,4.8,1.5,1.2,4.8,2.4,9.7,3.6,4.9,1.2,8.6,2.8,11,4.9s3.2,5.2,2.5,9.2c-.7,4.1-2.9,7.4-6.4,10.1-3.5,2.6-8.3,4-14.5,4s-10.5-1.3-13.2-4c-2.7-2.7-3.7-6.3-2.9-10.7v-.2h6.9Z"/>
    </g>
    <g>
      <g>
        <line class="st1" x1="103.7" y1="57.1" x2="103.7" y2="129.8"/>
        <line class="st1" x1="67.3" y1="93.5" x2="140.1" y2="93.5"/>
      </g>
      <g>
        <line class="st1" x1="103.7" y1="954.4" x2="103.7" y2="1027.1"/>
        <line class="st1" x1="67.3" y1="990.7" x2="140.1" y2="990.7"/>
      </g>
      <g>
        <line class="st1" x1="1807.8" y1="57.1" x2="1807.8" y2="129.8"/>
        <line class="st1" x1="1771.4" y1="93.5" x2="1844.1" y2="93.5"/>
      </g>
      <g>
        <line class="st1" x1="1807.8" y1="954.4" x2="1807.8" y2="1027.1"/>
        <line class="st1" x1="1771.4" y1="990.7" x2="1844.1" y2="990.7"/>
      </g>
    </g>
    <g>
      <g>
        <g>
          <line class="st2" x1="1789.9" y1="540" x2="1808.1" y2="540"/>
          <line class="st2" x1="1789.9" y1="531.1" x2="1808.1" y2="531.1"/>
          <line class="st2" x1="1789.9" y1="522.1" x2="1808.1" y2="522.1"/>
          <line class="st2" x1="1789.9" y1="513.2" x2="1808.1" y2="513.2"/>
          <line class="st2" x1="1789.9" y1="504.3" x2="1808.1" y2="504.3"/>
          <line class="st2" x1="1789.9" y1="495.4" x2="1808.1" y2="495.4"/>
        </g>
        <g>
          <line class="st2" x1="1789.9" y1="495.4" x2="1808.1" y2="495.4"/>
          <line class="st2" x1="1789.9" y1="486.4" x2="1808.1" y2="486.4"/>
          <line class="st2" x1="1789.9" y1="477.5" x2="1808.1" y2="477.5"/>
          <line class="st2" x1="1789.9" y1="468.6" x2="1808.1" y2="468.6"/>
          <line class="st2" x1="1789.9" y1="459.7" x2="1808.1" y2="459.7"/>
          <line class="st2" x1="1789.9" y1="450.7" x2="1808.1" y2="450.7"/>
        </g>
        <g>
          <line class="st2" x1="1789.9" y1="450.7" x2="1808.1" y2="450.7"/>
          <line class="st2" x1="1789.9" y1="441.8" x2="1808.1" y2="441.8"/>
          <line class="st2" x1="1789.9" y1="432.9" x2="1808.1" y2="432.9"/>
          <line class="st2" x1="1789.9" y1="424" x2="1808.1" y2="424"/>
          <line class="st2" x1="1789.9" y1="415" x2="1808.1" y2="415"/>
          <line class="st2" x1="1789.9" y1="406.1" x2="1808.1" y2="406.1"/>
        </g>
        <g>
          <line class="st2" x1="1789.9" y1="406.1" x2="1808.1" y2="406.1"/>
          <line class="st2" x1="1789.9" y1="397.2" x2="1808.1" y2="397.2"/>
          <line class="st2" x1="1789.9" y1="388.3" x2="1808.1" y2="388.3"/>
          <line class="st2" x1="1789.9" y1="379.3" x2="1808.1" y2="379.3"/>
          <line class="st2" x1="1789.9" y1="370.4" x2="1808.1" y2="370.4"/>
          <line class="st2" x1="1789.9" y1="361.5" x2="1808.1" y2="361.5"/>
        </g>
        <line class="st3" x1="1776.9" y1="540" x2="1808.1" y2="540"/>
        <line class="st3" x1="1776.9" y1="495.4" x2="1808.1" y2="495.4"/>
        <line class="st3" x1="1776.9" y1="450.7" x2="1808.1" y2="450.7"/>
        <line class="st3" x1="1776.9" y1="406.1" x2="1808.1" y2="406.1"/>
        <line class="st3" x1="1776.9" y1="361.5" x2="1808.1" y2="361.5"/>
      </g>
      <g>
        <g>
          <line class="st2" x1="1789.9" y1="540" x2="1808.1" y2="540"/>
          <line class="st2" x1="1789.9" y1="548.9" x2="1808.1" y2="548.9"/>
          <line class="st2" x1="1789.9" y1="557.9" x2="1808.1" y2="557.9"/>
          <line class="st2" x1="1789.9" y1="566.8" x2="1808.1" y2="566.8"/>
          <line class="st2" x1="1789.9" y1="575.7" x2="1808.1" y2="575.7"/>
          <line class="st2" x1="1789.9" y1="584.6" x2="1808.1" y2="584.6"/>
        </g>
        <g>
          <line class="st2" x1="1789.9" y1="584.6" x2="1808.1" y2="584.6"/>
          <line class="st2" x1="1789.9" y1="593.6" x2="1808.1" y2="593.6"/>
          <line class="st2" x1="1789.9" y1="602.5" x2="1808.1" y2="602.5"/>
          <line class="st2" x1="1789.9" y1="611.4" x2="1808.1" y2="611.4"/>
          <line class="st2" x1="1789.9" y1="620.3" x2="1808.1" y2="620.3"/>
          <line class="st2" x1="1789.9" y1="629.3" x2="1808.1" y2="629.3"/>
        </g>
        <g>
          <line class="st2" x1="1789.9" y1="629.3" x2="1808.1" y2="629.3"/>
          <line class="st2" x1="1789.9" y1="638.2" x2="1808.1" y2="638.2"/>
          <line class="st2" x1="1789.9" y1="647.1" x2="1808.1" y2="647.1"/>
          <line class="st2" x1="1789.9" y1="656" x2="1808.1" y2="656"/>
          <line class="st2" x1="1789.9" y1="665" x2="1808.1" y2="665"/>
          <line class="st2" x1="1789.9" y1="673.9" x2="1808.1" y2="673.9"/>
        </g>
        <g>
          <line class="st2" x1="1789.9" y1="673.9" x2="1808.1" y2="673.9"/>
          <line class="st2" x1="1789.9" y1="682.8" x2="1808.1" y2="682.8"/>
          <line class="st2" x1="1789.9" y1="691.7" x2="1808.1" y2="691.7"/>
          <line class="st2" x1="1789.9" y1="700.7" x2="1808.1" y2="700.7"/>
          <line class="st2" x1="1789.9" y1="709.6" x2="1808.1" y2="709.6"/>
          <line class="st2" x1="1789.9" y1="718.5" x2="1808.1" y2="718.5"/>
        </g>
        <line class="st3" x1="1776.9" y1="540" x2="1808.1" y2="540"/>
        <line class="st3" x1="1776.9" y1="584.6" x2="1808.1" y2="584.6"/>
        <line class="st3" x1="1776.9" y1="629.3" x2="1808.1" y2="629.3"/>
        <line class="st3" x1="1776.9" y1="673.9" x2="1808.1" y2="673.9"/>
        <line class="st3" x1="1776.9" y1="718.5" x2="1808.1" y2="718.5"/>
      </g>
    </g>
  </g>
</svg>