<?xml version="1.0" encoding="UTF-8"?>
<svg xmlns="http://www.w3.org/2000/svg" version="1.1" viewBox="0 0 1920 1080">
  <!-- Generator: Adobe Illustrator 29.3.1, SVG Export Plug-In . SVG Version: 2.1.0 Build 151)  -->
  <defs>
    <style>
      .st0 {
        fill: none;
        stroke-width: 2px;
      }

      .st0, .st1 {
        stroke: #212223;
        stroke-miterlimit: 10;
      }

      .st2, .st3 {
        fill: #fff;
      }

      .st2, .st4, .st5 {
        font-size: 14px;
      }

      .st6, .st7 {
        font-size: 42px;
      }

      .st6, .st7, .st5, .st8 {
        letter-spacing: 0em;
      }

      .st6, .st7, .st5, .st8, .st9 {
        font-family: Roboto-Regular, Roboto;
      }

      .st6, .st10, .st5, .st9 {
        fill: #0019aa;
      }

      .st11, .st7 {
        fill: #212223;
      }

      .st12, .st4 {
        fill: #a5a5a5;
      }

      .st13, .st1 {
        fill: #d4d4d4;
      }

      .st1 {
        stroke-width: 2.1px;
      }

      .st8 {
        font-size: 28px;
      }

      .st9 {
        font-size: 10px;
        letter-spacing: 0em;
      }

      .st14 {
        fill: #afafaf;
      }
    </style>
  </defs>
  <g id="Capa_4">
    <rect class="st13" y="0" width="1920" height="1080"/>
    <line class="st0" x1="67.3" y1="178.2" x2="1852.7" y2="178.2"/>
  </g>
  <g id="Capa_1">
    <text class="st8" transform="translate(67.3 284.1)"><tspan class="st10"><tspan x="0" y="0">Colores</tspan></tspan><tspan class="st12"><tspan x="0" y="59.9">Imagotipo</tspan></tspan><tspan class="st12"><tspan x="0" y="119.8">Tipografía</tspan></tspan><tspan class="st12"><tspan x="0" y="179.7">Aplicaciones</tspan></tspan></text>
    <text class="st9" transform="translate(67.3 984.9)"><tspan x="0" y="0">2025</tspan><tspan x="0" y="14">Veloz</tspan><tspan x="0" y="28">Manual de Marca</tspan></text>
    <text class="st5" transform="translate(915.1 77.6)"><tspan x="0" y="0">Se selecciona una paleta monocromática con un azul vibrante como destaque con el objetivo de consolidar una </tspan><tspan x="0" y="21">imagen de responsabilidad, dinamismo y elegancia. Se contrasta con un negro carbón con base azuldada y con </tspan><tspan x="0" y="42">dos tonos de grises que terminan de generar una noción de solidez.</tspan></text>
    <text class="st7" transform="translate(392 97.1)"><tspan x="0" y="0">Valores</tspan><tspan x="0" y="43.6">cromáticos</tspan></text>
    <text class="st6" transform="translate(352.9 97.1)"><tspan x="0" y="0">1.</tspan></text>
    <rect class="st10" x="367" y="263.9" width="272.4" height="749.1" rx="30.2" ry="30.2"/>
    <rect class="st11" x="670.3" y="263.9" width="272.4" height="749.1" rx="30.2" ry="30.2"/>
    <rect class="st14" x="973.6" y="263.9" width="272.4" height="749.1" rx="30.2" ry="30.2"/>
    <rect class="st1" x="1277" y="263.9" width="272.4" height="749.1" rx="30.2" ry="30.2"/>
    <rect class="st3" x="1580.3" y="263.9" width="272.4" height="749.1" rx="30.2" ry="30.2"/>
    <path class="st11" d="M104.6,110.2v-12.9c1.5-.3,2.7-1.5,3-3h12.9c-.5,8.5-7.3,15.4-15.9,15.9h0ZM86.9,94.4h12.9c.3,1.5,1.5,2.7,3,3v12.9c-8.5-.5-15.4-7.3-15.9-15.9h0ZM102.8,76.7v12.9c-1.5.3-2.7,1.5-3,3h-12.9c.5-8.5,7.3-15.4,15.9-15.9h0ZM120.5,92.6h-12.9c-.3-1.5-1.5-2.7-3-3v-12.9c8.5.5,15.4,7.3,15.9,15.9h0ZM140.1,92.6h-18.1c-.5-9.4-8-16.9-17.4-17.4v-18.1h-1.8v18.1c-9.4.5-16.9,8-17.4,17.4h-18.1v1.8h18.1c.5,9.4,8,16.9,17.4,17.4v18.1h1.8v-18.1c9.4-.5,16.9-8,17.4-17.4h18.1v-1.8Z"/>
    <path class="st11" d="M104.6,110.2v-12.9c1.5-.3,2.7-1.5,3-3h12.9c-.5,8.5-7.3,15.4-15.9,15.9h0ZM86.9,94.4h12.9c.3,1.5,1.5,2.7,3,3v12.9c-8.5-.5-15.4-7.3-15.9-15.9h0ZM102.8,76.7v12.9c-1.5.3-2.7,1.5-3,3h-12.9c.5-8.5,7.3-15.4,15.9-15.9h0ZM120.5,92.6h-12.9c-.3-1.5-1.5-2.7-3-3v-12.9c8.5.5,15.4,7.3,15.9,15.9h0ZM140.1,92.6h-18.1c-.5-9.4-8-16.9-17.4-17.4v-18.1h-1.8v18.1c-9.4.5-16.9,8-17.4,17.4h-18.1v1.8h18.1c.5,9.4,8,16.9,17.4,17.4v18.1h1.8v-18.1c9.4-.5,16.9-8,17.4-17.4h18.1v-1.8Z"/>
    <text class="st2" transform="translate(399.4 949.1)"><tspan x="0" y="0">#0019AA</tspan><tspan x="0" y="16.8">R 0 G 25 B 170</tspan><tspan x="0" y="33.6">C 100 M 86 Y 0 K 0</tspan></text>
    <text class="st2" transform="translate(701 949.1)"><tspan x="0" y="0">#212223</tspan><tspan x="0" y="16.8">R 33 G 34 B 35</tspan><tspan x="0" y="33.6">C 75 M 64 Y 58 K 74</tspan></text>
    <text class="st4" transform="translate(1612 951.7)"><tspan x="0" y="0">#FFFFFF</tspan><tspan x="0" y="16.8">R 255 G 255 B 255</tspan><tspan x="0" y="33.6">C 0 M 0 Y 0 K 0</tspan></text>
    <text class="st4" transform="translate(1304.2 951.7)"><tspan x="0" y="0">#d4d4d4</tspan><tspan x="0" y="16.8">R 165 G 165 B 165</tspan><tspan x="0" y="33.6">C 34 M 26 Y 27 K 5</tspan></text>
    <text class="st2" transform="translate(1005.9 951.7)"><tspan x="0" y="0">#afafaf</tspan><tspan x="0" y="16.8">R 175 G 175 B 175</tspan><tspan x="0" y="33.6">C 0 M 0 Y 0 K 31</tspan></text>
  </g>
</svg>